<svg xmlns="http://www.w3.org/2000/svg" width="112" height="112" viewBox="0 0 112 112">
    <g fill="none" fill-rule="evenodd">
        <path fill="#F2F2F2" d="M112 56c0-30.928-25.072-56-56-56S0 25.072 0 56s25.072 56 56 56 56-25.072 56-56"/>
        <path fill="#F46145" d="M62.157 67.616c-.4 0-.795-.18-1.058-.52l-5.758-7.53c-.177-.232-.273-.515-.273-.808V48.571c0-.734.596-1.329 1.33-1.329.733 0 1.328.595 1.328 1.33v9.736l5.485 7.171c.446.583.333 1.418-.248 1.863-.243.186-.526.274-.806.274"/>
        <path fill="#F46145" d="M56.398 42.813c-8.794 0-15.946 7.154-15.946 15.944 0 8.792 7.153 15.947 15.946 15.947 8.792 0 15.944-7.155 15.944-15.946s-7.151-15.946-15.944-15.946m0 34.549c-10.259 0-18.604-8.346-18.604-18.604s8.346-18.601 18.604-18.601S75 48.499 75 58.758c0 10.258-8.344 18.602-18.602 18.602M62.598 37.498H50.196c-.733 0-1.328-.596-1.328-1.329 0-.734.595-1.328 1.328-1.328h12.402c.734 0 1.33.594 1.33 1.328 0 .733-.596 1.329-1.33 1.329"/>
        <path fill="#F46145" d="M56.398 42.813c-.734 0-1.33-.596-1.33-1.329v-5.316c0-.733.596-1.328 1.33-1.328.732 0 1.328.595 1.328 1.328v5.316c0 .733-.596 1.328-1.328 1.328M68.605 47.88c-.34 0-.681-.13-.94-.39-.519-.52-.519-1.36 0-1.88l4.181-4.18c.522-.522 1.362-.518 1.88 0 .52.518.52 1.36 0 1.879l-4.181 4.18c-.263.262-.6.39-.94.39"/>
    </g>
</svg>
