<svg xmlns="http://www.w3.org/2000/svg" xmlns:xlink="http://www.w3.org/1999/xlink" width="112" height="112" viewBox="0 0 112 112">
    <defs>
        <path id="prefix__a" d="M0 112L112 112 112 0 0 0z"/>
    </defs>
    <g fill="none" fill-rule="evenodd">
        <path fill="#F2F2F2" d="M112 56c0-30.928-25.072-56-56-56S0 25.072 0 56s25.072 56 56 56 56-25.072 56-56"/>
        <mask id="prefix__b" fill="#fff">
            <use xlink:href="#prefix__a"/>
        </mask>
        <path fill="#F46145" d="M50.944 44.382h11.919V33.136H50.944v11.246zm-.931 1.862h6.052v9.774h1.863v-9.774h5.866c.515 0 .932-.417.932-.931V32.205c0-.515-.417-.932-.932-.932H50.013c-.515 0-.931.417-.931.932v13.108c0 .514.416.931.931.931zM51.037 77.807h11.919V66.561H51.037v11.246zm12.851-13.109h-5.96v-3.467h-1.863v3.467h-5.96c-.514 0-.93.417-.93.931v13.109c0 .514.416.931.93.931h13.783c.513 0 .93-.417.93-.931V65.629c0-.514-.417-.931-.93-.931z" mask="url(#prefix__b)"/>
        <path fill="#F46145" d="M71.15 77.807h11.919V66.561H71.15v11.246zm-40.04 0h11.919V66.561H31.11v11.246zM84 64.698h-5.959v-5.634c0-.514-.417-.931-.932-.931H36.697c-.514 0-.931.417-.931.931v5.634h-5.587c-.515 0-.931.417-.931.931v13.109c0 .514.416.931.931.931H43.96c.515 0 .932-.417.932-.931V65.629c0-.514-.417-.931-.932-.931h-6.332v-4.703h38.551v4.703h-5.96c-.515 0-.931.417-.931.931v13.109c0 .514.416.931.931.931H84c.515 0 .932-.417.932-.931V65.629c0-.514-.417-.931-.932-.931z" mask="url(#prefix__b)"/>
    </g>
</svg>
