<svg xmlns="http://www.w3.org/2000/svg" width="112" height="112" viewBox="0 0 112 112">
    <g fill="none" fill-rule="evenodd">
        <path fill="#F2F2F2" d="M112 56c0-30.928-25.072-56-56-56S0 25.072 0 56s25.072 56 56 56 56-25.072 56-56"/>
        <path fill="#F46145" d="M71.93 72.997l-5.922 5.923c-3.174 2.962-13.328-1.27-22.637-10.366-9.096-9.097-13.328-19.463-10.366-22.425l5.923-5.924c.847-.846 2.116-.846 2.962 0l5.924 5.924c.846.847.846 2.116 0 2.962l-5.077 3.807c-.847.424-1.058 1.482-.635 2.54 1.904 3.807 3.597 6.346 5.712 8.673 2.115 2.327 4.866 4.02 8.674 5.712.846.423 2.115.212 2.539-.635l3.807-5.077c.847-.846 2.116-.846 2.962 0l5.924 5.924c.846.846.846 2.115.21 2.962zm-4.653-10.366c-1.693-1.694-4.231-1.694-5.923 0l-3.81 5.288c-3.384-1.693-5.923-3.173-8.038-5.288-2.327-2.327-3.807-4.866-5.29-8.04l5.29-3.808c1.693-1.692 1.693-4.23 0-5.924l-6.135-6.346c-1.692-1.48-4.231-1.48-5.923 0l-5.924 6.135c-4.231 4.231.635 15.444 10.366 25.387 9.73 9.942 21.367 14.597 25.387 10.366l5.924-5.924c1.692-1.692 1.692-4.23 0-5.923l-5.924-5.923zM59.767 52.37c.423.423 1.058.423 1.48 0l14.598-14.598v9.31c0 .634.423 1.057 1.058 1.057s1.057-.423 1.057-1.058V35.022c0-.634-.422-1.057-1.057-1.057h-12.06c-.634 0-1.056.423-1.056 1.057 0 .635.422 1.058 1.057 1.058h9.52L59.768 50.89c-.423.422-.423 1.057 0 1.48"/>
    </g>
</svg>
