<svg xmlns="http://www.w3.org/2000/svg" width="112" height="112" viewBox="0 0 112 112">
    <g fill="none" fill-rule="evenodd">
        <path fill="#F2F2F2" d="M112 56c0-30.928-25.072-56-56-56S0 25.072 0 56s25.072 56 56 56 56-25.072 56-56"/>
        <path fill="#F46145" d="M60.373 81.838c-.811 0-1.47-.66-1.47-1.47 0-.81.659-1.468 1.47-1.468.81 0 1.469.659 1.469 1.468 0 .81-.659 1.47-1.469 1.47zm0-4.571c-1.711 0-3.102 1.39-3.102 3.1 0 1.712 1.391 3.103 3.102 3.103 1.71 0 3.102-1.391 3.102-3.102 0-1.71-1.392-3.101-3.102-3.101zm18.896 9.985h-4.925l1.345-12.692c.074-.69-.151-1.38-.614-1.896-.464-.515-1.127-.811-1.82-.811h-3.283v-4.977l5.474 2.346c2.323 1.03 3.823 3.336 3.823 5.875v12.155zm-5.203-12.864l-1.364 12.864H48.043L46.68 74.388c-.026-.234.047-.458.204-.632.157-.175.373-.271.607-.271h25.764c.234 0 .449.096.606.27.158.175.23.399.205.633zM45.652 61.7c-.827-1.762-.569-3.788.674-5.285 1.559-1.88 2.499-4.2 2.497-6.643v-2.038h1.781v6.215c0 3.058 1.719 5.72 4.24 7.076-.158 1.3-.991 2.438-2.214 2.97l-1.296.564h-1.183c-1.947 0-3.671-1.096-4.499-2.86zm3.171-15.712c0-6.171 5.021-11.191 11.191-11.191 2.213 0 4.328.639 6.134 1.828-1.302 2.089-3.495 4.775-6.949 6.817-2.37 1.402-4.969 2.297-7.726 2.66h-2.65v-.114zM63.149 56.42c-.001.419-.341.759-.759.759h-1.913c-.419 0-.76-.341-.76-.761s.341-.76.76-.76h1.913c.418 0 .757.34.759.758v.004zm8.057-10.293c-2.248.304-4.782-.3-6.528-1.651-.357-.277-.869-.212-1.146.144-.276.357-.211.869.146 1.146 1.141.884 2.518 1.507 4.008 1.82v4.444c-.392.895-.829 1.638-1.813 2.45-.414.34-.868.626-1.354.85-.396-.773-1.202-1.304-2.129-1.304h-1.913c-1.32 0-2.393 1.073-2.393 2.392s1.073 2.393 2.393 2.393h1.913c1.11 0 2.045-.76 2.314-1.787 1.092-.416 2.872-1.901 2.873-1.902-.553 2.968-3.16 5.222-6.285 5.222h-2.66c-3.526 0-6.395-2.868-6.395-6.395V47.64c2.773-.435 5.391-1.373 7.793-2.794 3.657-2.163 6.003-4.99 7.418-7.223 2.423 2.157 3.801 5.25 3.758 8.503zM68.34 69.712v2.14H51.583v-1.99c2.646.696 5.363 1.046 8.099 1.046.186 0 .373-.001.559-.005 2.741-.047 5.46-.448 8.099-1.191zm-8.127-.44c-2.92.05-5.819-.32-8.63-1.1V66.23l.236-.103.006-.002 1.456-.633c1.621-.705 2.766-2.148 3.113-3.835.711.207 1.461.32 2.238.32h2.66c.779 0 1.532-.114 2.245-.322.359 1.679 1.509 3.109 3.13 3.805l1.555.666h.003l.115.05v1.837c-2.642.787-5.373 1.21-8.127 1.259zm13.36-12.886c.772.918 1.18 2.015 1.18 3.172 0 1.27-.504 2.536-1.383 3.468-.931.989-2.208 1.533-3.599 1.533h-1.063l-1.398-.6c-1.22-.523-2.055-1.645-2.225-2.936 2.518-1.357 4.234-4.018 4.234-7.074v-6.135c.239.016.478.025.715.025.393 0 .784-.022 1.172-.066V49.9c0 2.37.841 4.673 2.367 6.486zm8.145 30.866h-.817V75.097c0-3.185-1.882-6.076-4.802-7.371l-4.302-1.844c1.047-.33 1.992-.92 2.762-1.736 1.161-1.233 1.826-2.905 1.826-4.588 0-1.547-.54-3.007-1.563-4.223-1.279-1.518-1.984-3.45-1.984-5.435v-3.912c0-3.425-1.334-6.645-3.756-9.067-2.423-2.422-5.643-3.756-9.068-3.756-7.071 0-12.823 5.752-12.823 12.823v3.784c0 2.055-.807 4.017-2.12 5.599-1.652 1.99-1.996 4.682-.896 7.024.816 1.738 2.289 2.986 4.052 3.515l-4.272 1.858c-2.997 1.26-4.934 4.176-4.934 7.427v9.609c0 .45.366.815.817.815.45 0 .816-.365.816-.815v-9.61c0-2.591 1.544-4.917 3.943-5.925l5.354-2.33v4.914h-2.46c-.693 0-1.356.296-1.82.81-.464.517-.688 1.207-.615 1.897l1.345 12.692h-18.77c-.451 0-.817.365-.817.816 0 .45.366.817.817.817h54.087c.45 0 .816-.366.816-.817 0-.451-.366-.816-.816-.816zm-50.937-50.2c1.505-1.485 3.494-2.283 5.613-2.254 4.229.06 7.691 3.552 7.717 7.78.015 2.283-.964 4.453-2.684 5.954-.288.25-.439.628-.404 1.008.035.38.251.723.579.917l.009.004-5.488-.001c-4.242-.081-7.677-3.576-7.677-7.83 0-2.113.829-4.095 2.335-5.578zm5.32 15.04h.014l7.38.003c.51 0 .942-.331 1.077-.822.135-.493-.069-.997-.509-1.256l-1.122-.664c1.804-1.788 2.819-4.228 2.803-6.785-.032-5.111-4.216-9.33-9.326-9.402-5.295-.076-9.604 4.207-9.604 9.464 0 5.04 4.154 9.354 9.287 9.463zm.178-8.646c.45 0 .817-.366.817-.816 0-.451-.367-.816-.817-.816-.451 0-.816.365-.816.816 0 .45.365.816.816.816zm-3.264 0c.45 0 .816-.366.816-.816 0-.451-.366-.816-.816-.816-.452 0-.817.365-.817.816 0 .45.365.816.817.816zm6.529 0c.451 0 .816-.366.816-.816 0-.451-.365-.816-.816-.816-.45 0-.817.365-.817.816 0 .45.366.816.817.816z"/>
    </g>
</svg>
