<svg xmlns="http://www.w3.org/2000/svg" width="112" height="112" viewBox="0 0 112 112">
    <g fill="none" fill-rule="evenodd">
        <path fill="#F2F2F2" d="M112 56c0-30.928-25.072-56-56-56S0 25.072 0 56s25.072 56 56 56 56-25.072 56-56"/>
        <path fill="#00EA55" d="M65.084 64.7c-2.859 1.278-5.961 1.922-9.093 1.887-2.945-.036-5.851-.679-8.536-1.888-.379-.18-.832-.019-1.012.361l-.009.02c-.176.386-.006.842.38 1.02 2.878 1.302 5.995 1.993 9.153 2.03h.297c3.273.001 6.509-.69 9.497-2.03.386-.187.549-.652.362-1.039-.187-.387-.652-.549-1.039-.362"/>
        <path stroke="#00EA55" stroke-width=".25" d="M65.084 64.7c-2.859 1.278-5.961 1.922-9.093 1.887-2.945-.036-5.851-.679-8.536-1.888-.379-.18-.832-.019-1.012.361l-.009.02c-.176.386-.006.842.38 1.02 2.878 1.302 5.995 1.993 9.153 2.03h.297c3.273.001 6.509-.69 9.497-2.03.386-.187.549-.652.362-1.039-.187-.387-.652-.549-1.039-.362z"/>
        <path fill="#00EA55" d="M78.534 69.566c-.006 3.513-2.85 6.362-6.363 6.375h-6.125l-.095.63c-.21 2.293.3 4.596 1.46 6.587-4.131-1.424-6.72-5.567-7.443-6.849l-.214-.392H40.38c-3.51-.006-6.355-2.842-6.374-6.35V46.69c.006-3.518 2.856-6.368 6.374-6.374h31.79c3.514.013 6.358 2.861 6.364 6.374v22.876zM54.364 32.85c0-1.036.84-1.876 1.876-1.876s1.876.84 1.876 1.876c0 1.035-.84 1.875-1.876 1.875-1.004-.019-1.814-.825-1.84-1.828l-.035-.047zm17.807 5.935H57.047v-2.576c1.84-.426 2.986-2.263 2.559-4.102-.426-1.84-2.262-2.985-4.102-2.56-1.84.427-2.985 2.264-2.56 4.103.296 1.271 1.289 2.265 2.56 2.56v2.563H40.38c-4.368 0-7.911 3.538-7.918 7.906v22.888c0 4.373 3.545 7.918 7.918 7.918h18.448c1.08 1.805 4.072 6.102 8.76 7.372.112.012.223.012.333 0 .408 0 .792-.194 1.033-.522.334-.396.372-.963.095-1.4-1.026-1.656-1.6-3.55-1.662-5.497h4.749c4.363.013 7.915-3.507 7.94-7.87V46.69c0-4.366-3.538-7.906-7.905-7.906z"/>
        <path stroke="#00EA55" stroke-width=".25" d="M78.534 69.566c-.006 3.513-2.85 6.362-6.363 6.375h-6.125l-.095.63c-.21 2.293.3 4.596 1.46 6.587-4.131-1.424-6.72-5.567-7.443-6.849l-.214-.392H40.38c-3.51-.006-6.355-2.842-6.374-6.35V46.69c.006-3.518 2.856-6.368 6.374-6.374h31.79c3.514.013 6.358 2.861 6.364 6.374v22.876zM54.364 32.85c0-1.036.84-1.876 1.876-1.876s1.876.84 1.876 1.876c0 1.035-.84 1.875-1.876 1.875-1.004-.019-1.814-.825-1.84-1.828l-.035-.047zm17.807 5.935H57.047v-2.576c1.84-.426 2.986-2.263 2.559-4.102-.426-1.84-2.262-2.985-4.102-2.56-1.84.427-2.985 2.264-2.56 4.103.296 1.271 1.289 2.265 2.56 2.56v2.563H40.38c-4.368 0-7.911 3.538-7.918 7.906v22.888c0 4.373 3.545 7.918 7.918 7.918h18.448c1.08 1.805 4.072 6.102 8.76 7.372.112.012.223.012.333 0 .408 0 .792-.194 1.033-.522.334-.396.372-.963.095-1.4-1.026-1.656-1.6-3.55-1.662-5.497h4.749c4.363.013 7.915-3.507 7.94-7.87V46.69c0-4.366-3.538-7.906-7.905-7.906z"/>
        <path fill="#00EA55" d="M44.12 53.778c0-1.803 1.461-3.265 3.264-3.265 1.803 0 3.264 1.462 3.264 3.265 0 1.803-1.46 3.265-3.264 3.265-1.803 0-3.265-1.462-3.265-3.265m8.073 0c0-2.655-2.153-4.808-4.808-4.808-2.656 0-4.808 2.153-4.808 4.808s2.152 4.808 4.808 4.808c2.655 0 4.808-2.153 4.808-4.808"/>
        <path stroke="#00EA55" stroke-width=".25" d="M44.12 53.778c0-1.803 1.461-3.265 3.264-3.265 1.803 0 3.264 1.462 3.264 3.265 0 1.803-1.46 3.265-3.264 3.265-1.803 0-3.265-1.462-3.265-3.265zm8.072 0c0-2.655-2.153-4.808-4.808-4.808-2.656 0-4.808 2.153-4.808 4.808s2.152 4.808 4.808 4.808c2.655 0 4.808-2.153 4.808-4.808z"/>
        <path fill="#00EA55" d="M65.155 57.042c-1.803 0-3.265-1.462-3.265-3.264 0-1.803 1.462-3.264 3.265-3.264 1.803 0 3.264 1.46 3.264 3.264 0 1.803-1.46 3.264-3.264 3.264m0-8.06c-2.623.032-4.722 2.185-4.689 4.807.033 2.622 2.185 4.721 4.808 4.69 2.6-.033 4.69-2.15 4.69-4.748 0-2.623-2.127-4.75-4.749-4.75h-.06"/>
        <path stroke="#00EA55" stroke-width=".25" d="M65.155 57.042c-1.803 0-3.265-1.462-3.265-3.264 0-1.803 1.462-3.264 3.265-3.264 1.803 0 3.264 1.46 3.264 3.264 0 1.803-1.46 3.264-3.264 3.264zm0-8.06c-2.623.032-4.722 2.185-4.689 4.807.033 2.622 2.185 4.721 4.808 4.69 2.6-.033 4.69-2.15 4.69-4.748 0-2.623-2.127-4.75-4.749-4.75h-.06z"/>
    </g>
</svg>
