<svg xmlns="http://www.w3.org/2000/svg" width="112" height="112" viewBox="0 0 112 112">
    <g fill="none" fill-rule="evenodd">
        <path fill="#F2F2F2" d="M112 56c0-30.928-25.072-56-56-56S0 25.072 0 56s25.072 56 56 56 56-25.072 56-56"/>
        <path stroke="#00EA55" stroke-linejoin="round" stroke-width="2" d="M72.942 50.025c.017.337.026.677.026 1.017 0 10.343-8.79 22.266-24.87 22.266-4.934 0-9.53-1.292-13.396-3.515.684.073 1.38.11 2.085.11 4.096 0 7.863-1.251 10.855-3.35-3.824-.062-7.053-2.326-8.164-5.437.532.09 1.08.142 1.642.142.797 0 1.57-.094 2.303-.273-3.998-.718-7.01-3.88-7.01-7.675 0-.033 0-.067.003-.098 1.177.584 2.525.937 3.956.977-2.343-1.4-3.886-3.798-3.886-6.513 0-1.436.43-2.781 1.182-3.937 4.309 4.737 10.75 7.852 18.013 8.18-.15-.573-.225-1.169-.225-1.784 0-4.322 3.913-7.827 8.738-7.827 2.515 0 4.783.95 6.38 2.471 1.993-.35 3.859-1 5.552-1.9-.658 1.829-2.038 3.361-3.848 4.33 1.769-.188 3.458-.606 5.02-1.23-1.166 1.567-2.648 2.946-4.356 4.046z"/>
    </g>
</svg>
