<svg xmlns="http://www.w3.org/2000/svg" width="112" height="112" viewBox="0 0 112 112">
    <g fill="none" fill-rule="evenodd">
        <path fill="#F2F2F2" d="M112 56c0-30.928-25.072-56-56-56S0 25.072 0 56s25.072 56 56 56 56-25.072 56-56"/>
        <path fill="#6727E5" d="M43.111 73.488l.78.395c3.666 1.854 7.853 2.834 12.108 2.834C69.232 76.717 80 67.424 80 56c0-11.424-10.768-20.718-24-20.718-13.236 0-24.002 9.294-24.002 20.717 0 4.748 1.911 9.389 5.383 13.069l.353.374.017.514c.06 1.847-.272 4.352-1.914 6.76 3.146-.051 6.04-2.241 6.591-2.683l.683-.546zm-6.838 5.317c-.988 0-1.945-.158-2.85-.471l-2.057-.712 1.581-1.497c2.093-1.982 2.621-4.267 2.655-5.98C31.985 66.135 30 61.132 30 56c0-12.574 11.663-22.805 26-22.805 14.336 0 26 10.23 26 22.805 0 12.574-11.664 22.804-26 22.804-4.269 0-8.48-.924-12.233-2.682-1.414 1.002-4.269 2.683-7.494 2.683z"/>
        <path fill="#6727E5" d="M43.389 62.237c-.97 0-1.757-.076-2.365-.229-.608-.15-1.027-.307-1.258-.466-.058-.058-.08-.19-.065-.4.013-.209.046-.427.097-.65.05-.224.115-.425.195-.596.08-.174.155-.254.228-.239.376.13.784.257 1.226.38.44.122 1 .183 1.68.183.696 0 1.283-.1 1.77-.303.483-.203.726-.565.726-1.085 0-.45-.16-.814-.477-1.096-.32-.28-.89-.582-1.714-.899-.45-.175-.871-.366-1.27-.576-.398-.209-.748-.456-1.052-.738-.304-.282-.542-.618-.716-1.008-.174-.39-.261-.853-.261-1.389 0-.433.084-.846.25-1.237.166-.39.423-.727.77-1.008.347-.282.792-.507 1.335-.672.543-.167 1.189-.25 1.942-.25.49 0 .9.011 1.226.032.325.022.59.051.802.087.209.036.38.076.51.12.13.043.253.08.369.108.1.043.152.17.152.38s-.03.433-.087.673c-.058.238-.138.448-.24.628-.1.182-.201.257-.302.23-.246-.074-.582-.153-1.01-.24-.426-.087-.841-.13-1.246-.13-.825 0-1.393.117-1.703.347-.312.231-.467.542-.467.933 0 .42.174.756.52 1.008.348.253.89.51 1.627.771 1.172.462 2.037.994 2.593 1.594.557.6.836 1.356.836 2.267 0 .68-.131 1.245-.391 1.694-.26.448-.607.803-1.041 1.062-.433.261-.93.445-1.486.553-.557.107-1.125.161-1.703.161M59.03 62.129c-.304 0-.503-.05-.596-.152-.094-.1-.14-.295-.14-.586v-7.594c-.578.94-1.025 1.667-1.336 2.18-.313.515-.538.89-.683 1.13-.145.237-.232.379-.262.422-.029.044-.042.074-.042.088-.129.217-.22.358-.27.423-.052.067-.157.097-.317.097h-.346c-.188 0-.312-.032-.369-.097-.057-.065-.145-.206-.26-.423l-2.213-3.775v7.68c0 .19-.033.338-.099.446-.064.109-.234.163-.509.163h-.91c-.203 0-.379-.032-.533-.098-.15-.065-.227-.278-.227-.64V50.978c0-.29.053-.481.162-.575.108-.094.264-.141.467-.141h1.085c.16 0 .293.022.401.065.108.044.22.152.337.325l2.884 4.6 2.885-4.556c.087-.16.192-.271.317-.337.123-.065.241-.097.357-.097h1.194c.275 0 .433.058.478.174.043.116.065.304.065.564v10.499c0 .217-.029.377-.087.479-.058.102-.225.15-.498.15h-.935zM66.256 62.237c-.971 0-1.757-.076-2.365-.229-.607-.15-1.028-.307-1.257-.466-.06-.058-.08-.19-.066-.4.013-.209.045-.427.096-.65.05-.224.115-.425.196-.596.079-.174.154-.254.228-.239.376.13.785.257 1.226.38.439.122 1 .183 1.68.183.695 0 1.283-.1 1.769-.303.483-.203.727-.565.727-1.085 0-.45-.16-.814-.478-1.096-.32-.28-.89-.582-1.714-.899-.45-.175-.871-.366-1.27-.576-.398-.209-.748-.456-1.052-.738-.304-.282-.542-.618-.716-1.008-.174-.39-.261-.853-.261-1.389 0-.433.084-.846.249-1.237.167-.39.424-.727.77-1.008.348-.282.793-.507 1.335-.672.544-.167 1.19-.25 1.942-.25.492 0 .9.011 1.226.032.325.022.59.051.803.087.208.036.379.076.51.12.13.043.253.08.369.108.1.043.152.17.152.38s-.03.433-.088.673c-.057.238-.137.448-.237.628-.101.182-.204.257-.304.23-.245-.074-.583-.153-1.008-.24-.428-.087-.843-.13-1.248-.13-.824 0-1.393.117-1.702.347-.312.231-.468.542-.468.933 0 .42.175.756.52 1.008.348.253.89.51 1.628.771 1.17.462 2.037.994 2.593 1.594.557.6.835 1.356.835 2.267 0 .68-.13 1.245-.39 1.694-.26.448-.608.803-1.042 1.062-.433.261-.928.445-1.485.553-.558.107-1.125.161-1.703.161"/>
    </g>
</svg>
