<svg xmlns="http://www.w3.org/2000/svg" width="112" height="112" viewBox="0 0 112 112">
    <g fill="none" fill-rule="evenodd">
        <path fill="#F2F2F2" d="M112 56c0-30.928-25.072-56-56-56S0 25.072 0 56s25.072 56 56 56 56-25.072 56-56"/>
        <path fill="#F46145" d="M75.09 74.358c0 1.506-1.226 2.731-2.731 2.731H43.062c-1.506 0-2.732-1.225-2.732-2.73V36.845c0-1.507 1.226-2.732 2.732-2.732h20.713v6.675c0 1.24.483 2.405 1.359 3.281.877.877 2.043 1.36 3.282 1.36h6.674v28.928zm-9.405-38.893l8.054 8.055h-5.323c-.73 0-1.415-.284-1.931-.8s-.8-1.202-.8-1.93v-5.325zM76.72 43.8L65.405 32.484c-.18-.179-.422-.279-.675-.279H43.062c-2.56 0-4.642 2.082-4.642 4.641v37.512c0 2.56 2.082 4.642 4.642 4.642h29.297c2.559 0 4.64-2.082 4.64-4.642V44.474c0-.253-.1-.496-.278-.675z"/>
        <path fill="#F46145" d="M47.82 62.708h-.428c-.527 0-.955.428-.955.955 0 .527.428.955.955.955h.428c.527 0 .955-.428.955-.955 0-.527-.428-.955-.955-.955M68.027 62.708H50.91c-.528 0-.955.428-.955.955 0 .527.427.955.955.955h17.118c.527 0 .955-.428.955-.955 0-.527-.428-.955-.955-.955M47.82 56.517h-.428c-.527 0-.955.427-.955.955 0 .527.428.955.955.955h.428c.527 0 .955-.428.955-.955 0-.528-.428-.955-.955-.955M68.027 56.517H50.91c-.528 0-.955.427-.955.955 0 .527.427.955.955.955h17.118c.527 0 .955-.428.955-.955 0-.528-.428-.955-.955-.955M47.82 50.142h-.428c-.527 0-.955.428-.955.955 0 .527.428.955.955.955h.428c.527 0 .955-.428.955-.955 0-.527-.428-.955-.955-.955M68.027 50.142H50.91c-.528 0-.955.428-.955.955 0 .527.427.955.955.955h17.118c.527 0 .955-.428.955-.955 0-.527-.428-.955-.955-.955"/>
    </g>
</svg>
