<svg xmlns="http://www.w3.org/2000/svg" width="112" height="112" viewBox="0 0 112 112">
    <g fill="none" fill-rule="evenodd">
        <path fill="#F2F2F2" d="M112 56c0-30.928-25.072-56-56-56S0 25.072 0 56s25.072 56 56 56 56-25.072 56-56"/>
        <path fill="#6727E5" d="M74.354 71.032l-5.923 5.923c-3.174 2.962-13.328-1.269-22.637-10.366-9.097-9.097-13.328-19.463-10.366-22.425l5.924-5.924c.846-.846 2.115-.846 2.961 0l5.924 5.924c.846.847.846 2.116 0 2.962l-5.077 3.808c-.847.423-1.058 1.481-.635 2.538 1.904 3.81 3.596 6.347 5.712 8.674 2.116 2.327 4.866 4.02 8.674 5.713.846.423 2.115.211 2.538-.635l3.808-5.078c.847-.846 2.116-.846 2.962 0l5.924 5.924c.846.846.846 2.115.211 2.962zM69.7 60.666c-1.693-1.693-4.231-1.693-5.924 0l-3.808 5.288c-3.385-1.692-5.923-3.173-8.039-5.288-2.327-2.327-3.808-4.866-5.289-8.04l5.289-3.807c1.693-1.693 1.693-4.232 0-5.924l-6.135-6.347c-1.692-1.48-4.231-1.48-5.923 0l-5.924 6.135c-4.231 4.231.635 15.444 10.366 25.387C54.045 78.013 65.68 82.667 69.7 78.436l5.924-5.924c1.692-1.692 1.692-4.23 0-5.923L69.7 60.666zM80.066 32.317c-.423-.423-1.058-.423-1.48 0L63.988 46.914v-9.308c0-.635-.423-1.058-1.058-1.058s-1.057.423-1.057 1.058v12.06c0 .633.422 1.056 1.057 1.056h12.059c.635 0 1.057-.423 1.057-1.057 0-.635-.422-1.058-1.057-1.058h-9.52l14.597-14.809c.423-.423.423-1.058 0-1.48"/>
    </g>
</svg>
