<svg xmlns="http://www.w3.org/2000/svg" width="112" height="112" viewBox="0 0 112 112">
    <g fill="none" fill-rule="evenodd">
        <path fill="#F2F2F2" d="M112 56c0-30.928-25.072-56-56-56S0 25.072 0 56s25.072 56 56 56 56-25.072 56-56"/>
        <path fill="red" d="M38.447 38.519c-1.595 0-3.124 1.617-4.795 3.575-2.673 3.134-2.86 3.464-2.42 7.534.704 6.511 5.18 14.255 11.978 20.711 6.731 6.39 14.298 10.207 20.237 10.207 1.188 0 2.311-.154 3.333-.462 1.76-.528 5.61-3.993 6.292-6.478.187-.704.11-1.221-.242-1.606-.56-.605-1.144-1.298-1.76-2.024-2.079-2.475-4.433-5.29-6.73-5.29-.749 0-1.475.296-2.19.913-.627.538-1.188 1.143-1.727 1.737-.55.605-1.067 1.177-1.66 1.672-.309.264-.694.385-1.167.385-2.398 0-6.478-3.651-8.128-5.213-3.212-3.058-5.884-6.457-6.819-8.646-.56-1.32-.55-2.309.044-2.925.374-.385.814-.792 1.297-1.221 2.2-1.991 3.817-3.641 2.926-5.302-2.134-2.244-4.267-4.476-6.4-6.72-.716-.572-1.398-.847-2.069-.847m24.99 43.347c-6.27 0-14.178-3.949-21.15-10.57-7.007-6.666-11.638-14.717-12.375-21.525-.484-4.466-.143-5.159 2.727-8.535 1.54-1.804 3.465-4.037 5.797-4.037.99 0 1.97.396 2.937 1.188.022.022.044.033.055.055 2.166 2.266 4.333 4.542 6.49 6.808.032.033.065.077.098.122 1.584 2.738-1.155 5.213-3.156 7.006-.462.407-.892.803-1.232 1.155-.133.143-.155.615.22 1.485.87 2.045 3.42 5.268 6.522 8.216 3.091 2.948 5.93 4.85 7.215 4.85.143 0 .253-.022.308-.077.528-.44 1.023-.979 1.54-1.551.561-.616 1.144-1.253 1.837-1.848.957-.814 1.991-1.232 3.047-1.232 2.914 0 5.477 3.059 7.743 5.753.605.715 1.166 1.397 1.716 1.98.473.506.946 1.408.55 2.848-.836 3.047-5.07 6.765-7.183 7.392-1.143.352-2.386.517-3.706.517"/>
        <path stroke="red" stroke-width=".5" d="M38.447 38.519c-1.595 0-3.124 1.617-4.795 3.575-2.673 3.134-2.86 3.464-2.42 7.534.704 6.511 5.18 14.255 11.978 20.711 6.731 6.39 14.298 10.207 20.237 10.207 1.188 0 2.311-.154 3.333-.462 1.76-.528 5.61-3.993 6.292-6.478.187-.704.11-1.221-.242-1.606-.56-.605-1.144-1.298-1.76-2.024-2.079-2.475-4.433-5.29-6.73-5.29-.749 0-1.475.296-2.19.913-.627.538-1.188 1.143-1.727 1.737-.55.605-1.067 1.177-1.66 1.672-.309.264-.694.385-1.167.385-2.398 0-6.478-3.651-8.128-5.213-3.212-3.058-5.884-6.457-6.819-8.646-.56-1.32-.55-2.309.044-2.925.374-.385.814-.792 1.297-1.221 2.2-1.991 3.817-3.641 2.926-5.302-2.134-2.244-4.267-4.476-6.4-6.72-.716-.572-1.398-.847-2.069-.847zm24.99 43.347c-6.27 0-14.178-3.949-21.15-10.57-7.007-6.666-11.638-14.717-12.375-21.525-.484-4.466-.143-5.159 2.727-8.535 1.54-1.804 3.465-4.037 5.797-4.037.99 0 1.97.396 2.937 1.188.022.022.044.033.055.055 2.166 2.266 4.333 4.542 6.49 6.808.032.033.065.077.098.122 1.584 2.738-1.155 5.213-3.156 7.006-.462.407-.892.803-1.232 1.155-.133.143-.155.615.22 1.485.87 2.045 3.42 5.268 6.522 8.216 3.091 2.948 5.93 4.85 7.215 4.85.143 0 .253-.022.308-.077.528-.44 1.023-.979 1.54-1.551.561-.616 1.144-1.253 1.837-1.848.957-.814 1.991-1.232 3.047-1.232 2.914 0 5.477 3.059 7.743 5.753.605.715 1.166 1.397 1.716 1.98.473.506.946 1.408.55 2.848-.836 3.047-5.07 6.765-7.183 7.392-1.143.352-2.386.517-3.706.517z"/>
        <path fill="red" d="M77.054 57.8c-.363 0-.66-.297-.66-.66 0-12.01-9.767-21.789-21.778-21.789-.363 0-.66-.297-.66-.66 0-.363.297-.66.66-.66 12.737 0 23.098 10.372 23.098 23.11 0 .362-.297.66-.66.66"/>
        <path stroke="red" stroke-width=".5" d="M77.054 57.8c-.363 0-.66-.297-.66-.66 0-12.01-9.767-21.789-21.778-21.789-.363 0-.66-.297-.66-.66 0-.363.297-.66.66-.66 12.737 0 23.098 10.372 23.098 23.11 0 .362-.297.66-.66.66z"/>
        <path fill="red" d="M71.015 57.8c-.363 0-.66-.297-.66-.66 0-8.689-7.06-15.75-15.739-15.75-.363 0-.66-.298-.66-.66 0-.364.297-.66.66-.66 9.404 0 17.06 7.655 17.06 17.07 0 .363-.298.66-.66.66"/>
        <path stroke="red" stroke-width=".5" d="M71.015 57.8c-.363 0-.66-.297-.66-.66 0-8.689-7.06-15.75-15.739-15.75-.363 0-.66-.298-.66-.66 0-.364.297-.66.66-.66 9.404 0 17.06 7.655 17.06 17.07 0 .363-.298.66-.66.66z"/>
        <path fill="red" d="M64.977 57.8c-.363 0-.66-.297-.66-.66 0-5.357-4.356-9.723-9.712-9.723-.363 0-.66-.297-.66-.66 0-.363.297-.66.66-.66 6.082 0 11.032 4.95 11.032 11.043 0 .363-.297.66-.66.66"/>
        <path stroke="red" stroke-width=".5" d="M64.977 57.8c-.363 0-.66-.297-.66-.66 0-5.357-4.356-9.723-9.712-9.723-.363 0-.66-.297-.66-.66 0-.363.297-.66.66-.66 6.082 0 11.032 4.95 11.032 11.043 0 .363-.297.66-.66.66z"/>
    </g>
</svg>
