<svg xmlns="http://www.w3.org/2000/svg" width="112" height="112" viewBox="0 0 112 112">
    <g fill="none" fill-rule="evenodd">
        <path fill="#F2F2F2" d="M112 56c0-30.928-25.072-56-56-56S0 25.072 0 56s25.072 56 56 56 56-25.072 56-56"/>
        <path fill="#00EA55" d="M67.993 67.355c-.254.2-.402.504-.404.828v9.451l-6.839-6.19c-.195-.178-.448-.276-.712-.276h-.212c-10.43 2.127-20.612-4.602-22.742-15.033-2.129-10.43 4.6-20.611 15.031-22.74 10.431-2.13 20.612 4.6 22.742 15.03.26 1.278.391 2.577.39 3.88.006 5.861-2.665 11.404-7.254 15.05m4.384-28.794c-4.066-4.855-10.074-7.657-16.406-7.655-11.819.033-21.374 9.64-21.34 21.46.033 11.817 9.64 21.373 21.46 21.34 1.213-.005 2.423-.112 3.618-.32l8.23 7.436c.436.391 1.108.358 1.5-.078.176-.195.274-.448.274-.709V68.692c9.056-7.584 10.25-21.074 2.664-30.13"/>
        <path fill="#00EA55" d="M64.393 50.691c-.5 3.558-4.747 8.21-8.422 10.27-3.675-2.06-7.923-6.712-8.422-10.27-.244-1.2.159-2.442 1.063-3.27.684-.72 1.62-1.15 2.612-1.202 2.124 0 3.865 2.337 3.876 2.36.34.476 1.003.59 1.48.25.098-.07.182-.155.25-.25 0 0 1.743-2.36 3.877-2.36.994.051 1.928.481 2.614 1.201.906.826 1.313 2.068 1.072 3.271m.372-4.8c-1.07-1.09-2.52-1.72-4.047-1.763-1.814.105-3.516.913-4.747 2.251-1.23-1.338-2.932-2.146-4.747-2.25-1.53.04-2.983.671-4.057 1.761-1.412 1.3-2.064 3.23-1.731 5.12.712 4.991 6.287 10.216 10.058 12.118.299.151.655.151.955 0 3.77-1.902 9.346-7.127 10.047-12.119.335-1.889-.318-3.82-1.731-5.119"/>
    </g>
</svg>
