<svg xmlns="http://www.w3.org/2000/svg" width="112" height="112" viewBox="0 0 112 112">
    <g fill="none" fill-rule="evenodd">
        <path fill="#F2F2F2" d="M112 56c0-30.928-25.072-56-56-56S0 25.072 0 56s25.072 56 56 56 56-25.072 56-56"/>
        <path fill="red" d="M72.945 45.477c.664-.387 1.243-.894 1.684-1.51-.44.616-1.02 1.123-1.684 1.51"/>
        <path stroke="red" stroke-width=".5" d="M72.945 45.477c.664-.387 1.243-.894 1.684-1.51-.44.616-1.02 1.123-1.684 1.51z"/>
        <path fill="red" d="M53.675 64.568l-4.227-.766c-.883-.165-1.525-.93-1.525-1.822v.002c0 .892.642 1.658 1.525 1.822l4.227.766c.276.05.46.316.412.593.05-.278-.135-.544-.412-.595"/>
        <path stroke="red" stroke-width=".5" d="M53.675 64.568l-4.227-.766c-.883-.165-1.525-.93-1.525-1.822v.002c0 .892.642 1.658 1.525 1.822l4.227.766c.276.05.46.316.412.593h0c.05-.278-.135-.544-.412-.595z"/>
        <path fill="red" d="M44.006 52.938v.002c0-.904.734-1.637 1.637-1.637H46.9V51.3h-1.258c-.903 0-1.637.735-1.637 1.637"/>
        <path stroke="red" stroke-width=".5" d="M44.006 52.938v.002c0-.904.734-1.637 1.637-1.637H46.9V51.3h-1.258c-.903 0-1.637.735-1.637 1.637z"/>
        <path fill="red" d="M52.605 65.415L52.604 65.415 56.718 74.917 59.106 74.917 59.106 74.915 56.718 74.915z"/>
        <path stroke="red" stroke-width=".5" d="M52.605 65.415L52.604 65.415 56.718 74.917 59.106 74.917 59.106 74.915 56.718 74.915z"/>
        <path fill="red" d="M58.014 62.437l13.591 3.456-13.59-3.456z"/>
        <path stroke="red" stroke-width=".5" d="M58.014 62.437L71.605 65.893z"/>
        <path fill="#6727E5" d="M79.11 71.223c0 1.165-.776 2.113-1.73 2.113-.953 0-1.729-.948-1.729-2.113V40.72c0-1.165.776-2.113 1.73-2.113.953 0 1.728.948 1.728 2.113v30.503zm-4.48-3.253c-.719-1.004-1.769-1.763-3.025-2.078l-13.59-3.455h-.002V49.504l13.554-3.449c.004 0 .007 0 .011-.002.494-.123.945-.33 1.367-.578.664-.387 1.243-.894 1.684-1.508V67.97zm-15.524 6.945v.002h-2.388l-4.114-9.502h.001v-.002l.886.162c.031.004.061.008.092.008.242 0 .458-.174.503-.42.05-.277-.135-.544-.412-.593l-4.227-.766c-.882-.164-1.525-.93-1.525-1.822v-.812c0-.007.004-.01.004-.018v-10.36c0-.006-.004-.01-.004-.017v-.677c0-.937.71-1.723 1.65-1.83l7.42-.826v17.63c0 .01.005.02.006.031.001.026-.006.052.001.077l2.107 9.735zM46.901 51.303V60.642h-1.258c-.903 0-1.638-.734-1.638-1.637v-6.066c0-.903.735-1.637 1.638-1.637h1.258v.001zm30.48-13.719c-1.502 0-2.722 1.38-2.748 3.083-.002.015-.008.028-.008.044v.123c0 1.784-1.078 3.352-2.737 4.036V34.22c0-.284-.229-.512-.51-.512H33.044c-.282 0-.51.23-.51.511v37.926c0 .024.01.043.012.067.003.021.007.04.012.06.024.091.065.175.13.24L43.4 83.21c.093.096.222.155.365.155h27.612c.282 0 .511-.229.511-.51V71.487c0-.282-.229-.512-.51-.512-.284 0-.513.23-.513.512v10.855H43.98l-9.697-9.686h8.972v5.78c0 .281.23.511.511.511.282 0 .511-.23.511-.512v-6.288l.001-.005c0-.282-.229-.51-.51-.51H33.555V34.73h37.31v10.455l-12.853 3.265V46.87c0-.145-.062-.283-.17-.38-.109-.098-.254-.143-.398-.127l-7.989.89C48 47.416 46.9 48.64 46.9 50.096v.182h-1.258c-1.467 0-2.659 1.194-2.659 2.66v6.065c0 1.467 1.192 2.66 2.66 2.66H46.9v.316c0 1.383.992 2.573 2.362 2.828l2.151.39c.007.025.005.051.016.076l4.484 10.355c.082.187.266.307.47.307h3.357c.156 0 .302-.069.398-.19.097-.12.135-.278.102-.429l-2.226-10.282v-1.547l13.222 3.358.103.03c1.935.486 3.286 2.224 3.286 4.227v.125c0 .016.007.028.008.042.024 1.706 1.246 3.085 2.747 3.085 1.518 0 2.752-1.405 2.752-3.135v-30.5c0-1.728-1.233-3.136-2.752-3.136z"/>
        <path stroke="#6727E5" stroke-width=".5" d="M79.11 71.223c0 1.165-.776 2.113-1.73 2.113-.953 0-1.729-.948-1.729-2.113V40.72c0-1.165.776-2.113 1.73-2.113.953 0 1.728.948 1.728 2.113v30.503zm-4.48-3.253c-.719-1.004-1.769-1.763-3.025-2.078l-13.59-3.455h0-.002V49.504l13.554-3.449c.004 0 .007 0 .011-.002.494-.123.945-.33 1.367-.578.664-.387 1.243-.894 1.684-1.508V67.97zm-15.524 6.945h0v.002h-2.388l-4.114-9.502h.001v-.002l.886.162c.031.004.061.008.092.008.242 0 .458-.174.503-.42.05-.277-.135-.544-.412-.593l-4.227-.766c-.882-.164-1.525-.93-1.525-1.822v-.812h0c0-.007.004-.01.004-.018v-10.36c0-.006-.004-.01-.004-.017v-.677c0-.937.71-1.723 1.65-1.83l7.42-.826v17.63c0 .01.005.02.006.031.001.026-.006.052.001.077l2.107 9.735zM46.901 51.303V60.642h-1.258c-.903 0-1.638-.734-1.638-1.637h0v-6.066h0c0-.903.735-1.637 1.638-1.637h1.258v.001zm30.48-13.719c-1.502 0-2.722 1.38-2.748 3.083-.002.015-.008.028-.008.044v.123c0 1.784-1.078 3.352-2.737 4.036V34.22c0-.284-.229-.512-.51-.512H33.044c-.282 0-.51.23-.51.511v37.926c0 .024.01.043.012.067.003.021.007.04.012.06.024.091.065.175.13.24L43.4 83.21c.093.096.222.155.365.155h27.612c.282 0 .511-.229.511-.51V71.487c0-.282-.229-.512-.51-.512-.284 0-.513.23-.513.512v10.855H43.98l-9.697-9.686h8.972v5.78c0 .281.23.511.511.511.282 0 .511-.23.511-.512v-6.288l.001-.005c0-.282-.229-.51-.51-.51H33.555V34.73h37.31v10.455l-12.853 3.265V46.87c0-.145-.062-.283-.17-.38-.109-.098-.254-.143-.398-.127l-7.989.89C48 47.416 46.9 48.64 46.9 50.096v.182h-1.258c-1.467 0-2.659 1.194-2.659 2.66v6.065c0 1.467 1.192 2.66 2.66 2.66H46.9v.316c0 1.383.992 2.573 2.362 2.828l2.151.39c.007.025.005.051.016.076l4.484 10.355c.082.187.266.307.47.307h3.357c.156 0 .302-.069.398-.19.097-.12.135-.278.102-.429l-2.226-10.282v-1.547l13.222 3.358.103.03c1.935.486 3.286 2.224 3.286 4.227v.125c0 .016.007.028.008.042.024 1.706 1.246 3.085 2.747 3.085 1.518 0 2.752-1.405 2.752-3.135v-30.5c0-1.728-1.233-3.136-2.752-3.136z"/>
        <path fill="red" d="M77.38 73.336c.954 0 1.73-.948 1.73-2.113 0 1.164-.776 2.113-1.73 2.113"/>
        <path stroke="#6727E5" stroke-width=".5" d="M77.38 73.336c.954 0 1.73-.948 1.73-2.113 0 1.164-.776 2.113-1.73 2.113z"/>
        <path fill="red" d="M71.606 65.893c1.256.315 2.306 1.074 3.023 2.077-.718-1.003-1.767-1.762-3.023-2.077"/>
        <path stroke="#6727E5" stroke-width=".5" d="M71.606 65.893c1.256.315 2.306 1.074 3.023 2.077-.718-1.003-1.767-1.762-3.023-2.077z"/>
        <path fill="red" d="M71.569 46.058l.009-.002c.495-.124.945-.332 1.367-.58-.422.247-.872.455-1.367.579-.003 0-.007 0-.01.002l-13.555 3.449v12.93-12.93l13.556-3.448z"/>
        <path stroke="#6727E5" stroke-width=".5" d="M71.569 46.058c.504-.126.954-.334 1.376-.581-.422.246-.872.454-1.367.578-.003 0-.007 0-.01.002l-13.555 3.449v12.93-12.93l13.556-3.448z"/>
        <path fill="red" d="M44.006 59.004v.001c0 .903.734 1.637 1.637 1.637H46.9h-1.258c-.903 0-1.637-.735-1.637-1.638"/>
        <path stroke="#6727E5" stroke-width=".5" d="M44.006 59.004v.001c0 .903.734 1.637 1.637 1.637H46.9h-1.258c-.903 0-1.637-.735-1.637-1.638z"/>
        <path fill="red" d="M53.584 65.585c.241 0 .457-.174.502-.42v-.002c-.044.246-.26.42-.502.42-.032 0-.063-.004-.093-.008l-.886-.162v.002l.887.161c.03.006.06.009.092.009"/>
        <path stroke="#6727E5" stroke-width=".5" d="M53.584 65.585c.241 0 .457-.174.502-.42v-.002c-.044.246-.26.42-.502.42-.032 0-.063-.004-.093-.008l-.886-.162v.002l.887.161c.03.006.06.009.092.009z"/>
        <path fill="red" d="M47.926 61.152c0 .006-.003.011-.003.017v.001c0-.006.003-.01.003-.016v-.002z"/>
        <path stroke="red" stroke-width=".5" d="M47.926 61.152c0 .006-.003.011-.003.017v.001c0-.006.003-.01.003-.016v-.002z"/>
        <path fill="red" d="M56.998 65.103c-.001-.011-.006-.021-.006-.031 0 .011.006.021.006.032.001.026-.004.051.001.078l2.107 9.734-2.107-9.736c-.006-.025 0-.051-.001-.077"/>
        <path stroke="#6727E5" stroke-width=".5" d="M56.998 65.103c-.001-.011-.006-.021-.006-.031h0c0 .011.006.021.006.032.001.026-.004.051.001.078l2.107 9.734-2.107-9.736c-.006-.025 0-.051-.001-.077z"/>
        <path fill="#6727E5" d="M88.489 55.46H86.25c-.283 0-.512.23-.512.512 0 .281.229.511.512.511h2.238c.282 0 .51-.23.51-.51 0-.284-.228-.513-.51-.513"/>
        <path stroke="#6727E5" stroke-width=".5" d="M88.489 55.46H86.25c-.283 0-.512.23-.512.512 0 .281.229.511.512.511h2.238c.282 0 .51-.23.51-.51 0-.284-.228-.513-.51-.513z"/>
        <path fill="#6727E5" d="M83.795 49.697c.09.177.271.28.456.28.08 0 .158-.019.231-.056l2.117-1.076c.253-.127.352-.435.225-.688-.128-.252-.439-.352-.687-.224L84.02 49.01c-.253.128-.352.437-.225.688"/>
        <path stroke="#6727E5" stroke-width=".5" d="M83.795 49.697c.09.177.271.28.456.28.08 0 .158-.019.231-.056l2.117-1.076c.253-.127.352-.435.225-.688-.128-.252-.439-.352-.687-.224L84.02 49.01c-.253.128-.352.437-.225.688z"/>
        <path fill="#6727E5" d="M86.6 63.099l-2.116-1.077c-.25-.126-.558-.028-.688.225-.127.252-.027.56.225.688l2.117 1.077c.073.037.153.055.23.055.186 0 .366-.102.456-.281.128-.251.028-.56-.224-.687"/>
        <path stroke="#6727E5" stroke-width=".5" d="M86.6 63.099l-2.116-1.077c-.25-.126-.558-.028-.688.225-.127.252-.027.56.225.688l2.117 1.077c.073.037.153.055.23.055.186 0 .366-.102.456-.281.128-.251.028-.56-.224-.687z"/>
        <path fill="#6727E5" d="M50.163 40.711c0-.283-.229-.51-.512-.51H38.407c-.283 0-.512.228-.512.51 0 .282.23.512.512.512h11.244c.283 0 .512-.229.512-.512"/>
        <path stroke="#6727E5" stroke-width=".5" d="M50.163 40.711c0-.283-.229-.51-.512-.51H38.407c-.283 0-.512.228-.512.51 0 .282.23.512.512.512h11.244c.283 0 .512-.229.512-.512z"/>
    </g>
</svg>
