<svg xmlns="http://www.w3.org/2000/svg" width="112" height="112" viewBox="0 0 112 112">
    <g fill="none" fill-rule="evenodd">
        <path fill="#F2F2F2" d="M112 56c0-30.928-25.072-56-56-56S0 25.072 0 56s25.072 56 56 56 56-25.072 56-56"/>
        <path fill="#F46145" d="M56.312 56.312c3.089 0 5.61-2.642 5.61-5.922s-2.521-5.922-5.61-5.922c-3.088 0-5.61 2.641-5.61 5.921 0 3.28 2.522 5.922 5.61 5.922m0 1.87c-4.142 0-7.48-3.497-7.48-7.791 0-4.294 3.338-7.793 7.48-7.793s7.48 3.498 7.48 7.792-3.339 7.792-7.48 7.792M56 59.361c1.304 0 2.541-.312 3.648-.868l5.854 3.633c1.456.903 2.342 2.495 2.342 4.21 0 1.521-1.234 2.754-2.756 2.754H46.912c-1.522 0-2.756-1.233-2.756-2.755 0-1.714.886-3.306 2.342-4.209l5.854-3.633c1.107.556 2.344.868 3.648.868zm-8.517 4.354c-.906.562-1.457 1.553-1.457 2.62 0 .49.396.885.886.885h18.176c.49 0 .886-.396.886-.885 0-1.067-.551-2.058-1.457-2.62l-5.023-3.117c-1.11.416-2.288.633-3.494.633-1.206 0-2.384-.217-3.494-.633l-5.023 3.117z"/>
        <path fill="#F46145" d="M77.744 45.827C79.223 48.984 80 52.437 80 56c0 3.76-.865 7.396-2.506 10.69l-.41.82-.827-.393c-.288-.137-.604-.208-.932-.208-1.205 0-2.182.977-2.182 2.182 0 .613.254 1.184.694 1.595l.669.624-.611.683c-3.792 4.24-8.97 7.023-14.66 7.791l-.992.133-.065-.998c-.076-1.142-1.027-2.036-2.178-2.036s-2.102.894-2.177 2.036l-.065.998-.993-.133c-5.69-.768-10.867-3.55-14.66-7.79l-.61-.684.669-.624c.44-.41.693-.982.693-1.595 0-1.205-.976-2.182-2.181-2.182-.328 0-.644.071-.932.208l-.83.393-.407-.82C32.866 63.395 32 59.76 32 56c0-3.563.778-7.016 2.257-10.173l.435-.928.884.518c.33.194.707.297 1.1.297 1.205 0 2.18-.977 2.18-2.182 0-.715-.343-1.37-.915-1.777l-.832-.594.665-.776c3.816-4.45 9.13-7.379 14.99-8.169l.994-.133.065.998c.075 1.142 1.026 2.036 2.177 2.036 1.15 0 2.102-.894 2.178-2.036l.065-.998.992.133c5.862.79 11.176 3.72 14.99 8.17l.667.775-.832.594c-.572.407-.917 1.062-.917 1.777 0 1.205.977 2.182 2.182 2.182.393 0 .769-.103 1.1-.297l.884-.518.435.928zm-2.42 1.757c-2.237 0-4.051-1.814-4.051-4.052 0-.968.343-1.88.94-2.595-3.27-3.518-7.597-5.897-12.363-6.733-.534 1.622-2.062 2.783-3.85 2.783-1.787 0-3.315-1.16-3.85-2.783-4.765.836-9.093 3.215-12.362 6.733.597.715.939 1.627.939 2.595 0 2.238-1.814 4.052-4.051 4.052-.372 0-.738-.05-1.088-.148C34.46 50.121 33.87 53.018 33.87 56c0 3.192.677 6.287 1.964 9.127.274-.059.556-.088.842-.088 2.237 0 4.05 1.814 4.05 4.052 0 .815-.241 1.591-.678 2.247 3.24 3.37 7.466 5.644 12.103 6.458.533-1.622 2.062-2.783 3.849-2.783 1.788 0 3.316 1.161 3.85 2.783 4.637-.814 8.862-3.088 12.102-6.458-.437-.656-.68-1.432-.68-2.247 0-2.238 1.815-4.052 4.053-4.052.286 0 .567.03.842.088 1.287-2.84 1.963-5.935 1.963-9.127 0-2.982-.59-5.879-1.717-8.564-.351.098-.716.148-1.088.148z"/>
        <path fill="#F46145" d="M56 35.117c1.205 0 2.182-.978 2.182-2.182 0-1.205-.977-2.182-2.182-2.182s-2.182.977-2.182 2.182c0 1.204.977 2.182 2.182 2.182m0 1.87c-2.238 0-4.052-1.814-4.052-4.052 0-2.238 1.814-4.052 4.052-4.052 2.238 0 4.052 1.814 4.052 4.052 0 2.238-1.814 4.052-4.052 4.052M56 81.247c1.205 0 2.182-.978 2.182-2.183 0-1.204-.977-2.18-2.182-2.18s-2.182.976-2.182 2.18c0 1.205.977 2.183 2.182 2.183m0 1.87c-2.238 0-4.052-1.814-4.052-4.053 0-2.237 1.814-4.05 4.052-4.05 2.238 0 4.052 1.813 4.052 4.05 0 2.24-1.814 4.053-4.052 4.053M36.675 45.714c1.205 0 2.182-.977 2.182-2.182s-.977-2.181-2.182-2.181-2.182.976-2.182 2.18c0 1.206.977 2.183 2.182 2.183m0 1.87c-2.238 0-4.052-1.813-4.052-4.052 0-2.237 1.814-4.051 4.052-4.051 2.238 0 4.052 1.814 4.052 4.05 0 2.24-1.814 4.053-4.052 4.053M75.325 71.272c1.205 0 2.182-.977 2.182-2.181 0-1.206-.977-2.181-2.182-2.181s-2.182.975-2.182 2.18c0 1.206.977 2.182 2.182 2.182m0 1.87c-2.238 0-4.052-1.813-4.052-4.051 0-2.237 1.814-4.051 4.052-4.051 2.238 0 4.052 1.813 4.052 4.05 0 2.24-1.814 4.052-4.052 4.052M36.675 71.272c1.205 0 2.182-.977 2.182-2.181 0-1.206-.977-2.181-2.182-2.181s-2.182.975-2.182 2.18c0 1.206.977 2.182 2.182 2.182m0 1.87c-2.238 0-4.052-1.813-4.052-4.051 0-2.237 1.814-4.051 4.052-4.051 2.238 0 4.052 1.813 4.052 4.05 0 2.24-1.814 4.052-4.052 4.052M75.325 45.714c1.205 0 2.182-.977 2.182-2.182s-.977-2.181-2.182-2.181-2.182.976-2.182 2.18c0 1.206.977 2.183 2.182 2.183m0 1.87c-2.238 0-4.052-1.813-4.052-4.052 0-2.237 1.814-4.051 4.052-4.051 2.238 0 4.052 1.814 4.052 4.05 0 2.24-1.814 4.053-4.052 4.053"/>
    </g>
</svg>
