<svg xmlns="http://www.w3.org/2000/svg" width="112" height="112" viewBox="0 0 112 112">
    <g fill="none" fill-rule="evenodd">
        <path fill="#F2F2F2" d="M112 56c0-30.928-25.072-56-56-56S0 25.072 0 56s25.072 56 56 56 56-25.072 56-56"/>
        <path fill="#F46145" d="M75.749 70.43c-.383.43-.766.813-1.197 1.197-.623.622-1.293 1.245-1.916 1.963-1.053 1.102-2.25 1.629-3.879 1.629h-.479c-2.968-.192-5.746-1.342-7.853-2.347-5.651-2.73-10.631-6.608-14.75-11.541-3.4-4.07-5.698-7.901-7.183-11.972-.91-2.491-1.293-4.453-1.149-6.322.095-1.197.574-2.202 1.436-3.064l3.401-3.4c.527-.48 1.101-.766 1.628-.766.526 0 1.101.239 1.58.766.623.575 1.197 1.149 1.82 1.772l.958.957 2.729 2.73c.575.575.814 1.1.814 1.628 0 .527-.287 1.102-.814 1.628l-.862.863c-.862.86-1.628 1.675-2.49 2.442l-.048.048c-.766.766-.67 1.532-.479 2.106 0 .048 0 .048.048.096.718 1.677 1.676 3.305 3.208 5.22 2.73 3.4 5.651 5.986 8.812 8.046.383.239.814.478 1.197.67.384.192.718.336 1.006.527.048 0 .048.048.096.048.335.143.622.239.909.239.767 0 1.246-.478 1.389-.671l3.401-3.4c.526-.527 1.053-.766 1.627-.766.671 0 1.198.432 1.581.767l5.507 5.507c1.341 1.388.718 2.586-.048 3.4m1.724-5.028l-5.459-5.507c-.958-1.006-2.059-1.486-3.257-1.486-1.197 0-2.346.528-3.304 1.486l-3.208 3.208-.862-.431c-.384-.191-.718-.336-1.006-.527-2.969-1.867-5.651-4.358-8.237-7.52-1.293-1.627-2.155-2.967-2.777-4.404.862-.767 1.628-1.58 2.394-2.347l.862-.862c1.006-1.005 1.532-2.154 1.532-3.352 0-1.197-.526-2.346-1.532-3.352l-2.729-2.73c-.336-.335-.623-.622-.911-.958-.622-.622-1.245-1.245-1.867-1.82-.958-.957-2.059-1.435-3.257-1.435-1.197 0-2.298.478-3.304 1.436l-3.4 3.496c-1.245 1.245-1.963 2.778-2.107 4.549-.191 2.203.24 4.502 1.293 7.327 1.58 4.358 4.023 8.38 7.614 12.69 4.358 5.172 9.578 9.29 15.564 12.164 2.298 1.1 5.316 2.346 8.715 2.586h.623c2.251 0 4.167-.814 5.651-2.442l.048-.05c.527-.621 1.101-1.195 1.772-1.818l1.293-1.293c1.867-2.012 1.867-4.645-.144-6.608"/>
    </g>
</svg>
