<svg xmlns="http://www.w3.org/2000/svg" xmlns:xlink="http://www.w3.org/1999/xlink" width="112" height="112" viewBox="0 0 112 112">
    <defs>
        <path id="prefix__a" d="M0 0L112 0 112 112 0 112z"/>
    </defs>
    <g fill="none" fill-rule="evenodd">
        <mask id="prefix__b" fill="#fff">
            <use xlink:href="#prefix__a"/>
        </mask>
        <path fill="#F2F2F2" d="M112 56c0-30.928-25.072-56-56-56C25.071 0 0 25.072 0 56s25.071 56 56 56c30.928 0 56-25.072 56-56" mask="url(#prefix__b)"/>
        <path fill="#F46145" d="M81.798 76.745l-3.245-1.874c.531-1.173.834-2.47.834-3.839 0-4.842-3.699-8.837-8.419-9.307v-3.742c6.784.483 12.161 6.143 12.161 13.05 0 2.05-.486 3.983-1.33 5.712zM70.032 84.13c-4.504 0-8.483-2.285-10.84-5.758l3.258-1.882c1.701 2.357 4.461 3.898 7.582 3.898 3.12 0 5.881-1.54 7.582-3.898l3.258 1.882c-2.357 3.473-6.337 5.758-10.84 5.758zm-.935-26.146v3.742c-4.72.471-8.42 4.465-8.42 9.307 0 1.368.304 2.666.834 3.84l-3.245 1.873c-.844-1.729-1.33-3.663-1.33-5.713 0-6.906 5.376-12.566 12.161-13.049zm-12.162 5.82c-.448.807-.819 1.661-1.112 2.551h-.758V58.87h1.87v4.932zm13.097 14.713c-4.127 0-7.484-3.358-7.484-7.484 0-4.126 3.357-7.484 7.484-7.484 4.126 0 7.484 3.358 7.484 7.484 0 4.126-3.358 7.484-7.484 7.484zm-16.838-29c0 .516-.42.936-.936.936s-.936-.42-.936-.936c0-.517.42-.936.936-.936s.936.42.936.936zm6.547-8.419c0-.517.42-.936.936-.936s.935.42.935.936-.419.935-.935.935-.936-.419-.936-.935zm6.55 4.677c.515 0 .935.42.935.935 0 .517-.42.936-.936.936-.515 0-.935-.419-.935-.936 0-.516.42-.935.935-.935zM28.87 36.42h43.308c.223.746.58 1.434 1.035 2.044l-5.72 5.721c-.368-.175-.772-.28-1.204-.28-.432 0-.837.105-1.202.28L63.203 42.3c.175-.367.281-.77.281-1.203 0-1.548-1.259-2.807-2.807-2.807-1.547 0-2.807 1.26-2.807 2.807 0 .432.107.836.282 1.202l-4.69 4.691c-.368-.175-.772-.28-1.204-.28-1.548 0-2.807 1.26-2.807 2.806 0 1.547 1.26 2.806 2.807 2.806s2.807-1.259 2.807-2.806c0-.432-.107-.836-.283-1.202l4.692-4.692c.367.175.771.281 1.203.281.433 0 .837-.106 1.202-.282l1.885 1.885c-.175.367-.28.771-.28 1.203 0 1.548 1.258 2.807 2.806 2.807 1.547 0 2.807-1.259 2.807-2.807 0-.432-.107-.836-.282-1.202l5.722-5.72c.857.641 1.872 1.076 2.98 1.236v17.068c-2.206-1.28-4.757-2.027-7.485-2.027-4.47 0-8.48 1.982-11.226 5.101V57h-5.612v11.225h2.143c-.115.612-.185 1.237-.226 1.872h-26.24V36.42zm49.58-6.549c2.58 0 4.678 2.1 4.678 4.678 0 2.58-2.099 4.677-4.678 4.677-2.579 0-4.677-2.098-4.677-4.677 0-2.579 2.098-4.678 4.677-4.678zm.936 29.497V41.022C82.555 40.565 85 37.84 85 34.548 85 30.938 82.063 28 78.451 28c-3.61 0-6.549 2.938-6.549 6.548H27v37.42h28.111C55.6 79.784 62.095 86 70.032 86 78.284 86 85 79.285 85 71.032c0-4.714-2.196-8.92-5.613-11.665z"/>
        <path fill="#F46145" d="M70.033 74.775c-2.064 0-3.742-1.68-3.742-3.742 0-2.064 1.678-3.742 3.742-3.742 2.063 0 3.74 1.678 3.74 3.742 0 2.063-1.677 3.742-3.74 3.742m0-9.355c-3.096 0-5.613 2.517-5.613 5.613 0 3.096 2.517 5.612 5.613 5.612 3.095 0 5.612-2.516 5.612-5.612s-2.517-5.613-5.612-5.613M30.742 40.161L32.613 40.161 32.613 38.29 30.742 38.29zM34.484 40.161L47.581 40.161 47.581 38.29 34.484 38.29zM30.742 43.903L32.613 43.903 32.613 42.032 30.742 42.032zM34.484 43.903L47.581 43.903 47.581 42.032 34.484 42.032zM30.742 47.645L32.613 47.645 32.613 45.774 30.742 45.774zM34.484 47.645L47.581 47.645 47.581 45.774 34.484 45.774zM30.742 51.387L32.613 51.387 32.613 49.516 30.742 49.516zM34.484 51.387L47.581 51.387 47.581 49.516 34.484 49.516zM32.613 66.355h1.871v-5.613h-1.871v5.613zm-1.871 1.871h5.613v-9.355h-5.613v9.355zM40.097 66.355h1.871v-3.742h-1.871v3.742zm-1.871 1.871h5.612v-7.484h-5.612v7.484zM47.581 66.355h1.871V55.129h-1.871v11.226zm-1.872 1.871h5.613V53.258h-5.613v14.968z"/>
    </g>
</svg>
