<svg xmlns="http://www.w3.org/2000/svg" width="112" height="112" viewBox="0 0 112 112">
    <g fill="none" fill-rule="evenodd">
        <path fill="#F2F2F2" d="M112 56c0-30.928-25.072-56-56-56S0 25.072 0 56s25.072 56 56 56 56-25.072 56-56"/>
        <path fill="red" d="M74.443 39.122l-2.597 2.597-4.154-4.155 2.596-2.597 4.155 4.155zm-25.597 17.88l3.636 3.637-6.232 2.522 2.596-6.158zm19.142-16.915L51.072 57.003l-1.336-1.336L66.653 38.75l1.335 1.336zM52.185 58.116L69.1 41.2l1.707 1.706L53.89 59.822l-1.706-1.706zm17.509-24.781L47.956 55.074c-.074.074-.148.148-.148.297l-3.784 8.977c-.223.668.37 1.26 1.038 1.039l9.052-3.71c.074-.074.223-.074.297-.148l21.739-21.74c.296-.296.37-.815 0-1.186l-5.268-5.268c-.297-.296-.816-.371-1.188 0zM38.216 68.688h35.567c2.375 0 4.301 1.925 4.301 4.301 0 2.375-1.926 4.3-4.3 4.3H38.215c-2.375 0-4.3-1.925-4.3-4.3 0-2.376 1.925-4.301 4.3-4.301m-.058 10.229h35.683c3.306 0 5.986-2.681 5.986-5.986 0-3.306-2.68-5.987-5.986-5.987H38.158c-3.306 0-5.986 2.681-5.986 5.987 0 3.305 2.68 5.986 5.986 5.986"/>
    </g>
</svg>
