<svg xmlns="http://www.w3.org/2000/svg" width="112" height="112" viewBox="0 0 112 112">
    <g fill="none" fill-rule="evenodd">
        <path fill="#F2F2F2" d="M112 56c0-30.928-25.072-56-56-56S0 25.072 0 56s25.072 56 56 56 56-25.072 56-56"/>
        <path fill="#6727E5" d="M76.089 84.457c0 .653-.56 1.212-1.212 1.212h-37.76c-.652 0-1.211-.559-1.211-1.212V34.951c0-.653.559-1.212 1.212-1.212h37.806c.652 0 1.212.559 1.212 1.212v49.506h-.047zm-1.212-52.536h-37.76c-1.677 0-3.076 1.352-3.076 3.077v49.459c0 1.678 1.352 3.077 3.077 3.077h37.806c1.678 0 3.076-1.352 3.076-3.077V34.951c-.047-1.678-1.398-3.03-3.123-3.03z"/>
        <path fill="#6727E5" d="M49.518 62.827h22.469c.514 0 .932.417.932.933 0 .514-.418.932-.932.932h-22.47c-.514 0-.932-.418-.932-.932 0-.516.418-.933.933-.933M49.518 71.591h22.469c.514 0 .932.417.932.932 0 .515-.418.932-.932.932h-22.47c-.514 0-.932-.417-.932-.932 0-.515.418-.932.933-.932M49.518 79.702h22.469c.514 0 .932.417.932.933 0 .514-.418.932-.932.932h-22.47c-.514 0-.932-.418-.932-.932 0-.516.418-.933.933-.933M48.166 47.118h1.911l.14-.746c.186-.932.559-1.818 1.072-2.564l.42-.652-1.006-1.006c-.191-.191-.191-.501 0-.692l.659-.66c.192-.191.501-.191.693 0l.726.727c.163.163.417.19.612.066l.456-.294c.768-.494 1.625-.834 2.522-1.003l.253-.047c.231-.043.398-.245.398-.481V38.75c0-.27.22-.49.491-.49h.931c.271 0 .49.22.49.49v1.422l.746.14c.932.186 1.818.559 2.564 1.072l.652.42 1.006-1.006c.192-.191.501-.191.693 0l.659.66c.191.19.191.5 0 .692l-.727.727c-.163.162-.19.417-.065.61l.293.457c.494.768.834 1.625 1.003 2.522l.047.253c.044.232.246.399.481.399h1.016c.27 0 .489.219.489.489v.933c0 .27-.219.489-.489.489H65.88l-.14.746c-.186.932-.559 1.818-1.072 2.564l-.42.653 1.006 1.005c.191.19.191.5 0 .693l-.659.659c-.192.19-.501.19-.693 0l-.726-.727c-.163-.162-.418-.19-.612-.065l-.24.154c-.911.586-1.927.99-2.991 1.189-.231.044-.399.246-.399.48v1.017c0 .27-.219.49-.49.49h-.931c-.271 0-.491-.22-.491-.49v-1.422l-.745-.14c-.932-.186-1.818-.56-2.564-1.072l-.652-.42-1.006 1.006c-.192.19-.501.19-.693 0l-.659-.66c-.191-.191-.191-.501 0-.692l1.006-1.005-.373-.653c-.513-.792-.886-1.632-1.072-2.564l-.14-.746h-1.422c-.27 0-.49-.22-.49-.49v-1.421h-.046zm.959 5.8l-1.032 1.033c-.192.19-.192.5 0 .692l3.269 3.27c.192.19.501.19.693 0l1.032-1.032c.151-.151.377-.18.567-.082.367.187.754.34 1.159.47.204.065.345.249.345.462v1.484c0 .27.219.489.489.489h4.663c.269 0 .489-.22.489-.49v-1.49c0-.21.134-.391.333-.458.39-.132.78-.287 1.171-.477.187-.092.413-.062.561.086l1.038 1.038c.192.19.501.19.693 0l3.264-3.265c.194-.193.192-.507-.005-.697l-1.014-.986c-.155-.15-.185-.38-.087-.572.185-.366.338-.751.468-1.155.065-.203.249-.344.462-.344h1.483c.271 0 .489-.22.489-.49v-4.661c0-.271-.218-.49-.489-.49h-1.442c-.211 0-.393-.134-.46-.333-.132-.39-.287-.781-.477-1.171-.092-.188-.061-.413.086-.561l1.038-1.038c.192-.191.192-.501 0-.692l-3.316-3.317c-.192-.191-.501-.191-.693 0l-1.032 1.033c-.151.15-.378.178-.567.08-.367-.186-.754-.34-1.16-.47-.203-.064-.344-.248-.344-.461v-1.484c0-.27-.22-.49-.489-.49h-4.663c-.27 0-.489.22-.489.49v1.49c0 .21-.135.392-.334.459-.389.132-.78.287-1.17.477-.188.092-.413.062-.561-.086l-1.038-1.038c-.192-.191-.501-.191-.693 0l-3.269 3.27c-.192.19-.192.5 0 .692l1.032 1.033c.15.15.179.377.082.566-.187.368-.341.755-.471 1.16-.065.203-.249.345-.462.345h-1.483c-.271 0-.49.219-.49.489v4.662c0 .27.219.489.49.489h1.483c.213 0 .397.142.462.345.13.405.284.792.471 1.159.097.19.068.416-.082.567z"/>
        <path fill="#6727E5" d="M58.002 44.787c1.817 0 3.263 1.492 3.263 3.263s-1.492 3.263-3.263 3.263-3.264-1.492-3.264-3.263c0-1.77 1.446-3.263 3.264-3.263m0 8.438c2.844 0 5.128-2.332 5.128-5.128 0-2.844-2.331-5.128-5.128-5.128-2.844 0-5.128 2.331-5.128 5.128 0 2.796 2.284 5.128 5.128 5.128M46.223 77.476l-3.43 3.007-1.315-1.55c-.188-.188-.47-.235-.658-.047-.188.188-.235.469-.047.657l1.597 1.927c.094.093.188.14.33.188.14 0 .234-.047.329-.095l3.804-3.335c.189-.188.236-.47.047-.658-.187-.235-.47-.235-.657-.094"/>
        <path stroke="#6727E5" stroke-width=".25" d="M46.223 77.476l-3.43 3.007-1.315-1.55c-.188-.188-.47-.235-.658-.047-.188.188-.235.469-.047.657l1.597 1.927c.094.093.188.14.33.188.14 0 .234-.047.329-.095l3.804-3.335c.189-.188.236-.47.047-.658-.187-.235-.47-.235-.657-.094z"/>
        <path fill="#6727E5" d="M46.223 69.476l-3.43 3.007-1.315-1.55c-.188-.188-.47-.235-.658-.047-.188.188-.235.469-.047.657l1.597 1.927c.094.093.188.14.33.188.14 0 .234-.047.329-.095l3.804-3.335c.189-.188.236-.47.047-.658-.187-.235-.47-.235-.657-.094"/>
        <path stroke="#6727E5" stroke-width=".25" d="M46.223 69.476l-3.43 3.007-1.315-1.55c-.188-.188-.47-.235-.658-.047-.188.188-.235.469-.047.657l1.597 1.927c.094.093.188.14.33.188.14 0 .234-.047.329-.095l3.804-3.335c.189-.188.236-.47.047-.658-.187-.235-.47-.235-.657-.094z"/>
        <path fill="#6727E5" d="M46.223 61.476l-3.43 3.007-1.315-1.55c-.188-.188-.47-.235-.658-.047-.188.188-.235.469-.047.657l1.597 1.927c.094.093.188.14.33.188.14 0 .234-.047.329-.095l3.804-3.335c.189-.188.236-.47.047-.658-.187-.235-.47-.235-.657-.094"/>
        <path stroke="#6727E5" stroke-width=".25" d="M46.223 61.476l-3.43 3.007-1.315-1.55c-.188-.188-.47-.235-.658-.047-.188.188-.235.469-.047.657l1.597 1.927c.094.093.188.14.33.188.14 0 .234-.047.329-.095l3.804-3.335c.189-.188.236-.47.047-.658-.187-.235-.47-.235-.657-.094z"/>
    </g>
</svg>
