<svg xmlns="http://www.w3.org/2000/svg" width="112" height="112" viewBox="0 0 112 112">
    <g fill="none" fill-rule="evenodd">
        <path fill="#F2F2F2" d="M112 56c0-30.928-25.072-56-56-56S0 25.072 0 56s25.072 56 56 56 56-25.072 56-56"/>
        <path fill="red" d="M74.728 74.271c-.006 1.89-1.536 3.421-3.426 3.426H44.317c-1.89-.005-3.42-1.536-3.425-3.426v-2.466h2.671c.631 0 1.143-.512 1.143-1.142 0-.631-.512-1.142-1.143-1.142h-2.672v-7.492h2.672c.631 0 1.143-.51 1.143-1.141s-.512-1.142-1.143-1.142h-2.672v-7.492h2.672c.631 0 1.143-.511 1.143-1.142 0-.631-.512-1.141-1.143-1.141h-2.672v-7.492h2.672c.631 0 1.143-.511 1.143-1.142 0-.63-.512-1.142-1.143-1.142h-2.672v-2.466c.007-1.89 1.537-3.421 3.427-3.426h26.984c1.89.005 3.42 1.536 3.425 3.426v36.542zm-3.426-42.252H44.317c-3.153.002-5.708 2.557-5.709 5.71v2.466h-2.683c-.631 0-1.142.512-1.142 1.142 0 .631.51 1.142 1.142 1.142h2.672v7.492h-2.672c-.631 0-1.142.51-1.142 1.141s.51 1.142 1.142 1.142h2.672v7.492h-2.672c-.631 0-1.142.511-1.142 1.142 0 .631.51 1.141 1.142 1.141h2.672v7.492h-2.672c-.631 0-1.142.511-1.142 1.142 0 .63.51 1.142 1.142 1.142h2.672v2.466c0 3.153 2.556 5.708 5.709 5.71H71.29c3.153-.002 5.709-2.557 5.71-5.71V37.729c.004-3.151-2.546-5.708-5.698-5.71z"/>
        <path fill="red" d="M57.804 46.864c1.798 0 3.255 1.458 3.255 3.255s-1.457 3.254-3.255 3.254c-1.797 0-3.254-1.457-3.254-3.254.003-1.796 1.458-3.252 3.254-3.255m0 8.805c3.06 0 5.539-2.48 5.539-5.539 0-3.059-2.48-5.538-5.54-5.538-3.058 0-5.537 2.48-5.537 5.538.003 3.058 2.48 5.536 5.538 5.54M51.706 65.136c.491-3.118 2.946-5.344 6.098-5.344 3.152 0 5.62 2.226 6.098 5.344H51.706zm6.098-7.628c-4.75 0-8.474 3.848-8.474 8.77.002.629.513 1.14 1.143 1.142h14.663c.63-.002 1.14-.513 1.141-1.142 0-4.922-3.722-8.77-8.473-8.77z"/>
    </g>
</svg>
