<svg xmlns="http://www.w3.org/2000/svg" width="112" height="112" viewBox="0 0 112 112">
    <g fill="none" fill-rule="evenodd">
        <path fill="#F2F2F2" d="M112 56c0-30.928-25.072-56-56-56S0 25.072 0 56s25.072 56 56 56 56-25.072 56-56"/>
        <path fill="red" d="M76.403 67h-40c-4.971 0-9-4.029-9-9s4.029-9 9-9h40c4.97 0 9 4.029 9 9s-4.03 9-9 9m0-20h-40c-6.075 0-11 4.925-11 11s4.925 11 11 11h40c6.075 0 11-4.925 11-11s-4.925-11-11-11"/>
        <path fill="red" d="M36.403 64c-3.314 0-6-2.687-6-6s2.686-6 6-6c3.313 0 6 2.687 6 6s-2.687 6-6 6m0-14c-4.418 0-8 3.582-8 8s3.582 8 8 8 8-3.582 8-8-3.582-8-8-8"/>
        <path fill="red" d="M39.943 54.46c-.39-.392-1.022-.395-1.414-.006l-.006.006-2.12 2.13-2.12-2.13c-.392-.392-1.028-.392-1.42 0-.392.392-.392 1.028 0 1.42l2.13 2.12-2.13 2.12c-.392.389-.395 1.022-.006 1.414l.006.006c.188.187.444.292.71.29.266.002.52-.103.71-.29l2.12-2.13 2.12 2.13c.189.187.444.292.71.29.266.002.52-.103.71-.29.392-.389.395-1.022.006-1.414l-.006-.006-2.13-2.12 2.13-2.12c.392-.389.395-1.022.006-1.414l-.006-.006z"/>
    </g>
</svg>
