<svg xmlns="http://www.w3.org/2000/svg" width="112" height="112" viewBox="0 0 112 112">
    <g fill="none" fill-rule="evenodd">
        <path fill="#F2F2F2" d="M112 56c0-30.928-25.072-56-56-56S0 25.072 0 56s25.072 56 56 56 56-25.072 56-56"/>
        <path fill="#6727E5" d="M72.644 73.615c0 1.812-1.468 3.28-3.28 3.28H40.935c-1.812 0-3.281-1.468-3.281-3.28V39.467c0-1.81 1.469-3.28 3.281-3.28h28.429c1.812 0 3.28 1.47 3.28 3.28v34.148zm2.187-34.148c0-3.019-2.448-5.467-5.467-5.467H40.935c-3.02 0-5.468 2.448-5.468 5.467v34.148c0 3.02 2.448 5.467 5.468 5.467h28.429c3.019 0 5.467-2.447 5.467-5.467V39.467z"/>
        <path fill="#6727E5" d="M67.505 55.721H49.84c-.603 0-1.093.49-1.093 1.093 0 .604.49 1.094 1.093 1.094h17.665c.604 0 1.094-.49 1.094-1.094 0-.603-.49-1.093-1.094-1.093M44.953 45.88h-2.16c-.603 0-1.093.49-1.093 1.093 0 .604.49 1.094 1.094 1.094h2.159c.604 0 1.094-.49 1.094-1.094 0-.604-.49-1.093-1.094-1.093M67.505 45.88H49.84c-.603 0-1.093.49-1.093 1.093 0 .604.49 1.094 1.093 1.094h17.665c.604 0 1.094-.49 1.094-1.094 0-.604-.49-1.093-1.094-1.093M44.953 65.562h-2.16c-.603 0-1.093.49-1.093 1.094 0 .604.49 1.093 1.094 1.093h2.159c.604 0 1.094-.489 1.094-1.093s-.49-1.094-1.094-1.094M67.505 65.562H49.84c-.603 0-1.093.49-1.093 1.094 0 .604.49 1.093 1.093 1.093h17.665c.604 0 1.094-.489 1.094-1.093s-.49-1.094-1.094-1.094M46.632 56.88c0-.306-.246-.555-.551-.556h-.005l-1.663.004.004-1.663c0-.307-.25-.556-.556-.556-.307 0-.556.249-.556.556l.004 1.663-1.663-.004c-.306-.001-.555.245-.556.55v.006c0 .147.06.288.165.39.103.106.244.165.39.166l1.664-.004-.004 1.663c0 .147.06.288.164.39.104.106.245.165.392.166.306 0 .555-.246.556-.551v-.005l-.004-1.663 1.663.004c.306 0 .555-.246.556-.552v-.004z"/>
    </g>
</svg>
