<svg xmlns="http://www.w3.org/2000/svg" width="112" height="112" viewBox="0 0 112 112">
    <g fill="none" fill-rule="evenodd">
        <path fill="#F2F2F2" d="M112 56c0-30.928-25.072-56-56-56S0 25.072 0 56s25.072 56 56 56 56-25.072 56-56"/>
        <path fill="#F46145" d="M50.34 40.148c3.75 0 6.932 3.068 6.932 6.818 0 3.75-3.068 6.82-6.932 6.82-3.75 0-6.932-3.07-6.932-6.82 0-3.75 3.182-6.818 6.932-6.818m0 15.796c5 0 9.205-4.09 9.205-9.09s-4.09-9.092-9.205-9.092c-5 0-9.205 4.091-9.205 9.091 0 5.113 4.205 9.091 9.205 9.091"/>
        <path fill="#F46145" d="M71.704 79.24c-6.136 0-11.023-5-11.023-11.022 0-6.024 5.001-11.024 11.023-11.024 6.023 0 11.023 5 11.023 11.024 0 6.022-4.886 11.022-11.023 11.022m-33.75-14.772c1.59-3.41 4.886-5.569 8.636-5.569h7.5c2.386 0 4.546.795 6.25 2.273-1.136 1.818-1.818 3.977-1.93 6.25-6.706 3.296-14.774 2.272-20.456-2.954M50.34 32.535c10.114 0 18.41 8.182 18.41 18.41 0 1.477-.228 2.954-.568 4.317-2.5.682-4.773 2.16-6.478 4.091-2.159-1.818-4.773-2.727-7.614-2.727h-7.5c-4.318 0-8.296 2.386-10.34 6.136-2.728-3.294-4.319-7.386-4.319-11.705 0-10.226 8.295-18.522 18.41-18.522m21.363 22.273h-1.022c.227-1.25.34-2.614.34-3.977 0-11.364-9.318-20.683-20.682-20.683-11.364 0-20.682 9.205-20.682 20.683 0 11.363 9.205 20.681 20.682 20.681 2.841 0 5.57-.568 8.182-1.704.796 6.591 6.364 11.705 13.182 11.705C79.091 81.513 85 75.49 85 68.218c0-7.387-5.909-13.41-13.296-13.41"/>
        <path fill="#F46145" d="M78.068 63.218l-8.295 7.272-3.183-3.75c-.454-.455-1.136-.568-1.59-.113-.455.454-.568 1.136-.114 1.59l3.864 4.66c.227.227.454.34.795.454.34 0 .568-.113.796-.227l9.205-8.07c.454-.453.568-1.134.113-1.59-.454-.567-1.136-.567-1.591-.226"/>
    </g>
</svg>
