<svg xmlns="http://www.w3.org/2000/svg" width="112" height="112" viewBox="0 0 112 112">
    <g fill="none" fill-rule="evenodd">
        <path fill="#F2F2F2" d="M112 56c0-30.928-25.072-56-56-56S0 25.072 0 56s25.072 56 56 56 56-25.072 56-56"/>
        <path fill="red" d="M50.276 83.162c-.815 0-1.479-.663-1.479-1.478s.664-1.478 1.48-1.478c.814 0 1.477.663 1.477 1.478s-.663 1.478-1.478 1.478m25.837-2.365h-22.71c-.386-1.363-1.642-2.365-3.127-2.365-1.486 0-2.74 1.002-3.128 2.365h-9.702c-.49 0-.887.397-.887.887s.397.887.887.887h9.702c.387 1.363 1.642 2.364 3.128 2.364 1.485 0 2.741-1 3.127-2.364h22.71c.49 0 .887-.397.887-.887s-.397-.887-.887-.887M75.538 51.42h-1.95c-.539 0-.976.437-.976.977 0 .539.437.975.975.975h1.951c.538 0 .975-.436.975-.975 0-.54-.437-.976-.975-.976m-39.013 0h-1.95c-.539 0-.976.436-.976.976 0 .539.437.975.976.975h1.95c.538 0 .975-.436.975-.975 0-.54-.437-.976-.975-.976M53.105 36.791c-.537 0-.974.436-.974.976v29.259c0 .539.437.975.974.975.54 0 .977-.436.977-.975V37.767c0-.54-.438-.976-.977-.976m7.803 0c-.538 0-.976.436-.976.976v29.259c0 .539.438.975.976.975s.975-.436.975-.975V37.767c0-.54-.437-.976-.975-.976m-15.605 3.901c-.538 0-.975.436-.975.976v21.457c0 .539.436.975.975.975.539 0 .976-.436.976-.975V41.668c0-.54-.438-.976-.976-.976m11.704 0c-.538 0-.975.436-.975.976v21.457c0 .539.437.975.975.975s.976-.436.976-.975V41.668c0-.54-.438-.976-.976-.976m7.803 0c-.538 0-.976.436-.976.976v21.457c0 .539.438.975.975.975.538 0 .975-.436.975-.975V41.668c0-.54-.437-.976-.975-.976m-23.407 7.803c-.538 0-.976.436-.976.975v5.852c0 .54.438.975.975.975.538 0 .975-.435.975-.975V49.47c0-.539-.436-.975-.974-.975m7.803-3.901c-.538 0-.975.436-.975.975v13.655c0 .539.437.975.975.975s.974-.436.974-.975V45.569c0-.539-.437-.975-.974-.975m19.505 0c-.537 0-.974.436-.974.975v13.655c0 .539.436.975.974.975.54 0 .977-.436.977-.975V45.569c0-.539-.438-.975-.977-.975"/>
    </g>
</svg>
