<svg xmlns="http://www.w3.org/2000/svg" width="112" height="112" viewBox="0 0 112 112">
    <g fill="none" fill-rule="evenodd">
        <path fill="#F2F2F2" d="M112 56c0-30.928-25.072-56-56-56S0 25.072 0 56s25.072 56 56 56 56-25.072 56-56"/>
        <path fill="#00EA55" d="M47.691 43.509l3.535 5.84-1.472 1.456c-.308.31-.37.789-.15 1.168 2.244 3.889 4.904 6.914 8.63 8.556.365.162.793.084 1.077-.198l1.563-1.562 5.703 3.565c-.632 1.42-1.455 2.268-2.397 2.76-1.09.572-2.423.68-3.944.364-3.04-.63-6.714-3.02-9.708-6.082-2.994-3.062-5.31-6.786-5.9-9.815-.296-1.514-.166-2.82.394-3.853.481-.89 1.3-1.653 2.67-2.2zm.35-2.14c-.073.008-.144.023-.213.046-2.162.664-3.694 1.839-4.52 3.367-.828 1.53-.932 3.323-.577 5.143.71 3.642 3.23 7.557 6.417 10.816 3.187 3.26 7.03 5.87 10.694 6.629 1.832.38 3.657.28 5.233-.546 1.577-.826 2.831-2.365 3.611-4.566.148-.425-.016-.895-.395-1.138l-6.917-4.34-.015-.013c-.034-.023-.07-.043-.106-.061-.102-.066-.215-.112-.334-.136h-.03c-.026-.006-.05-.011-.076-.015h-.016c-.16-.01-.323.02-.47.09-.053.026-.104.056-.15.092-.033.018-.063.039-.092.06l-.03.046c-.039.032-.074.068-.107.106l-1.517 1.533c-2.75-1.385-4.865-3.706-6.765-6.842l1.395-1.381c.027-.023.052-.05.076-.075l.061-.061v-.015c.021-.02.041-.04.06-.061v-.015l.031-.045.03-.031c.011-.024.021-.05.03-.076v-.015l.015-.03c.012-.02.021-.04.031-.06.006-.026.011-.051.015-.077v-.014c.007-.03.011-.061.015-.091v-.016-.09-.106c-.004-.025-.009-.051-.015-.076v-.015c-.015-.057-.035-.113-.06-.167v-.015c-.018-.041-.038-.082-.06-.121l-.016-.031-.016-.014-4.323-7.1c-.17-.283-.473-.46-.804-.47-.03-.002-.06-.002-.09 0v-.003z"/>
        <path fill="#00EA55" d="M55.642 35.056c10.737 0 19.417 8.679 19.417 19.417 0 10.737-8.68 19.417-19.417 19.417-3.892 0-7.512-1.143-10.54-3.106-.25-.163-.562-.201-.844-.103l-6.452 2.227 1.975-6.594c.084-.28.037-.584-.128-.825-2.193-3.22-3.428-6.967-3.428-11.017 0-10.736 8.685-19.417 19.417-19.417zm0-1.941c-11.782 0-21.358 9.57-21.358 21.358 0 4.282 1.269 8.286 3.506 11.72l-2.388 7.97c-.154.515.138 1.056.652 1.209.194.059.402.055.595-.011l7.802-2.694c3.248 2.006 7.09 3.164 11.19 3.164C67.429 75.83 77 66.259 77 54.473c0-11.787-9.572-21.358-21.358-21.358z"/>
    </g>
</svg>
