<?xml version="1.0" encoding="UTF-8"?>
<svg width="100px" height="100px" viewBox="0 0 100 100" version="1.1" xmlns="http://www.w3.org/2000/svg" xmlns:xlink="http://www.w3.org/1999/xlink">
    <!-- Generator: Sketch 53.2 (72643) - https://sketchapp.com -->
    <title>aprendizaje</title>
    <desc>Created with Sketch.</desc>
    <g id="Desktop" stroke="none" stroke-width="1" fill="none" fill-rule="evenodd">
        <g id="Chatbots" transform="translate(-789.000000, -1034.000000)">
            <g id="aprendizaje" transform="translate(789.000000, 1034.000000)">
                <g id="Group-4">
                    <circle id="Oval-Copy-2" fill="#3D3193" cx="50" cy="50" r="50"></circle>
                    <path d="M80.6164461,54.8918261 C79.3220498,56.1981217 77.6030738,56.9188174 75.7743379,56.9188174 C73.945602,56.9188174 72.2252489,56.1982609 70.9308526,54.8918261 C70.5665928,54.5235478 70.2503959,54.1202087 69.9812981,53.6911304 L76.7577706,49.9137391 C76.9836255,49.7885217 77.1187253,49.5492174 77.1144561,49.2904348 C77.1088097,49.0316522 76.9631058,48.797913 76.7329817,48.6824348 L70.5309242,45.5493565 C70.6576233,45.397287 70.7901065,45.2489739 70.9308526,45.1067826 C72.2252489,43.8017391 73.945602,43.0810435 75.7743379,43.0810435 C77.6032115,43.0810435 79.3220498,43.8017391 80.6164461,45.1067826 C81.909603,46.4146087 82.6215967,48.1523478 82.6228361,50 C82.6217344,51.8476522 81.9097407,53.584 80.6164461,54.8918261 L80.6164461,54.8918261 Z M68.9255643,50 C68.9255643,48.8318609 69.2110504,47.7081043 69.7470425,46.7087304 L74.945423,49.3349565 L69.3657059,52.4450783 C69.0777409,51.6738783 68.9255643,50.8489739 68.9255643,50 L68.9255643,50 Z M59.8156253,55.9686957 C59.0610772,55.2050087 58.1810695,54.6066087 57.201906,54.1878261 C56.1883134,53.7552696 55.1099941,53.5354435 54,53.5354435 C52.8900059,53.5354435 51.8116866,53.7552696 50.798094,54.1878261 C50.6858551,54.2358261 50.5752689,54.286887 50.4655089,54.3396174 L47.7202705,50.0069565 L50.4697781,45.6621913 C50.5780232,45.7142261 50.6872323,45.7647304 50.798094,45.8121739 C51.8116866,46.2448696 52.8900059,46.4646957 54,46.4646957 C55.1099941,46.4646957 56.1883134,46.2448696 57.201906,45.8121739 C58.1810695,45.3933913 59.0610772,44.7937391 59.8156253,44.0313043 C60.3199427,43.5218087 60.7503064,42.9559652 61.1046507,42.3425391 L68.5161335,46.0868174 C68.3994877,46.3073391 68.2916558,46.533287 68.194428,46.7652174 C67.76613,47.7892174 67.5485381,48.8786087 67.5485381,50 C67.5485381,51.0806261 67.7527715,52.1309217 68.1504965,53.1223652 L60.8263259,57.2048696 C60.5314751,56.7632696 60.1939322,56.3500522 59.8156253,55.9686957 L59.8156253,55.9686957 Z M58.8434853,66.7372522 C57.5489513,68.043687 55.8290113,68.7629913 54,68.7629913 C52.1712641,68.7629913 50.4510487,68.043687 49.1566524,66.7372522 C48.8549158,66.4321391 48.5862311,66.1028174 48.3494966,65.7549913 L54.2014791,62.4946087 C54.450608,62.564313 54.7326512,62.4851478 54.9064493,62.2864696 C54.975032,62.2089739 55.0215802,62.1179826 55.0495366,62.0221217 L60.2899205,59.1024696 C60.6552821,59.957287 60.8487736,60.8855652 60.8487736,61.8440348 C60.8487736,63.691687 60.1366422,65.4294261 58.8434853,66.7372522 L58.8434853,66.7372522 Z M39.1903929,69.2684522 C38.8641428,68.744487 38.4815667,68.257113 38.0428023,67.8130087 C37.7210968,67.4885565 37.3757041,67.1955478 37.0110311,66.9313391 L43.197802,57.1554783 L46.3842838,58.7049739 C45.9804994,59.7024 45.7742002,60.757287 45.7742002,61.8441739 C45.7742002,62.9669565 45.9919298,64.0548174 46.4216049,65.0789565 C46.4396458,65.1223652 46.4600278,65.1646609 46.478895,65.2077913 L39.1903929,69.2684522 Z M36.2691529,68.1036522 C36.5502321,68.3120696 36.8179527,68.5427478 37.0692851,68.7962435 C37.4172944,69.1488 37.7216476,69.5329391 37.9830333,69.9411478 L33.5397518,72.4166957 L36.2691529,68.1036522 Z M39.0744357,73.6894609 C39.0744357,75.5372522 38.362442,77.2737391 37.0692851,78.5828174 C35.7747511,79.8878609 34.0545357,80.6086957 32.2257998,80.6086957 C30.3967885,80.6086957 28.6780879,79.8878609 27.3835539,78.5829565 C26.090397,77.2752696 25.3771639,75.5373913 25.3771639,73.6896 C25.3771639,71.8422261 26.090397,70.1043478 27.3835539,68.7963826 C28.6780879,67.490087 30.3983033,66.7707826 32.2257998,66.7707826 C33.2276865,66.7707826 34.1965213,66.9879652 35.0810736,67.3981217 L30.9202484,73.9734261 C30.7508573,74.2406957 30.7825321,74.5913043 30.9972319,74.8236522 C31.126823,74.9627826 31.3112253,75.0434783 31.5012739,75.0434783 C31.6170934,75.0434783 31.7312602,75.0128696 31.8333081,74.9570783 L38.6101938,71.1813565 C38.9138584,71.9707826 39.0744357,72.8173913 39.0744357,73.6894609 L39.0744357,73.6894609 Z M39.5428091,53.8341565 C39.6364563,53.6503652 39.7254211,53.4637913 39.8057097,53.2723478 C40.2340077,52.2483478 40.4515996,51.1589565 40.4515996,50.0375652 C40.4515996,48.9581913 40.247917,47.9091478 39.850743,46.9186783 L43.0282732,45.1803826 L46.085577,50.0068174 L42.6934846,55.3661217 L39.5428091,53.8341565 Z M37.0692851,54.9306435 C35.7747511,56.235687 34.0545357,56.9565217 32.2257998,56.9565217 C30.3967885,56.9565217 28.6780879,56.235687 27.3835539,54.9306435 C26.090397,53.6229565 25.3771639,51.8852174 25.3771639,50.0375652 C25.3771639,48.189913 26.090397,46.4521739 27.3835539,45.1457391 C28.6780879,43.837913 30.3967885,43.1186087 32.2257998,43.1186087 C34.0545357,43.1186087 35.7747511,43.837913 37.0692851,45.1457391 C37.4318924,45.5120696 37.7471252,45.9136 38.0155344,46.3408696 L31.1722694,50.0833391 C30.9436602,50.2086957 30.8059438,50.4492522 30.8114525,50.7123478 C30.8182006,50.973913 30.9669343,51.2090435 31.2011899,51.3231304 L37.5391734,54.4044522 C37.39223,54.5864348 37.2357842,54.7621565 37.0692851,54.9306435 L37.0692851,54.9306435 Z M39.0744357,50.0375652 C39.0744357,51.1678609 38.8065773,52.2566957 38.3034994,53.2315826 L33.0133998,50.6594783 L38.6318152,47.5855304 C38.9214328,48.3588174 39.0744357,49.1862261 39.0744357,50.0375652 L39.0744357,50.0375652 Z M39.5619517,37.1261217 C39.5510721,37.1091478 39.5386776,37.0935652 39.5265586,37.0777043 L37.0305868,33.1341913 C37.4295512,32.8535652 37.8057924,32.5380174 38.1543525,32.1857391 C38.4657293,31.8711652 38.7479102,31.533913 39.0032363,31.1781565 L46.4195392,34.9249391 C45.9912412,35.9488 45.7742002,37.0349913 45.7742002,38.1544348 C45.7742002,39.2772174 45.9919298,40.3652174 46.4216049,41.3892174 C46.4612673,41.4845217 46.5042348,41.5778783 46.5472023,41.6712348 L43.4978861,43.3410783 L39.5619517,37.1261217 Z M37.7516698,30.5458087 C37.575806,30.7742609 37.3865837,30.9942261 37.1808354,31.202087 C36.9022351,31.4831304 36.6028397,31.7353739 36.2880201,31.9610435 L34.2832826,28.7936 L37.7516698,30.5458087 Z M32.3373501,33.2292174 C30.5083387,33.2292174 28.7896382,32.5085217 27.4952419,31.202087 C26.2019473,29.8956522 25.4899536,28.157913 25.4885764,26.3102609 C25.4899536,24.4626087 26.2019473,22.7248696 27.4952419,21.4170435 C28.7896382,20.112 30.5083387,19.3913043 32.3373501,19.3913043 C34.166086,19.3913043 35.8863014,20.112 37.1808354,21.4170435 C38.4738545,22.7248696 39.185986,24.4626087 39.185986,26.3102609 C39.185986,27.3861565 38.9429166,28.4242087 38.4858359,29.362087 L32.6636002,26.4215652 C32.5685759,26.3728696 32.4625343,26.3478261 32.3564926,26.3478261 C32.1609354,26.3478261 31.9750182,26.4313043 31.8443254,26.5787826 C31.6377508,26.8097391 31.6100698,27.1561739 31.7767067,27.4177391 L35.0878217,32.6479304 C34.2317767,33.0276174 33.2999876,33.2292174 32.3373501,33.2292174 L32.3373501,33.2292174 Z M54.6377646,39.0754783 L59.8715382,41.719513 C59.5864652,42.1970087 59.242312,42.6429217 58.8422459,43.0476522 C57.5475741,44.354087 55.8274965,45.0733913 54,45.0747826 C53.0255188,45.074087 52.0829879,44.8674783 51.2185421,44.478887 L54.6377646,39.0754783 Z M47.1513641,38.1544348 C47.1513641,37.2467478 47.324749,36.3654957 47.6537535,35.5485217 L52.8996461,38.1988174 L52.0290031,38.6747826 C52.0044896,38.6849391 51.9802515,38.6960696 51.9568397,38.7091478 L47.7593819,41.0075826 C47.3622079,40.1222957 47.1513641,39.1549217 47.1513641,38.1544348 L47.1513641,38.1544348 Z M49.1578918,43.0476522 C48.8985719,42.7852522 48.66349,42.5047652 48.4518199,42.2103652 L52.1022682,40.2113391 C52.124716,40.2020174 52.1468883,40.1918609 52.1685098,40.1800348 L52.3750844,40.0673391 L50.0221999,43.7862957 C49.7178467,43.565913 49.4282291,43.3203478 49.1578918,43.0476522 L49.1578918,43.0476522 Z M44.242794,44.5153391 L47.2326167,42.8780522 C47.5134205,43.2879304 47.8303059,43.6736 48.184237,44.0313043 C48.5243965,44.3749565 48.8912729,44.6835478 49.2800463,44.9594435 L46.9036123,48.715687 L44.242794,44.5153391 Z M48.184237,55.9686957 C47.7330781,56.4237913 47.3409995,56.9248 47.0093785,57.464487 L43.9439494,55.9741217 L46.9036123,51.2979478 L49.2763279,55.0426435 C48.8889317,55.3178435 48.5232947,55.6256 48.184237,55.9686957 L48.184237,55.9686957 Z M52.5030229,60.1353739 L48.2581907,58.0716522 C48.5159958,57.6727652 48.8153912,57.297113 49.1566524,56.9522087 C49.4264388,56.6802087 49.7155055,56.4352 50.0193078,56.2153739 L52.5030229,60.1353739 Z M47.1513641,61.8440348 C47.1513641,60.9623652 47.315522,60.1061565 47.6260725,59.3089391 L52.6667677,61.7601391 L47.6872185,64.5345391 C47.3363172,63.6940522 47.1513641,62.7834435 47.1513641,61.8440348 L47.1513641,61.8440348 Z M58.9427788,58.2546087 C58.9206065,58.2671304 58.9018771,58.2831304 58.881495,58.2976 L54.5149216,60.7304348 L51.2152369,55.5226435 C52.0810599,55.1329391 53.0248303,54.925913 54,54.9250783 C55.8290113,54.9266087 57.5475741,55.645913 58.8434853,56.9522087 C59.12966,57.2416 59.385537,57.5529739 59.6133199,57.8809043 L58.9427788,58.2546087 Z M49.1578918,33.2626087 C50.4510487,31.9561739 52.1712641,31.2368696 54,31.2354783 C55.8290113,31.2368696 57.5475741,31.9561739 58.8422459,33.2626087 C60.1351273,34.5704348 60.8484982,36.3081739 60.8484982,38.1544348 C60.8484982,38.9526261 60.7147756,39.730087 60.4593117,40.4614957 L54.7078622,37.5561739 C54.7023536,37.5533913 54.6954678,37.5506087 54.6899591,37.5464348 L48.2992302,34.3186087 C48.547946,33.9430957 48.8348092,33.5894261 49.1578918,33.2626087 L49.1578918,33.2626087 Z M83.352733,46.7652174 C82.9382067,45.776 82.3461639,44.8869565 81.5899632,44.1245217 C80.8354151,43.3606957 79.9552697,42.7610435 78.9762439,42.3436522 C77.9614119,41.9095652 76.884332,41.6897391 75.7743379,41.6897391 C74.6631044,41.6897391 73.5858868,41.9095652 72.5724319,42.3436522 C71.592029,42.7610435 70.7132607,43.3606957 69.9573355,44.1245217 C69.7105477,44.3737043 69.4829025,44.6377739 69.2712324,44.913113 L61.6966934,41.0866087 C62.0469062,40.1517913 62.2256621,39.1674435 62.2256621,38.1544348 C62.2256621,37.0330435 62.0082079,35.9450435 61.5786705,34.9196522 C61.1655213,33.9304348 60.5716883,33.0427826 59.8156253,32.2789565 C59.0610772,31.5165217 58.1810695,30.9168696 57.201906,30.498087 C56.1883134,30.0653913 55.1099941,29.8455652 54,29.8441739 C52.8900059,29.8455652 51.8116866,30.0653913 50.798094,30.498087 C49.8190682,30.9168696 48.9389228,31.5165217 48.184237,32.2789565 C47.7560767,32.7116522 47.3819013,33.1852522 47.0612976,33.6933565 L39.7167449,29.9838609 C39.7869803,29.8395826 39.8548745,29.693913 39.91726,29.5450435 C40.345558,28.5210435 40.5631498,27.4316522 40.5631498,26.3102609 C40.5631498,25.1888696 40.345558,24.0994783 39.91726,23.0754783 C39.502596,22.0862609 38.9090383,21.1972174 38.1543525,20.4333913 C37.3984273,19.6709565 36.5184196,19.0713043 35.5392561,18.6525217 C34.5255257,18.2198261 33.4485836,18 32.3373501,18 C31.227356,18 30.1502761,18.2198261 29.1354441,18.6525217 C28.1561428,19.0713043 27.2762728,19.6709565 26.5214493,20.4333913 C25.7653864,21.1972174 25.1733436,22.0862609 24.7586796,23.0754783 C24.3290044,24.0994783 24.1127897,25.1888696 24.1114126,26.3102609 C24.1127897,27.4316522 24.3290044,28.5210435 24.7586796,29.5450435 C25.1733436,30.5342609 25.7653864,31.4233043 26.5214493,32.1857391 C27.2762728,32.9495652 28.1561428,33.5492174 29.1354441,33.9666087 C30.1502761,34.4006957 31.227356,34.6205217 32.3373501,34.6205217 C33.4485836,34.6205217 34.5255257,34.4006957 35.5392561,33.9666087 C35.6396513,33.9237565 35.738394,33.8777043 35.8368612,33.8310957 L38.5588256,38.1307826 C38.5677771,38.1449739 38.5781058,38.1577739 38.587746,38.1709913 L42.2846047,44.0061217 L39.2289535,45.6772174 C38.8945781,45.1300174 38.4986435,44.6226087 38.0428023,44.162087 C37.286877,43.3982609 36.4067316,42.7986087 35.4277058,42.3812174 C34.4141132,41.9471304 33.3370333,41.7273043 32.2257998,41.7273043 C31.1158057,41.7273043 30.0387258,41.9471304 29.0238938,42.3812174 C28.0447303,42.7986087 27.1647226,43.3982609 26.4100368,44.162087 C25.6538361,44.9245217 25.0617933,45.8135652 24.6471293,46.8027826 C24.2175919,47.8267826 24,48.9160348 24,50.0375652 C24,51.1590957 24.2175919,52.248487 24.6471293,53.2723478 C25.0617933,54.2615652 25.6538361,55.1506087 26.4100368,55.9130435 C27.1647226,56.6768696 28.0447303,57.2765217 29.0238938,57.693913 C30.0387258,58.128 31.1158057,58.3478261 32.2257998,58.3478261 C33.3370333,58.3478261 34.4141132,58.128 35.4277058,57.693913 C36.4067316,57.2765217 37.286877,56.6768696 38.0428023,55.9130435 C38.3203008,55.6326957 38.575627,55.3349565 38.8086431,55.0216348 L41.9470618,56.5474783 L35.8283228,66.2171826 C35.6965282,66.1523478 35.5632187,66.0900174 35.4277058,66.032 C34.4141132,65.5994435 33.3370333,65.3796174 32.2257998,65.3796174 C31.1158057,65.3796174 30.0373487,65.5994435 29.0238938,66.032 C28.0447303,66.4509217 27.1647226,67.0505739 26.4100368,67.8130087 C25.6538361,68.5765565 25.0617933,69.4658783 24.6471293,70.4548174 C24.2175919,71.4789565 24,72.5683478 24,73.6896 C24,74.8112696 24.2175919,75.9006609 24.6471293,76.9243826 C25.0617933,77.9137391 25.6538361,78.8026435 26.4100368,79.5652174 C27.1647226,80.3290435 28.0447303,80.9286957 29.0238938,81.346087 C30.0373487,81.7801739 31.1158057,82 32.2257998,82 C33.3370333,82 34.4141132,81.7801739 35.4277058,81.346087 C36.4067316,80.9286957 37.286877,80.3290435 38.0428023,79.5652174 C38.7974881,78.8026435 39.3910457,77.9137391 39.8057097,76.9243826 C40.2340077,75.9006609 40.4515996,74.8112696 40.4515996,73.6896 C40.4515996,72.5862957 40.2397918,71.5142957 39.82499,70.504487 L47.1389696,66.4294957 C47.4418079,66.8912696 47.789955,67.3234087 48.1828598,67.7210435 C48.9389228,68.4833391 49.8190682,69.0831304 50.798094,69.501913 C51.8116866,69.9346087 52.8900059,70.1542957 54,70.1542957 C55.1099941,70.1542957 56.1883134,69.9346087 57.201906,69.501913 C58.1810695,69.0831304 59.0610772,68.4832 59.8156253,67.7210435 C60.5716883,66.9572174 61.1655213,66.0695652 61.5786705,65.0789565 C62.0082079,64.0548174 62.2256621,62.9669565 62.2256621,61.8441739 C62.2256621,60.7226435 62.0082079,59.6347826 61.5786705,58.6093913 C61.5520912,58.5459478 61.5227576,58.4841739 61.4948012,58.4215652 L68.7736631,54.3642435 C69.1074876,54.9097739 69.502596,55.4160696 69.9573355,55.8753391 C70.7132607,56.6391652 71.5932684,57.2374261 72.5724319,57.6563478 C73.5858868,58.0902957 74.6631044,58.3101217 75.7743379,58.3101217 C76.884332,58.3101217 77.9614119,58.0902957 78.9762439,57.6563478 C79.9552697,57.2374261 80.8354151,56.6391652 81.5899632,55.8753391 C82.3461639,55.1130435 82.9382067,54.2238609 83.352733,53.2347826 C83.7824081,52.2107826 84,51.1213913 84,50 C84,48.8786087 83.7824081,47.7892174 83.352733,46.7652174 L83.352733,46.7652174 Z" id="Fill-1" fill="#FFFFFF"></path>
                </g>
            </g>
        </g>
    </g>
</svg>