<svg xmlns="http://www.w3.org/2000/svg" xmlns:xlink="http://www.w3.org/1999/xlink" width="96" height="96" viewBox="0 0 96 96">
    <defs>
        <path id="prefix__a" d="M0.166 0.87L19.195 0.87 19.195 19 0.166 19z"/>
        <path id="prefix__c" d="M0.64 0.165L19.927 0.165 19.927 18.213 0.64 18.213z"/>
    </defs>
    <g fill="none" fill-rule="evenodd">
        <circle cx="48" cy="48" r="48" fill="#FFF"/>
        <g>
            <g transform="translate(21 21) translate(0 36.834)">
                <mask id="prefix__b" fill="#fff">
                    <use xlink:href="#prefix__a"/>
                </mask>
                <path fill="red" d="M11.054 16.5v-2.16c0-.497-.332-.83-.83-.83H7.566c-3.157 0-5.731-2.408-5.898-5.315-.083-1.744.665-3.405 1.994-4.402-.249.664-.332 1.412-.249 2.159.166 2.824 2.658 5.067 5.648 5.067h1.163c.498 0 .83-.332.83-.83V8.112l5.814 4.236-5.814 4.153zm7.725-4.9l-8.057-5.897c-.249-.166-.581-.25-.83-.083-.249.166-.416.415-.416.748v2.906h-.332c-2.076 0-3.82-1.495-3.986-3.488-.083-1.33.498-2.658 1.661-3.406.332-.25.415-.664.332-.996-.166-.332-.498-.582-.914-.498-3.572.58-6.23 3.737-6.064 7.392.167 3.82 3.489 6.894 7.559 6.894H9.56v2.99c0 .332.166.582.415.748.249.166.581.083.83-.083l8.058-5.898c.249-.166.332-.415.332-.664 0-.25-.166-.498-.416-.665z" mask="url(#prefix__b)"/>
            </g>
            <path fill="red" d="M50.176 44.78c-.499 0-.83.332-.83.831v2.657c0 3.157-2.409 5.731-5.316 5.898h-.25c-1.662 0-3.24-.748-4.236-1.994.664.25 1.412.333 2.16.25 2.824-.167 5.066-2.659 5.066-5.649v-1.162c0-.499-.332-.83-.83-.83h-2.076l4.235-5.815 4.236 5.814h-2.159zm4.485.332l-5.897-8.057c-.332-.415-.997-.415-1.329 0l-5.898 8.057c-.166.25-.249.582-.083.831.166.25.415.415.748.415h2.907c0 2.741-1.662 4.236-3.489 4.402-1.329.083-2.658-.58-3.405-1.66-.249-.333-.664-.416-.997-.333-.332.166-.58.498-.498.913.581 3.49 3.571 6.064 7.144 6.064h.25c3.82-.166 6.892-3.489 6.892-7.559v-1.827h2.99c.332 0 .581-.166.748-.415.166-.249.083-.582-.083-.83z" transform="translate(21 21)"/>
            <g transform="translate(21 21) translate(35 .835)">
                <mask id="prefix__d" fill="#fff">
                    <use xlink:href="#prefix__c"/>
                </mask>
                <path fill="red" d="M8.614 2.665l.083 2.159c0 .499.416.83.83.83l2.825-.082c3.074 0 5.648 2.242 5.815 5.15.083 1.744-.582 3.405-1.828 4.485.25-.665.333-1.412.25-2.16-.25-2.741-2.742-4.9-5.65-4.9H9.612c-.25 0-.415.083-.581.249-.166.166-.25.332-.25.58l.084 2.078-5.98-4.07 5.73-4.32zM.973 7.814l8.223 5.648c.58.416 1.495-.166 1.329-.83l-.083-2.741h.498c2.076 0 3.82 1.495 3.986 3.405.167 1.329-.498 2.659-1.578 3.406-.332.249-.415.664-.25.997.167.332.5.58.915.498 3.572-.664 6.147-3.904 5.898-7.558-.25-3.738-3.572-6.728-7.476-6.728l-1.993.083-.25-2.991c0-.332-.166-.581-.498-.747-.25-.166-.581-.083-.83.083L.973 6.402c-.25.167-.333.416-.333.665 0 .332.083.58.333.747z" mask="url(#prefix__d)"/>
            </g>
            <path fill="red" d="M4.659 12.22c.498 0 .83-.415.83-.83l-.082-2.741c-.083-3.156 2.242-5.814 5.149-5.98 1.745-.083 3.405.58 4.486 1.827-.665-.166-1.33-.25-2.076-.166-2.825.249-4.984 2.824-4.901 5.814v1.163c0 .498.415.83.83.83l2.075-.082-4.069 5.98L2.5 12.22h2.16zm1.66 7.643c.083.249.333.332.583.332.248 0 .497-.166.663-.332l5.65-8.224c.165-.25.165-.581.082-.83-.165-.25-.415-.416-.748-.416l-2.906.084v-.333c-.084-2.076 1.412-3.903 3.405-4.07 1.33-.165 2.658.499 3.405 1.579.166.249.416.332.665.332.582 0 .997-.581.748-1.163-.748-3.49-3.905-5.897-7.476-5.731-3.738.166-6.728 3.654-6.645 7.64l.083 1.829-2.99.083c-.332 0-.58.166-.747.498-.167.249-.083.58.082.83l6.146 7.892zM34.976 39.464c-1.495.997-3.24 1.744-4.983 2.076-.333.084-.582.333-.665.748l-.498 3.655h-2.66l-.497-3.655c-.083-.332-.332-.664-.665-.748-1.827-.332-3.488-1.079-4.983-2.076-.332-.166-.664-.166-.996 0l-2.907 2.243-1.911-1.91 2.243-2.908c.249-.332.249-.747 0-1.08-.998-1.495-1.662-3.156-2.077-4.983-.083-.333-.333-.582-.748-.665l-3.654-.498v-2.658l3.654-.499c.332-.083.665-.332.748-.664.332-1.827 1.079-3.488 2.077-4.983.166-.333.166-.665 0-.997l-2.243-2.907 1.91-1.91 2.908 2.242c.249.25.747.25 1.079 0 1.495-.997 3.156-1.744 4.984-2.076.332-.083.58-.333.664-.748l.498-3.655h2.659l.498 3.655c.083.332.333.665.665.748 1.827.332 3.488 1.08 4.983 2.076.332.166.664.166.997 0l2.906-2.243 1.91 1.911-2.242 2.907c-.25.25-.25.664 0 .997.997 1.495 1.744 3.24 2.077 4.983.083.332.332.581.748.664l3.654.5v2.657l-3.654.498c-.333.083-.665.332-.748.665-.333 1.827-1.08 3.488-2.077 4.983-.166.333-.166.665 0 .997l2.243 2.907-1.911 1.911-2.906-2.243c-.416-.083-.831-.083-1.08.083m3.903 4.236c.25 0 .499-.083.665-.249l2.908-2.907c.332-.332.332-.748.083-1.08l-2.327-3.073c.914-1.412 1.496-2.907 1.91-4.569l3.822-.498c.415-.083.747-.415.747-.83V26.34c0-.415-.332-.747-.747-.83l-3.821-.499c-.332-1.66-.997-3.156-1.911-4.568l2.327-2.99c.249-.332.249-.914-.083-1.163l-2.908-2.907c-.332-.332-.748-.332-1.08-.083l-3.073 2.326c-1.412-.914-2.907-1.495-4.568-1.91l-.498-3.82c-.083-.417-.415-.749-.831-.749H25.34c-.416 0-.748.332-.831.748l-.498 3.82c-1.661.416-3.156.997-4.568 1.911L16.37 13.3c-.332-.249-.832-.249-1.081.083l-2.907 2.907c-.332.332-.332.748-.083 1.08l2.326 3.073c-.914 1.412-1.495 2.907-1.91 4.568l-3.821.5c-.415.082-.747.414-.747.83v4.152c0 .416.332.748.747.831l3.82.498c.333 1.662.997 3.157 1.91 4.57L12.3 39.463c-.25.332-.25.831.083 1.08l2.907 2.907c.332.332.749.332 1.08.083l3.074-2.326c1.412.914 2.907 1.495 4.568 1.91l.498 3.821c.083.416.415.748.83.748h4.154c.416 0 .748-.332.83-.748l.499-3.82c1.578-.333 3.156-.997 4.568-1.91l2.99 2.325c.166.083.332.166.498.166" transform="translate(21 21)"/>
            <path fill="red" d="M27.417 35.892c-4.153 0-7.476-3.322-7.476-7.475 0-4.152 3.323-7.476 7.476-7.476 4.153 0 7.476 3.324 7.476 7.477 0 4.153-3.323 7.474-7.476 7.474m0-16.612c-5.066 0-9.137 4.07-9.137 9.137 0 5.066 4.071 9.136 9.137 9.136 5.066 0 9.137-4.07 9.137-9.135 0-5.067-4.07-9.137-9.137-9.137" transform="translate(21 21)"/>
        </g>
    </g>
</svg>
