<?xml version="1.0" encoding="UTF-8"?>
<svg width="93px" height="94px" viewBox="0 0 93 94" version="1.1" xmlns="http://www.w3.org/2000/svg" xmlns:xlink="http://www.w3.org/1999/xlink">
    <!-- Generator: sketchtool 53.2 (72643) - https://sketchapp.com -->
    <title>8CC9DEF4-ECDF-4B76-A199-70F840172273</title>
    <desc>Created with sketchtool.</desc>
    <defs>
        <polygon id="path-1" points="0 0.453 92.547 0.453 92.547 92.9998 0 92.9998"></polygon>
    </defs>
    <g id="Symbols" stroke="none" stroke-width="1" fill="none" fill-rule="evenodd">
        <g id="bot">
            <g id="Group-12">
                <g id="Group-3" transform="translate(0.000000, 0.547400)">
                    <mask id="mask-2" fill="white">
                        <use xlink:href="#path-1"></use>
                    </mask>
                    <g id="Clip-2"></g>
                    <path d="M92.5476,46.7268 C92.5476,21.1698 71.8296,0.4528 46.2736,0.4528 C20.7176,0.4528 -0.0004,21.1698 -0.0004,46.7268 C-0.0004,72.2828 20.7176,92.9998 46.2736,92.9998 C71.8296,92.9998 92.5476,72.2828 92.5476,46.7268" id="Fill-1" fill="#0096FF" mask="url(#mask-2)"></path>
                </g>
                <path d="M54.5671,54.366 C51.8771,55.57 48.9581,56.176 46.0111,56.142 C43.2401,56.108 40.5061,55.504 37.9801,54.366 C37.6231,54.197 37.1971,54.348 37.0281,54.705 C37.0251,54.712 37.0221,54.718 37.0201,54.723 C36.8541,55.088 37.0131,55.517 37.3771,55.684 C40.0851,56.909 43.0171,57.559 45.9891,57.594 L46.2681,57.594 C49.3481,57.595 52.3931,56.944 55.2041,55.684 C55.5671,55.509 55.7201,55.071 55.5451,54.707 C55.3691,54.343 54.9311,54.19 54.5671,54.366" id="Fill-4" fill="#FFFFFF"></path>
                <path d="M67.2224,58.9451 C67.2164,62.2521 64.5414,64.9311 61.2354,64.9441 L55.4724,64.9441 L55.3824,65.5361 C55.1864,67.6941 55.6664,69.8611 56.7564,71.7351 C52.8694,70.3941 50.4344,66.4961 49.7534,65.2901 L49.5524,64.9221 L31.3234,64.9221 C28.0214,64.9151 25.3434,62.2471 25.3254,58.9451 L25.3254,37.4221 C25.3304,34.1111 28.0134,31.4291 31.3234,31.4241 L61.2354,31.4241 C64.5414,31.4351 67.2164,34.1161 67.2224,37.4221 L67.2224,58.9451 Z M44.4804,24.3971 C44.4804,23.4231 45.2714,22.6321 46.2454,22.6321 C47.2204,22.6321 48.0104,23.4231 48.0104,24.3971 C48.0104,25.3721 47.2204,26.1631 46.2454,26.1631 C45.3014,26.1441 44.5384,25.3861 44.5144,24.4421 L44.4804,24.3971 Z M45.5534,29.9711 L31.3234,29.9711 C27.2124,29.9711 23.8794,33.2991 23.8724,37.4101 L23.8724,58.9451 C23.8724,63.0601 27.2084,66.3951 31.3234,66.3951 L48.6804,66.3951 C49.6974,68.0931 52.5124,72.1361 56.9244,73.3321 C57.0284,73.3421 57.1324,73.3421 57.2364,73.3321 C57.6204,73.3321 57.9814,73.1501 58.2084,72.8411 C58.5224,72.4671 58.5584,71.9341 58.2984,71.5221 C57.3324,69.9661 56.7924,68.1821 56.7344,66.3511 L61.2014,66.3511 C65.3074,66.3631 68.6504,63.0511 68.6744,58.9451 L68.6744,37.4221 C68.6744,33.3131 65.3444,29.9821 61.2354,29.9821 L47.0054,29.9821 L45.5534,29.9711 Z M47.0054,29.9821 L47.0054,27.5581 C48.7364,27.1581 49.8144,25.4291 49.4134,23.6991 C49.0124,21.9671 47.2844,20.8891 45.5534,21.2911 C43.8224,21.6921 42.7444,23.4201 43.1454,25.1511 C43.4224,26.3471 44.3564,27.2811 45.5534,27.5581 L45.5534,29.9711 L47.0054,29.9821 Z" id="Fill-6" fill="#FFFFFF"></path>
                <path d="M34.8416,44.0896 C34.8416,42.3936 36.2166,41.0186 37.9136,41.0186 C39.6096,41.0186 40.9846,42.3936 40.9846,44.0896 C40.9846,45.7856 39.6096,47.1616 37.9136,47.1616 C36.2166,47.1616 34.8416,45.7856 34.8416,44.0896 M42.4366,44.0896 C42.4366,41.5916 40.4116,39.5666 37.9136,39.5666 C35.4146,39.5666 33.3896,41.5916 33.3896,44.0896 C33.3896,46.5886 35.4146,48.6126 37.9136,48.6126 C40.4116,48.6126 42.4366,46.5886 42.4366,44.0896" id="Fill-8" fill="#FFFFFF"></path>
                <path d="M54.634,47.1619 C52.938,47.1619 51.563,45.7859 51.563,44.0899 C51.563,42.3929 52.938,41.0179 54.634,41.0179 C56.331,41.0179 57.706,42.3929 57.706,44.0899 C57.706,45.7859 56.331,47.1619 54.634,47.1619 L54.634,47.1619 Z M54.634,39.5769 C52.167,39.6079 50.192,41.6339 50.222,44.0999 C50.253,46.5679 52.279,48.5429 54.746,48.5129 C57.191,48.4819 59.158,46.4909 59.158,44.0449 C59.158,41.5779 57.158,39.5769 54.69,39.5769 L54.634,39.5769 Z" id="Fill-10" fill="#FFFFFF"></path>
            </g>
        </g>
    </g>
</svg>