<?xml version="1.0" encoding="UTF-8"?>
<svg width="568px" height="497px" viewBox="0 0 568 497" version="1.1" xmlns="http://www.w3.org/2000/svg" xmlns:xlink="http://www.w3.org/1999/xlink">
    <!-- Generator: Sketch 53.2 (72643) - https://sketchapp.com -->
    <title>chatbots</title>
    <desc>Created with Sketch.</desc>
    <defs>
        <polygon id="path-1" points="0 496.57311 567.534989 496.57311 567.534989 0 0 0"></polygon>
    </defs>
    <g id="Desktop" stroke="none" stroke-width="1" fill="none" fill-rule="evenodd">
        <g id="Chatbots" transform="translate(-796.000000, -220.000000)">
            <g id="chatbots" transform="translate(796.000000, 220.000000)">
                <g id="Group-141">
                    <path d="M414.669024,420.524164 L234.304057,420.524164 C220.005749,420.524164 208.416365,408.951387 208.416365,394.677048 L208.416365,87.1384335 C208.416365,72.864095 220.005749,61.2913176 234.304057,61.2913176 L414.669024,61.2913176 C428.965771,61.2913176 440.555156,72.864095 440.555156,87.1384335 L440.555156,394.677048 C440.555156,408.951387 428.965771,420.524164 414.669024,420.524164" id="Fill-1" fill="#122757"></path>
                    <path d="M409.788905,399.501843 L238.085938,399.501843 C228.873103,399.501843 221.403279,392.043727 221.403279,382.845332 L221.403279,93.3934668 C221.403279,84.1950718 228.873103,76.7369558 238.085938,76.7369558 L409.788905,76.7369558 C419.003301,76.7369558 426.471565,84.1950718 426.471565,93.3934668 L426.471565,382.845332 C426.471565,392.043727 419.003301,399.501843 409.788905,399.501843" id="Fill-3" fill="#FFFFFF"></path>
                    <path d="M351.212969,413.42797 L305.81198,413.42797 C303.828662,413.42797 302.207365,411.807656 302.207365,409.827446 L302.207365,407.569913 C302.207365,405.589703 303.828662,403.96939 305.81198,403.96939 L351.212969,403.96939 C353.196288,403.96939 354.817585,405.589703 354.817585,407.569913 L354.817585,409.827446 C354.817585,411.807656 353.196288,413.42797 351.212969,413.42797" id="Fill-5" fill="#FFFFFF"></path>
                    <path d="M357.152314,73.0990404 L283.977062,73.0990404 C282.519611,73.0990404 281.325875,71.9071752 281.325875,70.4520091 L281.325875,70.0235608 C281.325875,68.5668367 282.519611,67.3765295 283.977062,67.3765295 L357.152314,67.3765295 C358.611325,67.3765295 359.803501,68.5668367 359.803501,70.0235608 L359.803501,70.4520091 C359.803501,71.9071752 358.611325,73.0990404 357.152314,73.0990404" id="Fill-7" fill="#FFFFFF"></path>
                    <path d="M283.977686,67.8263223 C282.763664,67.8263223 281.775905,68.8109743 281.775905,70.0230934 L281.775905,70.4515417 C281.775905,71.6636608 282.763664,72.6498708 283.977686,72.6498708 L357.152938,72.6498708 C358.3654,72.6498708 359.353158,71.6636608 359.353158,70.4515417 L359.353158,70.0230934 C359.353158,68.8109743 358.3654,67.8263223 357.152938,67.8263223 L283.977686,67.8263223 Z M357.152938,73.5488332 L283.977686,73.5488332 C282.265884,73.5488332 280.875532,72.1591028 280.875532,70.4515417 L280.875532,70.0230934 C280.875532,68.3155323 282.265884,66.9258019 283.977686,66.9258019 L357.152938,66.9258019 C358.86318,66.9258019 360.255092,68.3155323 360.255092,70.0230934 L360.255092,70.4515417 C360.255092,72.1591028 358.86318,73.5488332 357.152938,73.5488332 L357.152938,73.5488332 Z" id="Fill-9" fill="#51337B"></path>
                    <path d="M373.660985,70.2379408 C373.660985,72.3817401 371.946062,74.1204611 369.828545,74.1204611 C367.712589,74.1204611 365.997666,72.3817401 365.997666,70.2379408 C365.997666,68.0941414 367.712589,66.3554204 369.828545,66.3554204 C371.946062,66.3554204 373.660985,68.0941414 373.660985,70.2379408" id="Fill-11" fill="#FFFFFF"></path>
                    <path d="M369.829325,66.8063038 C367.9646,66.8063038 366.447853,68.3456016 366.447853,70.2385639 C366.447853,72.1299683 367.9646,73.6692661 369.829325,73.6692661 C371.694051,73.6692661 373.210798,72.1299683 373.210798,70.2385639 C373.210798,68.3456016 371.694051,66.8063038 369.829325,66.8063038 M369.829325,74.5697865 C367.46682,74.5697865 365.547479,72.6269683 365.547479,70.2385639 C365.547479,67.8486016 367.46682,65.9057834 369.829325,65.9057834 C372.19027,65.9057834 374.111171,67.8486016 374.111171,70.2385639 C374.111171,72.6269683 372.19027,74.5697865 369.829325,74.5697865" id="Fill-13" fill="#51337B"></path>
                    <path d="M332.519684,363.641345 C332.519684,364.789587 331.586541,365.721267 330.434936,365.721267 C329.283332,365.721267 328.351749,364.789587 328.351749,363.641345 C328.351749,362.491546 329.283332,361.559866 330.434936,361.559866 C331.586541,361.559866 332.519684,362.491546 332.519684,363.641345" id="Fill-15" fill="#F9B234"></path>
                    <path d="M383.47178,364.681306 L339.495473,364.681306 C338.922791,364.681306 338.453099,364.213908 338.453099,363.642124 C338.453099,363.068783 338.922791,362.601385 339.495473,362.601385 L383.47178,362.601385 C384.044462,362.601385 384.514154,363.068783 384.514154,363.642124 C384.514154,364.213908 384.044462,364.681306 383.47178,364.681306" id="Fill-17" fill="#F9B234"></path>
                    <path d="M332.519684,333.089244 C332.519684,334.239044 331.586541,335.170724 330.434936,335.170724 C329.283332,335.170724 328.351749,334.239044 328.351749,333.089244 C328.351749,331.939445 329.283332,331.009323 330.434936,331.009323 C331.586541,331.009323 332.519684,331.939445 332.519684,333.089244" id="Fill-19" fill="#F9B234"></path>
                    <path d="M380.129163,334.129984 L338.969448,334.129984 C338.396767,334.129984 337.927075,333.661028 337.927075,333.089244 C337.927075,332.517461 338.396767,332.048504 338.969448,332.048504 L380.129163,332.048504 C380.701844,332.048504 381.171536,332.517461 381.171536,333.089244 C381.171536,333.661028 380.701844,334.129984 380.129163,334.129984" id="Fill-21" fill="#F9B234"></path>
                    <path d="M332.519684,344.014987 C332.519684,345.164786 331.586541,346.096466 330.434936,346.096466 C329.283332,346.096466 328.351749,345.164786 328.351749,344.014987 C328.351749,342.865187 329.283332,341.935065 330.434936,341.935065 C331.586541,341.935065 332.519684,342.865187 332.519684,344.014987" id="Fill-23" fill="#F9B234"></path>
                    <path d="M387.846785,345.055727 L338.969136,345.055727 C338.396455,345.055727 337.926763,344.586771 337.926763,344.014987 C337.926763,343.443203 338.396455,342.974247 338.969136,342.974247 L387.846785,342.974247 C388.419466,342.974247 388.889158,343.443203 388.889158,344.014987 C388.889158,344.586771 388.419466,345.055727 387.846785,345.055727" id="Fill-25" fill="#F9B234"></path>
                    <path d="M332.519684,353.827855 C332.519684,354.977654 331.586541,355.909334 330.434936,355.909334 C329.283332,355.909334 328.351749,354.977654 328.351749,353.827855 C328.351749,352.679613 329.283332,351.747933 330.434936,351.747933 C331.586541,351.747933 332.519684,352.679613 332.519684,353.827855" id="Fill-27" fill="#F9B234"></path>
                    <path d="M391.883486,354.868439 L339.494848,354.868439 C338.922167,354.868439 338.452475,354.40104 338.452475,353.827699 C338.452475,353.255915 338.922167,352.788517 339.494848,352.788517 L391.883486,352.788517 C392.457727,352.788517 392.925859,353.255915 392.925859,353.827699 C392.925859,354.40104 392.457727,354.868439 391.883486,354.868439" id="Fill-29" fill="#F9B234"></path>
                    <path d="M411.07736,296.420927 C412.316349,296.420927 413.329075,295.489247 413.329075,294.353469 L413.305668,269.103065 C413.305668,267.967287 412.289822,267.038723 411.050833,267.038723 C409.811844,267.040281 408.799119,267.970403 408.800679,269.106181 L408.822525,294.356585 C408.822525,295.493921 409.838371,296.420927 411.07736,296.420927" id="Fill-31" fill="#FF3453"></path>
                    <path d="M402.063637,296.391169 C403.302626,296.391169 404.316912,295.376915 404.315352,294.139868 L404.307549,284.165592 C404.305989,282.928545 403.291703,281.91585 402.052714,281.917408 C400.812165,281.918966 399.79944,282.931661 399.801,284.168708 L399.808802,294.142984 C399.810363,295.381589 400.824648,296.391169 402.063637,296.391169" id="Fill-33" fill="#FFE300"></path>
                    <path d="M393.050695,296.398803 C394.289684,296.397245 395.302409,295.38455 395.302409,294.147503 L395.288365,276.074775 C395.286804,274.83617 394.272519,273.825032 393.031969,273.82659 C391.79298,273.82659 390.780255,274.840844 390.780255,276.077891 L390.795859,294.150618 C390.79742,295.387666 391.811705,296.398803 393.050695,296.398803" id="Fill-35" fill="#FF3453"></path>
                    <path d="M384.037752,296.405659 C385.276741,296.405659 386.289466,295.391405 386.289466,294.154358 L386.26762,266.647978 C386.266059,265.410931 385.250213,264.399793 384.011224,264.399793 C382.772235,264.401351 381.75951,265.414047 381.76107,266.651094 L381.782916,294.157474 C381.784477,295.396079 382.798763,296.407217 384.037752,296.405659" id="Fill-37" fill="#FFE300"></path>
                    <path d="M375.024965,296.413293 C376.263954,296.411735 377.276679,295.399039 377.276679,294.161992 L377.265756,281.037453 C377.264196,279.800406 376.24991,278.789268 375.010921,278.789268 C373.771932,278.790826 372.757646,279.803522 372.759207,281.042127 L372.77013,294.165108 C372.77013,295.402155 373.785976,296.413293 375.024965,296.413293" id="Fill-39" fill="#FF3453"></path>
                    <path d="M415.341105,299.098651 C415.422248,299.017635 415.473743,298.903902 415.473743,298.78082 C415.472182,298.531541 415.270886,298.33056 415.022776,298.33056 L371.19627,298.366394 C370.9466,298.366394 370.745303,298.567375 370.745303,298.816654 C370.745303,299.064375 370.94816,299.266914 371.19627,299.265356 L415.022776,299.229522 C415.146051,299.229522 415.259963,299.179666 415.341105,299.098651" id="Fill-41" fill="#3D3193"></path>
                    <path d="M259.586611,306.554741 L275.340809,337.412365 L273.521336,372.023196 C255.197095,371.077494 240.622589,355.941585 240.622589,337.412365 C240.622589,323.940393 248.338963,312.2866 259.586611,306.554741" id="Fill-43" fill="#CCCCCC"></path>
                    <path d="M312.455708,336.348255 C312.455708,340.947453 311.553774,345.339437 309.923114,349.351271 L277.74529,336.348255 L294.059686,305.752375 C305.010851,311.582387 312.455708,323.102193 312.455708,336.348255" id="Fill-45" fill="#CCCCCC"></path>
                    <path d="M292.284218,304.240497 L275.969822,334.836378 L260.206262,303.961617 C260.593251,303.763751 260.9818,303.575234 261.360987,303.394507 C261.47802,303.332187 261.602855,303.277657 261.721448,303.223128 C266.065712,301.270961 270.895273,300.181924 275.969822,300.181924 C281.8558,300.181924 287.407844,301.647996 292.267053,304.23115 C292.274855,304.240497 292.284218,304.240497 292.284218,304.240497" id="Fill-47" fill="#B8E224"></path>
                    <path d="M309.372903,350.773408 C300.044596,372.172452 279.314156,372.496514 275.871826,372.398361 C275.547255,372.389013 275.375607,372.379665 275.375607,372.379665 L277.19664,337.770392 L309.372903,350.773408 Z" id="Fill-49" fill="#6727E5"></path>
                    <mask id="mask-2" fill="white">
                        <use xlink:href="#path-1"></use>
                    </mask>
                    <g id="Clip-52"></g>
                    <polygon id="Fill-51" fill="#F8A17A" mask="url(#mask-2)" points="546.667231 474.711342 552.306659 474.711342 552.306659 467.798524 546.667231 467.798524"></polygon>
                    <path d="M545.169989,474.73736 C546.373088,474.25594 546.692978,474.707758 547.44667,474.824608 C548.671615,475.011567 550.650253,475.193852 551.964143,474.701526 C553.983352,473.941225 553.919374,478.404877 553.626011,480.500379 L533.045374,480.205918 C533.045374,480.205918 532.436802,475.678388 536.621901,475.946363 C539.695967,476.145787 543.445703,475.427551 545.169989,474.73736" id="Fill-53" fill="#CCCCCC" mask="url(#mask-2)"></path>
                    <polygon id="Fill-54" fill="#F8A17A" mask="url(#mask-2)" points="522.89409 469.607666 522.942464 474.943794 517.844508 474.780205 517.844508 468.244421"></polygon>
                    <path d="M515.9712,474.73736 C517.174299,474.25594 517.492629,474.707758 518.247881,474.824608 C519.472826,475.011567 521.449903,475.193852 522.763793,474.701526 C524.784563,473.941225 524.720585,478.404877 524.427222,480.500379 L503.846585,480.205918 C503.846585,480.205918 503.236453,475.678388 507.423112,475.946363 C510.495618,476.145787 514.246914,475.427551 515.9712,474.73736" id="Fill-55" fill="#CCCCCC" mask="url(#mask-2)"></path>
                    <path d="M525.778095,468.979327 C525.778095,468.979327 535.636952,398.277571 535.636952,391.406819 C535.636952,384.536067 528.702358,371.654575 525.509699,370.366114 C522.315479,369.077653 517.503084,377.316324 517.503084,377.316324 C517.521809,382.580785 515.35904,465.903847 516.087765,468.659938 C516.9226,471.822666 523.605963,473.781064 525.778095,468.979327" id="Fill-56" fill="#A4E3F9" mask="url(#mask-2)"></path>
                    <path d="M544.119345,468.930718 C545.196048,473.40216 552.931147,472.41595 553.611499,467.866608 C554.343345,462.976066 552.477059,455.179865 551.701521,452.037392 C550.323653,446.4551 550.510905,424.747573 550.510905,416.58836 C550.510905,408.429147 555.421609,376.024435 552.306971,373.065805 C549.463851,370.361128 526.475455,375.918492 523.178246,377.390796 C522.905169,377.512319 522.772532,377.819244 522.87396,378.102799 C523.585521,380.078335 529.619741,386.478573 531.241037,388.279614 C537.840136,395.623997 534.719257,429.899859 544.119345,468.930718" id="Fill-57" fill="#A4E3F9" mask="url(#mask-2)"></path>
                    <path d="M501.967659,374.6104 C500.263659,376.677858 497.523527,377.70146 494.911352,377.0954 C493.035703,376.659162 491.53456,375.640234 493.031022,373.301686 C496.027066,368.624588 503.879198,365.373055 503.879198,365.373055 L505.914011,368.510855 C505.914011,368.510855 504.24278,371.851193 501.967659,374.6104" id="Fill-58" fill="#F8A17A" mask="url(#mask-2)"></path>
                    <path d="M504.560486,370.912502 C500.834156,372.741587 497.355936,368.003728 500.225585,365.006148 C504.388837,360.662461 509.304222,353.492574 512.588947,342.08027 C516.772486,327.534841 520.450442,313.33217 520.450442,313.33217 L535.775519,322.625603 C535.775519,322.625603 523.341936,358.755477 509.58042,367.972568 C507.725057,369.214289 506.056947,370.177129 504.560486,370.912502" id="Fill-59" fill="#FF4965" mask="url(#mask-2)"></path>
                    <path d="M522.176444,352.652504 C522.176444,352.652504 526.338136,344.779962 525.919938,339.940833 C525.431521,334.300896 528.004686,333.73067 526.381829,330.982369 C522.964466,325.191307 520.411587,320.858526 519.18196,318.155407 L534.83473,325.409426 C534.83473,325.409426 526.347499,346.672924 522.176444,352.652504" id="Fill-60" fill="#E65093" mask="url(#mask-2)"></path>
                    <path d="M553.444532,375.369611 C549.67607,346.487523 551.773301,328.581501 551.158488,319.180567 C550.599851,310.628739 532.495631,301.99278 526.732927,310.731567 C512.873103,331.745786 522.235741,340.80552 522.235741,344.209736 L522.235741,351.999705 C522.235741,351.999705 520.630048,364.555576 517.554422,376.927604 L553.444532,375.369611 Z" id="Fill-61" fill="#FF4965" mask="url(#mask-2)"></path>
                    <path d="M526.116398,280.423292 C526.116398,280.423292 515.950134,299.510273 525.496903,301.588636 C525.496903,301.588636 529.731936,300.513621 527.291409,308.635442 C526.615738,310.883627 526.291167,312.69869 526.174134,314.146066 C525.930705,317.152994 528.14809,319.810931 531.156618,320.066442 C534.215079,320.326627 538.097453,319.804699 539.68598,315.992288 C542.485409,309.278893 543.512178,301.515411 543.512178,301.515411 C543.512178,301.515411 552.578332,272.203317 526.116398,280.423292" id="Fill-62" fill="#F8A17A" mask="url(#mask-2)"></path>
                    <path d="M522.594642,282.694067 C522.223257,281.838729 522.23262,280.868099 522.511938,279.976926 C522.970708,278.51397 524.022444,273.127986 526.124356,273.145124 C529.22651,273.168494 530.50607,271.383033 531.347147,269.410613 C532.188224,267.438193 544.468884,267.271487 546.72996,269.267277 C548.989477,271.263067 550.659147,270.390591 552.534796,271.460933 C554.412004,272.532832 554.07651,273.166936 553.769103,275.106638 C553.458576,277.04634 555.150092,276.491694 557.266048,278.415817 C559.380444,280.339939 558.26629,281.787315 558.270971,283.60082 C558.274092,285.415882 561.677411,284.682067 560.839455,288.46955 C560.003059,292.255475 560.530488,291.182017 561.07196,294.003544 C561.515125,296.307817 559.534927,298.020052 558.932598,297.882948 C556.838488,297.404644 557.94796,299.163619 557.269169,300.185663 C555.970884,302.140945 549.988158,307.212215 546.655059,307.769976 C544.643653,308.104945 544.643653,309.208005 541.58207,308.720353 C539.59251,308.400964 539.188356,308.985212 538.42062,307.623525 C537.649763,306.260281 536.324949,304.477936 537.60607,302.692475 C538.885631,300.907014 538.818532,301.463218 538.080444,300.241751 C536.917916,298.316071 543.552905,297.713127 541.931609,294.37123 C539.91396,290.208271 537.833895,296.3826 537.406334,291.152415 C537.105169,287.458412 534.915873,290.304867 533.23996,287.54566 C531.564048,284.786453 531.880818,285.09182 527.681675,284.601052 C524.183169,284.191299 523.463807,284.694531 522.594642,282.694067" id="Fill-63" fill="#333333" mask="url(#mask-2)"></path>
                    <path d="M524.851505,299.523204 C525.446033,296.912007 527.435593,294.769765 530.044648,294.141894 C531.915615,293.691634 533.714802,293.931565 533.426121,296.692329 C532.850319,302.213859 527.292033,308.635909 527.292033,308.635909 L524.063484,306.739831 C524.063484,306.739831 524.057242,303.008436 524.851505,299.523204" id="Fill-64" fill="#F6824E" mask="url(#mask-2)"></path>
                    <path d="M552.865453,318.066134 C554.674002,322.554714 554.327585,324.935328 552.829563,328.119867 C549.285804,335.657441 528.616222,352.371598 520.963826,350.35867 C503.51031,345.767262 519.177123,312.460472 521.034046,308.341137 C522.57576,304.918225 526.453453,300.02145 530.652596,305.172178 C536.214002,311.993074 524.512266,332.287501 524.512266,332.287501 C529.24664,331.770247 538.309673,320.643055 542.110903,315.489212 C545.005519,311.566184 551.109958,313.709983 552.865453,318.066134" id="Fill-65" fill="#FF3453" mask="url(#mask-2)"></path>
                    <path d="M489.171743,262.013414 L456.369743,262.013414 C441.124248,262.013414 428.651655,272.727737 428.651655,285.822675 C428.651655,298.917612 441.124248,309.630377 456.369743,309.630377 L491.630996,309.630377 C492.401853,309.630377 493.164908,309.596101 493.92016,309.536897 C496.287347,312.492411 502.106226,318.755546 509.231193,319.207364 C509.231193,319.207364 503.633897,313.941345 500.992073,308.070825 C510.28293,304.856684 516.88827,297.029324 516.88827,287.933756 L516.88827,285.822675 C516.88827,272.727737 504.415677,262.013414 489.171743,262.013414" id="Fill-66" fill="#FFFFFF" mask="url(#mask-2)"></path>
                    <path d="M226.335204,26.0755179 L214.031138,15.7834113 L224.340963,3.49863072 C235.715007,14.0228784 226.335204,26.0755179 226.335204,26.0755179" id="Fill-67" fill="#FFFFFF" mask="url(#mask-2)"></path>
                    <path d="M201.356624,28.3022025 C194.565591,22.6217574 193.663657,12.513494 199.35458,5.73310533 C205.051745,-1.05507335 215.175877,-1.9384558 221.96691,3.74198934 L211.658646,16.0267699 L223.962712,26.3204345 C218.271789,33.0992652 208.155459,33.9904376 201.356624,28.3022025" id="Fill-68" fill="#B8E224" mask="url(#mask-2)"></path>
                    <path d="M532.000035,184.384507 C524.110453,184.887739 517.292892,178.897253 516.78887,171.018479 C516.284848,163.127241 522.284738,156.334388 530.175881,155.831156 C538.079508,155.327924 544.883024,161.305946 545.387046,169.197184 C545.891068,177.074401 539.903662,183.881275 532.000035,184.384507 L532.000035,184.384507 Z M556.503618,157.596363 L549.018189,158.073109 C548.030431,156.625733 546.880387,155.29209 545.569618,154.140733 L550.243134,147.785676 L544.071596,143.251915 L538.961156,150.200567 C537.397596,149.616319 535.740409,149.209683 534.030167,149.016492 L533.532387,141.229639 L525.878431,141.717291 L526.376211,149.504144 C524.873508,149.876504 523.431662,150.387526 522.092804,151.063695 L516.337903,145.01868 L510.793662,150.300278 L515.929068,155.700285 C514.635464,157.097805 513.538475,158.677611 512.661508,160.389846 L504.679859,160.897752 L505.168277,168.527247 L510.409793,168.192278 C510.319288,169.250156 510.269354,170.317382 510.339574,171.403303 C510.414475,172.581147 510.618892,173.724714 510.873244,174.83868 L505.305596,176.848492 L507.895925,184.041749 L513.928585,181.869905 C514.814914,183.180178 515.840123,184.376717 516.974563,185.461081 L513.710123,192.040488 L520.574497,195.440031 L523.453508,189.633388 C525.223046,190.360971 527.084651,190.859529 529.03364,191.09167 L529.53298,198.915915 L537.188497,198.428263 L536.687596,190.60246 C538.37131,190.180244 539.964519,189.566394 541.453178,188.774934 L544.859618,193.892943 L551.248057,189.648968 L547.49364,184.027727 C548.621837,182.734592 549.583068,181.305912 550.378892,179.771288 L555.865398,180.984965 L557.521024,173.522175 L552.60876,172.430021 C552.753881,171.210112 552.805376,169.973065 552.725793,168.7033 C552.655574,167.617379 552.469881,166.564175 552.245178,165.528109 L556.990475,165.225858 L556.503618,157.596363 Z" id="Fill-69" fill="#CCCCCC" mask="url(#mask-2)"></path>
                    <path d="M487.275185,214.74108 C483.161866,215.002823 479.605624,211.880604 479.34347,207.772174 C479.081316,203.659071 482.209998,200.116193 486.323316,199.85445 C490.444437,199.591149 493.991316,202.708695 494.255031,206.821798 C494.517185,210.930228 491.396305,214.479337 487.275185,214.74108 L487.275185,214.74108 Z M500.050503,200.775224 L496.147844,201.022945 C495.632899,200.267318 495.03369,199.574011 494.350218,198.972626 L496.786064,195.658773 L493.568437,193.295297 L490.904767,196.917632 C490.088657,196.613823 489.225734,196.401936 488.333163,196.300666 L488.07413,192.242093 L484.084086,192.496046 L484.343119,196.554619 C483.559778,196.749369 482.807646,197.015786 482.11013,197.367892 L479.109404,194.216071 L476.21791,196.969046 L478.895624,199.785898 C478.221514,200.513482 477.650393,201.33766 477.191624,202.230391 L473.029932,202.49525 L473.284284,206.472808 L476.018174,206.29987 C475.97136,206.8514 475.944833,207.406046 475.980723,207.973155 C476.019734,208.587005 476.127404,209.183717 476.260042,209.764848 L473.356064,210.813378 L474.707404,214.561911 L477.853251,213.430808 C478.315141,214.113209 478.848811,214.737964 479.440218,215.301958 L477.739338,218.734218 L481.317426,220.505657 L482.818569,217.478475 C483.740789,217.857068 484.711382,218.117253 485.728789,218.238776 L485.989382,222.317604 L489.979426,222.063651 L489.718833,217.984823 C490.59736,217.763588 491.427514,217.442641 492.204613,217.031331 L493.980393,219.698616 L497.310371,217.486265 L495.35358,214.555679 C495.941866,213.881068 496.442767,213.136347 496.857844,212.335538 L499.71813,212.969641 L500.581053,209.077773 L498.020371,208.509105 C498.096833,207.871886 498.12336,207.226876 498.081229,206.564729 C498.043778,205.999177 497.947031,205.450764 497.831558,204.908582 L500.304855,204.751224 L500.050503,200.775224 Z" id="Fill-70" fill="#CCCCCC" mask="url(#mask-2)"></path>
                    <path d="M138.031646,238.003796 C134.030679,236.832185 131.732152,232.633392 132.905602,228.637138 C134.082174,224.634652 138.285998,222.347517 142.286965,223.520687 C146.295734,224.693856 148.58958,228.883301 147.413009,232.885787 C146.239558,236.882041 142.040415,239.176966 138.031646,238.003796 L138.031646,238.003796 Z M155.020152,229.138812 L151.223602,228.026404 C150.995778,227.130558 150.666525,226.262755 150.22336,225.455715 L153.689097,223.146768 L151.449866,219.787734 L147.659558,222.311683 C146.99013,221.7399 146.242679,221.239784 145.42969,220.836263 L146.589097,216.886749 L142.708284,215.749414 L141.547316,219.698928 C140.734327,219.61168 139.92758,219.607006 139.141119,219.700486 L137.380943,215.66684 L133.67802,217.285596 L135.247822,220.889235 C134.355251,221.348843 133.525097,221.934649 132.780767,222.62484 L128.732987,221.439207 L127.595426,225.309263 L130.254415,226.08826 C130.018789,226.596166 129.801888,227.114978 129.639602,227.666508 C129.463273,228.264777 129.358723,228.867721 129.283822,229.465991 L126.159822,229.459759 L126.144218,233.491846 L129.527251,233.501194 C129.730108,234.311351 130.02191,235.08879 130.388613,235.830395 L127.581382,238.503912 L130.369888,241.426708 L132.846305,239.066348 C133.592196,239.745633 134.42391,240.328323 135.349251,240.794163 L134.183602,244.763931 L138.065976,245.899708 L139.233185,241.931498 C140.142921,242.024978 141.043295,242.00784 141.924943,241.883201 L142.687998,245.033464 L146.621866,244.079972 L145.776108,240.61811 C146.570371,240.178755 147.303778,239.645922 147.977888,239.027398 L150.477712,240.61811 L152.646723,237.217009 L150.409053,235.789887 C150.700855,235.211871 150.950525,234.60737 151.139338,233.963918 C151.301624,233.412389 151.399932,232.857743 151.476393,232.303097 L153.882591,233.00731 L155.020152,229.138812 Z" id="Fill-71" fill="#CCCCCC" mask="url(#mask-2)"></path>
                    <path d="M465.563229,445.880356 C463.487844,446.011228 461.694899,444.436096 461.562262,442.363964 C461.429624,440.288717 463.007229,438.50014 465.082613,438.369268 C467.162679,438.236839 468.952503,439.808855 469.085141,441.88566 C469.217778,443.957792 467.643295,445.747927 465.563229,445.880356 L465.563229,445.880356 Z M472.009404,438.83355 L470.04013,438.95819 C469.781097,438.578039 469.476811,438.225933 469.133514,437.923682 L470.363141,436.251955 L468.738723,435.06009 L467.393624,436.887616 C466.983229,436.733375 466.546305,436.627431 466.096899,436.576018 L465.965822,434.527256 L463.952855,434.655011 L464.083932,436.703773 C463.68758,436.801927 463.309954,436.935914 462.957295,437.115083 L461.442108,435.524372 L459.984657,436.914102 L461.335998,438.334992 C460.995822,438.701121 460.707141,439.117105 460.476196,439.567366 L458.375844,439.701353 L458.50536,441.708049 L459.883229,441.620801 C459.859822,441.898124 459.845778,442.180121 459.864503,442.465234 C459.884789,442.775275 459.939404,443.075967 460.004943,443.36887 L458.541251,443.898588 L459.223163,445.789992 L460.81013,445.218209 C461.042635,445.562525 461.311031,445.878798 461.610635,446.163911 L460.752393,447.893284 L462.557822,448.78913 L463.314635,447.260739 C463.779646,447.452372 464.269624,447.583243 464.783009,447.644005 L464.914086,449.703673 L466.928613,449.574359 L466.797536,447.51625 C467.239141,447.405632 467.658899,447.243601 468.050569,447.034829 L468.946262,448.380936 L470.626855,447.265413 L469.639097,445.785318 C469.93558,445.445676 470.188371,445.070199 470.399031,444.666679 L471.840877,444.986068 L472.27624,443.022996 L470.984196,442.734767 C471.023207,442.41382 471.03569,442.088199 471.015404,441.754789 C470.996679,441.468118 470.948305,441.192353 470.889009,440.919704 L472.13736,440.840246 L472.009404,438.83355 Z" id="Fill-72" fill="#F6F6F6" mask="url(#mask-2)"></path>
                    <path d="M473.049905,398.459545 C468.791466,398.459545 465.328851,401.918291 465.328851,406.168498 C465.328851,410.420263 468.791466,413.877451 473.049905,413.877451 C477.308345,413.877451 480.772521,410.420263 480.772521,406.168498 C480.772521,401.918291 477.308345,398.459545 473.049905,398.459545 M473.049905,417.886169 C466.580323,417.886169 461.3154,412.629498 461.3154,406.168498 C461.3154,399.709056 466.580323,394.452385 473.049905,394.452385 C479.521048,394.452385 484.785971,399.709056 484.785971,406.168498 C484.785971,412.629498 479.521048,417.886169 473.049905,417.886169" id="Fill-73" fill="#FFE300" mask="url(#mask-2)"></path>
                    <path d="M464.222967,398.459545 L467.596637,400.717078 C467.596637,400.717078 470.797099,397.203802 475.881011,398.998611 L477.678637,395.402761 C477.678637,395.402761 470.057451,391.869232 464.222967,398.459545" id="Fill-74" fill="#DC3B41" mask="url(#mask-2)"></path>
                    <path d="M466.991031,410.938763 L463.809295,413.381697 C463.809295,413.381697 470.177448,421.830697 479.703932,415.812168 L477.678481,412.336284 C477.678481,412.336284 470.951426,416.154926 466.991031,410.938763" id="Fill-75" fill="#F6F6F6" mask="url(#mask-2)"></path>
                    <path d="M178.039288,268.964248 C175.686145,268.660439 174.022716,266.504176 174.328563,264.156279 C174.632848,261.80215 176.790936,260.146003 179.144079,260.449812 C181.500343,260.755179 183.160651,262.906768 182.854804,265.259339 C182.550519,267.607235 180.395552,269.269614 178.039288,268.964248 L178.039288,268.964248 Z M186.796475,262.479878 L184.565046,262.191649 C184.357508,261.708671 184.093793,261.249063 183.775464,260.834636 L185.516914,259.231461 L183.959596,257.542596 L182.055859,259.295339 C181.628299,259.033596 181.163288,258.818592 180.671749,258.664351 L180.972914,256.341382 L178.689991,256.046922 L178.388826,258.368332 C177.925376,258.391702 177.471288,258.460254 177.037486,258.583335 L175.690826,256.472254 L173.75276,257.709301 L174.954299,259.594473 C174.493969,259.932558 174.080453,260.33452 173.723112,260.787897 L171.343442,260.480972 L171.048519,262.755643 L172.610519,262.958182 C172.523134,263.263549 172.448233,263.575147 172.406101,263.89921 C172.360848,264.251317 172.354607,264.598749 172.36553,264.941508 L170.610035,265.214157 L170.959574,267.481038 L172.861749,267.188135 C173.047442,267.624373 173.279947,268.035683 173.551464,268.41895 L172.212607,270.170135 L174.038321,271.564539 L175.219574,270.020567 C175.698629,270.335282 176.218255,270.589235 176.780013,270.769962 L176.477288,273.102279 L178.758651,273.398298 L179.061376,271.064423 C179.582563,271.036379 180.086585,270.947574 180.570321,270.799564 L181.27876,272.502451 L183.404079,271.619069 L182.622299,269.747918 C183.029574,269.431646 183.394716,269.065517 183.717727,268.660439 L185.262563,269.331934 L186.180101,267.228643 L184.795991,266.625699 C184.908343,266.273592 184.995727,265.913696 185.044101,265.533545 C185.087793,265.211041 185.092475,264.890094 185.086233,264.572263 L186.501552,264.754549 L186.796475,262.479878 Z" id="Fill-76" fill="#CCCCCC" mask="url(#mask-2)"></path>
                    <path d="M150.176859,304.403308 C143.913255,303.183399 137.82442,307.279364 136.602596,313.533151 C135.382332,319.788496 139.483167,325.867787 145.746771,327.087697 C152.010376,328.306048 158.100771,324.210082 159.322596,317.956295 C160.542859,311.702508 156.442024,305.623217 150.176859,304.403308 M144.595167,332.981587 C135.076486,331.129132 128.84253,321.888671 130.699453,312.383352 C132.554815,302.87959 141.809782,296.655405 151.328464,298.50786 C160.848705,300.361872 167.082662,309.600775 165.227299,319.106095 C163.370376,328.611414 154.115409,334.835599 144.595167,332.981587" id="Fill-77" fill="#FFFFFF" mask="url(#mask-2)"></path>
                    <path d="M137.333037,301.704239 L141.563389,306.074412 C141.563389,306.074412 147.361982,301.933265 154.245081,306.164776 L158.013543,301.46275 C158.013543,301.46275 147.964312,293.883111 137.333037,301.704239" id="Fill-78" fill="#FF4B00" mask="url(#mask-2)"></path>
                    <path d="M160.216884,81.4771517 L114.497565,81.4771517 C93.2506198,81.4771517 75.8657626,98.8347599 75.8657626,120.048403 C75.8657626,141.263603 93.2506198,158.619653 114.497565,158.619653 L163.643609,158.619653 C164.720312,158.619653 165.782971,158.563566 166.834708,158.468528 C170.133477,163.256243 178.244642,173.401898 188.17684,174.135713 C188.17684,174.135713 180.373081,165.604139 176.693565,156.092587 C189.642092,150.88733 198.848686,138.203703 198.848686,123.471315 L198.848686,120.048403 C198.848686,98.8347599 181.465389,81.4771517 160.216884,81.4771517" id="Fill-79" fill="#F6F6F6" mask="url(#mask-2)"></path>
                    <path d="M98.7326,110.83396 C98.7326,110.83396 96.4886879,114.827098 97.9242923,117.108001 C99.3598967,119.390462 101.155963,120.530913 99.3598967,123.268308 C97.5653912,126.005703 98.0428857,129.827462 98.0428857,129.827462 L146.168402,129.984819 C146.168402,129.984819 147.842754,123.7248 146.046688,121.90039 C144.250622,120.074421 148.25471,117.28717 148.176688,115.232176 C148.095545,113.178741 147.114029,110.851098 147.114029,110.851098 L98.7326,110.83396 Z" id="Fill-80" fill="#FF4B00" mask="url(#mask-2)"></path>
                    <path d="M142.4828,116.767735 L103.137877,116.767735 C102.849196,116.767735 102.612009,116.532478 102.612009,116.242691 L102.612009,116.130516 C102.612009,115.842287 102.849196,115.605472 103.137877,115.605472 L142.4828,115.605472 C142.773042,115.605472 143.008668,115.842287 143.008668,116.130516 L143.008668,116.242691 C143.008668,116.532478 142.773042,116.767735 142.4828,116.767735" id="Fill-81" fill="#FFFFFF" mask="url(#mask-2)"></path>
                    <path d="M142.4828,120.58591 L103.137877,120.58591 C102.849196,120.58591 102.612009,120.349095 102.612009,120.060866 L102.612009,119.948691 C102.612009,119.660462 102.849196,119.423647 103.137877,119.423647 L142.4828,119.423647 C142.773042,119.423647 143.008668,119.660462 143.008668,119.948691 L143.008668,120.060866 C143.008668,120.349095 142.773042,120.58591 142.4828,120.58591" id="Fill-82" fill="#FFFFFF" mask="url(#mask-2)"></path>
                    <path d="M142.4828,124.320421 L103.137877,124.320421 C102.849196,124.320421 102.612009,124.083606 102.612009,123.795377 L102.612009,123.683202 C102.612009,123.394973 102.849196,123.158158 103.137877,123.158158 L142.4828,123.158158 C142.773042,123.158158 143.008668,123.394973 143.008668,123.683202 L143.008668,123.795377 C143.008668,124.083606 142.773042,124.320421 142.4828,124.320421" id="Fill-83" fill="#FFFFFF" mask="url(#mask-2)"></path>
                    <path d="M129.161171,120.40939 C129.161171,120.40939 126.904776,124.458615 128.348182,126.770678 C129.793149,129.085857 131.597018,130.241888 129.793149,133.018233 C127.987721,135.794578 128.468336,139.669308 128.468336,139.669308 L176.829479,139.829782 C176.829479,139.829782 178.511633,133.480957 176.707765,131.630061 C174.902336,129.779164 178.92827,126.952963 178.847127,124.869926 C178.767545,122.786888 177.779787,120.428086 177.779787,120.428086 L129.161171,120.40939 Z" id="Fill-84" fill="#CCCCCC" mask="url(#mask-2)"></path>
                    <path d="M174.790297,126.976177 L135.445374,126.976177 C135.155132,126.976177 134.919505,126.739362 134.919505,126.451134 L134.919505,126.338958 C134.919505,126.050729 135.155132,125.813914 135.445374,125.813914 L174.790297,125.813914 C175.078978,125.813914 175.316165,126.050729 175.316165,126.338958 L175.316165,126.451134 C175.316165,126.739362 175.078978,126.976177 174.790297,126.976177" id="Fill-85" fill="#0096FF" mask="url(#mask-2)"></path>
                    <path d="M161.324796,131.281226 L135.444905,131.281226 C135.154664,131.281226 134.919037,131.045969 134.919037,130.756182 L134.919037,130.644006 C134.919037,130.355777 135.154664,130.118962 135.444905,130.118962 L161.324796,130.118962 C161.613477,130.118962 161.850664,130.355777 161.850664,130.644006 L161.850664,130.756182 C161.850664,131.045969 161.613477,131.281226 161.324796,131.281226" id="Fill-86" fill="#0096FF" mask="url(#mask-2)"></path>
                    <path d="M161.324796,135.399782 L135.444905,135.399782 C135.154664,135.399782 134.919037,135.162967 134.919037,134.874738 L134.919037,134.762563 C134.919037,134.474334 135.154664,134.237519 135.444905,134.237519 L161.324796,134.237519 C161.613477,134.237519 161.850664,134.474334 161.850664,134.762563 L161.850664,134.874738 C161.850664,135.162967 161.613477,135.399782 161.324796,135.399782" id="Fill-87" fill="#0096FF" mask="url(#mask-2)"></path>
                    <path d="M170.154699,134.81865 L165.348545,134.81865 C164.315534,134.81865 163.471336,133.974218 163.471336,132.942826 L163.471336,130.635437 C163.471336,129.604045 164.315534,128.759613 165.348545,128.759613 L170.154699,128.759613 C171.18771,128.759613 172.031908,129.604045 172.031908,130.635437 L172.031908,132.942826 C172.031908,133.974218 171.18771,134.81865 170.154699,134.81865" id="Fill-88" fill="#0096FF" mask="url(#mask-2)"></path>
                    <path d="M261.202758,191.516535 C262.011066,244.709557 289.173637,291.508573 313.652253,300.227106 C317.019681,301.426761 320.291923,302.448805 323.484582,302.101372 C326.685044,301.750824 330.32867,301.364441 333.758516,299.483943 C356.904516,286.795642 384.937813,247.147817 385.766407,191.516535 C386.676143,130.449413 357.881352,80.9316981 323.484582,80.9316981 C289.087813,80.9316981 260.275857,130.449413 261.202758,191.516535" id="Fill-89" fill="#0096FF" mask="url(#mask-2)"></path>
                    <path d="M290.562273,135.665264 C290.562273,145.327941 305.372404,153.14128 323.642031,153.14128 C341.911657,153.14128 356.720229,145.327941 356.720229,135.68396 C356.720229,135.570227 356.729591,134.780324 356.720229,134.66659 C346.543042,138.22349 335.635569,140.082176 323.642031,140.082176 C312.016756,140.082176 300.505393,139.007161 290.562273,135.665264" id="Fill-90" fill="#FFFFFF" mask="url(#mask-2)"></path>
                    <path d="M290.562273,135.665264 C290.562273,145.327941 305.372404,153.14128 323.642031,153.14128 C341.911657,153.14128 356.720229,145.327941 356.720229,135.68396 C356.720229,135.570227 356.720229,135.448703 356.712426,135.33497 C346.532119,138.893427 335.635569,140.082176 323.642031,140.082176 C312.016756,140.082176 300.505393,139.007161 290.562273,135.665264" id="Fill-91" fill="#FFFFFF" mask="url(#mask-2)"></path>
                    <polygon id="Fill-92" fill="#333333" mask="url(#mask-2)" points="325.163303 34.9434624 321.909787 8.13506426 318.9746 34.5072241"></polygon>
                    <path d="M315.293211,11.1246984 C315.293211,14.8592094 318.325145,17.8863912 322.067079,17.8863912 C325.807453,17.8863912 328.840947,14.8592094 328.840947,11.1246984 C328.840947,7.39018746 325.807453,4.36144765 322.067079,4.36144765 C318.325145,4.36144765 315.293211,7.39018746 315.293211,11.1246984" id="Fill-93" fill="#CCCCCC" mask="url(#mask-2)"></path>
                    <path d="M301.041248,210.703851 L343.099776,210.703851 C352.242391,210.703851 359.721578,203.236387 359.721578,194.108102 L359.721578,188.609942 C359.721578,179.483215 352.242391,172.014193 343.099776,172.014193 L299.638413,172.014193 C291.268215,172.014193 284.419446,178.852227 284.419446,187.209306 L284.419446,194.108102 C284.419446,203.236387 291.900193,210.703851 301.041248,210.703851" id="Fill-94" fill="#FFFFFF" mask="url(#mask-2)"></path>
                    <path d="M315.382312,182.541245 L350.80429,182.541245 C351.328598,182.541245 351.759279,182.112797 351.759279,181.587753 L351.759279,181.089195 C351.759279,180.564151 351.328598,180.135703 350.80429,180.135703 L315.382312,180.135703 C314.856444,180.135703 314.427323,180.564151 314.427323,181.089195 L314.427323,181.587753 C314.427323,182.111239 314.856444,182.541245 315.382312,182.541245" id="Fill-95" fill="#CCCCCC" mask="url(#mask-2)"></path>
                    <path d="M291.51851,182.541245 L308.864356,182.541245 C309.390224,182.541245 309.819345,182.111239 309.819345,181.587753 L309.819345,181.089195 C309.819345,180.564151 309.390224,180.135703 308.864356,180.135703 L291.51851,180.135703 C290.992642,180.135703 290.56196,180.564151 290.56196,181.089195 L290.56196,181.587753 C290.56196,182.111239 290.992642,182.541245 291.51851,182.541245" id="Fill-96" fill="#CCCCCC" mask="url(#mask-2)"></path>
                    <path d="M331.764587,190.462085 L350.80351,190.462085 C351.329378,190.462085 351.758499,190.033637 351.758499,189.508593 L351.758499,189.010035 C351.758499,188.484991 351.329378,188.056543 350.80351,188.056543 L331.764587,188.056543 C331.238719,188.056543 330.809598,188.484991 330.809598,189.010035 L330.809598,189.508593 C330.809598,190.033637 331.238719,190.462085 331.764587,190.462085" id="Fill-97" fill="#CCCCCC" mask="url(#mask-2)"></path>
                    <path d="M291.51851,190.462085 L324.969653,190.462085 C325.495521,190.462085 325.926202,190.033637 325.926202,189.508593 L325.926202,189.010035 C325.926202,188.484991 325.495521,188.056543 324.969653,188.056543 L291.51851,188.056543 C290.992642,188.056543 290.56196,188.484991 290.56196,189.010035 L290.56196,189.508593 C290.56196,190.033637 290.992642,190.462085 291.51851,190.462085" id="Fill-98" fill="#CCCCCC" mask="url(#mask-2)"></path>
                    <path d="M294.668413,200.13411 L349.819029,200.13411 C350.344897,200.13411 350.775578,199.705662 350.775578,199.180618 L350.775578,198.68206 C350.775578,198.158574 350.344897,197.728568 349.819029,197.728568 L294.668413,197.728568 C294.142545,197.728568 293.713424,198.158574 293.713424,198.68206 L293.713424,199.180618 C293.713424,199.705662 294.142545,200.13411 294.668413,200.13411" id="Fill-99" fill="#CCCCCC" mask="url(#mask-2)"></path>
                    <polygon id="Fill-100" fill="#333333" mask="url(#mask-2)" points="421.171376 172.45308 425.117727 164.125603 382.684695 144.083572 378.738343 152.411048"></polygon>
                    <path d="M395.59936,141.697972 L382.46358,130.904191 C376.28736,125.885893 369.763163,125.952887 365.833976,132.516715 C361.705053,137.525665 362.432218,144.997803 367.449031,149.120254 L380.584811,159.914034 C385.601624,164.036486 393.085492,163.310461 397.214415,158.301511 C401.343338,153.292561 400.616174,145.820423 395.59936,141.697972" id="Fill-101" fill="#0096FF" mask="url(#mask-2)"></path>
                    <path d="M438.945095,169.452851 L438.706347,165.81182 C438.453556,161.969807 435.100171,159.034547 431.253688,159.286942 L424.200501,159.748108 C420.352457,160.000503 417.412589,163.348632 417.66538,167.189086 L417.680985,167.435249 C418.057051,173.143738 423.041095,177.507679 428.758545,177.132202 L432.409974,176.893829 C436.256457,176.641434 439.197886,173.293306 438.945095,169.452851" id="Fill-102" fill="#CCCCCC" mask="url(#mask-2)"></path>
                    <path d="M432.492989,157.649179 C437.945165,153.093605 446.064132,153.814956 450.625297,159.258587 C455.188022,164.700659 454.509231,172.858314 449.014923,177.362474 C442.832462,182.427511 435.44378,181.196696 430.881055,175.753066 C426.31989,170.309436 427.040813,162.204753 432.492989,157.649179" id="Fill-103" fill="#0096FF" mask="url(#mask-2)"></path>
                    <polygon id="Fill-104" fill="#333333" mask="url(#mask-2)" points="228.162323 174.251472 234.688081 180.767002 267.880191 147.626917 261.354433 141.111387"></polygon>
                    <path d="M265.532822,158.62978 L278.202031,147.29226 C283.040954,142.961037 283.449789,135.465529 279.113327,130.635749 C274.775305,125.80441 267.268031,125.394658 262.430668,129.725881 L249.76302,141.061843 C244.924097,145.391508 244.513701,152.887015 248.850163,157.718354 C253.186624,162.55125 260.693899,162.959445 265.532822,158.62978" id="Fill-105" fill="#0096FF" mask="url(#mask-2)"></path>
                    <path d="M219.307141,190.342743 C215.454415,186.859069 215.157932,180.860793 218.647075,177.014106 L220.113888,175.398467 C223.603031,171.55178 229.610723,171.255761 233.463448,174.739435 C237.316174,178.224667 237.612657,184.222943 234.121954,188.06963 L232.656701,189.685269 C229.165998,193.530398 223.159866,193.826417 219.307141,190.342743" id="Fill-106" fill="#CCCCCC" mask="url(#mask-2)"></path>
                    <path d="M203.323246,193.067674 C203.323246,200.518 209.37151,206.556783 216.833532,206.556783 C224.295554,206.556783 230.343818,200.518 230.343818,193.067674 C230.343818,185.617348 224.295554,179.578564 216.833532,179.578564 C209.37151,179.578564 203.323246,185.617348 203.323246,193.067674" id="Fill-107" fill="#0096FF" mask="url(#mask-2)"></path>
                    <path d="M254.515963,86.9536555 C254.515963,109.382533 263.66638,125.517116 287.537985,134.226301 C301.393127,140.899188 323.826007,141.90721 339.472534,139.144887 C351.579985,137.005762 365.739413,132.369173 375.641963,123.187916 C386.115633,113.476941 392.452578,100.810452 392.452578,86.9536555 C392.452578,56.3686806 361.577721,34.400969 323.48427,34.400969 C285.39082,34.400969 254.515963,56.3686806 254.515963,86.9536555" id="Fill-108" fill="#0096FF" mask="url(#mask-2)"></path>
                    <path d="M296.311868,115.410567 L347.820418,115.410567 C357.086308,115.410567 364.596703,107.911943 364.596703,98.6621342 L364.596703,84.9782752 C364.596703,75.7284665 359.161692,70.116573 349.474484,70.116573 C345.290945,70.116573 333.224066,72.9474476 323.010989,72.9474476 C314.183582,72.9474476 305.613648,70.6011091 300.479802,70.0994351 C288.244396,68.9044539 278.992549,72.9116138 279.435714,80.7997361 C279.507495,82.064827 279.537143,83.6570966 279.537143,84.9782752 L279.537143,98.6621342 C279.537143,107.911943 287.047538,115.410567 296.311868,115.410567" id="Fill-109" fill="#FFFFFF" mask="url(#mask-2)"></path>
                    <path d="M335.233756,91.4754207 C335.233756,95.7318596 337.173382,99.1812577 339.565536,99.1812577 C341.95769,99.1812577 343.897316,95.7318596 343.897316,91.4754207 C343.897316,87.2189818 341.95769,83.7695837 339.565536,83.7695837 C337.173382,83.7695837 335.233756,87.2189818 335.233756,91.4754207" id="Fill-110" fill="#333333" mask="url(#mask-2)"></path>
                    <path d="M299.873103,91.449558 C299.873103,95.7059969 301.74251,99.155395 304.047279,99.155395 C306.353609,99.155395 308.221455,95.7059969 308.221455,91.449558 C308.221455,87.1931191 306.353609,83.743721 304.047279,83.743721 C301.74251,83.743721 299.873103,87.1931191 299.873103,91.449558" id="Fill-111" fill="#333333" mask="url(#mask-2)"></path>
                    <path d="M323.131143,109.405436 C329.361978,109.405436 334.008967,107.197759 334.077626,107.165041 L333.684396,106.356442 C332.595209,106.890834 322.478879,110.695455 313.280088,106.354884 L312.894659,107.166599 C316.454022,108.846116 319.994659,109.405436 323.131143,109.405436" id="Fill-112" fill="#333333" mask="url(#mask-2)"></path>
                    <path d="M462.187062,23.2212734 L519.286666,23.2212734 C545.823501,23.2212734 567.535457,44.8991981 567.535457,71.3928815 C567.535457,97.8881229 545.823501,119.566048 519.286666,119.566048 L457.906776,119.566048 C456.563237,119.566048 455.235303,119.495938 453.921413,119.375972 C449.801853,125.35711 439.671479,138.028273 427.267545,138.942816 C427.267545,138.942816 437.014051,128.287697 441.609545,116.409552 C425.437149,109.909603 413.939831,94.0694803 413.939831,75.6680163 L413.939831,71.3928815 C413.939831,44.8991981 435.650226,23.2212734 462.187062,23.2212734" id="Fill-113" fill="#F6F6F6" mask="url(#mask-2)"></path>
                    <path d="M470.024369,59.7671323 C470.397314,62.0028533 472.113798,64.6467687 469.058457,70.3350038 C465.416391,77.1153925 462.585754,82.5231887 452.872018,89.3347373 C449.222149,91.892963 443.370501,90.8709191 441.669622,87.4822828 C440.890963,85.928963 440.717754,84.1528502 442.067534,82.3876433 C445.846919,77.4425712 447.87393,77.1527843 450.462699,78.7964677 C453.053029,80.4401511 461.513732,69.4531793 462.125424,66.4197655 C462.353248,65.2808721 462.225292,64.9412295 461.975622,64.9630414 C460.504127,65.0892389 459.010787,64.7573862 458.197798,63.5265712 C457.367644,62.2692702 457.17571,60.7922922 458.077644,58.833894 C459.347842,56.0762451 461.729073,53.4603737 464.333446,53.123847 C467.195292,52.7546025 469.086545,54.1521229 470.024369,59.7671323" id="Fill-114" fill="#FF3453" mask="url(#mask-2)"></path>
                    <path d="M512.211789,60.9773818 L482.933262,60.9773818 C481.911174,60.9773818 481.073218,60.1422972 481.073218,59.1218113 C481.073218,58.0997674 481.911174,57.2646828 482.933262,57.2646828 L512.211789,57.2646828 C513.233877,57.2646828 514.070273,58.0997674 514.070273,59.1218113 C514.070273,60.1422972 513.233877,60.9773818 512.211789,60.9773818" id="Fill-115" fill="#CCCCCC" mask="url(#mask-2)"></path>
                    <path d="M534.908226,69.5045931 L482.933105,69.5045931 C481.911018,69.5045931 481.073062,68.6695085 481.073062,67.6490226 C481.073062,66.6285367 481.911018,65.793452 482.933105,65.793452 L534.908226,65.793452 C535.930314,65.793452 536.76671,66.6285367 536.76671,67.6490226 C536.76671,68.6695085 535.930314,69.5045931 534.908226,69.5045931" id="Fill-116" fill="#CCCCCC" mask="url(#mask-2)"></path>
                    <path d="M525.746105,86.3031931 L482.932325,86.3031931 C481.910237,86.3031931 481.073842,85.4681085 481.073842,84.4476226 C481.073842,83.4255787 481.910237,82.592052 482.932325,82.592052 L525.746105,82.592052 C526.768193,82.592052 527.604589,83.4255787 527.604589,84.4476226 C527.604589,85.4681085 526.768193,86.3031931 525.746105,86.3031931" id="Fill-117" fill="#CCCCCC" mask="url(#mask-2)"></path>
                    <path d="M498.617396,78.0324276 L482.933418,78.0324276 C481.909769,78.0324276 481.073374,77.1973429 481.073374,76.1768571 C481.073374,75.1548132 481.909769,74.3197285 482.933418,74.3197285 L498.617396,74.3197285 C499.639484,74.3197285 500.475879,75.1548132 500.475879,76.1768571 C500.475879,77.1973429 499.639484,78.0324276 498.617396,78.0324276" id="Fill-118" fill="#CCCCCC" mask="url(#mask-2)"></path>
                    <path d="M138.894881,484.776137 L150.591936,485.349479 C151.20831,485.369733 153.531804,484.637476 153.734662,484.056344 L156.972574,476.48761 L159.033914,483.141802 L159.310112,493.54141 L138.509453,492.510018 L138.894881,484.776137 Z" id="Fill-119" fill="#F8A17A" mask="url(#mask-2)"></path>
                    <path d="M159.029077,495.414274 C159.029077,495.414274 153.921758,496.93176 150.832088,493.494826 C150.326505,492.930832 151.039626,492.873186 151.746505,492.633255 C153.314747,492.098863 154.725385,487.979528 155.930044,485.449346 C158.882396,479.257879 156.371648,478.57392 156.824176,475.50623 C157.718308,469.440961 164.158242,468.411127 164.158242,468.411127 L159.029077,495.414274 Z" id="Fill-120" fill="#CCCCCC" mask="url(#mask-2)"></path>
                    <path d="M39.9015319,473.909754 C39.9015319,479.242766 36.6651802,488.975553 41.0546967,492.015199 C45.525356,495.110933 60.9596637,493.834936 70.854411,492.326798 C80.4620374,490.8654 85.9813121,491.265804 90.4878615,491.82824 C97.6986527,492.727202 99.5009604,492.727202 108.514059,493.627723 C131.500895,495.922647 144.566455,496.280986 144.566455,490.927719 C144.566455,487.327196 144.566455,484.628751 134.651422,483.72823 C120.738543,482.466255 121.131774,481.928748 110.316367,480.129265 C108.306521,479.794296 77.3489604,468.051697 52.9811363,474.729259 L41.1998176,473.84276 L39.9015319,473.909754 Z" id="Fill-121" fill="#FF4965" mask="url(#mask-2)"></path>
                    <path d="M117.661356,476.033767 C117.661356,476.033767 128.6094,488.126914 129.200807,488.301409 L136.31173,490.68514 L128.540741,491.727438 L120.782235,494.050406 L120.12529,488.147168 L119.565092,487.6564 L118.430653,486.660842 L110.037048,479.302438 L117.661356,476.033767 Z" id="Fill-122" fill="#F8A17A" mask="url(#mask-2)"></path>
                    <path d="M119.754374,496.544754 C119.754374,496.544754 117.142198,492.593682 119.952549,488.926165 C120.412879,488.327895 121.044857,488.600544 121.41156,489.250228 C122.22767,490.689814 125.551407,491.696278 128.349275,491.498413 C134.611319,491.055942 134.314835,490.801989 138.939978,490.69293 C145.078747,490.54492 147.280527,496.574356 147.280527,496.574356 L119.754374,496.544754 Z" id="Fill-123" fill="#CCCCCC" mask="url(#mask-2)"></path>
                    <path d="M43.2624066,421.527512 C44.0176593,420.812393 45.266011,421.147361 45.7138571,422.089948 C47.616033,426.083086 53.1805604,437.568615 56.1875275,441.680161 C59.8514396,446.690669 79.0042747,437.973694 85.0494176,440.683045 C91.093,443.392396 89.4763846,446.575377 84.6093736,447.469666 C75.6711758,449.111791 56.3747802,454.700314 52.2552198,452.198176 C48.478956,449.903252 38.1457253,426.368198 43.2624066,421.527512" id="Fill-124" fill="#F9B234" mask="url(#mask-2)"></path>
                    <path d="M84.6093736,442.129019 C84.6093736,442.129019 87.7224505,439.125207 90.9541209,441.127229 C94.1873516,443.130809 98.4317473,446.659665 97.1240989,447.510329 C95.8148901,448.359436 87.8535275,445.799652 86.1760549,444.353834 C84.5001429,442.908016 84.6093736,442.129019 84.6093736,442.129019" id="Fill-125" fill="#F8A17A" mask="url(#mask-2)"></path>
                    <path d="M125.031624,479.444059 C113.921295,469.764244 102.942042,450.798787 91.4868549,446.327345 C82.9590527,442.997912 57.4115363,465.881724 51.2165912,470.993501 L41.7852945,467.230946 L21.9552286,469.93095 C21.9552286,469.93095 17.6952286,490.09762 28.5106352,492.797624 C35.4795582,494.536345 46.8926132,494.048692 55.9057121,492.247652 C62.3394044,490.962307 71.5272725,481.629924 71.5272725,481.629924 L87.3516901,466.266548 C88.6421736,465.390956 90.5084593,465.339542 91.5289868,466.517385 C94.9073385,470.418602 104.915998,478.030959 111.13591,481.762354 C116.60369,485.041931 118.924064,487.777768 122.645712,485.041931 C124.636833,483.577417 126.5078,480.729404 125.031624,479.444059" id="Fill-126" fill="#FF3453" mask="url(#mask-2)"></path>
                    <path d="M45.3454374,379.543008 C50.7554813,380.417043 54.6456571,385.271751 54.7814154,390.741867 C54.9624264,398.037952 54.286756,413.851588 46.4627121,413.256435 C43.2872176,413.014946 43.9316791,415.929952 44.0315473,417.643745 C44.2141187,420.775313 45.4421846,423.885068 45.4421846,423.885068 C45.4421846,423.885068 39.1255253,429.224313 36.0623824,425.181319 C32.9992396,421.138325 31.3717011,420.321936 31.3717011,420.321936 C31.3717011,420.321936 34.6220967,414.36261 34.7422505,409.324059 C34.8171516,406.166005 34.1461626,404.036228 33.5079429,402.447074 C32.1269538,399.007024 32.5186242,377.470877 45.3454374,379.543008" id="Fill-127" fill="#F8A17A" mask="url(#mask-2)"></path>
                    <path d="M44.6780374,421.336502 C44.6780374,421.336502 46.6426308,424.231254 50.6794879,431.245342 C54.1577077,437.287242 51.3099055,439.490245 50.5094,440.780264 C48.4839495,444.047376 48.9489604,444.731336 48.7975978,447.099486 C48.1016418,457.932217 49.9866527,469.140424 51.1429385,470.403956 C51.1429385,470.403956 22.4636198,474.456298 18.2379495,471.376145 C18.2379495,471.376145 24.5826967,448.331859 19.9762791,428.83201 C18.4205209,422.243254 31.3721692,415.456634 31.3721692,415.456634 C31.3721692,415.456634 44.2816857,428.258668 44.6780374,421.336502" id="Fill-128" fill="#F9B234" mask="url(#mask-2)"></path>
                    <path d="M89.917833,409.520833 C89.917833,409.520833 81.5710418,442.944473 78.9417011,444.234492 L89.9209538,447.013952 C89.9209538,447.013952 101.33869,411.952861 98.8669538,410.365266 C98.8669538,410.365266 90.8260088,409.606523 89.917833,409.520833" id="Fill-129" fill="#F6F6F6" mask="url(#mask-2)"></path>
                    <path d="M74.6586066,440.385468 C74.6586066,440.385468 78.8827165,436.166421 81.6993099,436.166421 C84.5159033,436.166421 91.4520571,433.689211 91.7126505,433.168841 C92.4522989,431.690305 93.0046945,428.786205 91.377156,428.497976 C86.6849143,427.666007 77.6359253,430.621521 76.9914637,431.264973 C75.5823868,432.671841 71.8420132,437.573289 71.8420132,437.573289 L74.6586066,440.385468 Z" id="Fill-130" fill="#F8A17A" mask="url(#mask-2)"></path>
                    <path d="M60.3784,456.29866 C60.3784,456.29866 47.4298725,465.258682 39.5964659,454.316892 C33.6090593,445.950466 19.3887736,429.797187 23.5925978,423.999892 C27.796422,418.202597 33.6449495,416.56203 39.8898286,424.755519 C46.1331473,432.94745 49.5926418,445.47372 54.0211692,445.296108 C58.4512571,445.118497 67.027433,437.739839 71.287433,433.349413 C74.9076527,429.61646 80.0461802,433.294883 81.692444,437.45161 C83.3371473,441.606779 75.4007516,445.280529 60.3784,456.29866" id="Fill-131" fill="#FFC73C" mask="url(#mask-2)"></path>
                    <path d="M56.9368505,386.33181 C55.3342791,382.991472 52.8687846,382.578603 51.6001473,380.277447 C49.4451802,376.362208 45.8811363,376.379346 41.1015099,376.373114 C31.3721692,376.362208 20.4475319,382.452406 19.2163451,387.562625 C17.3656637,395.249766 18.5594,393.677751 14.519422,398.158541 C10.479444,402.640889 6.76091648,401.927328 5.75131209,412.517011 C5.24729011,417.811074 7.09797143,420.22908 4.48891648,424.365553 C0.619026374,430.497817 -1.65453407,435.961701 1.45854286,443.019412 C4.17370769,449.171929 -0.605918681,450.329519 2.67880659,456.379208 C5.96197143,462.428898 14.9766308,463.689315 20.0262132,459.152437 C25.0757956,454.614002 29.1157736,454.614002 28.087444,444.887447 C27.4070923,438.435795 36.1845648,439.490556 34.165356,430.775139 C32.372411,423.041259 44.8496857,420.313212 37.2347407,413.009337 C36.0909385,411.912509 36.710433,409.425951 38.0789385,408.065823 C39.2648725,406.886422 42.6666308,406.535873 40.6817516,401.117171 C39.8500374,398.85029 44.3144549,397.013415 45.7438176,397.317224 C47.9768066,397.792412 47.978367,393.324086 52.9764549,396.229745 C56.5139714,398.284738 59.7378396,392.164939 56.9368505,386.33181" id="Fill-132" fill="#333333" mask="url(#mask-2)"></path>
                    <path d="M131.708433,361.211498 L164.006411,361.211498 C179.016279,361.211498 191.296938,372.619129 191.296938,386.561614 C191.296938,400.502542 179.016279,411.910172 164.006411,411.910172 L129.288191,411.910172 C128.528257,411.910172 127.776125,411.874339 127.033356,411.810461 C124.70362,414.957608 118.973686,421.625821 111.957949,422.107241 C111.957949,422.107241 117.469422,416.500022 120.070675,410.249351 C110.921818,406.827997 104.417905,398.49273 104.417905,388.809799 L104.417905,386.561614 C104.417905,372.619129 116.698565,361.211498 131.708433,361.211498" id="Fill-133" fill="#F6F6F6" mask="url(#mask-2)"></path>
                    <path d="M168.509059,401.078844 L127.031015,401.078844 C126.536356,401.078844 126.130642,400.673766 126.130642,400.178324 C126.130642,399.682882 126.536356,399.277803 127.031015,399.277803 L168.509059,399.277803 C169.005279,399.277803 169.410993,399.682882 169.410993,400.178324 C169.410993,400.673766 169.005279,401.078844 168.509059,401.078844" id="Fill-134" fill="#00DDFF" mask="url(#mask-2)"></path>
                    <path d="M167.630532,374.639379 L126.154048,374.639379 C125.657829,374.639379 125.252114,374.234301 125.252114,373.738859 C125.252114,373.243417 125.657829,372.838338 126.154048,372.838338 L167.630532,372.838338 C168.126752,372.838338 168.532466,373.243417 168.532466,373.738859 C168.532466,374.234301 168.126752,374.639379 167.630532,374.639379" id="Fill-135" fill="#00DDFF" mask="url(#mask-2)"></path>
                    <path d="M167.630532,384.094531 L126.154048,384.094531 C125.657829,384.094531 125.252114,383.689453 125.252114,383.194011 C125.252114,382.698569 125.657829,382.293491 126.154048,382.293491 L167.630532,382.293491 C168.126752,382.293491 168.532466,382.698569 168.532466,383.194011 C168.532466,383.689453 168.126752,384.094531 167.630532,384.094531" id="Fill-136" fill="#00DDFF" mask="url(#mask-2)"></path>
                    <path d="M168.509059,392.586688 L127.031015,392.586688 C126.536356,392.586688 126.130642,392.181609 126.130642,391.686167 C126.130642,391.190725 126.536356,390.785647 127.031015,390.785647 L168.509059,390.785647 C169.005279,390.785647 169.410993,391.190725 169.410993,391.686167 C169.410993,392.181609 169.005279,392.586688 168.509059,392.586688" id="Fill-137" fill="#00DDFF" mask="url(#mask-2)"></path>
                    <path d="M493.080488,296.693264 L451.602444,296.693264 C451.107785,296.693264 450.70207,296.288186 450.70207,295.792744 C450.70207,295.297302 451.107785,294.892224 451.602444,294.892224 L493.080488,294.892224 C493.576708,294.892224 493.982422,295.297302 493.982422,295.792744 C493.982422,296.288186 493.576708,296.693264 493.080488,296.693264" id="Fill-138" fill="#00DDFF" mask="url(#mask-2)"></path>
                    <path d="M492.20196,279.708951 L450.725477,279.708951 C450.229257,279.708951 449.823543,279.303873 449.823543,278.808431 C449.823543,278.312989 450.229257,277.907911 450.725477,277.907911 L492.20196,277.907911 C492.69818,277.907911 493.103895,278.312989 493.103895,278.808431 C493.103895,279.303873 492.69818,279.708951 492.20196,279.708951" id="Fill-139" fill="#00DDFF" mask="url(#mask-2)"></path>
                    <path d="M493.080488,288.201108 L451.602444,288.201108 C451.107785,288.201108 450.70207,287.796029 450.70207,287.300587 C450.70207,286.805145 451.107785,286.400067 451.602444,286.400067 L493.080488,286.400067 C493.576708,286.400067 493.982422,286.805145 493.982422,287.300587 C493.982422,287.796029 493.576708,288.201108 493.080488,288.201108" id="Fill-140" fill="#00DDFF" mask="url(#mask-2)"></path>
                </g>
            </g>
        </g>
    </g>
</svg>