<?xml version="1.0" encoding="UTF-8"?>
<svg width="93px" height="94px" viewBox="0 0 93 94" version="1.1" xmlns="http://www.w3.org/2000/svg" xmlns:xlink="http://www.w3.org/1999/xlink">
    <!-- Generator: sketchtool 53.2 (72643) - https://sketchapp.com -->
    <title>AF3206DE-F7DE-4E3D-B8CF-4887F9BB888B</title>
    <desc>Created with sketchtool.</desc>
    <defs>
        <polygon id="path-1" points="0.0004 0.4518 92.547 0.4518 92.547 92.9998 0.0004 92.9998"></polygon>
    </defs>
    <g id="Symbols" stroke="none" stroke-width="1" fill="none" fill-rule="evenodd">
        <g id="call">
            <g id="Group-14">
                <g id="Group-3" transform="translate(0.000000, 0.548900)">
                    <mask id="mask-2" fill="white">
                        <use xlink:href="#path-1"></use>
                    </mask>
                    <g id="Clip-2"></g>
                    <path d="M92.5474,46.7258 C92.5474,72.2828 71.8294,92.9998 46.2724,92.9998 C20.7174,92.9998 0.0004,72.2828 0.0004,46.7258 C0.0004,21.1688 20.7174,0.4518 46.2724,0.4518 C71.8294,0.4518 92.5474,21.1688 92.5474,46.7258" id="Fill-1" fill="#0096FF" mask="url(#mask-2)"></path>
                </g>
                <path d="M28.2544,30.8509 C26.7124,30.8509 25.2344,32.4139 23.6184,34.3069 C21.0344,37.3369 20.8534,37.6569 21.2784,41.5909 C21.9594,47.8859 26.2874,55.3719 32.8584,61.6139 C39.3664,67.7909 46.6824,71.4819 52.4244,71.4819 C53.5724,71.4819 54.6574,71.3319 55.6464,71.0349 C57.3474,70.5249 61.0684,67.1749 61.7284,64.7719 C61.9094,64.0909 61.8344,63.5909 61.4944,63.2189 C60.9524,62.6339 60.3884,61.9639 59.7934,61.2629 C57.7834,58.8709 55.5074,56.1479 53.2854,56.1479 C52.5624,56.1479 51.8604,56.4349 51.1694,57.0309 C50.5634,57.5519 50.0214,58.1359 49.5004,58.7099 C48.9684,59.2949 48.4684,59.8479 47.8944,60.3269 C47.5964,60.5819 47.2244,60.6999 46.7674,60.6999 C44.4494,60.6999 40.5044,57.1689 38.9094,55.6589 C35.8044,52.7029 33.2204,49.4169 32.3164,47.3009 C31.7744,46.0249 31.7844,45.0679 32.3584,44.4729 C32.7204,44.1009 33.1464,43.7069 33.6134,43.2919 C35.7404,41.3679 37.3034,39.7729 36.4424,38.1669 C34.3794,35.9969 32.3164,33.8389 30.2534,31.6699 C29.5624,31.1179 28.9034,30.8509 28.2544,30.8509 M52.4134,72.7569 C46.3524,72.7569 38.7074,68.9399 31.9654,62.5379 C25.1914,56.0949 20.7154,48.3109 20.0034,41.7289 C19.5354,37.4129 19.8644,36.7429 22.6404,33.4779 C24.1294,31.7339 25.9894,29.5759 28.2434,29.5759 C29.2004,29.5759 30.1474,29.9579 31.0834,30.7239 C31.1044,30.7449 31.1254,30.7549 31.1364,30.7769 C33.2314,32.9669 35.3254,35.1679 37.4094,37.3589 C37.4424,37.3909 37.4734,37.4329 37.5054,37.4759 C39.0364,40.1229 36.3894,42.5159 34.4534,44.2489 C34.0074,44.6429 33.5924,45.0259 33.2624,45.3659 C33.1354,45.5039 33.1134,45.9609 33.4754,46.8009 C34.3154,48.7789 36.7824,51.8949 39.7814,54.7449 C42.7694,57.5939 45.5124,59.4339 46.7564,59.4339 C46.8944,59.4339 47.0014,59.4129 47.0544,59.3599 C47.5644,58.9339 48.0434,58.4129 48.5434,57.8599 C49.0854,57.2649 49.6494,56.6479 50.3184,56.0739 C51.2434,55.2869 52.2434,54.8829 53.2644,54.8829 C56.0824,54.8829 58.5594,57.8389 60.7504,60.4439 C61.3354,61.1349 61.8774,61.7939 62.4084,62.3579 C62.8664,62.8469 63.3234,63.7189 62.9404,65.1119 C62.1324,68.0569 58.0384,71.6519 55.9974,72.2569 C54.8914,72.5979 53.6894,72.7569 52.4134,72.7569" id="Fill-4" fill="#FFFFFF"></path>
                <path d="M71.4048,49.4915 C71.0538,49.4915 70.7668,49.2045 70.7668,48.8535 C70.7668,34.0195 58.7088,21.9515 43.8748,21.9515 C43.5238,21.9515 43.2368,21.6645 43.2368,21.3125 C43.2368,20.9625 43.5238,20.6755 43.8748,20.6755 C51.3928,20.6755 58.4748,23.6095 63.7908,28.9275 C69.1078,34.2545 72.0428,41.3255 72.0428,48.8535 C72.0428,49.2045 71.7558,49.4915 71.4048,49.4915" id="Fill-6" fill="#FFFFFF"></path>
                <path d="M65.5777,49.4915 C65.2267,49.4915 64.9397,49.2045 64.9397,48.8535 C64.9397,37.2415 55.4967,27.7885 43.8857,27.7885 C43.5347,27.7885 43.2477,27.5015 43.2477,27.1505 C43.2477,26.8005 43.5347,26.5125 43.8857,26.5125 C56.1987,26.5125 66.2157,36.5405 66.2157,48.8535 C66.2157,49.2045 65.9287,49.4915 65.5777,49.4915" id="Fill-8" fill="#FFFFFF"></path>
                <path d="M59.7398,49.4915 C59.3888,49.4915 59.1018,49.2045 59.1018,48.8535 C59.1018,40.4535 52.2758,33.6265 43.8858,33.6265 C43.5348,33.6265 43.2478,33.3395 43.2478,32.9885 C43.2478,32.6375 43.5348,32.3505 43.8858,32.3505 C52.9768,32.3505 60.3778,39.7515 60.3778,48.8535 C60.3778,49.2045 60.0908,49.4915 59.7398,49.4915" id="Fill-10" fill="#FFFFFF"></path>
                <path d="M53.9024,49.4915 C53.5514,49.4915 53.2644,49.2045 53.2644,48.8535 C53.2644,43.6755 49.0534,39.4535 43.8754,39.4535 C43.5244,39.4535 43.2364,39.1665 43.2364,38.8155 C43.2364,38.4655 43.5244,38.1785 43.8754,38.1785 C49.7554,38.1785 54.5404,42.9625 54.5404,48.8535 C54.5404,49.2045 54.2534,49.4915 53.9024,49.4915" id="Fill-12" fill="#FFFFFF"></path>
            </g>
        </g>
    </g>
</svg>