<?xml version="1.0" encoding="UTF-8"?>
<svg width="100px" height="100px" viewBox="0 0 100 100" version="1.1" xmlns="http://www.w3.org/2000/svg" xmlns:xlink="http://www.w3.org/1999/xlink">
    <!-- Generator: Sketch 53.2 (72643) - https://sketchapp.com -->
    <title>canales</title>
    <desc>Created with Sketch.</desc>
    <g id="Desktop" stroke="none" stroke-width="1" fill="none" fill-rule="evenodd">
        <g id="Chatbots" transform="translate(-1030.000000, -1034.000000)">
            <g id="canales" transform="translate(1030.000000, 1034.000000)">
                <g id="Group-5">
                    <circle id="Oval-Copy-3" fill="#3D3193" cx="50" cy="50" r="50"></circle>
                    <g id="channels" transform="translate(21.000000, 18.000000)" fill="#FFFFFF">
                        <path d="M56.8148148,47.5 C55.3580247,49.9285714 52.1530864,50.7857143 49.6765432,49.4285714 C47.2,48 46.3259259,44.8571429 47.7098765,42.4285714 C48.4382716,41.2142857 49.5308642,40.3571429 50.9148148,40 C51.3518519,39.8571429 51.8617284,39.7857143 52.2987654,39.7857143 C53.1728395,39.7857143 54.1197531,40 54.9209877,40.5 C56.1592593,41.2142857 57.0333333,42.2857143 57.3975309,43.6428571 C57.6888889,44.9285714 57.4703704,46.2857143 56.8148148,47.5 M32.7777778,44 C29.5728395,44.8571429 26.1493827,44.4285714 23.308642,42.7857143 C17.3358025,39.4285714 15.2234568,31.9285714 18.7197531,26 C20.3950617,23.1428571 23.0901235,21.1428571 26.2950617,20.2857143 C27.3876543,20 28.4802469,19.9285714 29.5,19.9285714 L29.5,20 L29.5,19.9285714 L29.5728395,19.9285714 C31.7580247,19.9285714 33.8703704,20.5 35.7641975,21.5714286 C38.6777778,23.2142857 40.717284,25.8571429 41.591358,29 C42.4654321,32.1428571 42.0283951,35.5 40.3530864,38.2857143 C38.6777778,41.0714286 35.982716,43.1428571 32.7777778,44 M34.817284,57.8571429 C34.817284,60.7142857 32.4864198,62.8571429 29.5728395,62.8571429 C28.1888889,62.8571429 26.8777778,62.4285714 25.8580247,61.4285714 C24.8382716,60.4285714 24.3283951,59.2857143 24.3283951,57.9285714 C24.3283951,55.0714286 26.6592593,52.8571429 29.5728395,52.8571429 C32.4135802,52.8571429 34.817284,55 34.817284,57.8571429 M8.15802469,24.2857143 C6.77407407,24.6428571 5.39012346,24.5 4.15185185,23.7857143 C2.91358025,23.0714286 2.03950617,22 1.67530864,20.6428571 C1.31111111,19.2857143 1.45679012,17.9285714 2.18518519,16.7142857 C2.91358025,15.5 4.00617284,14.6428571 5.39012346,14.2857143 C5.82716049,14.1428571 6.33703704,14.0714286 6.77407407,14.0714286 C7.64814815,14.0714286 8.59506173,14.2857143 9.3962963,14.7857143 C10.6345679,15.5 11.508642,16.5714286 11.8728395,17.9285714 C12.237037,19.2857143 12.091358,20.6428571 11.362963,21.8571429 C10.6345679,23.0714286 9.4691358,23.9285714 8.15802469,24.2857143 M24.182716,6.42857143 C24.182716,5.07142857 24.6925926,3.85714286 25.7123457,2.85714286 C26.7320988,1.85714286 28.0432099,1.42857143 29.4271605,1.42857143 C32.3407407,1.42857143 34.6716049,3.64285714 34.6716049,6.5 C34.6716049,7.85714286 34.1617284,9.07142857 33.1419753,10 C32.1222222,11 30.8111111,11.4285714 29.4271605,11.4285714 C28.0432099,11.4285714 26.7320988,11 25.7123457,10 C24.7654321,9.07142857 24.182716,7.85714286 24.182716,6.42857143 M9.4691358,49.5 C8.2308642,50.2142857 6.84691358,50.3571429 5.46296296,50 C4.07901235,49.6428571 2.98641975,48.7857143 2.25802469,47.5714286 C1.52962963,46.3571429 1.38395062,45 1.74814815,43.6428571 C2.11234568,42.2857143 2.98641975,41.2142857 4.22469136,40.5 C5.02592593,40 5.97283951,39.7857143 6.84691358,39.7857143 C8.66790123,39.7857143 10.4160494,40.7142857 11.4358025,42.3571429 C12.8197531,44.9285714 11.945679,48.0714286 9.4691358,49.5 M49.5308642,14.7857143 C50.3320988,14.2857143 51.2790123,14.0714286 52.1530864,14.0714286 C53.9740741,14.0714286 55.7222222,15 56.6691358,16.6428571 C58.1259259,19.0714286 57.2518519,22.2857143 54.7753086,23.7142857 C52.2987654,25.1428571 49.0209877,24.2857143 47.5641975,21.8571429 C46.1802469,19.3571429 47.054321,16.2142857 49.5308642,14.7857143 M58.708642,43.2142857 C58.2716049,41.5 57.1061728,40.0714286 55.5765432,39.2142857 C54.0469136,38.3571429 52.2259259,38.1428571 50.4777778,38.5714286 C49.0209877,39 47.7098765,39.8571429 46.8358025,41.0714286 L41.9555556,38.3571429 C43.5580247,35.3571429 43.9222222,31.9285714 42.9753086,28.5714286 C42.6839506,27.6428571 42.3925926,26.7142857 41.882716,25.9285714 L46.6901235,23.1428571 C48.0012346,24.8571429 50.0407407,25.8571429 52.0802469,25.8571429 C53.245679,25.8571429 54.4111111,25.5714286 55.4308642,25 C58.6358025,23.2142857 59.7283951,19.1428571 57.8345679,16 C55.9407407,12.8571429 51.8617284,11.7857143 48.6567901,13.6428571 C47.1271605,14.5 46.0345679,15.9285714 45.5246914,17.6428571 C45.1604938,19.1428571 45.2333333,20.6428571 45.8888889,22 L41.0814815,24.7857143 C39.9160494,23 38.3135802,21.5 36.3469136,20.3571429 C34.3802469,19.2857143 32.2679012,18.6428571 30.082716,18.5714286 L30.082716,13.0714286 C31.6123457,12.9285714 32.9962963,12.2857143 34.0888889,11.1428571 C35.3271605,9.92857143 36.0555556,8.28571429 36.0555556,6.57142857 C36.1283951,2.85714286 33.1419753,-4.26325641e-14 29.4271605,-4.26325641e-14 C27.6061728,-4.26325641e-14 25.9308642,0.642857143 24.6925926,1.85714286 C23.454321,3.07142857 22.7259259,4.71428571 22.7259259,6.5 C22.7259259,9.85714286 25.3481481,12.6428571 28.6987654,13 L28.6987654,18.5 C27.7518519,18.5714286 26.7320988,18.7142857 25.7851852,18.9285714 C22.4345679,19.7857143 19.5938272,21.8571429 17.7,24.7142857 L12.8197531,22 C13.4024691,20.6428571 13.5481481,19.1428571 13.1839506,17.6428571 C12.7469136,15.9285714 11.5814815,14.5 10.0518519,13.6428571 C8.52222222,12.7857143 6.70123457,12.5714286 4.95308642,13 C3.20493827,13.4285714 1.74814815,14.5714286 0.874074074,16.0714286 C7.29282204e-13,17.5714286 -0.218518519,19.3571429 0.218518519,21.0714286 C0.655555556,22.7857143 1.82098765,24.2142857 3.35061728,25.0714286 C4.37037037,25.6428571 5.53580247,25.9285714 6.70123457,25.9285714 C7.28395062,25.9285714 7.86666667,25.8571429 8.44938272,25.7142857 C9.97901235,25.2857143 11.217284,24.4285714 12.091358,23.2142857 L16.9716049,25.9285714 C14.8592593,29.9285714 15.0049383,34.5714286 16.9716049,38.3571429 L12.1641975,41.1428571 C10.1975309,38.5 6.40987654,37.6428571 3.42345679,39.3571429 C0.218518519,41.1428571 -0.874074074,45.2142857 1.01975309,48.3571429 C1.89382716,49.8571429 3.35061728,50.9285714 5.09876543,51.4285714 C5.68148148,51.5714286 6.26419753,51.6428571 6.84691358,51.6428571 C8.01234568,51.6428571 9.17777778,51.3571429 10.1975309,50.7857143 C13.1839506,49.0714286 14.3493827,45.4285714 12.9654321,42.4285714 L17.7728395,39.6428571 C18.9382716,41.4285714 20.5407407,42.9285714 22.5074074,44.0714286 C24.4740741,45.1428571 26.5864198,45.7857143 28.7716049,45.8571429 L28.7716049,51.3571429 C25.4209877,51.7142857 22.7987654,54.5 22.7987654,57.9285714 C22.7987654,59.7142857 23.5271605,61.2857143 24.7654321,62.5 C26.0037037,63.7142857 27.6790123,64.3571429 29.5,64.3571429 C33.2148148,64.3571429 36.2012346,61.4285714 36.2012346,57.8571429 C36.2012346,54.5 33.5790123,51.7142857 30.2283951,51.3571429 L30.2283951,45.9285714 C31.1753086,45.8571429 32.1950617,45.7142857 33.1419753,45.5 C36.4925926,44.5714286 39.3333333,42.5714286 41.2271605,39.7142857 L46.1074074,42.4285714 C44.7234568,45.4285714 45.8888889,49.0714286 48.8753086,50.7857143 C49.8950617,51.3571429 51.0604938,51.6428571 52.2259259,51.6428571 C54.5567901,51.6428571 56.8148148,50.4285714 58.0530864,48.3571429 C58.9271605,46.7142857 59.145679,44.9285714 58.708642,43.2142857" id="Fill-1"></path>
                    </g>
                </g>
            </g>
        </g>
    </g>
</svg>