<svg xmlns="http://www.w3.org/2000/svg" width="96" height="96" viewBox="0 0 96 96">
    <g fill="none" fill-rule="evenodd">
        <circle cx="48" cy="48" r="48" fill="#FFF"/>
        <path fill="red" d="M63 70c-2.757 0-5-2.243-5-5s2.243-5 5-5 5 2.243 5 5-2.243 5-5 5M34 53.5c-2.757 0-5-2.243-5-5s2.243-5 5-5 5 2.243 5 5-2.243 5-5 5M63 27c2.757 0 5 2.243 5 5s-2.243 5-5 5-5-2.243-5-5 2.243-5 5-5m0 31c-2.01 0-3.929.875-5.265 2.402l-.268.308-16.94-9.658.126-.387c.231-.706.347-1.434.347-2.165 0-.732-.117-1.461-.348-2.166l-.127-.387 16.942-9.657.268.307C59.071 38.124 60.99 39 63 39c3.859 0 7-3.14 7-7s-3.141-7-7-7-7 3.14-7 7c0 .732.117 1.461.348 2.166l.127.388-16.941 9.657-.268-.307C37.93 42.376 36.011 41.5 34 41.5c-3.859 0-7 3.14-7 7s3.141 7 7 7c2.011 0 3.931-.876 5.267-2.404l.268-.308 16.939 9.657-.126.388C56.117 63.538 56 64.267 56 65c0 3.86 3.141 7 7 7s7-3.14 7-7-3.141-7-7-7"/>
    </g>
</svg>
