<svg xmlns="http://www.w3.org/2000/svg" width="25" height="25" viewBox="0 0 25 25">
    <path fill="#000" fill-rule="nonzero" d="M.56 24.095c.345.345.776.517 1.207.517.431 0 .862-.172 1.207-.517l9.354-9.31 9.353 9.353c.345.345.776.517 1.207.517.431 0 .862-.172 1.207-.517.69-.69.69-1.767 0-2.457l-9.31-9.353 9.353-9.354c.69-.69.69-1.767 0-2.457a1.717 1.717 0 0 0-2.457 0l-9.353 9.354L2.974.56a1.717 1.717 0 0 0-2.457 0c-.69.689-.69 1.767 0 2.456l9.354 9.31-9.31 9.354a1.667 1.667 0 0 0 0 2.414z"/>
</svg>
