<svg xmlns="http://www.w3.org/2000/svg" width="206" height="54" viewBox="0 0 206 54">
    <g fill="none" fill-rule="nonzero">
        <path fill="#C62222" d="M27.413.263c1.455 0 2.648 1.08 2.648 2.422 0 1.139-.873 2.102-2.037 2.365-.204.058-.408.058-.64.058-.233 0-.437-.03-.64-.058-1.165-.263-2.038-1.226-2.038-2.365.03-1.342 1.223-2.422 2.707-2.422z"/>
        <path fill="#661A1A" d="M30.06 3.97V2.685v.263c0 .058 0 .088-.028.146 0 .03 0 .058-.03.088 0 .029-.028.087-.028.116 0 .03-.03.059-.03.088 0 .03-.029.058-.029.117 0 .029-.029.058-.029.087 0 .03-.029.059-.058.117 0 .03-.03.058-.03.088-.028.029-.028.058-.057.087 0 .03-.03.059-.058.088-.03.029-.03.058-.059.087-.029.03-.029.059-.058.059 0 .029-.029.029-.058.058a1.46 1.46 0 0 1-.204.234c-.087.058-.145.146-.233.204-.029 0-.029.03-.058.03l-.262.174c-.029 0-.029.03-.058.03-.087.058-.174.087-.262.116-.145.059-.29.117-.465.146-.204.058-.408.058-.64.058-.233 0-.437-.029-.64-.058-1.165-.263-2.038-1.226-2.038-2.364v1.284c0 1.138.873 2.102 2.037 2.364.204.059.408.059.64.059.233 0 .437-.03.64-.059.146-.029.292-.087.437-.146h.03c.087-.029.174-.087.261-.116.03 0 .03-.03.058-.03l.262-.175h.03l.028-.029c.088-.058.175-.117.233-.204.058-.058.146-.146.204-.234l.029-.029s0-.029.03-.029c.028-.03.028-.058.057-.058.03-.03.03-.059.059-.088.029-.03.029-.058.058-.088.029-.029.029-.058.058-.087 0-.03.029-.058.029-.088.03-.029.03-.058.058-.116 0-.03.03-.059.03-.088 0-.03.028-.058.028-.117 0-.029.03-.058.03-.087 0-.03.029-.088.029-.117 0-.03 0-.058.029-.088 0-.029 0-.087.029-.146v-.058M30.06 9.837"/>
        <path fill="#848385" d="M26.772 5.05c.204.058.408.058.64.058.234 0 .437-.03.64-.058l.728 4.7h-2.706l.698-4.7z"/>
        <path fill="#4A4A4B" d="M26.045 9.778h2.706"/>
        <g transform="translate(0 9.632)">
            <path fill="#1C676A" d="M16.907 2.919h21.011v1H16.907z"/>
            <path fill="#32B7BC" d="M35.648.146c1.251 0 2.27.934 2.27 2.102v.7h-21.01v-.7c0-1.139 1.018-2.102 2.27-2.102h16.47z"/>
            <path fill="#117272" d="M12.455 17.076c.146-.117.32-.205.524-.292"/>
            <ellipse cx="14.521" cy="18.01" fill="#EBEBEB" rx="1" ry="1"/>
            <path fill="#17161A" d="M41.73 16.609c1.251 0 2.27.934 2.27 2.101v3.94c0 1.14-1.019 2.102-2.27 2.102-1.251 0-2.27-.934-2.27-2.101v-3.94c0-1.168 1.019-2.102 2.27-2.102zm.64 2.189c.495 0 .873-.35.873-.817 0-.467-.407-.818-.873-.818-.494 0-.873.35-.873.818 0 .467.379.817.873.817z"/>
            <ellipse cx="42.37" cy="18.01" fill="#EBEBEB" rx="1" ry="1"/>
            <path fill="#17161A" d="M13.881 16.609c1.251 0 2.27.934 2.27 2.101v3.94c0 1.14-1.019 2.102-2.27 2.102-1.251 0-2.27-.934-2.27-2.101v-3.94c0-1.168 1.019-2.102 2.27-2.102zm.64 2.189c.495 0 .873-.35.873-.817 0-.467-.407-.818-.873-.818-.495 0-.873.35-.873.818 0 .467.378.817.873.817z"/>
            <g fill="#32B7BC">
                <path d="M5.238.263v19.265H2.503c-1.252 0-2.27-.934-2.27-2.102V2.336c0-1.14 1.018-2.102 2.27-2.102h2.735v.029z"/>
                <path d="M5.267 19.557H2.474c-1.28 0-2.328-.963-2.328-2.131V2.336C.146 1.167 1.193.203 2.474.203h2.793v19.353zM2.474.292C1.25.292.233 1.197.233 2.335v15.09c0 1.14.99 2.044 2.24 2.044H5.18V.292H2.474z"/>
            </g>
            <path fill="#1C676A" d="M2.474 29.16c-1.252 0-2.27-.934-2.27-2.102v7.152c0 1.138 1.018 2.101 2.27 2.101h2.764V29.16H2.474z"/>
            <path fill="#36C7CC" d="M45.862 2.86H8.934c-2.066 0-3.754 1.548-3.754 3.445v27.554c0 1.898 1.688 3.445 3.754 3.445h36.928c2.067 0 3.754-1.547 3.754-3.445V6.305c-.029-1.897-1.687-3.444-3.754-3.444zM11.64 22.65v-3.94c0-1.138.99-2.043 2.241-2.043 1.222 0 2.24.905 2.24 2.043v3.94c0 1.14-.989 2.044-2.24 2.044-1.222 0-2.24-.934-2.24-2.043zm27.879 0v-3.94c0-1.138.989-2.043 2.24-2.043 1.222 0 2.241.905 2.241 2.043v3.94c0 1.14-.99 2.044-2.24 2.044-1.252 0-2.241-.934-2.241-2.043z"/>
            <path fill="#116D6D" d="M49.53 34.18v.088c0 .088-.03.146-.03.204 0 .03 0 .059-.03.088-.028.088-.028.146-.057.234 0 .029 0 .058-.03.058-.029.087-.058.175-.116.292 0 .029-.029.029-.029.058-.029.059-.058.146-.116.204-.03.03-.03.059-.059.088-.029.058-.087.117-.116.175-.029.03-.029.059-.058.088-.058.087-.117.146-.175.233l-.029.03-.174.175-.059.058a1.267 1.267 0 0 1-.203.175l-.03.03-.261.174c-.03 0-.059.03-.059.03-.058.029-.145.087-.232.116-.03 0-.03.03-.059.03a.87.87 0 0 1-.29.116.42.42 0 0 1-.204.059c-.058.029-.088.029-.146.058-.058.03-.145.03-.203.058-.059 0-.088.03-.146.03-.087.029-.175.029-.262.029-.029 0-.087 0-.116.029-.117 0-.262.03-.379.03H8.934c-2.037 0-3.696-1.519-3.696-3.387v7.152c0 1.868 1.659 3.386 3.696 3.386h36.928c.117 0 .262 0 .379-.03.029 0 .087 0 .116-.029.087 0 .175-.029.262-.029.058 0 .087-.03.146-.03.058-.028.145-.028.203-.058.058-.029.088-.029.146-.058.058-.03.145-.03.203-.058h.03c.087-.03.174-.088.261-.117.03 0 .03-.03.059-.03.087-.028.145-.087.232-.116.03 0 .059-.03.059-.03.087-.058.174-.116.232-.174l.03-.03c.058-.058.145-.116.203-.175l.058-.058.175-.175.03-.03c.057-.058.116-.116.174-.204l.029-.029c.029-.03.029-.058.058-.087.03-.059.087-.117.116-.176.03-.029.03-.058.059-.087.029-.059.087-.146.116-.204 0-.03.03-.03.03-.059.028-.087.086-.175.116-.292 0-.029 0-.058.029-.058.029-.088.058-.146.058-.234 0-.029.029-.058.029-.087.03-.059.03-.146.03-.205v-.087c0-.117.028-.204.028-.321v-7.152c0 .117 0 .234-.029.322z"/>
        </g>
        <g fill="#32B7BC">
            <path d="M52.614 19.528c1.251 0 2.27.934 2.27 2.101V36.72c0 1.138-1.019 2.102-2.27 2.102h-3.085V19.557h3.085v-.03z"/>
            <path d="M52.614 38.822H49.5V19.469h3.114c1.28 0 2.328.963 2.328 2.131v15.09c.029 1.168-1.019 2.132-2.328 2.132zm-3.027-.088h3.027c1.222 0 2.24-.905 2.24-2.043V21.6c0-1.138-.989-2.043-2.24-2.043h-3.027v19.177z"/>
        </g>
        <path fill="#1C676A" d="M54.884 36.866v.058c0 .059 0 .088-.03.146v.059c0 .058-.029.087-.029.146v.058c-.029.058-.058.117-.058.175 0 0 0 .03-.029.03a.222.222 0 0 0-.058.116c0 .03-.03.03-.03.058-.028.03-.057.088-.087.117 0 .03-.029.03-.029.059 0 .029-.029.029-.058.058-.058.058-.087.117-.145.146l-.059.058c-.058.059-.116.117-.203.175 0 0-.03 0-.03.03a.469.469 0 0 1-.203.116c-.03 0-.058.03-.058.03-.058.029-.117.058-.204.087-.029 0-.029.03-.058.03-.03.028-.087.028-.117.028-.029 0-.058.03-.087.03-.029 0-.087.029-.145.029-.03 0-.059.03-.088.03-.058 0-.087.028-.145.028h-3.405v7.152H52.934c.058 0 .116 0 .145-.03.03 0 .059 0 .088-.029.058 0 .087-.029.145-.029.03 0 .058-.03.087-.03.03 0 .088-.028.117-.028h.029s.03 0 .03-.03c.057-.029.145-.058.203-.087.029 0 .058-.03.058-.03.058-.028.145-.087.204-.116 0 0 .029 0 .029-.03.058-.058.145-.116.203-.174l.059-.059c.058-.058.087-.117.145-.146l.03-.029s0-.03.028-.03c0-.028.03-.028.03-.057.029-.03.058-.088.087-.117 0-.03.029-.03.029-.059a.222.222 0 0 0 .058-.116s0-.03.03-.03a.416.416 0 0 0 .057-.175v-.058c.03-.058.03-.088.03-.146v-.058c0-.059.029-.088.029-.146v-.059V36.662c.029.087.029.146 0 .204z"/>
        <g fill="#2F3744">
            <path d="M62.865 51.493c-.433-.922-.692-1.873-.75-2.852-.115-2.507-.086-4.985.692-7.405a7.89 7.89 0 0 1 .433-1.153c.807-1.729 2.162-2.68 3.979-2.852 1.297-.116 2.48.316 3.43 1.296.174.173.289.404.375.605.087.317.116.663-.115.922-.26.26-.577.26-.894.087-.403-.173-.778-.375-1.182-.548-.778-.317-1.73-.46-2.335.288-.779.951-.894 2.305-.923 3.487l-.029 1.095c-.028 1.268.03 2.506.289 3.745.144.663.317 1.355.692 1.931.374.576.778.663 1.297.288a4.386 4.386 0 0 0 1.125-1.066c.576-.778 1.037-1.642 1.556-2.478.202-.317.635-1.066 1.125-.576.26.26.058.807-.087 1.095-.951 1.7-1.816 3.601-3.229 4.956a3.488 3.488 0 0 1-2.249.98c-1.47.143-2.595-.49-3.2-1.845zM79.328 50.629a67.42 67.42 0 0 1-.26-3.4c-.057-.461.058-1.643-.432-1.93-.75-.404-1.99 1.815-2.22 2.333-.432 1.009-.577 2.161-.605 3.256 0 .807.26 1.96-.721 2.219-1.01.26-1.125-1.21-1.24-1.902-.317-2.19-.404-4.408-.49-6.598-.087-1.815-.26-3.66-.087-5.475.03-.115.03-.26.087-.346a.635.635 0 0 1 .461-.345c.807-.087.865 1.988.952 2.564.144 1.095.317 2.161.432 3.256.029.317.23 2.132.433 2.853.086-.087.201-.26.288-.461a8.94 8.94 0 0 1 1.182-1.758c.663-.778 1.816-1.642 2.883-1.066.317.173.548.46.721.807.663 1.296.836 2.766.865 4.206 0 .778-.029 1.499-.086 2.277-.03.634.028 1.47-.26 2.045-.23.461-.807.865-1.297.49-.635-.576-.548-2.16-.606-3.025zM83.22 50.024a8.969 8.969 0 0 1 .26-4.092c.634-2.276 3.143-4.264 5.478-3.457.865.288 1.5 1.066 1.874 1.901.404.893.548 1.873.52 2.853a8.15 8.15 0 0 1-.433 2.363c-.52 1.498-1.615 2.823-3.085 3.284-2.22.75-4.181-.518-4.614-2.852zm7.007-2.219c.201-1.152-.087-3.371-1.557-3.429-.779-.029-1.5.375-1.99.98-.663.836-.951 1.93-1.009 3.025-.057.75.144 1.614.663 2.133 1.701 1.7 3.633-1.095 3.893-2.709zM94.32 52.732c-.98-.72-1.325-1.93-1.47-3.083-.086-1.066-.086-2.132.087-3.198.115-.98.346-1.988.951-2.795.635-.836 1.817-1.354 2.855-1.21.836.144 2.277 1.008 2.22 1.988-.058.432-.433.634-.808.46-.173-.086-.346-.258-.519-.374-.201-.115-.374-.23-.576-.317-.346-.115-.606-.028-.779.317-.317.663-.26 1.585-.288 2.334l-.029.634c-.029.663 0 1.326.087 1.988.029.317.086.634.173.98.057.202.086.576.317.634.115.057.26-.029.404-.087.75-.46 1.297-1.181 1.931-1.815.317-.346.663-.46.865-.288.404.375-.086 1.008-.346 1.297-.317.374-.605.778-.951 1.123-.635.72-1.47 1.527-2.45 1.73-.578.2-1.183.028-1.673-.318zM101.529 50.024a8.969 8.969 0 0 1 .26-4.092c.634-2.276 3.142-4.264 5.477-3.457.865.288 1.5 1.066 1.875 1.901.403.893.547 1.873.518 2.853a8.15 8.15 0 0 1-.432 2.363c-.519 1.498-1.615 2.823-3.085 3.284-2.22.75-4.21-.518-4.613-2.852zm7.006-2.219c.202-1.152-.086-3.371-1.557-3.429-.778-.029-1.5.375-1.99.98-.662.836-.95 1.93-1.008 3.025-.058.75.144 1.614.663 2.133 1.672 1.7 3.604-1.095 3.892-2.709zM115.31 51.32c.145.26.087.634-.057.951-.202.605-.692.893-1.413.951h-.086c-1.355 0-1.644-1.642-1.73-2.276a81.765 81.765 0 0 1-.779-7.55 42.211 42.211 0 0 1-.115-3.86c.029-.577.086-1.124.144-1.585.087-.634.52-.75.923-.778.461-.058.75.202.865.72.086.26.086.548.144.778l.663 6.166.115 1.441c.087.778.173 1.642.26 2.45l.057.604c.087.548.116 1.066.26 1.556.317.058.605.173.75.432zM123.441 52.444c-.49-1.297-.692-2.795-.778-4.178-.03-.317-.087-.605-.173-1.124-.173.375-.26.577-.346.778-.289.778-.606 1.527-.923 2.277-.432 1.008-1.095 2.16-2.076 2.68-.605.345-1.614.49-2.133-.116-.346-.375-.433-.95-.49-1.44a11.741 11.741 0 0 1-.116-1.758c.029-1.383.23-2.795.692-4.092.404-1.124 1.038-2.16 2.336-2.305.836-.086 1.557.26 2.162.836.173.144.26.374.49.518.087.058.202 0 .23-.086l.29-.663c.172-.49 1.297-.72 1.643-.173.46.663.576 1.556.692 2.363.115.95.173 1.93.201 2.881 0 .807.03 1.643 0 2.478-.028.577.058 1.441-.605 1.643-.461.173-.923-.058-1.096-.519zm-3.575-2.852c.634-.923 1.47-2.651 1.643-3.516 0-.057 0-.086-.057-.144-.404-.46-.779-.95-1.326-1.296-.26-.144-.49-.202-.721-.03-.433.347-.577.923-.692 1.441-.26 1.21-.23 2.478-.087 3.689.03.23.087.432.144.662.058.116.173.173.26.087.404-.26.605-.577.836-.893zM128.89 52.847c-.23-.864-.432-1.728-.547-2.593-.202-1.383-.433-2.766-.577-4.149-.115-1.152-.144-2.305-.23-3.458 0-.057 0-.605-.058-.633-.375-.058-.75-.087-1.096-.173-.26-.03-.49-.116-.519-.433-.029-.316-.086-.662.26-.835.26-.115.49-.173.75-.23.086 0 .691-.058.691-.087l.173-.72c.144-.461.692-.807 1.182-.663.145.058.317.23.375.374.115.26.144.548.23.865l.635.086c.606.058 1.269.087 1.874.173.433.058.635.317.606.778-.03.432-.202.634-.606.692-.202.028-2.191.144-2.191.23-.029 1.21.836 9.22 1.124 9.624.433 0 1.211-.144 1.125.576-.087.75-1.067 1.24-1.701 1.44-.75.203-1.269-.086-1.5-.864zM135.493 52.847c-1.413-.749-2.047-2.449-2.076-3.976v-.086c0-1.556.404-3.43 1.528-4.61.606-.606 1.355-.922 2.191-1.009.865-.086 1.788.519 2.076 1.354.26.692.202 1.412-.086 2.075-.26.663-.72 1.239-1.24 1.671-.404.317-.836.576-1.297.836-.317.201-.433.345-.26.72.289.576.779 1.527 1.528 1.325.404-.086.663-.403.952-.662.288-.26.605-.605.836-.922.202-.23.778-1.009 1.124-.692.231.23.087.634 0 .893-.086.375-.317.692-.519 1.009-.26.403-.547.778-.865 1.124-.317.317-.634.691-1.038.922-.75.432-1.672.49-2.508.201-.058-.028-.202-.115-.346-.173zm1.96-5.59c.318-.316.693-.777.75-1.238.058-.375-.202-.778-.548-.865-.259-.057-.519.087-.72.26-.346.317-.52.778-.663 1.21-.058.23-.087.46-.116.72l.029.692a3.869 3.869 0 0 0 1.269-.778z"/>
        </g>
        <path fill="#15191E" d="M79.103 17.757c-.797.97-1.964 1.087-3.131.117-1.196-1.086-2.647-1.644-4.355-1.644-1.623 0-3.046.616-4.27 1.82-1.195 1.176-1.821 2.82-1.821 4.906 0 2.085.626 3.76 1.821 4.993 1.196 1.205 2.704 1.821 4.526 1.821 1.68 0 3.16-.558 4.44-1.674 1.139-.94 2.334-.822 3.131.118.826.88.74 2.232-.313 3.201C77.252 33.148 74.861 34 71.987 34c-3.16 0-5.778-.999-7.885-3.025-2.077-1.998-3.102-4.67-3.102-7.93 0-3.32 1.025-5.993 3.102-7.99C66.18 13.028 68.742 12 71.816 12c2.676 0 5.01.852 6.973 2.555 1.054.97 1.139 2.32.314 3.202zM84 15.336c0-1.453.94-2.336 2.261-2.336 1.321 0 2.261.883 2.261 2.336v5.927h8.956v-5.927c0-1.453.94-2.336 2.261-2.336 1.321 0 2.261.883 2.261 2.336v16.328c0 1.453-.94 2.336-2.261 2.336-1.321 0-2.261-.883-2.261-2.336V25.28h-8.956v6.383c0 1.453-.94 2.336-2.261 2.336C84.94 34 84 33.117 84 31.664V15.336zM112.608 14.97c.524-1.342 1.486-1.97 2.855-1.97 1.428 0 2.39.657 2.884 1.942l6.469 16.164c.524 1.314-.117 2.399-1.34 2.77-1.312.371-2.244-.086-2.798-1.456l-1.107-2.656h-8.187l-1.078 2.656c-.525 1.342-1.632 1.799-2.797 1.456-1.195-.371-1.836-1.485-1.34-2.77l6.439-16.135zm2.884 4.113l-2.622 6.768h5.244l-2.622-6.768zM139.818 13c1.35 0 2.182.863 2.182 2.042 0 1.151-.833 2.014-2.182 2.014h-4.107v14.585c0 1.467-.947 2.359-2.24 2.359-1.292 0-2.21-.892-2.21-2.359V17.056h-4.079c-1.35 0-2.182-.863-2.182-2.014 0-1.179.833-2.042 2.182-2.042h12.636z"/>
        <path fill="#36C7CC" d="M145 15.839c0-1.796 1.03-2.839 2.805-2.839h6.525c4.379 0 7.183 2.028 7.183 5.793 0 1.71-.715 3.157-2.146 4.258 1.746 1.275 2.633 2.839 2.633 4.808 0 1.825-.658 3.331-1.975 4.461-1.316 1.1-3.033 1.68-5.18 1.68h-7.04C146.03 34 145 32.957 145 31.161V15.84zm4.407 1.245v4.287h4.207c2.29 0 3.435-.724 3.435-2.172 0-1.593-1.03-2.144-3.606-2.144h-4.036v.03zm0 12.803h4.408c2.461 0 3.749-.666 3.749-2.433 0-1.535-1.202-2.317-3.606-2.317h-4.55v4.75zM169.172 15.143c2.086-2.086 4.73-3.143 7.784-3.143 3.113 0 5.728 1.028 7.842 3.143 2.145 2.056 3.202 4.7 3.202 7.842 0 3.202-1.057 5.816-3.202 7.902-2.144 2.056-4.758 3.113-7.842 3.113-3.084 0-5.698-1.028-7.784-3.113-2.085-2.086-3.172-4.73-3.172-7.902 0-3.172 1.087-5.786 3.172-7.842zm3.231 12.66c1.146 1.321 2.702 1.938 4.7 1.938 1.909 0 3.466-.646 4.582-1.939 1.145-1.321 1.733-2.878 1.733-4.817 0-1.85-.617-3.436-1.792-4.758s-2.673-1.968-4.523-1.968c-1.939 0-3.496.646-4.7 1.939-1.145 1.321-1.733 2.878-1.733 4.787 0 1.91.588 3.496 1.733 4.817zM203.818 13c1.35 0 2.182.863 2.182 2.042 0 1.151-.833 2.014-2.182 2.014h-4.107v14.585c0 1.467-.947 2.359-2.24 2.359-1.292 0-2.21-.892-2.21-2.359V17.056h-4.079c-1.35 0-2.182-.863-2.182-2.014 0-1.179.833-2.042 2.182-2.042h12.636z"/>
    </g>
</svg>
