<svg xmlns="http://www.w3.org/2000/svg" width="80" height="80" viewBox="0 0 80 80">
    <g fill="none" fill-rule="evenodd">
        <circle cx="40" cy="40" r="40" fill="#00DC87"/>
        <g fill="#FFF" fill-rule="nonzero">
            <path d="M24 36.372h10.4a.8.8 0 1 0 0-1.6H24a.8.8 0 1 0 0 1.6zM44.8 39.572H24a.8.8 0 1 0 0 1.6h20.8a.8.8 0 1 0 0-1.6zM44.8 44.372H24a.8.8 0 1 0 0 1.6h20.8a.8.8 0 1 0 0-1.6z"/>
            <path d="M59.258 18.028l-27.314-.056a4.75 4.75 0 0 0-4.744 4.744v4.1l-6.456.013A4.75 4.75 0 0 0 16 31.573v16.913a4.748 4.748 0 0 0 4.744 4.743H25.6v8a.8.8 0 0 0 1.392.538l7.763-8.54 13.301-.054A4.749 4.749 0 0 0 52.8 48.43v-.09l4.208 4.628a.801.801 0 0 0 1.392-.538v-8h.856A4.749 4.749 0 0 0 64 39.686V22.772a4.75 4.75 0 0 0-4.742-4.744zm-8.058 30.4a3.148 3.148 0 0 1-3.147 3.144l-13.656.056a.8.8 0 0 0-.589.262L27.2 59.16v-6.732a.8.8 0 0 0-.8-.8h-5.656a3.147 3.147 0 0 1-3.144-3.143V31.572a3.148 3.148 0 0 1 3.146-3.144L28 28.413h.002l20.054-.042a3.148 3.148 0 0 1 3.144 3.144v16.913zm11.2-8.743a3.147 3.147 0 0 1-3.144 3.143H57.6a.8.8 0 0 0-.8.8v6.731l-4-4.4V31.516a4.75 4.75 0 0 0-4.746-4.744l-19.254.04v-4.097a3.147 3.147 0 0 1 3.142-3.144l27.313.056h.002a3.148 3.148 0 0 1 3.144 3.144v16.914H62.4z"/>
        </g>
    </g>
</svg>
