<?xml version="1.0" encoding="UTF-8"?>
<svg width="93px" height="94px" viewBox="0 0 93 94" version="1.1" xmlns="http://www.w3.org/2000/svg" xmlns:xlink="http://www.w3.org/1999/xlink">
    <!-- Generator: sketchtool 53.2 (72643) - https://sketchapp.com -->
    <title>BC14C33E-A9D4-4CF7-AA40-DB779993CF54</title>
    <desc>Created with sketchtool.</desc>
    <defs>
        <polygon id="path-1" points="0 0.453 92.547 0.453 92.547 92.9998 0 92.9998"></polygon>
    </defs>
    <g id="Symbols" stroke="none" stroke-width="1" fill="none" fill-rule="evenodd">
        <g id="chat">
            <g id="Group-6">
                <g id="Group-3" transform="translate(0.000000, 0.547400)">
                    <mask id="mask-2" fill="white">
                        <use xlink:href="#path-1"></use>
                    </mask>
                    <g id="Clip-2"></g>
                    <path d="M92.5476,46.7268 C92.5476,21.1698 71.8296,0.4528 46.2736,0.4528 C20.7176,0.4528 -0.0004,21.1698 -0.0004,46.7268 C-0.0004,72.2828 20.7176,92.9998 46.2736,92.9998 C71.8296,92.9998 92.5476,72.2828 92.5476,46.7268" id="Fill-1" fill="#0096FF" mask="url(#mask-2)"></path>
                </g>
                <path d="M24.9495,28.1326 C23.7735,28.1326 22.8165,29.0896 22.8165,30.2666 L22.8165,50.4976 C22.8165,51.6746 23.7735,52.6316 24.9495,52.6316 L27.6975,52.6316 C28.0595,52.6316 28.3545,52.9266 28.3545,53.2896 L28.3545,56.4986 L28.8085,56.7036 L33.2465,52.7946 C33.3665,52.6906 33.5225,52.6316 33.6815,52.6316 L52.8555,52.6316 C54.0325,52.6316 54.9895,51.6746 54.9895,50.4976 L54.9895,30.2666 C54.9895,29.0896 54.0325,28.1326 52.8555,28.1326 L24.9495,28.1326 Z M37.8725,54.2196 L37.8725,60.9036 C37.8725,62.0806 38.8305,63.0376 40.0065,63.0376 L59.1815,63.0376 C59.3415,63.0376 59.4955,63.0966 59.6175,63.2026 L64.0535,67.1096 L64.5085,66.9036 L64.5085,63.6956 C64.5085,63.3326 64.8025,63.0376 65.1655,63.0376 L67.9125,63.0376 C69.0895,63.0376 70.0465,62.0806 70.0465,60.9036 L70.0465,40.6726 C70.0465,39.4956 69.0895,38.5386 67.9125,38.5386 L56.5765,38.5386 L56.3035,38.8126 L56.3035,50.4976 C56.3035,52.3996 54.7565,53.9456 52.8555,53.9456 L38.1465,53.9456 L37.8725,54.2196 Z M65.1625,69.6186 C65.0035,69.6186 64.8495,69.5606 64.7285,69.4546 L59.0095,64.4196 L58.8285,64.3516 L40.0065,64.3516 C38.1055,64.3516 36.5585,62.8056 36.5585,60.9036 L36.5585,54.2196 L36.2845,53.9456 L34.0325,53.9456 L33.8515,54.0146 L28.1325,59.0506 C28.0125,59.1546 27.8585,59.2126 27.6975,59.2126 C27.6025,59.2126 27.5125,59.1946 27.4275,59.1546 C27.1925,59.0486 27.0405,58.8136 27.0405,58.5566 L27.0405,54.2196 L26.7675,53.9456 L24.9495,53.9456 C23.0495,53.9456 21.5025,52.3996 21.5025,50.4976 L21.5025,30.2666 C21.5025,28.3646 23.0495,26.8196 24.9495,26.8196 L52.8555,26.8196 C54.7565,26.8196 56.3035,28.3646 56.3035,30.2666 L56.3035,36.9516 L56.5765,37.2256 L67.9125,37.2256 C68.8325,37.2256 69.6975,37.5846 70.3495,38.2376 C71.0005,38.8886 71.3585,39.7526 71.3585,40.6726 L71.3585,60.9036 C71.3585,62.8056 69.8115,64.3516 67.9105,64.3516 L66.0935,64.3516 L65.8195,64.6246 L65.8195,68.9626 C65.8195,69.2206 65.6685,69.4546 65.4335,69.5616 C65.3485,69.6006 65.2575,69.6186 65.1625,69.6186 L65.1625,69.6186 Z" id="Fill-4" fill="#FFFFFF"></path>
            </g>
        </g>
    </g>
</svg>