<?xml version="1.0" encoding="UTF-8"?>
<svg width="93px" height="94px" viewBox="0 0 93 94" version="1.1" xmlns="http://www.w3.org/2000/svg" xmlns:xlink="http://www.w3.org/1999/xlink">
    <!-- Generator: sketchtool 53.2 (72643) - https://sketchapp.com -->
    <title>164BCEEE-3D2D-4350-B119-907EEB26E673</title>
    <desc>Created with sketchtool.</desc>
    <defs>
        <polygon id="path-1" points="0.000170577359 0.452728002 92.5476294 0.452728002 92.5476294 93 0.000170577359 93"></polygon>
    </defs>
    <g id="Symbols" stroke="none" stroke-width="1" fill="none" fill-rule="evenodd">
        <g id="clientes">
            <g id="Group-6">
                <g id="Group-3" transform="translate(0.000000, 0.547900)">
                    <mask id="mask-2" fill="white">
                        <use xlink:href="#path-1"></use>
                    </mask>
                    <g id="Clip-2"></g>
                    <path d="M92.5344,47.821 C93.1394,22.272 72.9184,1.07 47.3694,0.466 C21.8204,-0.14 0.6174,20.082 0.0134,45.631 C-0.5916,71.179 19.6294,92.382 45.1784,92.987 C70.7274,93.592 91.9304,73.371 92.5344,47.821" id="Fill-1" fill="#6727E5" mask="url(#mask-2)"></path>
                </g>
                <path d="M69.8484,73.9744 L64.7654,73.9744 L60.1604,73.9744 L59.2004,73.9744 L58.3944,73.9744 L58.1464,73.9744 L58.1464,70.8394 C58.1464,69.6644 57.8874,68.6784 57.4904,67.8634 L59.5914,67.0394 L61.3944,68.7964 C61.5634,68.9604 61.7884,69.0524 62.0234,69.0524 L62.0364,69.0524 C62.2764,69.0484 62.5044,68.9494 62.6704,68.7774 L64.3744,67.0084 L67.7624,68.3674 C67.7784,68.3724 67.7864,68.3764 67.8034,68.3824 C67.8864,68.4124 69.8484,69.1394 69.8484,71.6484 L69.8484,73.9744 Z M56.9384,58.9734 L56.9384,60.2264 C56.7324,60.0934 56.5954,59.8634 56.5954,59.6004 C56.5954,59.3374 56.7324,59.1064 56.9384,58.9734 L56.9384,58.9734 Z M56.4424,66.3404 C55.6954,65.5414 54.8524,65.0574 54.2434,64.8474 L49.5884,62.9804 L49.5884,62.0574 C50.8654,61.3464 51.8374,60.1554 52.2604,58.7274 C53.8524,58.6834 55.1354,57.3744 55.1354,55.7724 C55.1354,54.8114 54.6744,53.9564 53.9624,53.4154 L53.9624,51.3064 C53.9624,50.1864 53.7104,49.1244 53.2604,48.1734 L61.2744,48.1734 C61.2634,48.7834 61.2394,49.3914 61.2044,49.9944 C58.1414,50.2974 55.7424,52.8884 55.7424,56.0294 L55.7424,57.6214 C55.1654,58.0884 54.7954,58.8014 54.7954,59.6004 C54.7954,60.9464 55.8454,62.0474 57.1684,62.1364 C57.5264,63.2354 58.2804,64.1554 59.2604,64.7304 L59.2604,65.2374 L56.4424,66.3404 Z M46.8594,60.9644 L45.8334,60.9644 C43.7204,60.9644 42.0004,59.2454 42.0004,57.1324 L42.0004,53.9544 C43.4364,53.8224 46.2774,53.3234 48.3514,51.4604 C48.7894,52.2894 49.5234,53.2514 50.6914,53.7504 L50.6914,57.1324 C50.6914,59.2454 48.9734,60.9644 46.8594,60.9644 L46.8594,60.9644 Z M47.7884,63.6034 L47.7884,63.6064 L47.7884,63.6614 L46.3134,65.1914 L44.9044,63.8194 L44.9044,62.6864 C45.2064,62.7374 45.5164,62.7644 45.8334,62.7644 L46.8594,62.7644 C47.1764,62.7644 47.4864,62.7374 47.7884,62.6864 L47.7884,63.6034 Z M35.7284,60.2064 L35.7284,58.9944 C35.9184,59.1284 36.0424,59.3504 36.0424,59.6004 C36.0424,59.8504 35.9184,60.0714 35.7284,60.2064 L35.7284,60.2064 Z M43.1044,62.9754 L38.3274,64.8454 C37.7194,65.0554 36.8774,65.5374 36.1304,66.3334 L33.4064,65.2424 L33.4064,64.7304 C34.3874,64.1554 35.1404,63.2344 35.4984,62.1354 C36.8084,62.0324 37.8424,60.9354 37.8424,59.6004 C37.8424,58.8054 37.4764,58.0964 36.9054,57.6284 L36.9054,56.0294 C36.9054,52.8544 34.4524,50.2434 31.3424,49.9864 C31.3084,49.3854 31.2844,48.7804 31.2734,48.1734 L39.4074,48.1734 C38.9574,49.1244 38.7044,50.1864 38.7044,51.3064 L38.7044,53.4064 C37.9864,53.9464 37.5204,54.8054 37.5204,55.7724 C37.5204,57.3874 38.8224,58.7034 40.4324,58.7284 C40.8544,60.1554 41.8274,61.3474 43.1044,62.0574 L43.1044,62.9754 Z M34.4214,70.8394 L34.4214,73.9744 L33.3664,73.9744 L28.7614,73.9744 L27.8014,73.9744 L26.9954,73.9744 L22.7194,73.9744 L22.7194,71.6484 C22.7194,69.1394 24.6804,68.4124 24.7564,68.3844 C24.7704,68.3794 24.7844,68.3744 24.7984,68.3704 L28.1924,67.0394 L29.9964,68.7964 C30.1644,68.9604 30.3904,69.0524 30.6244,69.0524 L30.6384,69.0524 C30.8784,69.0484 31.1064,68.9494 31.2724,68.7774 L32.9754,67.0084 L35.0814,67.8534 C34.6824,68.6704 34.4214,69.6604 34.4214,70.8394 L34.4214,70.8394 Z M25.5394,58.9734 L25.5394,60.2264 C25.3334,60.0934 25.1974,59.8634 25.1974,59.6004 C25.1974,59.3374 25.3334,59.1064 25.5394,58.9734 L25.5394,58.9734 Z M19.5904,48.1734 L29.4734,48.1734 C29.4844,48.7934 29.5084,49.4124 29.5424,50.0274 C26.6074,50.4494 24.3444,52.9794 24.3444,56.0294 L24.3444,57.6214 C23.7664,58.0884 23.3964,58.8014 23.3964,59.6004 C23.3964,60.9454 24.4474,62.0474 25.7704,62.1364 C26.1284,63.2344 26.8814,64.1554 27.8614,64.7294 L27.8614,65.2374 L26.8784,65.6214 C22.3744,60.8624 19.8064,54.7034 19.5904,48.1734 L19.5904,48.1734 Z M33.3604,54.6154 C33.2824,54.2704 33.0104,54.0024 32.6634,53.9314 C32.3164,53.8614 31.9604,53.9994 31.7534,54.2864 C30.1224,56.5404 26.4874,56.5654 26.4434,56.5654 L26.4404,56.5654 C26.4094,56.5654 26.3784,56.5664 26.3484,56.5704 C26.3384,56.5714 26.3294,56.5734 26.3204,56.5744 C26.2994,56.5774 26.2794,56.5784 26.2594,56.5824 C26.2464,56.5854 26.2334,56.5894 26.2214,56.5924 C26.2044,56.5974 26.1884,56.6004 26.1734,56.6054 C26.1634,56.6084 26.1544,56.6124 26.1444,56.6164 L26.1444,56.0294 C26.1444,53.6774 28.0574,51.7634 30.4104,51.7634 L30.8404,51.7634 C33.1924,51.7634 35.1054,53.6774 35.1054,56.0294 L35.1054,56.6084 L35.1044,56.6084 C35.0874,56.6034 35.0694,56.5984 35.0524,56.5944 C35.0444,56.5924 35.0364,56.5894 35.0284,56.5874 C33.7744,56.3024 33.3634,54.6274 33.3604,54.6154 L33.3604,54.6154 Z M31.0454,63.5724 L30.2234,63.5724 C28.6334,63.5724 27.3404,62.2784 27.3404,60.6874 L27.3404,58.3074 C28.5124,58.1804 30.5884,57.7704 32.1884,56.4334 C32.5474,57.0474 33.1014,57.7124 33.9294,58.1014 L33.9294,60.6874 C33.9294,62.2784 32.6354,63.5724 31.0454,63.5724 L31.0454,63.5724 Z M29.6614,65.3364 C29.8464,65.3594 30.0344,65.3714 30.2234,65.3714 L31.0454,65.3714 C31.2354,65.3714 31.4224,65.3594 31.6064,65.3364 L31.6064,65.8354 L30.6044,66.8754 L29.6614,65.9574 L29.6614,65.3364 Z M23.8624,32.7774 C25.8904,33.6064 28.3584,34.3054 31.1224,34.8554 C30.1124,38.4134 29.5464,42.3224 29.4734,46.3734 L19.5904,46.3734 C19.7574,41.3744 21.3044,36.7194 23.8624,32.7774 L23.8624,32.7774 Z M38.9054,21.6084 C37.1894,23.0184 35.6144,24.9324 34.2444,27.3084 C33.2264,29.0744 32.3604,31.0314 31.6564,33.1294 C29.1064,32.6324 26.8234,32.0034 24.9214,31.2614 C28.3694,26.6764 33.2564,23.2334 38.9054,21.6084 L38.9054,21.6084 Z M45.3734,20.6234 L45.3734,34.4314 C41.1554,34.3884 37.0794,34.0444 33.4454,33.4504 C34.0964,31.5614 34.8854,29.8014 35.8034,28.2074 C38.4224,23.6634 41.7924,21.0064 45.3734,20.6234 L45.3734,20.6234 Z M40.2004,54.6494 L40.2004,56.8944 C39.6964,56.7704 39.3204,56.3154 39.3204,55.7724 C39.3204,55.2294 39.6964,54.7744 40.2004,54.6494 L40.2004,54.6494 Z M31.2734,46.3734 C31.3474,42.4224 31.9054,38.6214 32.8984,35.1794 C36.7014,35.8194 40.9684,36.1874 45.3734,36.2314 L45.3734,43.9804 C43.4874,44.1574 41.8054,45.0474 40.6024,46.3794 C40.5694,46.3764 40.5364,46.3734 40.5024,46.3734 L31.2734,46.3734 Z M46.6034,45.7464 C49.6684,45.7464 52.1624,48.2414 52.1624,51.3064 L52.1624,52.4064 C52.1564,52.4014 52.1504,52.3974 52.1444,52.3924 C52.1314,52.3824 52.1184,52.3714 52.1044,52.3634 C52.0934,52.3554 52.0824,52.3484 52.0724,52.3414 C52.0584,52.3324 52.0454,52.3254 52.0314,52.3174 C52.0184,52.3094 52.0054,52.3034 51.9924,52.2964 C51.9794,52.2904 51.9674,52.2844 51.9534,52.2784 C51.9384,52.2714 51.9214,52.2654 51.9054,52.2594 C51.8944,52.2554 51.8834,52.2504 51.8714,52.2464 C51.8534,52.2414 51.8354,52.2364 51.8164,52.2314 C51.8084,52.2294 51.8004,52.2264 51.7914,52.2244 C50.0814,51.8354 49.5404,49.6064 49.5364,49.5864 C49.4574,49.2424 49.1844,48.9754 48.8384,48.9044 C48.4924,48.8324 48.1364,48.9714 47.9284,49.2584 C45.8214,52.1724 41.1654,52.2024 41.1044,52.2024 L41.1034,52.2024 L41.1004,52.2024 C41.0694,52.2024 41.0384,52.2034 41.0084,52.2064 C40.9994,52.2074 40.9904,52.2094 40.9804,52.2104 C40.9604,52.2134 40.9394,52.2164 40.9194,52.2204 C40.9074,52.2224 40.8944,52.2264 40.8814,52.2304 C40.8654,52.2344 40.8494,52.2374 40.8334,52.2424 C40.8194,52.2464 40.8054,52.2524 40.7904,52.2574 C40.7774,52.2624 40.7644,52.2674 40.7514,52.2724 C40.7344,52.2794 40.7194,52.2874 40.7034,52.2954 C40.6934,52.3004 40.6824,52.3044 40.6724,52.3104 C40.6564,52.3194 40.6414,52.3284 40.6254,52.3384 C40.6174,52.3444 40.6074,52.3494 40.5984,52.3554 C40.5844,52.3654 40.5704,52.3754 40.5564,52.3864 C40.5474,52.3934 40.5374,52.3994 40.5294,52.4074 C40.5204,52.4134 40.5134,52.4204 40.5054,52.4284 L40.5054,51.3064 C40.5054,48.2414 42.9994,45.7464 46.0644,45.7464 L46.6034,45.7464 Z M47.1744,20.6234 C50.7554,21.0064 54.1254,23.6634 56.7444,28.2074 C57.6634,29.8014 58.4524,31.5634 59.1034,33.4534 C55.4744,34.0464 51.4024,34.3884 47.1734,34.4314 L47.1734,20.6234 L47.1744,20.6234 Z M53.3354,55.7724 C53.3354,56.3014 52.9774,56.7474 52.4924,56.8854 L52.4924,54.6594 C52.9774,54.7964 53.3354,55.2434 53.3354,55.7724 L53.3354,55.7724 Z M61.2744,46.3734 L52.0634,46.3734 L52.0604,46.3734 C50.8324,45.0164 49.1064,44.1204 47.1744,43.9704 L47.1744,36.2314 C51.5904,36.1874 55.8524,35.8204 59.6494,35.1814 C60.6434,38.6224 61.2014,42.4234 61.2744,46.3734 L61.2744,46.3734 Z M68.6934,32.7734 C71.3004,36.8004 72.7934,41.4894 72.9574,46.3734 L63.0754,46.3734 C63.0014,42.3234 62.4354,38.4154 61.4264,34.8574 C64.1934,34.3074 66.6604,33.6054 68.6934,32.7734 L68.6934,32.7734 Z M67.1274,60.2064 L67.1274,58.9944 C67.3164,59.1284 67.4414,59.3504 67.4414,59.6004 C67.4414,59.8504 67.3164,60.0714 67.1274,60.2064 L67.1274,60.2064 Z M57.8414,56.5654 L57.8384,56.5654 C57.8074,56.5654 57.7764,56.5664 57.7464,56.5704 C57.7374,56.5714 57.7274,56.5734 57.7184,56.5744 C57.6974,56.5774 57.6774,56.5784 57.6574,56.5824 C57.6434,56.5854 57.6304,56.5894 57.6174,56.5934 C57.6014,56.5974 57.5864,56.6004 57.5714,56.6054 C57.5614,56.6084 57.5524,56.6124 57.5424,56.6164 L57.5424,56.0294 C57.5424,53.6774 59.4564,51.7644 61.8074,51.7644 L62.2384,51.7644 C64.5904,51.7644 66.5034,53.6774 66.5034,56.0294 L66.5034,56.6084 C66.4864,56.6034 66.4694,56.5984 66.4524,56.5944 C66.4434,56.5924 66.4354,56.5894 66.4274,56.5874 C65.1724,56.3014 64.7624,54.6274 64.7594,54.6154 C64.6814,54.2704 64.4084,54.0024 64.0614,53.9324 C63.7154,53.8614 63.3594,53.9994 63.1524,54.2864 C61.5224,56.5384 57.8894,56.5654 57.8414,56.5654 L57.8414,56.5654 Z M63.0054,65.3364 L63.0054,65.8354 L62.0024,66.8754 L61.0604,65.9584 L61.0604,65.3364 C61.2444,65.3584 61.4324,65.3714 61.6224,65.3714 L62.4434,65.3714 C62.6344,65.3714 62.8214,65.3594 63.0054,65.3364 L63.0054,65.3364 Z M62.4434,63.5724 L61.6224,63.5724 C60.0324,63.5724 58.7384,62.2784 58.7384,60.6874 L58.7384,58.3064 C59.9104,58.1794 61.9874,57.7694 63.5874,56.4334 C63.9464,57.0474 64.5004,57.7124 65.3274,58.1004 L65.3274,60.6874 C65.3274,62.2784 64.0334,63.5724 62.4434,63.5724 L62.4434,63.5724 Z M65.6924,65.5974 L64.8054,65.2424 L64.8054,64.7294 C65.7864,64.1554 66.5394,63.2344 66.8974,62.1354 C68.2064,62.0324 69.2414,60.9354 69.2414,59.6004 C69.2414,58.8054 68.8754,58.0964 68.3034,57.6284 L68.3034,56.0294 C68.3034,52.9454 65.9894,50.3934 63.0064,50.0144 C63.0404,49.4044 63.0634,48.7894 63.0754,48.1734 L72.9574,48.1734 C72.7414,54.6884 70.1814,60.8414 65.6924,65.5974 L65.6924,65.5974 Z M68.4154,66.6894 L67.4794,66.3144 C72.1884,61.0754 74.7744,54.3464 74.7744,47.2744 C74.7744,41.4884 73.0244,35.9204 69.8374,31.2414 C69.7994,31.1644 69.7514,31.0964 69.6954,31.0364 C68.2994,29.0244 66.6374,27.1794 64.7304,25.5564 C64.3514,25.2344 63.7834,25.2804 63.4614,25.6594 C63.1394,26.0374 63.1854,26.6064 63.5634,26.9274 C65.0944,28.2294 66.4554,29.6844 67.6374,31.2584 C65.7324,32.0024 63.4454,32.6334 60.8924,33.1314 C60.1884,31.0324 59.3224,29.0754 58.3034,27.3084 C56.9314,24.9274 55.3524,23.0104 53.6324,21.6004 C56.3094,22.3664 58.8604,23.5524 61.2014,25.1334 C61.6134,25.4114 62.1724,25.3034 62.4514,24.8914 C62.7294,24.4794 62.6204,23.9204 62.2084,23.6424 C57.4954,20.4564 51.9854,18.7744 46.2744,18.7744 C38.6614,18.7744 31.5044,21.7384 26.1214,27.1214 C20.7384,32.5044 17.7744,39.6614 17.7744,47.2744 C17.7744,54.3554 20.3624,61.0854 25.0794,66.3264 L24.1554,66.6884 C23.8144,66.8114 20.9184,67.9664 20.9184,71.6484 L20.9184,74.8724 C20.9184,75.3704 21.3214,75.7744 21.8184,75.7744 L26.9954,75.7744 L27.8024,75.7744 L28.7624,75.7744 L33.3664,75.7744 L35.0664,75.7744 C35.1094,75.7744 35.1524,75.7704 35.1934,75.7634 C35.2354,75.7704 35.2774,75.7744 35.3214,75.7744 L38.9834,75.7744 C39.4804,75.7744 39.8834,75.3704 39.8834,74.8734 C39.8834,74.3764 39.4804,73.9744 38.9834,73.9744 L36.2214,73.9744 L36.2214,70.8394 C36.2214,67.5334 38.8184,66.5814 38.9234,66.5444 C38.9374,66.5394 38.9514,66.5354 38.9654,66.5294 L43.3484,64.8134 C43.3574,64.8234 43.3664,64.8334 43.3764,64.8434 L45.7054,67.1124 C45.8734,67.2764 46.0994,67.3684 46.3334,67.3684 L46.3474,67.3684 C46.5874,67.3644 46.8154,67.2644 46.9814,67.0914 L49.2184,64.7714 L53.5954,66.5274 C53.6104,66.5334 53.6214,66.5374 53.6374,66.5424 C53.7474,66.5814 56.3464,67.5334 56.3464,70.8394 L56.3464,73.9744 L49.7634,73.9744 L42.8044,73.9744 L41.7964,73.9744 C41.2994,73.9744 40.8964,74.3764 40.8964,74.8734 C40.8964,75.3704 41.2994,75.7744 41.7964,75.7744 L42.8044,75.7744 L49.7634,75.7744 L57.2454,75.7744 L58.3944,75.7744 L59.2004,75.7744 L60.1604,75.7744 L64.7654,75.7744 L70.7484,75.7744 C71.2454,75.7744 71.6484,75.3654 71.6484,74.8684 L71.6484,71.6484 C71.6484,67.9804 68.7744,66.8204 68.4154,66.6894 L68.4154,66.6894 Z" id="Fill-4" fill="#FFFFFF"></path>
            </g>
        </g>
    </g>
</svg>