<?xml version="1.0" encoding="UTF-8"?>
<svg width="90px" height="90px" viewBox="0 0 90 90" version="1.1" xmlns="http://www.w3.org/2000/svg" xmlns:xlink="http://www.w3.org/1999/xlink">
    <!-- Generator: sketchtool 53.2 (72643) - https://sketchapp.com -->
    <title>E1559DD7-CE4B-45BA-970D-B0A8F2761EDA</title>
    <desc>Created with sketchtool.</desc>
    <defs>
        <polygon id="path-1" points="0 89.5624839 89.5625806 89.5624839 89.5625806 -9.67741936e-05 0 -9.67741936e-05"></polygon>
    </defs>
    <g id="Desktop" stroke="none" stroke-width="1" fill="none" fill-rule="evenodd">
        <g id="Experiencia-cliente" transform="translate(-735.000000, -1035.000000)">
            <g id="competencia" transform="translate(735.000000, 1035.000000)">
                <g id="Group-13">
                    <path d="M45.8406774,0.0137419355 C21.1168065,-0.572709677 0.597774194,18.9969677 0.0132580645,43.7218065 C-0.572225806,68.4456774 18.9964839,88.9647097 43.7213226,89.5492258 C68.4461613,90.1356774 88.9642258,70.566 89.5497097,45.8411613 C90.1351935,21.1163226 70.5664839,0.598258065 45.8406774,0.0137419355 Z" id="Fill-1" fill="#6727E5"></path>
                    <path d="M18.0723871,54.6046452 C19.1398065,54.6046452 20.007871,55.4717419 20.007871,56.540129 C20.007871,57.6085161 19.1398065,58.4756129 18.0723871,58.4756129 C17.0049677,58.4756129 16.1369032,57.6085161 16.1369032,56.540129 C16.1369032,55.4717419 17.0049677,54.6046452 18.0723871,54.6046452 L18.0723871,54.6046452 Z M25.8143226,26.540129 L43.2336774,26.540129 L43.2336774,43.7852903 L36.3617419,48.0820645 C35.6552903,47.3349677 34.6623871,46.8627097 33.5562581,46.8627097 C31.4214194,46.8627097 29.6852903,48.5988387 29.6852903,50.7336774 C29.6852903,50.8352903 29.7075484,50.9330323 29.7152903,51.0346452 L25.8143226,52.5946452 L25.8143226,26.540129 Z M45.1691613,16.8627097 L62.5885161,16.8627097 L62.5885161,38.1530323 L56.6446452,38.1530323 C56.2120645,36.4875484 54.710129,35.2498065 52.9110968,35.2498065 C50.7762581,35.2498065 49.040129,36.9859355 49.040129,39.1207742 C49.040129,39.4517419 49.0943226,39.7672258 49.1727097,40.0730323 L45.1691613,42.5756129 L45.1691613,16.8627097 Z M52.9110968,41.0562581 C51.8436774,41.0562581 50.9756129,40.1891613 50.9756129,39.1207742 C50.9756129,38.0523871 51.8436774,37.1852903 52.9110968,37.1852903 C53.9785161,37.1852903 54.8465806,38.0523871 54.8465806,39.1207742 C54.8465806,40.1891613 53.9785161,41.0562581 52.9110968,41.0562581 L52.9110968,41.0562581 Z M33.5562581,52.6691613 C32.4888387,52.6691613 31.6207742,51.8020645 31.6207742,50.7336774 C31.6207742,49.6652903 32.4888387,48.7981935 33.5562581,48.7981935 C34.6236774,48.7981935 35.4917419,49.6652903 35.4917419,50.7336774 C35.4917419,51.8020645 34.6236774,52.6691613 33.5562581,52.6691613 L33.5562581,52.6691613 Z M70.3304516,37.1852903 C71.397871,37.1852903 72.2659355,38.0523871 72.2659355,39.1207742 C72.2659355,40.1891613 71.397871,41.0562581 70.3304516,41.0562581 C69.2630323,41.0562581 68.3949677,40.1891613 68.3949677,39.1207742 C68.3949677,38.0523871 69.2630323,37.1852903 70.3304516,37.1852903 L70.3304516,37.1852903 Z M18.0723871,60.4110968 C20.2072258,60.4110968 21.9433548,58.6749677 21.9433548,56.540129 C21.9433548,56.4385161 21.9210968,56.3407742 21.9133548,56.2391613 L30.3336774,52.8714194 C31.0275484,53.9146452 32.2120645,54.6046452 33.5562581,54.6046452 C35.6910968,54.6046452 37.4272258,52.8685161 37.4272258,50.7336774 C37.4272258,50.4027097 37.3730323,50.0872258 37.2946452,49.7814194 L50.1065806,41.7733548 C50.8120645,42.5194839 51.8049677,42.9917419 52.9110968,42.9917419 C54.710129,42.9917419 56.2120645,41.754 56.6446452,40.0885161 L66.5969032,40.0885161 C67.0294839,41.754 68.5314194,42.9917419 70.3304516,42.9917419 C72.4652903,42.9917419 74.2014194,41.2556129 74.2014194,39.1207742 C74.2014194,36.9859355 72.4652903,35.2498065 70.3304516,35.2498065 C68.5314194,35.2498065 67.0294839,36.4875484 66.5969032,38.1530323 L64.524,38.1530323 L64.524,15.8949677 C64.524,15.3607742 64.0914194,14.9272258 63.5562581,14.9272258 L44.2014194,14.9272258 C43.6662581,14.9272258 43.2336774,15.3607742 43.2336774,15.8949677 L43.2336774,24.6046452 L24.8465806,24.6046452 C24.3114194,24.6046452 23.8788387,25.0381935 23.8788387,25.5723871 L23.8788387,53.3688387 L21.2949677,54.4023871 C20.6010968,53.3591613 19.4165806,52.6691613 18.0723871,52.6691613 C15.9375484,52.6691613 14.2014194,54.4052903 14.2014194,56.540129 C14.2014194,58.6749677 15.9375484,60.4110968 18.0723871,60.4110968 L18.0723871,60.4110968 Z" id="Fill-3" fill="#FFFFFF"></path>
                    <mask id="mask-2" fill="white">
                        <use xlink:href="#path-1"></use>
                    </mask>
                    <g id="Clip-6"></g>
                    <path d="M22.9112903,72.9918387 L26.7822581,72.9918387 L26.7822581,64.2821613 L22.9112903,64.2821613 L22.9112903,72.9918387 Z M32.5887097,72.9918387 L36.4596774,72.9918387 L36.4596774,58.4757097 L32.5887097,58.4757097 L32.5887097,72.9918387 Z M42.266129,72.9918387 L46.1370968,72.9918387 L46.1370968,54.6047419 L42.266129,54.6047419 L42.266129,72.9918387 Z M51.9435484,72.9918387 L55.8145161,72.9918387 L55.8145161,50.7337742 L51.9435484,50.7337742 L51.9435484,72.9918387 Z M61.6209677,72.9918387 L65.4919355,72.9918387 L65.4919355,46.8628065 L61.6209677,46.8628065 L61.6209677,72.9918387 Z M67.4274194,45.8950645 C67.4274194,45.360871 66.9948387,44.9273226 66.4596774,44.9273226 L60.6532258,44.9273226 C60.1180645,44.9273226 59.6854839,45.360871 59.6854839,45.8950645 L59.6854839,72.9918387 L57.75,72.9918387 L57.75,49.7660323 C57.75,49.230871 57.3174194,48.7982903 56.7822581,48.7982903 L50.9758065,48.7982903 C50.4406452,48.7982903 50.0080645,49.230871 50.0080645,49.7660323 L50.0080645,72.9918387 L48.0725806,72.9918387 L48.0725806,53.637 C48.0725806,53.1018387 47.64,52.6692581 47.1048387,52.6692581 L41.2983871,52.6692581 C40.7632258,52.6692581 40.3306452,53.1018387 40.3306452,53.637 L40.3306452,72.9918387 L38.3951613,72.9918387 L38.3951613,57.5079677 C38.3951613,56.9728065 37.9625806,56.5402258 37.4274194,56.5402258 L31.6209677,56.5402258 C31.0858065,56.5402258 30.6532258,56.9728065 30.6532258,57.5079677 L30.6532258,72.9918387 L28.7177419,72.9918387 L28.7177419,63.3144194 C28.7177419,62.7792581 28.2851613,62.3466774 27.75,62.3466774 L21.9435484,62.3466774 C21.4083871,62.3466774 20.9758065,62.7792581 20.9758065,63.3144194 L20.9758065,72.9918387 L14.2016129,72.9918387 L14.2016129,74.9273226 L74.2016129,74.9273226 L74.2016129,72.9918387 L67.4274194,72.9918387 L67.4274194,45.8950645 Z" id="Fill-5" fill="#FFFFFF" mask="url(#mask-2)"></path>
                    <path d="M29.6854839,32.3466774 L31.6209677,32.3466774 L31.6209677,30.4111935 L29.6854839,30.4111935 L29.6854839,32.3466774 Z M28.7177419,34.2821613 L32.5887097,34.2821613 C33.123871,34.2821613 33.5564516,33.8486129 33.5564516,33.3144194 L33.5564516,29.4434516 C33.5564516,28.9092581 33.123871,28.4757097 32.5887097,28.4757097 L28.7177419,28.4757097 C28.1825806,28.4757097 27.75,28.9092581 27.75,29.4434516 L27.75,33.3144194 C27.75,33.8486129 28.1825806,34.2821613 28.7177419,34.2821613 L28.7177419,34.2821613 Z" id="Fill-7" fill="#FFFFFF" mask="url(#mask-2)"></path>
                    <path d="M37.4274194,32.3466774 L39.3629032,32.3466774 L39.3629032,30.4111935 L37.4274194,30.4111935 L37.4274194,32.3466774 Z M36.4596774,34.2821613 L40.3306452,34.2821613 C40.8658065,34.2821613 41.2983871,33.8486129 41.2983871,33.3144194 L41.2983871,29.4434516 C41.2983871,28.9092581 40.8658065,28.4757097 40.3306452,28.4757097 L36.4596774,28.4757097 C35.9245161,28.4757097 35.4919355,28.9092581 35.4919355,29.4434516 L35.4919355,33.3144194 C35.4919355,33.8486129 35.9245161,34.2821613 36.4596774,34.2821613 L36.4596774,34.2821613 Z" id="Fill-8" fill="#FFFFFF" mask="url(#mask-2)"></path>
                    <path d="M29.6854839,40.0886129 L31.6209677,40.0886129 L31.6209677,38.153129 L29.6854839,38.153129 L29.6854839,40.0886129 Z M33.5564516,41.0563548 L33.5564516,37.1853871 C33.5564516,36.6511935 33.123871,36.2176452 32.5887097,36.2176452 L28.7177419,36.2176452 C28.1825806,36.2176452 27.75,36.6511935 27.75,37.1853871 L27.75,41.0563548 C27.75,41.5905484 28.1825806,42.0240968 28.7177419,42.0240968 L32.5887097,42.0240968 C33.123871,42.0240968 33.5564516,41.5905484 33.5564516,41.0563548 L33.5564516,41.0563548 Z" id="Fill-9" fill="#FFFFFF" mask="url(#mask-2)"></path>
                    <path d="M37.4274194,40.0886129 L39.3629032,40.0886129 L39.3629032,38.153129 L37.4274194,38.153129 L37.4274194,40.0886129 Z M36.4596774,42.0240968 L40.3306452,42.0240968 C40.8658065,42.0240968 41.2983871,41.5905484 41.2983871,41.0563548 L41.2983871,37.1853871 C41.2983871,36.6511935 40.8658065,36.2176452 40.3306452,36.2176452 L36.4596774,36.2176452 C35.9245161,36.2176452 35.4919355,36.6511935 35.4919355,37.1853871 L35.4919355,41.0563548 C35.4919355,41.5905484 35.9245161,42.0240968 36.4596774,42.0240968 L36.4596774,42.0240968 Z" id="Fill-10" fill="#FFFFFF" mask="url(#mask-2)"></path>
                    <path d="M49.0403226,22.6692581 L50.9758065,22.6692581 L50.9758065,20.7337742 L49.0403226,20.7337742 L49.0403226,22.6692581 Z M48.0725806,24.6047419 L51.9435484,24.6047419 C52.4787097,24.6047419 52.9112903,24.1711935 52.9112903,23.637 L52.9112903,19.7660323 C52.9112903,19.2318387 52.4787097,18.7982903 51.9435484,18.7982903 L48.0725806,18.7982903 C47.5374194,18.7982903 47.1048387,19.2318387 47.1048387,19.7660323 L47.1048387,23.637 C47.1048387,24.1711935 47.5374194,24.6047419 48.0725806,24.6047419 L48.0725806,24.6047419 Z" id="Fill-11" fill="#FFFFFF" mask="url(#mask-2)"></path>
                    <path d="M49.0403226,30.4111935 L50.9758065,30.4111935 L50.9758065,28.4757097 L49.0403226,28.4757097 L49.0403226,30.4111935 Z M48.0725806,32.3466774 L51.9435484,32.3466774 C52.4787097,32.3466774 52.9112903,31.913129 52.9112903,31.3789355 L52.9112903,27.5079677 C52.9112903,26.9737742 52.4787097,26.5402258 51.9435484,26.5402258 L48.0725806,26.5402258 C47.5374194,26.5402258 47.1048387,26.9737742 47.1048387,27.5079677 L47.1048387,31.3789355 C47.1048387,31.913129 47.5374194,32.3466774 48.0725806,32.3466774 L48.0725806,32.3466774 Z" id="Fill-12" fill="#FFFFFF" mask="url(#mask-2)"></path>
                </g>
            </g>
        </g>
    </g>
</svg>