<?xml version="1.0" encoding="UTF-8"?>
<svg width="100px" height="100px" viewBox="0 0 100 100" version="1.1" xmlns="http://www.w3.org/2000/svg" xmlns:xlink="http://www.w3.org/1999/xlink">
    <!-- Generator: Sketch 53.2 (72643) - https://sketchapp.com -->
    <title>comprender</title>
    <desc>Created with Sketch.</desc>
    <g id="Desktop" stroke="none" stroke-width="1" fill="none" fill-rule="evenodd">
        <g id="Chatbots" transform="translate(-310.000000, -1034.000000)">
            <g id="comprender" transform="translate(310.000000, 1034.000000)">
                <g id="Group">
                    <circle id="Oval" fill="#3D3193" cx="50" cy="50" r="50"></circle>
                    <path d="M42.9582,39.7256 L42.4372,39.7256 C41.8982,39.7256 41.4612,40.1626 41.4612,40.7016 C41.4612,41.2406 41.8982,41.6776 42.4372,41.6776 L42.9582,41.6776 C43.4972,41.6776 43.9342,41.2406 43.9342,40.7016 C43.9342,40.1626 43.4972,39.7256 42.9582,39.7256" id="Fill-1" fill="#FFFFFF"></path>
                    <path d="M31.048,41.6773 L38.923,41.6773 C39.462,41.6773 39.898,41.2403 39.898,40.7013 C39.898,40.1623 39.462,39.7253 38.923,39.7253 L31.048,39.7253 C30.509,39.7253 30.072,40.1623 30.072,40.7013 C30.072,41.2403 30.509,41.6773 31.048,41.6773" id="Fill-3" fill="#FFFFFF"></path>
                    <path d="M42.9582,47.2427 L31.0482,47.2427 C30.5092,47.2427 30.0722,47.6797 30.0722,48.2177 C30.0722,48.7567 30.5092,49.1937 31.0482,49.1937 L42.9582,49.1937 C43.4972,49.1937 43.9342,48.7567 43.9342,48.2177 C43.9342,47.6797 43.4972,47.2427 42.9582,47.2427" id="Fill-5" fill="#FFFFFF"></path>
                    <path d="M42.9582,54.7598 L31.0482,54.7598 C30.5092,54.7598 30.0722,55.1968 30.0722,55.7358 C30.0722,56.2748 30.5092,56.7108 31.0482,56.7108 L42.9582,56.7108 C43.4972,56.7108 43.9342,56.2748 43.9342,55.7358 C43.9342,55.1968 43.4972,54.7598 42.9582,54.7598" id="Fill-7" fill="#FFFFFF"></path>
                    <path d="M69.1213,39.7256 L57.2113,39.7256 C56.6723,39.7256 56.2353,40.1626 56.2353,40.7016 C56.2353,41.2406 56.6723,41.6776 57.2113,41.6776 L69.1213,41.6776 C69.6593,41.6776 70.0973,41.2406 70.0973,40.7016 C70.0973,40.1626 69.6593,39.7256 69.1213,39.7256" id="Fill-9" fill="#FFFFFF"></path>
                    <path d="M69.1213,47.2427 L57.2113,47.2427 C56.6723,47.2427 56.2353,47.6797 56.2353,48.2177 C56.2353,48.7567 56.6723,49.1937 57.2113,49.1937 L69.1213,49.1937 C69.6593,49.1937 70.0973,48.7567 70.0973,48.2177 C70.0973,47.6797 69.6593,47.2427 69.1213,47.2427" id="Fill-11" fill="#FFFFFF"></path>
                    <path d="M69.1213,54.7598 L57.2113,54.7598 C56.6723,54.7598 56.2353,55.1968 56.2353,55.7358 C56.2353,56.2748 56.6723,56.7108 57.2113,56.7108 L69.1213,56.7108 C69.6593,56.7108 70.0973,56.2748 70.0973,55.7358 C70.0973,55.1968 69.6593,54.7598 69.1213,54.7598" id="Fill-13" fill="#FFFFFF"></path>
                    <path d="M80.218,66.753 L55.072,66.753 C54.561,66.753 54.136,67.149 54.1,67.659 C54.016,68.83 53.038,69.747 51.874,69.747 L48.295,69.747 C47.13,69.747 46.153,68.83 46.069,67.659 C46.032,67.149 45.608,66.753 45.096,66.753 L19.951,66.753 L19.951,39.271 C19.951,38.758 20.367,38.341 20.88,38.341 L22.946,38.341 L22.946,63.461 C22.946,64 23.383,64.437 23.921,64.437 L50.085,64.437 L76.247,64.437 C76.786,64.437 77.223,64 77.223,63.461 L77.223,38.341 L79.288,38.341 C79.801,38.341 80.218,38.758 80.218,39.271 L80.218,66.753 Z M24.897,37.368 C24.897,37.367 24.897,37.366 24.897,37.365 C24.897,37.365 24.897,37.364 24.897,37.363 L24.897,33.951 L44.963,33.951 C47.249,33.951 49.109,35.811 49.109,38.097 L49.109,62.485 L24.897,62.485 L24.897,37.368 Z M51.06,38.097 C51.06,35.811 52.92,33.951 55.206,33.951 L75.272,33.951 L75.272,62.485 L51.06,62.485 L51.06,38.097 Z M80.656,36.751 C80.247,36.528 79.786,36.39 79.288,36.39 L77.223,36.39 L77.223,32.975 C77.223,32.437 76.786,32 76.247,32 L55.206,32 C53.059,32 51.171,33.118 50.085,34.801 C48.998,33.118 47.11,32 44.963,32 L23.921,32 C23.383,32 22.946,32.437 22.946,32.975 L22.946,36.39 L20.88,36.39 C20.379,36.39 19.914,36.53 19.503,36.756 C19.285,36.916 18,37.75 18,39.271 L18,67.729 C18,68.268 18.436,68.704 18.975,68.704 L44.289,68.704 C44.811,70.441 46.424,71.698 48.295,71.698 L51.874,71.698 C53.745,71.698 55.359,70.441 55.88,68.704 L81.194,68.704 C81.733,68.704 82.169,68.268 82.169,67.729 L82.169,39.271 C82.169,37.969 80.979,36.969 80.656,36.751 L80.656,36.751 Z" id="Fill-15" fill="#FFFFFF"></path>
                </g>
            </g>
        </g>
    </g>
</svg>