<svg xmlns="http://www.w3.org/2000/svg" width="601" height="474" viewBox="0 0 601 474">
    <defs>
        <linearGradient id="prefix__a" x1="30.668%" x2="80.254%" y1="74.537%" y2="29.872%">
            <stop offset="0%" stop-color="#FFF"/>
            <stop offset="100%" stop-color="#EAEAEA"/>
        </linearGradient>
    </defs>
    <g fill="none" fill-rule="evenodd">
        <g fill="#E6E6E6">
            <path d="M28.734 19.246c-7.253 2.042-11.55 9.442-9.582 16.497 1.97 7.054 9.47 11.132 16.724 9.09 7.253-2.042 11.55-9.444 9.581-16.498-1.969-7.055-9.471-11.132-16.723-9.09m10.923 39.133c-14.93 4.206-30.378-4.19-34.431-18.713C1.17 25.142 10.02 9.903 24.952 5.7 39.884 1.495 55.33 9.89 59.384 24.413c4.055 14.524-4.795 29.761-19.727 33.965" transform="translate(529.11 355.98)"/>
            <path d="M29.267 6.209L21.53 8.387 19.798 2.179 27.534 0zM44.392 60.394L36.655 62.572 34.923 56.363 42.659 54.185zM57.807 28.104L55.706 20.579 62.089 18.781 64.19 26.307zM2.1 43.792L0 36.267 6.383 34.469 8.484 41.994zM48.277 11.304L41.32 7.524 44.608 1.861 51.564 5.643zM19.582 60.711L12.625 56.93 15.913 51.268 22.869 55.05zM52.275 46.769L56.261 39.907 62 43.026 58.015 49.888zM2.19 19.547L6.175 12.685 11.915 15.804 7.929 22.666z" transform="translate(529.11 355.98)"/>
        </g>
        <path fill="url(#prefix__a)" d="M251.66 32.83c-24.877 19.914-41.386 48.848-64.642 70.584C160.617 128.092 126.206 140 92.2 149.913c-23.988 6.993-46.854 17.117-68.741 29.194-45.353 25.026-11.866 60.07 7.168 133.183 0 0 159.568-5.604 247.34-5.28L316 390.762l153.82-1.284c3.818-7.51 7.635-15.023 11.45-22.535 29.09-57.255 64.449-106.579 61.35-173.866-2.855-61.984-30.58-122.3-82.067-158.48C429.473 12.758 389.619.426 350.294.424 314.691.423 279.523 10.527 251.66 32.83" transform="translate(19.17 23.988)"/>
        <path fill="#FF9395" d="M415.646 380.524L410.65 386.954 373.39 329.875 363.216 333.299 387.825 395.022 428.073 420.425 441.385 400.906z"/>
        <path fill="#FFADAE" d="M415.646 380.524l19.771 12.66-19.771-12.66z"/>
        <path fill="#0981F3" d="M435.762 395.021l-23.065-14.567s22.569-47.934 41.578-45.094c19.01 2.841-18.513 59.661-18.513 59.661"/>
        <path fill="#B3B3B3" d="M249.908 398.17L382.316 398.17 382.316 394.385 249.908 394.385z"/>
        <path fill="#FFF" d="M246.44 303.809c-2.783-.152-5.324 1.275-9.224-1.239-.95-3.424-2.315-7.106-3.551-10.714l1.665.851-2.116-2.159c-.102-.317-.21-.629-.312-.941l.978.209-1.462-1.744c-.532-1.712-.988-3.376-1.316-4.953 2.632 3.311 5.475 6.777 8.193 10.337l-.183 1.447.914-.49c2.321 3.086 4.534 6.23 6.415 9.396"/>
        <path fill="#AC1548" d="M257.604 291.415l-1.364.62.87.193c-2.03 3.467-3.373 7.548-3.61 11.129-1.912-.086-3.878-1.255-5.936-5.202 3.443-4.269 7.86-9.028 13.35-10.826-1.214 1.142-2.332 2.536-3.31 4.086"/>
        <path fill="#FBC922" d="M255.364 266.435l-.914 1.416.78-.307c-.645 4.98-1.939 10.122-2.767 14.03-.102.506-.203.99-.29 1.449-.182.957-.312 1.916-.403 2.874l-1.547 2.331-1.27 1.908 2.516-1.165.14-.081c-.006.043-.006.087-.006.13-.048 3.068.194 6.116.333 9.146.065 1.314.107 2.628.103 3.936-.005 1.303-.521 2.503-1.355 3.386-.838.888-1.998 1.443-3.298 1.448-.28 0-.564-.021-.865-.07-1.821-.318-3.24-1.776-3.685-3.575-.56-2.266-.677-4.603-.463-6.944.22-2.509.822-5.017 1.661-7.441.639-1.83 1.413-3.612 2.261-5.307.35-.7.705-1.428 1.059-2.17 2.095-.97 1.354-1.59.854-1.831.087-.188.172-.377.258-.57 1.225.085 2.106-.016.376-.846.182-.398.36-.802.538-1.21.891-2.052 1.745-4.152 2.53-6.197 1.649-4.29 2.97-8.356 3.605-11.274.214 2.132.118 4.5-.15 6.934"/>
        <path fill="#FF2E57" d="M240.665 306.796c-.398-.065-.72-.2-.956-.441-2.59-2.45-4.916-5.385-7.854-7.484-1.102-.786-2.418-1.458-3.762-2.11l1.451-.791-2.3.377c-.171-.08-.343-.167-.514-.249l.977-.533-1.548.254c-1.53-.764-2.97-1.557-3.997-2.514 4.449.58 8.779 1.232 12.916 3.445 2.08 1.114 5.19 2.88 7.71 4.91 2.255 1.82.735 5.594-2.123 5.136"/>
        <path fill="#6737C1" d="M264.375 295.575h-2.112l1.516.319c-.14.075-.285.15-.425.226-1.413.758-2.777 1.582-3.846 2.701-.055.049-.098.098-.146.146-1.026 1.12-1.665 2.342-2.143 3.612l-2.375.513 1.128.35.86.263c-.14.43-.268.866-.392 1.303-.29.996-.973 1.781-1.838 2.218-.655.328-1.418.458-2.192.333l-.08-.016c-2.45-.399-3.82-3.133-2.58-5.287.796-1.383 1.881-2.605 3.155-3.67.397-.33.81-.642 1.24-.933.204-.144.414-.28.624-.413.226-.146.457-.287.692-.42l.592 1.894.908-2.476.085-.242c3.24-1.508 6.893-2.22 10.08-2.008-.86.576-1.805 1.081-2.751 1.587M240.29 307.248c-1.828 1.9-4.148-.559-6.405-1.318-1-.335-2.106-.657-3.26-.921l1.069-1.545-2.215 1.292c-2.202-.431-4.502-.647-6.51-.393.896-.447 2.138-.97 3.518-1.449.005 0 .806.442.806.442l-.194-.65c3.16-1.04 6.888-1.788 9.053-.992 4.739 1.029 5.894 3.704 4.137 5.534"/>
        <path fill="#AC1548" d="M244.71 306.747l-.086.001c-2.842.07-6.6-1.222-6.24-3.436.227-1.401.105-2.792-.26-4.15l1.66.91-2.063-2.172c-.981-2.615-2.739-5.087-4.403-7.262 1.914 1.152 3.745 2.452 5.427 3.89l.671 1.475-.01-.903c.467.416.926.842 1.362 1.28l.383 2.708.636-1.658c1.9 2.054 3.506 4.304 4.702 6.738.635 1.301-.067 2.529-1.779 2.58M251.469 288.971l.14-.08c-.006.043-.006.085-.006.128l-.134-.048"/>
        <path fill="#FFF" d="M248.322 306.834s-2.52-14.8 3.147-28.26c0 0-5.684 8.09-4.083 28.362 0 0 .498.096.936-.102M251.92 307.451s1.162-5.87 5.684-8.47c0 0-4.798 1.504-6.406 8.176 0 0 .383.365.722.294"/>
        <path fill="#FF2E57" d="M238.15 295.625s5.819 7.039 5.704 11.11c0 0-.55-.011-1.151-.13-.6-.116 1.233-2.934-4.554-10.98"/>
        <path fill="#5FC8D6" d="M260.08 313.24c0 8.025-6.486 14.517-14.489 14.517-4.223 0-8.02-1.804-10.665-4.692-2.38-2.584-3.823-6.032-3.823-9.825 0-2.42.589-4.7 1.632-6.7.122-.23.25-.456.377-.675h24.96c1.273 2.16 2.007 4.681 2.007 7.375"/>
        <path fill="#5FC8D6" d="M249.971 314.772c0 4.547-6.716 8.239-15.046 8.292-2.378-2.583-3.822-6.03-3.822-9.824 0-2.42.589-4.7 1.632-6.7.649-.049 1.316-.072 1.99-.072 8.42 0 15.246 3.715 15.246 8.304"/>
        <path fill="#1F1440" d="M232.017 307.206L259.067 307.206 259.067 304.525 232.017 304.525zM457.838 281.217L432.379 276.71 430.89 292.739 452.993 299.947z"/>
        <path fill="#1F1440" d="M465.912 280.491c3.948.254 7.65 2.636 9.418 6.063 1.77 3.426 1.543 7.772-.574 11.063-1.519 2.358-3.86 4.101-5.626 6.292-1.842 2.284-3.034 5.054-3.409 7.918-.266 2.034-.143 4.165-1 6.048-1.523 3.351-6.342 4.807-9.479 2.86-2.392-1.483-3.482-4.303-4.183-6.989-1.768-6.772-2.005-13.937-.688-20.85.674-3.54 1.835-7.158 4.404-9.773 2.569-2.612 6.858-3.902 10.063-2.17l1.074-.462z"/>
        <path fill="#FFADAE" d="M413.785 300.218c.04.228.109.449.163.674 1.751 6.589 4.943 12.798 9.425 17.992 1.39 1.613 2.86 3.191 4.63 4.414 4.403 3.025 14.015 2.979 18.868.518 4.347-2.205 7.412-6.407 9.023-10.909 1.61-4.502 1.928-9.33 1.946-14.07 3.998-.229 7.258-4.508 6.288-8.262-.975-3.77-3.934-5.716-9.391-3.6-.178.03-.359.044-.543.044-11.036.823-20.706-4.628-31.387-5.753-1.889-.195-7.462-1.341-8.701.255-.542.684-.778 1.859-.996 2.672-.536 1.842-.748 3.756-.765 5.651-.022 2.314.227 4.606.638 6.874.225 1.182.493 2.353.802 3.5"/>
        <path fill="#FFADAE" d="M438.954 321.255L444.095 335.698 464.171 325.618 454.55 307.967zM412.397 291.767c5.42-.186 11.386-2.234 18.27-5.428 1.985-.93 3.884-1.585 5.677-2.037-4.444-1.242-8.903-2.54-13.536-3.036-1.89-.196-7.464-1.341-8.703.256-.54.683-.778 1.858-.995 2.67-.535 1.843-.748 3.756-.764 5.652-.013.644.003 1.28.051 1.923"/>
        <path fill="#FF9395" d="M455.495 314.929l-12.503 17.668-2.301-6.59c6.118-1.021 11.084-4.645 14.804-11.078"/>
        <path fill="#1F1440" d="M417.953 275.45c-.947.085-1.06-1.347-.11-1.43.945-.084 1.059 1.347.11 1.43M461.664 321.015l-1-1.837-.136-9.255 6.712-8.905s5.41 16.823-5.576 19.997M450.234 285.581c.396.874.754 1.96 1.042 2.981.286 1.042.52 2.105.644 3.18.254 2.136.175 4.397-1.004 6.393.86-.76 1.539-1.762 2.043-2.852.517-1.095.81-2.27 1.048-3.456.23-1.19.338-2.396.383-3.607.033-1.23.03-2.386-.118-3.71l-4.038 1.071z"/>
        <path fill="#1F1440" d="M392.202 278.633c6.518 9.795 13.158 13.422 21.012 13.128 5.336-.2 11.217-2.21 18.006-5.334 1.957-.91 3.828-1.553 5.596-1.998 8.17-2.045 14.16.397 17.561 2.574l.014-.004c.182 0 .346-.012.52-.04 2.406-.931 4.325-1.066 5.784-.599l4.779-5.177c-7.36-36.122-30.22-17.676-30.22-17.676l-8.045-8.86c-25.156-24.05-45.928 7.564-35.007 23.986"/>
        <path fill="#0981F3" d="M490.527 463.542c15.981-72.891.414-115.37-8.124-125.638-4.451-5.352-10.935-6.613-16.125-6.595-4.766.02-8.44 1.118-8.44 1.118-37.544 5.477-34.276 91.918-34.276 91.918l-1.359 23.41s-1.567 8.838 16.119 7.66c17.686-1.179 49.434 19.441 52.079 18.558 2.646-.885.126-10.431.126-10.431"/>
        <path fill="#0981F3" d="M442.85 340.313c0-.572-4.527-5.155-4.527-5.155l24.702-13.547 7.752 12.975-27.927 5.727zM444.202 408.295s-3.664-57.457 18.686-56.392c22.35 1.065 20.153 35.148 14.29 68.522l-32.976-12.13z"/>
        <path fill="#FFADAE" d="M470.694 418.039s.268 32.568-15.991 33.025c-16.26.456-78.17-58.074-78.17-58.074l-29.368.002s7.387-12.028 24.825-12.028l70.93 35.05 1.282-7.719 26.492 9.744z"/>
        <path fill="#373A55" d="M380.275 395.314H323.58c-.452 0-.866-.253-1.071-.656l-31.27-61.262 2.143-1.099 30.935 60.604h55.957v2.413z"/>
        <path fill="#FF2E57" d="M123.84 372.09c-1.946 8.777-17.86 16.787-45.77 8.777-15.947-4.583-23.678 2.002-27.372 8.486-1.221 2.148-4.502 1.408-4.734-1.048-1.568-16.436-.075-31.876 2.033-43.856 2.556-14.534 6.017-23.993 6.017-23.993l50.578-3.61s10.115 22.184 15.728 38.786c2.509 7.435 4.12 13.746 3.52 16.457"/>
        <path fill="#FAA785" d="M199.904 275.26s10.272-.147 19.249-3.422c.82-.3 1.576.563 1.194 1.35-1.295 2.661-5 7.06-15.488 8.304-15.347 1.817-4.955-6.233-4.955-6.233M121.491 285.407L155.9 284.743 154.179 296.735 113.746 301.958 111.75 293.239z"/>
        <path fill="#282723" d="M101.726 174.162s-17.593-21.426-45.49-11.154c-27.899 10.27-28.836 41.004-27.141 62.12-.02-.263-12.988 5.91-13.795 6.45-23.168 15.464-17.904 48.482 1.646 64.724 9.34 7.761 21.75 10.879 33.716 9.7 5.942-.585 15.353-2.156 19.01-7.644 6.051-9.078 41.376-25.975 41.376-25.975s36.705-14.35 1.19-55.336c0 0 46.449-48.648-10.512-42.885"/>
        <path fill="#9B87FE" d="M109.33 294.174l-2.323 26.943-20.094.925-9.34.665-9.067.649-.25-1.375-.198-1.085-2.393-13.211-24.801 11.021s-17.445-58.744-5.796-69.199c5.259-4.72 11.449-8.112 16.65-10.414 6.328-2.791 11.2-3.974 11.2-3.974l9.89 1.42c1.805.178 3.554.466 5.255.853 30.169 6.82 44.286 44.263 44.286 44.263l-13.02 12.519z"/>
        <path fill="#FFF" d="M82.13 267.834c-13.672-2.478-25.64-20.572-30.41-28.741 6.325-2.79 11.198-3.975 11.198-3.975l9.89 1.421c1.805.177 3.554.467 5.255.853 6.8 12.641 4.068 30.442 4.068 30.442"/>
        <path fill="#FCC4AD" d="M79.588 261.088c-4.529 1.09-14.242-10.4-15.889-13.095-4.632-7.567-3.256-14.367 1.688-21.891 2.63-4.002 2.63-4.002 4.347-7.527.871-1.791 1.831-3.175 2.953-3.523.283-.09.57-.13.86-.139.952-.022 1.95.378 2.941 1.046 3.167 2.144 6.34 7.063 8.271 10.093-2.797 3.213-5.684 7.087-7.42 11.253-.674 1.612-1.18 3.264-1.44 4.942-.597 3.816 6.632 18.134 3.69 18.84"/>
        <path fill="#FAA785" d="M84.759 226.053c-2.798 3.212-5.685 7.085-7.419 11.252-6.097-4.816-7.423-13.324-7.605-18.73.87-1.791 1.83-3.175 2.951-3.523.285-.09.57-.13.862-.138l2.94 1.045c3.166 2.144 6.34 7.063 8.27 10.094"/>
        <path fill="#FCC4AD" d="M108.746 200.02c-.002 3.223-.468 7.033-1.43 10.867-2.462 9.752-8.18 19.679-17.882 20.664-4.306.437-8.684-1.163-11.703-4.283-2.656-2.745-5.74-5.752-7.151-9.368-.09-.245-.154-.488-.178-.749-.096-1.019.392-2.174 1.79-3.646 2.114-2.22 4.341-3.31 5.878-5.466.618-.862 1.122-1.896 1.457-3.248.554-2.214-.624-2.826 1.19-5.226 1.212-1.594 3.025-2.684 4.854-3.324 7.85-2.77 15.52 7.517 23.175 3.779"/>
        <path fill="#00CFFF" d="M109.765 280.358l8.54-5.024c.901-.53 2.063-.2 2.552.726l4.416 8.352c.38.719.159 1.609-.515 2.064l-11.617 7.865-5.436-2.92 2.06-11.063z"/>
        <path fill="#FCC4AD" d="M124.402 296.354c-.137.278-.322.607-.565.947-1.118 1.578-3.434 3.438-7.787 1.89-1.684-.597-2.717-1.256-3.317-1.917-1.87-2.035.408-4.033.408-4.033s.698.432 1.91.938h.003c.708.295 1.595.615 2.618.88 1.747.462 3.89.775 6.249.581.386-.033.653.368.481.714"/>
        <path fill="#4D5068" d="M82.261 320.65L131.754 316.907 130.447 323.259z"/>
        <path fill="#373A55" d="M180.165 324.136L125.697 323.813 150.328 255.794 204.878 255.888z"/>
        <path fill="#4D5068" d="M182.484 327.546L128.017 327.224 152.648 259.205 207.198 259.298z"/>
        <path fill="#282723" d="M115.248 196.76c-1.78 2.44-4.041 4.035-6.552 4.969-4.925 1.845-10.79 1.172-15.802-.6-2.598-.912-6.74-2.455-10.56-2.75-.153-.026-.308-.033-.462-.042-3.59-.19-6.81.784-8.063 4.504-5.494 2.666-12.405-1.597-8.523-9.043 2.473-4.737 7.383-7.574 12.193-9.361 6.624-2.47 38.31-2.9 39.626 6.894.21 1.548-.336 3.346-1.857 5.429"/>
        <path fill="#FCC4AD" d="M128.858 312.47c-.1.285-.364.511-.723.513-2.373.012-6.757-1.05-11.567-7.6l-5.39 4.472c-.269.225-.64.305-.978.212l-9.66-2.704c-.496-.139-.578-.817-.122-1.064 1.336-.727 3.856-1.596 7.269-.584l1.011-1.163s-6.625.328-9.36-3.86c0 0-36.95 37.354-48.927 29.969-.366-.228-.698-.465-.989-.716-9.306-7.921 16.931-27.406 16.931-27.406l36.54-13.98c.634-.242 1.319-.317 1.99-.22l6.073.882c1.363.197 2.554 1.024 3.22 2.229 2.43 4.405 8.74 15.247 14.463 20.2.26.225.315.548.22.82"/>
        <path fill="#9B87FE" d="M36.675 319.233c.262 4.724 1.867 13.414 9.989 15.132 3.692.782 7.44-1.086 9.108-4.478l14.058-28.593-5.458-2.143-25.343 15.566c-1.556.955-2.456 2.69-2.354 4.516"/>
        <path fill="#373A55" d="M128.027 327.218L84.018 327.218 82.261 320.65 129.616 322.826z"/>
        <path fill="#FCC4AD" d="M208.32 279.48l1.253 3.069c.154.38.053.815-.253 1.086l-.665.59c-.768.682-1.166 1.69-1.07 2.713l.211 2.245c.04.418-.173.818-.54 1.017l-.935.511c-.796.432-1.29 1.265-1.291 2.172l-.001 1.664c-.001.469-.337.87-.798.951l-3.917.685c-1.01.176-2.044-.092-2.838-.74-1.92-1.566-5.826-4.528-9.562-5.975 0 0 1.635-2.955 5.997-2.053 0 0 1.69-12.91 12.74-9.469.756.235 1.37.8 1.669 1.534"/>
        <path fill="#FFFEFF" d="M172.336 299.218L166.441 291.506 176.168 283.81 182.061 291.522z"/>
        <path fill="#FFFEFF" d="M162.349 291.57l5.405 7.074 9.097-7.197-5.406-7.073-9.096 7.196zm5.264 8.21l-6.382-8.349 10.355-8.194 6.383 8.35-10.356 8.194z"/>
        <path fill="#2E1D66" d="M204.879 255.888L207.198 259.298 200.798 259.288z"/>
        <path fill="#4D5068" d="M464.3 295.434c0 3.924-2.081 7.105-4.65 7.105-2.568 0-4.65-3.181-4.65-7.105 0-3.924 2.082-7.106 4.65-7.106 2.569 0 4.65 3.182 4.65 7.106"/>
        <path fill="#4D5068" d="M460.897 296.193c-.076-.462-7.715-46.226-22.461-50.317-3.902-1.082-8.07.964-12.39 6.08l-1.021-.867c4.688-5.55 9.32-7.738 13.767-6.505 6.592 1.83 12.54 11.07 17.68 27.467 3.79 12.088 5.725 23.807 5.744 23.925l-1.32.217zM442.673 314.125l-.404-1.277c10.121-3.22 18.15-15.832 18.23-15.958l1.132.715c-.084.134-2.102 3.319-5.444 6.966-3.101 3.385-7.964 7.79-13.514 9.554"/>
        <path fill="#7F8192" d="M465.474 296.084c0 3.307-1.754 5.987-3.918 5.987s-3.918-2.68-3.918-5.987c0-3.306 1.754-5.987 3.918-5.987s3.918 2.68 3.918 5.987"/>
        <path fill="#4D5068" d="M445.444 312.39c.522 1.591-.941 3.504-3.267 4.268-2.326.766-4.635.097-5.157-1.495-.522-1.59.94-3.502 3.267-4.269 2.326-.765 4.635-.095 5.157 1.496M65.126 200.796c-.433 3.607 1.13 6.763 3.492 7.046 2.362.286 4.625-2.41 5.058-6.018.433-3.607-1.13-6.764-3.493-7.047-2.36-.285-4.625 2.41-5.057 6.019"/>
        <path fill="#4D5068" d="M68.215 201.895l-1.278-.397c.497-1.604 12.297-39.306 25.515-40.278 4.233-.313 8.09 3.107 11.46 10.158l-1.206.58c-3.11-6.505-6.528-9.667-10.155-9.402-5.027.37-10.819 7.243-16.75 19.878-4.545 9.679-7.556 19.365-7.586 19.461M82.93 220.418c-4.918-2.241-8.91-6.835-11.393-10.296-2.673-3.724-4.179-6.882-4.24-7.014l1.207-.575c.06.125 6.052 12.597 14.98 16.665l-.554 1.22z"/>
        <path fill="#4D5068" d="M80.595 218.471c-.655 1.406.48 3.325 2.533 4.286 2.055.963 4.25.602 4.907-.804.655-1.406-.48-3.325-2.535-4.286-2.053-.96-4.25-.602-4.905.804"/>
        <path fill="#7F8192" d="M63.974 201.264c-.364 3.04.954 5.697 2.943 5.938 1.988.239 3.898-2.032 4.262-5.072.363-3.039-.954-5.699-2.943-5.938-1.99-.239-3.898 2.031-4.262 5.072"/>
        <path fill="#B3B3B3" d="M76.705 330.867L267.786 330.867 267.786 327.219 76.705 327.219z"/>
        <path fill="#FF9395" d="M373.39 329.874l3.314-5.698c.897-1.54.736-3.48-.401-4.851l-3.648-4.397-7.768-21.924c-.123-.345-.353-.642-.658-.846-1.208-.809-2.806.179-2.628 1.625l1.614 13.07-10.496 6.443c-.596.366-.976 1-1.015 1.7l-.438 7.599c-.042.731.253 1.44.801 1.926l12.63 11.177 8.693-5.824z"/>
        <path fill="#EF7D82" d="M372.655 314.929l-9.217 4.71s-.05 3.412 4.208 3.814c0 0-7.264.854-8.417-.301-1.153-1.154 1.448-7.027 12.623-10.492l.803 2.269z"/>
        <path fill="#373A55" d="M128.017 327.219L135.722 327.219 135.722 323.934 128.017 323.934z"/>
        <path fill="#0096FF" d="M214.938 182.413h-24.042c-10.222 0-18.584 8.38-18.584 18.622 0 6.334 3.2 11.953 8.056 15.32v13.107l13.377-9.804h21.193c10.221 0 18.583-8.38 18.583-18.623 0-10.242-8.362-18.622-18.583-18.622"/>
        <path fill="#FFF" d="M192.271 201.036c0 1.56-1.263 2.826-2.82 2.826-1.558 0-2.82-1.265-2.82-2.826 0-1.56 1.262-2.826 2.82-2.826 1.557 0 2.82 1.265 2.82 2.826M205.737 201.036c0 1.56-1.263 2.826-2.82 2.826s-2.821-1.265-2.821-2.826c0-1.56 1.264-2.826 2.82-2.826 1.558 0 2.82 1.265 2.82 2.826M219.202 201.036c0 1.56-1.262 2.826-2.82 2.826-1.557 0-2.82-1.265-2.82-2.826 0-1.56 1.263-2.826 2.82-2.826 1.558 0 2.82 1.265 2.82 2.826"/>
        <path fill="#FF3453" d="M359.36 209.381h-52.22c-3.255 0-5.894 2.645-5.894 5.907v32.738c0 3.262 2.639 5.907 5.894 5.907h15.694l10.416 14.077 10.416-14.077h15.694c3.256 0 5.895-2.645 5.895-5.907v-32.738c0-3.262-2.64-5.907-5.895-5.907"/>
        <path fill="#FFF" d="M350.09 237.386h-2.768v-7.597l.025-1.248.045-1.365c-.459.46-.779.762-.959.907l-1.504 1.212-1.336-1.671 4.221-3.366h2.276v13.128zM329.563 223.816h-9.085c-3.862 0-7.021 3.166-7.021 7.037 0 2.392 1.208 4.514 3.044 5.788v4.953l5.054-3.705h8.008c3.862 0 7.023-3.166 7.023-7.036 0-3.87-3.16-7.037-7.023-7.037"/>
        <path fill="#0DF" d="M362.449 147.687c.016.331.022.664.022.997 0 10.178-7.741 21.915-21.898 21.915-4.346 0-8.391-1.276-11.796-3.462.601.072 1.212.107 1.834.107 3.606 0 6.925-1.23 9.56-3.296-3.368-.062-6.211-2.289-7.19-5.348.47.089.952.138 1.448.138.701 0 1.382-.094 2.027-.27-3.52-.708-6.174-3.821-6.174-7.553 0-.033 0-.064.002-.097 1.037.577 2.224.923 3.485.963-2.065-1.38-3.423-3.738-3.423-6.41 0-1.413.378-2.734 1.042-3.873 3.795 4.66 9.467 7.728 15.863 8.047-.131-.563-.199-1.151-.199-1.754 0-4.254 3.446-7.702 7.696-7.702 2.214 0 4.214.935 5.618 2.432 1.753-.345 3.401-.985 4.888-1.869-.576 1.798-1.796 3.308-3.384 4.262 1.557-.187 3.04-.6 4.42-1.213-1.032 1.544-2.337 2.9-3.841 3.986"/>
        <path fill="#EDEDED" d="M446.986 219.606l3.352-12.179c-2.178-3.78-3.352-7.98-3.352-12.346 0-13.271 10.896-24.19 24.222-24.19 13.327 0 24.39 10.919 24.39 24.19 0 13.27-11.063 24.525-24.39 24.525-4.19 0-8.214-1.344-11.818-3.36l-12.404 3.36z"/>
        <path fill="#55CD6C" d="M462.376 199.47l.845.47c3.473 2.161 7.509 3.477 11.732 3.477 12.295 0 22.525-10.24 22.525-22.736s-10.23-22.361-22.619-22.361c-12.388 0-22.432 9.959-22.432 22.361 0 4.321 1.22 8.55 3.473 12.118l.563.847-2.158 7.892 8.071-2.068z"/>
        <path fill="#FEFEFE" d="M467.22 168.01l-1.8-.095c-.57 0-1.138.188-1.517.568-.853.757-2.274 2.174-2.653 4.067-.663 2.836.379 6.242 2.843 9.646 2.464 3.404 7.203 8.89 15.543 11.254 2.653.757 4.738.285 6.443-.756 1.328-.851 2.18-2.175 2.465-3.594l.283-1.325c.096-.376-.094-.85-.473-1.04l-5.97-2.742c-.38-.19-.854-.095-1.138.284l-2.37 3.026c-.188.19-.472.284-.758.19-1.61-.568-7.012-2.838-9.95-8.513-.095-.283-.095-.567.094-.757l2.275-2.553c.189-.284.284-.662.189-.945l-2.748-6.148c-.095-.284-.379-.568-.758-.568"/>
        <path fill="#0096FF" d="M513.985 276.392h-5.266c-.623 0-1.316.82-1.316 1.916v3.806h6.582v5.424h-6.582v16.288h-6.218v-16.288h-5.635v-5.424h5.635v-3.194c0-4.577 3.175-8.301 7.534-8.301h5.266v5.773z"/>
        <path fill="#FE7F50" d="M298.322 6.401L244.796 24.963 245.87 14.293z"/>
        <path fill="#FEC600" d="M298.322 6.401L237.209 1.698 254.531 26.889z"/>
        <path fill="#F39100" d="M298.322 6.401L247.914 17.266 244.796 24.963 243.43 10.747z"/>
        <path fill="#333" d="M237.848 26.307c.267-.118.429-.41.371-.709-.066-.348-.402-.578-.75-.511-1.046.201-2.092.387-3.141.56-.35.057-.586.386-.53.737.058.35.388.588.738.53 1.06-.175 2.119-.362 3.174-.564.049-.01.094-.024.138-.043M179.732 7.876c-.286-.21-.348-.611-.138-.899 1.245-1.706 2.931-3.213 4.88-4.358.303-.178.697-.078.877.229.178.305.077.7-.23.879-1.796 1.057-3.35 2.444-4.493 4.01-.069.095-.158.165-.258.208-.202.09-.446.071-.638-.069m17.13-5.768c-1.825-.415-3.664-.555-5.466-.419-.198.016-.396.037-.593.06-.352.044-.672-.207-.715-.558-.042-.352.208-.675.559-.717.216-.026.433-.048.653-.066 1.928-.147 3.895.003 5.845.446.346.077.562.422.484.769-.047.207-.189.367-.368.446-.121.054-.26.07-.4.039m-17.65 17.402c-.431-.603-.797-1.246-1.09-1.912-.152-.35-.29-.713-.407-1.087-.342-1.089-.487-2.213-.435-3.342.018-.356.316-.63.67-.613.355.017.628.317.611.672-.046.978.082 1.953.378 2.897.103.331.223.649.358.956.256.584.577 1.15.957 1.682.207.288.14.69-.147.895-.038.028-.076.05-.116.068-.272.12-.6.036-.779-.216m28.042-11.293c-1.346-1.51-2.937-2.809-4.724-3.857-.305-.18-.409-.573-.229-.88.179-.308.574-.41.878-.23 1.902 1.117 3.595 2.5 5.032 4.112.236.265.213.67-.052.908-.051.045-.109.081-.169.108-.247.11-.547.054-.736-.161m-16.947 17.742c-2.315-.593-4.353-1.35-6.054-2.249-.314-.166-.434-.554-.268-.869.165-.313.554-.434.867-.269 1.613.853 3.555 1.573 5.773 2.142.344.088.55.438.462.783-.05.198-.189.352-.363.429-.127.055-.272.07-.417.033m22.244-6.05c-.354.025-.66-.24-.687-.595-.15-2.077-.615-4.078-1.381-5.943-.134-.33-.014-.694.35-.84.327-.134.702.022.837.351.817 1.991 1.314 4.125 1.474 6.339.02.279-.14.528-.38.635-.067.028-.138.047-.213.052m-9.672 8.033c-2.1-.207-4.22-.471-6.302-.784-.351-.055-.592-.382-.54-.733.054-.35.378-.592.73-.54 2.061.312 4.159.572 6.237.777.353.035.61.349.576.703-.024.239-.176.434-.381.525-.097.043-.207.062-.32.052m6.38 3.984c-.301-.188-.392-.585-.205-.886.512-.824.96-1.693 1.34-2.597-.394-.015-.787-.03-1.18-.048-.354-.016-.628-.317-.612-.671.016-.355.316-.63.67-.612.533.023 1.067.045 1.602.06.194-.575.363-1.164.505-1.764.082-.349.427-.562.772-.479.345.083.558.43.476.774-.12.511-.259 1.012-.415 1.506 1.116.025 2.234.032 3.344.026.353-.002.642.283.646.638.002.355-.283.642-.638.647-1.262.008-2.533-.004-3.803-.036-.443 1.134-.984 2.215-1.619 3.236-.07.114-.171.198-.285.248-.188.083-.411.074-.599-.042M164.53 53.922c-.18-.307-.078-.7.227-.88 1.833-1.085 3.721-2.1 5.612-3.016.305-.177.703-.022.857.297.156.32.022.703-.297.859-1.86.904-3.717 1.9-5.52 2.966-.021.014-.045.026-.067.035-.295.13-.645.022-.812-.261m18.086-7.257c-.968.298-1.927.601-2.873.918-1.032.345-2.055.713-3.068 1.103-.331.127-.702-.038-.83-.37-.126-.333.044-.718.37-.831 1.031-.397 2.071-.77 3.121-1.12.955-.32 1.925-.628 2.904-.93.339-.102.697.086.801.428.096.314-.06.645-.354.776-.023.01-.047.018-.07.026M228.24 27.78c-2.089.23-4.218.41-6.328.534-.354.02-.658-.251-.678-.605-.02-.354.248-.659.603-.68 2.088-.121 4.195-.3 6.263-.528.35-.04.669.215.707.569.032.285-.13.548-.38.66-.056.024-.12.042-.187.05m-28.553 12.208c-.166-.313-.048-.703.265-.869 1.968-1.052 3.639-2.18 5.107-3.454.269-.236.672-.204.904.065.233.269.203.675-.065.906-1.54 1.337-3.289 2.52-5.343 3.617l-.044.022c-.305.134-.666.013-.824-.287m-4.986 2.855c-2.162.805-4.361 1.495-6.034 2.005-.34.103-.698-.089-.8-.429-.103-.339.083-.705.427-.802 1.655-.505 3.83-1.186 5.96-1.979.332-.124.701.045.825.379.118.32-.034.677-.343.812l-.035.014m-40.444 18.43c-.226-.273-.187-.678.085-.904 1.638-1.354 3.34-2.655 5.063-3.868.29-.208.69-.134.894.155.203.292.134.693-.156.896-1.696 1.194-3.372 2.476-4.983 3.809-.047.038-.097.068-.151.093-.256.112-.566.047-.752-.18m-9.033 8.84c-.264-.236-.286-.642-.05-.906 1.415-1.585 2.901-3.132 4.417-4.592.253-.244.661-.237.907.017.245.255.238.662-.017.908-1.494 1.44-2.958 2.962-4.351 4.523-.063.072-.138.124-.22.16-.223.098-.493.065-.686-.11m-7.615 10.094c-.296-.194-.379-.593-.185-.89 1.161-1.77 2.401-3.52 3.688-5.199.216-.284.618-.334.9-.118.281.216.333.619.117.901-1.267 1.654-2.489 3.376-3.632 5.122-.07.108-.168.186-.278.236-.192.083-.422.073-.61-.052m-6.027 11.119c-.322-.147-.464-.529-.317-.853.877-1.918 1.843-3.834 2.87-5.694.171-.31.561-.423.872-.251.31.171.422.563.25.874-1.012 1.832-1.963 3.718-2.824 5.606-.069.15-.187.261-.326.322-.161.072-.352.076-.525-.004m-4.252 11.911c-.342-.095-.54-.45-.445-.791.567-2.038 1.225-4.081 1.955-6.073.123-.334.49-.504.823-.382.332.122.503.49.381.826-.718 1.96-1.366 3.97-1.924 5.974-.054.193-.19.34-.36.416-.131.057-.282.072-.43.03m-2.275 12.44c-.353-.038-.608-.354-.57-.707.223-2.1.539-4.224.94-6.312.068-.35.405-.577.751-.51.348.067.576.404.51.752-.395 2.053-.707 4.14-.926 6.206-.026.237-.177.431-.38.521-.1.043-.21.063-.325.05m-.144 12.65c-.354.022-.659-.246-.681-.6-.137-2.128-.187-4.276-.145-6.383.007-.353.297-.637.653-.63.355.007.637.3.63.654-.041 2.073.007 4.183.142 6.277.018.275-.142.523-.381.63-.068.028-.14.045-.218.052m1.944 12.499c-.344.079-.688-.137-.769-.483-.477-2.07-.874-4.18-1.182-6.27-.053-.352.193-.675.54-.73.351-.052.677.191.73.542.302 2.057.694 4.132 1.162 6.17.071.305-.09.61-.366.732-.036.016-.074.029-.115.039m3.87 12.042c-.33.131-.702-.027-.834-.359-.786-1.967-1.505-3.99-2.136-6.008-.107-.338.07-.689.42-.806.338-.107.698.083.804.42.622 1.989 1.33 3.98 2.103 5.918.128.323-.021.688-.337.826l-.02.009m4.758 11.092c-1.068-1.828-2.08-3.72-3.01-5.62-.155-.319-.023-.705.295-.86.307-.17.702-.025.858.294.914 1.873 1.912 3.736 2.964 5.537.179.306.076.7-.23.879-.021.013-.044.024-.066.034-.294.13-.646.02-.811-.264m7.229 10.492c-1.325-1.642-2.606-3.363-3.811-5.111-.2-.292-.128-.692.163-.895.293-.198.692-.127.893.165 1.186 1.722 2.449 3.415 3.752 5.033.223.276.18.681-.095.904-.046.037-.094.066-.146.09-.258.112-.57.044-.756-.186m8.723 9.28c-1.556-1.416-3.085-2.922-4.541-4.474-.243-.258-.23-.665.028-.907.255-.245.663-.233.906.027 1.434 1.527 2.938 3.008 4.47 4.404.261.238.28.645.042.907-.062.07-.136.122-.215.157-.226.099-.497.062-.69-.114m10.069 7.8c-1.764-1.15-3.51-2.394-5.193-3.696-.279-.217-.33-.622-.114-.902.217-.28.62-.332.9-.115 1.653 1.282 3.372 2.504 5.108 3.635.295.194.38.593.187.89-.07.11-.169.189-.28.237-.19.085-.419.074-.608-.048M170.517 196.317c.136-.06.251-.167.32-.311.153-.321.018-.704-.301-.857-.958-.461-1.906-.942-2.841-1.443-.312-.167-.701-.05-.868.264-.167.313-.05.704.263.87.951.51 1.916 1 2.892 1.467.175.085.37.081.535.01"/>
        <path fill="#CCC" d="M600.315 91.625c0 4.993-4.033 9.04-9.016 9.04H343.054c-4.982 0-9.015-4.047-9.015-9.04V25.35c0-4.992 4.033-9.037 9.015-9.037h248.245c4.983 0 9.016 4.045 9.016 9.037v66.276z"/>
        <path fill="#FFF" d="M595.057 91.625c0 4.993-4.037 9.04-9.02 9.04H337.79c-4.982 0-9.014-4.047-9.014-9.04V25.35c0-4.992 4.032-9.037 9.014-9.037h248.245c4.984 0 9.02 4.045 9.02 9.037v66.276z"/>
        <path fill="#0096FF" d="M363.712 56.7v18.723c0 1.071.062 2.273-.337 2.765-.16.197-.309.267-.46.35-.55.28-1.867.144-2.748.144h-7.185c-.515 0-1.02.045-1.315-.103-.231-.103-.605-.487-.695-.668-.289-.622-.11-2.072-.11-2.961V55.225c0-.553-.046-1.108.086-1.438.167-.465.653-.787 1.195-.86.77-.12 1.891-.043 2.76-.043h5.4c.819 0 1.924-.106 2.533.158.284.11.58.341.72.658.255.582.156 2.011.156 3M395.428 58.368c.806.56 1.723 1.498 1.85 2.764.165 1.59-.535 2.925-1.579 3.472-.41.228-.891.286-1.322.52.032.347.353.45.52.593.383.28.835.754 1.066 1.237.801 1.75.098 3.629-1.09 4.353-.337.202-.719.276-1.024.487.004.355.342.411.482.58.616.656 1.076 2.271.603 3.498-.345.93-1.299 1.76-2.375 1.87-1.044.112-2.155-.008-3.248 0-6.281.03-12.806.03-19.38.03-1.545 0-3.136.328-3.736-.553-.407-.635-.292-1.833-.292-2.817v-9.227c0-2.061-.079-4.203 0-6.189.292-7.892 4-12.371 7.873-16.704.424-.466.97-1.075 1.48-1.586.496-.507 1.249-1.134 1.393-1.682.12-.378.032-.865.05-1.313.004-.437.004-.894.028-1.299.041-.873-.024-1.776.12-2.557.225-1.232 1.236-2.15 2.412-2.28 1.757-.175 3.043.911 3.626 1.934 1.184 2.042 1.706 5.475 1.06 8.597-.283 1.323-.821 2.608-1.318 3.81-.337.807-.736 1.802-1.173 2.673-.134.296-.402.705-.385.878.103.528 1.447.458 2.075.458 2.538 0 4.983-.025 7.524-.025 1.698 0 3.523-.244 4.648.293 1.098.511 1.884 1.536 2 3.031.13 1.76-.424 3.132-1.476 3.934-.317.249-.56.294-1.087.598.055.346.43.441.675.622"/>
        <path fill="#FFC73C" d="M429.396 45.064c.36-.877.957-.877 1.315 0l2.75 6.68c.36.883 1.433 1.659 2.382 1.736l7.197.548c.948.077 1.132.637.404 1.259l-5.491 4.696c-.721.617-1.132 1.878-.904 2.805l1.69 7.033c.227.92-.249 1.271-1.065.776l-6.146-3.794c-.81-.501-2.139-.501-2.94 0l-6.154 3.794c-.808.495-1.286.144-1.065-.776l1.69-7.033c.22-.927-.191-2.188-.911-2.805l-5.484-4.696c-.728-.617-.545-1.182.405-1.259l7.188-.548c.95-.077 2.023-.853 2.382-1.735l2.757-6.681zM463.696 45.064c.36-.877.963-.877 1.316 0l2.749 6.68c.362.883 1.434 1.659 2.382 1.736l7.197.548c.948.077 1.133.637.403 1.259l-5.49 4.696c-.72.617-1.133 1.878-.905 2.805l1.692 7.033c.227.92-.25 1.271-1.067.776l-6.144-3.794c-.81-.501-2.14-.501-2.95 0l-6.144 3.794c-.808.495-1.294.144-1.066-.776l1.69-7.033c.229-.927-.183-2.188-.911-2.805l-5.484-4.696c-.727-.617-.544-1.182.405-1.259l7.19-.548c.948-.077 2.02-.853 2.38-1.735l2.757-6.681zM497.996 45.064c.361-.877.963-.877 1.315 0l2.75 6.68c.362.883 1.434 1.659 2.383 1.736l7.196.548c.942.077 1.134.637.405 1.259l-5.492 4.696c-.72.617-1.132 1.878-.904 2.805l1.692 7.033c.234.92-.25 1.271-1.067.776l-6.146-3.794c-.807-.501-2.14-.501-2.947 0l-6.145 3.794c-.809.495-1.295.144-1.067-.776l1.692-7.033c.227-.927-.192-2.188-.914-2.805l-5.482-4.696c-.729-.617-.537-1.182.403-1.259l7.197-.548c.942-.077 2.014-.853 2.374-1.735l2.757-6.681zM532.303 45.064c.362-.877.957-.877 1.309 0l2.75 6.68c.368.883 1.433 1.659 2.382 1.736l7.196.548c.95.077 1.131.637.412 1.259l-5.492 4.696c-.727.617-1.139 1.878-.91 2.805l1.698 7.033c.227.92-.258 1.271-1.067.776l-6.146-3.794c-.814-.501-2.138-.501-2.946 0l-6.152 3.794c-.802.495-1.287.144-1.068-.776l1.7-7.033c.219-.927-.192-2.188-.92-2.805l-5.484-4.696c-.722-.617-.538-1.182.405-1.259l7.196-.548c.948-.077 2.02-.853 2.382-1.735l2.755-6.681zM566.597 45.064c.361-.877.955-.877 1.315 0l2.75 6.68c.36.883 1.434 1.659 2.383 1.736l7.197.548c.948.077 1.13.637.404 1.259l-5.492 4.696c-.72.617-1.132 1.878-.904 2.805l1.692 7.033c.226.92-.25 1.271-1.068.776l-6.145-3.794c-.81-.501-2.14-.501-2.94 0l-6.154 3.794c-.807.495-1.285.144-1.065-.776l1.692-7.033c.22-.927-.192-2.188-.914-2.805l-5.482-4.696c-.73-.617-.545-1.182.404-1.259l7.189-.548c.95-.077 2.021-.853 2.381-1.735l2.757-6.681z"/>
        <path fill="#0096FF" d="M138.81 419.813L131.99 426.944 131.99 446.028 138.81 446.028zM149.883 408.717L143.063 415.256 143.063 446.028 149.883 446.028zM160.956 408.717L154.136 402.774 154.136 446.028 160.956 446.028zM172.03 410.501L168.619 414.066 165.209 411.689 165.209 446.028 172.03 446.028zM183.103 399.802L176.283 406.934 176.283 446.028 183.103 446.028zM194.176 400.397L187.356 395.048 187.356 446.028 194.176 446.028zM205.249 403.368L198.429 405.746 198.429 446.028 205.249 446.028zM216.323 391.481L209.503 398.02 209.503 446.028 216.323 446.028z"/>
        <path fill="#0096FF" d="M209.502 401.664L216.323 394.829 216.323 391.482 209.502 398.02z"/>
        <path fill="#FF3453" d="M224.136 380.927l-22.028 22.152c-.53-.267-1.107-.452-1.742-.452-.601 0-1.157.159-1.667.399l-7.171-7.185c.055-.265.16-.512.16-.794 0-2.182-1.767-3.951-3.944-3.951-2.18 0-3.944 1.77-3.944 3.951 0 .537.111 1.045.304 1.51l-14.957 14.988c-.292-.07-.568-.179-.882-.179-.503 0-.976.115-1.419.286l-7.126-7.139c.114-.368.231-.738.231-1.145 0-2.182-1.766-3.952-3.944-3.952s-3.944 1.77-3.944 3.952c0 .445.118.856.253 1.255l-28.665 28.72v4.31l30.619-30.78c.53.265 1.105.447 1.737.447.668 0 1.268-.208 1.82-.502l6.863 6.876c-.226.499-.368 1.042-.368 1.624 0 2.182 1.765 3.953 3.943 3.953 2.18 0 3.945-1.77 3.945-3.953 0-.75-.265-1.414-.628-2.01l14.603-14.635c.479.207 1.004.327 1.559.327.776 0 1.46-.284 2.07-.672l6.882 6.893c-.158.427-.273.877-.273 1.359 0 2.182 1.765 3.952 3.943 3.952s3.944-1.77 3.944-3.952c0-.44-.118-.847-.25-1.244l20.076-20.12v-4.289z"/>
    </g>
</svg>
