<svg xmlns="http://www.w3.org/2000/svg" xmlns:xlink="http://www.w3.org/1999/xlink" width="773" height="433" viewBox="0 0 773 433">
    <defs>
        <path id="prefix__a" d="M388.497.088c-39.37.092-78.23 11.287-109.046 35.874-27.628 22.044-45.963 54.075-71.793 78.14-29.322 27.317-67.54 40.5-105.307 51.472-26.643 7.74-52.038 18.95-76.347 32.319-50.37 27.704-13.178 66.498 7.961 147.434 0 0 167.182-6.203 264.662-5.845 0 0 67.637 89.364 80.843 89.412 135.796.5 142.109 1.685 142.29 1.86l12.704-24.924c32.309-63.382 71.579-117.985 68.137-192.471-3.17-68.617-33.963-135.389-91.146-175.44C477.069 13.836 433.017.196 389.505.09h-1.008z"/>
        <path id="prefix__d" d="M.096 5.256l13.34.31c.127-1.175.26-1.944.26-1.944S8.574.266 4.613.266c-2.36 0-4.308 1.19-4.518 4.99"/>
        <path id="prefix__f" d="M.597 5.497l13.526.181c.117-1.208.244-1.996.244-1.996S9.207.336 5.202.336C2.776.335.775 1.561.597 5.497"/>
        <path id="prefix__h" d="M0 432L772.813 432 772.813 0.088 0 0.088z"/>
        <path id="prefix__j" d="M1.368.582c-.327 0-.593.232-.593.519v.4h6.657v-.69c0-.126-.117-.229-.26-.229H1.367z"/>
        <path id="prefix__m" d="M1.35.582c-.326 0-.591.232-.591.519v.4h6.656v-.69c0-.126-.117-.229-.26-.229H1.35z"/>
        <path id="prefix__p" d="M1.333.582c-.328 0-.594.232-.594.519v.4h6.659v-.69c0-.126-.118-.229-.263-.229H1.333z"/>
        <path id="prefix__s" d="M1.314.582c-.327 0-.592.232-.592.519v.4h6.656v-.69c0-.126-.115-.229-.261-.229H1.314z"/>
        <path id="prefix__v" d="M1.574.582c-.343 0-.624.232-.624.519v.4h4.085v-.69c0-.126-.121-.229-.272-.229H1.574z"/>
        <path id="prefix__y" d="M1.409.582c-.343 0-.622.232-.622.519v.4h4.086v-.69c0-.126-.123-.229-.275-.229h-3.19z"/>
        <path id="prefix__B" d="M1.538.582c-.344 0-.622.232-.622.519v.4H5v-.69c0-.126-.12-.229-.274-.229H1.538z"/>
        <path id="prefix__E" d="M.59.632c-.321 0-.583.23-.583.512v.393H6.56V.856c0-.124-.114-.224-.256-.224H.59z"/>
        <path id="prefix__H" d="M.696.632c-.322 0-.584.23-.584.512v.393h6.554V.856c0-.124-.115-.224-.257-.224H.696z"/>
        <path id="prefix__K" d="M.672.632c-.33 0-.597.23-.597.512v.393h6.693V.856c0-.124-.118-.224-.264-.224H.672z"/>
        <path id="prefix__N" d="M.78.632c-.33 0-.597.23-.597.512v.393h6.691V.856c0-.124-.117-.224-.262-.224H.779z"/>
        <path id="prefix__Q" d="M.918.632c-.281 0-.511.23-.511.512v.393h3.352V.856c0-.124-.101-.224-.225-.224H.918z"/>
        <path id="prefix__T" d="M.846.632c-.283 0-.511.23-.511.512v.393h3.351V.856c0-.124-.101-.224-.225-.224H.846z"/>
        <path id="prefix__W" d="M1.013.632c-.284 0-.512.23-.512.512v.393h3.352V.856c0-.124-.1-.224-.226-.224H1.013z"/>
        <path id="prefix__Z" d="M1.01.601C.866.601.75.703.75.829v.691h6.658v-.401c0-.286-.265-.518-.592-.518H1.01z"/>
        <path id="prefix__ac" d="M1.03.601C.886.601.77.703.77.829v.691H7.43v-.401c0-.286-.267-.518-.594-.518H1.03z"/>
        <path id="prefix__af" d="M1.051.601c-.145 0-.26.102-.26.228v.691h6.658v-.401c0-.286-.265-.518-.592-.518H1.051z"/>
        <path id="prefix__ai" d="M1.073.601C.93.601.811.703.811.829v.691h6.66v-.401c0-.286-.266-.518-.594-.518H1.073z"/>
        <path id="prefix__al" d="M.442.601C.292.601.17.703.17.829v.691h4.086v-.401c0-.286-.28-.518-.624-.518H.442z"/>
        <path id="prefix__ao" d="M.34.601C.214.601.111.703.111.829v.691h3.406v-.401c0-.286-.233-.518-.521-.518H.34z"/>
        <path id="prefix__ar" d="M.234.601C.108.601.005.703.005.829v.691h3.406v-.401c0-.286-.232-.518-.518-.518H.234z"/>
        <path id="prefix__au" d="M0 432L772.813 432 772.813 0.088 0 0.088z"/>
        <path id="prefix__aw" d="M.453.601C.306.601.187.703.187.829v.691h6.798v-.401c0-.286-.27-.518-.606-.518H.453z"/>
        <path id="prefix__az" d="M.465.601c-.144 0-.26.102-.26.228v.691h6.658v-.401c0-.286-.266-.518-.593-.518H.465z"/>
        <path id="prefix__aC" d="M.487.601C.342.601.225.703.225.829v.691h6.66v-.401c0-.286-.268-.518-.594-.518H.487z"/>
        <path id="prefix__aF" d="M.507.601c-.145 0-.26.102-.26.228v.691h6.658v-.401c0-.286-.265-.518-.593-.518H.507z"/>
        <path id="prefix__aI" d="M.707.601C.581.601.478.703.478.829v.691h3.406v-.401c0-.286-.232-.518-.519-.518H.707z"/>
        <path id="prefix__aL" d="M1.014.601C.863.601.739.703.739.829v.691h4.086v-.401c0-.286-.278-.518-.621-.518h-3.19z"/>
        <path id="prefix__aO" d="M.74.601C.613.601.511.703.511.829v.691h3.406v-.401c0-.286-.233-.518-.52-.518H.74z"/>
        <path id="prefix__aR" d="M41.938 33.283c5.392 0 46.114 3.805 48.495 4.373-21.062-.055-60.41-.131-76.263.044-22.185.243-10.874-25.498-10.874-36.092 0 0 4.035-.393 9.825-.793"/>
        <path id="prefix__aT" d="M0 432L772.813 432 772.813 0.088 0 0.088z"/>
        <path id="prefix__aV" d="M10.433 2.218c-2.943 2.48-.73 7.58-3.264 10.034-2.24 2.17-5.092 1.812-6.238 5.413-1.684 5.3 3.629 9.942 5.335 14.524 1.433 3.845-1.788 5.31-3.235 8.307-1.115 2.31-.542 4.784.675 6.992 2.142 3.893 6.894 7.03 5.793 12.07-.92 4.21-1.774 7.96 1.978 11.15 2.571 2.185 7.343 4.178 6.98 8.225-.13 1.432-1.132 2.652-1.406 4.064-.434 2.234 1.029 4.41 2.727 5.942 3.863 3.49 7.254 6.78 10.149 11.17 1.235 1.876 6.187 6.112 4.208 8.675 3.597-4.66 7.398-9.182 10.664-14.083 2.688-4.03 6.74-9.924 3.981-14.889-.856-1.543-2.451-2.695-2.89-4.404-.789-3.084 2.274-5.944 3.412-8.568 1.786-4.12.475-8.905-2.672-12-1.49-1.462-3.107-3.07-3.325-5.137-.239-2.258 1.189-4.36 1.838-6.44.598-1.92.97-3.96 1.187-5.952.155-1.408.214-2.847-.12-4.223-.636-2.617-3.016-4.072-4.778-5.929-4.196-4.422-1.99-9.62-3.823-14.757-1.466-4.109-4.466-4.063-7.521-4.02-.375.006-.75.011-1.121.009-2.219-.013-4.371-.295-5.892-2.449C21.021 3.03 18.225.325 15.014.325c-1.453 0-2.99.553-4.581 1.893"/>
        <path id="prefix__aX" d="M10.433 2.218c-2.943 2.48-.73 7.58-3.264 10.034-2.24 2.17-5.092 1.812-6.238 5.413-1.684 5.3 3.629 9.942 5.335 14.524 1.433 3.845-1.788 5.31-3.235 8.307-1.115 2.31-.542 4.784.675 6.992 2.142 3.893 6.894 7.03 5.793 12.07-.92 4.21-1.774 7.96 1.978 11.15 2.571 2.185 7.343 4.178 6.98 8.225-.13 1.432-1.132 2.652-1.406 4.064-.434 2.234 1.029 4.41 2.727 5.942 3.863 3.49 7.254 6.78 10.149 11.17 1.235 1.876 6.187 6.112 4.208 8.675 3.597-4.66 7.398-9.182 10.664-14.083 2.688-4.03 6.74-9.924 3.981-14.889-.856-1.543-2.451-2.695-2.89-4.404-.789-3.084 2.274-5.944 3.412-8.568 1.786-4.12.475-8.905-2.672-12-1.49-1.462-3.107-3.07-3.325-5.137-.239-2.258 1.189-4.36 1.838-6.44.598-1.92.97-3.96 1.187-5.952.155-1.408.214-2.847-.12-4.223-.636-2.617-3.016-4.072-4.778-5.929-4.196-4.422-1.99-9.62-3.823-14.757-1.466-4.109-4.466-4.063-7.521-4.02-.375.006-.75.011-1.121.009-2.219-.013-4.371-.295-5.892-2.449C21.021 3.03 18.225.325 15.014.325c-1.453 0-2.99.553-4.581 1.893"/>
        <path id="prefix__aZ" d="M10.433 2.218c-2.943 2.48-.73 7.58-3.264 10.034-2.24 2.17-5.092 1.812-6.238 5.413-1.684 5.3 3.629 9.942 5.335 14.524 1.433 3.845-1.788 5.31-3.235 8.307-1.115 2.31-.542 4.784.675 6.992 2.142 3.893 6.894 7.03 5.793 12.07-.92 4.21-1.774 7.96 1.978 11.15 2.571 2.185 7.343 4.178 6.98 8.225-.13 1.432-1.132 2.652-1.406 4.064-.434 2.234 1.029 4.41 2.727 5.942 3.863 3.49 7.254 6.78 10.149 11.17 1.235 1.876 6.187 6.112 4.208 8.675 3.597-4.66 7.398-9.182 10.664-14.083 2.688-4.03 6.74-9.924 3.981-14.889-.856-1.543-2.451-2.695-2.89-4.404-.789-3.084 2.274-5.944 3.412-8.568 1.786-4.12.475-8.905-2.672-12-1.49-1.462-3.107-3.07-3.325-5.137-.239-2.258 1.189-4.36 1.838-6.44.598-1.92.97-3.96 1.187-5.952.155-1.408.214-2.847-.12-4.223-.636-2.617-3.016-4.072-4.778-5.929-4.196-4.422-1.99-9.62-3.823-14.757-1.466-4.109-4.466-4.063-7.521-4.02-.375.006-.75.011-1.121.009-2.219-.013-4.371-.295-5.892-2.449C21.021 3.03 18.225.325 15.014.325c-1.453 0-2.99.553-4.581 1.893"/>
        <path id="prefix__bb" d="M10.433 2.218c-2.943 2.48-.73 7.58-3.264 10.034-2.24 2.17-5.092 1.812-6.238 5.413-1.684 5.3 3.629 9.942 5.335 14.524 1.433 3.845-1.788 5.31-3.235 8.307-1.115 2.31-.542 4.784.675 6.992 2.142 3.893 6.894 7.03 5.793 12.07-.92 4.21-1.774 7.96 1.978 11.15 2.571 2.185 7.343 4.178 6.98 8.225-.13 1.432-1.132 2.652-1.406 4.064-.434 2.234 1.029 4.41 2.727 5.942 3.863 3.49 7.254 6.78 10.149 11.17 1.235 1.876 6.187 6.112 4.208 8.675 3.597-4.66 7.398-9.182 10.664-14.083 2.688-4.03 6.74-9.924 3.981-14.889-.856-1.543-2.451-2.695-2.89-4.404-.789-3.084 2.274-5.944 3.412-8.568 1.786-4.12.475-8.905-2.672-12-1.49-1.462-3.107-3.07-3.325-5.137-.239-2.258 1.189-4.36 1.838-6.44.598-1.92.97-3.96 1.187-5.952.155-1.408.214-2.847-.12-4.223-.636-2.617-3.016-4.072-4.778-5.929-4.196-4.422-1.99-9.62-3.823-14.757-1.466-4.109-4.466-4.063-7.521-4.02-.375.006-.75.011-1.121.009-2.219-.013-4.371-.295-5.892-2.449C21.021 3.03 18.225.325 15.014.325c-1.453 0-2.99.553-4.581 1.893"/>
        <path id="prefix__bd" d="M10.433 2.218c-2.943 2.48-.73 7.58-3.264 10.034-2.24 2.17-5.092 1.812-6.238 5.413-1.684 5.3 3.629 9.942 5.335 14.524 1.433 3.845-1.788 5.31-3.235 8.307-1.115 2.31-.542 4.784.675 6.992 2.142 3.893 6.894 7.03 5.793 12.07-.92 4.21-1.774 7.96 1.978 11.15 2.571 2.185 7.343 4.178 6.98 8.225-.13 1.432-1.132 2.652-1.406 4.064-.434 2.234 1.029 4.41 2.727 5.942 3.863 3.49 7.254 6.78 10.149 11.17 1.235 1.876 6.187 6.112 4.208 8.675 3.597-4.66 7.398-9.182 10.664-14.083 2.688-4.03 6.74-9.924 3.981-14.889-.856-1.543-2.451-2.695-2.89-4.404-.789-3.084 2.274-5.944 3.412-8.568 1.786-4.12.475-8.905-2.672-12-1.49-1.462-3.107-3.07-3.325-5.137-.239-2.258 1.189-4.36 1.838-6.44.598-1.92.97-3.96 1.187-5.952.155-1.408.214-2.847-.12-4.223-.636-2.617-3.016-4.072-4.778-5.929-4.196-4.422-1.99-9.62-3.823-14.757-1.466-4.109-4.466-4.063-7.521-4.02-.375.006-.75.011-1.121.009-2.219-.013-4.371-.295-5.892-2.449C21.021 3.03 18.225.325 15.014.325c-1.453 0-2.99.553-4.581 1.893"/>
        <path id="prefix__bf" d="M10.433 2.218c-2.943 2.48-.73 7.58-3.264 10.034-2.24 2.17-5.092 1.812-6.238 5.413-1.684 5.3 3.629 9.942 5.335 14.524 1.433 3.845-1.788 5.31-3.235 8.307-1.115 2.31-.542 4.784.675 6.992 2.142 3.893 6.894 7.03 5.793 12.07-.92 4.21-1.774 7.96 1.978 11.15 2.571 2.185 7.343 4.178 6.98 8.225-.13 1.432-1.132 2.652-1.406 4.064-.434 2.234 1.029 4.41 2.727 5.942 3.863 3.49 7.254 6.78 10.149 11.17 1.235 1.876 6.187 6.112 4.208 8.675 3.597-4.66 7.398-9.182 10.664-14.083 2.688-4.03 6.74-9.924 3.981-14.889-.856-1.543-2.451-2.695-2.89-4.404-.789-3.084 2.274-5.944 3.412-8.568 1.786-4.12.475-8.905-2.672-12-1.49-1.462-3.107-3.07-3.325-5.137-.239-2.258 1.189-4.36 1.838-6.44.598-1.92.97-3.96 1.187-5.952.155-1.408.214-2.847-.12-4.223-.636-2.617-3.016-4.072-4.778-5.929-4.196-4.422-1.99-9.62-3.823-14.757-1.466-4.109-4.466-4.063-7.521-4.02-.375.006-.75.011-1.121.009-2.219-.013-4.371-.295-5.892-2.449C21.021 3.03 18.225.325 15.014.325c-1.453 0-2.99.553-4.581 1.893"/>
        <path id="prefix__bh" d="M10.433 2.218c-2.943 2.48-.73 7.58-3.264 10.034-2.24 2.17-5.092 1.812-6.238 5.413-1.684 5.3 3.629 9.942 5.335 14.524 1.433 3.845-1.788 5.31-3.235 8.307-1.115 2.31-.542 4.784.675 6.992 2.142 3.893 6.894 7.03 5.793 12.07-.92 4.21-1.774 7.96 1.978 11.15 2.571 2.185 7.343 4.178 6.98 8.225-.13 1.432-1.132 2.652-1.406 4.064-.434 2.234 1.029 4.41 2.727 5.942 3.863 3.49 7.254 6.78 10.149 11.17 1.235 1.876 6.187 6.112 4.208 8.675 3.597-4.66 7.398-9.182 10.664-14.083 2.688-4.03 6.74-9.924 3.981-14.889-.856-1.543-2.451-2.695-2.89-4.404-.789-3.084 2.274-5.944 3.412-8.568 1.786-4.12.475-8.905-2.672-12-1.49-1.462-3.107-3.07-3.325-5.137-.239-2.258 1.189-4.36 1.838-6.44.598-1.92.97-3.96 1.187-5.952.155-1.408.214-2.847-.12-4.223-.636-2.617-3.016-4.072-4.778-5.929-4.196-4.422-1.99-9.62-3.823-14.757-1.466-4.109-4.466-4.063-7.521-4.02-.375.006-.75.011-1.121.009-2.219-.013-4.371-.295-5.892-2.449C21.021 3.03 18.225.325 15.014.325c-1.453 0-2.99.553-4.581 1.893"/>
        <path id="prefix__bj" d="M30.553 3.067c-1.399 1.354-2.992 1.263-4.596.97-2.473-.453-4.967-1.395-6.797 1.725-2.04 3.474-1.172 7.546-4.815 10.178-1.532 1.106-3.454 1.833-4.278 3.645-.431.951-.59 2.004-.675 3.046-.119 1.475-.134 3.005.031 4.478.178 1.598.918 3.318.43 4.922-.445 1.47-1.836 2.413-3.115 3.27-2.704 1.812-4.316 5.103-3.6 8.336.456 2.059 2.269 4.552 1.27 6.682-.553 1.177-1.865 1.794-2.7 2.797-2.682 3.22-.577 8.052.803 11.343 1.677 4.001 3.792 7.8 5.74 11.673-1.072-2.132 3.092-4.524 4.246-5.715 2.7-2.786 5.61-4.707 8.885-6.71 1.439-.879 2.798-2.257 2.795-3.935-.002-1.062-.555-2.083-.45-3.14.302-2.984 4.024-3.775 6.185-5.01 3.153-1.8 3.058-4.635 2.98-7.812-.093-3.808 3.775-5.43 5.865-7.96 1.186-1.436 1.943-3.152 1.46-4.979-.627-2.37-2.75-3.874-1.18-6.467 1.87-3.09 6.353-5.727 5.873-9.8-.327-2.77-2.433-2.901-3.751-4.783-1.487-2.125.82-5.522-.96-7.723C38.993.607 37.677.023 36.357.023c-2.061 0-4.132 1.424-5.804 3.044"/>
        <path id="prefix__bl" d="M30.553 3.067c-1.399 1.354-2.992 1.263-4.596.97-2.473-.453-4.967-1.395-6.797 1.725-2.04 3.474-1.172 7.546-4.815 10.178-1.532 1.106-3.454 1.833-4.278 3.645-.431.951-.59 2.004-.675 3.046-.119 1.475-.134 3.005.031 4.478.178 1.598.918 3.318.43 4.922-.445 1.47-1.836 2.413-3.115 3.27-2.704 1.812-4.316 5.103-3.6 8.336.456 2.059 2.269 4.552 1.27 6.682-.553 1.177-1.865 1.794-2.7 2.797-2.682 3.22-.577 8.052.803 11.343 1.677 4.001 3.792 7.8 5.74 11.673-1.072-2.132 3.092-4.524 4.246-5.715 2.7-2.786 5.61-4.707 8.885-6.71 1.439-.879 2.798-2.257 2.795-3.935-.002-1.062-.555-2.083-.45-3.14.302-2.984 4.024-3.775 6.185-5.01 3.153-1.8 3.058-4.635 2.98-7.812-.093-3.808 3.775-5.43 5.865-7.96 1.186-1.436 1.943-3.152 1.46-4.979-.627-2.37-2.75-3.874-1.18-6.467 1.87-3.09 6.353-5.727 5.873-9.8-.327-2.77-2.433-2.901-3.751-4.783-1.487-2.125.82-5.522-.96-7.723C38.993.607 37.677.023 36.357.023c-2.061 0-4.132 1.424-5.804 3.044"/>
        <path id="prefix__bn" d="M30.553 3.067c-1.399 1.354-2.992 1.263-4.596.97-2.473-.453-4.967-1.395-6.797 1.725-2.04 3.474-1.172 7.546-4.815 10.178-1.532 1.106-3.454 1.833-4.278 3.645-.431.951-.59 2.004-.675 3.046-.119 1.475-.134 3.005.031 4.478.178 1.598.918 3.318.43 4.922-.445 1.47-1.836 2.413-3.115 3.27-2.704 1.812-4.316 5.103-3.6 8.336.456 2.059 2.269 4.552 1.27 6.682-.553 1.177-1.865 1.794-2.7 2.797-2.682 3.22-.577 8.052.803 11.343 1.677 4.001 3.792 7.8 5.74 11.673-1.072-2.132 3.092-4.524 4.246-5.715 2.7-2.786 5.61-4.707 8.885-6.71 1.439-.879 2.798-2.257 2.795-3.935-.002-1.062-.555-2.083-.45-3.14.302-2.984 4.024-3.775 6.185-5.01 3.153-1.8 3.058-4.635 2.98-7.812-.093-3.808 3.775-5.43 5.865-7.96 1.186-1.436 1.943-3.152 1.46-4.979-.627-2.37-2.75-3.874-1.18-6.467 1.87-3.09 6.353-5.727 5.873-9.8-.327-2.77-2.433-2.901-3.751-4.783-1.487-2.125.82-5.522-.96-7.723C38.993.607 37.677.023 36.357.023c-2.061 0-4.132 1.424-5.804 3.044"/>
        <path id="prefix__bp" d="M30.553 3.067c-1.399 1.354-2.992 1.263-4.596.97-2.473-.453-4.967-1.395-6.797 1.725-2.04 3.474-1.172 7.546-4.815 10.178-1.532 1.106-3.454 1.833-4.278 3.645-.431.951-.59 2.004-.675 3.046-.119 1.475-.134 3.005.031 4.478.178 1.598.918 3.318.43 4.922-.445 1.47-1.836 2.413-3.115 3.27-2.704 1.812-4.316 5.103-3.6 8.336.456 2.059 2.269 4.552 1.27 6.682-.553 1.177-1.865 1.794-2.7 2.797-2.682 3.22-.577 8.052.803 11.343 1.677 4.001 3.792 7.8 5.74 11.673-1.072-2.132 3.092-4.524 4.246-5.715 2.7-2.786 5.61-4.707 8.885-6.71 1.439-.879 2.798-2.257 2.795-3.935-.002-1.062-.555-2.083-.45-3.14.302-2.984 4.024-3.775 6.185-5.01 3.153-1.8 3.058-4.635 2.98-7.812-.093-3.808 3.775-5.43 5.865-7.96 1.186-1.436 1.943-3.152 1.46-4.979-.627-2.37-2.75-3.874-1.18-6.467 1.87-3.09 6.353-5.727 5.873-9.8-.327-2.77-2.433-2.901-3.751-4.783-1.487-2.125.82-5.522-.96-7.723C38.993.607 37.677.023 36.357.023c-2.061 0-4.132 1.424-5.804 3.044"/>
        <path id="prefix__br" d="M30.553 3.067c-1.399 1.354-2.992 1.263-4.596.97-2.473-.453-4.967-1.395-6.797 1.725-2.04 3.474-1.172 7.546-4.815 10.178-1.532 1.106-3.454 1.833-4.278 3.645-.431.951-.59 2.004-.675 3.046-.119 1.475-.134 3.005.031 4.478.178 1.598.918 3.318.43 4.922-.445 1.47-1.836 2.413-3.115 3.27-2.704 1.812-4.316 5.103-3.6 8.336.456 2.059 2.269 4.552 1.27 6.682-.553 1.177-1.865 1.794-2.7 2.797-2.682 3.22-.577 8.052.803 11.343 1.677 4.001 3.792 7.8 5.74 11.673-1.072-2.132 3.092-4.524 4.246-5.715 2.7-2.786 5.61-4.707 8.885-6.71 1.439-.879 2.798-2.257 2.795-3.935-.002-1.062-.555-2.083-.45-3.14.302-2.984 4.024-3.775 6.185-5.01 3.153-1.8 3.058-4.635 2.98-7.812-.093-3.808 3.775-5.43 5.865-7.96 1.186-1.436 1.943-3.152 1.46-4.979-.627-2.37-2.75-3.874-1.18-6.467 1.87-3.09 6.353-5.727 5.873-9.8-.327-2.77-2.433-2.901-3.751-4.783-1.487-2.125.82-5.522-.96-7.723C38.993.607 37.677.023 36.357.023c-2.061 0-4.132 1.424-5.804 3.044"/>
        <path id="prefix__bt" d="M30.553 3.067c-1.399 1.354-2.992 1.263-4.596.97-2.473-.453-4.967-1.395-6.797 1.725-2.04 3.474-1.172 7.546-4.815 10.178-1.532 1.106-3.454 1.833-4.278 3.645-.431.951-.59 2.004-.675 3.046-.119 1.475-.134 3.005.031 4.478.178 1.598.918 3.318.43 4.922-.445 1.47-1.836 2.413-3.115 3.27-2.704 1.812-4.316 5.103-3.6 8.336.456 2.059 2.269 4.552 1.27 6.682-.553 1.177-1.865 1.794-2.7 2.797-2.682 3.22-.577 8.052.803 11.343 1.677 4.001 3.792 7.8 5.74 11.673-1.072-2.132 3.092-4.524 4.246-5.715 2.7-2.786 5.61-4.707 8.885-6.71 1.439-.879 2.798-2.257 2.795-3.935-.002-1.062-.555-2.083-.45-3.14.302-2.984 4.024-3.775 6.185-5.01 3.153-1.8 3.058-4.635 2.98-7.812-.093-3.808 3.775-5.43 5.865-7.96 1.186-1.436 1.943-3.152 1.46-4.979-.627-2.37-2.75-3.874-1.18-6.467 1.87-3.09 6.353-5.727 5.873-9.8-.327-2.77-2.433-2.901-3.751-4.783-1.487-2.125.82-5.522-.96-7.723C38.993.607 37.677.023 36.357.023c-2.061 0-4.132 1.424-5.804 3.044"/>
        <path id="prefix__bv" d="M30.553 3.067c-1.399 1.354-2.992 1.263-4.596.97-2.473-.453-4.967-1.395-6.797 1.725-2.04 3.474-1.172 7.546-4.815 10.178-1.532 1.106-3.454 1.833-4.278 3.645-.431.951-.59 2.004-.675 3.046-.119 1.475-.134 3.005.031 4.478.178 1.598.918 3.318.43 4.922-.445 1.47-1.836 2.413-3.115 3.27-2.704 1.812-4.316 5.103-3.6 8.336.456 2.059 2.269 4.552 1.27 6.682-.553 1.177-1.865 1.794-2.7 2.797-2.682 3.22-.577 8.052.803 11.343 1.677 4.001 3.792 7.8 5.74 11.673-1.072-2.132 3.092-4.524 4.246-5.715 2.7-2.786 5.61-4.707 8.885-6.71 1.439-.879 2.798-2.257 2.795-3.935-.002-1.062-.555-2.083-.45-3.14.302-2.984 4.024-3.775 6.185-5.01 3.153-1.8 3.058-4.635 2.98-7.812-.093-3.808 3.775-5.43 5.865-7.96 1.186-1.436 1.943-3.152 1.46-4.979-.627-2.37-2.75-3.874-1.18-6.467 1.87-3.09 6.353-5.727 5.873-9.8-.327-2.77-2.433-2.901-3.751-4.783-1.487-2.125.82-5.522-.96-7.723C38.993.607 37.677.023 36.357.023c-2.061 0-4.132 1.424-5.804 3.044"/>
        <path id="prefix__bx" d="M0.835 0.666L33.552 0.666 33.552 33.388 0.835 33.388z"/>
        <path id="prefix__bz" d="M0 431.849L772.813 431.849 772.813 0.088 0 0.088z"/>
        <linearGradient id="prefix__b" x1="30.669%" x2="80.255%" y1="74.379%" y2="30.155%">
            <stop offset="0%" stop-color="#FFF"/>
            <stop offset="100%" stop-color="#E6F7FF"/>
        </linearGradient>
        <linearGradient id="prefix__k" x1=".017%" x2="100.003%" y1="50.037%" y2="50.037%">
            <stop offset="0%" stop-color="#AACDFF"/>
            <stop offset="100%" stop-color="#DBE8FF"/>
        </linearGradient>
        <linearGradient id="prefix__n" x1="-.007%" x2="99.993%" y1="50.037%" y2="50.037%">
            <stop offset="0%" stop-color="#AACDFF"/>
            <stop offset="100%" stop-color="#DBE8FF"/>
        </linearGradient>
        <linearGradient id="prefix__q" x1=".004%" x2="99.986%" y1="50.037%" y2="50.037%">
            <stop offset="0%" stop-color="#AACDFF"/>
            <stop offset="100%" stop-color="#DBE8FF"/>
        </linearGradient>
        <linearGradient id="prefix__t" x1="-.006%" x2="100.01%" y1="50.037%" y2="50.037%">
            <stop offset="0%" stop-color="#AACDFF"/>
            <stop offset="100%" stop-color="#DBE8FF"/>
        </linearGradient>
        <linearGradient id="prefix__w" x1=".001%" x2="100.01%" y1="50.037%" y2="50.037%">
            <stop offset="0%" stop-color="#AACDFF"/>
            <stop offset="100%" stop-color="#DBE8FF"/>
        </linearGradient>
        <linearGradient id="prefix__z" x1=".001%" x2="99.981%" y1="50.037%" y2="50.037%">
            <stop offset="0%" stop-color="#AACDFF"/>
            <stop offset="100%" stop-color="#DBE8FF"/>
        </linearGradient>
        <linearGradient id="prefix__C" x1="-.008%" x2="100.001%" y1="50.037%" y2="50.037%">
            <stop offset="0%" stop-color="#AACDFF"/>
            <stop offset="100%" stop-color="#DBE8FF"/>
        </linearGradient>
        <linearGradient id="prefix__F" x1="-.002%" x2="99.995%" y1="50.009%" y2="50.009%">
            <stop offset="0%" stop-color="#AACDFF"/>
            <stop offset="100%" stop-color="#DBE8FF"/>
        </linearGradient>
        <linearGradient id="prefix__I" x1=".003%" x2="100%" y1="50.009%" y2="50.009%">
            <stop offset="0%" stop-color="#AACDFF"/>
            <stop offset="100%" stop-color="#DBE8FF"/>
        </linearGradient>
        <linearGradient id="prefix__L" x1=".008%" x2="99.988%" y1="50.009%" y2="50.009%">
            <stop offset="0%" stop-color="#AACDFF"/>
            <stop offset="100%" stop-color="#DBE8FF"/>
        </linearGradient>
        <linearGradient id="prefix__O" x1="-.003%" x2="100.003%" y1="50.009%" y2="50.009%">
            <stop offset="0%" stop-color="#AACDFF"/>
            <stop offset="100%" stop-color="#DBE8FF"/>
        </linearGradient>
        <linearGradient id="prefix__R" x1="-.006%" x2="99.995%" y1="50.009%" y2="50.009%">
            <stop offset="0%" stop-color="#AACDFF"/>
            <stop offset="100%" stop-color="#DBE8FF"/>
        </linearGradient>
        <linearGradient id="prefix__U" x1="-.016%" x2="100.016%" y1="50.009%" y2="50.009%">
            <stop offset="0%" stop-color="#AACDFF"/>
            <stop offset="100%" stop-color="#DBE8FF"/>
        </linearGradient>
        <linearGradient id="prefix__X" x1="-.001%" x2="100.001%" y1="50.009%" y2="50.009%">
            <stop offset="0%" stop-color="#AACDFF"/>
            <stop offset="100%" stop-color="#DBE8FF"/>
        </linearGradient>
        <linearGradient id="prefix__aa" x1="100.008%" x2=".005%" y1="49.941%" y2="49.941%">
            <stop offset="0%" stop-color="#AACDFF"/>
            <stop offset="100%" stop-color="#DBE8FF"/>
        </linearGradient>
        <linearGradient id="prefix__ad" x1="99.992%" x2="-.01%" y1="49.941%" y2="49.941%">
            <stop offset="0%" stop-color="#AACDFF"/>
            <stop offset="100%" stop-color="#DBE8FF"/>
        </linearGradient>
        <linearGradient id="prefix__ag" x1="100.01%" x2="-.001%" y1="49.941%" y2="49.941%">
            <stop offset="0%" stop-color="#AACDFF"/>
            <stop offset="100%" stop-color="#DBE8FF"/>
        </linearGradient>
        <linearGradient id="prefix__aj" x1="100.002%" x2="0%" y1="49.941%" y2="49.941%">
            <stop offset="0%" stop-color="#AACDFF"/>
            <stop offset="100%" stop-color="#DBE8FF"/>
        </linearGradient>
        <linearGradient id="prefix__am" x1="99.998%" x2="-.024%" y1="49.941%" y2="49.941%">
            <stop offset="0%" stop-color="#AACDFF"/>
            <stop offset="100%" stop-color="#DBE8FF"/>
        </linearGradient>
        <linearGradient id="prefix__ap" x1="99.989%" x2="-.004%" y1="49.941%" y2="49.941%">
            <stop offset="0%" stop-color="#AACDFF"/>
            <stop offset="100%" stop-color="#DBE8FF"/>
        </linearGradient>
        <linearGradient id="prefix__as" x1="100.004%" x2=".026%" y1="49.941%" y2="49.941%">
            <stop offset="0%" stop-color="#AACDFF"/>
            <stop offset="100%" stop-color="#DBE8FF"/>
        </linearGradient>
        <linearGradient id="prefix__ax" x1="99.997%" x2=".008%" y1="49.941%" y2="49.941%">
            <stop offset="0%" stop-color="#AACDFF"/>
            <stop offset="100%" stop-color="#DBE8FF"/>
        </linearGradient>
        <linearGradient id="prefix__aA" x1="100.002%" x2="-.004%" y1="49.941%" y2="49.941%">
            <stop offset="0%" stop-color="#AACDFF"/>
            <stop offset="100%" stop-color="#DBE8FF"/>
        </linearGradient>
        <linearGradient id="prefix__aD" x1="99.999%" x2=".001%" y1="49.941%" y2="49.941%">
            <stop offset="0%" stop-color="#AACDFF"/>
            <stop offset="100%" stop-color="#DBE8FF"/>
        </linearGradient>
        <linearGradient id="prefix__aG" x1="100.004%" x2="-.011%" y1="49.941%" y2="49.941%">
            <stop offset="0%" stop-color="#AACDFF"/>
            <stop offset="100%" stop-color="#DBE8FF"/>
        </linearGradient>
        <linearGradient id="prefix__aJ" x1="100.001%" x2=".016%" y1="49.941%" y2="49.941%">
            <stop offset="0%" stop-color="#AACDFF"/>
            <stop offset="100%" stop-color="#DBE8FF"/>
        </linearGradient>
        <linearGradient id="prefix__aM" x1="100.022%" x2=".007%" y1="49.941%" y2="49.941%">
            <stop offset="0%" stop-color="#AACDFF"/>
            <stop offset="100%" stop-color="#DBE8FF"/>
        </linearGradient>
        <linearGradient id="prefix__aP" x1="99.986%" x2="0%" y1="49.941%" y2="49.941%">
            <stop offset="0%" stop-color="#AACDFF"/>
            <stop offset="100%" stop-color="#DBE8FF"/>
        </linearGradient>
    </defs>
    <g fill="none" fill-rule="evenodd">
        <g transform="translate(170)">
            <mask id="prefix__c" fill="#fff">
                <use xlink:href="#prefix__a"/>
            </mask>
            <path fill="url(#prefix__b)" d="M388.497.088c-39.37.092-78.23 11.287-109.046 35.874-27.628 22.044-45.963 54.075-71.793 78.14-29.322 27.317-67.54 40.5-105.307 51.472-26.643 7.74-52.038 18.95-76.347 32.319-50.37 27.704-13.178 66.498 7.961 147.434 0 0 167.182-6.203 264.662-5.845 0 0 67.637 89.364 80.843 89.412 135.796.5 142.109 1.685 142.29 1.86l12.704-24.924c32.309-63.382 71.579-117.985 68.137-192.471-3.17-68.617-33.963-135.389-91.146-175.44C477.069 13.836 433.017.196 389.505.09h-1.008z" mask="url(#prefix__c)"/>
        </g>
        <g>
            <path fill="#0096FF" d="M23.769 76.167h-6.585c-.778 0-1.646 1.018-1.646 2.38v4.729h8.23v6.74h-8.23v20.242H7.766V90.017H.72v-6.741h7.045v-3.967c0-5.689 3.97-10.316 9.418-10.316h6.585v7.174z" transform="translate(222 96)"/>
            <path fill="#EDEDED" d="M153.21 58.563l3.738-13.499c-2.429-4.188-3.738-8.843-3.738-13.684 0-14.71 12.15-26.81 27.01-26.81 14.862 0 27.198 12.1 27.198 26.81 0 14.71-12.336 27.183-27.197 27.183-4.674 0-9.16-1.49-13.179-3.724l-13.832 3.724z" transform="translate(222 96)"/>
            <path fill="#55CD6C" d="M167.79 49.998l.841.466c3.459 2.14 7.477 3.444 11.683 3.444 12.244 0 22.431-10.148 22.431-22.528 0-12.38-10.187-22.156-22.525-22.156-12.336 0-22.337 9.868-22.337 22.156 0 4.281 1.216 8.471 3.458 12.008l.561.839-2.15 7.818 8.038-2.047z" transform="translate(222 96)"/>
            <path fill="#FEFEFE" d="M173.024 18.906l-1.776-.093c-.56 0-1.122.186-1.496.558-.84.746-2.242 2.141-2.616 4.004-.655 2.791.374 6.143 2.803 9.494 2.431 3.351 7.104 8.75 15.328 11.078 2.617.745 4.674.28 6.356-.745 1.308-.837 2.15-2.14 2.43-3.538l.28-1.302c.094-.372-.093-.838-.467-1.024l-5.888-2.7c-.374-.187-.841-.094-1.121.28l-2.337 2.978c-.187.187-.467.278-.749.187-1.588-.559-6.915-2.793-9.812-8.38-.094-.278-.094-.557.093-.743l2.243-2.515c.187-.279.28-.651.187-.93l-2.71-6.05c-.095-.28-.374-.56-.748-.56" transform="translate(222 96)"/>
            <path fill="#FFF" d="M513.773 14.482h-140.82c-2.79 0-5.053 2.253-5.053 5.033V56.99c0 2.78 2.263 5.033 5.053 5.033h42.161c.633 0 1.166.474 1.237 1.101l.604 5.33c.036.327.413.49.678.295l4.332-3.185 3.109-2.285c1.11-.815 2.454-1.256 3.833-1.256h84.866c2.79 0 5.053-2.253 5.053-5.033V19.515c0-2.78-2.262-5.033-5.053-5.033" transform="translate(222 96)"/>
            <path fill="#0096FF" d="M410.117 38.252c0 8.914-7.254 16.14-16.204 16.14-8.949 0-16.203-7.226-16.203-16.14 0-8.914 7.254-16.139 16.203-16.139 8.95 0 16.204 7.225 16.204 16.14" transform="translate(222 96)"/>
            <path fill="#F1F5F9" d="M400.169 38.734l-9.114 6.439c-.392.279-.935-.002-.935-.48v-12.88c0-.48.543-.761.935-.482l9.114 6.439c.332.235.332.728 0 .964" transform="translate(222 96)"/>
            <path fill="#C1CBD6" d="M444.199 33.776L443.112 33.776 443.112 41.636 443.112 44.237 444.199 44.237 444.199 41.636zM441.48 31.44L440.393 31.44 440.393 41.636 440.393 44.238 441.48 44.238 441.48 41.636zM438.761 29.41L437.675 29.41 437.675 41.636 437.675 44.237 438.761 44.237 438.761 41.636zM436.044 28.526L434.956 28.526 434.956 41.636 434.956 44.238 436.044 44.238 436.044 41.636zM433.325 30.366L432.238 30.366 432.238 41.636 432.238 44.237 433.325 44.237 433.325 41.636zM430.606 31.207L429.519 31.207 429.519 41.636 429.519 44.238 430.606 44.238 430.606 41.636zM427.888 30.044L426.8 30.044 426.8 41.636 426.8 44.237 427.888 44.237 427.888 41.636zM425.169 33.508L424.082 33.508 424.082 41.636 424.082 44.238 425.169 44.238 425.169 41.636zM422.45 35.22L421.363 35.22 421.363 41.636 421.363 44.238 422.45 44.238 422.45 41.636zM419.732 36.675L418.645 36.675 418.645 41.635 418.645 44.237 419.732 44.237 419.732 41.635zM417.013 38.564L415.927 38.564 415.927 41.636 415.927 44.237 417.013 44.237 417.013 41.636zM487.696 35.854L486.608 35.854 486.608 41.636 486.608 44.238 487.696 44.238 487.696 41.636zM484.977 32.2L483.891 32.2 483.891 41.636 483.891 44.238 484.977 44.238 484.977 41.636zM482.258 34.549L481.172 34.549 481.172 41.636 481.172 44.238 482.258 44.238 482.258 41.636zM479.54 33.776L478.453 33.776 478.453 41.636 478.453 44.237 479.54 44.237 479.54 41.636zM476.821 36.675L475.735 36.675 475.735 41.635 475.735 44.237 476.821 44.237 476.821 41.635zM474.102 35.22L473.016 35.22 473.016 41.636 473.016 44.238 474.102 44.238 474.102 41.636zM471.385 36.985L470.297 36.985 470.297 41.636 470.297 44.237 471.385 44.237 471.385 41.636zM468.665 38.564L467.579 38.564 467.579 41.636 467.579 44.237 468.665 44.237 468.665 41.636zM463.229 39.823L462.142 39.823 462.142 41.636 462.142 44.238 463.229 44.238 463.229 41.636zM460.51 36.675L459.423 36.675 459.423 41.635 459.423 44.237 460.51 44.237 460.51 41.635zM457.792 34.1L456.704 34.1 456.704 41.636 456.704 44.237 457.792 44.237 457.792 41.636zM455.073 32.2L453.987 32.2 453.987 41.636 453.987 44.238 455.073 44.238 455.073 41.636zM452.354 31.029L451.268 31.029 451.268 41.635 451.268 44.237 452.354 44.237 452.354 41.635zM449.636 32.2L448.549 32.2 448.549 41.636 448.549 44.238 449.636 44.238 449.636 41.636zM446.917 35.854L445.831 35.854 445.831 41.636 445.831 44.238 446.917 44.238 446.917 41.636zM490.414 38.564L489.327 38.564 489.327 41.636 489.327 44.237 490.414 44.237 490.414 41.636zM493.133 36.675L492.045 36.675 492.045 41.635 492.045 44.237 493.133 44.237 493.133 41.635zM495.852 34.549L494.764 34.549 494.764 41.636 494.764 44.238 495.852 44.238 495.852 41.636zM498.57 33.776L497.483 33.776 497.483 41.636 497.483 44.237 498.57 44.237 498.57 41.636zM501.289 36.675L500.201 36.675 500.201 41.635 500.201 44.237 501.289 44.237 501.289 41.635zM504.006 35.22L502.92 35.22 502.92 41.636 502.92 44.238 504.006 44.238 504.006 41.636zM506.725 36.985L505.639 36.985 505.639 41.636 505.639 44.237 506.725 44.237 506.725 41.636zM509.444 38.564L508.357 38.564 508.357 41.636 508.357 44.237 509.444 44.237 509.444 41.636zM465.948 41.636L464.86 41.636 464.86 41.964 464.86 44.238 465.948 44.238 465.948 41.964zM416.538 50.618c0 1.17.36 1.834.918 1.834.625 0 .925-.727.925-1.877 0-1.107-.285-1.835-.918-1.835-.535 0-.925.652-.925 1.878m2.454-.07c0 1.53-.57 2.375-1.57 2.375-.884 0-1.483-.825-1.495-2.313 0-1.509.652-2.34 1.57-2.34.952 0 1.495.844 1.495 2.278M419.605 52.493c0-.256.174-.436.417-.436.244 0 .404.18.411.436 0 .243-.16.43-.418.43-.242 0-.41-.187-.41-.43m0-2.444c0-.256.174-.437.417-.437.244 0 .404.18.411.437 0 .242-.16.43-.418.43-.242 0-.41-.188-.41-.43M422.325 48.913L422.31 48.913 421.526 49.336 421.407 48.872 422.394 48.346 422.915 48.346 422.915 52.847 422.325 52.847zM427.498 48.346L427.498 48.748 425.531 52.847 424.899 52.847 426.858 48.865 426.858 48.851 424.648 48.851 424.648 48.346z" transform="translate(222 96)"/>
            <path fill="#CCC" d="M507.041 17.129L509.028 22.29 496.995 26.711 495.007 21.549z" transform="translate(222 96)"/>
            <path fill="#545671" d="M545.141.917c.348-.132.742.042.874.388l2.753 7.15c.134.346-.042.738-.388.87L506.56 25.088c-.347.134-.74-.041-.874-.387l-2.754-7.15c-.133-.346.042-.739.39-.87L545.14.916zM491.619 33.202c-.264 10.462-8.995 18.732-19.498 18.468-10.506-.263-18.805-8.96-18.54-19.422.264-10.463 8.992-18.73 19.497-18.467 10.504.264 18.805 8.959 18.541 19.42m-44.915-1.124c-.361 14.245 10.94 26.083 25.243 26.442 14.303.36 26.19-10.899 26.55-25.145.36-14.246-10.944-26.086-25.246-26.443-14.302-.36-26.189 10.899-26.547 25.146" transform="translate(222 96)"/>
            <path fill="#E6E6E6" d="M360.772 249.742h-29.26c-2.894 0-5.58 2.412-5.988 5.376l-9.794 76.635h2.47l9.743-76.28c.24-1.736 1.874-3.204 3.57-3.204h29.26c1.696 0 3.33 1.468 3.568 3.204l9.746 76.28h2.467l-9.795-76.635c-.406-2.964-3.092-5.376-5.987-5.376" transform="translate(222 96)"/>
            <path fill="#CCC" d="M364.263 249.742l-27.229.11c-2.89 0-9.365 2.296-9.79 5.252l-9.148 76.649h3.593l9.717-76.275c.25-1.74 4.522-3.209 6.22-3.209l26.02.011c1.7 0 1.778 1.748 2.03 3.486l9.367 75.987h5.02l-9.787-76.649c-.425-2.956-3.123-5.362-6.013-5.362" transform="translate(222 96)"/>
            <path fill="#CCC" d="M421.965 249.569h-33.406c-2.89 0-6.636 2.49-7.062 5.549l-9.143 76.634h3.594l9.711-76.248c.25-1.8 1.897-3.32 3.597-3.32h32.012c1.699 0 .903 1.146 1.153 2.946l14.077 76.622h4.562l-13.08-76.634c-.425-3.06-3.124-5.549-6.015-5.549" transform="translate(222 96)"/>
            <path fill="#E6E6E6" d="M418.476 249.568h-32.71c-2.89 0-5.585 2.493-6.005 5.554l-9.773 76.63h2.47l9.72-76.25c.247-1.799 1.89-3.318 3.588-3.318h32.71c1.723 0 3.457 1.531 3.784 3.343l12.802 76.225h2.516L424.66 255.03c-.544-3.01-3.318-5.461-6.183-5.461" transform="translate(222 96)"/>
            <path fill="#CCC" d="M423.9 246.944h3.3c2.07-4.753 5.714-22.874 7.425-36.673.206-1.655.366-2.963.478-3.65l.202-1.247-2.412-.415c-2.279 14.39-8.516 41.417-8.992 41.985" transform="translate(222 96)"/>
            <path fill="#E6E6E6" d="M422.093 246.944h2.592c2.194-4.475 5.942-22.763 7.738-37.121.201-1.612.36-2.885.469-3.564l-2.41-.414c-1.548 19.096-7.83 40.336-8.389 41.099" transform="translate(222 96)"/>
            <path fill="#001A6C" d="M380.503 209.487c-.533 4.014-4.047 22.933-5.21 28.717-.945 4.7-1.775 7.3-2.395 8.74h2.47c2.049-5.072 5.727-23.306 7.556-37.114.192-1.446.644-4.455.644-4.455l-2.41-.417s-.46 3.064-.655 4.529" transform="translate(222 96)"/>
            <path fill="#2647C8" d="M370.569 246.944h2.528c2.132-4.636 5.826-22.883 7.58-37.028.205-1.659.368-2.968.48-3.657l-2.41-.414c-2.627 27.347-7.58 40.075-8.178 41.099" transform="translate(222 96)"/>
            <path fill="gray" d="M444.511 154.907H395.57c-4.63 0-8.976 3.535-9.655 7.858l-6.422 44.37s15.84 3.01 35.745 3.01c19.905 0 27.415-3.01 27.415-3.01l9.045-44.37c.68-4.323-2.553-7.858-7.187-7.858" transform="translate(222 96)"/>
            <path fill="#CCC" d="M440.344 154.907h-48.942c-4.63 0-8.975 3.535-9.653 7.858l-9.046 44.37s18.463 3.01 38.368 3.01 27.415-3.01 27.415-3.01l9.046-44.37c.68-4.323-2.554-7.858-7.188-7.858" transform="translate(222 96)"/>
            <path fill="gray" d="M370.95 246.178c-.007.132-.028.26-.028.394 0 3.147 1.788 5.702 3.993 5.702h51.18c2.206 0 3.993-2.555 3.993-5.702 0-.135-.02-.262-.026-.394H370.95z" transform="translate(222 96)"/>
            <path fill="#CCC" d="M320.844 246.178c-.007.132-.031.26-.031.394 0 3.147 2.034 5.702 4.544 5.702h60.157c2.51 0 4.546-2.555 4.546-5.702 0-.135-.024-.262-.032-.394h-69.184z" transform="translate(222 96)"/>
            <path fill="#E6E6E6" d="M92.024 249.742h-29.26c-2.894 0-5.58 2.412-5.987 5.376l-9.795 76.635h2.47l9.744-76.28c.239-1.736 1.873-3.204 3.569-3.204h29.26c1.696 0 3.33 1.468 3.568 3.204l9.746 76.28h2.468l-9.796-76.635c-.405-2.964-3.092-5.376-5.987-5.376" transform="translate(222 96)"/>
            <path fill="#CCC" d="M95.515 249.742l-27.228.11c-2.89 0-9.365 2.296-9.792 5.252l-9.147 76.649h3.593l9.717-76.275c.25-1.74 4.522-3.209 6.221-3.209l26.021.011c1.699 0 1.777 1.748 2.029 3.486l9.366 75.987h5.02l-9.785-76.649c-.427-2.956-3.125-5.362-6.015-5.362" transform="translate(222 96)"/>
            <path fill="#CCC" d="M153.218 249.569H119.81c-2.89 0-6.636 2.49-7.061 5.549l-9.144 76.634h3.594l9.712-76.248c.25-1.8 1.896-3.32 3.596-3.32h32.012c1.699 0 .904 1.146 1.155 2.946l14.075 76.622h4.563l-13.082-76.634c-.424-3.06-3.122-5.549-6.013-5.549" transform="translate(222 96)"/>
            <path fill="#E6E6E6" d="M149.728 249.568H117.02c-2.89 0-5.586 2.493-6.005 5.554l-9.774 76.63h2.47l9.72-76.25c.247-1.799 1.89-3.318 3.59-3.318h32.708c1.725 0 3.458 1.531 3.786 3.343l12.8 76.225h2.516l-12.917-76.723c-.546-3.01-3.32-5.461-6.185-5.461" transform="translate(222 96)"/>
            <path fill="#CCC" d="M155.153 246.944h3.298c2.073-4.753 5.715-22.874 7.427-36.673.205-1.655.366-2.963.479-3.65l.2-1.247-2.41-.415c-2.28 14.39-8.517 41.417-8.994 41.985" transform="translate(222 96)"/>
            <path fill="#E6E6E6" d="M153.346 246.944h2.592c2.195-4.475 5.942-22.763 7.737-37.121.203-1.612.362-2.885.47-3.564l-2.412-.414c-1.547 19.096-7.829 40.336-8.387 41.099" transform="translate(222 96)"/>
            <path fill="#001A6C" d="M111.755 209.487c-.531 4.014-4.046 22.933-5.21 28.717-.945 4.7-1.774 7.3-2.395 8.74h2.47c2.049-5.072 5.727-23.306 7.556-37.114.193-1.446.644-4.455.644-4.455l-2.41-.417s-.46 3.064-.655 4.529" transform="translate(222 96)"/>
            <path fill="#2647C8" d="M101.821 246.944h2.53c2.13-4.636 5.825-22.883 7.58-37.028.204-1.659.366-2.968.478-3.657l-2.41-.414c-2.627 27.347-7.578 40.075-8.178 41.099" transform="translate(222 96)"/>
            <path fill="gray" d="M175.765 154.907h-48.942c-4.63 0-8.977 3.535-9.656 7.858l-6.422 44.37s15.84 3.01 35.746 3.01c19.905 0 27.416-3.01 27.416-3.01l9.044-44.37c.68-4.323-2.554-7.858-7.186-7.858" transform="translate(222 96)"/>
            <path fill="#CCC" d="M171.597 154.907h-48.941c-4.63 0-8.977 3.535-9.655 7.858l-9.046 44.37s18.464 3.01 38.369 3.01 27.415-3.01 27.415-3.01l9.045-44.37c.68-4.323-2.554-7.858-7.187-7.858" transform="translate(222 96)"/>
            <path fill="gray" d="M102.202 246.178c-.006.132-.027.26-.027.394 0 3.147 1.787 5.702 3.992 5.702h51.18c2.207 0 3.995-2.555 3.995-5.702 0-.135-.021-.262-.028-.394h-59.112z" transform="translate(222 96)"/>
            <path fill="#CCC" d="M52.096 246.178c-.007.132-.03.26-.03.394 0 3.147 2.034 5.702 4.544 5.702h60.157c2.51 0 4.547-2.555 4.547-5.702 0-.135-.026-.262-.033-.394H52.096z" transform="translate(222 96)"/>
            <path fill="#000100" d="M383.815 100.428c-3.241 0-5.867 3.393-5.867 7.578 0 4.185 2.626 7.577 5.867 7.577 3.24 0 5.867-3.392 5.867-7.577 0-4.185-2.626-7.578-5.867-7.578" transform="translate(222 96)"/>
            <path fill="#000100" d="M385.172 101.948c-2.59 0-4.689 2.713-4.689 6.057 0 3.346 2.1 6.057 4.689 6.057 2.59 0 4.688-2.71 4.688-6.057 0-3.344-2.099-6.057-4.688-6.057" transform="translate(222 96)"/>
            <path fill="#2647C8" d="M386.637 106.12c-.806 0-1.459.845-1.459 1.886 0 1.04.653 1.884 1.46 1.884.804 0 1.458-.843 1.458-1.884s-.654-1.885-1.459-1.885" transform="translate(222 96)"/>
            <path fill="#6F8FE4" d="M387.085 106.7c-.558 0-1.011.584-1.011 1.306 0 .721.453 1.305 1.011 1.305.558 0 1.01-.584 1.01-1.305 0-.722-.452-1.306-1.01-1.306" transform="translate(222 96)"/>
            <path fill="#FBBCBE" d="M382.71 152.451c-6.359 5.762-36.298 16.347-42.295 18.83-7.228 2.99-13.783-4.142-10.062-10.246 3.17-5.2 38.81-23.56 43.464-24.747 8.406-2.145 16.85 8.955 8.893 16.163" transform="translate(222 96)"/>
            <path fill="#9FB6BE" d="M357.23 167.965c10.164-4.4 26.25-15.29 29.473-18.211 7.957-7.209-.487-18.307-8.894-16.164-2.621.67-18.548 7.753-30.6 15.104-1.712 3.876 2.455 15.956 10.02 19.27" transform="translate(222 96)"/>
            <path fill="#9FB6BE" d="M402.222 117.197s-2.43 13.561 3.643 13.7c6.074.136 17.296 1.679 21.16 7.025 3.863 5.345 8.457 52.318 3.43 86.472 0 0-40.806 12.612-60.794-7.948 0 0-6.301-67.873-.184-77.11 5.103-7.705 17.37-7.07 17.37-7.07s3.46-2.895 2.265-9.39c-2.92-15.854 13.11-5.68 13.11-5.68" transform="translate(222 96)"/>
        </g>
        <g transform="translate(611 210)">
            <mask id="prefix__e" fill="#fff">
                <use xlink:href="#prefix__d"/>
            </mask>
            <path d="M.096 5.256l13.34.31c.127-1.175.26-1.944.26-1.944S8.574.266 4.613.266c-2.36 0-4.308 1.19-4.518 4.99" mask="url(#prefix__e)"/>
        </g>
        <g>
            <path fill="#FBBCBE" d="M388.813 49.754c-4.776 8.48-13.143 13.152-20.54 10.78-4.247-1.358-7.399-4.79-9.117-9.291 3.259-.592 5.814-.456 5.814-.456s3.456-2.9 2.26-9.406c-2.918-15.884 13.113-5.689 13.113-5.689s-2.433 13.583 3.64 13.72c1.386.03 3.048.135 4.83.342" transform="translate(244 178)"/>
            <path fill="#FBA056" d="M388.813 49.754c-4.776 8.48-13.143 13.152-20.54 10.78-4.247-1.358-7.399-4.79-9.117-9.291 3.259-.592 5.814-.456 5.814-.456s3.456-2.9 2.26-9.406c-2.918-15.884 13.113-5.689 13.113-5.689s-2.433 13.583 3.64 13.72c1.386.03 3.048.135 4.83.342" transform="translate(244 178)"/>
            <path fill="#FB9847" d="M383.982 49.412c-6.072-.137-3.638-13.72-3.638-13.72s-.827-.524-2.068-1.15l-.143 6.33c-.197 8.68-7.408 15.558-16.106 15.361 1.664 2.006 3.767 3.509 6.245 4.302 7.397 2.371 15.765-2.302 20.54-10.781-1.78-.207-3.444-.312-4.83-.342" transform="translate(244 178)"/>
            <path fill="#603813" d="M361.374 25.083L356.396 24.97 356.406 24.452 361.385 24.565z" transform="translate(244 178)"/>
            <path fill="#FBA056" d="M359.463 15.098l-.432 18.974c-.125 5.598 4.562 10.242 10.473 10.376 5.91.133 10.803-4.296 10.93-9.892l.012-.463s6.132-.293 6.273-6.502c.14-6.208-3.998-3.767-3.998-3.767l.186-8.195-23.444-.53z" transform="translate(244 178)"/>
            <path fill="#42210B" d="M382.567 24.025s-1.918 5.523-2.96-1.26c-1.042-6.78-3.138-6.531-10.715-6.204-7.579.325-18.165-2.73-13.873-11.942 4.22-9.057 21.517-.246 21.517-.246s10.294-2.204 12.452 4.392c2.159 6.595-6.421 15.26-6.421 15.26" transform="translate(244 178)"/>
            <path fill="#FBA056" d="M405.505 58.282c5.124 6.884 12.809 38.35 14.695 44.552 2.273 7.472-3.842 13.455-9.57 9.156-4.88-3.664-22.862-42.66-23.588-47.4-1.308-8.557 12.05-14.922 18.463-6.308" transform="translate(244 178)"/>
            <path fill="#9FB6BE" d="M417.868 85.397c-3.785-11.858-9.15-23.83-12.083-27.773-6.972-9.367-21.22-1.581-19.796 7.723.354 2.326 5.14 14.23 10.29 25.4 9.82.923 20.315-3.95 21.59-5.35" transform="translate(244 178)"/>
            <path fill="#FBBCBE" d="M255.19 180.832l-3.804-7.107c-7.49 5.3-14.885 7.63-16.088-5.239-.555-5.93-7.827-6.737-7.827-6.737l2.875 30.772s1.533 2.946 8.33-2.158c7.384-5.544 16.514-9.531 16.514-9.531" transform="translate(244 178)"/>
            <path fill="#0C1540" d="M235.954 180.945c1.617-2.102 5.238-.274 5.138-3.018-2.99-.314-5.186-2.928-5.794-9.441-.555-5.93-7.827-6.738-7.827-6.738l2.876 30.773s1.439 2.765 7.71-1.705c-.301-3.225-4.543-6.697-2.103-9.87" transform="translate(244 178)"/>
            <path fill="#12122A" d="M408.884 139.11c2.612 15.933-12.33 29.119-32.468 26.91-20.14-2.208-51.782-17.435-66.28-20.54 0 0-18.423-23.318-6.238-28.472 30.405-12.86 104.986 22.103 104.986 22.103" transform="translate(244 178)"/>
            <path fill="#12122A" d="M301.657 118.482s-46.958 51.598-56.342 56.913c0 0 3.647 9.648 9.888 17.003 0 0 55.022-41.985 60.67-47.208 11.804-10.917-14.216-26.708-14.216-26.708" transform="translate(244 178)"/>
            <path fill="#000016" d="M376.416 166.02s-44.57 5.98-59.151 4.972c-7.031-.484-31.829-7.362-25.495-23.737 6.329-16.36 50.318-5.062 84.646 18.765" transform="translate(244 178)"/>
            <path fill="#FBA056" d="M265.3 244.276c9.89-1.247 12.661-13.753 14.31-19.867l9.31 3.552s-5.545 10.453-5.117 17.571c.428 7.118-1.6 6.448-1.6 6.448H252.69s2.717-6.458 12.608-7.704" transform="translate(244 178)"/>
            <path fill="#0C1540" d="M265.3 244.276c2.985-.377 6.067-2.244 7.597-4.21.994-1.385 5.822.144 6.623 2.83 0 0 1.958 1.405 4.273 1.19-.005.493-.019.981.01 1.446.428 7.118-1.6 6.448-1.6 6.448H252.69s2.717-6.458 12.608-7.704" transform="translate(244 178)"/>
            <path fill="#000016" d="M290.936 150.215s-11.755 61.446-16.14 79.958c0 0 9.393 4.837 16.097 3.807 0 0 31.656-64.646 20.529-74.512-6.25-5.54-20.486-9.253-20.486-9.253" transform="translate(244 178)"/>
            <path fill="#FBA056" d="M416.054 100.39c-10.651-1.766-44.199 2.85-50.01-.362-5.812-3.212-16.685-5.182-20.645-1.87-4.042 3.379-1.303 6.44 3.057 8.926 2.77 1.579 6.007 2.908 13.351 2.027 7.361-.883 38.561 5.776 49.409 6.007 10.749.23 12.046-13.533 4.838-14.727M320.4 77.928c-9.169-5.69-38.645-12.847-42.787-18.03-4.143-5.184-10.142-9.788-15.07-8.236-5.03 1.585-7.186 6.697-.59 9.416 2.949 1.215 4.44 4.976 11.565 6.958 7.142 1.99 26.84 17.314 36.775 21.66 9.847 4.308 16.313-7.918 10.108-11.768" transform="translate(244 178)"/>
            <path fill="#603813" d="M372.42 22.144c-1.923 0-4.098.502-4.148 2.751-.049 2.137 1.26 5.33 4.221 5.397 1.627.054 2.693-.902 3.28-1.7.712-.965 1.155-2.274 1.184-3.5.052-2.352-2.298-2.9-4.278-2.944-.087-.003-.173-.004-.26-.004m.17 8.667l-.106-.001c-3.317-.075-4.783-3.581-4.73-5.926.048-2.17 1.803-3.323 4.936-3.254 3.135.071 4.835 1.305 4.787 3.473-.031 1.33-.512 2.749-1.285 3.798-.648.877-1.794 1.91-3.602 1.91M360.81 21.882c-1.923 0-4.098.5-4.148 2.752-.049 2.136 1.26 5.328 4.221 5.395l.095.001c1.592 0 2.61-.92 3.185-1.7.712-.965 1.155-2.274 1.184-3.5.052-2.352-2.298-2.9-4.278-2.944-.087-.003-.173-.004-.26-.004m.17 8.666l-.106-.001c-3.317-.074-4.783-3.58-4.73-5.925.05-2.17 1.82-3.319 4.936-3.254 3.135.07 4.835 1.305 4.787 3.473l-.26-.006.26.006c-.031 1.329-.511 2.749-1.285 3.797-.648.878-1.794 1.91-3.602 1.91" transform="translate(244 178)"/>
            <path fill="#603813" d="M368.048 24.68L365.611 24.625 365.622 24.107 368.059 24.163zM381.988 25.549L377.008 25.436 377.019 24.918 381.999 25.031z" transform="translate(244 178)"/>
            <path fill="#000100" d="M385.8 18.895c-3.24 0-5.866 3.398-5.866 7.59s2.625 7.59 5.865 7.59 5.866-3.398 5.866-7.59-2.625-7.59-5.866-7.59" transform="translate(244 178)"/>
            <path fill="#333" d="M387.156 20.418c-2.588 0-4.687 2.717-4.687 6.067 0 3.351 2.099 6.067 4.687 6.067 2.59 0 4.688-2.716 4.688-6.067 0-3.35-2.099-6.067-4.688-6.067" transform="translate(244 178)"/>
            <path fill="#999" d="M388.621 24.597c-.806 0-1.46.846-1.46 1.888 0 1.043.654 1.888 1.46 1.888.805 0 1.46-.845 1.46-1.888 0-1.042-.655-1.888-1.46-1.888" transform="translate(244 178)"/>
            <path fill="#999" d="M389.07 25.177c-.559 0-1.012.586-1.012 1.308 0 .723.453 1.307 1.012 1.307.557 0 1.01-.584 1.01-1.307 0-.722-.453-1.308-1.01-1.308" transform="translate(244 178)"/>
            <path fill="#999" d="M388.206 26.172c.097-2.187-.09-4.495-.492-6.7-.406-2.22-1.077-4.388-2.053-6.406-.993-2.002-2.307-3.857-3.999-5.317-1.664-1.49-3.701-2.53-5.85-3.198l.262-.93c2.288.64 4.503 1.694 6.341 3.25 1.863 1.521 3.332 3.48 4.449 5.588 1.099 2.12 1.869 4.393 2.359 6.712.485 2.331.75 4.658.71 7.096l-1.727-.095z" transform="translate(244 178)"/>
            <path fill="#333" d="M379.026 39.885h-10.973v-1.15h10.973c1.617 0 3.097-.885 3.862-2.306l1.874-3.488 1.014.544-1.873 3.488c-.964 1.796-2.835 2.912-4.877 2.912" transform="translate(244 178)"/>
            <path fill="#333" d="M369.371 40.558h-1.902c-.691 0-1.252-.559-1.252-1.248 0-.69.56-1.25 1.252-1.25h1.902c.692 0 1.251.56 1.251 1.25s-.56 1.248-1.251 1.248" transform="translate(244 178)"/>
            <path fill="#85B2C5" d="M99.702 131.582c8.249 3.063 8.425 26.213-3.96 29.142-20.207 4.776-45.737 5.902-77.603 4.825-12.719-.43-24.122-12.05-14.376-21.464 9.748-9.414 72.824-21.083 95.94-12.503" transform="translate(244 178)"/>
            <path fill="#C69C6D" d="M96.499 27.79c-.114 8.847 11.012 11.052 11.012 11.052.084-6.564 6.953-11.081 8.395-19.235 1.492-8.447-4.45-16.512-15.88-14.817-7.021 1.039-3.412 14.155-3.527 23" transform="translate(244 178)"/>
            <path fill="#FBBCBE" d="M89.493 71.548c-3.682 7.985-24.975 31.512-31.075 34.704-7.103 3.719-13.166.434-11.4-7.747 1.895-8.767 23.8-34.573 27.714-37.556 7.067-5.385 19.368.607 14.761 10.6" transform="translate(244 178)"/>
            <path fill="#F2B892" d="M59.812 95.997c-8.03-7.6-36.352-20.195-39.439-26.25-3.088-6.058-3.285-13.22-8.551-12.678-5.378.555-8.093 4.229-10.443 8.596-1.547 2.874 3.428 5.907 10.17 9.366 6.761 3.467 26.605 24.291 35.682 30.7 8.997 6.353 18.014-4.59 12.58-9.734" transform="translate(244 178)"/>
            <path fill="#FFAF00" d="M80.77 55.156C76 57.856 58.28 74.408 50.6 89.245c-.02.039-.026.093-.039.138.61.215 1.198.483 1.75.817 3.798 2.295 6.169 7.014 6.779 11.307.265 1.862.202 3.759-.19 5.555 11.068-6.494 32.743-35.787 34.524-39.65 4.608-9.992-4.92-16.634-12.654-12.256" transform="translate(244 178)"/>
            <path fill="#FFC73C" d="M109.439 50.926c6.224.08 17.74 1.552 21.752 7 4.013 5.45 7.962 53.793 7.962 90.752 0 0-51.023 2.06-71.712-18.849 0 0 4.487-62.48 10.662-72.023 5.15-7.96 25.111-6.96 31.336-6.88" transform="translate(244 178)"/>
            <path fill="#A5C6D4" d="M135.616 138.713c7.957 3.751 1.693 22.589-10.896 24.455-20.54 3.045-46.242 4.041-77.591-1.77-6.36-1.18-23.01-14.052-12.495-22.606 10.514-8.552 78.681-10.59 100.982-.08" transform="translate(244 178)"/>
        </g>
        <g transform="translate(335 211)">
            <mask id="prefix__g" fill="#fff">
                <use xlink:href="#prefix__f"/>
            </mask>
            <path d="M.597 5.497l13.526.181c.117-1.208.244-1.996.244-1.996S9.207.336 5.202.336C2.776.335.775 1.561.597 5.497" mask="url(#prefix__g)"/>
        </g>
        <path fill="#F2B892" d="M338.498 236.641l-4.505-6.596s3.51-3.009 2.22-9.67c-3.148-16.265 13.37-5.967 13.37-5.967s-1.165 13.972 3.865 14.037l-14.95 8.196z"/>
        <path fill="#ED9F6C" d="M338.213 233.411c8.64.112 6.98-10.498 7.159-12.544.168-1.928 4.21-6.459 4.21-6.459s-1.164 13.972 3.865 14.037l-14.95 8.196-2.662-3.898c.646.405 1.438.656 2.378.668"/>
        <path fill="#F2B892" d="M327.995 193.492l-1.954 19.446c-.075 5.741 6.478 10.48 12.53 10.56 6.054.077 11.02-4.514 11.094-10.257l.006-.475s6.276-.361 6.358-6.732c.082-6.371-4.132-3.825-4.132-3.825l.034-2.724c.04-3.14-2.472-5.718-5.614-5.758l-18.322-.235zM370.993 281.273c-10.992-1.204-42.893 5.695-49.058 2.818-4.192-1.956-3.973-3.113-7.693-3.354-2.76-.178 4.482 4.954 3.312 5.18-6.479 1.264-12.058 4.703-14.785 7.259-2 1.875-.668 2.546.95 1.491 7.082-4.62 7.882 2.75 11.392 2.795 4.9.061 5.744-2.208 8.953-2.992 7.377-1.8 39.524 3.238 50.632 3.38 9.473.121 3.734-15.764-3.703-16.577"/>
        <path fill="#FFAF00" d="M374.948 298.305c.175-7.733-5.074-14.055-11.816-16.872-.071-.646-.134-1.301-.17-1.974-.686-12.122-6.024-33.092-5.996-35.309.106-8.347 13.898-19.417 22.331-3.472 7.675 14.508 10.997 46.004 4.988 56.092-2.254 3.786-5.859 4.76-9.473 3.45.075-.635.122-1.273.136-1.915"/>
        <path fill="#FFF" d="M350.472 225.607c-2.267 4.58-11.975 11.034-11.975 11.034s3.084-1.036 6.589 2.71c1.487 1.588 3.578 1.97 3.578 1.97s5.97-5.787 6.062-12.86l-4.254-2.854zM335.59 227.7c.035 4.443 2.907 8.933 2.907 8.933s-2.68-1.23-5.034 1.939c-.999 1.344-2.068 1.49-2.068 1.49s-.373-3.516.565-10.272l3.63-2.09z"/>
        <path fill="#C69C6D" d="M343.905 191.782s-4.174 5.33-12.068 4.455c-7.892-.874-8.622 3.273-8.622 3.273s-3.542-14.448 6.605-19.44c10.15-4.994 16.336 2 16.336 2l-2.251 9.712z"/>
        <path fill="#FBBCBE" d="M262.608 420.637c6.92-2.406 8.594-12.974 9.295-19.245l10.108 3.644s-3.993 10.724-2.406 18.024c1.586 7.303-.6 6.617-.6 6.617h-31.65s8.333-6.634 15.253-9.04"/>
        <path fill="#FFF" d="M262.608 420.637c2.108-.669 3.698-2.302 4.948-4.317.794-1.423 2.169 1.25 3.425 4.005 0 0 5.464 2.173 8.38 1.252.074.507.14 1.008.244 1.483 1.586 7.303-.6 6.617-.6 6.617h-31.65c1.559-5.982 8.58-6.92 15.253-9.04"/>
        <path fill="#0C1540" d="M280.17 427.767c-.114 2.238-1.164 1.91-1.164 1.91h-31.65s.116-.795.767-1.91h32.047z"/>
        <path fill="#A5C6D4" d="M276.543 318.746c-9.13 7.448-4.957 61.022-9.554 96.646 0 0 10.564 2.36 16.934-.407 0 0 19.847-62.892 17.366-77.267-3.33-19.287-14.952-26.962-24.746-18.972"/>
        <path fill="#F2B892" d="M260.522 415.619c5.532-4.804 3.158-15.236 1.478-21.32l10.738-.371s.279 11.438 4.464 17.629c4.188 6.19 1.904 6.363 1.904 6.363l-29.385 11.756s5.27-9.253 10.801-14.057"/>
        <path fill="#FFF" d="M260.522 415.619c1.707-1.405 2.577-3.512 2.99-5.847.207-1.615 2.478.354 4.666 2.447 0 0 5.883-.012 8.248-1.951.257.443.504.885.776 1.289 4.188 6.19 1.904 6.363 1.904 6.363l-29.385 11.756c-.777-6.131 5.394-9.61 10.801-14.057"/>
        <path fill="#0C1540" d="M279.478 415.714c.726 2.12-.371 2.206-.371 2.206l-29.386 11.756s-.187-.78.002-2.058l29.755-11.904z"/>
        <path fill="#85B2C5" d="M245.207 325.23c-4.252 7.623 9.214 50.157 14.81 81.857 0 0 11.063.662 16.402-3.392 0 0 1.379-59.074-5.043-70.718-8.615-15.622-20.47-17.962-26.169-7.746"/>
        <path fill="#000100" d="M354.066 197.978c-3.43 0-6.212 3.606-6.212 8.053 0 4.448 2.781 8.053 6.212 8.053 3.43 0 6.211-3.605 6.211-8.053 0-4.447-2.78-8.053-6.211-8.053"/>
        <path fill="#333" d="M355.502 199.596c-2.741 0-4.965 2.881-4.965 6.435 0 3.556 2.224 6.437 4.965 6.437 2.742 0 4.966-2.881 4.966-6.437 0-3.554-2.224-6.435-4.966-6.435"/>
        <path fill="#999" d="M357.054 204.03c-.853 0-1.545.895-1.545 2 0 1.108.692 2.005 1.545 2.005s1.545-.897 1.545-2.004c0-1.106-.692-2.002-1.545-2.002"/>
        <path fill="#999" d="M357.529 204.643c-.593 0-1.072.622-1.072 1.388 0 .767.48 1.388 1.072 1.388.59 0 1.07-.62 1.07-1.388 0-.766-.48-1.388-1.07-1.388"/>
        <path fill="#999" d="M356.674 205.624c.313-2.33.352-4.804.156-7.196-.21-2.402-.671-4.786-1.52-7.026-.85-2.23-2.097-4.32-3.811-5.966-1.694-1.671-3.847-2.829-6.14-3.537l.263-.93c2.438.681 4.792 1.864 6.672 3.626.937.875 1.786 1.852 2.488 2.924.705 1.071 1.295 2.21 1.782 3.389.964 2.362 1.513 4.86 1.796 7.37.14 1.257.209 2.52.214 3.78.003 1.272-.039 2.51-.19 3.816l-1.71-.25z"/>
        <path fill="#333" d="M346.893 220.213H336.89v-1.152h10.003c1.725 0 3.304-.943 4.118-2.465l1.986-3.7 1.015.546-1.985 3.699c-1.017 1.896-2.984 3.072-5.134 3.072"/>
        <path fill="#333" d="M339.143 219.637c0 .931-.755 1.687-1.687 1.687-.93 0-1.687-.756-1.687-1.687 0-.932.756-1.686 1.687-1.686.932 0 1.687.754 1.687 1.686"/>
        <mask id="prefix__i" fill="#fff">
            <use xlink:href="#prefix__h"/>
        </mask>
        <path fill="#000" d="M684.992 429.693L691.909 429.693 691.909 303.763 684.992 303.763z" mask="url(#prefix__i)"/>
        <path fill="#02126A" d="M204.881 429.693L211.034 429.693 211.034 362.119 211.034 303.763 204.881 303.763z" mask="url(#prefix__i)"/>
        <path fill="#000" d="M615.886 303.761L700.532 303.761 700.532 300.518 615.886 300.518z" mask="url(#prefix__i)"/>
        <path fill="#333" d="M75.549 303.761L615.886 303.761 615.886 300.518 75.549 300.518zM597.183 429.693L604.954 429.693 604.954 303.763 597.183 303.763z" mask="url(#prefix__i)"/>
        <path fill="#1D3599" d="M89.191 429.693L96.118 429.693 96.118 362.119 96.118 303.763 89.191 303.763z" mask="url(#prefix__i)"/>
        <path fill="gray" d="M634.433 300.516L719.077 300.516 719.077 294.741 634.433 294.741z" mask="url(#prefix__i)"/>
        <path fill="#999" d="M56.999 300.516L634.901 300.516 634.901 294.741 56.999 294.741z" mask="url(#prefix__i)"/>
        <path fill="#151618" d="M315.926 294.35c0 .215.174.391.391.391h67.608c.432 0 .784-.35.784-.783v-1.887h-68.783v2.279zM375.876 291.275v.794h2.415v-1.058h-2.15c-.146 0-.265.119-.265.264M373.076 291.275v.794h2.415v-1.058h-2.151c-.145 0-.264.119-.264.264M370.277 291.275v.794h2.414v-1.058h-2.151c-.145 0-.263.119-.263.264M358.61 291.275v.794h2.413v-1.058h-2.15c-.145 0-.263.119-.263.264M355.81 291.275v.794h2.413v-1.058h-2.15c-.145 0-.263.119-.263.264M322.94 291.275v.794h2.415v-1.058h-2.151c-.145 0-.264.119-.264.264M320.14 291.275v.794h2.413v-1.058h-2.15c-.144 0-.263.119-.263.264M361.493 291.275v.794h8.298v-1.058h-8.034c-.145 0-.264.119-.264.264M311.05 291.275v.794h8.298v-1.058h-8.034c-.146 0-.264.119-.264.264M326.002 291.275v.794h28.816v-1.058h-28.552c-.145 0-.264.119-.264.264" mask="url(#prefix__i)"/>
        <g transform="translate(295 291)">
            <mask id="prefix__l" fill="#fff">
                <use xlink:href="#prefix__j"/>
            </mask>
            <path fill="url(#prefix__k)" d="M1.368.582c-.327 0-.593.232-.593.519v.4h6.657v-.69c0-.126-.117-.229-.26-.229H1.367z" mask="url(#prefix__l)"/>
        </g>
        <g transform="translate(287 291)">
            <mask id="prefix__o" fill="#fff">
                <use xlink:href="#prefix__m"/>
            </mask>
            <path fill="url(#prefix__n)" d="M1.35.582c-.326 0-.591.232-.591.519v.4h6.656v-.69c0-.126-.117-.229-.26-.229H1.35z" mask="url(#prefix__o)"/>
        </g>
        <g transform="translate(279 291)">
            <mask id="prefix__r" fill="#fff">
                <use xlink:href="#prefix__p"/>
            </mask>
            <path fill="url(#prefix__q)" d="M1.333.582c-.328 0-.594.232-.594.519v.4h6.659v-.69c0-.126-.118-.229-.263-.229H1.333z" mask="url(#prefix__r)"/>
        </g>
        <g transform="translate(270 291)">
            <mask id="prefix__u" fill="#fff">
                <use xlink:href="#prefix__s"/>
            </mask>
            <path fill="url(#prefix__t)" d="M1.314.582c-.327 0-.592.232-.592.519v.4h6.656v-.69c0-.126-.115-.229-.261-.229H1.314z" mask="url(#prefix__u)"/>
        </g>
        <g transform="translate(264 291)">
            <mask id="prefix__x" fill="#fff">
                <use xlink:href="#prefix__v"/>
            </mask>
            <path fill="url(#prefix__w)" d="M1.574.582c-.343 0-.624.232-.624.519v.4h4.085v-.69c0-.126-.121-.229-.272-.229H1.574z" mask="url(#prefix__x)"/>
        </g>
        <g transform="translate(259 291)">
            <mask id="prefix__A" fill="#fff">
                <use xlink:href="#prefix__y"/>
            </mask>
            <path fill="url(#prefix__z)" d="M1.409.582c-.343 0-.622.232-.622.519v.4h4.086v-.69c0-.126-.123-.229-.275-.229h-3.19z" mask="url(#prefix__A)"/>
        </g>
        <g transform="translate(255 291)">
            <mask id="prefix__D" fill="#fff">
                <use xlink:href="#prefix__B"/>
            </mask>
            <path fill="url(#prefix__C)" d="M1.538.582c-.344 0-.622.232-.622.519v.4H5v-.69c0-.126-.12-.229-.274-.229H1.538z" mask="url(#prefix__D)"/>
        </g>
        <g>
            <path fill="#151618" d="M79.059 3.824C78.463 1.7 76.878.435 74.397.435l15.391 56.052s2.982-.84 2.243-3.707c-.616-2.39-9.764-37.503-12.972-48.956" transform="translate(233 238)"/>
            <path fill="#333" d="M74.109.435H1.985C.977.435.238 1.374.485 2.34l13.276 51.812h75.815L76.232 2.068c-.247-.96-1.12-1.633-2.123-1.633" transform="translate(233 238)"/>
            <path fill="#151618" d="M14.04 56.408c0 .213.175.387.392.387h74.42c.434 0 .784-.347.784-.775v-1.868H14.04v2.256z" transform="translate(233 238)"/>
            <path fill="#B3C0EC" d="M32.401 50.154H12.703l-1.39-5.558h20.404c.685 0 1.284.456 1.457 1.112l.684 2.58c.25.943-.47 1.866-1.457 1.866" transform="translate(233 238)"/>
            <path fill="#151618" d="M352.119 56.413c0 .211.172.382.387.382h66.676c.427 0 .773-.342.773-.763v-1.84h-67.836v2.221z" transform="translate(233 238)"/>
            <path fill="#151618" d="M411.243 53.417v.776h2.38V53.16h-2.119c-.143 0-.26.115-.26.257M408.483 53.417v.776h2.38V53.16h-2.12c-.144 0-.26.115-.26.257M405.721 53.417v.776h2.38V53.16h-2.12c-.143 0-.26.115-.26.257M394.215 53.417v.776h2.38V53.16h-2.12c-.143 0-.26.115-.26.257M391.453 53.417v.776h2.38V53.16h-2.119c-.143 0-.26.115-.26.257M359.038 53.417v.776h2.38V53.16h-2.12c-.144 0-.26.115-.26.257M356.277 53.417v.776h2.38V53.16h-2.12c-.144 0-.26.115-.26.257M397.058 53.417v.776h8.186V53.16h-7.925c-.143 0-.26.115-.26.257M347.31 53.417v.776h8.185V53.16h-7.923c-.145 0-.261.115-.261.257M362.057 53.417v.776h28.418V53.16h-28.158c-.143 0-.26.115-.26.257" transform="translate(233 238)"/>
        </g>
        <g transform="translate(564 291)">
            <mask id="prefix__G" fill="#fff">
                <use xlink:href="#prefix__E"/>
            </mask>
            <path fill="url(#prefix__F)" d="M.59.632c-.321 0-.583.23-.583.512v.393H6.56V.856c0-.124-.114-.224-.256-.224H.59z" mask="url(#prefix__G)"/>
        </g>
        <g transform="translate(556 291)">
            <mask id="prefix__J" fill="#fff">
                <use xlink:href="#prefix__H"/>
            </mask>
            <path fill="url(#prefix__I)" d="M.696.632c-.322 0-.584.23-.584.512v.393h6.554V.856c0-.124-.115-.224-.257-.224H.696z" mask="url(#prefix__J)"/>
        </g>
        <g transform="translate(549 291)">
            <mask id="prefix__M" fill="#fff">
                <use xlink:href="#prefix__K"/>
            </mask>
            <path fill="url(#prefix__L)" d="M.672.632c-.33 0-.597.23-.597.512v.393h6.693V.856c0-.124-.118-.224-.264-.224H.672z" mask="url(#prefix__M)"/>
        </g>
        <g transform="translate(540 291)">
            <mask id="prefix__P" fill="#fff">
                <use xlink:href="#prefix__N"/>
            </mask>
            <path fill="url(#prefix__O)" d="M.78.632c-.33 0-.597.23-.597.512v.393h6.691V.856c0-.124-.117-.224-.262-.224H.779z" mask="url(#prefix__P)"/>
        </g>
        <g transform="translate(534 291)">
            <mask id="prefix__S" fill="#fff">
                <use xlink:href="#prefix__Q"/>
            </mask>
            <path fill="url(#prefix__R)" d="M.918.632c-.281 0-.511.23-.511.512v.393h3.352V.856c0-.124-.101-.224-.225-.224H.918z" mask="url(#prefix__S)"/>
        </g>
        <g transform="translate(529 291)">
            <mask id="prefix__V" fill="#fff">
                <use xlink:href="#prefix__T"/>
            </mask>
            <path fill="url(#prefix__U)" d="M.846.632c-.283 0-.511.23-.511.512v.393h3.351V.856c0-.124-.101-.224-.225-.224H.846z" mask="url(#prefix__V)"/>
        </g>
        <g transform="translate(525 291)">
            <mask id="prefix__Y" fill="#fff">
                <use xlink:href="#prefix__W"/>
            </mask>
            <path fill="url(#prefix__X)" d="M1.013.632c-.284 0-.512.23-.512.512v.393h3.352V.856c0-.124-.1-.224-.226-.224H1.013z" mask="url(#prefix__Y)"/>
        </g>
        <g>
            <path fill="#151618" d="M77.76 3.506C77.178 1.41 75.619.162 73.18.162L88.308 55.49s2.931-.83 2.204-3.657c-.604-2.362-9.596-37.021-12.751-48.327" transform="translate(502 239)"/>
            <path fill="#333" d="M72.896.162H2C1.01.162.282 1.088.525 2.04l13.05 51.145H88.1L74.983 1.772c-.242-.947-1.102-1.61-2.087-1.61" transform="translate(502 239)"/>
            <path fill="#151618" d="M13.85 53.185v2.227c0 .211.171.383.384.383h73.154c.426 0 .77-.343.77-.766v-1.844" transform="translate(502 239)"/>
            <path fill="#B3C0EC" d="M31.898 49.239H12.534l-1.365-5.487h20.056c.674 0 1.262.452 1.433 1.097l.671 2.549c.247.93-.462 1.841-1.431 1.841" transform="translate(502 239)"/>
        </g>
        <g transform="translate(496 291)">
            <mask id="prefix__ab" fill="#fff">
                <use xlink:href="#prefix__Z"/>
            </mask>
            <path fill="url(#prefix__aa)" d="M1.01.601C.866.601.75.703.75.829v.691h6.658v-.401c0-.286-.265-.518-.592-.518H1.01z" mask="url(#prefix__ab)"/>
        </g>
        <g transform="translate(503 291)">
            <mask id="prefix__ae" fill="#fff">
                <use xlink:href="#prefix__ac"/>
            </mask>
            <path fill="url(#prefix__ad)" d="M1.03.601C.886.601.77.703.77.829v.691H7.43v-.401c0-.286-.267-.518-.594-.518H1.03z" mask="url(#prefix__ae)"/>
        </g>
        <g transform="translate(511 291)">
            <mask id="prefix__ah" fill="#fff">
                <use xlink:href="#prefix__af"/>
            </mask>
            <path fill="url(#prefix__ag)" d="M1.051.601c-.145 0-.26.102-.26.228v.691h6.658v-.401c0-.286-.265-.518-.592-.518H1.051z" mask="url(#prefix__ah)"/>
        </g>
        <g transform="translate(520 291)">
            <mask id="prefix__ak" fill="#fff">
                <use xlink:href="#prefix__ai"/>
            </mask>
            <path fill="url(#prefix__aj)" d="M1.073.601C.93.601.811.703.811.829v.691h6.66v-.401c0-.286-.266-.518-.594-.518H1.073z" mask="url(#prefix__ak)"/>
        </g>
        <g transform="translate(530 291)">
            <mask id="prefix__an" fill="#fff">
                <use xlink:href="#prefix__al"/>
            </mask>
            <path fill="url(#prefix__am)" d="M.442.601C.292.601.17.703.17.829v.691h4.086v-.401c0-.286-.28-.518-.624-.518H.442z" mask="url(#prefix__an)"/>
        </g>
        <g transform="translate(535 291)">
            <mask id="prefix__aq" fill="#fff">
                <use xlink:href="#prefix__ao"/>
            </mask>
            <path fill="url(#prefix__ap)" d="M.34.601C.214.601.111.703.111.829v.691h3.406v-.401c0-.286-.233-.518-.521-.518H.34z" mask="url(#prefix__aq)"/>
        </g>
        <g transform="translate(539 291)">
            <mask id="prefix__at" fill="#fff">
                <use xlink:href="#prefix__ar"/>
            </mask>
            <path fill="url(#prefix__as)" d="M.234.601C.108.601.005.703.005.829v.691h3.406v-.401c0-.286-.232-.518-.518-.518H.234z" mask="url(#prefix__at)"/>
        </g>
        <g>
            <path fill="#333" d="M491.828 237.803h72.035c1.008 0 1.747.948 1.5 1.924l-13.26 52.365h-75.725l13.33-52.639c.246-.97 1.119-1.65 2.12-1.65"/>
            <path fill="#FFF" d="M479.497 288.61L491.828 239.971 559.271 239.971 546.955 288.61z"/>
            <path fill="#4F4F4F" d="M551.825 294.371c0 .216-.176.392-.393.392h-74.329c-.433 0-.785-.35-.785-.783v-1.888h75.507v2.28z"/>
            <path fill="#333" d="M494.599 294.371c0 .216-.174.392-.392.392h-67.634c-.434 0-.784-.35-.784-.783v-1.888h68.81v2.28z"/>
            <path fill="#0C1540" d="M440.794 291.295v.796h-3.539v-1.058h3.152c.213 0 .387.117.387.262M444.898 291.295v.796h-3.538v-1.058h3.152c.214 0 .386.117.386.262M449.003 291.295v.796h-3.539v-1.058h3.154c.214 0 .385.117.385.262"/>
            <path fill="#333" d="M466.108 291.295v.796h-3.538v-1.058h3.152c.213 0 .386.117.386.262M470.214 291.295v.796h-3.539v-1.058h3.152c.213 0 .387.117.387.262"/>
            <path fill="#0C1540" d="M518.402 291.295v.796h-3.54v-1.058h3.153c.214 0 .387.117.387.262M522.507 291.295v.796h-3.538v-1.058h3.152c.213 0 .386.117.386.262M461.881 291.295v.796h-12.167v-1.058h11.781c.213 0 .386.117.386.262M535.833 291.295v.796h-12.165v-1.058h11.779c.214 0 .386.117.386.262"/>
            <path fill="#333" d="M513.913 291.295v.796h-42.245v-1.058h41.858c.213 0 .387.117.387.262"/>
            <path fill="#4F4F4F" d="M553.148 290.76c-.572 2.135-2.1 3.406-4.488 3.406l14.818-56.363s3.158-.552 2.447 2.33c-.593 2.404-9.686 39.11-12.777 50.627"/>
            <path fill="#FFCEBD" d="M553.398 288.148c-6.058 0-8.629 5.564-13.67 3.357-5.041-2.206-7.38-2.091-7.14-6.288.238-4.197 3.626-3.86 10.493-3.86 6.702 0 19.31 6.791 10.317 6.791M488.55 420.535c-12.372 0-3.987-14.912-1.253-22.746l-11.766-2.768c-3.15 7.847-.686 15.696-7.02 26.08-4.503 7.385.784 8.57.784 8.57h29.622s0-9.136-10.367-9.136"/>
            <path fill="#0C1540" d="M488.55 420.535c-3.515 0-5.351-1.205-6.12-3.107-2.291-.455-2.198.915-3.775 2.076-4.667 3.436-9.451.464-10.143 1.598-4.504 7.384.783 8.57.783 8.57h29.622s0-9.137-10.367-9.137"/>
            <path fill="#FFCEBD" d="M546.786 419.433c-9.945-3.117-16.88-18.278-20.342-26.402l-11.608 4.722c2.64 3.844 9.164 10.044 10.457 23.348.92 9.46 3.468 8.57 3.468 8.57h32.172s-4.203-7.122-14.147-10.238"/>
            <path fill="#0C1540" d="M546.785 419.433c-3.001-.94-5.727-2.983-8.168-5.593-.734-.807-1.526 2.654-2.374 3.785-1.702 2.267-8.97 3.219-11.164 1.663.109.656.154 1.197.214 1.813.92 9.46 3.467 8.57 3.467 8.57h32.173s-4.203-7.122-14.148-10.238"/>
            <path fill="#CCC" d="M447.444 338.712L443.321 338.712 457.212 429.693 461.336 429.693zM495.956 338.712L491.831 338.712 505.724 429.693 509.847 429.693z"/>
            <path fill="#3251D0" d="M499.722 323.445s26.333 67.804 29.928 75.163c0 0-5.12 5.798-12.059 6 0 0-38.668-61.88-42.274-68.829-3.605-6.95 24.405-12.334 24.405-12.334"/>
            <path fill="#4763D5" d="M509.846 333.341s-21.784 63.42-24.245 71.233c0 0-7.705.681-12.878-3.947 0 0 7.913-55.713 10.082-63.235 2.172-7.523 27.041-4.05 27.041-4.05"/>
            <path fill="#FFCEBD" d="M460.338 218.657s-4.148.529-4.689 3.567c-.544 3.037 1.245 5.944 1.245 5.944s-8.837 2.335-16.723-.703c0 0 3.998-7.876 4.07-16.268.072-8.39 16.097 7.46 16.097 7.46"/>
            <path fill="#FFBDA6" d="M451.493 224.233c.046-3.953 3.221-6.867 6.897-7.414-4.272-3.913-14.093-12.186-14.149-5.62-.071 8.39-4.07 16.267-4.07 16.267 3.882 1.494 7.993 1.686 11.168 1.497.039-1.576.136-3.152.154-4.73"/>
            <path fill="#FFCEBD" d="M470.148 193.653s.86 5.562.438 10.125c-.422 4.562 1.271 10.61-3.119 15.766-4.39 5.156-14.431-.585-16.747-6.824-2.316-6.239-.277-11.136 2.952-14.001 3.23-2.865 16.476-5.066 16.476-5.066"/>
            <path fill="#534741" d="M465.263 197.428s-1.764 1.707-2.53 5.671c-.768 3.964-1.492 6.126-2.838 3.497-1.348-2.628-1.716-6.836-5.145-4.309-2.269 1.67-2.227 4.966-1.534 6.77.695 1.804-1.596 5.776-6.299 4.27-4.702-1.506-7.82-14.215-7.82-14.215s21.52-6.728 26.166-1.684"/>
            <path fill="#534741" d="M467.398 181.453s6.323 1.575 6.909 6.934c.52 4.758-2.05 9.402-10.497 9.027-8.447-.373-9.01 4.89-13.474 6.294-4.465 1.407-8.96.089-11.106-4.31-2.226-4.566-1.535-10.123 3.946-14.64 5.48-4.519 23.635-10.979 24.222-3.305"/>
            <path fill="#4763D5" d="M408.223 298.859c0 10.594-11.31 36.336 10.872 36.092 22.137-.245 90.092 0 90.092 0s4.63-9.114-1.664-14.829c-6.295-5.713-44.402-14.076-49.046-19.89-4.643-5.814-50.254-1.373-50.254-1.373"/>
            <path fill="#3251D0" d="M446.865 330.534c-39.65 0-28.429-31.06-28.817-32.467-5.791.399-9.825.792-9.825.792 0 10.594-11.31 36.336 10.874 36.092 15.852-.174 55.2-.1 76.263-.043-2.381-.568-43.104-4.374-48.495-4.374"/>
            <path fill="#F7F6F1" d="M459.018 227.648c4.397.212 11.685 6.103 11.685 15.083 0 11.862-2.176 28.424-7.53 36.815-5.354 8.39 4.817 18.442-4.155 22.06-8.97 3.615-50.542 4.123-52.134-1.953-1.591-6.076 7.141-47.378 9.624-55.55 2.458-8.1 6.871-14.032 10.2-15.478 3.329-1.447 24.24-1.365 32.31-.977"/>
            <path fill="#FFD600" d="M459.018 227.648c-2.68-1.391-5.024-.378-7.494-2.766-4.421-4.275-10.738-3.946-10.738-3.946l-6.843 6.749s15.748 6.31 25.075-.037"/>
            <path fill="#F7F6F1" d="M457.763 229.025c3.572-3.209 12.651 1.186 18.874 9.142 6.222 7.957 19.195 38.055 22.458 44.91 3.039 6.382-6.222 17.503-16.351 7.232-10.13-10.271-17.79-26.108-21.408-37.392-3.617-11.284-7.449-20.41-3.573-23.892"/>
            <path fill="gray" d="M452.447 293.143h-62.198c-1.427 0-2.687-1.026-3.052-2.484l-4.39-17.589c-.512-2.052.93-4.032 2.937-4.032h62.2c1.426 0 2.685 1.026 3.05 2.485l4.39 17.588c.512 2.052-.93 4.032-2.937 4.032"/>
            <path fill="#CCC" d="M450.656 293.143H390.13c-1.387 0-2.596-.948-2.926-2.296l-3.972-16.254c-.464-1.898.973-3.727 2.926-3.727h60.524c1.388 0 2.597.948 2.926 2.296l3.973 16.255c.463 1.897-.973 3.726-2.926 3.726"/>
            <mask id="prefix__av" fill="#fff">
                <use xlink:href="#prefix__au"/>
            </mask>
            <path fill="gray" d="M464.765 339.833L512.226 339.833 512.226 334.951 464.765 334.951z" mask="url(#prefix__av)"/>
            <path fill="#E6E6E6" d="M455.105 338.712L459.23 338.712 445.337 429.693 441.214 429.693zM406.595 338.712L410.719 338.712 396.827 429.693 392.704 429.693z" mask="url(#prefix__av)"/>
            <path fill="#CCC" d="M401.711 339.833L464.764 339.833 464.764 334.951 401.711 334.951z" mask="url(#prefix__av)"/>
            <path fill="#E6E6E6" d="M458.083 338.241c-.758 0-1.449-.509-1.646-1.276l-14.764-57.558c-.233-.909.315-1.836 1.224-2.069.913-.237 1.838.315 2.07 1.225l14.765 57.556c.232.91-.316 1.837-1.225 2.07-.143.036-.284.052-.424.052" mask="url(#prefix__av)"/>
            <path fill="#FFF" d="M456.383 338.241c-.758 0-1.45-.509-1.647-1.276l-14.763-57.558c-.233-.909.314-1.836 1.223-2.069.915-.237 1.838.315 2.07 1.225l14.766 57.556c.233.91-.317 1.837-1.226 2.07-.142.036-.283.052-.423.052" mask="url(#prefix__av)"/>
            <path fill="#E6E6E6" d="M409.943 338.241c-.758 0-1.45-.509-1.646-1.276l-14.765-57.558c-.232-.909.315-1.836 1.225-2.069.912-.237 1.838.315 2.07 1.225l14.764 57.556c.233.91-.316 1.837-1.225 2.07-.142.036-.284.052-.423.052" mask="url(#prefix__av)"/>
            <path fill="#FFF" d="M408.243 338.241c-.758 0-1.45-.509-1.647-1.276l-14.763-57.558c-.234-.909.314-1.836 1.223-2.069.915-.237 1.837.315 2.07 1.225l14.764 57.556c.234.91-.315 1.837-1.224 2.07-.142.036-.284.052-.423.052" mask="url(#prefix__av)"/>
            <path fill="#F7F6F1" d="M490.514 294.485c10.323 1.293 26.922-.001 47.759-.63 0 0 2.478-8.022-.778-13.446 0 0-39.704-2.18-43.935-2.071-4.233.108-13.79 14.8-3.046 16.147" mask="url(#prefix__av)"/>
            <path fill="#000100" d="M458.025 196.35c-3.237 0-5.86 3.402-5.86 7.597 0 4.196 2.623 7.597 5.86 7.597s5.86-3.4 5.86-7.597c0-4.195-2.623-7.597-5.86-7.597" mask="url(#prefix__av)"/>
            <path fill="#333" d="M459.38 197.875c-2.586 0-4.683 2.719-4.683 6.072 0 3.354 2.097 6.072 4.683 6.072 2.587 0 4.683-2.718 4.683-6.072 0-3.353-2.096-6.072-4.683-6.072" mask="url(#prefix__av)"/>
            <path fill="#999" d="M460.844 202.058c-.804 0-1.457.845-1.457 1.89 0 1.043.653 1.888 1.457 1.888s1.457-.845 1.457-1.888c0-1.045-.653-1.89-1.457-1.89" mask="url(#prefix__av)"/>
            <path fill="#999" d="M461.292 202.638c-.558 0-1.01.586-1.01 1.31 0 .723.452 1.308 1.01 1.308.557 0 1.009-.585 1.009-1.309 0-.723-.452-1.309-1.01-1.309" mask="url(#prefix__av)"/>
            <path fill="#999" d="M460.429 203.633c.097-2.188-.09-4.498-.492-6.706-.406-2.22-1.076-4.392-2.05-6.41-.993-2.004-2.306-3.86-3.995-5.322-1.663-1.492-3.698-2.533-5.846-3.201l.264-.93c2.284.64 4.497 1.695 6.333 3.252 1.863 1.522 3.33 3.484 4.445 5.592 1.098 2.123 1.867 4.398 2.357 6.718.485 2.334.749 4.662.71 7.103l-1.726-.096z" mask="url(#prefix__av)"/>
            <path fill="#333" d="M471.094 217.431h-6.49c-2.083 0-3.991-1.14-4.975-2.976l-1.917-3.574c-.15-.28-.045-.627.235-.778.281-.151.63-.045.78.235l1.917 3.572c.783 1.462 2.302 2.37 3.96 2.37h6.49c.318 0 .576.257.576.575 0 .318-.258.576-.576.576" mask="url(#prefix__av)"/>
        </g>
        <g transform="translate(224 291)">
            <mask id="prefix__ay" fill="#fff">
                <use xlink:href="#prefix__aw"/>
            </mask>
            <path fill="url(#prefix__ax)" d="M.453.601C.306.601.187.703.187.829v.691h6.798v-.401c0-.286-.27-.518-.606-.518H.453z" mask="url(#prefix__ay)"/>
        </g>
        <g transform="translate(232 291)">
            <mask id="prefix__aB" fill="#fff">
                <use xlink:href="#prefix__az"/>
            </mask>
            <path fill="url(#prefix__aA)" d="M.465.601c-.144 0-.26.102-.26.228v.691h6.658v-.401c0-.286-.266-.518-.593-.518H.465z" mask="url(#prefix__aB)"/>
        </g>
        <g transform="translate(240 291)">
            <mask id="prefix__aE" fill="#fff">
                <use xlink:href="#prefix__aC"/>
            </mask>
            <path fill="url(#prefix__aD)" d="M.487.601C.342.601.225.703.225.829v.691h6.66v-.401c0-.286-.268-.518-.594-.518H.487z" mask="url(#prefix__aE)"/>
        </g>
        <g transform="translate(247 291)">
            <mask id="prefix__aH" fill="#fff">
                <use xlink:href="#prefix__aF"/>
            </mask>
            <path fill="url(#prefix__aG)" d="M.507.601c-.145 0-.26.102-.26.228v.691h6.658v-.401c0-.286-.265-.518-.593-.518H.507z" mask="url(#prefix__aH)"/>
        </g>
        <g transform="translate(257 291)">
            <mask id="prefix__aK" fill="#fff">
                <use xlink:href="#prefix__aI"/>
            </mask>
            <path fill="url(#prefix__aJ)" d="M.707.601C.581.601.478.703.478.829v.691h3.406v-.401c0-.286-.232-.518-.519-.518H.707z" mask="url(#prefix__aK)"/>
        </g>
        <g transform="translate(261 291)">
            <mask id="prefix__aN" fill="#fff">
                <use xlink:href="#prefix__aL"/>
            </mask>
            <path fill="url(#prefix__aM)" d="M1.014.601C.863.601.739.703.739.829v.691h4.086v-.401c0-.286-.278-.518-.621-.518h-3.19z" mask="url(#prefix__aN)"/>
        </g>
        <g transform="translate(266 291)">
            <mask id="prefix__aQ" fill="#fff">
                <use xlink:href="#prefix__aO"/>
            </mask>
            <path fill="url(#prefix__aP)" d="M.74.601C.613.601.511.703.511.829v.691h3.406v-.401c0-.286-.233-.518-.52-.518H.74z" mask="url(#prefix__aQ)"/>
        </g>
        <g>
            <path fill="#333" d="M219.383 237.803h72.036c1.007 0 1.745.948 1.498 1.924l-13.26 52.365h-75.723l13.329-52.639c.245-.97 1.119-1.65 2.12-1.65"/>
            <path fill="#FFF" d="M207.053 288.61L219.383 239.971 286.826 239.971 274.51 288.61z"/>
            <path fill="#4F4F4F" d="M279.38 294.371c0 .216-.176.392-.393.392h-74.33c-.432 0-.783-.35-.783-.783v-1.888h75.506v2.28z"/>
            <path fill="#333" d="M222.154 294.371c0 .216-.174.392-.392.392h-67.635c-.433 0-.782-.35-.782-.783v-1.888h68.809v2.28zM168.349 291.295v.796h-3.54v-1.058h3.154c.213 0 .386.117.386.262M172.454 291.295v.796h-3.539v-1.058h3.152c.214 0 .387.117.387.262M176.558 291.295v.796h-3.538v-1.058h3.153c.213 0 .385.117.385.262M193.663 291.295v.796h-3.537v-1.058h3.152c.213 0 .385.117.385.262M197.769 291.295v.796h-3.539v-1.058h3.152c.213 0 .387.117.387.262M245.957 291.295v.796h-3.538v-1.058h3.152c.214 0 .386.117.386.262M250.062 291.295v.796h-3.538v-1.058h3.152c.213 0 .386.117.386.262M189.436 291.295v.796H177.27v-1.058h11.78c.213 0 .386.117.386.262M263.389 291.295v.796h-12.167v-1.058h11.78c.214 0 .387.117.387.262M241.468 291.295v.796h-42.244v-1.058h41.858c.213 0 .386.117.386.262"/>
            <path fill="#4F4F4F" d="M280.704 290.76c-.573 2.135-2.1 3.406-4.489 3.406l14.818-56.363s3.157-.552 2.448 2.33c-.595 2.404-9.688 39.11-12.777 50.627"/>
            <path fill="#FFCEBD" d="M280.952 288.148c-6.057 0-8.628 5.564-13.668 3.357-5.042-2.206-7.381-2.091-7.142-6.288.239-4.197 3.628-3.86 10.494-3.86 6.702 0 19.311 6.791 10.316 6.791M220.2 420.535c-12.37 0-3.986-14.912 5.65-65.526l-15.622-1.26c-13.142 23.657-3.732 56.968-10.065 67.353-4.503 7.384.783 8.57.783 8.57h29.622s0-9.137-10.367-9.137"/>
            <path fill="#0C1540" d="M220.2 420.535c-3.514 0-5.35-1.205-6.119-3.107-2.291-.455-2.198.915-3.775 2.076-4.667 3.436-9.451.464-10.143 1.598-4.503 7.384.783 8.57.783 8.57h29.622s0-9.137-10.367-9.137"/>
            <path fill="#FFCEBD" d="M274.34 419.433c-3.001-.94-5.73-2.98-8.17-5.59-5.644-6.04-21.118-57.265-23.535-62.938l-16.917 11.47c0 11.722 26.915 41.606 26.915 56.913 0 .596.155 1.194.215 1.813.919 9.46 3.468 8.57 3.468 8.57h32.171s-4.202-7.122-14.146-10.238"/>
            <path fill="#0C1540" d="M274.34 419.433c-3.001-.94-5.727-2.983-8.168-5.593-.734-.807-1.527 2.654-2.373 3.785-1.703 2.267-8.97 3.219-11.166 1.663.11.656.155 1.197.215 1.813.919 9.46 3.468 8.57 3.468 8.57h32.171s-4.202-7.122-14.146-10.238"/>
            <path fill="#CCC" d="M175 338.712L170.876 338.712 184.768 429.693 188.891 429.693z"/>
            <path fill="#FBBCBE" d="M187.893 218.657s-4.148.529-4.69 3.567c-.542 3.037 1.247 5.944 1.247 5.944s-8.838 2.335-16.723-.703c0 0 3.997-7.876 4.069-16.268.073-8.39 16.097 7.46 16.097 7.46"/>
            <path fill="#DA91A7" d="M179.048 224.233c.046-3.953 3.22-6.867 6.897-7.414-4.272-3.913-14.092-12.186-14.15-5.62-.07 8.39-4.068 16.267-4.068 16.267 3.881 1.494 7.991 1.686 11.167 1.497.038-1.576.135-3.152.154-4.73"/>
            <path fill="#FFCEBD" d="M197.704 193.653s.86 5.562.436 10.125c-.421 4.562 1.272 10.61-3.117 15.766-4.391 5.156-14.431-.585-16.748-6.824-2.317-6.239-.278-11.136 2.953-14.001 3.23-2.865 16.476-5.066 16.476-5.066"/>
            <path fill="#FF5722" d="M135.778 298.859c0 10.594-8.863 41.777 13.04 38.259 9.777-1.57 33.434 6.428 33.434 30.28 49.134 0 51.114-7.134 65.678-7.134l-5.295-25.313s-1.262-9.114-7.556-14.829c-6.295-5.713-44.404-14.076-49.047-19.89-4.643-5.814-50.254-1.373-50.254-1.373"/>
            <g transform="translate(132.481 297.251)">
                <mask id="prefix__aS" fill="#fff">
                    <use xlink:href="#prefix__aR"/>
                </mask>
                <path d="M41.938 33.283C2.289 33.283 13.51 2.223 13.12.815c-5.79.4-9.825.793-9.825.793 0 10.594-11.31 36.335 10.874 36.092 15.853-.175 55.2-.1 76.263-.044-2.381-.568-43.103-4.373-48.495-4.373" mask="url(#prefix__aS)"/>
            </g>
            <path fill="#CCC" d="M223.51 338.712L219.386 338.712 233.278 429.693 237.402 429.693z"/>
            <path fill="#FF5722" d="M186.574 227.648c4.396.212 11.684 6.103 11.684 15.083 0 11.862 2.02 21.56-8.822 31.129-7.462 6.588 4.833 24.999-2.862 27.745-9.11 3.25-50.543 4.124-52.134-1.952-1.592-6.076 7.14-47.378 9.622-55.55 2.46-8.1 6.872-14.032 10.201-15.478 3.329-1.447 24.239-1.365 32.311-.977"/>
            <path fill="#FFF" d="M186.574 227.648c-2.682-1.391-5.024-.378-7.495-2.766-4.421-4.275-10.737-3.946-10.737-3.946l-6.844 6.749s15.748 6.31 25.076-.037"/>
            <path fill="#FF5722" d="M185.317 229.025c3.573-3.209 12.653 1.186 18.875 9.142 6.222 7.957 19.195 38.055 22.457 44.91 3.04 6.382-6.222 17.503-16.35 7.232-10.13-10.271-17.79-26.108-21.408-37.392-3.617-11.284-7.449-20.41-3.574-23.892"/>
            <path fill="gray" d="M180.002 293.143h-62.199c-1.426 0-2.686-1.026-3.05-2.484l-4.39-17.589c-.513-2.052.93-4.032 2.937-4.032H175.5c1.426 0 2.686 1.026 3.049 2.485l4.391 17.588c.512 2.052-.93 4.032-2.937 4.032"/>
            <path fill="#CCC" d="M178.21 293.143h-60.523c-1.388 0-2.596-.948-2.926-2.296l-3.973-16.254c-.464-1.898.972-3.727 2.926-3.727h60.525c1.388 0 2.596.948 2.926 2.296l3.972 16.255c.464 1.897-.972 3.726-2.926 3.726"/>
            <mask id="prefix__aU" fill="#fff">
                <use xlink:href="#prefix__aT"/>
            </mask>
            <path fill="gray" d="M192.319 339.833L239.781 339.833 239.781 334.951 192.319 334.951z" mask="url(#prefix__aU)"/>
            <path fill="#E6E6E6" d="M182.661 338.712L186.784 338.712 172.893 429.693 168.769 429.693zM134.15 338.712L138.274 338.712 124.383 429.693 120.259 429.693z" mask="url(#prefix__aU)"/>
            <path fill="#CCC" d="M129.266 339.833L192.319 339.833 192.319 334.951 129.266 334.951z" mask="url(#prefix__aU)"/>
            <path fill="#B3C0EC" d="M185.638 338.241c-.757 0-1.45-.509-1.646-1.276l-14.763-57.558c-.234-.909.314-1.836 1.223-2.069.913-.237 1.838.315 2.07 1.225l14.764 57.556c.234.91-.315 1.837-1.224 2.07-.142.036-.285.052-.424.052" mask="url(#prefix__aU)"/>
            <path fill="#FFF" d="M183.938 338.241c-.758 0-1.45-.509-1.646-1.276l-14.764-57.558c-.233-.909.315-1.836 1.224-2.069.914-.237 1.837.315 2.07 1.225l14.765 57.556c.232.91-.317 1.837-1.226 2.07-.142.036-.283.052-.423.052" mask="url(#prefix__aU)"/>
            <path fill="#B3C0EC" d="M137.498 338.241c-.758 0-1.45-.509-1.647-1.276l-14.764-57.558c-.232-.909.316-1.836 1.225-2.069.912-.237 1.837.315 2.069 1.225l14.765 57.556c.233.91-.315 1.837-1.226 2.07-.141.036-.283.052-.422.052" mask="url(#prefix__aU)"/>
            <path fill="#FFF" d="M135.798 338.241c-.758 0-1.45-.509-1.648-1.276l-14.763-57.558c-.232-.909.315-1.836 1.224-2.069.915-.237 1.837.315 2.07 1.225l14.765 57.556c.233.91-.316 1.837-1.225 2.07-.142.036-.284.052-.423.052" mask="url(#prefix__aU)"/>
            <path fill="#FF5722" d="M218.069 294.485c10.323 1.293 26.922-.001 47.76-.63 0 0 2.477-8.022-.779-13.446 0 0-39.704-2.18-43.935-2.071-4.233.108-13.79 14.8-3.046 16.147" mask="url(#prefix__aU)"/>
            <path fill="#333" d="M198.649 217.431h-6.49c-2.083 0-3.991-1.14-4.975-2.976l-1.917-3.574c-.15-.28-.045-.627.236-.778.281-.151.63-.044.78.235l1.917 3.572c.782 1.462 2.3 2.37 3.958 2.37h6.49c.319 0 .577.257.577.575 0 .318-.258.576-.576.576" mask="url(#prefix__aU)"/>
            <path fill="#151618" d="M194.27 184.768c13.506 9.413 2.328 22.273 2.328 22.273s2.648-8.997-2.329-8.997c-1.564 0-5.406 5.826-5.406 13.041 0 8.895-.929 17.453-6.612 17.453-10.801 0-19.159 35.477-33.007 35.477 7.99-19.409 3.236-34.658 3.236-36.61 0-26.612 9.765-37.09 15.247-41.608 5.48-4.518 18.038-6.956 26.542-1.03" mask="url(#prefix__aU)"/>
            <path fill="#000100" d="M185.58 196.35c-3.236 0-5.86 3.402-5.86 7.597 0 4.196 2.624 7.597 5.86 7.597 3.237 0 5.86-3.4 5.86-7.597 0-4.195-2.623-7.597-5.86-7.597" mask="url(#prefix__aU)"/>
            <path fill="#333" d="M186.935 197.875c-2.586 0-4.683 2.719-4.683 6.072 0 3.354 2.097 6.072 4.683 6.072 2.588 0 4.684-2.718 4.684-6.072 0-3.353-2.096-6.072-4.684-6.072" mask="url(#prefix__aU)"/>
            <path fill="#999" d="M188.399 202.058c-.804 0-1.458.845-1.458 1.89 0 1.043.654 1.888 1.458 1.888.805 0 1.458-.845 1.458-1.888 0-1.045-.653-1.89-1.458-1.89" mask="url(#prefix__aU)"/>
            <path fill="#999" d="M188.847 202.638c-.558 0-1.01.586-1.01 1.31 0 .723.452 1.308 1.01 1.308.557 0 1.01-.585 1.01-1.309 0-.723-.453-1.309-1.01-1.309" mask="url(#prefix__aU)"/>
            <path fill="#999" d="M187.984 203.633c.096-2.188-.09-4.498-.492-6.706-.405-2.22-1.075-4.392-2.05-6.41-.993-2.004-2.306-3.86-3.995-5.322-1.663-1.492-3.698-2.533-5.846-3.201l.264-.93c2.284.64 4.497 1.695 6.333 3.252 1.863 1.522 3.33 3.484 4.445 5.592 1.099 2.123 1.867 4.398 2.358 6.718.485 2.334.749 4.662.708 7.103l-1.725-.096z" mask="url(#prefix__aU)"/>
            <path fill="#0DF" d="M203.427 114.81c.017.357.024.713.024 1.07 0 10.927-8.33 23.525-23.563 23.525-4.675 0-9.029-1.369-12.692-3.715.646.077 1.305.115 1.974.115 3.88 0 7.45-1.32 10.286-3.539-3.623-.066-6.682-2.457-7.736-5.741.506.095 1.024.148 1.557.148.755 0 1.488-.101 2.182-.29-3.788-.76-6.643-4.101-6.643-8.107 0-.034 0-.07.002-.103 1.115.618 2.393.99 3.75 1.033-2.223-1.484-3.683-4.013-3.683-6.882 0-1.515.406-2.934 1.12-4.156 4.083 5.002 10.187 8.294 17.07 8.639-.143-.606-.214-1.237-.214-1.884 0-4.567 3.707-8.268 8.28-8.268 2.382 0 4.534 1.004 6.045 2.61 1.886-.37 3.659-1.057 5.259-2.006-.62 1.93-1.932 3.55-3.642 4.575 1.675-.2 3.272-.645 4.757-1.302-1.11 1.658-2.515 3.113-4.133 4.279" mask="url(#prefix__aU)"/>
            <path fill="#0096FF" d="M510.171 190.286L505.477 195.185 505.477 208.29 510.171 208.29zM517.794 182.666L513.1 187.156 513.1 208.289 517.794 208.289zM525.416 182.666L520.722 178.585 520.722 208.289 525.416 208.289zM533.038 183.891L530.692 186.34 528.344 184.708 528.344 208.29 533.038 208.29zM540.661 176.544L535.967 181.442 535.967 208.289 540.661 208.289zM548.284 176.952L543.589 173.279 543.589 208.29 548.284 208.29zM555.906 178.993L551.212 180.626 551.212 208.289 555.906 208.289zM563.528 170.83L558.834 175.319 558.834 208.289 563.528 208.289z" mask="url(#prefix__aU)"/>
            <path fill="#0096FF" d="M558.834 177.822L563.528 173.128 563.528 170.83 558.834 175.32z" mask="url(#prefix__aU)"/>
            <path fill="#FF3453" d="M568.907 163.581l-15.163 15.213c-.365-.183-.762-.31-1.199-.31-.415 0-.796.109-1.147.275l-4.937-4.934c.038-.183.11-.353.11-.546 0-1.499-1.216-2.715-2.716-2.715-1.498 0-2.715 1.216-2.715 2.715 0 .367.078.716.21 1.036l-10.295 10.293c-.201-.047-.391-.123-.607-.123-.346 0-.673.08-.977.198l-4.905-4.904c.077-.252.158-.507.158-.786 0-1.499-1.215-2.714-2.714-2.714-1.5 0-2.714 1.215-2.714 2.714 0 .305.08.588.172.86l-19.731 19.726v2.96l21.076-21.138c.364.181.761.306 1.197.306.458 0 .873-.144 1.252-.346l4.724 4.723c-.155.343-.253.716-.253 1.116 0 1.499 1.215 2.714 2.715 2.714 1.499 0 2.716-1.215 2.716-2.714 0-.515-.185-.97-.434-1.382l10.053-10.05c.33.144.691.224 1.072.224.536 0 1.006-.194 1.425-.46l4.739 4.733c-.109.294-.19.603-.19.934 0 1.5 1.216 2.713 2.716 2.713 1.5 0 2.714-1.214 2.714-2.713 0-.304-.08-.583-.172-.855l13.82-13.817v-2.946z" mask="url(#prefix__aU)"/>
            <path fill="#FF4965" d="M733.6 230.416l-16.419 6.046c-.31.114-.467.456-.353.767l1.15 3.123c.114.31.458.467.767.354l16.418-6.046c.31-.114.469-.457.354-.767l-1.15-3.122c-.115-.311-.457-.47-.767-.355" mask="url(#prefix__aU)"/>
            <path fill="#CCC" d="M731.44 201.153l-31.605 11.64c-2.064.76-3.122 3.05-2.36 5.113l7.28 19.757c.76 2.064 3.05 3.121 5.114 2.361l31.607-11.639c2.063-.761 3.12-3.05 2.36-5.114l-7.28-19.758c-.76-2.064-3.05-3.12-5.115-2.36" mask="url(#prefix__aU)"/>
            <path fill="#CCC" d="M715.118 199.679l-3.817 1.405c-2.586.952-3.91 3.82-2.958 6.406l2.39 6.487 13.183-4.855-2.39-6.487c-.953-2.585-3.822-3.909-6.408-2.956" mask="url(#prefix__aU)"/>
            <path fill="#CCC" d="M712.034 195.127L714.189 200.972 712.848 201.466 710.695 195.621z" mask="url(#prefix__aU)"/>
            <path fill="#FF4965" d="M742.443 209.148l-4.2 1.546 2.387 6.479 4.2-1.548c1.136-.417 1.718-1.677 1.299-2.811l-.873-2.368c-.418-1.135-1.678-1.716-2.813-1.298M699.037 232.49l4.2-1.547-2.387-6.478-4.2 1.548c-1.136.418-1.716 1.677-1.298 2.811l.873 2.368c.417 1.134 1.677 1.716 2.812 1.298M710.63 193.234c.863-.318 1.822.123 2.139.987.319.864-.124 1.822-.987 2.14-.864.318-1.822-.124-2.14-.988-.32-.863.123-1.82.987-2.139" mask="url(#prefix__aU)"/>
            <path fill="#333" d="M717.755 220.349c.925 2.51-.36 5.295-2.872 6.219-2.511.925-5.297-.36-6.222-2.871-.924-2.51.362-5.294 2.873-6.22 2.51-.924 5.296.361 6.221 2.872" mask="url(#prefix__aU)"/>
            <path fill="#F8FEFF" d="M716.39 220.851c.647 1.757-.253 3.705-2.01 4.351-1.758.649-3.706-.25-4.352-2.008-.649-1.755.251-3.705 2.009-4.351 1.756-.649 3.705.252 4.352 2.008" mask="url(#prefix__aU)"/>
            <path fill="#333" d="M731.8 215.176c.926 2.51-.36 5.296-2.871 6.22-2.512.924-5.297-.361-6.222-2.872-.924-2.51.362-5.294 2.873-6.219 2.509-.925 5.295.36 6.22 2.871" mask="url(#prefix__aU)"/>
            <path fill="#F8FEFF" d="M730.435 215.679c.647 1.756-.252 3.705-2.01 4.351-1.757.648-3.705-.251-4.353-2.009-.647-1.756.253-3.705 2.01-4.35 1.756-.65 3.706.252 4.353 2.008" mask="url(#prefix__aU)"/>
            <path stroke="#333" stroke-linecap="round" stroke-linejoin="round" stroke-width=".655" d="M715.05 229.82s9.909 2.076 15.04-5.54" mask="url(#prefix__aU)"/>
            <path fill="#FF4965" d="M144.167 166.024c2.526-3.163 4.048-7.168 4.048-11.532 0-10.22-8.289-18.504-18.512-18.504-10.222 0-18.51 8.284-18.51 18.504s8.288 18.506 18.51 18.506c3.795 0 7.32-1.145 10.257-3.104l7.165 3.821-2.958-7.69z" mask="url(#prefix__aU)"/>
            <path fill="#FFF" d="M121.898 149.438c1.787-1.748 4.645-1.717 6.392.068l1.15 1.175 1.186-1.167c1.777-1.751 4.639-1.728 6.391.049 1.751 1.778 1.73 4.64-.05 6.39l-4.395 4.328c-.01.01-.017.021-.026.03-.701.688-1.569 1.1-2.47 1.237-1.391.213-2.861-.223-3.921-1.303l-4.325-4.416c-1.745-1.784-1.715-4.644.068-6.39" mask="url(#prefix__aU)"/>
            <path fill="#BADC00" d="M32.246 295.31c-2.205-.015-4.344-.298-5.856-2.46-2.964-4.244-7.489-8.055-12.563-3.738-2.927 2.489-.726 7.61-3.246 10.073-2.226 2.179-5.06 1.818-6.199 5.433-1.676 5.319 3.606 9.98 5.302 14.578 1.423 3.861-1.778 5.33-3.215 8.339-1.109 2.318-.54 4.801.669 7.018 2.13 3.91 6.852 7.056 5.759 12.117-.914 4.225-1.763 7.988 1.965 11.191 2.557 2.194 7.298 4.194 6.938 8.256-.13 1.437-1.125 2.662-1.397 4.079-.432 2.243 1.021 4.426 2.709 5.965 3.84 3.502 7.211 6.805 10.088 11.213 1.23 1.881 6.15 6.133 4.183 8.708 3.575-4.679 7.352-9.218 10.598-14.136 2.673-4.046 6.7-9.964 3.958-14.947-.853-1.55-2.437-2.705-2.872-4.42-.785-3.095 2.259-5.966 3.39-8.601 1.775-4.135.472-8.939-2.657-12.045-1.48-1.468-3.086-3.083-3.304-5.157-.237-2.265 1.182-4.376 1.828-6.464.594-1.926.964-3.975 1.18-5.974.154-1.412.212-2.858-.12-4.24-.632-2.627-2.998-4.086-4.75-5.95-4.17-4.438-1.977-9.655-3.8-14.814-1.634-4.628-5.188-4.005-8.588-4.025" mask="url(#prefix__aU)"/>
        </g>
        <g transform="translate(3 287)">
            <mask id="prefix__aW" fill="#fff">
                <use xlink:href="#prefix__aV"/>
            </mask>
            <path stroke="#26A8D1" stroke-width="1.148" d="M34.581 114.04c1.56-17.675.127-35.49-3.171-52.897-3.147-16.605-7.277-33.268-13.538-49.009C15.804 6.932 13.48 1.83 10.84-3.113" mask="url(#prefix__aW)"/>
            <mask id="prefix__aY" fill="#fff">
                <use xlink:href="#prefix__aX"/>
            </mask>
            <path stroke="#26A8D1" stroke-width="1.148" d="M-3.256 20.587c8.789 3.071 17.171 7.277 24.868 12.48 1.954 1.32 3.04 1.724 4.667 3.421" mask="url(#prefix__aY)"/>
            <mask id="prefix__ba" fill="#fff">
                <use xlink:href="#prefix__aZ"/>
            </mask>
            <path stroke="#26A8D1" stroke-width="1.148" d="M30.447 55.425c-8.434-5.397-18-9.052-27.912-10.665" mask="url(#prefix__ba)"/>
            <g>
                <mask id="prefix__bc" fill="#fff">
                    <use xlink:href="#prefix__bb"/>
                </mask>
                <path stroke="#26A8D1" stroke-width="1.148" d="M33.783 78.225C25.933 71.491 16.364 66.737 6.22 64.53" mask="url(#prefix__bc)"/>
            </g>
            <g>
                <mask id="prefix__be" fill="#fff">
                    <use xlink:href="#prefix__bd"/>
                </mask>
                <path stroke="#26A8D1" stroke-width="1.148" d="M25.844 35.907c.613-9.351 2.965-18.589 6.9-27.111" mask="url(#prefix__be)"/>
            </g>
            <g>
                <mask id="prefix__bg" fill="#fff">
                    <use xlink:href="#prefix__bf"/>
                </mask>
                <path stroke="#26A8D1" stroke-width="1.148" d="M30.34 54.654c3.988-8.447 9.751-16.07 16.814-22.24" mask="url(#prefix__bg)"/>
            </g>
            <g>
                <mask id="prefix__bi" fill="#fff">
                    <use xlink:href="#prefix__bh"/>
                </mask>
                <path stroke="#26A8D1" stroke-width="1.148" d="M34.306 78.874c.552-2.61 1.519-5.133 2.854-7.449 1.554-2.693 3.587-5.082 5.657-7.41 1.491-1.677 3.008-3.331 4.549-4.962" mask="url(#prefix__bi)"/>
            </g>
        </g>
        <path fill="#26A8D1" d="M58.811 327.06c1.621.299 3.231.39 4.643-.98 2.772-2.689 6.629-4.844 9.75-.98 1.8 2.226-.534 5.662.97 7.814 1.33 1.903 3.461 2.035 3.79 4.837.485 4.12-4.046 6.79-5.935 9.915-1.586 2.624.557 4.144 1.192 6.544.488 1.847-.278 3.583-1.475 5.035-2.112 2.56-6.02 4.201-5.926 8.054.078 3.214.174 6.084-3.01 7.904-2.184 1.249-5.947 2.05-6.251 5.069-.107 1.067.452 2.101.453 3.176.004 1.699-1.37 3.092-2.824 3.982-3.31 2.025-6.249 3.967-8.978 6.787-1.166 1.205-5.373 3.627-4.291 5.783-1.968-3.919-4.105-7.762-5.8-11.81-1.395-3.33-3.522-8.216-.812-11.476.844-1.014 2.17-1.638 2.728-2.83 1.01-2.154-.822-4.677-1.283-6.76-.724-3.27.905-6.6 3.638-8.432 1.292-.867 2.698-1.824 3.149-3.31.492-1.621-.256-3.363-.435-4.98-.167-1.49-.152-3.038-.03-4.53.084-1.054.243-2.118.68-3.081.833-1.833 2.775-2.57 4.323-3.688 3.683-2.662 2.805-6.782 4.864-10.297 1.85-3.157 4.371-2.205 6.87-1.746"/>
        <g transform="translate(33 324)">
            <mask id="prefix__bk" fill="#fff">
                <use xlink:href="#prefix__bj"/>
            </mask>
            <path stroke="#3DC8E8" stroke-width="1.148" d="M7.198 79.881c1.334-13.03 4.847-25.753 9.652-37.925 4.584-11.61 9.886-23.128 16.598-33.686 2.218-3.488 4.605-6.872 7.2-10.094" mask="url(#prefix__bk)"/>
            <mask id="prefix__bm" fill="#fff">
                <use xlink:href="#prefix__bl"/>
            </mask>
            <path stroke="#3DC8E8" stroke-width="1.148" d="M47.527 17.295c-6.773 1.023-13.412 2.925-19.694 5.643-1.593.69-2.435.834-3.846 1.843" mask="url(#prefix__bm)"/>
            <mask id="prefix__bo" fill="#fff">
                <use xlink:href="#prefix__bn"/>
            </mask>
            <path stroke="#3DC8E8" stroke-width="1.148" d="M18.34 37.942c6.843-2.758 14.259-4.098 21.64-3.91" mask="url(#prefix__bo)"/>
            <g>
                <mask id="prefix__bq" fill="#fff">
                    <use xlink:href="#prefix__bp"/>
                </mask>
                <path stroke="#3DC8E8" stroke-width="1.148" d="M12.759 54.02c6.605-3.808 14.177-5.947 21.81-6.156" mask="url(#prefix__bq)"/>
            </g>
            <g>
                <mask id="prefix__bs" fill="#fff">
                    <use xlink:href="#prefix__br"/>
                </mask>
                <path stroke="#3DC8E8" stroke-width="1.148" d="M24.383 24.418c.858-6.865.446-13.885-1.21-20.606" mask="url(#prefix__bs)"/>
            </g>
            <g>
                <mask id="prefix__bu" fill="#fff">
                    <use xlink:href="#prefix__bt"/>
                </mask>
                <path stroke="#3DC8E8" stroke-width="1.148" d="M18.526 37.397c-1.705-6.67-4.804-12.988-9.045-18.43" mask="url(#prefix__bu)"/>
            </g>
            <g>
                <mask id="prefix__bw" fill="#fff">
                    <use xlink:href="#prefix__bv"/>
                </mask>
                <path stroke="#3DC8E8" stroke-width="1.148" d="M12.291 54.417c-.035-1.968-.382-3.93-1.025-5.792-.746-2.165-1.883-4.176-3.053-6.148-.843-1.42-1.707-2.828-2.592-4.223" mask="url(#prefix__bw)"/>
            </g>
        </g>
        <g>
            <g transform="translate(24.192 398.461)">
                <mask id="prefix__by" fill="#fff">
                    <use xlink:href="#prefix__bx"/>
                </mask>
                <path fill="#EFB126" d="M0.835 0.666L33.552 0.666 27.812 33.388 6.574 33.388z" mask="url(#prefix__by)"/>
            </g>
            <mask id="prefix__bA" fill="#fff">
                <use xlink:href="#prefix__bz"/>
            </mask>
            <path fill="#FFC73C" d="M21.021 399.127L61.75 399.127 61.75 389.94 21.021 389.94z" mask="url(#prefix__bA)"/>
            <path fill="#231F20" d="M56.984 403.466L25.787 403.466 25.027 399.126 57.744 399.126z" mask="url(#prefix__bA)"/>
        </g>
    </g>
</svg>
