<?xml version="1.0" encoding="UTF-8"?>
<svg width="100px" height="100px" viewBox="0 0 100 100" version="1.1" xmlns="http://www.w3.org/2000/svg" xmlns:xlink="http://www.w3.org/1999/xlink">
    <!-- Generator: Sketch 53.2 (72643) - https://sketchapp.com -->
    <title>conversaciones</title>
    <desc>Created with Sketch.</desc>
    <g id="Desktop" stroke="none" stroke-width="1" fill="none" fill-rule="evenodd">
        <g id="Chatbots" transform="translate(-550.000000, -1034.000000)">
            <g id="conversaciones" transform="translate(550.000000, 1034.000000)">
                <g id="Group-4">
                    <circle id="Oval-Copy" fill="#3D3193" cx="50" cy="50" r="50"></circle>
                    <g id="Group-21" transform="translate(21.000000, 30.000000)" fill="#FFFFFF">
                        <path d="M56.1875,31.6346154 C56.1875,34.1653846 54.19375,36.1538462 51.65625,36.1538462 L19.9375,36.1538462 C19.665625,36.1538462 19.484375,36.2442308 19.303125,36.425 L11.78125,43.9269231 L11.78125,37.0576923 C11.78125,36.5153846 11.41875,36.1538462 10.875,36.1538462 L6.34375,36.1538462 C3.80625,36.1538462 1.8125,34.1653846 1.8125,31.6346154 L1.8125,6.32692308 C1.8125,3.79615385 3.80625,1.80769231 6.34375,1.80769231 L51.65625,1.80769231 C54.19375,1.80769231 56.1875,3.79615385 56.1875,6.32692308 L56.1875,31.6346154 Z M51.65625,0 L6.34375,0 C2.809375,0 0,2.80192308 0,6.32692308 L0,31.6346154 C0,35.1596154 2.809375,37.9615385 6.34375,37.9615385 L9.96875,37.9615385 L9.96875,46.0961538 C9.96875,46.4576923 10.15,46.8192308 10.5125,46.9096154 C10.603125,47 10.784375,47 10.875,47 C11.146875,47 11.328125,46.9096154 11.509375,46.7288462 L20.3,37.9615385 L51.65625,37.9615385 C55.190625,37.9615385 58,35.1596154 58,31.6346154 L58,6.32692308 C58,2.80192308 55.190625,0 51.65625,0 L51.65625,0 Z" id="Fill-1"></path>
                        <path d="M19.03125,19.8846154 C17.853125,21.5115385 17.21875,23.5903846 17.21875,25.9403846 L17.21875,27.1153846 L13.59375,27.1153846 L13.59375,25.7596154 C13.59375,23.6807692 12.959375,21.6019231 11.6,19.6134615 C10.965625,18.7096154 10.69375,17.5346154 10.875,16.45 C11.146875,14.4615385 12.86875,12.925 14.771875,12.6538462 C16.13125,12.4730769 17.4,12.925 18.30625,13.7384615 C19.303125,14.5519231 19.846875,15.8173077 19.846875,17.0826923 C19.9375,18.1673077 19.665625,19.0711538 19.03125,19.8846154 M19.665625,12.4730769 C18.30625,11.2980769 16.49375,10.6653846 14.68125,10.9365385 C11.9625,11.2980769 9.60625,13.4673077 9.153125,16.1788462 C8.88125,17.7153846 9.24375,19.3423077 10.15,20.6076923 C11.2375,22.325 11.871875,24.0423077 11.871875,25.7596154 L11.871875,28.0192308 C11.871875,28.5615385 12.234375,28.9230769 12.778125,28.9230769 L18.215625,28.9230769 C18.759375,28.9230769 19.121875,28.5615385 19.121875,28.0192308 L19.121875,25.85 C19.121875,24.4942308 19.39375,22.5057692 20.571875,20.8788462 C21.3875,19.7942308 21.840625,18.5288462 21.840625,17.1730769 C21.75,15.3653846 20.934375,13.6480769 19.665625,12.4730769" id="Fill-3"></path>
                        <path d="M18.125,29.8269231 L12.6875,29.8269231 C12.14375,29.8269231 11.78125,30.1884615 11.78125,30.7307692 C11.78125,31.2730769 12.14375,31.6346154 12.6875,31.6346154 L18.125,31.6346154 C18.66875,31.6346154 19.03125,31.2730769 19.03125,30.7307692 C19.03125,30.1884615 18.66875,29.8269231 18.125,29.8269231" id="Fill-5"></path>
                        <path d="M15.40625,9.03846154 C15.95,9.03846154 16.3125,8.67692308 16.3125,8.13461538 L16.3125,5.42307692 C16.3125,4.88076923 15.95,4.51923077 15.40625,4.51923077 C14.8625,4.51923077 14.5,4.88076923 14.5,5.42307692 L14.5,8.13461538 C14.5,8.67692308 14.8625,9.03846154 15.40625,9.03846154" id="Fill-9"></path>
                        <path d="M23.8341938,7.50174231 L22.0216938,9.30943462 C21.6591937,9.67097308 21.6591937,10.2132808 22.0216938,10.5748192 C22.2029437,10.7555885 22.4748188,10.8459731 22.6560687,10.8459731 C22.8373188,10.8459731 23.1091937,10.7555885 23.2904438,10.5748192 L25.1029438,8.76712692 C25.4654438,8.40558846 25.4654438,7.86328077 25.1029438,7.50174231 C24.7404438,7.14020385 24.1966938,7.14020385 23.8341938,7.50174231" id="Fill-11"></path>
                        <path d="M6.97830625,7.50174231 C6.61580625,7.14020385 6.07205625,7.14020385 5.70955625,7.50174231 C5.34705625,7.86328077 5.34705625,8.40558846 5.70955625,8.76712692 L7.52205625,10.5748192 C7.70330625,10.7555885 7.97518125,10.8459731 8.15643125,10.8459731 C8.33768125,10.8459731 8.60955625,10.7555885 8.79080625,10.5748192 C9.15330625,10.2132808 9.15330625,9.67097308 8.79080625,9.30943462 L6.97830625,7.50174231 Z" id="Fill-13"></path>
                        <path d="M29.90625,15.3653846 L48.9375,15.3653846 C49.48125,15.3653846 49.84375,15.0038462 49.84375,14.4615385 C49.84375,13.9192308 49.48125,13.5576923 48.9375,13.5576923 L29.90625,13.5576923 C29.3625,13.5576923 29,13.9192308 29,14.4615385 C29,15.0038462 29.3625,15.3653846 29.90625,15.3653846" id="Fill-15"></path>
                        <path d="M29.90625,19.8846154 L44.40625,19.8846154 C44.95,19.8846154 45.3125,19.5230769 45.3125,18.9807692 C45.3125,18.4384615 44.95,18.0769231 44.40625,18.0769231 L29.90625,18.0769231 C29.3625,18.0769231 29,18.4384615 29,18.9807692 C29,19.5230769 29.3625,19.8846154 29.90625,19.8846154" id="Fill-17"></path>
                        <path d="M52.5625,22.5961538 L29.90625,22.5961538 C29.3625,22.5961538 29,22.9576923 29,23.5 C29,24.0423077 29.3625,24.4038462 29.90625,24.4038462 L52.5625,24.4038462 C53.10625,24.4038462 53.46875,24.0423077 53.46875,23.5 C53.46875,22.9576923 53.10625,22.5961538 52.5625,22.5961538" id="Fill-19"></path>
                    </g>
                </g>
            </g>
        </g>
    </g>
</svg>