<svg xmlns="http://www.w3.org/2000/svg" width="80" height="80" viewBox="0 0 80 80">
    <g fill="none" fill-rule="evenodd">
        <circle cx="40" cy="40" r="40" fill="#00DC87"/>
        <g fill="#FFF" fill-rule="nonzero">
            <path d="M26.067 36.905l-5.529-.937-2.59-5.02a1.007 1.007 0 0 0-.894-.548c-.376 0-.72.211-.894.547l-2.59 5.02-5.529.938a1.01 1.01 0 0 0-.792.689c-.116.36-.023.757.24 1.027l3.927 4.04-.826 5.6c-.055.375.1.75.404.973a1 1 0 0 0 1.042.087l5.018-2.523 5.018 2.523a1 1 0 0 0 1.041-.088c.304-.223.46-.598.405-.973l-.826-5.6 3.927-4.039c.263-.27.355-.667.24-1.027a1.01 1.01 0 0 0-.792-.69zm-5.165 4.692a1.024 1.024 0 0 0-.278.862l.615 4.17-3.736-1.88a.999.999 0 0 0-.898 0l-3.737 1.88.615-4.17a1.023 1.023 0 0 0-.277-.862l-2.924-3.008 4.116-.698c.312-.053.58-.25.727-.533l1.929-3.738 1.929 3.738c.146.283.415.48.727.533l4.116.698-2.924 3.008zM47.813 36.905l-5.529-.937-2.59-5.02a1.007 1.007 0 0 0-.894-.548c-.376 0-.72.211-.894.547l-2.59 5.02-5.529.938a1.01 1.01 0 0 0-.791.689c-.117.36-.024.757.239 1.027l3.927 4.04-.826 5.6c-.055.375.1.75.405.973a1 1 0 0 0 1.041.087l5.018-2.523 5.018 2.523a1 1 0 0 0 1.041-.088c.304-.223.46-.598.405-.973l-.826-5.6 3.927-4.039c.263-.27.356-.667.24-1.027a1.011 1.011 0 0 0-.792-.69zm-5.165 4.692a1.024 1.024 0 0 0-.278.862l.615 4.17-3.736-1.88a1 1 0 0 0-.898 0l-3.736 1.88.615-4.17a1.023 1.023 0 0 0-.278-.862l-2.924-3.008 4.116-.698c.312-.053.581-.25.727-.533L38.8 33.62l1.929 3.738c.146.283.415.48.727.533l4.116.698-2.924 3.008zM70.35 37.594a1.01 1.01 0 0 0-.791-.69l-5.528-.936-2.591-5.02a1.007 1.007 0 0 0-.894-.548c-.375 0-.72.211-.893.547l-2.591 5.02-5.528.938a1.01 1.01 0 0 0-.792.689c-.116.36-.024.757.24 1.027l3.926 4.04-.826 5.6c-.055.375.1.75.405.973a1 1 0 0 0 1.041.087l5.018-2.523 5.018 2.523a1 1 0 0 0 1.041-.088c.304-.223.46-.598.405-.973l-.826-5.6 3.927-4.039c.263-.27.356-.667.24-1.027zm-5.956 4.003a1.024 1.024 0 0 0-.277.862l.615 4.17-3.736-1.88a1 1 0 0 0-.899 0l-3.736 1.88.615-4.17a1.023 1.023 0 0 0-.278-.862l-2.924-3.008 4.117-.698c.311-.053.58-.25.727-.533l1.929-3.738 1.928 3.738c.147.283.416.48.727.533l4.117.698-2.925 3.008z"/>
        </g>
    </g>
</svg>
