<?xml version="1.0" encoding="UTF-8"?>
<svg width="100px" height="100px" viewBox="0 0 100 100" version="1.1" xmlns="http://www.w3.org/2000/svg" xmlns:xlink="http://www.w3.org/1999/xlink">
    <!-- Generator: Sketch 53.2 (72643) - https://sketchapp.com -->
    <title>Des-organizacional</title>
    <desc>Created with Sketch.</desc>
    <g id="Desktop" stroke="none" stroke-width="1" fill="none" fill-rule="evenodd">
        <g id="RRHH-Automatizacion" transform="translate(-1030.000000, -1095.000000)">
            <g id="Des-organizacional" transform="translate(1030.000000, 1095.000000)">
                <g>
                    <circle id="Oval-Copy-2" fill="#2E469A" cx="50" cy="50" r="50"></circle>
                    <path d="M41.4316076,72.1861636 C36.4903682,70.0552397 32.344199,66.2569921 29.7567269,61.4908529 C29.5084234,61.0334255 28.9400705,60.8656223 28.4861368,61.1164452 C28.0329517,61.3671422 27.8670001,61.9414775 28.1153036,62.3991569 C30.9035397,67.5345387 35.3715052,71.6274496 40.6963049,73.9239091 C40.8162143,73.9754342 40.9408651,74 41.0633948,74 C41.4268661,74 41.7727442,73.784829 41.9244713,73.4261686 C42.127606,72.946191 41.906878,72.3911304 41.4316076,72.1861636" id="Fill-1" fill="#FFFFFF"></path>
                    <path d="M72.5139326,61.1165723 C72.0604125,60.8655891 71.4917028,61.0332892 71.2432277,61.4909052 C68.6555175,66.2564367 64.5093155,70.0544479 59.5685174,72.1857894 C59.0930326,72.3906583 58.8723877,72.9461728 59.0755607,73.4260901 C59.2274413,73.7849255 59.5731349,74 59.9366748,74 C60.0592276,74 60.1840267,73.9754309 60.3038339,73.9236467 C65.6283894,71.6269989 70.0963236,67.534284 72.8845861,62.3994595 C73.1330612,61.9418435 72.9670783,61.3674296 72.5139326,61.1165723" id="Fill-3" fill="#FFFFFF"></path>
                    <path d="M72.8561358,36.5276699 C69.5183675,31.1386785 64.3481298,27.0628567 58.2978348,25.0510853 C57.7832229,24.8801784 57.2254863,25.1520289 57.0519392,25.6586829 C56.8782609,26.1653369 57.154311,26.7145886 57.6687919,26.8856246 C63.2823351,28.7521767 68.0799183,32.5345909 71.1774208,37.5359437 C71.3626339,37.8350309 71.6863964,38 72.0177614,38 C72.1922261,38 72.3689191,37.9543043 72.5287031,37.858266 C72.9921947,37.5798322 73.1387398,36.9841103 72.8561358,36.5276699" id="Fill-5" fill="#FFFFFF"></path>
                    <path d="M42.9481498,25.6586185 C42.7745063,25.1521334 42.2168812,24.8801751 41.7026342,25.0510687 C35.6519758,27.0624241 30.481723,31.1383132 27.1438355,36.5277854 C26.8612879,36.98419 27.0078038,37.5798651 27.4712027,37.8582771 C27.6310858,37.9543079 27.8076125,38 27.9820423,38 C28.3133411,38 28.6369078,37.8349147 28.8220839,37.5359801 C31.9197536,32.5341162 36.7172953,28.7516115 42.3311583,26.885464 C42.8455363,26.7144414 43.1216623,26.1652328 42.9481498,25.6586185" id="Fill-7" fill="#FFFFFF"></path>
                    <path d="M50.0001259,27.0613452 C48.294854,27.0613452 46.9073691,25.6772434 46.9073691,23.976004 L46.9073691,21.9623996 L46.9072432,21.9623996 C46.9072432,20.816308 47.8419699,19.8839861 48.9908628,19.8839861 L51.009389,19.8839861 C52.158156,19.8839861 53.0928827,20.8164336 53.0928827,21.9623996 L53.0928827,23.976004 C53.0927568,25.6772434 51.7053978,27.0613452 50.0001259,27.0613452 L50.0001259,27.0613452 Z M50.0457039,31.6594018 C50.0410454,31.6641745 50.026818,31.6783672 49.9998741,31.6783672 C49.9729302,31.6783672 49.9587028,31.6641745 49.9540443,31.6594018 L48.6632552,30.37176 C48.8318434,30.0812494 48.9256435,29.7466534 48.9256435,29.3947248 L48.9256435,28.827645 C49.2718852,28.9038837 49.6310952,28.9453314 49.9998741,28.9453314 C50.368653,28.9453314 50.727863,28.9038837 51.0741047,28.827645 L51.0741047,29.3947248 C51.0741047,29.7466534 51.1679047,30.0812494 51.336493,30.37176 L50.0457039,31.6594018 Z M55.3620879,30.6314989 L52.998705,29.4527516 C52.9764196,29.4416989 52.9626958,29.4194679 52.9626958,29.3947248 L52.9626958,27.9679194 C54.1865029,27.0615964 54.981222,25.6097967 54.981222,23.976004 L54.981222,21.9623996 C54.9813479,19.7776037 53.1993992,18 51.009389,18 L48.9908628,18 C46.8006008,18 45.0186521,19.7776037 45.0186521,21.9623996 L45.0186521,23.976004 C45.0186521,25.6097967 45.8133712,27.0615964 47.0371783,27.9679194 L47.0371783,29.3947248 C47.0371783,29.4194679 47.0234545,29.4416989 47.0011691,29.4527516 L44.6379121,30.6314989 C43.6276418,31.1352768 43,32.1483589 43,33.2751082 L43,36.0578813 C43,36.5781127 43.4226667,36.9998744 43.9442956,36.9998744 C44.4659244,36.9998744 44.8885911,36.5781127 44.8885911,36.0578813 L44.8885911,33.2751082 C44.8885911,32.8665345 45.1161034,32.4992828 45.4824901,32.3166617 L47.1221649,31.4988861 L48.6185586,32.9916311 C48.9875893,33.359762 49.4781193,33.5624789 50,33.5624789 C50.5218807,33.5624789 51.0124107,33.359762 51.3814414,32.9917567 L52.877961,31.4988861 L54.5176358,32.3167873 C54.8838966,32.4994084 55.1114089,32.8667857 55.1114089,33.2752338 L55.1114089,36.0580069 C55.1114089,36.5782383 55.5340756,37 56.0557044,37 C56.5773333,37 57,36.5782383 57,36.0580069 L57,33.2752338 C56.9998741,32.1483589 56.3722323,31.1354024 55.3620879,30.6314989 L55.3620879,30.6314989 Z" id="Fill-9" fill="#FFFFFF"></path>
                    <path d="M50.0003777,72.0613452 C48.2951058,72.0613452 46.9076209,70.6771178 46.9076209,68.9761296 L46.9076209,66.9625252 L46.907495,66.9625252 C46.907495,65.8164336 47.8422217,64.8839861 48.9911146,64.8839861 L51.0096408,64.8839861 C52.1584078,64.8839861 53.0931345,65.8165592 53.0931345,66.9625252 L53.0931345,68.9761296 C53.0930086,70.6772434 51.7056496,72.0613452 50.0003777,72.0613452 L50.0003777,72.0613452 Z M50.0459557,76.6595274 C50.0412972,76.6641745 50.0270698,76.6784928 50.0001259,76.6784928 C49.973182,76.6784928 49.9589546,76.6641745 49.9542961,76.6595274 L48.663507,75.37176 C48.8320952,75.081375 48.9258953,74.746779 48.9258953,74.3948504 L48.9258953,73.827645 C49.272137,73.9040093 49.631347,73.9454569 50.0001259,73.9454569 C50.3689048,73.9454569 50.7281148,73.9040093 51.0743565,73.827645 L51.0743565,74.3948504 C51.0743565,74.746779 51.1681565,75.081375 51.3367448,75.37176 L50.0459557,76.6595274 Z M55.3623397,75.6316245 L52.9989568,74.4528772 C52.9766714,74.4418245 52.9629476,74.4194679 52.9629476,74.3948504 L52.9629476,72.968045 C54.1867547,72.061722 54.9814738,70.6099223 54.9814738,68.9761296 L54.9814738,66.9625252 C54.9814738,64.7776037 53.199651,63 51.009389,63 L48.9908628,63 C46.8006007,63 45.0186521,64.7777293 45.0186521,66.9625252 L45.0186521,68.9761296 C45.0186521,70.6099223 45.8133712,72.061722 47.0371783,72.968045 L47.0371783,74.3948504 C47.0371783,74.4194679 47.0234545,74.4418245 47.0011691,74.4528772 L44.6379121,75.6316245 C43.6276418,76.1354024 43,77.1483589 43,78.2752338 L43,81.0580069 C43,81.5781127 43.4226667,82 43.9442956,82 C44.4659244,82 44.8885911,81.5781127 44.8885911,81.0580069 L44.8885911,78.2752338 C44.8885911,77.8666601 45.1161034,77.4994084 45.4824901,77.3167873 L47.1221649,76.4990117 L48.6185585,77.9917567 C48.9875893,78.359762 49.4781193,78.5626045 50,78.5626045 C50.5218807,78.5626045 51.0124107,78.359762 51.3814414,77.9917567 L52.877961,76.4990117 L54.5176358,77.3167873 C54.8838966,77.4994084 55.1114089,77.8666601 55.1114089,78.2752338 L55.1114089,81.0580069 C55.1114089,81.5781127 55.5340756,82 56.0557044,82 C56.5773333,82 57,81.5781127 57,81.0580069 L57,78.2752338 C57.0001259,77.1484845 56.3724841,76.135528 55.3623397,75.6316245 L55.3623397,75.6316245 Z" id="Fill-11" fill="#FFFFFF"></path>
                    <path d="M26.000063,49.0612795 C24.2948064,49.0612795 22.907334,47.6771686 22.907334,45.9760435 L22.907334,43.9624258 L22.9072081,43.9624258 C22.9072081,42.8163267 23.8419263,41.883873 24.990683,41.883873 L27.0091911,41.883873 C28.1580737,41.883873 29.0927919,42.8163267 29.0927919,43.9624258 L29.0927919,45.9760435 C29.0927919,47.6772942 27.7053195,49.0612795 26.000063,49.0612795 L26.000063,49.0612795 Z M26.0460183,53.6593664 C26.0205855,53.6847376 25.9795404,53.6848632 25.9541076,53.659492 L24.6634561,52.3719674 C24.8320428,52.0813292 24.925842,51.7468567 24.925842,51.3948002 L24.925842,50.827591 C25.2720806,50.9039557 25.6312874,50.9454037 26.000063,50.9454037 C26.3688385,50.9454037 26.7280453,50.9039557 27.0742839,50.827591 L27.0742839,51.3948002 C27.0742839,51.7467311 27.1680831,52.0813292 27.3366698,52.3718418 L26.0460183,53.6593664 Z M31.3621026,52.6315824 L28.998741,51.4528273 C28.9765817,51.4417745 28.962858,51.4195433 28.962858,51.3949258 L28.962858,49.9681108 C30.1866541,49.0617819 30.9813661,47.6099726 30.9813661,45.9761691 L30.9813661,43.9625514 C30.9813661,41.7776155 29.1995593,40 27.0091911,40 L24.990683,40 C22.8004407,40 21.0186339,41.7776155 21.0186339,43.9625514 L21.0186339,45.9761691 C21.0186339,47.6099726 21.8133459,49.0617819 23.037142,49.9681108 L23.037142,51.3949258 C23.037142,51.4196689 23.0234183,51.4417745 23.0011331,51.4528273 L20.6377715,52.6315824 C19.6275102,53.1354892 19,54.1484525 19,55.2752092 L19,58.0580007 C19,58.5782355 19.4226629,59 19.9442871,59 C20.4659112,59 20.8885741,58.5782355 20.8885741,58.0580007 L20.8885741,55.2752092 C20.8885741,54.8667583 21.1162103,54.4993786 21.4825936,54.3167563 L23.1221278,53.4989754 L24.6186339,54.9917302 C24.9993705,55.3716699 25.4997167,55.561577 25.999937,55.561577 C26.5002833,55.561577 27.0005036,55.3716699 27.381492,54.9917302 L28.8778722,53.4988498 L30.5175323,54.3166307 C30.8837897,54.4993786 31.1114259,54.8666327 31.1114259,55.2752092 L31.1114259,58.0580007 C31.1114259,58.5781099 31.5340888,59 32.0557129,59 C32.5773371,59 33,58.5781099 33,58.0580007 L33,55.2752092 C32.9998741,54.1485781 32.3723639,53.1354892 31.3621026,52.6315824 L31.3621026,52.6315824 Z" id="Fill-14" fill="#FFFFFF"></path>
                    <path d="M74,49.0612196 C72.2947588,49.0612196 70.9074247,47.6771178 70.9074247,45.976004 L70.9074247,43.9623996 L70.9072988,43.9623996 C70.9072988,42.816308 71.8418828,41.8838605 72.9907551,41.8838605 L75.0093708,41.8838605 C76.1581172,41.8838605 77.0927012,42.816308 77.0927012,43.9623996 L77.0927012,45.976004 C77.0927012,47.6772434 75.7052412,49.0612196 74,49.0612196 L74,49.0612196 Z M74.0459549,53.6594018 C74.0206482,53.6846472 73.9796036,53.6847728 73.954171,53.6594018 L72.6632793,52.37176 C72.8319904,52.0812494 72.9256628,51.7466534 72.9256628,51.3947248 L72.9256628,50.8275194 C73.2718983,50.9038837 73.6311018,50.9453314 73.9998741,50.9453314 C74.3687723,50.9453314 74.7278499,50.9038837 75.0740854,50.8275194 L75.0740854,51.3947248 C75.0740854,51.7466534 75.1680096,52.0812494 75.3364689,52.3718856 L74.0459549,53.6594018 Z M79.3619914,52.6314989 L76.998651,51.4527516 C76.976492,51.4416989 76.9626425,51.4194679 76.9626425,51.3948504 L76.9626425,49.968045 C78.1864276,49.061722 78.9811324,47.6099223 78.9811324,45.9761296 L78.9811324,43.9625252 C78.9811324,41.7776037 77.1993417,40 75.0092449,40 L72.9906292,40 C70.8004065,40 69.0186158,41.7776037 69.0186158,43.9625252 L69.0186158,45.9761296 C69.0186158,47.6099223 69.8131947,49.061722 71.0369797,49.968045 L71.0369797,51.3948504 C71.0369797,51.4195935 71.0232562,51.4418245 71.0012231,51.4527516 L68.6377568,52.6316245 C67.6277564,53.1354024 67,54.1484845 67,55.2752338 L67,58.0580069 C67,58.5781127 67.422785,59 67.9442786,59 C68.4658981,59 68.8885571,58.5781127 68.8885571,58.0580069 L68.8885571,55.2752338 C68.8885571,54.8667857 69.1161912,54.4994084 69.4824454,54.3167873 L71.1222166,53.4990117 L72.6185834,54.9917567 C72.9994424,55.3716939 73.4996583,55.5615997 73.9998741,55.5615997 C74.5003417,55.5615997 75.0004317,55.3716939 75.3815425,54.9917567 L76.8777834,53.4990117 L78.5173028,54.3167873 C78.8836829,54.499534 79.1114429,54.8667857 79.1114429,55.2752338 L79.1114429,58.0580069 C79.1114429,58.5781127 79.533976,59 80.0557214,59 C80.577215,59 81,58.5781127 81,58.0580069 L81,55.2752338 C80.9998741,54.1483589 80.3722436,53.1354024 79.3619914,52.6314989 L79.3619914,52.6314989 Z" id="Fill-17" fill="#FFFFFF"></path>
                </g>
            </g>
        </g>
    </g>
</svg>