<svg xmlns="http://www.w3.org/2000/svg" xmlns:xlink="http://www.w3.org/1999/xlink" width="120" height="120" viewBox="0 0 120 120">
    <defs>
        <path id="prefix__a" d="M0.578 0.523L78.256 0.523 78.256 108.863 0.578 108.863z"/>
        <path id="prefix__c" d="M0.172 0.523L28.79 0.523 28.79 29.14 0.172 29.14z"/>
    </defs>
    <g fill="none" fill-rule="evenodd">
        <g transform="translate(40.305 .393)">
            <mask id="prefix__b" fill="#fff">
                <use xlink:href="#prefix__a"/>
            </mask>
            <path fill="#E6E6E6" d="M61.903 108.863h8.177c4.515 0 8.176-3.66 8.176-8.176V29.14L49.637.523H8.754C4.244.536.591 4.19.578 8.7v40.883l61.325 59.281z" mask="url(#prefix__b)"/>
        </g>
        <g transform="translate(89.771 .393)">
            <mask id="prefix__d" fill="#fff">
                <use xlink:href="#prefix__c"/>
            </mask>
            <path fill="#CCC" d="M.172.523v20.44c0 4.517 3.66 8.177 8.177 8.177h20.44L.173.523z" mask="url(#prefix__d)"/>
        </g>
        <path fill="#FFC73C" d="M102.208 58.152V111.3c0 4.516-3.661 8.177-8.177 8.177H8.177C3.66 119.477 0 115.816 0 111.3V37.711c0-4.516 3.66-8.177 8.177-8.177h28.618c4.516 0 8.177 3.661 8.177 8.177v4.087c0 4.517 3.66 8.177 8.176 8.177H94.03c4.516 0 8.177 3.661 8.177 8.177"/>
        <path fill="#0096FF" d="M57.236 27.49h-4.088c-1.129 0-2.044-.916-2.044-2.044 0-1.13.915-2.045 2.044-2.045h4.088c1.129 0 2.044.915 2.044 2.045 0 1.128-.915 2.044-2.044 2.044M81.767 27.49h-14.31c-1.129 0-2.044-.916-2.044-2.044 0-1.13.915-2.045 2.044-2.045h14.31c1.128 0 2.043.915 2.043 2.045 0 1.128-.915 2.044-2.043 2.044M57.236 35.667h-4.088c-1.129 0-2.044-.915-2.044-2.044 0-1.13.915-2.045 2.044-2.045h4.088c1.129 0 2.044.916 2.044 2.045s-.915 2.044-2.044 2.044M81.767 35.667h-14.31c-1.129 0-2.044-.915-2.044-2.044 0-1.13.915-2.045 2.044-2.045h14.31c1.128 0 2.043.916 2.043 2.045s-.915 2.044-2.043 2.044M57.236 43.843h-4.088c-1.129 0-2.044-.915-2.044-2.044 0-1.13.915-2.044 2.044-2.044h4.088c1.129 0 2.044.915 2.044 2.044s-.915 2.044-2.044 2.044M81.767 43.843h-14.31c-1.129 0-2.044-.915-2.044-2.044 0-1.13.915-2.044 2.044-2.044h14.31c1.128 0 2.043.915 2.043 2.044s-.915 2.044-2.043 2.044"/>
        <path fill="#FF3453" d="M47.687 75.149v13.147l10.328-6.573-10.328-6.574zm-1.27 16.729c-.21 0-.42-.053-.61-.156-.407-.224-.659-.65-.659-1.114v-17.77c0-.464.252-.89.658-1.113.409-.223.902-.206 1.294.042l13.963 8.885c.364.233.586.637.586 1.071 0 .434-.222.838-.587 1.071L47.099 91.68c-.207.13-.445.198-.682.198z"/>
        <path fill="#FF3453" d="M51.494 65.222c-9.099 0-16.501 7.403-16.501 16.501 0 9.098 7.402 16.5 16.5 16.5 9.1 0 16.503-7.402 16.503-16.5 0-9.098-7.403-16.5-16.502-16.5m0 35.54c-10.499 0-19.04-8.54-19.04-19.04 0-10.498 8.541-19.04 19.04-19.04 10.5 0 19.04 8.542 19.04 19.04 0 10.5-8.54 19.04-19.04 19.04"/>
    </g>
</svg>
