<svg xmlns="http://www.w3.org/2000/svg" xmlns:xlink="http://www.w3.org/1999/xlink" width="110" height="110" viewBox="0 0 110 110">
    <defs>
        <path id="a" d="M0 .53h109.465v108.3H0z"/>
    </defs>
    <g fill="none" fill-rule="evenodd">
        <g transform="translate(0 .641)">
            <mask id="b" fill="#fff">
                <use xlink:href="#a"/>
            </mask>
            <path fill="#F9F9F9" d="M109.45 55.96C110.164 26.064 86.246 1.253 56.027.546 25.808-.164.731 23.5.016 53.398c-.716 29.896 23.203 54.708 53.422 55.416 30.218.708 55.297-22.954 56.011-52.853" mask="url(#b)"/>
        </g>
        <path fill="#DC3B41" d="M81.652 49.67a4.002 4.002 0 0 1-5.612 0 3.897 3.897 0 0 1 0-5.554 4 4 0 0 1 5.612 0 3.898 3.898 0 0 1 0 5.554M64.33 66.524a4.002 4.002 0 0 1-5.612 0 3.902 3.902 0 0 1 0-5.555 4.003 4.003 0 0 1 5.612 0 3.898 3.898 0 0 1 0 5.555M42.583 50.532a3.899 3.899 0 0 1 0-5.554 4.003 4.003 0 0 1 5.613 0 3.901 3.901 0 0 1 0 5.554 4.002 4.002 0 0 1-5.613 0m40.543-7.872c-2.36-2.332-6.2-2.332-8.559 0a5.94 5.94 0 0 0-.683 7.652l-8.74 8.646a6.11 6.11 0 0 0-7.125-.082L50.3 51.239a5.945 5.945 0 0 0-.633-7.716c-2.36-2.333-6.199-2.333-8.559 0a5.945 5.945 0 0 0-.632 7.722l-6.33 6.263c-2.364-1.678-5.683-1.476-7.806.623a5.95 5.95 0 0 0 0 8.468c2.362 2.334 6.2 2.334 8.558 0a5.945 5.945 0 0 0 .667-7.674l6.344-6.277a6.113 6.113 0 0 0 6.96-.002l7.722 7.641a5.942 5.942 0 0 0 .652 7.693c2.362 2.335 6.199 2.335 8.559 0a5.95 5.95 0 0 0 .737-7.58l8.757-8.665c2.366 1.697 5.696 1.5 7.827-.607a5.951 5.951 0 0 0 .002-8.468"/>
    </g>
</svg>
