<?xml version="1.0" encoding="UTF-8"?>
<svg width="478px" height="381px" viewBox="0 0 478 381" version="1.1" xmlns="http://www.w3.org/2000/svg" xmlns:xlink="http://www.w3.org/1999/xlink">
    <!-- Generator: Sketch 53.2 (72643) - https://sketchapp.com -->
    <title>Group 103</title>
    <desc>Created with Sketch.</desc>
    <defs>
        <polygon id="path-1" points="0.000637717122 0.172327273 513.44136 0.172327273 513.44136 12.7272727 0.000637717122 12.7272727"></polygon>
        <path d="M20.74675,0.186666667 C19.4550833,0.186666667 18.2215417,0.795151515 16.519125,2.41939394 L16.519125,2.41939394 C15.193875,3.69212121 8.06,6.34181818 3.99254167,6.34181818 L3.99254167,6.34181818 C-0.06975,6.34181818 0.474041667,9.65090909 0.474041667,9.65090909 L0.474041667,9.65090909 L30.0855,9.65090909 L30.0855,4.05333333 C30.0855,1.3030303 28.1144167,0.186666667 28.1144167,0.186666667 L28.1144167,0.186666667 L20.74675,0.186666667 Z" id="path-3"></path>
        <path d="M21.099375,0.639222222 C19.8077083,0.639222222 18.5793333,1.25766667 16.867875,2.89177778 L16.867875,2.89177778 C15.5452083,4.16288889 8.41133333,6.84322222 4.34516667,6.84322222 L4.34516667,6.84322222 C0.277708333,6.84322222 0.825375,10.1811111 0.825375,10.1811111 L0.825375,10.1811111 L30.4213333,10.1811111 L30.4213333,4.53566667 C30.4213333,1.75877778 28.4605833,0.639222222 28.4605833,0.639222222 L28.4605833,0.639222222 L21.099375,0.639222222 Z" id="path-5"></path>
        <path d="M1.77852632,0.7875 C1.77852632,0.7875 0.251368421,1.835 0.251368421,4.4075 L0.251368421,4.4075 L0.251368421,9.64 L23.3532632,9.64 C23.3532632,9.64 23.7738947,6.5375 20.6071579,6.5375 L20.6071579,6.5375 C17.4328421,6.5375 11.8711579,4.065 10.8341053,2.885 L10.8341053,2.885 C9.504,1.3625 8.54778947,0.7875 7.53347368,0.7875 L7.53347368,0.7875 L1.77852632,0.7875 Z" id="path-7"></path>
        <path d="M1.728,0.02565 C1.728,0.02565 0.195789474,1.0701 0.195789474,3.6106875 L0.195789474,3.6106875 L0.195789474,8.7958125 L23.3027368,8.7958125 C23.3027368,8.7958125 23.7132632,5.73795 20.5477895,5.73795 L20.5477895,5.73795 C17.3696842,5.73795 11.8117895,3.2765625 10.7684211,2.107125 L10.7684211,2.107125 C9.44463158,0.6060375 8.49347368,0.02565 7.47915789,0.02565 L7.47915789,0.02565 L1.728,0.02565 Z" id="path-9"></path>
    </defs>
    <g id="Desktop" stroke="none" stroke-width="1" fill="none" fill-rule="evenodd">
        <g id="Experiencia-cliente" transform="translate(-873.000000, -336.000000)">
            <g id="Group-103" transform="translate(855.000000, 336.000000)">
                <g id="Group-32" transform="translate(0.000000, 78.000000)">
                    <path d="M240.696507,149.259701 C240.696507,166.237883 226.905236,179.99861 209.889668,179.99861 C192.875375,179.99861 179.08538,166.237883 179.08538,149.259701 C179.08538,132.284065 192.875375,118.522065 209.889668,118.522065 C226.905236,118.522065 240.696507,132.284065 240.696507,149.259701" id="Fill-1" fill="#FFFAAB"></path>
                    <path d="M231.697425,149.259701 C231.697425,161.275519 221.933976,171.019519 209.888775,171.019519 C197.846125,171.019519 188.086502,161.275519 188.086502,149.259701 C188.086502,137.246428 197.846125,127.502428 209.888775,127.502428 C221.933976,127.502428 231.697425,137.246428 231.697425,149.259701" id="Fill-3" fill="#FFC73C"></path>
                    <path d="M219.07509,153.845974 C219.07509,158.90761 214.964366,163.003246 209.889413,163.003246 C204.817011,163.003246 200.70246,158.90761 200.70246,153.845974 L219.07509,153.845974 Z" id="Fill-5" fill="#333333"></path>
                    <path d="M212.944588,145.609392 C212.819596,146.164301 213.166514,146.715392 213.726429,146.836301 C214.281243,146.961028 214.832231,146.611028 214.953397,146.059937 C215.411278,144.015937 217.194335,142.584119 219.292424,142.584119 C221.350975,142.584119 223.178672,144.046483 223.628901,146.059937 C223.756444,146.611028 224.304881,146.961028 224.859695,146.836301 C225.413233,146.715392 225.763978,146.164301 225.642811,145.609392 C224.973208,142.61721 222.358568,140.527392 219.292424,140.527392 C216.221179,140.527392 213.614191,142.61721 212.944588,145.609392" id="Fill-7" fill="#333333"></path>
                    <path d="M194.138183,145.609392 C194.019567,146.164301 194.366485,146.715392 194.920024,146.836301 C195.474838,146.961028 196.027101,146.611028 196.150818,146.059937 C196.607423,144.015937 198.391756,142.584119 200.491121,142.584119 C202.550947,142.584119 204.372267,144.046483 204.823771,146.059937 C204.948763,146.611028 205.502302,146.961028 206.053289,146.836301 C206.606828,146.715392 206.957572,146.164301 206.836406,145.609392 C206.169354,142.61721 203.55854,140.527392 200.491121,140.527392 C197.42115,140.527392 194.810336,142.61721 194.138183,145.609392" id="Fill-9" fill="#333333"></path>
                    <g id="Group-13" transform="translate(0.000000, 294.307210)">
                        <mask id="mask-2" fill="white">
                            <use xlink:href="#path-1"></use>
                        </mask>
                        <g id="Clip-12"></g>
                    </g>
                    <path d="M444.694944,56.4053373 L421.349396,46.3533373 C421.349396,46.3533373 417.509063,49.5618828 417.509063,52.12261 C417.509063,54.6884282 438.276959,74.35461 438.276959,74.35461 L444.694944,56.4053373 Z" id="Fill-14" fill="#C22F34"></path>
                    <path d="M416.5669,41.4656828 C418.422657,43.5478646 418.699426,46.3338646 417.176557,47.6893191 C415.652413,49.0422282 412.917882,48.4555009 411.062126,46.37841 C409.19489,44.2962282 408.924498,41.5140464 410.446091,40.1496828 C411.965133,38.7955009 414.704766,39.3822282 416.5669,41.4656828" id="Fill-16" fill="#FFC9B0"></path>
                    <path d="M74.2759335,58.3131555 L97.2197201,48.4367918 C97.2197201,48.4367918 101.002658,51.5804282 101.002658,54.1029737 C101.002658,56.6217009 80.5969856,75.9429737 80.5969856,75.9429737 L74.2759335,58.3131555 Z" id="Fill-18" fill="#FFC73C"></path>
                    <path d="M101.923267,43.6209191 C100.090467,45.6687373 99.8226263,48.4127373 101.33019,49.7427373 C102.819897,51.0714646 105.511063,50.4949191 107.342587,48.45601 C109.166458,46.41201 109.444502,43.6743737 107.940765,42.3405555 C106.45616,41.0105555 103.747137,41.58201 101.923267,43.6209191" id="Fill-20" fill="#FFC9B0"></path>
                    <path d="M420.785526,89.41301 C420.785526,95.3375555 415.97969,100.139555 410.039993,100.139555 L114.182613,100.139555 C108.244191,100.139555 103.438355,95.3375555 103.438355,89.41301 L103.438355,10.7559191 C103.438355,4.83137367 108.244191,0.030646395 114.182613,0.030646395 L410.039993,0.030646395 C415.97969,0.030646395 420.785526,4.83137367 420.785526,10.7559191 L420.785526,89.41301 Z" id="Fill-22" fill="#CCCCCC"></path>
                    <path d="M414.51919,89.41301 C414.51919,95.3375555 409.708252,100.139555 403.768555,100.139555 L107.911175,100.139555 C101.971478,100.139555 97.1669171,95.3375555 97.1669171,89.41301 L97.1669171,10.7559191 C97.1669171,4.83137367 101.971478,0.030646395 107.911175,0.030646395 L403.768555,0.030646395 C409.708252,0.030646395 414.51919,4.83137367 414.51919,10.7559191 L414.51919,89.41301 Z" id="Fill-24" fill="#F3F3FF"></path>
                    <path d="M138.802448,47.9635918 L138.802448,70.1828646 C138.802448,71.4555918 138.876423,72.8823191 138.400686,73.4639555 C138.209371,73.6981373 138.033361,73.7808646 137.852249,73.8788646 C137.1954,74.2110464 135.627892,74.0519555 134.578209,74.0519555 L126.014944,74.0519555 C125.40146,74.0519555 124.799455,74.1041373 124.447435,73.9285009 C124.171941,73.8063191 123.726815,73.3519555 123.619678,73.1368646 C123.275311,72.39741 123.485758,70.6779555 123.485758,69.6228646 L123.485758,46.2123191 C123.485758,45.5568646 123.43219,44.8975918 123.589068,44.5055918 C123.789311,43.9532282 124.368358,43.57141 125.015003,43.4835918 C125.932041,43.3423191 127.268696,43.4352282 128.303073,43.4352282 L134.74019,43.4352282 C135.714621,43.4352282 137.03342,43.3092282 137.759142,43.6210464 C138.095857,43.7521373 138.450428,44.0257737 138.616234,44.4025009 C138.921063,45.0923191 138.802448,46.7901373 138.802448,47.9635918" id="Fill-26" fill="#0096FF"></path>
                    <path d="M176.600962,49.9435737 C177.562639,50.6066646 178.654411,51.7215737 178.806188,53.2233918 C179.00388,55.1108464 178.16847,56.6953918 176.926198,57.3444828 C176.435155,57.6130282 175.862485,57.6817555 175.348485,57.9617555 C175.388024,58.3715737 175.770654,58.4950282 175.969622,58.6655737 C176.424952,58.9977555 176.963185,59.5603009 177.238679,60.1317555 C178.193979,62.2088464 177.356019,64.4399373 175.939011,65.2990282 C175.538525,65.5383009 175.083195,65.6261191 174.719696,65.8768464 C174.723523,66.2968464 175.12656,66.3655737 175.294917,66.5653918 C176.029567,67.3443009 176.576729,69.2610282 176.012987,70.7157555 C175.602297,71.8204828 174.464609,72.8043009 173.181523,72.9353918 C171.93925,73.0677555 170.614073,72.9264828 169.31058,72.9353918 C161.825056,72.9710282 154.048733,72.9710282 146.215016,72.9710282 C144.373289,72.9710282 142.476719,73.3617555 141.762475,72.3143009 C141.276535,71.5621191 141.413006,70.13921 141.413006,68.9721191 L141.413006,58.0203009 C141.413006,55.5753918 141.3199,53.0337555 141.413006,50.6753918 C141.762475,41.3093918 146.18058,35.9944828 150.796376,30.8513918 C151.301448,30.2977555 151.953195,29.5748464 152.560302,28.9690282 C153.152103,28.3683009 154.048733,27.6237555 154.220917,26.9733918 C154.36249,26.5253918 154.25918,25.9475737 154.279587,25.4143009 C154.284689,24.8963009 154.284689,24.3541191 154.314024,23.8743009 C154.36249,22.8370282 154.284689,21.7666646 154.455597,20.8388464 C154.724714,19.37521 155.929999,18.2857555 157.332977,18.1343009 C159.424689,17.9243009 160.956485,19.2135737 161.652872,20.4277555 C163.064778,22.8523009 163.685915,26.9250282 162.916828,30.6299373 C162.580113,32.2017555 161.937294,33.7264828 161.345493,35.15321 C160.943731,36.1115737 160.469269,37.2901191 159.947617,38.3261191 C159.786912,38.6773918 159.468054,39.1610282 159.488461,39.3659373 C159.610902,39.9933918 161.212848,39.9106646 161.961528,39.9106646 C164.985582,39.9106646 167.899949,39.8813918 170.929106,39.8813918 C172.95322,39.8813918 175.12656,39.5924828 176.468317,40.2288464 C177.778188,40.8346646 178.713081,42.0526646 178.850828,43.8255737 C179.007706,45.9141191 178.345756,47.5419373 177.093279,48.49521 C176.714475,48.78921 176.424952,48.8426646 175.797438,49.2041191 C175.862485,49.61521 176.308887,49.72721 176.600962,49.9435737" id="Fill-28" fill="#0096FF"></path>
                    <polygon id="Fill-30" fill="#FFC9B0" points="448.65453 287.51721 448.65453 295.625755 441.379453 295.625755 441.379453 287.087028"></polygon>
                </g>
                <g id="Group-35" transform="translate(420.000000, 371.000000)">
                    <mask id="mask-4" fill="white">
                        <use xlink:href="#path-3"></use>
                    </mask>
                    <g id="Clip-34"></g>
                    <path d="M20.74675,0.186666667 C19.4550833,0.186666667 18.2215417,0.795151515 16.519125,2.41939394 L16.519125,2.41939394 C15.193875,3.69212121 8.06,6.34181818 3.99254167,6.34181818 L3.99254167,6.34181818 C-0.06975,6.34181818 0.474041667,9.65090909 0.474041667,9.65090909 L0.474041667,9.65090909 L30.0855,9.65090909 L30.0855,4.05333333 C30.0855,1.3030303 28.1144167,0.186666667 28.1144167,0.186666667 L28.1144167,0.186666667 L20.74675,0.186666667 Z" id="Fill-33" fill="#858585" mask="url(#mask-4)"></path>
                </g>
                <polygon id="Fill-36" fill="#FFC9B0" points="494 358.400119 494 366 486 366 486 358"></polygon>
                <g id="Group-40" transform="translate(465.000000, 364.000000)">
                    <mask id="mask-6" fill="white">
                        <use xlink:href="#path-5"></use>
                    </mask>
                    <g id="Clip-39"></g>
                    <path d="M21.099375,0.639222222 C19.8077083,0.639222222 18.5793333,1.25766667 16.867875,2.89177778 L16.867875,2.89177778 C15.5452083,4.16288889 8.41133333,6.84322222 4.34516667,6.84322222 L4.34516667,6.84322222 C0.277708333,6.84322222 0.825375,10.1811111 0.825375,10.1811111 L0.825375,10.1811111 L30.4213333,10.1811111 L30.4213333,4.53566667 C30.4213333,1.75877778 28.4605833,0.639222222 28.4605833,0.639222222 L28.4605833,0.639222222 L21.099375,0.639222222 Z" id="Fill-38" fill="#858585" mask="url(#mask-6)"></path>
                </g>
                <g id="Group-59" transform="translate(70.000000, 71.000000)">
                    <path d="M408.997498,140.733556 C408.997498,140.733556 404.3166,184.355649 412.033067,212.973623 C419.731678,241.589054 425.315594,287.728368 425.315594,287.728368 C425.315594,287.728368 422.73281,289.697372 415.833905,288.254962 C415.833905,288.254962 385.803456,218.418912 385.803456,190.869389 L385.803456,141.548887 C385.803456,141.548887 403.819175,135.564285 408.997498,140.733556" id="Fill-41" fill="#545671"></path>
                    <path d="M406.092918,140.913667 C406.092918,140.913667 388.476415,188.631491 386.340038,221.940479 C384.190906,255.259642 380.767601,295.404177 380.767601,295.404177 L369.626553,295.404177 C369.626553,295.404177 358.069708,209.129232 364.070696,139.926621 C365.379307,124.68083 397.62011,132.463993 406.092918,140.913667" id="Fill-43" fill="#545671"></path>
                    <path d="M388.753443,46.2777038 C388.753443,46.2777038 399.398341,50.4459381 403.893023,67.5335364 C408.38388,84.6198628 411.112065,159.630273 411.112065,159.630273 C411.112065,159.630273 388.730484,166.350072 362.017478,154.351612 C362.017478,154.351612 360.844065,80.5597456 370.264532,67.32239 C379.693928,54.0812184 378.544748,48.1627582 382.701437,46.6389423 C386.841544,45.1202142 388.753443,46.2777038 388.753443,46.2777038" id="Fill-45" fill="#DC3B41"></path>
                    <path d="M371.978353,18.5875013 C371.978353,18.5875013 371.707958,25.8835013 366.750287,27.6998695 C361.80282,29.5187816 365.453156,32.1135933 368.583108,34.1958025 C371.707958,36.2894594 368.437707,46.3074678 372.881371,45.2631833 C377.314832,44.2214427 382.537796,44.4898276 382.796713,47.0744636 L389.301503,46.6877858 C389.301503,46.6877858 393.870162,22.7595515 386.971257,19.6381456 C380.055772,16.5205556 371.978353,18.5875013 371.978353,18.5875013" id="Fill-47" fill="#FFC9B0"></path>
                    <path d="M371.978353,18.5875013 C371.978353,18.5875013 365.26694,18.747769 364.465958,11.1172418 C364.166228,8.26294895 365.867677,3.98659749 369.358581,2.18676485 C378.108162,-2.32362845 380.461365,4.90495732 385.241749,6.0268318 C391.621545,7.52139247 393.785982,13.8964887 392.831946,17.4490912 C392.831946,17.4490912 399.155623,19.0021623 398.325305,25.3798025 C397.723293,30.1051582 392.853629,38.8842711 391.760569,44.5000033 C391.246563,47.1189824 389.182886,40.9664803 388.528581,37.1900117 C387.867898,33.4224469 390.620317,34.4667314 390.096108,31.0718527 C389.571898,27.6998695 386.509545,24.1332753 385.235371,34.8928402 C383.965024,41.8759364 382.527593,45.3827481 379.142551,45.9106142 C375.74603,46.4194008 369.875138,47.3428485 369.220832,44.0891582 C368.583108,40.8291079 370.145533,39.1488402 374.183605,40.5708987 C378.228054,42.0018611 382.781407,42.7803046 383.317096,36.9318025 C383.834928,31.0718527 384.811922,24.260472 383.317096,22.7595515 C381.81079,21.2611749 374.776689,21.3972753 371.978353,18.5875013" id="Fill-49" fill="#333333"></path>
                    <path d="M391.421427,83.7348285 L373.102151,74.1098577 C370.710684,74.9010209 368.380439,78.1750628 365.677762,81.8930209 C364.009475,92.3345941 363.551589,105.807264 363.535008,117.148117 C380.929583,114.54313 391.421427,83.7348285 391.421427,83.7348285" id="Fill-51" fill="#DC3B41"></path>
                    <path d="M306.153676,76.8010845 C308.352304,79.1791296 308.674165,82.3668457 306.86993,83.9177447 C305.071739,85.4715561 301.824418,84.794403 299.618234,82.4178143 C297.399962,80.0339443 297.079612,76.8505968 298.882336,75.2953292 C300.695638,73.7517114 303.935403,74.4172146 306.153676,76.8010845" id="Fill-55" fill="#FFC9B0"></path>
                    <path d="M373.913975,71.1691983 C368.132364,73.0936837 362.779304,89.3290644 351.633154,91.6707548 C343.150143,93.4578678 314.169388,80.0309891 308.3814,80.0309891 C302.606166,80.0309891 303.243891,85.7968134 303.243891,85.7968134 C303.243891,85.7968134 340.178346,112.070554 360.088107,114.306671 C380.010622,116.551692 392.221771,81.6349389 392.221771,81.6349389 L373.913975,71.1691983 Z" id="Fill-53" fill="#DC3B41"></path>
                    <polygon id="Fill-57" fill="#FFC9B0" points="0.520000599 296.099816 0.520000599 303.445423 6.33222216 303.445423 6.33222216 295.710594"></polygon>
                </g>
                <g id="Group-62" transform="translate(69.000000, 371.000000)">
                    <mask id="mask-8" fill="white">
                        <use xlink:href="#path-7"></use>
                    </mask>
                    <g id="Clip-61"></g>
                    <path d="M1.77852632,0.7875 C1.77852632,0.7875 0.251368421,1.835 0.251368421,4.4075 L0.251368421,4.4075 L0.251368421,9.64 L23.3532632,9.64 C23.3532632,9.64 23.7738947,6.5375 20.6071579,6.5375 L20.6071579,6.5375 C17.4328421,6.5375 11.8711579,4.065 10.8341053,2.885 L10.8341053,2.885 C9.504,1.3625 8.54778947,0.7875 7.53347368,0.7875 L7.53347368,0.7875 L1.77852632,0.7875 Z" id="Fill-60" fill="#858585" mask="url(#mask-8)"></path>
                </g>
                <polygon id="Fill-63" fill="#FFC9B0" points="20 365.363159 20 372 26 372 26 365"></polygon>
                <g id="Group-67" transform="translate(18.000000, 370.000000)">
                    <mask id="mask-10" fill="white">
                        <use xlink:href="#path-9"></use>
                    </mask>
                    <g id="Clip-66"></g>
                    <path d="M1.728,0.02565 C1.728,0.02565 0.195789474,1.0701 0.195789474,3.6106875 L0.195789474,3.6106875 L0.195789474,8.7958125 L23.3027368,8.7958125 C23.3027368,8.7958125 23.7132632,5.73795 20.5477895,5.73795 L20.5477895,5.73795 C17.3696842,5.73795 11.8117895,3.2765625 10.7684211,2.107125 L10.7684211,2.107125 C9.44463158,0.6060375 8.49347368,0.02565 7.47915789,0.02565 L7.47915789,0.02565 L1.728,0.02565 Z" id="Fill-65" fill="#858585" mask="url(#mask-10)"></path>
                </g>
                <g id="Group-102" transform="translate(18.000000, 0.000000)">
                    <path d="M11.3912013,225.385229 C11.3912013,225.385229 17.0440201,270.1488 10.8900604,296.131637 C4.73865101,322.105561 0.295966443,363.970973 0.295966443,363.970973 C0.295966443,363.970973 2.35281208,365.770226 7.85898658,364.467582 C7.85898658,364.467582 38.2577114,288.058558 38.2577114,263.049838 C38.2577114,238.043665 31.8219396,231.278322 31.8219396,231.278322 C31.8219396,231.278322 15.530396,220.694184 11.3912013,225.385229" id="Fill-68" fill="#0096FF"></path>
                    <path d="M20.561443,225.385229 C20.561443,225.385229 40.0281544,270.832592 41.735604,301.07226 C43.445604,331.320842 51.0098993,367.135264 51.0098993,367.135264 L59.8965436,367.135264 C59.8965436,367.135264 69.1198322,288.806018 64.3328523,225.986253 C63.2795638,212.143596 27.3211074,217.715803 20.561443,225.385229" id="Fill-70" fill="#0096FF"></path>
                    <path d="M60.5623087,91.6269066 C60.5623087,91.6269066 60.7535839,99.1486228 60.7535839,100.167308 C60.7535839,101.18472 62.7020403,104.629149 63.6329128,105.454284 C64.5650604,106.292152 63.4531141,107.969163 62.2417047,108.062118 C61.0328456,108.151253 61.2139195,109.730215 61.2139195,111.217495 C61.2139195,114.367779 61.3988188,124.301232 51.1808993,118.084706 C51.1808993,118.084706 49.3102282,124.731626 49.8674765,126.865772 L33.8029128,127.163737 C33.8029128,127.163737 35.5639195,119.014256 35.2859329,115.301149 C35.0117718,111.584221 47.8743893,87.4057301 60.5623087,91.6269066" id="Fill-72" fill="#FFC9B0"></path>
                    <path d="M63.9519597,84.1472111 C57.9816242,78.2286505 38.4460537,76.7757509 34.2673289,87.7368028 C34.2673289,87.7368028 30.8728322,87.8259377 31.7106174,93.5343945 C32.5471275,99.2415779 31.0092752,116.225606 38.8184027,116.225606 C46.6211544,116.225606 49.7657181,113.090602 49.7657181,113.090602 C49.7657181,113.090602 44.1077987,105.503945 47.8402148,102.587958 C48.9776644,101.680055 50.1763221,102.446616 50.2464564,104.455972 C50.3140403,106.476789 50.0641074,115.776111 51.2602148,118.389038 C53.0773289,122.340263 56.5547114,121.768526 57.9510201,121.381426 C62.2725638,120.174284 62.1488725,110.556623 61.1733691,113.433135 C60.2004161,116.29564 56.658,116.225606 54.8931678,114.469647 C53.1270604,112.699682 51.6070604,102.403322 51.6019597,102.398228 C51.6708188,97.4728858 53.070953,90.6094948 60.5625638,91.6269066 C60.5625638,91.6269066 62.5161208,92.2724983 65.0243758,92.4571349 C67.5377315,92.6494118 69.1163893,89.2673772 63.9519597,84.1472111" id="Fill-74" fill="#333333"></path>
                    <path d="M122.107588,177.190472 C122.107588,179.375552 125.901715,181.14297 130.558308,181.14297 C135.216693,181.14297 138.996477,179.375552 138.996477,177.190472 C138.996477,175.016853 135.216693,173.250707 130.558308,173.250707 C125.901715,173.250707 122.107588,175.016853 122.107588,177.190472" id="Fill-78" fill="#FFC9B0"></path>
                    <path d="M9.80846309,224.66782 C9.80846309,224.66782 12.3409463,153.987626 18.6606779,140.0049 C24.9829597,126.014533 32.5867852,122.785301 37.3278591,122.785301 C42.0612819,122.785301 58.7009463,124.217827 71.7701409,145.033384 C84.8393356,165.831114 90.7369866,169.421979 103.79598,171.09517 C116.863899,172.77218 123.614638,173.248415 123.614638,173.248415 C123.614638,173.248415 125.353966,177.680969 123.614638,182.335087 C123.614638,182.335087 100.532826,183.593163 89.4681946,180.540927 C78.4073893,177.488692 67.6641007,169.964429 67.6641007,169.964429 L67.3516846,226.813426 C67.3516846,226.813426 58.964906,234.527419 36.6724228,234.527419 C14.3952416,234.527419 9.80846309,224.66782 9.80846309,224.66782" id="Fill-76" fill="#FFC73C"></path>
                    <path d="M199.187074,111.536725 C199.616805,110.49512 200.325799,110.49512 200.754255,111.536725 L204.031436,119.471009 C204.459893,120.518981 205.738886,121.438345 206.868685,121.5313 L215.442913,122.180711 C216.573987,122.273666 216.793315,122.937085 215.926201,123.675632 L209.38204,129.252933 C208.523852,129.983839 208.032913,131.48258 208.304523,132.58276 L210.319289,140.933431 C210.590899,142.027244 210.022174,142.442358 209.049221,141.854068 L201.727208,137.35148 C200.763181,136.755549 199.178148,136.755549 198.224322,137.35148 L190.890832,141.854068 C189.928081,142.442358 189.359356,142.027244 189.620765,140.933431 L191.63553,132.58276 C191.89949,131.48258 191.40855,129.983839 190.550362,129.252933 L184.016403,123.675632 C183.149289,122.944725 183.367342,122.273666 184.497141,122.180711 L193.063718,121.5313 C194.194792,121.438345 195.473785,120.518981 195.902242,119.471009 L199.187074,111.536725 Z" id="Fill-80" fill="#FFC73C"></path>
                    <path d="M240.057221,111.536725 C240.485678,110.49512 241.204872,110.49512 241.624403,111.536725 L244.900309,119.471009 C245.331315,120.518981 246.609034,121.438345 247.738832,121.5313 L256.314336,122.180711 C257.445409,122.273666 257.664738,122.937085 256.796349,123.675632 L250.252188,129.252933 C249.394,129.983839 248.90306,131.48258 249.174671,132.58276 L251.190711,140.933431 C251.461047,142.027244 250.892322,142.442358 249.919369,141.854068 L242.598631,137.35148 C241.633329,136.755549 240.048295,136.755549 239.084268,137.35148 L231.762255,141.854068 C230.798228,142.442358 230.220577,142.027244 230.492188,140.933431 L232.505678,132.58276 C232.778564,131.48258 232.287624,129.983839 231.421785,129.252933 L224.88655,123.675632 C224.019436,122.944725 224.238765,122.273666 225.368564,122.180711 L233.933866,121.5313 C235.06494,121.438345 236.343933,120.518981 236.772389,119.471009 L240.057221,111.536725 Z" id="Fill-82" fill="#FFC73C"></path>
                    <path d="M280.927242,111.536725 C281.358248,110.49512 282.073617,110.49512 282.494423,111.536725 L285.771604,119.471009 C286.202611,120.518981 287.480329,121.438345 288.610128,121.5313 L297.184356,122.180711 C298.307779,122.273666 298.536034,122.937085 297.667644,123.675632 L291.122208,129.252933 C290.265295,129.983839 289.774356,131.48258 290.044691,132.58276 L292.060732,140.933431 C292.339993,142.027244 291.762342,142.442358 290.789389,141.854068 L283.467376,137.35148 C282.505899,136.755549 280.918315,136.755549 279.956839,137.35148 L272.63355,141.854068 C271.669523,142.442358 271.091872,142.027244 271.362208,140.933431 L273.378248,132.58276 C273.649859,131.48258 273.149993,129.983839 272.29053,129.252933 L265.757846,123.675632 C264.889456,122.944725 265.117711,122.273666 266.238584,122.180711 L274.814087,121.5313 C275.936235,121.438345 277.213953,120.518981 277.642409,119.471009 L280.927242,111.536725 Z" id="Fill-84" fill="#FFC73C"></path>
                    <path d="M321.80606,111.536725 C322.237067,110.49512 322.94606,110.49512 323.365591,111.536725 L326.641497,119.471009 C327.08143,120.518981 328.350221,121.438345 329.481295,121.5313 L338.055523,122.180711 C339.186597,122.273666 339.403376,122.937085 338.546463,123.675632 L332.001027,129.252933 C331.135188,129.983839 330.645523,131.48258 330.917134,132.58276 L332.93955,140.933431 C333.211161,142.027244 332.63351,142.442358 331.668208,141.854068 L324.346195,137.35148 C323.375792,136.755549 321.797134,136.755549 320.835658,137.35148 L313.504718,141.854068 C312.548342,142.442358 311.970691,142.027244 312.233376,140.933431 L314.257067,132.58276 C314.519752,131.48258 314.028812,129.983839 313.161698,129.252933 L306.627738,123.675632 C305.768275,122.944725 305.987604,122.273666 307.111027,122.180711 L315.68398,121.5313 C316.815054,121.438345 318.092772,120.518981 318.523779,119.471009 L321.80606,111.536725 Z" id="Fill-86" fill="#FFC73C"></path>
                    <path d="M362.668812,111.536725 C363.099819,110.49512 363.807537,110.49512 364.235993,111.536725 L367.511899,119.471009 C367.941631,120.518981 369.221899,121.438345 370.351698,121.5313 L378.925926,122.180711 C380.057,122.273666 380.275054,122.937085 379.409215,123.675632 L372.863779,129.252933 C372.006866,129.983839 371.515926,131.48258 371.786262,132.58276 L373.802302,140.933431 C374.073913,142.027244 373.503913,142.442358 372.53096,141.854068 L365.208946,137.35148 C364.243644,136.755549 362.659886,136.755549 361.70606,137.35148 L354.37257,141.854068 C353.411094,142.442358 352.842369,142.027244 353.103779,140.933431 L355.119819,132.58276 C355.382503,131.48258 354.891564,129.983839 354.032101,129.252933 L347.499416,123.675632 C346.629752,122.944725 346.850356,122.273666 347.980154,122.180711 L356.546732,121.5313 C357.677805,121.438345 358.955523,120.518981 359.38398,119.471009 L362.668812,111.536725 Z" id="Fill-88" fill="#0791DA"></path>
                    <path d="M370.523973,71.9979903 C370.523973,87.8219903 357.680483,100.649783 341.831423,100.649783 C325.983638,100.649783 313.138872,87.8219903 313.138872,71.9979903 C313.138872,56.1739903 325.983638,43.3461979 341.831423,43.3461979 C357.680483,43.3461979 370.523973,56.1739903 370.523973,71.9979903" id="Fill-90" fill="#FFCFCC"></path>
                    <path d="M364.749631,71.9979903 C364.749631,84.637326 354.490906,94.8840249 341.83104,94.8840249 C329.173725,94.8840249 318.913725,84.637326 318.913725,71.9979903 C318.913725,59.3586547 329.173725,49.1119557 341.83104,49.1119557 C354.490906,49.1119557 364.749631,59.3586547 364.749631,71.9979903" id="Fill-92" fill="#FF3453"></path>
                    <path d="M333.343651,64.1278837 C338.073248,61.2984858 341.521302,65.9500567 341.836268,66.3893647 C342.146134,65.9500567 345.591638,61.2984858 350.318685,64.1278837 C354.586671,66.6822367 356.741705,76.4476069 341.893651,84.3335031 L341.836268,84.3755239 L341.768685,84.3335031 C326.932107,76.4476069 329.074389,66.6822367 333.343651,64.1278837" id="Fill-94" fill="#FFFFFF"></path>
                    <path d="M209.365973,30.5592803 C209.365973,46.9893979 195.999664,60.3367197 179.532148,60.3367197 C163.05443,60.3367197 149.697047,46.9893979 149.697047,30.5592803 C149.697047,14.0909619 163.05443,0.751280277 179.532148,0.751280277 C195.999664,0.751280277 209.365973,14.0909619 209.365973,30.5592803" id="Fill-96" fill="#E3FCB0"></path>
                    <path d="M202.629007,30.5543142 C202.629007,43.2751446 192.282295,53.6084318 179.531893,53.6084318 C166.775114,53.6084318 156.432228,43.2751446 156.432228,30.5543142 C156.432228,17.8054699 166.775114,7.47854948 179.531893,7.47854948 C192.282295,7.47854948 202.629007,17.8054699 202.629007,30.5543142" id="Fill-98" fill="#8BCF2E"></path>
                    <path d="M186.168886,21.6794021 C186.168886,21.6794021 179.576268,30.0198865 176.648483,33.7253536 C174.844121,31.8395128 172.870161,29.7945024 172.870161,29.7945024 C171.681705,28.5504332 169.696268,28.5109592 168.444054,29.7040941 C167.198215,30.9035958 167.158685,32.8811183 168.353517,34.1239142 L174.618416,40.6409522 C175.245799,41.2929107 176.124389,41.6481772 177.033584,41.6023363 C177.935128,41.5577689 178.775463,41.1299211 179.333987,40.4155682 L191.080832,25.559319 C192.151973,24.2019211 191.921168,22.2371322 190.56694,21.1738796 C189.20251,20.0978934 187.240027,20.3283709 186.168886,21.6794021" id="Fill-100" fill="#FFFFFF"></path>
                </g>
            </g>
        </g>
    </g>
</svg>