<svg xmlns="http://www.w3.org/2000/svg" width="80" height="80" viewBox="0 0 80 80">
    <g fill="none" fill-rule="evenodd">
        <circle cx="40" cy="40" r="40" fill="#00DC87"/>
        <g fill="#FFF" fill-rule="nonzero">
            <path d="M67.892 38.942a34.722 34.722 0 0 0-11.773-9.718 33.742 33.742 0 0 0-14.886-3.621 31.475 31.475 0 0 0-.866 0 33.744 33.744 0 0 0-14.886 3.621 34.721 34.721 0 0 0-11.773 9.718 4.344 4.344 0 0 0 0 5.316 34.721 34.721 0 0 0 11.773 9.718 33.742 33.742 0 0 0 14.886 3.621c.144.004.722.004.866 0a33.744 33.744 0 0 0 14.886-3.621 34.721 34.721 0 0 0 11.773-9.718 4.344 4.344 0 0 0 0-5.316zM26.498 51.921a32.427 32.427 0 0 1-10.994-9.075 2.036 2.036 0 0 1 0-2.492 32.425 32.425 0 0 1 10.994-9.075A31.991 31.991 0 0 1 30.2 29.7a16.024 16.024 0 0 0-5.274 11.9c0 4.721 2.039 8.97 5.274 11.902a31.989 31.989 0 0 1-3.702-1.58zM40.8 55.306c-7.497 0-13.596-6.148-13.596-13.706s6.1-13.707 13.596-13.707c7.497 0 13.596 6.15 13.596 13.707 0 7.558-6.1 13.706-13.596 13.706zm25.296-12.46a32.425 32.425 0 0 1-10.994 9.075 31.96 31.96 0 0 1-3.698 1.576 16.024 16.024 0 0 0 5.27-11.897c0-4.721-2.039-8.97-5.275-11.902 1.258.445 2.493.972 3.703 1.581a32.427 32.427 0 0 1 10.994 9.075 2.036 2.036 0 0 1 0 2.491z"/>
            <path d="M40.8 35.2c-3.088 0-5.6 2.692-5.6 6s2.512 6 5.6 6c3.088 0 5.6-2.692 5.6-6s-2.512-6-5.6-6zm0 9.65c-1.879 0-3.407-1.637-3.407-3.65s1.528-3.65 3.407-3.65 3.407 1.637 3.407 3.65-1.528 3.65-3.407 3.65z"/>
        </g>
    </g>
</svg>
