<svg xmlns="http://www.w3.org/2000/svg" width="80" height="80" viewBox="0 0 80 80">
    <g fill="none" fill-rule="evenodd">
        <path fill="#DC3B41" d="M78.698 39.849C78.698 18.393 61.304 1 39.849 1 18.393 1 1 18.393 1 39.849c0 21.456 17.393 38.849 38.849 38.849 21.455 0 38.849-17.393 38.849-38.849"/>
        <path fill="#FFF" d="M57.925 58.06h-2.233V56.6h.73v-.73h1.503zM49.765 58.06h2.749V56.6h-2.75zM20.559 29.627h1.503v-2.663h-1.503zM22.062 23.829H20.56v-2.19h2.233v1.46h-.73zM25.97 23.098h2.75v-1.46h-2.75v1.46zm5.97 0h2.749v-1.46h-2.75v1.46zm5.928 0h2.749v-1.46h-2.75v1.46zm5.926 0h2.749v-1.46h-2.75v1.46zm5.97 0h2.75v-1.46h-2.75v1.46zM57.925 23.829h-1.503v-.73h-.73v-1.46h2.233zM57.925 29.627h-1.503v-2.663h1.46v2.663h.043zm0 5.755h-1.503V32.72h1.46v2.662h.043zm0 5.799h-1.503v-2.663h1.46v2.663h.043zm0 5.798h-1.503v-2.663h1.46v2.663h.043zm0 5.755h-1.503V50.07h1.46v2.663h.043zM46.028 56.47H22.062V33.15h22.763l-11.467 11.51 1.374 1.375 11.296-11.295V56.47zm6.228-23.15l2.276-8.46-8.46 2.277 2.404 2.405-2.148 2.147H20.56V57.93h26.886V33.278l2.362-2.362 2.45 2.405z"/>
    </g>
</svg>
