<?xml version="1.0" encoding="UTF-8"?>
<svg width="539px" height="399px" viewBox="0 0 539 399" version="1.1" xmlns="http://www.w3.org/2000/svg" xmlns:xlink="http://www.w3.org/1999/xlink">
    <!-- Generator: Sketch 53.2 (72643) - https://sketchapp.com -->
    <title>Group 115</title>
    <desc>Created with Sketch.</desc>
    <defs>
        <polygon id="path-1" points="0.90142549 0.376537147 378.351241 0.376537147 378.351241 280.542491 0.90142549 280.542491"></polygon>
    </defs>
    <g id="Desktop" stroke="none" stroke-width="1" fill="none" fill-rule="evenodd">
        <g id="Op.-Procesos-internos" transform="translate(-825.000000, -322.000000)">
            <g id="Group-115" transform="translate(825.000000, 322.000000)">
                <g id="Group-3" transform="translate(103.000000, 0.000000)">
                    <mask id="mask-2" fill="white">
                        <use xlink:href="#path-1"></use>
                    </mask>
                    <g id="Clip-2"></g>
                    <path d="M378.351241,23.4098337 L378.351241,257.617256 C378.351241,270.319759 368.033524,280.542491 355.459641,280.542491 L22.0734059,280.542491 C21.429849,280.542491 20.8903314,280.435322 20.3537863,280.328153 C17.9891235,280.005157 15.7314725,279.359166 13.7978294,278.175842 C6.59534314,274.838719 1.54646863,267.628627 1.00843725,259.339402 C0.90142549,258.6949 0.90142549,258.156078 0.90142549,257.617256 L0.90142549,23.4098337 C0.90142549,11.4619791 9.92905686,1.66792355 21.429849,0.48311076 C22.1804176,0.375941763 23.0394843,0.375941763 23.7915392,0.375941763 L355.459641,0.375941763 C356.211696,0.375941763 357.072249,0.375941763 357.822818,0.48311076 C369.32361,1.66792355 378.351241,11.4619791 378.351241,23.4098337" id="Fill-1" fill="#FFFFFF" mask="url(#mask-2)"></path>
                </g>
                <path d="M469.045085,50 L115.954915,50 C109.350908,50 104,44.637371 104,38.0207347 L104,12.9777778 C104,6.36262902 109.350908,1 115.954915,1 L469.045085,1 C475.646122,1 481,6.36262902 481,12.9777778 L481,38.0207347 C481,44.637371 475.646122,50 469.045085,50" id="Fill-4" fill="#0096FF"></path>
                <polygon id="Fill-6" fill="#C6D8E0" points="128 147 269 147 269 88 128 88"></polygon>
                <polygon id="Fill-8" fill="#C6D8E0" points="128 181 208 181 208 165 128 165"></polygon>
                <polygon id="Fill-9" fill="#C6D8E0" points="128 208 269 208 269 192 128 192"></polygon>
                <polygon id="Fill-10" fill="#C6D8E0" points="128 234 269 234 269 218 128 218"></polygon>
                <path d="M179.484708,32 L136.515292,32 C132.364456,32 129,28.64239 129,24.5 C129,20.35761 132.364456,17 136.515292,17 L179.484708,17 C183.635544,17 187,20.35761 187,24.5 C187,28.64239 183.635544,32 179.484708,32" id="Fill-11" fill="#F3F3FF"></path>
                <path d="M460,264 L302,264 L302,75.1364186 C302,74.5088663 302.509644,74 303.138155,74 L458.861845,74 C459.490356,74 460,74.5088663 460,75.1364186 L460,264 Z" id="Fill-12" fill="#FFFFFF"></path>
                <path d="M460,86 L460,74.543282 C460,71.4827403 457.549846,69 454.524672,69 L307.475328,69 C304.45164,69 302,71.4827403 302,74.543282 L302,86 L460,86 Z" id="Fill-13" fill="#FF9800"></path>
                <polygon id="Fill-14" fill="#EFEFEF" points="312 197 449 197 449 104 312 104"></polygon>
                <path d="M317,77 C317,78.1057304 316.104478,79 315.000807,79 C313.895522,79 313,78.1057304 313,77 C313,75.8942696 313.895522,75 315.000807,75 C316.104478,75 317,75.8942696 317,77" id="Fill-15" fill="#FEDC9E"></path>
                <path d="M328,77 C328,78.1057304 327.104478,79 326.000807,79 C324.895522,79 324,78.1057304 324,77 C324,75.8942696 324.895522,75 326.000807,75 C327.104478,75 328,75.8942696 328,77" id="Fill-16" fill="#FEDC9E"></path>
                <path d="M338,77 C338,78.1057304 337.104116,79 336,79 C334.895884,79 334,78.1057304 334,77 C334,75.8942696 334.895884,75 336,75 C337.104116,75 338,75.8942696 338,77" id="Fill-17" fill="#FEDC9E"></path>
                <polygon id="Fill-18" fill="#FED17E" points="342 80 446 80 446 75 342 75"></polygon>
                <polygon id="Fill-19" fill="#0096FF" points="332 161 323 170.794271 323 197 332 197"></polygon>
                <polygon id="Fill-20" fill="#0096FF" points="348 146 339 154.936826 339 197 348 197"></polygon>
                <polygon id="Fill-21" fill="#0096FF" points="362 145.243641 353 137 353 197 362 197"></polygon>
                <polygon id="Fill-22" fill="#0096FF" points="377 148 372.5 152.918461 368 149.638987 368 197 377 197"></polygon>
                <polygon id="Fill-23" fill="#0096FF" points="393 134 384 143.720144 384 197 393 197"></polygon>
                <polygon id="Fill-24" fill="#0096FF" points="408 134.345458 399 127 399 197 408 197"></polygon>
                <polygon id="Fill-25" fill="#0096FF" points="423 138 414 141.28848 414 197 423 197"></polygon>
                <polygon id="Fill-26" fill="#0096FF" points="438 122 429 130.989526 429 197 438 197"></polygon>
                <polygon id="Fill-27" fill="#0096FF" points="429 137 438 127.601325 438 123 429 131.98867"></polygon>
                <path d="M449,108 L418.969297,138.459024 C418.245291,138.09093 417.45762,137.838052 416.591477,137.838052 C415.772714,137.838052 415.016135,138.056515 414.32026,138.388697 L404.542478,128.508517 C404.616507,128.143416 404.758643,127.802256 404.758643,127.416206 C404.758643,124.416091 402.351212,121.98308 399.382639,121.98308 C396.412586,121.98308 394.005155,124.416091 394.005155,127.416206 C394.005155,128.152394 394.157655,128.851174 394.419719,129.491598 L374.027623,150.100368 C373.630826,150.004604 373.253277,149.854972 372.826869,149.854972 C372.141358,149.854972 371.494342,150.013582 370.891744,150.248504 L361.176146,140.431169 C361.330127,139.923918 361.491511,139.416667 361.491511,138.857044 C361.491511,135.856929 359.08408,133.423918 356.114027,133.423918 C353.143973,133.423918 350.736542,135.856929 350.736542,138.857044 C350.736542,139.469038 350.896446,140.033149 351.080038,140.580801 L312,180.074586 L312,186 L353.74361,143.67668 C354.466136,144.040285 355.250846,144.291667 356.114027,144.291667 C357.024586,144.291667 357.841869,144.004374 358.592526,143.600368 L367.951303,153.055594 C367.643341,153.740907 367.449385,154.487569 367.449385,155.289595 C367.449385,158.28971 369.856816,160.722721 372.826869,160.722721 C375.796922,160.722721 378.204353,158.28971 378.204353,155.289595 C378.204353,154.257136 377.84161,153.345879 377.347094,152.522905 L397.258,132.401934 C397.909457,132.686234 398.62606,132.850829 399.382639,132.850829 C400.441258,132.850829 401.374026,132.46029 402.206115,131.926105 L411.587101,141.405272 C411.373896,141.991828 411.213993,142.609807 411.213993,143.272675 C411.213993,146.274286 413.621424,148.707297 416.591477,148.707297 C419.561531,148.707297 421.968962,146.274286 421.968962,143.272675 C421.968962,142.666667 421.809059,142.107044 421.628427,141.563881 L449,113.896984 L449,108 Z" id="Fill-28" fill="#FF3453"></path>
                <polygon id="Fill-29" fill="#EFEFEF" points="312 212 375 212 375 205 312 205"></polygon>
                <polygon id="Fill-30" fill="#EFEFEF" points="312 229 449 229 449 225 312 225"></polygon>
                <polygon id="Fill-31" fill="#EFEFEF" points="312 239 449 239 449 235 312 235"></polygon>
                <polygon id="Fill-32" fill="#EFEFEF" points="312 248 449 248 449 244 312 244"></polygon>
                <polygon id="Fill-33" fill="#EFEFEF" points="311 256 405 256 405 252 311 252"></polygon>
                <path d="M82.9232507,67 L172.076749,67 C178.661476,67 184,61.8509826 184,55.5 C184,49.1490174 178.661476,44 172.076749,44 L82.9232507,44 C76.3385239,44 71,49.1490174 71,55.5 C71,61.8509826 76.3385239,67 82.9232507,67" id="Fill-34" fill="#A4E3F9"></path>
                <path d="M89.6392314,55.6073693 C88.0060224,57.2487594 85.3404072,57.2487594 83.7071982,55.6073693 C82.075423,54.051003 82.075423,51.3734764 83.7071982,49.7320864 C85.3404072,48.0906963 88.0060224,48.0906963 89.6392314,49.7320864 C91.2724405,51.3734764 91.2724405,53.9659793 89.6392314,55.6073693 L89.6392314,55.6073693 Z M91.1864067,56.1261581 C92.8196157,53.8795145 92.7335819,50.6831991 90.6702036,48.6959499 C88.4347577,46.4493062 84.9116719,46.4493062 82.6776599,48.6094851 C80.44078,50.8546877 80.44078,54.4847681 82.6776599,56.7299706 C84.7381703,58.7172199 87.9199885,58.8901495 90.0679667,57.1622946 L94.9690278,62 L96,60.9638635 L91.1864067,56.1261581 Z" id="Fill-35" fill="#F3F3FF"></path>
                <path d="M415.117146,210.369643 L415.550811,210.004142 C415.587813,210.032257 415.623335,210.060373 415.655897,210.081089 L415.117146,210.369643 Z M411.977884,206.841892 C412.038567,206.837452 412.119972,206.868527 412.208777,206.91588 L407.059558,211.050333 L407.164644,211.227905 C407.61607,211.985542 408.860823,212.046213 409.84656,211.359603 L413.884234,208.545097 L410.231382,212.05953 L410.352749,212.226743 C410.870779,212.941468 412.117012,212.889677 413.037625,212.117241 L414.832969,210.609364 L413.490531,212.757978 L413.853152,212.883758 C414.729363,213.187109 415.610015,212.882278 416.003717,212.137958 L416.074762,212.003299 L420.597904,210.505781 L420.569783,210.474706 C421.72277,210.300094 422.832834,209.907957 423.840773,209.317533 L426.260713,207.898441 L457.782104,199.78047 C459.413158,199.382415 460.367814,197.691047 459.866065,196.089945 L450.467519,166.321585 C449.542465,163.390178 446.604495,161.584869 443.571798,162.082069 C439.673252,162.719846 437.365798,166.799548 438.826643,170.469357 L447.572471,191.243727 C441.804576,193.421936 431.211601,200.666847 424.074626,202.444041 C422.362167,202.870212 419.569244,202.898328 417.989993,202.873172 L410.36015,201.177365 L410.295026,201.363815 C410.012329,202.156967 410.857459,203.157286 412.115532,203.515388 L413.182674,203.821699 L410.827857,204.457996 C409.910203,204.641487 409.198282,205.174201 408.252507,205.715793 L404.057944,209.057095 C403.945457,209.246504 404.0017,209.489185 404.183751,209.610525 L405.111765,210.229066 L410.579202,206.960273 L411.977884,206.841892 Z" id="Fill-36" fill="#FFCEBD"></path>
                <path d="M458,186.742753 L451.557716,166.463383 C450.595507,163.436789 447.543503,161.570938 444.390768,162.084831 L444.390768,162.084831 C440.340473,162.745125 437.940967,166.956362 439.459451,170.746326 L447.191696,189 L458,186.742753 Z" id="Fill-37" fill="#FF5722"></path>
                <path d="M436.416017,328.273862 C436.416017,328.273862 438.357037,339.324771 433,347.163136 L433,355 L447.89496,355 L448,347.532601 C448,347.532601 444.154946,339.067948 446.959957,326 L436.416017,328.273862 Z" id="Fill-38" fill="#FFCEBD"></path>
                <path d="M436.416017,328.273862 C436.416017,328.273862 438.357037,339.324771 433,347.163136 L433,355 L447.89496,355 L448,347.532601 C448,347.532601 444.154946,339.067948 446.959957,326 L436.416017,328.273862 Z" id="Fill-39" fill="#EEBDAC"></path>
                <path d="M447.799831,346.352929 C447.799831,346.352929 440.907728,356.975097 432.813978,346 C432.813978,346 425.200591,353.18861 416.256968,354.53317 C414.95777,354.727495 414,355.807716 414,357.077975 C414,358.031027 414.79962,358.804042 415.783995,360 L449,360 L449,346.148602 L447.799831,346.352929 Z" id="Fill-40" fill="#232850"></path>
                <path d="M428.416017,328.273862 C428.416017,328.273862 430.357037,339.324771 425,347.163136 L425,355 L439.89496,355 L440,347.532601 C440,347.532601 436.154946,339.067948 438.959957,326 L428.416017,328.273862 Z" id="Fill-41" fill="#FFCEBD"></path>
                <path d="M449.17188,220 C449.17188,220 455.734835,229.714251 448.86534,240.477242 C446.891519,243.571322 445.862739,247.167427 445.838814,250.833548 C445.758067,261.840847 445.456013,283.377257 444.289664,286.393873 C444.289664,286.393873 447.598805,293.93616 447.893382,304.636584 C448.096746,312.077572 447.832074,320.510692 448.482538,330 L435.202611,330 L430.120022,291.726954 C430.120022,291.726954 415.634868,240.591948 419.729051,225.219864 L449.17188,220 Z" id="Fill-42" fill="#0096FF"></path>
                <path d="M443.571502,220 C443.571502,220 447.998148,229.714251 441.266599,240.477242 C439.330949,243.571322 438.324294,247.167427 438.297919,250.833548 C438.221724,261.840847 437.92427,283.377257 436.782808,286.393873 C436.782808,286.393873 440.025497,293.93616 440.312694,304.636584 C440.513439,312.077572 440.254083,320.510692 440.891485,330 L427.878232,330 L422.897707,291.726954 C422.897707,291.726954 408.703429,240.591948 412.713932,225.219864 L443.571502,220 Z" id="Fill-43" fill="#0096FF"></path>
                <path d="M450.028477,230.774527 C451.638862,229.984671 452.300244,228.030664 451.470961,226.428849 C449.946717,223.484575 447.68955,218.519982 446.658787,213.254771 C445.430923,206.968349 446.228085,200.465305 448.781633,194.598862 C451.758582,187.758362 455.412973,175.540657 450.835859,163.358319 C448.934933,158.29794 444.064359,155 438.701762,155 L432.336143,155 C427.172107,155 422.510313,158.116686 420.495507,162.916236 C418.34492,168.03998 415.503752,174.232091 413.344405,176.875748 C412.675723,177.695076 412.221662,178.666185 412.106321,179.72129 C411.83622,182.207271 411.912141,186.361379 415.192771,187.429747 C415.192771,187.429747 415.751952,206.079762 415.516892,207.768519 C414.80587,212.883421 413.274325,222.425049 411.199659,227.217231 C410.676977,228.425592 411.217179,229.834363 412.392482,230.413492 C418.000359,233.176512 433.264706,238.989905 450.028477,230.774527" id="Fill-44" fill="#FF5722"></path>
                <path d="M429.274083,124.935313 C428.686862,125.209542 426.374227,125.552695 424.847453,131.883422 L424.847453,133.399747 C424.847453,133.823555 424.737259,134.238564 424.528469,134.603714 L422.080991,138.872592 C421.8954,139.195215 422.041843,139.608758 422.386926,139.739273 L423.354028,140.107356 L423.674462,144.81764 C423.826704,147.067196 425.624615,148.82842 427.851704,148.938405 C432.54077,149.170107 439.806359,148.916408 440.115193,145.163725 L445,130.340702 C445,130.340702 443.167291,118.450607 429.274083,124.935313" id="Fill-45" fill="#FFCEBD"></path>
                <path d="M427,147.104135 C427,147.104135 431.864315,148.393458 432.886315,157.579503 C433.102927,159.531689 434.709343,161 436.593429,161 C438.586548,161 440.229308,159.37242 440.328164,157.295852 C440.607288,151.433226 441.223687,140.433028 442,138 L427,147.104135 Z" id="Fill-46" fill="#FFCEBD"></path>
                <path d="M374.197734,166.200553 L374.740093,166.377355 C374.734149,166.423803 374.731178,166.468752 374.729692,166.509207 L374.197734,166.200553 Z M375.535058,161.6142 C375.57072,161.662146 375.588551,161.749049 375.594495,161.852433 L369.335817,159.645409 L369.239232,159.831201 C368.835063,160.62531 369.444289,161.728072 370.554268,162.206036 L375.096713,164.16284 L370.161986,162.911744 L370.083233,163.105027 C369.750388,163.932099 370.456198,164.976427 371.604811,165.351007 L373.8426,166.083685 L371.298712,166.085183 L371.383409,166.462759 C371.592923,167.378232 372.321022,167.971566 373.163536,167.910135 L373.316586,167.899647 L376.995713,170.98019 L377.007601,170.939735 C377.769876,171.83573 378.692629,172.578896 379.73277,173.127281 L382.227623,174.445801 L405.898263,197.163308 C407.104827,198.349977 409.052863,198.263074 410.149468,196.97452 L430.510974,172.942987 C432.51696,170.578641 432.493186,167.087558 430.457481,164.748683 C427.842269,161.743055 423.140831,161.948325 420.790112,165.16971 L407.742285,183.819283 C402.822417,180.033031 391.018302,174.820381 385.71061,169.64369 C384.438666,168.401584 382.928975,166.017759 382.111722,164.649794 L379.500968,157.188167 L379.306313,157.231618 C378.481629,157.414413 378.078946,158.675997 378.440024,159.94807 L378.749094,161.028357 L376.952622,159.347244 C376.310706,158.659516 375.477107,158.332882 374.514234,157.809969 L369.438345,156 C369.216944,156.004495 369.04012,156.182795 369.03269,156.404546 L369,157.53278 L374.689572,160.475478 L375.535058,161.6142 Z" id="Fill-47" fill="#FFCEBD"></path>
                <path d="M420.679182,164.618873 C423.052454,161.312809 427.798997,161.102005 430.441761,164.185388 C432.497727,166.585884 432.522358,170.169556 430.496818,172.598258 L416.816458,190 L408,182.075542 L420.679182,164.618873 Z" id="Fill-48" fill="#FF5722"></path>
                <path d="M422.322838,125.958084 C420.248918,122.109002 428.733958,121.012269 431.632938,121.00025 C436.629884,120.979217 441.640355,122.283278 445.947497,124.825294 C447.5886,125.794325 447.648713,126.954158 448.787867,128.479067 C451.333679,131.884948 452.8786,136.659492 451.459918,140.666323 C450.532665,143.28496 447.761426,146.334779 445.914435,148.439605 C445.392949,149.034545 439.524355,153.667865 439.023909,152.918181 C437.830654,151.133361 437.994463,148.783648 438.403236,146.67732 C438.815014,144.56949 439.429676,142.412081 438.99235,140.31026 C438.873625,139.740861 438.637679,139.136906 438.128216,138.855963 C437.839671,138.696711 437.501531,138.662156 437.172409,138.65164 C435.032364,138.584033 432.176966,140.9052 431.681029,137.747211 C431.14752,134.36687 430.567423,131.465786 427.241637,129.628383 C425.994279,128.940296 424.547043,128.53766 423.543145,127.526562 C422.97958,126.960167 422.581327,126.437341 422.322838,125.958084" id="Fill-49" fill="#4D5068"></path>
                <path d="M439.799831,346.385894 C439.799831,346.385894 432.907728,358.000223 424.813978,346 C424.813978,346 417.200591,353.86006 408.256968,355.330209 C406.95777,355.542685 406,356.723803 406,358.112711 C406,359.154782 406.79962,360 407.783995,360 L441,360 L441,346.162482 L439.799831,346.385894 Z" id="Fill-50" fill="#232850"></path>
                <path d="M469.143468,144.625889 C468.240961,140.597368 468.659928,136.414815 468.856648,132.292986 C469.053367,128.172639 468.991799,123.889373 467.234839,120.145218 C466.146125,117.828818 464.248007,115.694591 461.72219,115.139188 C458.726349,114.48011 454.114705,116.244069 452.311193,118.690803 C450.50618,121.137538 449.734319,124.157447 449,127.094417 L452.004852,132.903189 C452.947903,131.315478 454.98868,130.444606 456.80871,130.856345 C457.817835,135.203297 454.811482,139.739826 455.843133,144.082335 C456.358207,146.250627 457.834354,148.081234 459.499711,149.584524 C460.75361,150.716065 462.147164,151.711347 463.689384,152.414857 C467.174772,154.00553 471.160217,154.015898 475,153.996644 C471.062608,152.605915 470.045974,148.65441 469.143468,144.625889" id="Fill-51" fill="#4D5068"></path>
                <path d="M452.197547,133.779148 L452.197547,133.779148 C451.426466,134.230283 450.436329,133.968097 449.986532,133.194723 L447.220573,128.438767 C446.770776,127.665393 447.030724,126.67231 447.801804,126.221176 C448.574345,125.770041 449.563022,126.030762 450.014279,126.8056 L452.778778,131.560092 C453.230035,132.334931 452.968627,133.326548 452.197547,133.779148" id="Fill-52" fill="#FF5722"></path>
                <path d="M132,379.000746 C132,380.051394 131.110408,381.102043 129.493918,382.070609 C124.483247,384.898703 112.523013,387 98.5403003,387 L97.004411,387 C95.8745099,387 94.8237168,386.920903 93.8520317,386.920903 L93.5311219,386.920903 C81.7305962,386.434381 71.9525486,384.576345 67.5866824,382.070609 C65.8895919,381.102043 65,380.051394 65,379.000746 C65,374.959332 77.4468232,371.646208 93.6102299,371.082082 C94.661023,371.082082 95.8745099,371 97.004411,371 L99.995589,371 C100.400085,371 100.80458,371 101.207583,371.082082 C118.503876,371.32385 132,374.798153 132,379.000746" id="Fill-53" fill="#C6D8E0"></path>
                <path d="M129,382.040541 C124.062878,384.885886 112.278202,387 98.5007353,387 L96.9859199,387 C95.8740748,387 94.8372351,386.92042 93.8812836,386.92042 L93.5636136,386.92042 C81.9377727,386.430931 72.3017817,384.561562 68,382.040541 C72.3811992,379.357357 82.2554428,377.487988 94.1210068,377.081081 C94.6784001,377.081081 95.2357933,377 95.7931866,377.081081 C96.6697206,377 97.6256721,377 98.5007353,377 L100.01408,377 C113.154736,377.162162 124.223184,379.114114 129,382.040541" id="Fill-54" fill="#525D7A"></path>
                <path d="M150,283.09447 C140.738715,285.102407 132.444162,287.110344 124.954226,291.124734 C110.457721,298.831711 100.393306,313.849712 98.5386692,330.31064 C97.7355387,337.457056 98.4598435,345.005355 99.1038352,352.311931 C99.1841482,353.5161 99.3447743,354.720269 99.4265746,355.844357 C99.9099402,360.902756 100.231192,365.962637 99.988766,371.101116 C99.9099402,373.109053 99.6675138,375.11699 99.3447743,377.123443 C99.1038352,378.971219 98.7022699,380.817513 98.2189043,382.583726 L97.0082595,387 C95.8823895,387 94.8353453,386.921403 93.8686141,386.921403 L93.9489271,385.313867 L94.1110405,381.861521 C94.1913536,380.335549 94.1913536,378.730979 94.1110405,377.203523 C94.1110405,375.195587 93.8686141,373.189133 93.6276749,371.18268 C91.6942126,356.566562 84.930069,341.95341 78.2462385,329.104989 C75.6687845,324.28683 73.0913305,319.308512 69.2258931,315.454282 C63.3466803,309.433438 54.6505617,306.461573 47,303.812995 L48.4500967,299.877202 C56.5022237,302.687424 65.6028821,305.819449 72.2063996,312.56398 C76.4748895,316.820094 79.2114824,322.118733 81.8692494,327.178615 C87.1862708,337.295412 92.5003177,348.457701 95.55965,359.940311 C95.3990239,357.531973 95.1580847,355.12067 94.9974586,352.712332 C94.2716666,345.164033 93.5473619,337.457056 94.3519797,329.828676 C96.3642678,312.001936 107.318075,295.782732 122.940451,287.430664 C130.994065,283.174551 139.93261,281.086534 149.113582,279 L150,283.09447 Z" id="Fill-55" fill="#CCCCCC"></path>
                <path d="M163,318.553894 L162.515767,322.792947 C149.242714,321.245452 136.941115,322.874235 126.987446,327.439948 C115.497385,332.655971 106.837991,342.273624 103.844418,353.113617 C103.034375,356.213123 102.550142,359.309619 102.143626,362.651486 L101.901509,364.363064 C101.577193,366.890539 101.172172,369.418015 100.687939,371.943984 C100.365117,373.980717 99.9586011,376.018955 99.555074,377.975904 C98.907936,381.317771 98.0978927,384.659638 97.2878493,388 L96.477806,388 C95.3464355,388 94.2942759,387.920217 93.3228217,387.920217 L93,387.920217 C93.1614109,387.348185 93.3228217,386.858948 93.4050217,386.289927 C94.132865,383.599875 94.6992976,380.828534 95.2657301,378.057193 C95.7529517,376.018955 96.0757734,373.899428 96.477806,371.862696 C96.9650276,369.171138 97.3700493,366.481085 97.7735764,363.792538 L98.0171873,362.082466 C98.2607981,360.206805 98.5029144,358.249856 98.907936,356.375701 C99.0693469,354.906483 99.3936631,353.440277 99.7971903,351.972565 C103.195785,339.99152 112.665222,329.314104 125.289643,323.527555 C135.888955,318.717976 148.918398,317.004893 163,318.553894" id="Fill-56" fill="#CCCCCC"></path>
                <path d="M96.2707481,358 L95.2415394,355.787602 C96.300842,354.89553 94.8533291,352.032601 95.0203498,350.304767 C96.1473635,338.669301 96.7492399,323.563349 91.3985582,309.971845 C89.3100468,304.669795 86.3051786,299.594468 83.3966105,294.685107 C81.5398216,291.545073 79.6168263,288.2939 77.9165253,284.97308 C72.3371305,274.059274 70.692503,264.313164 73.0307931,256 L77.0979733,257.112867 C75.0470793,264.396147 76.5908924,273.14201 81.6857767,283.105952 C83.3243854,286.315633 85.2142775,289.503087 87.0409725,292.592739 C90.0322986,297.639911 93.1214295,302.860459 95.3318209,308.472215 C101.004507,322.877254 100.389088,338.608545 99.2199428,350.701902 C98.9746782,353.238824 98.5247755,356.103235 96.2707481,358" id="Fill-57" fill="#CCCCCC"></path>
                <path d="M142.049219,321.108496 C140.661981,308.00311 168.948482,300.588649 182.728087,314.410943 C196.5047,328.236194 201.751365,344.22104 195.192285,342.92617 C188.631708,341.629821 144.018589,339.686038 142.049219,321.108496" id="Fill-58" fill="#BADC00"></path>
                <path d="M109.28163,294.169738 C102.729623,284.014728 122.593716,266.414304 139.487925,272.108032 C156.382134,277.803253 167.255741,288.740105 161.3998,290.354522 C155.54386,291.968939 118.568505,308.566694 109.28163,294.169738" id="Fill-59" fill="#BADC00"></path>
                <path d="M75.9542764,321.285608 C87.7380524,308.144944 63.2818539,278.120731 37.6702676,282.416859 C12.060155,286.712987 -6.11804383,299.977579 1.92398543,303.668826 C9.96601468,307.360074 59.2512601,339.911508 75.9542764,321.285608" id="Fill-60" fill="#BADC00"></path>
                <path d="M77.7084113,268.945114 C88.4446734,267.802634 89.5904523,244.275556 76.181702,235.790892 C62.769964,227.307713 49.0743955,225.902269 51.2240381,230.843609 C53.3736806,235.786435 62.490615,270.565981 77.7084113,268.945114" id="Fill-61" fill="#BADC00"></path>
                <polygon id="Fill-62" fill="#FFCEBD" points="252 393 270 393 263.477085 388.324292 262.027047 384 252 384"></polygon>
                <path d="M250,386.750364 L250,395.068535 C250,396.617055 251.1889,397.873848 252.655609,397.873848 C252.655609,397.873848 272.306816,398.15769 277.553809,397.873848 C282.802295,397.590005 288,395.972101 288,395.972101 C287.392108,394.376274 286.138983,393.152596 284.585646,392.635371 L273.772031,389.032145 L262.680607,385 L262.590991,390.266861 L253.605534,390.266861 L250,386.750364 Z" id="Fill-63" fill="#9FB6BE"></path>
                <path d="M247.101628,291.784453 C247.101628,291.784453 252.9185,309.711217 256.213895,330.550395 C259.546003,351.61349 260.368383,375.634968 263,384 L251.385348,384 C251.385348,384 243.512526,358.873762 242.836999,339.910452 C242.718048,336.593207 241.603429,333.403492 239.678178,330.712031 C232.861234,321.174025 217.412234,298.636929 218.017271,291 L247.101628,291.784453 Z" id="Fill-64" fill="#4D5068"></path>
                <path d="M247.101628,291.784453 C247.101628,291.784453 252.9185,309.711217 256.213895,330.550395 C259.546003,351.61349 260.368383,375.634968 263,384 L251.385348,384 C251.385348,384 243.512526,358.873762 242.836999,339.910452 C242.718048,336.593207 241.603429,333.403492 239.678178,330.712031 C232.861234,321.174025 217.412234,298.636929 218.017271,291 L247.101628,291.784453 Z" id="Fill-65" fill="#444757"></path>
                <polygon id="Fill-66" fill="#FFCEBD" points="190 385.170318 205 393 202.011522 385.678524 202.964954 381.3535 194.829093 376"></polygon>
                <path d="M189.764198,381 L186.27442,387.592939 C185.590005,388.885161 186.237623,390.475811 187.641777,390.943734 C187.641777,390.943734 204.947901,396.705131 209.631358,398.294332 C214.314814,399.882085 219.581127,398.294332 219.581127,398.294332 C219.581127,398.294332 220.645282,397.41933 221,396.022803 L209.631358,390.781482 L202.539939,383.946613 L199.681588,387.113426 L192.840385,384.843346 L189.764198,381 Z" id="Fill-67" fill="#9FB6BE"></path>
                <path d="M202.828262,287 L201.781633,294.753198 C200.943729,300.965602 201.123923,307.271974 202.31621,313.426206 L206.49672,335.004798 C207.42322,339.782307 206.878132,344.726873 204.933534,349.192644 L191,378.836173 L202.277167,384 L221.594009,349.368649 C222.250217,348.194781 222.663163,346.901587 222.810322,345.566629 L229,288.771989 L202.828262,287 Z" id="Fill-68" fill="#4D5068"></path>
                <path d="M227.108515,241.918409 L209,242 L211.886209,195.365592 L218.17257,195.365592 L222.650339,195.365592 C223.964582,195.365592 225.384326,194.884947 226.638282,195.025877 C225.651093,195.570311 225.045215,196.66808 224.811605,197.792551 C224.546345,199.057952 224.597589,201.384036 224.663904,202.790366 C224.730219,204.196697 229,210.556339 229,211.852893 C229,213.386803 227.108515,240.3845 227.108515,241.918409" id="Fill-69" fill="#FFCEBD"></path>
                <path d="M211.181023,207 C210.327907,220.701094 209,242 209,242 L227.108373,241.919016 C227.108373,240.396508 229,213.599495 229,212.076988 C229,211.543963 228.267466,210.151031 227.406813,208.602019 C221.110935,211.473286 214.503052,208.803744 211.181023,207" id="Fill-70" fill="#FFFFFF"></path>
                <polygon id="Fill-71" fill="#91DDF8" points="171 295 294 295 294 242 171 242"></polygon>
                <path d="M222.215752,195.418631 L217.966697,195.418631 L212,195.418631 L214.488508,197.85965 C219.156604,197.956475 219.258147,199.588917 222.943712,199.915065 C223.298396,199.947341 223.691695,199.979616 224.105016,200 C224.132189,199.320524 224.180815,198.686912 224.266626,198.197689 C224.488303,196.910082 225.063234,195.653051 226,195.029631 C224.810093,194.868256 223.462866,195.418631 222.215752,195.418631" id="Fill-72" fill="#A58877"></path>
                <path d="M230.245696,196.051672 C229.012539,197.458466 226.224981,197.725503 224.396711,197.862752 C220.31382,198.17156 216.097695,197.862752 212,197.862752 L212,176 L231.937771,176 C231.808978,176 231.872635,178.307859 231.967379,180.84546 C232.0488,182.9743 233.967374,188.009222 233.999942,189.228046 C234.011785,189.618906 232.199799,189.899369 232.192397,190.03065 L230.245696,196.051672 Z" id="Fill-73" fill="#FFCEBD"></path>
                <path d="M233.465876,173.15441 C232.532142,171.950469 230.792001,168.728465 229.262556,168.831917 C227.733112,168.933869 226.15213,169.25472 224.696959,168.777942 C223.18722,168.281672 221.921525,166.953289 220.329933,167.001266 C218.174462,167.067236 215.298985,169.605558 213.163219,169.905418 C211.56708,170.128815 209.930013,169.14827 208.392989,169.634044 C202.144852,171.614625 205.549344,179.743852 204.899065,181.142703 C204.383692,182.255187 203.275641,183.090299 203.045239,184.292741 C202.614751,186.534201 205.390185,188.178937 205.716082,190.43539 C205.916168,191.81325 205.165846,193.135637 204.924834,194.506001 C204.718684,195.675458 208.238378,197.15677 209.258513,197.534595 L209.23426,197.530097 C210.242268,198.375705 211.880851,197.994881 212.808522,197.063813 C213.736193,196.131246 214.133333,194.817856 214.498641,193.55994 C214.806349,192.495434 215.118604,191.414435 215.107994,190.307949 C215.089804,188.231413 213.989332,185.955469 215.129215,184.211778 C215.90379,183.793473 216.870872,184.480154 217.201317,185.288279 C217.531762,186.097903 217.486288,187.010979 217.748521,187.844592 C218.012271,188.678205 218.805036,189.490828 219.659948,189.27193 C220.714947,189.002055 220.813474,187.57022 220.640672,186.505714 C220.467871,185.441208 226.144551,179.348036 227.345066,179.105149 C228.544066,178.862261 229.800666,178.917736 230.973897,178.571396 C233.235474,177.905705 234.899825,175.006051 233.465876,173.15441" id="Fill-74" fill="#545671"></path>
                <path d="M213.184584,198 L211.40602,198.919435 L210.297421,200.780695 C209.035602,202.903157 207.144376,204.586798 204.882115,205.598774 L202.989386,206.446565 C198.784825,208.328721 195.688862,212.033329 194.596787,216.485724 L191.17185,230.460841 C188.811948,240.082075 188.370311,250.068993 189.870975,259.858889 L193.417587,283 L203.069001,283 L203.681884,248.549536 C203.71343,246.733055 203.898196,244.922543 204.231677,243.137406 L204.458504,241.923931 L227,241.813479 C227,241.813479 224.769284,213.739359 219.876731,210.061618 L221.885126,208.534698 L217.416184,206.648065 C216.034192,206.064462 215.033749,204.834568 214.74984,203.368845 C214.640182,202.804646 214.529022,202.265821 214.38932,201.825507 L213.184584,198 Z" id="Fill-75" fill="#AEA9F4"></path>
                <path d="M226,203 L227.895198,203.931529 L234.813395,208.44131 C237.258346,210.036738 239.319916,212.167425 240.834628,214.697338 C244.617791,221.022862 251.395657,233.561533 250.981896,241.609645 L227.041636,242 C227.041636,242 225.542838,223.274795 227.918346,215.205983 C228.505713,213.208371 228.510053,211.089513 227.893752,209.100773 L226,203 Z" id="Fill-76" fill="#AEA9F4"></path>
                <path d="M229,241.500368 L229.207014,239.273901 C229.359018,237.936213 230.478054,236.946505 231.770808,237.002242 L232.248534,237.897047 L241.090799,237.740381 C242.321304,237.719291 243.237669,238.915377 242.945243,240.159667 L242.5399,241.876969 C242.332886,242.752191 241.578658,243.366804 240.714409,243.366804 L239.990583,243.366804 C240.000716,244.818978 238.871547,246 237.476009,246 L234.188389,246 C232.80009,246 231.676711,244.829523 231.676711,243.384881 L231.676711,241.278926 L229,241.500368 Z" id="Fill-77" fill="#FFCEBD"></path>
                <polygon id="Fill-78" fill="#EDF3FA" points="181 288 185 288 185 248 181 248"></polygon>
                <polygon id="Fill-79" fill="#EDF3FA" points="189 288 193 288 193 248 189 248"></polygon>
                <polygon id="Fill-80" fill="#E6E7E8" points="195 288 199 288 199 248 195 248"></polygon>
                <polygon id="Fill-81" fill="#EDF3FA" points="202 288 206 288 206 248 202 248"></polygon>
                <polygon id="Fill-82" fill="#EDF3FA" points="209 288 213 288 213 248 209 248"></polygon>
                <polygon id="Fill-83" fill="#EDF3FA" points="216 288 220 288 220 248 216 248"></polygon>
                <polygon id="Fill-84" fill="#EDF3FA" points="223 288 227 288 227 248 223 248"></polygon>
                <polygon id="Fill-85" fill="#EDF3FA" points="230 288 234 288 234 248 230 248"></polygon>
                <polygon id="Fill-86" fill="#EDF3FA" points="237 288 241 288 241 248 237 248"></polygon>
                <polygon id="Fill-87" fill="#EDF3FA" points="244 288 248 288 248 248 244 248"></polygon>
                <polygon id="Fill-88" fill="#EDF3FA" points="252 288 256 288 256 248 252 248"></polygon>
                <polygon id="Fill-89" fill="#FF3453" points="181 288 185 288 185 278 181 278"></polygon>
                <polygon id="Fill-90" fill="#FF3453" points="189 288 193 288 193 268 189 268"></polygon>
                <polygon id="Fill-91" fill="#FF3453" points="195 288 199 288 199 268 195 268"></polygon>
                <polygon id="Fill-92" fill="#FF3453" points="202 288 206 288 206 256 202 256"></polygon>
                <polygon id="Fill-93" fill="#FF3453" points="209 288 213 288 213 262 209 262"></polygon>
                <polygon id="Fill-94" fill="#FF3453" points="216 288 220 288 220 279 216 279"></polygon>
                <polygon id="Fill-95" fill="#FF3453" points="223 288 227 288 227 262 223 262"></polygon>
                <polygon id="Fill-96" fill="#FF3453" points="230 288 234 288 234 276 230 276"></polygon>
                <polygon id="Fill-97" fill="#FF3453" points="237 288 241 288 241 268 237 268"></polygon>
                <polygon id="Fill-98" fill="#FF3453" points="244 288 248 288 248 261 244 261"></polygon>
                <polygon id="Fill-99" fill="#FF3453" points="252 288 256 288 256 256 252 256"></polygon>
                <path d="M194.874911,283 L194,295.620035 C194.267018,296.973977 195.252714,298.050035 196.538095,298.392955 L196.874708,298.483119 L203.818606,298.991586 C205.010247,299.078794 206.152176,298.483119 206.799838,297.436623 L207.311149,296.607407 C207.761388,295.877225 208,295.028794 208,294.162627 L208,292.604707 C208,290.796988 207.2657,289.073521 205.974637,287.864434 L201.625647,283.780438 L201.625647,283 L194.874911,283 Z" id="Fill-100" fill="#FFCEBD"></path>
                <polygon id="Fill-101" fill="#A9B6FE" points="260 255 285 255 285 251 260 251"></polygon>
                <polygon id="Fill-102" fill="#DDE2FF" points="260 264 285 264 285 262 260 262"></polygon>
                <polygon id="Fill-103" fill="#DDE2FF" points="260 268 285 268 285 266 260 266"></polygon>
                <polygon id="Fill-104" fill="#DDE2FF" points="260 273 285 273 285 271 260 271"></polygon>
                <polygon id="Fill-105" fill="#DDE2FF" points="260 278 273 278 273 276 260 276"></polygon>
                <path d="M213,198 L211.235011,198.919435 L208.210379,204.043496 L202.882615,206.446565 C198.710144,208.328721 195.63781,212.033329 194.554071,216.485724 L191.155274,230.460841 C188.813383,240.082075 188.375117,250.068993 189.864327,259.858889 L193.383871,283 L202.961622,283 L203.569828,248.549536 C203.601133,246.733055 205.363141,236.426723 205.363141,236.426723 L213,198 Z" id="Fill-106" fill="#AEA9F4"></path>
                <path d="M539,345.97921 C539,347.125608 538.916899,348.270521 538.755149,349.416918 C537.567993,360.0998 530.532608,368.982897 520.919611,372.870551 C517.567379,374.261969 513.885711,375 509.999258,375 C498.834054,375 489.097889,368.654719 484.272099,359.36474 C483.985698,358.831635 483.740847,358.300015 483.494512,357.726817 C482.227223,354.942496 481.408085,351.91464 481.163234,348.763531 C481.040067,347.82206 481,346.920682 481,345.97921 C481,342.788008 481.531252,339.717087 482.513624,336.852578 C483.372828,334.149931 484.640118,331.653695 486.276909,329.362384 C487.053013,328.215986 487.953767,327.109683 488.974722,326.086538 C492.411539,322.40381 496.829244,319.619489 501.818268,318.187977 C502.84219,317.859798 503.863144,317.614778 504.927133,317.451431 C506.565409,317.163347 508.282333,317 509.999258,317 C513.394525,317 516.625074,317.573199 519.612255,318.678017 C525.706818,320.765887 530.900627,324.900046 534.33596,330.220697 C537.281591,334.764709 539,340.167034 539,345.97921" id="Fill-107" fill="#FF9800"></path>
                <path d="M533,345.5 C533,357.925881 522.925881,368 510.5,368 C498.074119,368 488,357.925881 488,345.5 C488,333.07264 498.074119,323 510.5,323 C522.925881,323 533,333.07264 533,345.5" id="Fill-108" fill="#F6F6F6"></path>
                <path d="M517.915347,349.969326 C517.582783,346.83316 515.457395,344.838895 510.875567,343.250869 C507.249105,341.906587 505.749543,341.052746 505.749543,339.667101 C505.749543,338.56804 506.54165,337.429093 508.957276,337.306482 L509.001114,337.306482 L509.415308,337.306482 C512.499085,337.306482 514.458191,338.282934 515.582863,338.732013 L516.790675,334.049183 C515.41658,333.356361 513.499801,332.786149 510.624632,332.665016 L510.624632,329 L506.458509,329 L506.458509,332.950122 C506.416183,332.950122 506.375368,332.950122 506.333042,332.990007 C505.749543,333.112617 505.20837,333.235228 504.708012,333.397723 C501.207017,334.619395 499.249423,337.183872 499.249423,340.359924 C499.249423,344.431178 502.333201,346.508168 506.916541,348.014946 C510.081948,349.03276 511.415228,350.050574 511.415228,351.638599 C511.415228,352.371307 511.081152,352.982881 510.500676,353.389121 C509.79171,353.919447 508.707853,354.204553 507.333758,354.204553 C504.582544,354.204553 502.041451,353.349235 500.248628,352.371307 L499.95839,353.471846 L499,357.257994 C500.582703,358.153198 503.374731,358.927268 506.248389,359.049878 L506.248389,363 L510.416024,363 L510.416024,358.764772 C511.291272,358.600799 512.08338,358.398418 512.833161,358.07195 C512.958628,358.032065 513.082584,357.990702 513.208052,357.909454 C516.332644,356.565172 518,353.959333 518,351.028502 C518,350.662148 518,350.295794 517.915347,349.969326" id="Fill-109" fill="#FF9800"></path>
                <path d="M314,300 L314,331.616148 L314.018086,331.632528 L336.595328,354 C342.382818,348.296823 345.969857,340.418101 345.995479,331.708471 C345.995479,331.677201 346,331.64593 346,331.616148 C346,314.155195 331.674454,300 314,300" id="Fill-110" fill="#FF3453"></path>
                <path d="M290.402986,308.33848 C284.605634,314.115714 281.016581,322.099896 281,330.923171 L313,331 L313,330.984936 L313,299 C304.178859,299 296.192802,302.568779 290.402986,308.33848" id="Fill-111" fill="#A4E3F9"></path>
                <path d="M312.668332,333.076721 L312.650443,333.076721 L281.002982,333 C281.002982,333.019556 281,333.039112 281,333.060173 C281,350.699887 295.171217,365 312.650443,365 C321.377385,365 329.27546,361.436254 335,355.673185 L312.668332,333.076721 Z" id="Fill-112" fill="#0096FF"></path>
                <path d="M369,343 C369,356.254355 358.255849,367 345.001493,367 C331.745645,367 321,356.254355 321,343 C321,329.745645 331.745645,319 345.001493,319 C358.255849,319 369,329.745645 369,343" id="Fill-113" fill="#FF9800"></path>
                <path d="M354.091426,356.713595 L345.916064,352.51254 C345.756861,352.430721 345.568176,352.433696 345.408974,352.51849 L337.347118,356.932276 C336.950585,357.149469 336.480346,356.813266 336.551103,356.364003 L337.982455,347.221055 C338.010463,347.04254 337.950025,346.86105 337.820304,346.736089 L331.169162,340.361613 C330.843386,340.049211 331.014381,339.492839 331.458086,339.421433 L340.519382,337.970998 C340.6948,337.942733 340.848106,337.829674 340.923286,337.664547 L344.876823,329.313016 C345.071405,328.902432 345.647778,328.893506 345.852678,329.299628 L350.018486,337.547025 C350.099562,337.707689 350.254342,337.817773 350.434182,337.841575 L359.527909,339.05399 C359.973087,339.113495 360.158824,339.665404 359.840418,339.986731 L353.35585,346.533772 C353.229077,346.661708 353.171587,346.843198 353.204017,347.021713 L354.872699,356.124495 C354.955249,356.572271 354.492381,356.920375 354.091426,356.713595" id="Fill-114" fill="#FFFFFF"></path>
            </g>
        </g>
    </g>
</svg>