<svg xmlns="http://www.w3.org/2000/svg" width="181" height="37" viewBox="0 0 181 37">
    <g fill="#FFF" fill-rule="evenodd">
        <path d="M176.16 10.02h-.9v-.345h2.187v.345h-.898v2.375h-.39V10.02M178.996 12.395l-.764-2.364v2.364h-.39v-2.72h.653l.706 2.261.706-2.26h.653v2.719h-.39v-2.364l-.764 2.364h-.41M18.289.651a3.731 3.731 0 0 0-3.73 3.904 3.743 3.743 0 0 0 3.73 3.552 3.731 3.731 0 0 0 3.734-3.728A3.731 3.731 0 0 0 18.289.65zm0 2.111c.893 0 1.62.725 1.62 1.617s-.727 1.618-1.62 1.618c-.027 0-.053 0-.08-.002a1.625 1.625 0 0 1-1.539-1.536c-.02-.45.138-.873.447-1.196.308-.323.724-.5 1.172-.5zM15.802 24.205h-4.077a6.215 6.215 0 0 0-6.22 6.209c0 3.43 2.786 6.21 6.22 6.21h4.077c3.436 0 6.22-2.78 6.22-6.21 0-3.429-2.784-6.21-6.22-6.21zm0 2.453a3.763 3.763 0 0 1 3.762 3.756 3.764 3.764 0 0 1-3.762 3.757h-4.077a3.764 3.764 0 0 1-3.762-3.757 3.763 3.763 0 0 1 3.762-3.756h4.077zM15.802 9.676H6.22c-3.435 0-6.22 2.78-6.22 6.209a6.216 6.216 0 0 0 6.22 6.21h9.582a6.216 6.216 0 0 0 6.22-6.21c0-3.43-2.784-6.21-6.22-6.21zm0 2.453a3.763 3.763 0 0 1 3.762 3.756 3.763 3.763 0 0 1-3.762 3.756H6.22a3.763 3.763 0 0 1-3.762-3.756 3.763 3.763 0 0 1 3.762-3.756h9.582zM55.326 36.624V9.676H70.53v2.66H58.03v9.334H69.25v2.623H58.029v9.67H70.53v2.661H55.326M100.071 36.624V9.676h15.206v2.66h-12.503v9.334h11.222v2.623h-11.222v9.67h12.503v2.661h-15.206M145.562 36.624v-11.17l-9.118-15.778h3.025l7.462 12.917 7.426-12.917h3.025l-9.118 15.777v11.171h-2.702M94.54 36.624V9.676h-2.702V31.7L78.47 9.676h-2.702v26.948h2.702V14.6l13.368 22.024h2.702M41.05 25.044h6.469v2.139c0 5.277-3.343 7.157-6.47 7.157-3.128 0-6.47-1.88-6.47-7.157v-8.065c0-5.277 3.343-7.158 6.472-7.158 3.425 0 5.812 2.103 6.354 5.524h2.715c-.627-4.987-4.134-8.184-9.07-8.184-5.487 0-9.173 3.937-9.173 9.796v8.108c0 5.86 3.686 9.796 9.172 9.796 5.486 0 9.172-3.937 9.172-9.796v-4.782h-9.17v2.622M121.286 28.475c.233 3.612 2.636 5.865 6.037 5.865 3.416 0 5.297-1.677 5.297-4.723 0-2.234-1.343-3.877-3.684-4.51l-4.557-1.24c-3.353-.902-5.354-3.616-5.354-7.26 0-4.37 3.122-7.307 7.772-7.307 5.32 0 7.658 3.696 8.171 7.397h-2.7c-.612-3.096-2.573-4.737-5.471-4.737-3.08 0-5.071 1.825-5.071 4.648 0 2.338 1.274 4.023 3.496 4.621l4.707 1.278c2.607.694 5.393 2.926 5.393 7.11 0 4.554-3.064 7.383-7.999 7.383-6.136 0-8.628-4.671-8.738-8.525h2.701M161.224 28.475c.233 3.612 2.636 5.865 6.038 5.865 3.415 0 5.296-1.677 5.296-4.723 0-2.234-1.343-3.877-3.683-4.51l-4.558-1.24c-3.353-.902-5.354-3.616-5.354-7.26 0-4.37 3.123-7.307 7.772-7.307 5.32 0 7.66 3.696 8.171 7.397h-2.7c-.612-3.096-2.572-4.737-5.471-4.737-3.08 0-5.071 1.825-5.071 4.648 0 2.338 1.275 4.023 3.496 4.621l4.708 1.278c2.606.694 5.393 2.926 5.393 7.11 0 4.554-3.065 7.383-7.999 7.383-6.137 0-8.628-4.671-8.739-8.525h2.701"/>
    </g>
</svg>
