<svg xmlns="http://www.w3.org/2000/svg" width="232" height="47" viewBox="0 0 232 47">
    <g fill="none" fill-rule="evenodd">
        <path fill="#484948" d="M225.796 12.728h-1.153v-.438h2.803v.438h-1.151v3.017h-.5v-3.017M229.431 15.745l-.978-3.003v3.003h-.5V12.29h.837l.904 2.872.905-2.872h.836v3.455h-.5v-3.003l-.978 3.003h-.526"/>
        <path fill="#DF502C" d="M23.442.827c-2.719 0-4.907 2.243-4.781 4.96.112 2.425 2.102 4.395 4.554 4.506.076.003.152.005.227.005 2.643 0 4.786-2.12 4.786-4.736 0-2.614-2.143-4.735-4.786-4.735zm0 2.682c1.144 0 2.077.921 2.077 2.053 0 1.134-.933 2.055-2.077 2.055-.034 0-.067 0-.102-.002-1.058-.048-1.924-.905-1.973-1.951a2.03 2.03 0 0 1 .572-1.52 2.07 2.07 0 0 1 1.503-.635zM20.255 30.747h-5.226c-4.402 0-7.972 3.531-7.972 7.887 0 4.357 3.57 7.888 7.972 7.888h5.226c4.403 0 7.973-3.531 7.973-7.888 0-4.356-3.57-7.887-7.973-7.887zm0 3.116c2.659 0 4.822 2.14 4.822 4.771 0 2.63-2.163 4.772-4.822 4.772h-5.226c-2.659 0-4.822-2.141-4.822-4.772 0-2.63 2.163-4.771 4.822-4.771h5.226zM20.255 12.291H7.973C3.57 12.291 0 15.821 0 20.178c0 4.356 3.57 7.889 7.973 7.889h12.282c4.403 0 7.973-3.533 7.973-7.889s-3.57-7.887-7.973-7.887zm0 3.116c2.659 0 4.822 2.14 4.822 4.771s-2.163 4.771-4.822 4.771H7.973c-2.66 0-4.822-2.14-4.822-4.77 0-2.632 2.163-4.772 4.822-4.772h12.282z"/>
        <path fill="#484948" d="M70.915 46.522V12.291h19.49v3.379H74.379v11.857h14.384v3.331H74.38v12.285h16.026v3.38h-19.49M128.268 46.522V12.291h19.49v3.379h-16.025v11.857h14.384v3.331h-14.384v12.285h16.026v3.38h-19.49M186.577 46.522v-14.19l-11.688-20.041h3.878l9.564 16.409 9.519-16.409h3.877L190.04 32.333v14.19h-3.463M121.178 46.522V12.291h-3.463v27.976L100.58 12.291h-3.464v34.231h3.464l-.001-27.976 17.135 27.976h3.463M52.618 31.812h8.29v2.718c0 6.703-4.285 9.091-8.293 9.091-4.009 0-8.293-2.388-8.293-9.091V24.285c0-6.704 4.285-9.093 8.296-9.093 4.39 0 7.45 2.672 8.144 7.017h3.48c-.803-6.335-5.299-10.396-11.626-10.396-7.032 0-11.757 5.001-11.757 12.444v10.3C40.859 41.999 45.584 47 52.615 47c7.032 0 11.757-5 11.757-12.443v-6.075H52.618v3.33M155.461 36.17c.298 4.589 3.378 7.451 7.738 7.451 4.378 0 6.789-2.13 6.789-6 0-2.837-1.722-4.924-4.722-5.728l-5.841-1.575c-4.298-1.146-6.863-4.594-6.863-9.222 0-5.552 4.003-9.283 9.962-9.283 6.818 0 9.817 4.695 10.474 9.397h-3.461c-.785-3.933-3.298-6.018-7.013-6.018-3.949 0-6.5 2.318-6.5 5.904 0 2.97 1.633 5.11 4.481 5.871l6.033 1.623c3.342.881 6.914 3.716 6.914 9.032 0 5.784-3.928 9.378-10.253 9.378-7.865 0-11.06-5.934-11.2-10.83h3.462M206.652 36.17c.299 4.589 3.379 7.451 7.74 7.451 4.376 0 6.787-2.13 6.787-6 0-2.837-1.721-4.924-4.72-5.728l-5.843-1.575c-4.297-1.146-6.863-4.594-6.863-9.222 0-5.552 4.004-9.283 9.962-9.283 6.819 0 9.818 4.695 10.474 9.397h-3.46c-.785-3.933-3.297-6.018-7.014-6.018-3.948 0-6.5 2.318-6.5 5.904 0 2.97 1.635 5.11 4.482 5.871l6.034 1.623c3.34.881 6.912 3.716 6.912 9.032 0 5.784-3.928 9.378-10.252 9.378-7.866 0-11.06-5.934-11.201-10.83h3.462"/>
    </g>
</svg>
