<svg xmlns="http://www.w3.org/2000/svg" width="100" height="100" viewBox="0 0 100 100">
    <g fill="none" fill-rule="evenodd">
        <circle cx="50" cy="50" r="50" fill="#FB5E49"/>
        <path fill="#FFF" fill-rule="nonzero" d="M66.368 36.06c-6.34 0-11.499 5.231-11.499 11.81 0 3.95 1.867 7.606 4.726 9.5H40.271c2.858-1.894 4.726-5.55 4.726-9.5 0-6.579-5.159-11.87-11.499-11.87C27.158 36 22 41.382 22 47.96c0 6.206 4.591 11.211 10.434 11.77.206.168.463.167.746.167h32.87c.263 0 .505.032.704-.116 6.16-.214 11.113-5.407 11.113-11.851 0-6.579-5.159-11.87-11.5-11.87zM24.435 47.99c0-5.185 4.066-9.404 9.064-9.404s9.064 4.219 9.064 9.404c0 5.186-4.066 9.405-9.064 9.405s-9.064-4.22-9.064-9.405zm41.933 9.405c-4.998 0-9.064-4.22-9.064-9.405s4.066-9.404 9.064-9.404 9.064 4.219 9.064 9.404c0 5.186-4.066 9.405-9.064 9.405z"/>
    </g>
</svg>
