<svg xmlns="http://www.w3.org/2000/svg" xmlns:xlink="http://www.w3.org/1999/xlink" width="1169" height="383" viewBox="0 0 1169 383">
    <defs>
        <path id="a" d="M0 404h1168.963V.64H0z"/>
        <path id="c" d="M.768.775c0 2.538 2.356 4.596 5.262 4.596 2.908 0 5.263-2.058 5.263-4.596H.768z"/>
        <path id="e" d="M.768.775c0 2.538 2.356 4.596 5.262 4.596 2.908 0 5.263-2.058 5.263-4.596"/>
        <path id="g" d="M.768.775c0 2.538 2.356 4.596 5.262 4.596 2.908 0 5.263-2.058 5.263-4.596"/>
        <path id="i" d="M.768.775c0 2.538 2.356 4.596 5.262 4.596 2.908 0 5.263-2.058 5.263-4.596"/>
        <path id="k" d="M.768.775c0 2.538 2.356 4.596 5.262 4.596 2.908 0 5.263-2.058 5.263-4.596"/>
        <path id="m" d="M.768.775c0 2.538 2.356 4.596 5.262 4.596 2.908 0 5.263-2.058 5.263-4.596"/>
        <path id="o" d="M.768.775c0 2.538 2.356 4.596 5.262 4.596 2.908 0 5.263-2.058 5.263-4.596"/>
        <path id="q" d="M.768.775c0 2.538 2.356 4.596 5.262 4.596 2.908 0 5.263-2.058 5.263-4.596"/>
        <path id="s" d="M.768.775c0 2.538 2.356 4.596 5.262 4.596 2.908 0 5.263-2.058 5.263-4.596"/>
        <path id="u" d="M0 404h1168.963V.64H0z"/>
        <path id="w" d="M1 13.396c0 7.023 5.482 12.717 12.244 12.717 6.765 0 12.247-5.694 12.247-12.717C25.491 6.372 20.01.68 13.244.68 6.482.68 1 6.372 1 13.396"/>
        <path id="y" d="M9.053 2.152C4.435 2.152.03.542.03.542c0 4.94 4.397 6.62 9.482 6.62 5.086 0 8.93-1.68 8.93-6.62 0 0-3.497 1.61-9.39 1.61"/>
        <path id="A" d="M9.053 2.152C4.435 2.152.03.542.03.542c0 4.94 4.397 6.62 9.482 6.62 5.086 0 8.93-1.68 8.93-6.62 0 0-3.497 1.61-9.39 1.61"/>
        <path id="C" d="M6.639.446c-.406.654-3.315 4.271-3.645 5.22-.328.95-.99 3.134-1.328 5.637-.115.842-.423 2.422-.773 4.32l4.696 1.651c.044-2.16.077-3.924.094-4.868.326-.373.504-.849.518-1.346.968-1.136 1.846-1.93 2.237-2.415.51-.64 1.046-7.712.749-8.136C9.014.263 8.323.061 7.693.061c-.459 0-.885.107-1.054.384"/>
        <path id="E" d="M.589 112.015c0 61.592 49.708 111.524 111.026 111.524S222.64 173.607 222.64 112.015C222.641 50.422 172.933.491 111.615.491S.589 50.42.589 112.015zm40.567 0c0-39.09 31.545-70.775 70.459-70.775 38.913 0 70.459 31.686 70.459 70.775 0 39.088-31.546 70.775-70.46 70.775-38.913 0-70.458-31.687-70.458-70.775z"/>
        <path id="G" d="M.589 112.015c0 61.592 49.708 111.524 111.026 111.524S222.64 173.607 222.64 112.015C222.641 50.422 172.933.491 111.615.491S.589 50.42.589 112.015zm40.567 0c0-39.09 31.545-70.775 70.459-70.775 38.913 0 70.459 31.686 70.459 70.775 0 39.088-31.546 70.775-70.46 70.775-38.913 0-70.458-31.687-70.458-70.775z"/>
        <path id="I" d="M0 147h381V.565H0z"/>
    </defs>
    <g fill="none" fill-rule="evenodd">
        <path fill="#0096FF" d="M1081 194h88v-63h-88z"/>
        <g transform="translate(0 -21)">
            <path fill="#E9E9E9" d="M316.774 123.503c-8.592.223-15.738-6.572-15.961-15.176-.222-8.604 6.564-15.76 15.157-15.982 8.592-.223 15.737 6.572 15.959 15.176.223 8.604-6.563 15.76-15.155 15.982m45.744-27.99l-6.687.173c-1.514.04-2.866-.887-3.434-2.294-.344-.86-.719-1.704-1.121-2.532-.665-1.362-.447-2.99.596-4.09l4.604-4.855a3.59 3.59 0 0 0-.13-5.071L345.3 66.342a3.58 3.58 0 0 0-5.063.132l-4.606 4.856c-1.042 1.099-2.653 1.401-4.047.808a38.098 38.098 0 0 0-2.583-.993c-1.432-.493-2.426-1.798-2.466-3.314l-.173-6.696a3.585 3.585 0 0 0-3.672-3.493l-15.225.395a3.586 3.586 0 0 0-3.49 3.679l.175 6.695c.039 1.515-.888 2.871-2.292 3.437-.86.345-1.701.721-2.528 1.124-1.36.666-2.986.448-4.085-.596l-4.85-4.612a3.578 3.578 0 0 0-5.062.132l-10.487 11.059a3.59 3.59 0 0 0 .13 5.07l4.85 4.611c1.098 1.045 1.4 2.658.806 4.055-.36.847-.69 1.708-.99 2.584-.492 1.435-1.796 2.431-3.31 2.47l-6.686.174a3.584 3.584 0 0 0-3.488 3.677l.394 15.246a3.582 3.582 0 0 0 3.672 3.493l6.687-.173c1.514-.04 2.867.889 3.432 2.295.346.86.72 1.703 1.124 2.53.664 1.364.447 2.99-.596 4.092l-4.605 4.855a3.591 3.591 0 0 0 .131 5.07l11.044 10.502a3.577 3.577 0 0 0 5.063-.132l4.604-4.854c1.044-1.1 2.656-1.403 4.05-.81.845.362 1.706.692 2.581.993 1.433.493 2.428 1.798 2.466 3.314l.173 6.696a3.585 3.585 0 0 0 3.674 3.493l15.225-.395a3.584 3.584 0 0 0 3.488-3.677l-.173-6.696c-.04-1.516.886-2.871 2.291-3.438.858-.345 1.702-.72 2.528-1.124 1.36-.665 2.986-.447 4.086.597l4.848 4.611a3.578 3.578 0 0 0 5.064-.132l10.487-11.058a3.59 3.59 0 0 0-.131-5.07l-4.85-4.612c-1.098-1.044-1.4-2.658-.807-4.054.361-.847.69-1.71.992-2.585.49-1.435 1.794-2.431 3.309-2.47l6.687-.174a3.585 3.585 0 0 0 3.488-3.677l-.394-15.246a3.586 3.586 0 0 0-3.673-3.493"/>
            <path fill="#D6D6D6" d="M316.893 128.147c-11.152.288-20.428-8.532-20.716-19.7-.29-11.168 8.52-20.457 19.672-20.745 11.154-.289 20.428 8.53 20.717 19.699.288 11.168-8.519 20.457-19.673 20.746m-1.445-55.996c-19.73.511-35.311 16.942-34.8 36.698.51 19.757 16.917 35.36 36.648 34.848 19.73-.51 35.31-16.941 34.8-36.698-.51-19.757-16.92-35.36-36.648-34.848"/>
            <path fill="#91DDF8" d="M207.656 299.625c-12.833 5.303-27.528-.817-32.823-13.668-5.294-12.85.816-27.565 13.649-32.867 12.833-5.302 27.529.817 32.823 13.667 5.296 12.85-.816 27.566-13.649 32.868m52.868-68.66l-9.986 4.126c-2.262.934-4.838.318-6.5-1.477a61.93 61.93 0 0 0-3.154-3.17c-1.789-1.671-2.397-4.252-1.457-6.515l4.146-9.985a5.796 5.796 0 0 0-3.12-7.574l-22.713-9.457a5.782 5.782 0 0 0-7.562 3.125l-4.147 9.986c-.94 2.262-3.197 3.648-5.642 3.558a62.64 62.64 0 0 0-4.466-.004c-2.444.085-4.698-1.31-5.63-3.574l-4.121-10a5.78 5.78 0 0 0-7.553-3.145l-22.74 9.394a5.797 5.797 0 0 0-3.14 7.565l4.12 10c.933 2.263.318 4.843-1.476 6.51a62.834 62.834 0 0 0-3.164 3.157c-1.67 1.79-4.247 2.4-6.506 1.46l-9.972-4.153a5.781 5.781 0 0 0-7.562 3.124l-9.446 22.743a5.798 5.798 0 0 0 3.12 7.573l9.973 4.154c2.26.94 3.645 3.2 3.554 5.647a62.899 62.899 0 0 0-.005 4.473c.086 2.449-1.307 4.704-3.568 5.639l-9.986 4.125a5.797 5.797 0 0 0-3.141 7.566l9.38 22.768a5.783 5.783 0 0 0 7.555 3.146l9.986-4.125c2.262-.935 4.837-.319 6.501 1.478a62.333 62.333 0 0 0 3.153 3.167c1.788 1.672 2.397 4.253 1.458 6.516l-4.147 9.986a5.796 5.796 0 0 0 3.12 7.573l22.712 9.457a5.781 5.781 0 0 0 7.563-3.125l4.146-9.986c.94-2.26 3.198-3.65 5.643-3.558a62.61 62.61 0 0 0 4.465.003c2.445-.084 4.699 1.31 5.631 3.575l4.12 10a5.783 5.783 0 0 0 7.555 3.145l22.737-9.395a5.796 5.796 0 0 0 3.143-7.564l-4.12-10c-.934-2.264-.318-4.844 1.475-6.51a61.86 61.86 0 0 0 3.163-3.156c1.67-1.79 4.248-2.401 6.507-1.46l9.972 4.151a5.78 5.78 0 0 0 7.562-3.123l9.445-22.744a5.795 5.795 0 0 0-3.12-7.572l-9.973-4.153c-2.258-.94-3.644-3.2-3.554-5.65a61.56 61.56 0 0 0 .005-4.472c-.085-2.449 1.308-4.704 3.57-5.638l9.986-4.126a5.794 5.794 0 0 0 3.14-7.563l-9.381-22.77a5.781 5.781 0 0 0-7.554-3.145"/>
            <path fill="#6AD1F6" d="M210.513 306.56c-16.657 6.882-35.732-1.061-42.604-17.742-6.874-16.679 1.06-35.78 17.716-42.663 16.658-6.882 35.733 1.062 42.605 17.741 6.873 16.68-1.06 35.782-17.717 42.664m-34.458-83.63c-29.465 12.175-43.499 45.964-31.34 75.471 12.158 29.507 45.901 43.558 75.368 31.384 29.467-12.175 43.499-45.963 31.341-75.472-12.158-29.507-45.901-43.558-75.369-31.382"/>
            <path fill="#444" d="M217.472 365.24c-10.948 0-19.856-8.92-19.856-19.885V112.241c0-10.963 8.908-19.883 19.856-19.883h96.526c10.95 0 19.856 8.92 19.856 19.883v233.114c0 10.965-8.907 19.885-19.856 19.885h-96.526z"/>
            <path fill="#333" d="M313.998 361.77h-96.526c-9.052 0-16.39-7.349-16.39-16.415V112.242c0-9.065 7.338-16.414 16.39-16.414h96.526c9.052 0 16.39 7.35 16.39 16.414v233.113c0 9.066-7.338 16.414-16.39 16.414"/>
            <path stroke="#282723" stroke-width=".273" d="M313.998 361.77h-96.526c-9.052 0-16.39-7.349-16.39-16.415V112.242c0-9.065 7.338-16.414 16.39-16.414h96.526c9.052 0 16.39 7.35 16.39 16.414v233.113c0 9.066-7.338 16.414-16.39 16.414z"/>
            <path fill="#FFF" d="M298.947 103.258c0 4.113-3.33 7.449-7.438 7.449h-51.548c-4.107 0-7.437-3.336-7.437-7.45a1.96 1.96 0 0 0-1.959-1.96h-13c-5.919 0-10.719 4.806-10.719 10.735v233.535c0 5.928 4.8 10.733 10.72 10.733h96.34c5.92 0 10.718-4.805 10.718-10.733V112.032c0-5.929-4.798-10.735-10.719-10.735h-13a1.96 1.96 0 0 0-1.958 1.96"/>
            <mask id="b" fill="#fff">
                <use xlink:href="#a"/>
            </mask>
            <path fill="#282723" d="M197.616 113.284h3.466v-1.042h-3.466zM197.616 345.355h3.466v-1.042h-3.466zM330.387 113.284h3.467v-1.042h-3.467zM330.387 345.355h3.467v-1.042h-3.467zM274.742 104.772H256.73a1.302 1.302 0 1 1 0-2.606h18.012c.718 0 1.3.583 1.3 1.303s-.582 1.303-1.3 1.303M283.798 103.469a1.302 1.302 0 1 1-2.605.001 1.302 1.302 0 0 1 2.605-.001" mask="url(#b)"/>
            <path fill="#CCC" d="M838.387 328.69h225.343V169.45c0-4.364-3.533-7.904-7.893-7.904H846.282c-4.361 0-7.895 3.54-7.895 7.904v159.24z" mask="url(#b)"/>
            <path fill="#333" d="M846.353 298.309h209.013V169.733H846.353z" mask="url(#b)"/>
            <path fill="#0DF" d="M828.042 164.216l-61.89-1.001.116-.55c1.077-5.089 5.636-8.721 10.838-8.637a10.78 10.78 0 0 1 2.228.269c3.323-6.084 9.648-9.78 16.595-9.667a18.615 18.615 0 0 1 14.875 7.87c1.28-.367 2.61-.543 3.955-.52 6.733.108 12.289 5.028 13.209 11.701l.074.535z" mask="url(#b)"/>
            <path fill="#FFE300" d="M1019.65 104.795l-.18-.092c-18.866-9.646-16.332-28.326-16.306-28.514l.051-.34h.342c11.996 0 15.766-3.871 15.803-3.91l.292-.31.291.312c.036.037 3.805 3.908 15.802 3.908h.342l.05.34c.027.188 2.56 18.868-16.307 28.514l-.18.092z" mask="url(#b)"/>
            <path fill="#0096FF" d="M839.405 277.985h21.06v-2.387h-21.06z" mask="url(#b)"/>
            <path fill="#333" d="M835.01 209.72H801.4v-43.043h.793v42.247h32.817zM977.275 181.359h-.794v-44.384h42.772V99.65h.794v38.122h-42.772zM1115.453 230.799h-44.503v-.796h43.708v-25.877h.795z" mask="url(#b)"/>
            <path fill="#0096FF" d="M782.735 266.76s-.954 13.39 1.658 14.991c1.636 1.005 8.163 4.39 7.97 5.026-.194.635-3.686 5.648-3.686 5.648s-12.535-8.265-12.938-10.869c-.395-2.545.617-19.604 2.34-20.391 1.29-.589 1.971-.102 3.599 1.107 2.28 1.696 1.057 4.487 1.057 4.487" mask="url(#b)"/>
            <path fill="#424773" d="M781.277 364.2s-.39 2.709-.438 3.115c-.049.408-4.337-.239-4.337-.239l-.347-3.226s4.586-.032 5.122.35" mask="url(#b)"/>
            <path fill="#292C47" d="M780.884 366.97s1.358 1.634 2.672 2.345c1.314.71 3.377.994 4.157 1.73.559.532 2.041 2.821-3.416 2.775-5.456-.046-8.087.323-8.672-.554-.584-.879.846-6.478.846-6.478s1.293.464 4.413.182" mask="url(#b)"/>
            <path fill="#424773" d="M802.734 364.2s-.391 2.709-.44 3.115c-.049.408-4.336-.239-4.336-.239l-.346-3.226s4.586-.032 5.122.35" mask="url(#b)"/>
            <path fill="#292C47" d="M802.34 366.97s1.36 1.634 2.672 2.345c1.315.71 6.148 1.296 6.926 2.034.562.53 1.493 2.67-6.183 2.47-5.456-.141-8.088.324-8.673-.553-.584-.879.846-6.478.846-6.478s1.218.496 4.413.182" mask="url(#b)"/>
            <path fill="#545671" d="M782.815 294.585s-4.028 6.41-3.727 12.202c.298 5.795-.36 11.983-.965 18.035-.674 6.746-2.513 20.787-2.613 24.395-.1 3.611.131 17.191.131 17.191l6.988-.053s2.48-27.434 3.683-30.284c1.201-2.848 6.136-23.46 6.336-25.738.2-2.28-9.833-15.748-9.833-15.748" mask="url(#b)"/>
            <path fill="#545671" d="M804.022 295.454s1.591 15.75 1.991 19.297c.4 3.544.127 18.909.327 21.125.201 2.215-1.339 25.655-1.718 30.119l-7.68-.048s-.53-18.96-.53-28.174c0-9.213-2.36-19.937-5.066-26.016-2.705-6.08-8.896-6.222-10.558-17.5 0 0 20.982-2.38 23.234 1.197" mask="url(#b)"/>
            <path fill="#EEA886" d="M787.07 240.548s4.8-3.21 8.171.228c3.37 3.44 5.027 11.527 2.608 13.14-2.422 1.613-6.527 2.038-8.477-.153-1.948-2.188-4.03-5.53-4.54-7.968-.514-2.439 1.02-4.22 2.239-5.247" mask="url(#b)"/>
            <path fill="#EEA886" d="M796.216 254.461s-.063 3.379.309 4.098c.373.72-7.005.739-7.005.739s-.598-3.917-1.734-7.226c-1.136-3.31 8.43 2.39 8.43 2.39" mask="url(#b)"/>
            <path fill="#754836" d="M787.97 252.018s.688.7 2.637-.094c1.949-.795 3.78-4.072 4.555-4.566.777-.497.666-.994.666-.994l.713.647.91-.155s-1.386-2.218-.382-3.492c1.003-1.275-3.118-7.502-9.072-3.7 0 0-4.66 2.552-3.81 5.347.85 2.796 2.336 5.857 3.783 7.007" mask="url(#b)"/>
            <path fill="#E2D2CA" d="M796.962 258.473s-.023-1.376-.646-1.508c-.623-.132-6.874-.733-7.638-.433v1.603s1.473.907 8.284.338" mask="url(#b)"/>
            <path fill="#EEA886" d="M795.453 245.362c-.225-.45-1.755-1.524-1.876.04-.118 1.568 1.505 3.252 2.113 2.931.608-.32.335-1.833-.237-2.97" mask="url(#b)"/>
            <path fill="#754836" d="M785.683 241.375s-6.864 1.844 2.01 10.376l-2.01-10.376z" mask="url(#b)"/>
            <path fill="#EEA886" d="M847.014 277.922l-6.995-.065c.603-.351 1.58-.984 1.363-1.272-.308-.411-2.288.491-3.093.573-.739.075-1.976-.02-2.916.324l-2.209.944 2.025 1.875s3.66.527 4.73.6c1.74.124 7.07-1.952 7.158-2.269.16-.568-.063-.71-.063-.71" mask="url(#b)"/>
            <path fill="#0096FF" d="M806.095 260.38c-4.45-.784-9.133-1.906-9.133-1.906l-8.284-.34s-7.605 1.676-10.6 3.031c-.284.129-.284 6.793-1.065 8.541l2.483 5.245s1.435 10.391 1.733 15.01c.136 2.123-2.96 19.893-2.96 19.893s3.317.977 8.974 1.601c5.652.625 19.782-.225 19.871-.893.089-.668-2.736-24.904-2.862-26.16-.193-1.924.556-10.825.556-10.825 1.066 1.433 7.225 6.808 10.232 8.517 2.14 1.214 7.387.472 8.932.315 3.346-.344 12.587-1.004 12.767-1.334.144-.197-.532-3.572-.918-3.7-.339-.114-12.267-.704-15.26-.55-1.214.065-5.174-4.364-5.174-4.364s-6.838-10.977-9.292-12.082" mask="url(#b)"/>
            <path fill="#FFCB55" d="M755.14 226.842h21.9v19.242l-3.342-3.346h-18.557z" mask="url(#b)"/>
            <path fill="#F6F6F6" d="M1087.245 175.545h19.86v-19.886h-19.86v19.886zm-.71.711h21.28v-21.307h-21.28v21.307zM1112.778 162.051h47.285v-3.788h-47.285v3.788zm-.708.71h48.702v-5.208h-48.702v5.208zM1087.245 186.273h72.817v-3.789h-72.817v3.789zm-.708.71h74.235v-5.208h-74.235v5.208zM1087.245 196.275h45.865v-3.787h-45.865v3.787zm-.71.71h47.286v-5.21h-47.286v5.21zM1112.778 171.986h31.562v-3.788h-31.562v3.788zm-.708.711h32.98v-5.209h-32.98v5.21z" mask="url(#b)"/>
            <path fill="#333" d="M801.797 162.026a2.128 2.128 0 0 0 0 4.254 2.127 2.127 0 0 0 0-4.254m0 5.05a2.923 2.923 0 0 1 0-5.845 2.923 2.923 0 0 1 0 5.845M1019.65 94.999a2.128 2.128 0 0 0 0 4.254 2.127 2.127 0 0 0 0-4.254m0 5.05a2.923 2.923 0 0 1 0-5.846 2.924 2.924 0 0 1 2.92 2.923 2.924 2.924 0 0 1-2.92 2.923M1115.056 199.611a2.129 2.129 0 0 0-2.125 2.128 2.13 2.13 0 0 0 2.125 2.127 2.128 2.128 0 0 0 0-4.255m0 5.05a2.923 2.923 0 0 1 0-5.845 2.922 2.922 0 0 1 0 5.845" mask="url(#b)"/>
            <path fill="#CCC" d="M873.323 127.053a2.342 2.342 0 0 1-1.924.99c-.486 0-.957-.149-1.36-.436a2.364 2.364 0 0 1-.554-3.289 2.358 2.358 0 0 1 3.284-.554c.513.365.853.908.957 1.53a2.35 2.35 0 0 1-.403 1.759m2.294-.812l.778-.298-.359-2.139-.833-.026a4.283 4.283 0 0 0-.427-.682l.34-.763-1.765-1.257-.608.571a4.22 4.22 0 0 0-.784-.18l-.297-.78-2.136.36-.026.836c-.24.12-.47.263-.682.427l-.76-.34-1.257 1.765.57.61a4.235 4.235 0 0 0-.18.785l-.778.298.359 2.138.833.027c.122.241.264.47.428.683l-.34.762 1.763 1.257.61-.571c.254.085.515.145.783.18l.297.78 2.136-.36.027-.835c.24-.12.47-.264.681-.428l.76.342 1.257-1.769-.57-.607c.084-.255.144-.518.18-.786M859.199 124.959a5.135 5.135 0 0 1-4.197 2.162c-1.03 0-2.07-.31-2.974-.953a5.16 5.16 0 0 1-1.208-7.18 5.144 5.144 0 0 1 7.17-1.209 5.159 5.159 0 0 1 1.209 7.18m5.26-1.912l1.74-.665-.752-4.464-1.859-.06a9.57 9.57 0 0 0-1.138-1.818l.759-1.7-3.683-2.626-1.357 1.276a9.425 9.425 0 0 0-2.086-.48l-.666-1.74-4.458.752-.059 1.863a9.462 9.462 0 0 0-1.815 1.137l-1.7-.759-2.62 3.688 1.272 1.358a9.462 9.462 0 0 0-.478 2.091l-1.739.666.752 4.465 1.86.058a9.41 9.41 0 0 0 1.136 1.819l-.759 1.7 3.684 2.625 1.356-1.274a9.478 9.478 0 0 0 2.089.479l.665 1.74 4.457-.751.06-1.863a9.517 9.517 0 0 0 1.816-1.138l1.697.76 2.622-3.69-1.274-1.357a9.462 9.462 0 0 0 .479-2.092M1063.721 304.557H838.466l-24.651 92.26h274.556z" mask="url(#b)"/>
            <path fill="#FFF" d="M846.988 320.744h13.84c.578 0 1.014.45.906.936l-1.341 6.028c-.082.371-.463.64-.906.64h-14.076c-.591 0-1.031-.467-.901-.96l1.577-6.028c.093-.36.468-.616.901-.616M867.174 320.744h10.46l-1.39 7.604h-10.662zM882.867 320.744h10.462l-1.093 7.604-10.664.012zM898.56 320.744h10.464l-.796 7.604h-10.662zM914.255 320.744h10.462l-.497 7.604H913.56zM929.948 320.744h10.464l-.199 7.604-10.663.012zM1055.535 320.744h-15.694l1.692 7.604h15.992zM1034.61 320.744h-10.462l1.392 7.604h10.662zM1018.917 320.744h-10.464l1.093 7.604 10.664.012zM1003.222 320.744h-10.463l.795 7.604h10.663zM987.528 320.744h-10.462l.496 7.604h10.662zM971.834 320.744h-10.463l.2 7.604 10.662.012zM945.643 320.744h10.463l.173 7.604h-10.636zM842.384 334.015h21.863l-1.246 7.845h-22.277zM1058.948 334.015h-27.024l1.54 7.845H1061zM1026.518 334.015h-10.809l1.231 7.845h11.016zM1010.304 334.015h-10.81l.924 7.845h11.014zM994.09 334.015h-10.81l.615 7.845h11.016zM977.875 334.015h-10.81l.309 7.845h11.014zM839.118 348h22.351l-1.63 7.793h-22.76zM867.057 348h11.175l-1.324 7.793h-11.38zM883.82 348H967.632l.312 7.793h-85.346zM973.226 348H984.4l.612 7.793h-11.38zM989.988 348h11.176l.917 7.793h-11.38zM1006.752 348h11.175l1.224 7.793h-11.38zM1023.516 348h11.174l1.53 7.793h-11.38zM1040.279 348h22.35l2.039 7.793h-22.758zM961.683 334.015H950.96v7.845h10.928zM945.47 334.015h-10.81l-.31 7.845h11.016zM929.254 334.015h-10.81l-.615 7.845h11.016zM913.04 334.015h-10.81l-.924 7.845h11.015zM896.825 334.015h-10.81l-1.231 7.845h11.014zM880.61 334.015H869.8l-1.539 7.845h11.016zM847.5 315.964l1.774-6.79h5.08l-1.657 6.79zM859.435 309.174h10.159l-1.422 6.79h-10.337zM874.675 309.174h10.158l-1.153 6.79h-10.338zM889.915 309.174h10.16l-.89 6.79H888.85zM905.154 309.174h10.159l-.622 6.79h-10.336zM920.395 309.174h10.158l-.353 6.79h-10.34zM935.634 309.174h10.16l-.09 6.79h-10.336zM950.873 309.174h10.161l.177 6.79h-10.338zM966.114 309.174h10.16l.444 6.79H966.38zM981.353 309.174h10.16l.711 6.79h-10.337zM996.593 309.174h10.16l.977 6.79h-10.338zM1011.834 309.174h10.16l1.243 6.79H1012.9zM1027.073 309.174h10.159l1.511 6.79h-10.337zM1042.314 309.174h10.159l1.776 6.79h-10.337z" mask="url(#b)"/>
            <path fill="#BBB" d="M1081.198 404h-260.21c-3.962 0-7.173-3.216-7.173-7.183h274.556c0 3.967-3.211 7.183-7.173 7.183M983.01 367.004a3.36 3.36 0 0 0-3.315-2.815h-57.204a3.358 3.358 0 0 0-3.313 2.815l-3.575 21.656a3.361 3.361 0 0 0 3.313 3.91h64.354a3.363 3.363 0 0 0 3.315-3.91l-3.575-21.656z" mask="url(#b)"/>
            <path fill="#F6F6F6" d="M860.465 183.03h23.284v-2.388h-23.284zM890.267 201.006h16.811v-2.386h-16.811z" mask="url(#b)"/>
            <path fill="#0096FF" d="M909.696 201.006h11.157v-2.386h-11.157zM860.729 246.214h11.156v-2.387h-11.156z" mask="url(#b)"/>
            <path fill="#F6F6F6" d="M923.058 201.006h26.934v-2.386h-26.934zM860.729 237.16h17.308v-2.389h-17.308zM884.856 255.202h10.566v-2.387h-10.566z" mask="url(#b)"/>
            <path fill="#0096FF" d="M860.73 255.202h20.933v-2.387H860.73z" mask="url(#b)"/>
            <path fill="#F6F6F6" d="M860.729 264.19h11.546v-2.386H860.73z" mask="url(#b)"/>
            <path fill="#0DF" d="M888.28 183.03h16.53v-2.388h-16.53z" mask="url(#b)"/>
            <path fill="#0096FF" d="M888.28 209.996h16.53v-2.388h-16.53z" mask="url(#b)"/>
            <path fill="#F6F6F6" d="M880.015 218.983h7.062v-2.387h-7.062z" mask="url(#b)"/>
            <path fill="#0DF" d="M872.952 228.104h15.865v-2.387h-15.865z" mask="url(#b)"/>
            <path fill="#0096FF" d="M891.213 228.104h21.9v-2.387h-21.9zM860.73 219.05h16.53v-2.387h-16.53zM860.729 228.104h9.808v-2.387h-9.808z" mask="url(#b)"/>
            <path fill="#FF4B00" d="M890.408 219.05h9.252v-2.387h-9.252zM861.007 273.179h9.252v-2.387h-9.252z" mask="url(#b)"/>
            <path fill="#0DF" d="M860.663 201.006h16.53v-2.386h-16.53zM875.282 246.214h16.53v-2.387h-16.53zM875.485 264.19h16.53v-2.386h-16.53zM904.849 264.19h16.528v-2.386H904.85zM860.663 209.996h23.563v-2.388h-23.563zM971.08 183.03h16.53v-2.388h-16.53zM912.195 273.179h16.53v-2.387h-16.53zM992.752 183.03h11.066v-2.388h-11.066zM1030.187 192.018h11.067v-2.386h-11.067z" mask="url(#b)"/>
            <path fill="#0096FF" d="M909.259 183.03h21.061v-2.388H909.26zM991.312 192.018h21.06v-2.386h-21.06z" mask="url(#b)"/>
            <path fill="#1487E3" d="M965.485 201.006h21.06v-2.386h-21.06z" mask="url(#b)"/>
            <path fill="#0096FF" d="M938.066 209.996h21.06v-2.388h-21.06z" mask="url(#b)"/>
            <path fill="#0DF" d="M989.195 201.006h14.97v-2.386h-14.97z" mask="url(#b)"/>
            <path fill="#FF4B00" d="M945.894 183.03h21.06v-2.388h-21.06zM921.865 209.996h12.348v-2.388h-12.348zM912.195 246.347h12.349v-2.388h-12.35z" mask="url(#b)"/>
            <path fill="#F6F6F6" d="M934.213 183.03h7.71v-2.388h-7.71zM909.259 209.996h7.708v-2.388h-7.708z" mask="url(#b)"/>
            <path fill="#E0E0E0" d="M1017.452 192.018h7.709v-2.386h-7.709z" mask="url(#b)"/>
            <path fill="#0096FF" d="M860.465 192.018h12.06v-2.386h-12.06zM892.643 237.225h9.521v-2.387h-9.521zM875.485 192.018h3.893v-2.386h-3.893z" mask="url(#b)"/>
            <path fill="#F6F6F6" d="M955.425 192.018h32.185v-2.386h-32.185zM924.544 264.19h32.185v-2.386h-32.185z" mask="url(#b)"/>
            <path fill="#FF4B00" d="M882.24 192.018h3.973v-2.386h-3.972z" mask="url(#b)"/>
            <path fill="#0096FF" d="M941.922 192.018h10.529v-2.386h-10.529z" mask="url(#b)"/>
            <path fill="#FF4B00" d="M952.451 201.006h10.53v-2.386h-10.53zM898.306 273.179h10.53v-2.387h-10.53z" mask="url(#b)"/>
            <path fill="#0096FF" d="M916.729 192.018h22.405v-2.386h-22.405zM895.876 246.347h13.088v-2.388h-13.088zM895.033 264.19h6.547v-2.386h-6.547z" mask="url(#b)"/>
            <path fill="#0DF" d="M905.842 192.018h7.71v-2.386h-7.71z" mask="url(#b)"/>
            <path fill="#FF4B00" d="M879.896 201.006h7.708v-2.386h-7.708zM881.431 237.225h7.709v-2.387h-7.709z" mask="url(#b)"/>
            <path fill="#0096FF" d="M889.473 192.018h13.43v-2.386h-13.43z" mask="url(#b)"/>
            <path fill="#F6F6F6" d="M1086.128 284.904H988.73a3.347 3.347 0 0 1-3.344-3.35v-67.61a3.346 3.346 0 0 1 3.344-3.349h97.398c1.847 0 3.344 1.5 3.344 3.349v67.61c0 1.85-1.497 3.35-3.344 3.35" mask="url(#b)"/>
            <path fill="#CCC" d="M1078.233 254.001h-16.77c-.71 0-1.284-.574-1.284-1.283v-2.594c0-.71.574-1.286 1.284-1.286h16.77c.709 0 1.284.575 1.284 1.286v2.594c0 .709-.575 1.283-1.284 1.283M1078.233 263.669h-16.77c-.71 0-1.284-.574-1.284-1.284v-2.594c0-.71.574-1.285 1.284-1.285h16.77c.709 0 1.284.576 1.284 1.285v2.594c0 .71-.575 1.284-1.284 1.284M1078.233 273.338h-16.77c-.71 0-1.284-.576-1.284-1.285v-2.593c0-.711.574-1.286 1.284-1.286h16.77c.709 0 1.284.575 1.284 1.286v2.593c0 .709-.575 1.285-1.284 1.285" mask="url(#b)"/>
            <path fill="#0DF" d="M1031.031 267.319c-8.676 3.107-18.03.303-23.666-6.332a21.478 21.478 0 0 1-3.87-6.715 21.493 21.493 0 0 1-.28-13.691c1.95-6.236 6.693-11.513 13.31-13.88a21.437 21.437 0 0 1 6.608-1.258c9.082-.275 17.7 5.272 20.927 14.3 4.006 11.22-1.827 23.564-13.029 27.576m19.8-29.998c-4.304-12.044-15.796-19.44-27.913-19.077-2.932.09-5.9.632-8.814 1.676-8.824 3.16-15.153 10.198-17.752 18.515a28.68 28.68 0 0 0 .373 18.262 28.656 28.656 0 0 0 5.162 8.955c7.518 8.85 19.994 12.59 31.567 8.447 14.94-5.351 22.72-21.816 17.376-36.778" mask="url(#b)"/>
            <path fill="#0096FF" d="M1003.215 240.58l-6.863-2.145c2.6-8.316 8.928-15.355 17.752-18.515a28.683 28.683 0 0 1 8.815-1.676l.214 7.2a21.43 21.43 0 0 0-6.608 1.256c-6.617 2.368-11.36 7.645-13.31 13.88" mask="url(#b)"/>
            <path fill="#2273B5" d="M1004.027 255.617l-6.595 2.873a29.38 29.38 0 0 1-.706-1.793 28.675 28.675 0 0 1-.374-18.263l6.863 2.147a21.493 21.493 0 0 0 .28 13.691c.164.456.342.906.532 1.345" mask="url(#b)"/>
            <path fill="#3788CC" d="M1001.887 265.651a28.635 28.635 0 0 1-4.454-7.16l6.593-2.874a21.492 21.492 0 0 0 3.339 5.37l-5.478 4.664z" mask="url(#b)"/>
            <path fill="#EEA886" d="M1033.368 264.072s-1.391-2.438.816-8.974c2.134-6.321 9.524-5.749 11.87-1.698 2.35 4.049 1.557 6.564-1.901 11.136-3.458 4.572-9.35 1.627-10.785-.464M1050.53 376.521s.366 2.685.412 3.09c.045.401 4.068-.238 4.068-.238l.325-3.197s-4.3-.032-4.805.345" mask="url(#b)"/>
            <path fill="#414773" d="M1050.899 379.269s-1.274 1.617-2.508 2.322c-1.23.705-3.167.983-3.897 1.714-.526.526-1.916 2.795 3.204 2.748 5.118-.045 7.585.321 8.133-.548.549-.871-.792-6.418-.792-6.418s-1.253.353-4.14.182" mask="url(#b)"/>
            <path fill="#EEA886" d="M1022.684 376.521s.366 2.685.412 3.09c.045.401 4.068-.238 4.068-.238l.325-3.197s-4.301-.032-4.805.345" mask="url(#b)"/>
            <path fill="#414773" d="M1023.053 379.269s-1.273 1.617-2.507 2.322c-1.232.705-5.768 1.283-6.496 2.014-.527.527-1.401 2.647 5.801 2.448 5.116-.14 7.586.321 8.134-.548.55-.871-.792-6.418-.792-6.418s-1.591.283-4.14.182" mask="url(#b)"/>
            <path fill="#2D314F" d="M1049.176 309.687s2.062 6.416 1.792 11.945c-.274 5.53 1.066 11.581 1.612 17.359.61 6.438 3.104 21.684 3.195 25.128.092 3.445-.387 14.445-.387 14.445l-4.995.12s-4.194-26.652-5.28-29.372c-1.087-2.718-6.475-22.107-6.656-24.282-.18-2.176 10.72-15.343 10.72-15.343" mask="url(#b)"/>
            <path fill="#2D314F" d="M1028.47 309.018s-3.033 16.965-3.395 20.35c-.362 3.386-.605 16.379-.785 18.493-.18 2.115-1.206 27.681-2.172 30.823h5.568s5.718-18.584 5.718-27.377c0-8.794 3.785-19.116 6.231-24.917 2.444-5.803 8.038-5.94 9.541-16.703 0 0-18.672-4.082-20.706-.669" mask="url(#b)"/>
            <path fill="#EEA886" d="M1035.389 265.798s.628 1.83 0 3.138c-.628 1.306 8.025.522 8.025.522s-.392-2.7.74-4.922c1.13-2.22-8.765 1.262-8.765 1.262" mask="url(#b)"/>
            <path fill="#2B3B57" d="M1049.578 311.085s-3.112 3.2-21.387-.5l.279-1.567 20.774.784.334 1.283z" mask="url(#b)"/>
            <path fill="#EEA886" d="M1034.078 269.359s-3.196.327-4.109.502c-.913.173-7.06-1.102-8.321-1.233-1.263-.13-6.639-3.818-6.813-4.254-.174-.436-3.271-8.29-3.446-9.988-.175-1.7-3.017-.822-2.774.348.457 2.19 1.042 7.503 1.364 9.044.347 1.663 1.275 5.43 1.797 5.894.522.464 5.365 4.15 10.104 5.72 4.74 1.566 8.308 3.874 8.308 3.874h23.362s9.086-13.006 9.28-14.965c.196-1.96-6.345-14.984-7.649-16.617-1.306-1.634-3.192.532-3.192.532s3.91 11.486 4.43 13.12c.522 1.633-4.546 8.808-5.939 8.829-1.392.023-4.963-.436-6.552-.5-1.587-.067-3.262-.763-3.262-.763l-6.588.457z" mask="url(#b)"/>
            <path fill="#6727E5" d="M1024.01 278.046s2.86 1.905 3.122 5.17c.26 3.267 1.305 8.427 1.826 10.19.522 1.764-.457 14.566-.588 15.482-.13.914 18.079 3.087 20.874.914 0 0 .783-11.955 1.11-15.35.326-3.397 1.89-11.627 2.413-12.737.52-1.11 6.85-9.998 7.11-11.17 0 0-3.275-5.226-5.622-5.292 0 0-3.729 4.378-4.945 4.574-1.216.195-8.67-1.173-8.67-1.183 0 0-.815 1.109-5.14-.198 0 0-5.15.582-5.988.688-1.014.132-8.067-.885-8.067-.885s-2.83 4.784-2.334 7.2l4.9 2.597z" mask="url(#b)"/>
            <path fill="#EEA886" d="M1011.552 255.406s-.638-3.027.132-3.897c.438-.494 1.489-1.804 1.585-1.996.095-.192 1.226-.843 1.226-1.155 0-.314-1.105-.698-2.067.193-.961.889-1.562 1.082-1.946.985-.386-.096-.937-3.295-.985-4.09-.047-.793-.354-2.888-.85-2.743-.495.144-.472 1.059-.472 1.059s-.577-1.589-.96-1.275c-.385.312-.338 1.083-.338 1.083s-.72-.891-.913-.241c-.192.65 0 1.227 0 1.227s-.745-.41-.792.601c-.048 1.01.217 3.97.745 5.03.528 1.059 2.507 3.827 2.743 4.907.235 1.083 2.892.312 2.892.312M1052.625 250.09s-2.174-3.66-2.913-3.986c-.738-.325-1.782-.511-2.696-1.164-.913-.653-2.12-1.197-2.054-1.414.065-.219 1.141-.133 2.294.369 1.153.5 1.656.257 1.766-.002.11-.262-.613-2.107-.961-2.542-.35-.436-2.828-2.933-2.415-3.304.415-.37 2.023 1.003 2.284 1.286 0 0-1.284-2.7-.784-2.83.5-.132 1.436.826 1.436.826s-.109-2.308 2.37 1.437c0 0-.521-1.24.24-.826.76.413 1.5 2.744 1.74 3.919.239 1.176 1.323 4.922 2.249 5.824.924.903-2.556 2.407-2.556 2.407" mask="url(#b)"/>
            <path fill="#353A3D" d="M1044.153 264.537s-1.144.101-3.58-.742c-2.436-.841-2.618-5.104-3.143-4.6-1.076 1.031-2.09.318-2.496-.291 0 0 1.188-1.567.637-2.323-.55-.755-1.447-1.304-1.447-1.304s1.713-8.268 9.508-4.502c9.132 4.413.521 13.762.521 13.762" mask="url(#b)"/>
            <path fill="#D4D8E8" d="M1035.389 268.936l.273-1.196s4.976-.101 7.69.293l.286 1.428s-3.476 1.578-8.25-.525" mask="url(#b)"/>
            <path fill="#EEA886" d="M1036.616 258.15c.452-.752 2.122-1.26 2.319.87.152 1.653-2.987 3.455-3.016 1.917-.028-1.54.395-2.288.697-2.787" mask="url(#b)"/>
            <path fill="#E55353" d="M1011.435 254.72s-1.796.042-2.666.83c0 0-.057.5.144.894 0 0 1.556-.727 2.75-.862 0 0-.02-.653-.228-.862" mask="url(#b)"/>
            <path fill="#353A3D" d="M1009.318 255.167a.775.775 0 0 0 .41 1.012.774.774 0 0 0 .602-1.423.771.771 0 0 0-1.012.411" mask="url(#b)"/>
            <path fill="#CCC" d="M965.226 191.286s2.566 4.354 3.649 5.067c1.47.965.55 1.942-.149 1.942-.697 0-4.265.257-5.051-.636-.785-.894-1.175-3.57-1.907-4.27-.73-.7-1.484-3.483.357-4.16 1.628-.598 3.101 2.057 3.101 2.057" mask="url(#b)"/>
            <path fill="#545671" d="M964.115 189.37s2.939 5.1 3.445 5.854c.507.754-.954.752-1.858.395-.905-.358-3.18-4.016-3.508-4.684-.39-.795-.07-1.705-.07-1.705l1.991.14z" mask="url(#b)"/>
            <path fill="#CCC" d="M961.138 192.114l.679 5.229.358.016-.11-3.763zM939.781 191.286s2.567 4.354 3.65 5.067c1.47.965.55 1.942-.149 1.942-.697 0-4.265.257-5.051-.636-.785-.894-1.175-3.57-1.905-4.27-.732-.7-1.512-3.555.355-4.16 1.636-.529 3.1 2.057 3.1 2.057" mask="url(#b)"/>
            <path fill="#545671" d="M938.824 189.38s2.785 5.09 3.291 5.844c.508.753-.954.752-1.858.394-.905-.357-3.18-4.015-3.506-4.683-.391-.795-.07-1.706-.07-1.706l2.143.15z" mask="url(#b)"/>
            <path fill="#CCC" d="M935.694 192.114l.679 5.229.358.016-.11-3.763z" mask="url(#b)"/>
            <path fill="#545671" d="M928.398 151.647l23.22 10.594s2.59.843 2.882 3.725c.906 8.995 7.624 23.264 7.624 23.264 2.157 1.056 1.991.14 1.991.14-1.357-4.368-3.012-22.366-3.602-29.602a149.956 149.956 0 0 1-.22-2.918c-.01-.228-.26-.527-.69-.876-3.186-2.587-16.296-7.943-16.296-7.943-9.843-.251-14.909 3.616-14.909 3.616" mask="url(#b)"/>
            <path fill="#545671" d="M924.022 156.196c.718 6.283 9.678 5.564 9.678 5.564h10.857s-2.852 6.356-3.953 11.716c-1.17 5.689-3.924 15.754-3.924 15.754s.18.342 2.145.15c0 0 8.523-17.01 11.786-21.286.702-.921 2.714-5.916 3.06-8.895.117-1.004.044-1.778-.328-2.092-.38-.316-1.244-.911-2.399-1.641-3.401-2.147-9.307-5.453-12.598-6.194-4.406-.991-11.377-2.851-11.377-2.851s-3.666 3.49-2.947 9.775" mask="url(#b)"/>
            <path fill="#464240" d="M931.412 107.788s-1.626-3.09-.835-6.38c.794-3.29 3.842-6.569 8.305-5.063 4.465 1.506 10.016 6.76 7.34 10.775-2.676 4.016 3.835 5.702 2.536 7.614-1.3 1.91-.551 4.63 0 5.075.548.443-1.073.66-1.268 2.537-.196 1.875-8.876-6.48-8.876-6.48s-4.611-9.277-7.202-8.078" mask="url(#b)"/>
            <path fill="#EB4747" d="M945.018 147.277s-.673 3.271-18.013-.859c0 0 5.812-1.933 18.013.859" mask="url(#b)"/>
            <path fill="#325BB3" d="M926.808 147.336c-.27.514-.539 1.027-.807 1.541l19.017.555c-1.001-3.362-.678-7.915-.502-11.372.215-4.22 2.543-7.155 2.296-11.425 1.253.203 1.47.242 2.726.434-1.922-5.48-2.58-8.194-8.545-10.304-1.944-.687-3.22-.823-5.323-.649-6.91.57-8.995.652-12.388 6.922 5.314.848 4.439 2.758 6.049 8.05.786 2.581 1.607 5.461 1.186 8.184-.416 2.68-3.71 5.62-3.71 8.064" mask="url(#b)"/>
            <path fill="#EEA886" d="M937.835 118.093c-2.829-.535-2.227-2.11-2.227-2.11s.133-.888.183-2.013c.013-.287.02-.59.019-.899a12.044 12.044 0 0 0-.078-1.392c-.231-1.901 5.133-.766 5.133-.766s-.308 3.846.432 4.998c.74 1.153-.633 2.717-3.462 2.182" mask="url(#b)"/>
            <path fill="#EEA886" d="M932.44 115.973s5.704 6.596 7.814 8.125c0 0 2.423-2.193.929-7.982 0 0-2.755-1.382-8.743-.143M932.596 100.097s-2.962 5.717-.025 11.13c2.938 5.416 8.71-2.356 9.084-3.268.375-.913 2.353-6.07-1.584-7.638-3.937-1.567-6.636-1.775-7.475-.224" mask="url(#b)"/>
            <path fill="#464240" d="M933.58 102.126s-2.04 2.682-2.281 4.664c0 0-.812-3.748 1.484-7.347 2.295-3.6 8.132-.172 8.914 1.266.782 1.44 3.073 2.707-.776 8.888 0 0-6.922-4.815-7.341-7.471" mask="url(#b)"/>
            <path fill="#A77860" d="M938.315 111.798s-.515 1.126-2.524 2.173c.013-.288.02-.591.019-.9 0 0 1.361-.165 2.505-1.273" mask="url(#b)"/>
            <path fill="#EEA886" d="M908.372 142.192s-1.407.627-2.077.343c-.666-.284-1.7-.34-2.025-.34-.436-.001-1.799-.487-1.777.046.026.533 2.215.905 2.663 1.072.45.166-1.34 1.152-1.506 1.59-.166.44 1.853 3.314 2.992 2.494 1.139-.818 1.756-2.454 1.988-2.558.232-.104.855-.563.855-.563l-1.113-2.084z" mask="url(#b)"/>
            <path fill="#EEA886" d="M903.865 144.649s-3.303 2.742-3.354 3.112c-.052.371.122.543.443.301.32-.244 3.274-2.557 3.274-2.557s-3.31 3.914-3.42 4.205c-.066.17.251.523.437.409.184-.113 3.704-3.799 3.704-3.799s-3.083 3.66-3.099 3.934c-.016.24.356.499.604.244.25-.256 3.318-3.485 3.318-3.485s-2.063 2.81-1.935 3.057c.078.152.34.47.846-.273.508-.744 1.902-2.362 1.902-2.362l-2.72-2.786z" mask="url(#b)"/>
            <path fill="#DC3B41" d="M943.424 161.761h-9.725s-8.96.72-9.676-5.565c-.72-6.285 2.946-9.775 2.946-9.775s4.732 1.262 8.864 2.26c2.07-.438 4.562-.724 7.473-.651 0 0 17.517 5.795 16.99 8.847 0 0-7.329-3.922-16.872 4.884" mask="url(#b)"/>
            <path fill="#454545" d="M937.094 150.878l18.542-.273-9.362 4.76z" mask="url(#b)"/>
            <path fill="#325BB3" d="M942.854 148.506s-4.17 1.617-9.283.155l-.24-1.912 10.527.587-1.004 1.17z" mask="url(#b)"/>
            <path fill="#575757" d="M946.274 155.365l-9.18-3.561v-.926l9.907 3.578z" mask="url(#b)"/>
            <path fill="#EDDAD3" d="M942.79 149.391a.919.919 0 0 0 1.275.91l1.076-.46a.767.767 0 0 0 .456-.827c-.447-2.809-1.41-13.741-.003-15.617.52-.694.842-1.3 1.025-1.832.929 2.396 2.084 5.482 2.541 7.142l8.76 11.67 2.938.745c-3.666-8.843-6.61-13.528-6.61-13.528-.574-1.542-2.216-6.209-3.672-10.364-.92-2.624-1.764-5.043-2.217-6.344a2.979 2.979 0 0 0-1.283-1.573c-1.357-.813-3.617-2.093-5.668-3.09a.23.23 0 0 1-.024-.01l-.196-.095-.004-.002h-.002c3.899 5.906 2.38 22.585 1.61 33.25a.172.172 0 0 1-.003.025M928.32 116.62c-1.25.192-4.346 3.203-5.99 6.24-1.877 3.47-3.787 7.417-5.22 8.716-2.631 2.388-10 10.83-10.35 10.625-.136-.079 2.02 2.52 2.294 2.642.136.06 12.113-10.33 13.262-11.913 1.09-1.501 4.007-7.8 4.878-7.661l.004.004.001.002c.067.144 1.127 2.446 2.133 5.813.017.056.032.112.05.168.69 2.348.629 4.897.254 7.762-.284 2.162-1.896 5.697-2.868 7.418-.116.206-.087.6.04.899v.001c.075.18.185.323.318.373l3.516 1.304.826.306c.595.22 1.22.106 1.685-.233.382-.277.66-.706.726-1.224.782-6.02 1.77-12.173 2.559-14.49 3.458-10.17-1.352-17.811-1.352-17.811s-5.671.649-6.767 1.058" mask="url(#b)"/>
            <path fill="#333" d="M946.274 155.365l5.515-15.079 17.78.291-5.258 13.895z" mask="url(#b)"/>
            <path fill="#CCC" d="M957.477 146.957c-.542 1.086-.378 2.27.367 2.642.746.373 1.789-.206 2.33-1.292.543-1.085.38-2.268-.366-2.642-.744-.372-1.787.207-2.33 1.292" mask="url(#b)"/>
            <path fill="#464240" d="M938.737 105.79s1.137 1.774.086 3.305c-1.053 1.531.266 3.036.493 4.655.229 1.619-4.391 5.927.747 8.093 5.138 2.168 6.774-1.414 5.463-3.385-1.31-1.973-2.242-3.573-2.353-6.383-.11-2.811-1.034-7.193-4.436-6.285" mask="url(#b)"/>
            <path fill="#FF3453" d="M901.517 84.498h21.899V103.74l-3.342-3.347h-18.557z" mask="url(#b)"/>
            <path stroke="#19425E" stroke-width=".528" d="M390.49 182.673c.364-.482.72-.976 1.07-1.478" mask="url(#b)"/>
            <path stroke="#19425E" stroke-dasharray="3.147,3.147" stroke-width=".528" d="M393.51 178.138c11.174-19.07 11.477-49.195-13.81-66.058-27.228-18.158-59.41-16.305-87.538-49.238-3.517-4.118-6.672-8.68-7.357-14.148-.895-7.143 4.816-14.386 9.975-10.209 5.756 4.662 2.545 18.358-10.84 28.533-14.98 11.388-33.671 17.39-52.246 16.996-19.188-.408-37.968-7.46-57.136-6.482-30.691 1.566-58.949 26.11-65.784 57.14-3.97 18.026-.509 37.33 8.384 53.323" mask="url(#b)"/>
            <path stroke="#19425E" stroke-width=".528" d="M118.061 189.576c.309.526.624 1.048.943 1.565" mask="url(#b)"/>
            <path fill="#555" d="M191.118 394.318l-1.882-.68 50.098-138.87h-37.142l-50.342 139.55-1.88-.68 50.82-140.872h41.393z" mask="url(#b)"/>
            <path fill="#555" d="M190.768 285.705h39.266v-2.001h-39.266zM181.025 312.712h39.267v-2.003h-39.267zM171.282 339.719h39.267v-2.003h-39.267zM161.54 366.726h39.267v-2.003H161.54zM239.76 393.977h1.998v-140.21h-1.999z" mask="url(#b)"/>
            <path fill="#F9F9F9" d="M252.087 123.117h61.8c6.066 0 11.028 4.969 11.028 11.042v15.94c0 6.072-4.962 11.04-11.028 11.04H268.58l2.686.048c-4.624 9.259-14.619 10.217-19.671 10.061-.857-.026-1.152-1.117-.455-1.62 3.892-2.804 4.047-7.395 4.026-8.489h-3.078c-6.065 0-11.027-4.968-11.027-11.04v-15.94c0-6.073 4.962-11.042 11.027-11.042" mask="url(#b)"/>
            <path stroke="#CCC" stroke-width=".459" d="M252.087 123.117h61.8c6.066 0 11.028 4.969 11.028 11.042v15.94c0 6.072-4.962 11.04-11.028 11.04H268.58l2.686.048c-4.624 9.259-14.619 10.217-19.671 10.061-.857-.026-1.152-1.117-.455-1.62 3.892-2.804 4.047-7.395 4.026-8.489h-3.078c-6.065 0-11.027-4.968-11.027-11.04v-15.94c0-6.073 4.962-11.042 11.027-11.042z" mask="url(#b)"/>
            <path fill="#FFC73C" d="M314.842 141.837c0 5.828-4.718 10.553-10.538 10.553-5.819 0-10.537-4.725-10.537-10.553 0-5.826 4.718-10.551 10.537-10.551 5.82 0 10.538 4.725 10.538 10.551" mask="url(#b)"/>
            <path fill="#D89CA9" d="M299.82 141.873a1.923 1.923 0 1 1-3.845 0c0-1.063.86-1.925 1.922-1.925 1.062 0 1.923.862 1.923 1.925M312.493 141.968a1.924 1.924 0 0 1-1.923 1.925 1.924 1.924 0 0 1 0-3.85c1.062 0 1.923.862 1.923 1.925" mask="url(#b)"/>
            <path stroke="#735721" stroke-linecap="round" stroke-linejoin="round" stroke-width=".474" d="M298.673 139.374s.142-1.284 1.495-1.248c0 0 1.032.142 1.139 1.212M306.536 139.374s.143-1.284 1.495-1.248c0 0 1.032.142 1.139 1.212" mask="url(#b)"/>
        </g>
        <g transform="translate(298 122)">
            <mask id="d" fill="#fff">
                <use xlink:href="#c"/>
            </mask>
            <path fill="#FFF" d="M10.605.776c.384 0 .691.345.624.723-.399 2.194-2.574 3.872-5.2 3.872-2.623 0-4.799-1.678-5.197-3.872-.067-.378.24-.723.624-.723h9.149z" mask="url(#d)"/>
        </g>
        <g transform="translate(298 122)">
            <mask id="f" fill="#fff">
                <use xlink:href="#e"/>
            </mask>
            <path fill="#D6CEBE" d="M5.892.183v5.682c0 .146.226.146.226 0V.183c0-.147-.226-.147-.226 0" mask="url(#f)"/>
        </g>
        <g transform="translate(298 122)">
            <mask id="h" fill="#fff">
                <use xlink:href="#g"/>
            </mask>
            <path fill="#D6CEBE" d="M7.572.331v6.622c0 .146.227.146.227 0V.33c0-.146-.227-.146-.227 0" mask="url(#h)"/>
        </g>
        <g transform="translate(298 122)">
            <mask id="j" fill="#fff">
                <use xlink:href="#i"/>
            </mask>
            <path fill="#D6CEBE" d="M9.054.38v5.731c0 .147.227.147.227 0V.381c0-.147-.227-.147-.227 0" mask="url(#j)"/>
        </g>
        <g transform="translate(298 122)">
            <mask id="l" fill="#fff">
                <use xlink:href="#k"/>
            </mask>
            <path fill="#D6CEBE" d="M10.24.43v6.523c0 .146.227.146.227 0V.429c0-.146-.227-.146-.227 0" mask="url(#l)"/>
        </g>
        <g transform="translate(298 122)">
            <mask id="n" fill="#fff">
                <use xlink:href="#m"/>
            </mask>
            <path fill="#D6CEBE" d="M1.692.331v6.622c0 .146.226.146.226 0V.33c0-.146-.226-.146-.226 0" mask="url(#n)"/>
        </g>
        <g transform="translate(298 122)">
            <mask id="p" fill="#fff">
                <use xlink:href="#o"/>
            </mask>
            <path fill="#D6CEBE" d="M3.174.38v5.731c0 .147.227.147.227 0V.381c0-.147-.227-.147-.227 0" mask="url(#p)"/>
        </g>
        <g transform="translate(298 122)">
            <mask id="r" fill="#fff">
                <use xlink:href="#q"/>
            </mask>
            <path fill="#D6CEBE" d="M4.36.43v6.523c0 .146.227.146.227 0V.429c0-.146-.227-.146-.227 0" mask="url(#r)"/>
        </g>
        <g transform="translate(298 122)">
            <mask id="t" fill="#fff">
                <use xlink:href="#s"/>
            </mask>
            <path fill="#D6CEBE" d="M-.343 1.218C4.324 3.81 9.43 3.152 14.158 1.064c.133-.059.018-.256-.115-.197-4.651 2.053-9.66 2.716-14.27.154-.129-.071-.243.125-.116.197" mask="url(#t)"/>
        </g>
        <g transform="translate(0 -21)">
            <path fill="#FF3453" d="M260.75 137.307v10.53h-1.038v-4.925h-6.236v4.924h-1.021v-10.529h1.02v4.686h6.237v-4.686zM263.68 144.01c0 .436.072.839.216 1.21.143.37.34.696.593.978.251.282.547.502.889.66.34.158.703.237 1.087.237.387 0 .748-.08 1.089-.245a2.9 2.9 0 0 0 .897-.667c.256-.282.459-.61.607-.987.147-.375.22-.78.22-1.215a3.34 3.34 0 0 0-.22-1.209 3.183 3.183 0 0 0-.607-.994 2.95 2.95 0 0 0-.889-.667 2.447 2.447 0 0 0-1.082-.245c-.384 0-.748.082-1.089.245a2.752 2.752 0 0 0-.887.674 3.355 3.355 0 0 0-.823 2.226m2.799 3.974a3.706 3.706 0 0 1-2.762-1.187 3.898 3.898 0 0 1-.792-1.275 4.208 4.208 0 0 1-.281-1.527 4.145 4.145 0 0 1 1.088-2.82 3.871 3.871 0 0 1 1.215-.873c.469-.218.98-.327 1.532-.327.553 0 1.065.109 1.533.327.469.217.875.51 1.215.874.34.367.607.792.8 1.275.192.485.289 1 .289 1.544 0 .533-.097 1.043-.29 1.527-.192.485-.46.91-.8 1.275-.34.366-.745.655-1.214.868-.468.213-.98.319-1.533.319M272.004 137.01h1.007v9.077c0 .287.08.512.237.674.16.163.38.245.666.245.11 0 .238-.015.386-.044.148-.03.286-.069.415-.119l.178.816a3.366 3.366 0 0 1-.69.193 4.07 4.07 0 0 1-.704.074c-.463 0-.829-.131-1.094-.394-.267-.262-.4-.63-.4-1.104v-9.418zM278.166 147.214c.445 0 .886-.096 1.325-.289.439-.193.788-.457 1.044-.793.07-.09.128-.187.178-.29.05-.104.073-.2.073-.29v-1.26a6.018 6.018 0 0 0-1.05-.296 5.715 5.715 0 0 0-1.066-.104c-.722 0-1.306.145-1.756.437-.45.292-.674.695-.674 1.209a1.594 1.594 0 0 0 .482 1.142c.164.159.363.287.6.386.237.098.518.148.844.148m-.252.77c-.396 0-.755-.06-1.081-.185a2.481 2.481 0 0 1-.837-.511 2.35 2.35 0 0 1-.54-.757 2.196 2.196 0 0 1-.193-.904c0-.356.08-.68.237-.971.158-.292.38-.543.666-.75.286-.207.63-.368 1.03-.482.4-.113.841-.17 1.326-.17.384 0 .78.035 1.184.104.405.07.765.168 1.08.296v-.697c0-.681-.194-1.224-.583-1.624-.39-.4-.916-.6-1.58-.6-.413 0-.826.079-1.235.237a5.93 5.93 0 0 0-1.252.682l-.354-.667a6.704 6.704 0 0 1 1.466-.757 4.411 4.411 0 0 1 1.48-.252c.94 0 1.684.273 2.237.816.552.544.829 1.295.829 2.255v3.484c0 .278.12.416.356.416v.89c-.08.01-.153.017-.221.022-.07.005-.13.007-.179.007a.89.89 0 0 1-.54-.178c-.163-.118-.255-.297-.275-.533l-.029-.609a3.364 3.364 0 0 1-1.325 1.061 3.96 3.96 0 0 1-1.667.378"/>
            <mask id="v" fill="#fff">
                <use xlink:href="#u"/>
            </mask>
            <path fill="#FF3453" d="M284.209 147.836h1.006v-1.66h-1.006v1.66zm0-3.38h1.006v-7.253h-1.006v7.252z" mask="url(#v)"/>
            <path fill="#5F27CC" d="M224.219 155.031l3.196-4.452s-14.266-17.13-21.828-24.031l-4.292 12.676c8.675 7.329 12.094 9.99 20.752 15.639l2.172.168z" mask="url(#v)"/>
            <path fill="#F4ACC8" d="M219.611 147.333l-.32 4.41 4.927 3.288c6.284-4.27 14.512-12.555 19.088-17.35l-2.783-.75-20.912 10.402z" mask="url(#v)"/>
            <path fill="#BADC00" d="M242.53 172.946l4.841-2.564s-5.35-20.101-9.058-29.65l-12.232 1.965c4.514 10.428 9.336 20.214 14.58 29.13l1.87 1.12z" mask="url(#v)"/>
            <path fill="#00B2CF" d="M208.408 175.952l-13.377 9.054 3.11 11.327c7.79 3.662 22.152 7.42 32.055 10.517-2.05 13.06-1.796 25.485-1.189 41.263h3.067l12.528-49.284-36.194-22.877z" mask="url(#v)"/>
            <path fill="#5F27CC" d="M227.854 245.938h4.058l6.345 4.285 5.302.867.16 2.546h-15.384z" mask="url(#v)"/>
            <path fill="#00B2CF" d="M195.03 185.006c-1.224 14.16.055 30.164 1.997 44.214-1.314 15.856.8 31.253 4.033 49.836h3.068l5.85-49.285 2.628-44.765H195.03z" mask="url(#v)"/>
            <path fill="#F4ACC8" d="M225.193 125.787l-1.107 9.728-6.509-5.137 2.827-8.544z" mask="url(#v)"/>
            <path fill="#F4ACC8" d="M228.592 125.777c-.322 1.502-2.107 2.482-4.64.746l-3.796-3.946-.606-6.892 3.791-4.833 8.164 2.487-2.913 12.438z" mask="url(#v)"/>
            <path fill="#37384F" d="M222.08 118.468c.917 2.235 1.79 1.086 2.632-2.452l6.604-.179 2.732-4.249-2.159-.092-7.99-1.905c-3.546-.886-5.635 1.412-5.49 5.62l.357 5.146c.095 1.388.013 2.104 1.181 2.856l1.851-2.707.282-2.038z" mask="url(#v)"/>
            <path fill="#F4ACC8" d="M222.886 118.758c.146.93-.158 1.752-.68 1.833-.523.084-1.066-.604-1.212-1.534-.146-.93.158-1.75.68-1.833.522-.083 1.065.604 1.212 1.534" mask="url(#v)"/>
            <path fill="#BADC00" d="M220.979 171.299c3.15-7.292 14.993-24.33 17.334-30.567-7.285-8.116-20.712-14.679-32.726-14.184-5.573 9.625-10.223 26.41-10.223 44.75l-.815 13.768h28.3l-1.903-13.767h.033z" mask="url(#v)"/>
            <path fill="#F4ACC8" d="M245.618 164l-.181 5.703-2.907 3.243c7.526-1.025 16.417-3.493 22.645-5.748v-3.199h-19.557z" mask="url(#v)"/>
            <path fill="#F4ACC8" d="M265.175 164l4.65-.076 3.317-1.281-.242 1.91a3.093 3.093 0 0 1-1.924 2.489l-1.872.746-3.93-.59v-3.199z" mask="url(#v)"/>
            <path fill="#5F27CC" d="M199.908 275.195h4.916l7.69 5.192 6.424 1.05.193 3.085h-18.64z" mask="url(#v)"/>
            <path fill="#F4ACC8" d="M241.642 129.123l1.072 2.064-.528-3.298.574-.375 1.442 4.829-.897 5.338-2.782-.75-.768-3.805.04-3.898 1.408-3.266.512.149z" mask="url(#v)"/>
            <path fill="#636ED3" d="M196.698 183.546H97.304c-4.198 0-7.633 3.72-7.633 8.267v11.934c0 4.547 3.435 8.267 7.633 8.267h87.978l-1.86.036c3.2 6.932 10.12 7.65 13.617 7.533.593-.02.796-.837.314-1.212-2.693-2.1-2.8-5.538-2.787-6.357h2.132c4.198 0 7.632-3.72 7.632-8.267v-11.934c0-4.547-3.434-8.267-7.632-8.267" mask="url(#v)"/>
            <path fill="#FFF" d="M105.465 199.729h2.58c.233 0 .449-.051.641-.154a1.57 1.57 0 0 0 .495-.41c.137-.17.243-.368.318-.59.075-.225.114-.458.114-.701 0-.25-.044-.487-.131-.711a1.907 1.907 0 0 0-.352-.586 1.613 1.613 0 0 0-.522-.393 1.473 1.473 0 0 0-.632-.143h-2.511v3.688zm-.785 3.688v-8.083h3.342c.349 0 .669.075.96.224.292.148.544.34.756.58.213.239.377.511.495.813.117.304.176.611.176.923 0 .333-.056.654-.165.962a2.54 2.54 0 0 1-.472.814 2.4 2.4 0 0 1-.733.568c-.285.144-.6.216-.95.216h-2.624v2.983h-.785zM116.32 200.139a2.388 2.388 0 0 0-.699-1.55 2.121 2.121 0 0 0-1.495-.6c-.288 0-.561.051-.818.156a2.121 2.121 0 0 0-.677.445 2.22 2.22 0 0 0-.466.683 2.565 2.565 0 0 0-.21.866h4.365zm-2.184 3.391a2.91 2.91 0 0 1-1.193-.243 2.918 2.918 0 0 1-.943-.672 3.177 3.177 0 0 1-.841-2.18c0-.417.074-.81.222-1.178.148-.368.353-.69.62-.968.265-.276.577-.497.937-.66a2.84 2.84 0 0 1 1.188-.245 2.837 2.837 0 0 1 2.114.91 3.136 3.136 0 0 1 .813 2.311.537.537 0 0 1-.018.126h-5.058a2.497 2.497 0 0 0 .7 1.581 2.07 2.07 0 0 0 2.063.546c.19-.052.364-.124.523-.214.159-.093.302-.203.426-.336.126-.133.223-.28.29-.44l.67.182c-.09.222-.219.42-.386.598-.166.178-.36.334-.58.467a2.86 2.86 0 0 1-.728.308 3.116 3.116 0 0 1-.819.107zM121.174 198.17c-.524.015-.98.159-1.365.431a2.18 2.18 0 0 0-.819 1.128v3.688h-.772v-5.93h.726v1.424c.205-.42.475-.766.808-1.043.333-.277.693-.415 1.08-.415h.193c.061 0 .11.003.149.011v.706zM122.526 203.417v-4.622h-.819v-.614h.819v-.853c0-.728.155-1.3.465-1.714.312-.413.74-.62 1.286-.62.227 0 .45.034.67.102.22.069.409.16.569.273l-.239.559a1.14 1.14 0 0 0-.393-.194 1.652 1.652 0 0 0-.461-.068c-.363 0-.64.14-.835.42-.193.282-.289.687-.289 1.219v.876h1.637v.614h-1.637v4.622h-.773zM130.903 200.139a2.388 2.388 0 0 0-.699-1.55 2.121 2.121 0 0 0-1.495-.6c-.288 0-.56.051-.818.156a2.121 2.121 0 0 0-.677.445 2.22 2.22 0 0 0-.465.683 2.565 2.565 0 0 0-.21.866h4.364zm-2.183 3.391a2.91 2.91 0 0 1-1.193-.243 2.918 2.918 0 0 1-.943-.672 3.177 3.177 0 0 1-.841-2.18c0-.417.073-.81.222-1.178.147-.368.353-.69.619-.968.265-.276.577-.497.937-.66a2.84 2.84 0 0 1 1.188-.245 2.837 2.837 0 0 1 2.115.91 3.136 3.136 0 0 1 .812 2.311.537.537 0 0 1-.017.126h-5.058a2.497 2.497 0 0 0 .7 1.581 2.07 2.07 0 0 0 2.063.546c.189-.052.363-.124.522-.214.16-.093.302-.203.427-.336s.222-.28.289-.44l.67.182c-.09.222-.218.42-.385.598-.166.178-.36.334-.58.467a2.86 2.86 0 0 1-.729.308 3.116 3.116 0 0 1-.818.107zM132.415 200.434c0-.416.071-.811.215-1.183.144-.373.347-.697.609-.973.26-.277.574-.495.937-.656a2.992 2.992 0 0 1 1.205-.238c.561 0 1.05.128 1.467.38.416.256.73.598.943 1.031l-.75.24a1.81 1.81 0 0 0-.693-.71 1.933 1.933 0 0 0-.99-.258c-.302 0-.585.061-.846.182a2.183 2.183 0 0 0-1.137 1.241c-.11.289-.165.604-.165.944 0 .334.057.649.17.945.115.296.27.552.466.768a2.2 2.2 0 0 0 .689.513c.26.126.54.188.834.188.19 0 .378-.027.564-.08.185-.052.357-.127.517-.221.16-.095.296-.203.409-.325.114-.122.193-.25.238-.388l.752.228a1.921 1.921 0 0 1-.366.586 2.497 2.497 0 0 1-.561.467 2.725 2.725 0 0 1-.717.308 3.06 3.06 0 0 1-.813.108c-.43 0-.83-.083-1.193-.244a2.923 2.923 0 0 1-.944-.672 3.177 3.177 0 0 1-.84-2.18M141.918 203.133c-.046.023-.113.052-.2.09a3.517 3.517 0 0 1-.688.217c-.144.03-.294.045-.454.045-.167 0-.325-.023-.477-.068a1.09 1.09 0 0 1-.398-.211 1.038 1.038 0 0 1-.273-.358 1.16 1.16 0 0 1-.103-.501V198.1h-.818v-.615h.818v-2.003h.774v2.003h1.364v.615h-1.364v4.03c.016.22.091.38.227.484.136.102.3.153.489.153.219 0 .412-.037.58-.108a2.73 2.73 0 0 0 .318-.154l.205.627zM143.111 200.48c0 .334.054.645.165.929.11.283.26.534.454.75.194.217.42.385.683.508.26.12.539.18.835.18.295 0 .574-.061.835-.187a2.2 2.2 0 0 0 .688-.513 2.505 2.505 0 0 0 .637-1.691 2.52 2.52 0 0 0-.171-.925 2.417 2.417 0 0 0-.466-.763 2.258 2.258 0 0 0-.682-.514 1.896 1.896 0 0 0-.83-.187c-.295 0-.574.063-.835.187a2.143 2.143 0 0 0-.682.52 2.555 2.555 0 0 0-.63 1.706m2.147 3.051c-.433 0-.827-.083-1.188-.244a2.912 2.912 0 0 1-1.54-1.645 3.219 3.219 0 0 1-.215-1.174 3.156 3.156 0 0 1 .834-2.162c.262-.28.572-.505.933-.672.36-.166.751-.25 1.176-.25.424 0 .816.084 1.177.25.36.167.67.391.931.672.263.28.467.608.616.979.147.371.22.766.22 1.183a3.152 3.152 0 0 1-.836 2.153 2.846 2.846 0 0 1-2.108.91M149.636 203.416h.78v-1.274h-.78v1.274zm0-2.595h.78v-5.565h-.78v5.565z" mask="url(#v)"/>
            <path fill="#E8A281" d="M164.36 198.75c-.04.927.069 1.899.251 2.806.203 1.011.542 1.967.991 2.871l.88-.257-.806-7.093-1.004-.2c-.119.62-.285 1.231-.312 1.872" mask="url(#v)"/>
            <path fill="#FFC3A8" d="M174.314 194.063c-.864-.52-1.124-1.687-1.124-1.687v-2.917c0-.976-.646-1.964-1.77-2.215-1.77-.347-.95 1.197-.95 2.172 0 0-.024 1.888-.173 2.657-.194 1.006-1.122 1.5-1.825 1.977-1.788.738-3.37 2.27-3.403 3.95l.13 3.762c0 2.431 2.25 2.69 5.055 3.417 1.003.26 4.881.475 4.881.475 2.428 0 4.016-.821 4.016-3.252v-4.394c0-2.427-3.066-3.383-4.837-3.945" mask="url(#v)"/>
            <path fill="#F2A380" d="M185.347 194.746s-4.38-.37-5.328-.4l-3.641.184c-.063.006-.359.015-.597.033-.525-.201-1.034-.363-1.466-.5-.865-.52-1.124-1.688-1.124-1.688v-2.917c0-.975-.647-1.963-1.77-2.215-1.771-.346-.95 1.197-.95 2.173 0 0-.026 1.89-.175 2.658-.193 1.005-1.12 1.5-1.825 1.976-1.399.577-2.662 1.645-3.164 2.886l-7.027-1.012s-3.068 5.665.733 10.423l7.583-2.206-.01-.082c.918.49 2.217.743 3.668 1.12 1.002.26 4.881.475 4.881.475 2.428 0 4.016-.822 4.016-3.253v-4.393c0-.287-.046-.553-.124-.8l1.082.044c.964-.04 5.274-.397 5.274-.397.945-.036 1.503-.374 1.503-1.118 0-.583-.595-.774-1.539-.99" mask="url(#v)"/>
            <path fill="#FFBA9C" d="M179.54 203.233l-3.714-.346c-.95-.26-1.686-.606-1.7-1.225.014-.721.663-1.067 1.656-1.414l3.63-.042c.963 0 1.806.491 1.806 1.456s-.713 1.571-1.677 1.571" mask="url(#v)"/>
            <path fill="#FFBA9C" d="M178.698 205.827l-2.57-.303c-.936-.244-1.684-.215-1.71-1.035.113-.695.717-1.041 1.624-1.256l2.591-.346c.964 0 1.818.636 1.818 1.602 0 .965-.789 1.338-1.753 1.338M180.438 200.247l-4.47-.19c-1.266-.198-1.93-.6-1.93-1.566.057-.751.777-.955 1.707-1.332.109-.045.227-.072.346-.082l4.347-.34c.965 0 1.753.79 1.753 1.754 0 .967-.788 1.756-1.753 1.756" mask="url(#v)"/>
            <path fill="#545671" d="M79.84 290.498c-3.906 14.852-5.59 31.587-6.21 46.43-7.043 16.579-9.697 34.73-12.608 54.883h5.279l21.128-53.09 11.345-48.223H79.84z" mask="url(#v)"/>
            <path fill="#37384F" d="M67.08 390.903h-6.842l-5.842 5.785-3.067 1.172-.216 3.438h15.32z" mask="url(#v)"/>
            <path fill="#545671" d="M91.236 286.968c-.528 15.45 2.041 35.497 4.974 50.982-1.6 17.454.603 33.435 4.158 53.861h4.456l5.15-53.09.391-48.223-19.13-3.53z" mask="url(#v)"/>
            <path fill="#37384F" d="M99.727 389.748h5.478l8.571 5.786 7.159 1.171.215 3.439h-20.775z" mask="url(#v)"/>
            <path fill="#0096FF" d="M109.996 275.732c1.551-8.559 8.306-30.474 9.256-37.645-10.903-4.364-26.51-6.667-38.413 0-2.565 12.009-.08 37.645-.08 37.645l-.878 14.832h30.483l-.403-14.832h.035z" mask="url(#v)"/>
            <path fill="#FFBE9D" d="M104.478 229.553l-1.52 10.437-6.834-5.752 3.33-9.103z" mask="url(#v)"/>
            <path fill="#FFBE9D" d="M108.273 228.067c.037 1.655-1.592 3.127-4.678 1.94l-4.959-3.189-2.35-7.07 2.771-6.011 9.173.567.043 13.763z" mask="url(#v)"/>
            <path fill="#37384F" d="M99.629 222.032c1.517 2.114 2.146.691 2.149-3.226l6.876-1.835 1.806-5.136-2.285.443-8.847-.003c-3.939-.045-5.554 2.884-4.355 7.26l1.654 5.304c.445 1.43.537 2.201 1.948 2.699l1.267-3.3-.213-2.206z" mask="url(#v)"/>
            <path fill="#F4ACC8" d="M100.546 222.136c.385.937.27 1.873-.257 2.09-.526.217-1.265-.368-1.65-1.305-.385-.939-.27-1.875.257-2.092.527-.216 1.265.368 1.65 1.307" mask="url(#v)"/>
            <path fill="#FF3453" d="M12.015 285.625h108.837c6.608 0 12.016 5.415 12.016 12.032v17.368c0 6.616-5.408 12.03-12.016 12.03H29.985l2.926.053c-5.037 10.088-15.928 11.133-21.433 10.963-.933-.03-1.254-1.218-.496-1.765 4.24-3.056 4.41-8.06 4.386-9.25h-3.353C5.408 327.056 0 321.64 0 315.025v-17.368c0-6.617 5.409-12.032 12.016-12.032" mask="url(#v)"/>
            <path fill="#FFF" d="M30.32 301.495h1.218v-1.792h-1.217v1.792zm-1.52 14.53a3.73 3.73 0 0 1-1.11-.16 2.449 2.449 0 0 1-.93-.538l.59-.825c.192.167.401.28.626.341.227.06.456.09.68.09.216 0 .421-.043.618-.126a1.777 1.777 0 0 0 .904-.877 1.56 1.56 0 0 0 .143-.664v-9.818h1.217v9.747c0 .418-.078.8-.233 1.146a2.926 2.926 0 0 1-.618.897 2.79 2.79 0 0 1-.876.58 2.576 2.576 0 0 1-1.01.207zM36.923 312.03c.538 0 1.071-.118 1.601-.35.532-.233.953-.551 1.263-.959.084-.107.154-.223.214-.35a.81.81 0 0 0 .09-.348v-1.524a7.649 7.649 0 0 0-1.27-.358 6.96 6.96 0 0 0-1.29-.125c-.87 0-1.577.177-2.12.528-.543.353-.814.84-.814 1.46 0 .252.047.497.143.736.096.239.242.453.438.644.197.191.44.347.725.467.286.12.626.18 1.02.18m-.304.93c-.477 0-.913-.074-1.305-.223a3.017 3.017 0 0 1-1.01-.619 2.767 2.767 0 0 1-.888-2.006c0-.43.097-.822.287-1.174.19-.352.458-.653.804-.905.347-.252.761-.445 1.244-.583a5.89 5.89 0 0 1 1.602-.205c.465 0 .941.042 1.43.126.49.083.925.203 1.308.357v-.841c0-.824-.236-1.479-.707-1.962-.471-.484-1.107-.726-1.906-.726-.5 0-1 .095-1.493.287-.496.19-1 .465-1.513.824l-.43-.807a8.154 8.154 0 0 1 1.771-.914 5.351 5.351 0 0 1 1.79-.304c1.132 0 2.034.328 2.702.985.669.658 1.002 1.565 1.002 2.724v4.21c0 .335.144.503.43.503v1.074a4.255 4.255 0 0 1-.484.037 1.09 1.09 0 0 1-.654-.216c-.194-.143-.305-.358-.33-.644l-.036-.736c-.405.55-.938.977-1.601 1.282a4.768 4.768 0 0 1-2.013.457" mask="url(#v)"/>
            <path fill="#FFF" d="M43.955 301.495h1.217v-1.792h-1.217v1.792zm-1.52 14.53a3.73 3.73 0 0 1-1.11-.16 2.449 2.449 0 0 1-.93-.538l.59-.825c.191.167.4.28.626.341.227.06.455.09.68.09.216 0 .42-.043.617-.126a1.777 1.777 0 0 0 .904-.877 1.56 1.56 0 0 0 .143-.664v-9.818h1.217v9.747c0 .418-.078.8-.232 1.146a2.926 2.926 0 0 1-.618.897 2.79 2.79 0 0 1-.876.58 2.576 2.576 0 0 1-1.011.207zM50.558 312.03c.536 0 1.07-.118 1.6-.35.532-.233.952-.551 1.262-.959.084-.107.154-.223.215-.35a.825.825 0 0 0 .09-.348v-1.524a7.649 7.649 0 0 0-1.271-.358 6.958 6.958 0 0 0-1.289-.125c-.871 0-1.578.177-2.12.528-.543.353-.815.84-.815 1.46 0 .252.049.497.143.736.096.239.242.453.44.644.196.191.439.347.725.467.285.12.626.18 1.02.18m-.305.93c-.477 0-.914-.074-1.306-.223a3.04 3.04 0 0 1-1.01-.619 2.783 2.783 0 0 1-.654-.914 2.633 2.633 0 0 1-.233-1.092c0-.43.096-.822.286-1.174a2.72 2.72 0 0 1 .806-.905c.345-.252.76-.445 1.242-.583a5.902 5.902 0 0 1 1.603-.205c.464 0 .941.042 1.43.126.49.083.926.203 1.307.357v-.841c0-.824-.235-1.479-.706-1.962-.472-.484-1.107-.726-1.907-.726-.5 0-1 .095-1.493.287-.494.19-1 .465-1.512.824l-.43-.807a8.16 8.16 0 0 1 1.772-.914 5.341 5.341 0 0 1 1.79-.304c1.132 0 2.033.328 2.702.985.667.658 1.002 1.565 1.002 2.724v4.21c0 .335.142.503.43.503v1.074a4.377 4.377 0 0 1-.485.037c-.238 0-.456-.073-.653-.216-.196-.143-.307-.358-.331-.644l-.036-.736c-.404.55-.938.977-1.6 1.282a4.768 4.768 0 0 1-2.014.457" mask="url(#v)"/>
            <path fill="#FFF" d="M57.588 301.495h1.218v-1.792h-1.218v1.792zm-1.519 14.53c-.394 0-.764-.053-1.11-.16a2.432 2.432 0 0 1-.93-.538l.59-.825c.191.167.4.28.626.341.228.06.454.09.68.09.215 0 .42-.043.617-.126.198-.084.374-.2.529-.35.154-.148.279-.324.374-.527.096-.204.143-.425.143-.664v-9.818h1.218v9.747c0 .418-.078.8-.233 1.146a2.804 2.804 0 0 1-1.493 1.477 2.58 2.58 0 0 1-1.011.207zM64.192 312.03c.536 0 1.07-.118 1.601-.35.532-.233.951-.551 1.261-.959.084-.107.155-.223.216-.35a.825.825 0 0 0 .089-.348v-1.524a7.649 7.649 0 0 0-1.27-.358 6.958 6.958 0 0 0-1.29-.125c-.87 0-1.577.177-2.12.528-.542.353-.814.84-.814 1.46 0 .252.048.497.143.736.095.239.242.453.439.644.196.191.44.347.725.467.286.12.626.18 1.02.18m-.304.93c-.477 0-.914-.074-1.306-.223a3.04 3.04 0 0 1-1.011-.619 2.783 2.783 0 0 1-.654-.914 2.633 2.633 0 0 1-.233-1.092c0-.43.096-.822.286-1.174a2.72 2.72 0 0 1 .806-.905c.346-.252.76-.445 1.243-.583a5.902 5.902 0 0 1 1.602-.205c.464 0 .942.042 1.43.126.49.083.926.203 1.308.357v-.841c0-.824-.236-1.479-.707-1.962-.471-.484-1.107-.726-1.907-.726-.499 0-.999.095-1.492.287-.495.19-1 .465-1.513.824l-.43-.807a8.16 8.16 0 0 1 1.772-.914 5.341 5.341 0 0 1 1.79-.304c1.132 0 2.034.328 2.702.985.668.658 1.002 1.565 1.002 2.724v4.21c0 .335.143.503.43.503v1.074a4.377 4.377 0 0 1-.484.037c-.239 0-.457-.073-.654-.216-.196-.143-.307-.358-.33-.644l-.036-.736c-.405.55-.939.977-1.602 1.282a4.768 4.768 0 0 1-2.012.457" mask="url(#v)"/>
            <path fill="#FFF" d="M71.224 301.495h1.217v-1.792h-1.217v1.792zm-1.52 14.53c-.395 0-.765-.053-1.11-.16a2.44 2.44 0 0 1-.931-.538l.59-.825c.191.167.4.28.626.341.228.06.454.09.68.09.216 0 .42-.043.617-.126.198-.084.374-.2.529-.35.154-.148.28-.324.376-.527.095-.204.143-.425.143-.664v-9.818h1.216v9.747c0 .418-.077.8-.233 1.146a2.804 2.804 0 0 1-1.493 1.477 2.58 2.58 0 0 1-1.01.207zM77.825 312.03c.538 0 1.071-.118 1.603-.35.53-.233.95-.551 1.26-.959.084-.107.155-.223.215-.35a.808.808 0 0 0 .089-.348v-1.524a7.604 7.604 0 0 0-1.27-.358 6.967 6.967 0 0 0-1.288-.125c-.871 0-1.578.177-2.12.528-.543.353-.816.84-.816 1.46 0 .252.049.497.144.736.095.239.241.453.44.644.195.191.437.347.723.467.287.12.627.18 1.02.18m-.304.93c-.477 0-.913-.074-1.306-.223a3.051 3.051 0 0 1-1.01-.619 2.817 2.817 0 0 1-.654-.914 2.631 2.631 0 0 1-.232-1.092c0-.43.094-.822.286-1.174.191-.352.459-.653.806-.905.344-.252.76-.445 1.242-.583a5.894 5.894 0 0 1 1.601-.205c.466 0 .943.042 1.432.126.489.083.926.203 1.306.357v-.841c0-.824-.235-1.479-.707-1.962-.47-.484-1.105-.726-1.905-.726-.5 0-1 .095-1.494.287-.495.19-1 .465-1.511.824l-.43-.807a8.11 8.11 0 0 1 1.772-.914 5.334 5.334 0 0 1 1.789-.304c1.133 0 2.033.328 2.703.985.666.658 1.001 1.565 1.001 2.724v4.21c0 .335.142.503.43.503v1.074a4.288 4.288 0 0 1-.484.037c-.238 0-.457-.073-.653-.216-.198-.143-.308-.358-.331-.644l-.036-.736c-.405.55-.94.977-1.602 1.282a4.768 4.768 0 0 1-2.013.457" mask="url(#v)"/>
            <path fill="#FCDE47" d="M117.057 307.515c0 6.904-5.59 12.504-12.487 12.504-6.896 0-12.487-5.6-12.487-12.504 0-6.905 5.591-12.504 12.487-12.504s12.487 5.599 12.487 12.504" mask="url(#v)"/>
        </g>
        <g transform="translate(91 274)">
            <mask id="x" fill="#fff">
                <use xlink:href="#w"/>
            </mask>
            <path d="M1 13.396c0 7.023 5.482 12.717 12.244 12.717 6.765 0 12.247-5.694 12.247-12.717C25.491 6.372 20.01.68 13.244.68 6.482.68 1 6.372 1 13.396" mask="url(#x)"/>
        </g>
        <g>
            <path fill="#FFC73C" d="M92 287.396c0-7.023 5.482-12.716 12.245-12.716 6.763 0 12.246 5.693 12.246 12.716 0 7.022-5.483 12.717-12.246 12.717-6.763 0-12.245-5.695-12.245-12.717"/>
            <path fill="#423912" d="M113.075 288.644c0 5.074-3.697 6.798-8.582 6.798-4.886 0-9.112-1.724-9.112-6.798 0 0 4.233 1.653 8.67 1.653 5.662 0 9.024-1.653 9.024-1.653"/>
        </g>
        <g>
            <g transform="translate(95 288)">
                <mask id="z" fill="#fff">
                    <use xlink:href="#y"/>
                </mask>
                <path fill="#FFF" d="M21.826-1.711c-7.223 3.65-15.421 3.919-22.854.665-1.644-.72-3.082 1.644-1.426 2.368 8.407 3.68 17.513 3.476 25.706-.665 1.611-.816.186-3.183-1.426-2.368" mask="url(#z)"/>
            </g>
            <g transform="translate(95 288)">
                <mask id="B" fill="#fff">
                    <use xlink:href="#A"/>
                </mask>
                <path fill="#FFF" d="M21.975 3.617a1.121 1.121 0 0 0-.908-.02c-.223.09-.445.171-.668.256-6.392 1.76-12.798 1.886-19.14.4-.875-.268-1.717-.53-2.518-.768a1.443 1.443 0 0 0-.485-.059c-.21-.067-.42-.128-.63-.197-1.723-.575-2.463 2.074-.75 2.644.456.152.913.293 1.372.43-.075.596.208 1.23.982 1.454 4.264 1.228 8.438 2.939 12.945 2.348 3.681-.483 7.073-1.876 10.084-3.959 1-.693.731-2.239-.284-2.529" mask="url(#B)"/>
            </g>
        </g>
        <g>
            <path stroke="#423912" stroke-linecap="round" stroke-linejoin="round" stroke-width=".4" d="M96.72 286.178s1.116-3.472 2.727 0M107.959 285.907s1.117-3.472 2.728 0"/>
            <path fill="#0096FF" d="M57.611 249.93l-1.35-7.305s16-17.09 24.071-24.578l6.846 13.46-24.59 18.902-4.977-.478z"/>
            <path fill="#FFBE9D" d="M66.692 246.68l-4.58-1.263-4.501 4.513c4.327 9.038 9.37 15.785 13.472 21.002l2.94-.198-7.33-24.054z"/>
            <path fill="#FFBE9D" d="M76.578 278.452l-.128-1.965.055-1.57.752 3.355.789.028-.45-4.25-3.574-3.316-2.939.198.456 4.11 2.19 4.646 2.004-.493 2 1.497.392-.418z"/>
            <path fill="#0096FF" d="M147 221.595l-4.21 6.12s-20.898 3.266-31.9 2.853l1.122-14.083 31.805 1.25 3.182 3.86z"/>
            <path fill="#FFBE9D" d="M138.28 217.471l2.346 4.132 6.373-.008c3.329-9.45 4.535-17.788 5.32-24.378l-2.217-1.94-11.822 22.194z"/>
            <path fill="#FFBE9D" d="M152.32 191.485l.824-3.825-.539-.578-2.65 4.283.147 3.913 2.218 1.94 2.584-3.231 1.162-2.502z"/>
            <path fill="#333" d="M458.096 357.05h-9.904v-52.949h-3.981v52.949h-9.903a3.982 3.982 0 0 0-3.981 3.982h31.75a3.982 3.982 0 0 0-3.98-3.982"/>
            <path fill="#CCC" d="M475.854 236.733h-15.612c-8.934 0-13.1 7.78-14.904 17.05l-9.31 49.234h-23.11a2.045 2.045 0 1 0 0 4.09h49.31a2.045 2.045 0 0 0 2.044-2.045h12.83l10.662-51.28c.734-10.108-2.976-17.05-11.91-17.05"/>
            <path fill="#BBB" d="M475.854 236.733h-1.506c8.934 0 12.428 6.94 11.375 17.05l-11.78 49.234h-20.839a2.045 2.045 0 1 0 0 4.09h21.953c1.13 0 2.045-.915 2.045-2.045l10.662-51.28c.734-10.108-2.976-17.05-11.91-17.05"/>
            <path fill="#545671" d="M427.414 283.654l-23.79 4.245a5.04 5.04 0 0 0-4.155 4.993l.06 9.79-.473 51.964h3.37c6.295-20.642 10.483-33.976 11.225-51.546 6.72.201 13.959.296 21.993-.227 3.571-.234 6.366-3.166 6.366-6.744l.08-11.971-14.676-.504z"/>
            <path fill="#545671" d="M444.375 283.654l-24.881 4.188a5.04 5.04 0 0 0-4.166 5.6l1.162 9.24 9.805 51.964h3.37c2.306-20.64 3.685-33.975 1.028-51.544 6.698.2 13.91.291 21.913-.23 3.57-.233 6.366-3.165 6.366-6.743l.08-11.971-14.677-.504z"/>
            <path fill="#37384F" d="M430.816 351.768h-5.11l-7.66 5.39-6.61 1.092v3.202h19.38zM404.472 351.768h-5.11l-8.089 5.39-6.697 1.092-.256 3.202h19.378z"/>
            <path fill="#FFC73C" d="M436.079 230.707h-10.215c-2.673 3.218-2.059 22.013-.97 34.145l-22.464 3.074.332 2.923c7.022 1.958 21.256 4.357 29.815-.093 0 0 4.019-26.556 3.502-40.049"/>
            <path fill="#F4ACC8" d="M402.43 267.927l-5.406-.612-3.75 2.434-.78 2.627 2.689-1.385 7.58-.143z"/>
            <path fill="#F9F9F9" d="M430.02 267.081c0-8.717-4.514-29.07-4.155-36.374 10.88-4.993 27.275-5.742 39.171 0 .395 12.232-6.878 38.345-6.878 38.345l.894 15.105h-31.085l2.054-17.076z"/>
            <path fill="#FFC73C" d="M425.864 230.707c-.358 7.304 2.478 27.657 2.478 36.374l-.375 17.076h5.749l.08-6.251.48-38.303c.039-4.537 1.197-8.62 3.355-12.3-4.265.657-8.297 1.812-11.767 3.404M452.636 227.13a52.318 52.318 0 0 0-2.17-.243c-3.191 2.93-5.32 6.95-5.754 12.715l-1.357 44.19.177.365h15.52l-.895-15.106s4.574-16.427 6.268-29.327l.612-9.017c-3.56-1.718-7.525-2.842-11.619-3.458-.262-.04-.518-.083-.782-.119"/>
            <path fill="#FFBE9D" d="M441.032 219.926l-1.288 10.666 8.26-3.828-.85-9.838z"/>
            <path fill="#FFBE9D" d="M437.807 221.367c.36 1.647 2.328 2.712 5.102.797l4.15-4.347.635-7.564-4.187-5.285-8.956 2.764 3.256 13.635z"/>
            <path fill="#37384F" d="M444.927 213.316c-.996 2.457-1.96 1.202-2.903-2.677l-7.254-.166-3.022-4.65 2.372-.11 8.768-2.126c3.891-.99 6.194 1.521 6.055 6.14l-.366 5.647c-.1 1.522-.006 2.309-1.284 3.14l-2.048-2.962-.318-2.236z"/>
            <path fill="#F4ACC8" d="M444.043 213.639c-.156 1.022.182 1.92.756 2.009.574.087 1.167-.668 1.324-1.69.156-1.02-.183-1.92-.758-2.008-.573-.087-1.165.668-1.322 1.689"/>
            <path fill="#FFC73C" d="M465.036 230.707c-3.467-1.446-10.212 1.013-10.84 3.474-.727 10.797-.653 20.578-.54 31.122l-22.384 4.474.507 2.896c7.13 1.525 21.485 3.049 29.754-1.917 0 0 7.142-36.49 3.503-40.049"/>
            <path fill="#FFBE9D" d="M431.548 269.742l-5.383-.794-3.831 2.306-.868 2.598 2.733-1.295 7.58.116z"/>
            <path fill="#333" d="M343.903 361.032h.866l13.095-86.28h-5.271l-8.69 86.28zm122.562-86.28h-5.271l13.094 86.28h.866l-8.69-86.28z"/>
            <path fill="#F9F9F9" d="M472.19 274.215H346.866a2.05 2.05 0 1 0 0 4.1H472.19a2.05 2.05 0 0 0 0-4.1"/>
            <path fill="#282828" d="M411.765 274.214h-35.058a1.02 1.02 0 0 1-1.02-1.02l-5.866-24.375c-.13-.564.223-1.021.786-1.021h35.058c.563 0 1.126.457 1.256 1.021l5.865 24.374c0 .565-.458 1.02-1.021 1.02"/>
            <path fill="#333" d="M368.929 247.798h35.058c.564 0 1.126.456 1.256 1.022l5.865 23.716h9.228v.658c0 .563-.457 1.021-1.02 1.021h-44.287c-.563 0-1.02-.458-1.02-1.021l-5.866-24.374c-.13-.566.223-1.022.786-1.022"/>
            <path fill="#282828" d="M411.108 272.535v.658a1.02 1.02 0 0 0 1.022 1.022h18.278c.564 0 1.021-.458 1.021-1.022v-.658h-20.32z"/>
            <path fill="#0096FF" d="M281.005 159.312h70.107c4.33 0 7.873 4.015 7.873 8.925v12.882c0 4.908-3.543 8.924-7.873 8.924H292.78l1.917.038c-3.301 7.484-10.438 8.258-14.045 8.132-.611-.022-.822-.903-.324-1.308 2.779-2.268 2.89-5.979 2.874-6.862h-2.197c-4.331 0-7.874-4.016-7.874-8.924v-12.882c0-4.91 3.543-8.925 7.874-8.925"/>
            <path fill="#FFF" d="M351.484 173.323a5.401 5.401 0 0 0-9.615-3.378 5.401 5.401 0 0 0-9.514 4.403h-.046s1.242 6.646 9.453 10.446c0 0 8.792-3.374 9.59-10.29.083-.382.132-.775.132-1.181M326.143 173.323a5.402 5.402 0 0 0-9.616-3.378 5.4 5.4 0 0 0-9.513 4.403h-.046s1.242 6.646 9.452 10.446c0 0 8.794-3.374 9.59-10.29.085-.382.133-.775.133-1.181M300.7 173.323a5.402 5.402 0 0 0-9.616-3.378 5.4 5.4 0 0 0-9.513 4.403h-.046s1.242 6.646 9.452 10.446c0 0 8.794-3.374 9.59-10.29.085-.382.133-.775.133-1.181"/>
            <path fill="#FFBE9D" d="M297.462 316.322c-3.285 16.38-1.198 17.653-2.325 28.569-.81 7.85-3.94 16.26-3.94 22.137h-4.337s-1.577-13.713-1.97-21.94c-.396-8.23 1.379-11.755 0-16.85-1.38-5.093-.06-22.112-.06-22.112l12.632 10.196z"/>
            <path fill="#282723" d="M286.86 367.028c.307 6.028-2.76 6.381-2.145 10.717a.415.415 0 0 0 .411.354h10.92c.275 0 .472-.26.394-.525-.311-1.055-1.159-3.384-2.681-3.942-1.986-.727-2.562-6.604-2.562-6.604h-4.337z"/>
            <path fill="#FFBE9D" d="M268.058 306.126c1.544 18.693.195 27.85 1.32 38.764.81 7.851 3.942 16.26 3.942 22.138h4.336s1.576-13.712 1.971-21.94c.394-8.23-1.38-11.755 0-16.85 1.38-5.093 1.818-22.112 1.818-22.112h-13.387z"/>
            <path fill="#282723" d="M277.656 367.028c-.308 6.028 2.759 6.381 2.145 10.717a.416.416 0 0 1-.41.354h-10.92a.408.408 0 0 1-.395-.525c.312-1.055 1.158-3.384 2.682-3.942 1.984-.727 2.562-6.604 2.562-6.604h4.336z"/>
        </g>
        <g transform="translate(266 170)">
            <mask id="D" fill="#fff">
                <use xlink:href="#C"/>
            </mask>
            <path d="M6.639.446c-.406.654-3.315 4.271-3.645 5.22-.328.95-.99 3.134-1.328 5.637-.115.842-.423 2.422-.773 4.32l4.696 1.651c.044-2.16.077-3.924.094-4.868.326-.373.504-.849.518-1.346.968-1.136 1.846-1.93 2.237-2.415.51-.64 1.046-7.712.749-8.136C9.014.263 8.323.061 7.693.061c-.459 0-.885.107-1.054.384" mask="url(#D)"/>
        </g>
        <g>
            <path fill="#DC3B41" d="M278.994 222.953c-3.6-5.712-5.751-9.838-7.747-14.49-1.303-3.04-.062-14.392.069-20.737l-4.903-1.699c-.723 3.856-5.237 19.987-3.558 24.193 2.726 6.832 3.842 9.603 5.091 14.596 2.129 8.511 4.08 8.812 6.929 8.88 5.027.124 7.72-5.033 4.119-10.743"/>
            <path fill="#FFBE9D" d="M280.263 207.525c-.704 4.03-.128 7.786 3.525 9.206l1.636-8.19-5.161-1.016z"/>
            <path fill="#FFBE9D" d="M282.18 208.495c-.025 1.239-.755 2.23-1.63 2.211-.874-.016-1.563-1.035-1.537-2.275.025-1.239.754-2.229 1.628-2.211.875.017 1.563 1.036 1.538 2.275M282.932 211.512v10.306s3.058 3.42 8.89 1.919v-12.7l-8.89.475z"/>
            <path fill="#DC3B41" d="M279.322 222.019c6.776-2.828 16.272 1.62 22.513 5.35 0 0 .603 11.492-4.72 19.103-5.324 7.61-1.096 14.289 1.096 20.657 2.19 6.367 6.889 15.996-.627 49.389l-34.6-4.815s-.67-21.899 5.223-37.585c5.893-15.687 6.676-23.453 5.736-28.888-.94-5.436-2.954-11.549-4.553-16.067-.958-2.708 7.02-5.929 9.932-7.144"/>
            <path fill="#DC3B41" d="M301.835 227.368s-2.955 8.833-3.67 14.63c-.716 5.798-.714 17.816-.335 21.473.38 3.658 5.37 25.78 5.37 25.78h4.94s-3.007-23.436-3.007-27.484c0-4.048 4.541-30.41-3.298-34.399"/>
            <path fill="#FFBE9D" d="M303.2 289.251c-.103 2.611.915 4.009 1.228 4.94.313.932-.869 2.951-1.57 3.03-.7.078-.261 2.564.81 2.564 1.073 0 4.987-1.942 5.614-2.876.626-.93-1.143-7.658-1.143-7.658h-4.94z"/>
            <path fill="#282723" d="M280.724 202.764c-.43.785-.73 1.654-.768 2.546-.04.957.216 1.9.47 2.823.414 1.494.825 2.988 1.24 4.481.215.785.443 1.593.95 2.233.834 1.049 2.234 1.44 3.539 1.768.945.238 1.938.478 2.886.245 1.15-.283 2.011-1.204 2.802-2.081 1.245-1.382 2.527-2.83 3.043-4.61.501-1.722.227-3.56-.047-5.33-.192-1.228-.403-2.507-1.131-3.519-.803-1.115-2.093-1.7-3.39-2.054-1.015-.277-2.262-.743-3.323-.682-2.563.147-5.074 1.993-6.271 4.18"/>
            <path fill="#282723" d="M290.264 209.952c.16 1.797-1.735 2.99-2.879 4.392-1.371 1.682-1.723 4.122-.882 6.116.938 2.226 3.206 3.893 3.458 6.292.19 1.794-.829 3.489-1.973 4.89-1.145 1.4-2.484 2.71-3.14 4.39-.973 2.491-.078 5.622 2.172 7.088 2.249 1.469 5.637.954 7.206-1.214 1.189-1.642 1.273-3.85 2.305-5.593 1.12-1.893 3.39-3.052 5.593-2.858 3.605.318 6.314 3.805 9.92 4.127 3.006.271 5.918-1.967 6.818-4.827.901-2.858-.018-6.095-1.951-8.396-1.935-2.3-4.767-3.73-7.702-4.435-1.455-.348-2.967-.538-4.33-1.154-1.363-.616-2.597-1.782-2.771-3.257-.226-1.93 1.34-4.041.301-5.687-1.04-1.646-3.552-1.297-5.16-1.925-2.3-.9-3.311-3.047-5.145-4.499-1.488-1.179-3.322-.971-3.953 1.118-.69 2.28 1.931 3.37 2.113 5.432"/>
        </g>
        <g>
            <g transform="translate(508 136)">
                <mask id="F" fill="#fff">
                    <use xlink:href="#E"/>
                </mask>
                <path fill="#FF3453" d="M111.615 111.478l104.83 34.215c-18.81 58.156-80.995 89.982-138.891 71.087-57.898-18.897-89.58-81.36-70.77-139.516C21.834 30.739 62.914.758 111.615.758v110.72z" mask="url(#F)"/>
            </g>
            <g transform="translate(508 136)">
                <mask id="H" fill="#fff">
                    <use xlink:href="#G"/>
                </mask>
                <path fill="#BADC00" d="M111.615 111.478V.758c60.877 0 110.226 49.571 110.226 110.72 0 12.231-1.632 22.585-5.395 34.215l-104.83-34.215z" mask="url(#H)"/>
            </g>
        </g>
        <g>
            <path stroke="#FF3453" stroke-linecap="round" stroke-linejoin="round" d="M602.842 145.935v-1.5"/>
            <path stroke="#FF3453" stroke-dasharray="2.969,2.969" stroke-linecap="round" stroke-linejoin="round" d="M602.842 141.466V95.443"/>
            <path stroke="#FF3453" stroke-linecap="round" stroke-linejoin="round" d="M602.842 93.958v-1.5h-1.5"/>
            <path stroke="#FF3453" stroke-dasharray="2.988,2.988" stroke-linecap="round" stroke-linejoin="round" d="M598.355 92.458h-159.86"/>
            <g stroke-linecap="round" stroke-linejoin="round">
                <path stroke="#FF3453" d="M437 92.458h-1.5"/>
                <path stroke="#BADC00" d="M635 145.935v-1.5"/>
            </g>
            <path stroke="#BADC00" stroke-dasharray="2.969,2.969" stroke-linecap="round" stroke-linejoin="round" d="M635 141.466V95.443"/>
            <path stroke="#BADC00" stroke-linecap="round" stroke-linejoin="round" d="M635 93.958v-1.5h1.5"/>
            <path stroke="#BADC00" stroke-dasharray="3.008,3.008" stroke-linecap="round" stroke-linejoin="round" d="M639.509 92.458h172.987"/>
            <path stroke="#BADC00" stroke-linecap="round" stroke-linejoin="round" d="M814 92.458h1.5"/>
            <path fill="#FF3453" d="M475.52 17.642h-22v-8.31h36.372l-24.044 48.36h-10.285z"/>
            <g transform="translate(435 -.565)">
                <path fill="#FF3453" d="M84.454 29.65c0-1.816-.205-3.484-.613-5.007-.409-1.52-.988-2.826-1.738-3.916-.749-1.09-1.634-1.93-2.656-2.52a6.619 6.619 0 0 0-3.37-.886c-1.273 0-2.432.296-3.476.886-1.044.59-1.94 1.43-2.69 2.52-.749 1.09-1.328 2.396-1.736 3.916-.409 1.523-.614 3.191-.614 5.007 0 1.816.205 3.474.614 4.972.408 1.499.987 2.793 1.736 3.882.75 1.09 1.646 1.931 2.69 2.521 1.044.591 2.203.885 3.475.885 1.226 0 2.35-.294 3.371-.885 1.022-.59 1.907-1.431 2.656-2.521.75-1.089 1.33-2.383 1.738-3.882.408-1.498.613-3.156.613-4.972m9.195 0c0 2.997-.443 5.755-1.328 8.275-.886 2.521-2.112 4.701-3.679 6.539a16.587 16.587 0 0 1-5.584 4.291c-2.158 1.022-4.486 1.533-6.982 1.533-2.544 0-4.893-.511-7.05-1.533a16.585 16.585 0 0 1-5.586-4.291c-1.566-1.838-2.792-4.018-3.677-6.539-.886-2.52-1.329-5.278-1.329-8.275 0-2.997.443-5.756 1.33-8.276.884-2.52 2.11-4.7 3.676-6.539a16.996 16.996 0 0 1 5.586-4.325c2.157-1.044 4.506-1.567 7.05-1.567 2.496 0 4.824.523 6.982 1.567a16.999 16.999 0 0 1 5.584 4.325c1.567 1.839 2.793 4.019 3.68 6.539.884 2.52 1.327 5.279 1.327 8.276M137.106 45.724c1.362 0 2.52-.567 3.474-1.702.953-1.135 1.43-2.475 1.43-4.02 0-1.589-.488-2.95-1.465-4.086-.976-1.134-2.123-1.703-3.44-1.703-.681 0-1.305.16-1.873.477a5.749 5.749 0 0 0-1.532 1.26 5.643 5.643 0 0 0-1.056 1.84 6.569 6.569 0 0 0-.375 2.212c0 1.591.477 2.942 1.43 4.053.954 1.113 2.09 1.67 3.406 1.67zm0 4.563c-1.544 0-2.998-.272-4.36-.816-1.363-.545-2.544-1.27-3.542-2.18a10.219 10.219 0 0 1-2.384-3.236c-.59-1.248-.885-2.599-.885-4.053 0-1.452.294-2.802.885-4.052a10.646 10.646 0 0 1 2.385-3.269c.997-.93 2.178-1.669 3.541-2.214 1.362-.545 2.815-.817 4.36-.817 1.589 0 3.065.272 4.428.817a11.726 11.726 0 0 1 3.575 2.214 9.96 9.96 0 0 1 2.383 3.27c.568 1.25.852 2.6.852 4.051 0 1.454-.284 2.805-.851 4.053a9.581 9.581 0 0 1-2.385 3.236c-1.022.91-2.214 1.635-3.575 2.18-1.362.544-2.838.816-4.427.816zM110.814 16.64c.68 0 1.305-.159 1.873-.477a5.741 5.741 0 0 0 1.532-1.26 5.651 5.651 0 0 0 1.056-1.839 6.583 6.583 0 0 0 .374-2.214c0-1.589-.477-2.939-1.43-4.053-.953-1.112-2.09-1.669-3.405-1.669-.682 0-1.306.16-1.873.477a5.752 5.752 0 0 0-1.532 1.261 5.693 5.693 0 0 0-1.058 1.804 6.277 6.277 0 0 0-.373 2.18c0 .817.124 1.58.374 2.282a5.607 5.607 0 0 0 1.056 1.84c.454.522.975.93 1.567 1.225a4.045 4.045 0 0 0 1.839.443zm-7.356 29.766l19.207-22.41L140.375.701l4.155 3.678-18.8 21.933-18.118 23.771-4.154-3.677zm7.356-25.203c-1.544 0-2.997-.272-4.36-.817-1.362-.545-2.554-1.282-3.576-2.214a10.356 10.356 0 0 1-2.418-3.269c-.59-1.248-.885-2.599-.885-4.053a9.44 9.44 0 0 1 .885-4.019 9.915 9.915 0 0 1 2.418-3.269c1.022-.908 2.213-1.635 3.576-2.18 1.363-.545 2.816-.817 4.36-.817 1.589 0 3.065.272 4.428.817 1.361.545 2.552 1.272 3.575 2.18a9.53 9.53 0 0 1 2.385 3.27 9.78 9.78 0 0 1 .85 4.018c0 1.454-.285 2.805-.85 4.053a9.936 9.936 0 0 1-2.385 3.27c-1.022.931-2.213 1.668-3.575 2.213-1.364.545-2.84.817-4.428.817z"/>
                <path fill="#BADC00" d="M248.951 33.532c2.861.5 5.165 1.852 6.914 4.053 1.747 2.203 2.622 4.893 2.622 8.072 0 2.135-.42 4.063-1.26 5.789a12.394 12.394 0 0 1-3.576 4.394c-1.545 1.202-3.406 2.133-5.586 2.793-2.179.657-4.609.987-7.288.987-3.497 0-6.572-.557-9.229-1.67-2.657-1.112-4.848-2.735-6.573-4.87l5.177-6.47c1.18 1.499 2.576 2.656 4.19 3.474 1.61.817 3.643 1.226 6.095 1.226 2.77 0 4.893-.545 6.368-1.634 1.476-1.09 2.214-2.77 2.214-5.041 0-2.361-.84-4.177-2.52-5.45-1.68-1.27-4.223-1.906-7.629-1.906h-1.907v-6.811h2.112c2.77 0 4.926-.624 6.471-1.873 1.543-1.25 2.315-2.85 2.315-4.803 0-1.862-.625-3.246-1.873-4.155-1.249-.908-2.894-1.362-4.938-1.362-2.089 0-3.962.477-5.62 1.43-1.658.954-3.008 2.294-4.052 4.019l-5.722-6.403c.682-1.044 1.59-1.985 2.725-2.826 1.134-.84 2.418-1.567 3.848-2.181a23.886 23.886 0 0 1 4.666-1.43 25.957 25.957 0 0 1 5.177-.51c2.316 0 4.427.296 6.334.885 1.907.59 3.542 1.408 4.904 2.453 1.363 1.045 2.418 2.304 3.167 3.78.75 1.476 1.124 3.122 1.124 4.937 0 1.363-.204 2.658-.613 3.883a11.222 11.222 0 0 1-1.77 3.338 10.845 10.845 0 0 1-2.759 2.52 9.596 9.596 0 0 1-3.508 1.362M290.433 29.65c0-1.816-.205-3.484-.613-5.007-.41-1.52-.988-2.826-1.738-3.916-.75-1.09-1.634-1.93-2.656-2.52a6.619 6.619 0 0 0-3.371-.886c-1.272 0-2.431.296-3.475.886-1.044.59-1.94 1.43-2.69 2.52s-1.328 2.396-1.736 3.916c-.41 1.523-.614 3.191-.614 5.007 0 1.816.205 3.474.614 4.972.408 1.499.987 2.793 1.736 3.882.75 1.09 1.646 1.931 2.69 2.521 1.044.591 2.203.885 3.475.885 1.226 0 2.35-.294 3.37-.885 1.023-.59 1.908-1.431 2.657-2.521.75-1.089 1.329-2.383 1.738-3.882.408-1.498.613-3.156.613-4.972m9.195 0c0 2.997-.443 5.755-1.328 8.275-.886 2.521-2.112 4.701-3.68 6.539a16.587 16.587 0 0 1-5.583 4.291c-2.158 1.022-4.486 1.533-6.982 1.533-2.544 0-4.893-.511-7.05-1.533a16.585 16.585 0 0 1-5.586-4.291c-1.566-1.838-2.792-4.018-3.677-6.539-.886-2.52-1.33-5.278-1.33-8.275 0-2.997.444-5.756 1.33-8.276.885-2.52 2.11-4.7 3.677-6.539a16.996 16.996 0 0 1 5.586-4.325c2.157-1.044 4.506-1.567 7.05-1.567 2.496 0 4.824.523 6.982 1.567a16.999 16.999 0 0 1 5.584 4.325c1.567 1.839 2.793 4.019 3.679 6.539.885 2.52 1.328 5.279 1.328 8.276M343.083 45.724c1.362 0 2.521-.567 3.474-1.702.954-1.135 1.43-2.475 1.43-4.02 0-1.589-.488-2.95-1.465-4.086-.976-1.134-2.123-1.703-3.439-1.703-.682 0-1.306.16-1.873.477a5.749 5.749 0 0 0-1.533 1.26 5.643 5.643 0 0 0-1.056 1.84 6.569 6.569 0 0 0-.374 2.212c0 1.591.477 2.942 1.43 4.053.954 1.113 2.089 1.67 3.406 1.67zm0 4.563c-1.544 0-2.997-.272-4.359-.816-1.363-.545-2.544-1.27-3.542-2.18a10.219 10.219 0 0 1-2.384-3.236c-.591-1.248-.886-2.599-.886-4.053 0-1.452.295-2.802.886-4.052a10.646 10.646 0 0 1 2.384-3.269c.998-.93 2.179-1.669 3.542-2.214 1.362-.545 2.815-.817 4.359-.817 1.589 0 3.065.272 4.428.817a11.726 11.726 0 0 1 3.575 2.214 9.96 9.96 0 0 1 2.384 3.27c.567 1.25.851 2.6.851 4.051 0 1.454-.284 2.805-.851 4.053a9.581 9.581 0 0 1-2.384 3.236c-1.022.91-2.214 1.635-3.575 2.18-1.363.544-2.839.816-4.428.816zM316.791 16.64c.681 0 1.305-.159 1.873-.477a5.741 5.741 0 0 0 1.532-1.26 5.651 5.651 0 0 0 1.056-1.839 6.583 6.583 0 0 0 .375-2.214c0-1.589-.477-2.939-1.431-4.053-.953-1.112-2.089-1.669-3.405-1.669-.682 0-1.306.16-1.873.477a5.752 5.752 0 0 0-1.532 1.261 5.693 5.693 0 0 0-1.057 1.804 6.277 6.277 0 0 0-.374 2.18c0 .817.124 1.58.374 2.282a5.607 5.607 0 0 0 1.057 1.84c.453.522.975.93 1.566 1.225a4.045 4.045 0 0 0 1.839.443zm-7.356 29.766l19.208-22.41L346.353.701l4.154 3.678-18.799 21.933-18.118 23.771-4.155-3.677zm7.356-25.203c-1.544 0-2.997-.272-4.359-.817-1.363-.545-2.555-1.282-3.577-2.214a10.356 10.356 0 0 1-2.418-3.269c-.59-1.248-.885-2.599-.885-4.053a9.44 9.44 0 0 1 .885-4.019 9.915 9.915 0 0 1 2.418-3.269c1.022-.908 2.214-1.635 3.577-2.18 1.362-.545 2.815-.817 4.359-.817 1.589 0 3.065.272 4.428.817 1.362.545 2.553 1.272 3.575 2.18a9.53 9.53 0 0 1 2.385 3.27 9.78 9.78 0 0 1 .85 4.018c0 1.454-.284 2.805-.85 4.053a9.936 9.936 0 0 1-2.385 3.27c-1.022.931-2.213 1.668-3.575 2.213-1.363.545-2.839.817-4.428.817z"/>
                <path fill="#333" d="M23.059 75.395a3.94 3.94 0 0 0-.182-1.222 2.726 2.726 0 0 0-.533-.963 2.378 2.378 0 0 0-.864-.623 2.91 2.91 0 0 0-1.163-.22h-1.561v6.083h1.56c.442 0 .835-.077 1.177-.234.342-.156.629-.37.858-.644a2.87 2.87 0 0 0 .526-.968c.12-.372.182-.775.182-1.209zm-6.097 4.628v-9.23h3.355c.754 0 1.414.122 1.982.364a4.066 4.066 0 0 1 1.423.988c.382.416.668.903.858 1.462.19.56.287 1.155.287 1.788 0 .702-.107 1.337-.32 1.904a4.06 4.06 0 0 1-.916 1.456 4.104 4.104 0 0 1-1.436.936c-.56.222-1.186.332-1.878.332h-3.355z"/>
                <mask id="J" fill="#fff">
                    <use xlink:href="#I"/>
                </mask>
                <path fill="#333" d="M26.296 80.023h1.794v-9.217h-1.794zM35.525 73.21a2.161 2.161 0 0 0-.33-.245 3.98 3.98 0 0 0-.586-.306 5.246 5.246 0 0 0-.748-.255 3.276 3.276 0 0 0-.818-.103c-.495 0-.863.091-1.106.272-.242.183-.363.439-.363.769 0 .19.045.347.136.474.09.124.223.236.396.331.174.094.393.182.657.26.264.078.57.16.916.246.45.121.861.252 1.23.391.367.14.68.313.935.52.255.209.452.458.591.749.14.29.208.647.208 1.072 0 .493-.093.915-.279 1.266a2.39 2.39 0 0 1-.747.853 3.216 3.216 0 0 1-1.093.474c-.416.1-.85.148-1.3.148a6.938 6.938 0 0 1-2.053-.312 6.35 6.35 0 0 1-1.82-.882l.792-1.547c.078.078.22.18.423.304.203.126.444.252.722.377.277.126.585.233.923.319a4.1 4.1 0 0 0 1.04.13c.987 0 1.481-.317 1.481-.95a.794.794 0 0 0-.169-.519 1.418 1.418 0 0 0-.48-.364 4.48 4.48 0 0 0-.754-.285 38.682 38.682 0 0 0-.989-.275 8.35 8.35 0 0 1-1.15-.395 3.129 3.129 0 0 1-.812-.5 1.824 1.824 0 0 1-.488-.677 2.403 2.403 0 0 1-.163-.924c0-.467.087-.883.26-1.248.174-.362.414-.665.722-.91a3.276 3.276 0 0 1 1.073-.552 4.417 4.417 0 0 1 1.312-.188c.651 0 1.248.102 1.794.306a6.704 6.704 0 0 1 1.43.721l-.793 1.456zM44.418 78.45v1.573h-6.409v-9.23h6.292v1.573h-4.498v2.224h3.886v1.455h-3.886v2.405zM50.67 69.793c-.2 0-.372-.032-.52-.093a3.111 3.111 0 0 1-.41-.2 5.121 5.121 0 0 0-.376-.201.895.895 0 0 0-.396-.093.568.568 0 0 0-.533.3.595.595 0 0 0-.078.215 1.41 1.41 0 0 0-.013.11h-.962c0-.078.025-.21.077-.395.053-.189.137-.374.254-.56.117-.188.273-.352.468-.495.195-.144.435-.213.72-.213.2 0 .372.03.515.097.143.064.277.133.403.207.125.075.25.143.377.21a.916.916 0 0 0 .422.096c.157 0 .28-.03.37-.09a.675.675 0 0 0 .3-.43c.013-.07.02-.111.02-.13h.962c0 .06-.027.183-.078.364a2.027 2.027 0 0 1-.267.558c-.126.192-.29.364-.494.514-.203.153-.457.229-.76.229zm-3.016 4.314v5.915H45.86v-9.23h1.39l4.812 6.06v-6.046h1.794v9.216H52.4l-4.746-5.915zM57.054 75.408c0 .398.059.785.175 1.157.117.372.286.702.508.988.22.287.49.516.812.689.32.174.685.26 1.092.26.416 0 .782-.088 1.099-.266.315-.178.582-.414.798-.71.217-.294.382-.625.495-.993.112-.37.168-.743.168-1.125 0-.398-.06-.784-.181-1.156a3.259 3.259 0 0 0-.514-.99 2.484 2.484 0 0 0-.806-.681 2.237 2.237 0 0 0-1.073-.253c-.416 0-.782.088-1.097.266a2.611 2.611 0 0 0-.807.702 3.11 3.11 0 0 0-.5.988 3.81 3.81 0 0 0-.17 1.124m2.562 4.68c-.65 0-1.244-.131-1.782-.397a4.386 4.386 0 0 1-1.383-1.053 4.702 4.702 0 0 1-.891-1.501 4.952 4.952 0 0 1-.313-1.73c0-.614.11-1.203.332-1.767a4.827 4.827 0 0 1 .923-1.495 4.503 4.503 0 0 1 1.398-1.034 4.039 4.039 0 0 1 1.755-.383c.65 0 1.243.137 1.78.409.538.274.997.63 1.379 1.074.38.44.676.944.884 1.508.208.562.312 1.134.312 1.715a4.74 4.74 0 0 1-.332 1.76 4.803 4.803 0 0 1-.916 1.484 4.446 4.446 0 0 1-1.392 1.027 4.023 4.023 0 0 1-1.754.383M68.962 70.793l2.274 4.445 2.315-4.445h1.936l-3.353 6.005v3.224h-1.781v-3.25l-3.341-5.98zM79.01 80.023v-9.23h1.795v7.657h4.706v1.573zM86.667 80.023h1.794v-9.217h-1.794zM92.179 74.108v5.915h-1.794v-9.23h1.39l4.81 6.058v-6.045h1.795v9.217h-1.456zM106.492 78.983c-.71.737-1.53 1.104-2.457 1.104-.59 0-1.145-.128-1.664-.389a4.418 4.418 0 0 1-1.358-1.046 4.981 4.981 0 0 1-.91-1.516 4.893 4.893 0 0 1-.333-1.78c0-.632.111-1.228.332-1.788a4.603 4.603 0 0 1 .923-1.469c.395-.42.858-.754 1.391-1a4.06 4.06 0 0 1 1.735-.371c.841 0 1.561.182 2.158.546a3.504 3.504 0 0 1 1.353 1.47l-1.339.987a2.498 2.498 0 0 0-.93-1.054 2.448 2.448 0 0 0-1.306-.363c-.382 0-.727.082-1.033.247-.309.165-.57.39-.788.676a3.34 3.34 0 0 0-.506.988 3.775 3.775 0 0 0-.182 1.183c0 .433.064.839.194 1.216s.313.704.546.981c.235.277.51.496.826.656.317.16.665.241 1.046.241.85 0 1.616-.42 2.302-1.261v-.65h-1.859v-1.313h3.34v4.745h-1.48v-1.04zM113.94 69.754h1.443v-1.547h-1.443v1.547zm-2.496 0h1.443v-1.547h-1.443v1.547zm1.963 8.748c.425 0 .782-.086 1.073-.26.291-.173.524-.399.702-.676.177-.277.303-.596.378-.955.073-.359.11-.731.11-1.111v-4.707h1.78V75.5c0 .632-.075 1.226-.227 1.78a4.089 4.089 0 0 1-.715 1.456 3.42 3.42 0 0 1-1.254.988c-.512.242-1.123.363-1.833.363-.737 0-1.363-.126-1.879-.382a3.515 3.515 0 0 1-1.255-1.014 4.062 4.062 0 0 1-.695-1.463 6.898 6.898 0 0 1-.214-1.728v-4.707h1.794V75.5c0 .389.036.764.11 1.124.073.36.199.678.377.956.178.277.409.5.695.669.287.169.637.253 1.053.253zM120.584 70.013l-1.118-.338.702-1.547h1.625l-1.209 1.885zm-1.339 10.01h1.794v-9.217h-1.794v9.217zM128.475 73.21a2.161 2.161 0 0 0-.331-.245 3.98 3.98 0 0 0-.585-.306 5.246 5.246 0 0 0-.748-.255 3.276 3.276 0 0 0-.818-.103c-.495 0-.863.091-1.106.272-.242.183-.363.439-.363.769 0 .19.045.347.136.474.09.124.223.236.396.331.174.094.393.182.657.26.264.078.57.16.916.246.45.121.86.252 1.229.391.368.14.68.313.936.52.255.209.452.458.59.749.14.29.209.647.209 1.072 0 .493-.093.915-.28 1.266a2.39 2.39 0 0 1-.746.853 3.216 3.216 0 0 1-1.093.474c-.416.1-.85.148-1.3.148a6.938 6.938 0 0 1-2.053-.312 6.35 6.35 0 0 1-1.821-.882l.793-1.547c.078.078.219.18.423.304.203.126.444.252.722.377.277.126.585.233.923.319a4.1 4.1 0 0 0 1.04.13c.987 0 1.48-.317 1.48-.95a.794.794 0 0 0-.168-.519 1.418 1.418 0 0 0-.48-.364 4.48 4.48 0 0 0-.754-.285 38.682 38.682 0 0 0-.99-.275 8.35 8.35 0 0 1-1.15-.395 3.129 3.129 0 0 1-.811-.5 1.824 1.824 0 0 1-.488-.677 2.403 2.403 0 0 1-.163-.924c0-.467.087-.883.26-1.248.174-.362.414-.665.722-.91a3.276 3.276 0 0 1 1.073-.552 4.417 4.417 0 0 1 1.312-.188c.65 0 1.248.102 1.794.306a6.704 6.704 0 0 1 1.43.721l-.793 1.456zM137.809 72.366h-2.938v7.657h-1.794v-7.657h-2.952v-1.573h7.684zM138.966 80.023h1.794v-9.217h-1.794zM142.138 75.343c0-.563.1-1.12.299-1.67.199-.55.487-1.043.864-1.476a4.347 4.347 0 0 1 1.385-1.053c.546-.269 1.17-.404 1.872-.404.823 0 1.536.187 2.139.56.602.373 1.046.857 1.332 1.455l-1.378.95a2.036 2.036 0 0 0-.943-1.078 2.49 2.49 0 0 0-.604-.229 2.713 2.713 0 0 0-.598-.07c-.425 0-.798.09-1.118.272-.32.181-.587.418-.8.708-.212.291-.372.62-.48.988a3.862 3.862 0 0 0-.163 1.1c0 .406.063.8.188 1.176.126.376.304.708.533.994a2.7 2.7 0 0 0 .826.69c.32.172.67.26 1.053.26.199 0 .403-.027.61-.079a2.325 2.325 0 0 0 1.144-.683c.165-.177.3-.39.404-.643l1.469.845a2.703 2.703 0 0 1-.604.916 3.88 3.88 0 0 1-.904.67 4.708 4.708 0 0 1-1.066.416 4.463 4.463 0 0 1-1.105.143 3.761 3.761 0 0 1-1.761-.416 4.616 4.616 0 0 1-1.378-1.086 4.936 4.936 0 0 1-.898-1.52 4.916 4.916 0 0 1-.318-1.736M154.695 72.73l-1.325 3.73h2.612l-1.287-3.73zm-4.367 7.293l3.64-9.23h1.456l3.626 9.23h-1.898l-.845-2.301h-3.237l-.845 2.301h-1.897zM235.059 75.395a3.94 3.94 0 0 0-.182-1.222 2.726 2.726 0 0 0-.533-.963 2.378 2.378 0 0 0-.864-.623 2.91 2.91 0 0 0-1.163-.22h-1.561v6.083h1.56c.442 0 .835-.077 1.177-.234.342-.156.629-.37.858-.644a2.87 2.87 0 0 0 .526-.968c.12-.372.182-.775.182-1.209zm-6.097 4.628v-9.23h3.355c.754 0 1.414.122 1.982.364a4.066 4.066 0 0 1 1.423.988c.382.416.668.903.858 1.462.19.56.287 1.155.287 1.788 0 .702-.107 1.337-.32 1.904a4.06 4.06 0 0 1-.916 1.456 4.104 4.104 0 0 1-1.436.936c-.56.222-1.186.332-1.878.332h-3.355zM244.705 78.45v1.573h-6.409v-9.23h6.292v1.573h-4.498v2.224h3.886v1.455h-3.886v2.405zM251.542 73.21a2.161 2.161 0 0 0-.331-.245 3.98 3.98 0 0 0-.585-.306 5.246 5.246 0 0 0-.748-.255 3.276 3.276 0 0 0-.818-.103c-.495 0-.863.091-1.106.272-.242.183-.363.439-.363.769 0 .19.045.347.136.474.09.124.223.236.396.331.174.094.393.182.657.26.264.078.57.16.916.246.45.121.861.252 1.229.391.368.14.68.313.936.52.255.209.452.458.591.749.139.29.208.647.208 1.072 0 .493-.093.915-.279 1.266a2.39 2.39 0 0 1-.747.853 3.216 3.216 0 0 1-1.093.474c-.416.1-.85.148-1.3.148a6.938 6.938 0 0 1-2.053-.312 6.35 6.35 0 0 1-1.821-.882l.793-1.547c.078.078.219.18.423.304.203.126.444.252.722.377.277.126.585.233.923.319a4.1 4.1 0 0 0 1.04.13c.987 0 1.481-.317 1.481-.95a.794.794 0 0 0-.169-.519 1.418 1.418 0 0 0-.48-.364 4.48 4.48 0 0 0-.754-.285 38.682 38.682 0 0 0-.989-.275 8.35 8.35 0 0 1-1.15-.395 3.129 3.129 0 0 1-.812-.5 1.824 1.824 0 0 1-.488-.677 2.403 2.403 0 0 1-.163-.924c0-.467.087-.883.26-1.248.174-.362.414-.665.722-.91a3.276 3.276 0 0 1 1.073-.552 4.417 4.417 0 0 1 1.312-.188c.651 0 1.248.102 1.794.306a6.704 6.704 0 0 1 1.43.721l-.793 1.456zM257.275 72.73l-1.325 3.73h2.612l-1.287-3.73zm-4.367 7.293l3.64-9.23h1.456l3.626 9.23h-1.898l-.845-2.301h-3.237l-.845 2.301h-1.897zM264.412 75.356h2.25a.953.953 0 0 0 .461-.117c.143-.077.267-.185.37-.319.105-.133.187-.292.247-.474a1.83 1.83 0 0 0 .091-.585c0-.217-.034-.416-.104-.598a1.56 1.56 0 0 0-.28-.474 1.255 1.255 0 0 0-.402-.313 1.061 1.061 0 0 0-.462-.11h-2.17v2.99zm-1.794 4.667v-9.23h4.082c.425 0 .816.089 1.177.267.36.178.67.411.93.701.26.291.462.62.61.989a3.073 3.073 0 0 1-.228 2.743 2.577 2.577 0 0 1-1.214 1.059l2.17 3.471h-2.028l-1.936-3.094h-1.769v3.094h-1.794zM273.175 75.356h2.249a.953.953 0 0 0 .462-.117c.143-.077.267-.185.37-.319.105-.133.187-.292.247-.474a1.83 1.83 0 0 0 .09-.585c0-.217-.033-.416-.103-.598a1.56 1.56 0 0 0-.28-.474 1.255 1.255 0 0 0-.402-.313 1.061 1.061 0 0 0-.462-.11h-2.171v2.99zm-1.794 4.667v-9.23h4.082c.425 0 .816.089 1.177.267.359.178.669.411.93.701.259.291.462.62.61.989a3.073 3.073 0 0 1-.228 2.743 2.577 2.577 0 0 1-1.214 1.059l2.17 3.471h-2.028l-1.936-3.094h-1.77v3.094h-1.793zM281.313 75.408c0 .398.059.785.175 1.157.116.372.286.702.507.988.22.287.491.516.813.689.32.174.685.26 1.091.26.416 0 .783-.088 1.1-.266.314-.178.581-.414.797-.71.218-.294.382-.625.495-.993.113-.37.168-.743.168-1.125 0-.398-.06-.784-.18-1.156a3.259 3.259 0 0 0-.514-.99 2.484 2.484 0 0 0-.806-.681 2.237 2.237 0 0 0-1.074-.253c-.416 0-.781.088-1.096.266a2.611 2.611 0 0 0-.808.702 3.11 3.11 0 0 0-.5.988 3.81 3.81 0 0 0-.168 1.124m2.56 4.68c-.65 0-1.243-.131-1.781-.397a4.386 4.386 0 0 1-1.383-1.053 4.702 4.702 0 0 1-.892-1.501 4.952 4.952 0 0 1-.313-1.73c0-.614.111-1.203.332-1.767a4.827 4.827 0 0 1 .923-1.495 4.503 4.503 0 0 1 1.399-1.034 4.039 4.039 0 0 1 1.755-.383c.65 0 1.243.137 1.78.409.538.274.997.63 1.379 1.074.38.44.675.944.883 1.508.209.562.313 1.134.313 1.715a4.74 4.74 0 0 1-.332 1.76 4.803 4.803 0 0 1-.916 1.484 4.446 4.446 0 0 1-1.392 1.027 4.023 4.023 0 0 1-1.755.383M289.658 80.023v-9.23h1.794v7.657h4.706v1.573zM297.315 80.023v-9.23h1.794v7.657h4.706v1.573zM305.883 75.408c0 .398.059.785.175 1.157.117.372.286.702.508.988.22.287.49.516.812.689.32.174.685.26 1.092.26.416 0 .782-.088 1.099-.266.315-.178.582-.414.798-.71.217-.294.382-.625.495-.993.112-.37.168-.743.168-1.125 0-.398-.06-.784-.181-1.156a3.259 3.259 0 0 0-.514-.99 2.484 2.484 0 0 0-.806-.681 2.237 2.237 0 0 0-1.073-.253c-.416 0-.782.088-1.097.266a2.611 2.611 0 0 0-.807.702 3.11 3.11 0 0 0-.5.988 3.81 3.81 0 0 0-.17 1.124m2.562 4.68c-.65 0-1.244-.131-1.782-.397a4.386 4.386 0 0 1-1.383-1.053 4.702 4.702 0 0 1-.891-1.501 4.952 4.952 0 0 1-.313-1.73c0-.614.11-1.203.332-1.767a4.827 4.827 0 0 1 .923-1.495 4.503 4.503 0 0 1 1.398-1.034 4.039 4.039 0 0 1 1.755-.383c.65 0 1.243.137 1.78.409.538.274.997.63 1.379 1.074.38.44.676.944.884 1.508.208.562.312 1.134.312 1.715a4.74 4.74 0 0 1-.332 1.76 4.803 4.803 0 0 1-.916 1.484 4.446 4.446 0 0 1-1.392 1.027 4.023 4.023 0 0 1-1.754.383" mask="url(#J)"/>
            </g>
        </g>
    </g>
</svg>
