<svg xmlns="http://www.w3.org/2000/svg" width="147" height="159" viewBox="0 0 147 159">
    <g fill="none" fill-rule="evenodd">
        <path fill="#000" d="M44.21 1v28.8H17.783V1H0v72h17.783V44.808H44.21V73H62V1z"/>
        <path fill="#DC3B41" d="M108.716 58.427c10.885 0 19.628-9.265 19.628-21.55 0-11.789-8.743-20.65-19.628-20.65-10.883 0-19.627 8.861-19.627 20.65 0 12.285 8.744 21.55 19.627 21.55m0-58.315c21.968 0 38.043 16.115 38.043 36.764 0 21.152-16.075 37.666-38.043 37.666-21.972 0-38.042-16.514-38.042-37.666 0-20.649 16.07-36.764 38.042-36.764"/>
        <path fill="#000" d="M0 86.984h17.796v56.906h29.702V159H0zM86.343 103.4s-1.627 7.862-2.945 12.39l-4.171 14h14.337l-4.066-14c-1.324-4.528-2.95-12.39-2.95-12.39h-.205zm11.392 40.49h-22.68L70.683 159h-18.31l24.72-72.016h18.712L120.52 159h-18.305l-4.48-15.11zM128.962 159h16.075v-15.11h-16.075V159zm-1.116-72.016h18.305l-1.628 49.756h-15.049l-1.628-49.756z"/>
    </g>
</svg>
