<svg xmlns="http://www.w3.org/2000/svg" width="39" height="42" viewBox="0 0 39 42">
    <g fill="none" fill-rule="evenodd">
        <path fill="#000" d="M11.73.264v7.608H4.717V.264H0v19.019h4.718v-7.447h7.011v7.447h4.72V.264z"/>
        <path fill="#DC3B41" d="M28.843 15.434c2.888 0 5.207-2.448 5.207-5.693 0-3.114-2.32-5.455-5.207-5.455s-5.207 2.341-5.207 5.455c0 3.245 2.32 5.693 5.207 5.693m0-15.404c5.828 0 10.093 4.256 10.093 9.71 0 5.588-4.265 9.95-10.093 9.95-5.83 0-10.093-4.362-10.093-9.95 0-5.454 4.264-9.71 10.093-9.71"/>
        <path fill="#000" d="M0 22.977h4.721v15.032h7.88V42H0zM22.907 27.313s-.431 2.077-.781 3.273l-1.107 3.698h3.804l-1.079-3.698c-.35-1.196-.782-3.273-.782-3.273h-.055zM25.93 38.01h-6.017L18.753 42h-4.859l6.559-19.023h4.964L31.974 42h-4.856L25.93 38.01zM34.214 42h4.265v-3.991h-4.265V42zm-.296-19.023h4.857l-.432 13.143H34.35l-.432-13.143z"/>
    </g>
</svg>
