<svg xmlns="http://www.w3.org/2000/svg" xmlns:xlink="http://www.w3.org/1999/xlink" width="719" height="497" viewBox="0 0 719 497">
    <defs>
        <path id="a" d="M0 .364h41.112v43.92H0z"/>
        <path id="c" d="M0 497h720V0H0z"/>
    </defs>
    <g fill="none" fill-rule="evenodd">
        <path fill="#EEA886" d="M86 299c-4.013-.26-6.12-.389-6.12-.389.659-3.515.792-6.185.46-7.943-2.235-1.498-4.802-3.06-5.13-5.663-.856-4.624.92-6.577 5.13-5.86 2.107.324 5.33 6.9 5.07 9.244.196 3.189.393 6.64.59 10.611"/>
        <g transform="translate(0 245)">
            <mask id="b" fill="#fff">
                <use xlink:href="#a"/>
            </mask>
            <path fill="#CCC" d="M24.498.364l16.614 34.338-17.146 8.436-.198.066c-4.918 2.342-10.766.737-13.89-3.48-3.722-.738-6.977-3.079-8.638-6.627a12.473 12.473 0 0 1 .065-10.977c-1.328-5.156.997-10.712 5.848-13.187l.2-.134L24.497.364z" mask="url(#b)"/>
        </g>
        <path fill="#FFE300" d="M69.281 282.666c9.774 2.45 20.347 1.588 29.989-3.113 21.941-10.664 30.984-37.223 20.146-59.344-10.839-22.123-37.436-31.461-59.378-20.797-10.172 4.965-17.554 13.312-21.476 23.05C34.44 232.592 35.37 238.355 24 245.508l16.623 33.977c12.632-4.305 18.02.463 28.658 3.18"/>
        <path fill="#BBB" d="M12.84 251.24c-.727-1.058-2.115-1.389-3.17-.726a2.255 2.255 0 0 0-.728 3.106l19.418 31.071a2.247 2.247 0 0 0 3.103.728c1.122-.661 1.453-2.049.792-3.106l-19.416-31.072zm6.406-3.108c-.727-1.125-2.114-1.455-3.17-.793-1.057.662-1.388 2.115-.728 3.175l19.417 31.071a2.255 2.255 0 0 0 3.106.728c1.12-.663 1.451-2.051.791-3.175l-19.416-31.006zm-13.012 6.28a2.252 2.252 0 0 0-3.104-.727c-1.122.662-1.453 2.117-.79 3.174l19.414 31.073c.726 1.059 2.115 1.388 3.17.726 1.124-.661 1.454-2.113.729-3.173L6.234 254.412z"/>
        <path fill="#FEFEFE" d="M64.51 230.123a7.785 7.785 0 0 1-.664-4.005 7.02 7.02 0 0 1 1.722-3.679c.93-1.05 2.189-1.772 3.512-2.166a7.103 7.103 0 0 1 4.04.196 6.835 6.835 0 0 1 3.313 2.366c.863 1.05 1.324 2.363 1.458 3.808a6.878 6.878 0 0 1-.994 3.94 7.112 7.112 0 0 1-2.981 2.758l-6.295 3.02-3.111-6.238zm16.297 17.14c1.258-.592 2.716-.788 4.041-.656a7.397 7.397 0 0 1 3.71 1.706c1.06.919 1.787 2.167 2.119 3.482.33 1.313.33 2.69-.132 4.004a6.793 6.793 0 0 1-2.385 3.284c-1.127.853-2.452 1.314-3.844 1.446a7.052 7.052 0 0 1-3.974-.987c-1.192-.655-2.12-1.64-2.782-2.954l-3.048-6.237 6.295-3.088zm-50.018 11.425l34.913-16.876c2.913 5.911.397.722 3.313 6.632l-34.913 16.943L35.89 269l34.91-16.876 3.115 6.238c.93 2.035 2.517 3.612 4.372 4.727a11.44 11.44 0 0 0 6.296 1.445c2.25-.132 4.305-.92 6.028-2.233 1.72-1.247 3.047-3.087 3.774-5.188a11.03 11.03 0 0 0 .267-6.37c-.532-2.035-1.723-3.94-3.38-5.45a12.082 12.082 0 0 0-5.896-2.694c-2.12-.262-4.372.067-6.361 1.053l-6.292 3.02c-2.916-5.91-.397-.722-3.314-6.633l6.294-3.085c2.053-.985 3.643-2.496 4.77-4.335a11.15 11.15 0 0 0 1.458-6.238c-.132-2.234-.927-4.334-2.253-5.977-1.258-1.707-3.113-3.085-5.234-3.807-2.118-.722-4.371-.79-6.425-.198a10.986 10.986 0 0 0-5.499 3.348c-1.459 1.643-2.384 3.678-2.716 5.845a11.118 11.118 0 0 0 1.058 6.304l3.05 6.237L29 255.011l1.789 3.677z"/>
        <path fill="#FFE300" d="M139.802 212.106a87.394 87.394 0 0 1-12.829 4.877c-.336.065-.603-.063-.803-.322-.268-.384-.2-.767.067-.96a84.714 84.714 0 0 1 11.962-6.805c4.076-1.927 8.418-3.533 12.829-4.88.336-.066.668.064.802.385.268.322.2.77-.067.962-3.877 2.57-7.818 4.816-11.961 6.743M109.875 295.298a77.723 77.723 0 0 1 4.074 10.885c.13.268 0 .539-.258.673-.324.202-.646.202-.84-.067-2.198-3.226-4.074-6.584-5.755-10.08a75.66 75.66 0 0 1-4.073-10.95c-.064-.201 0-.47.26-.672.323-.133.644-.133.839.136 2.198 3.224 4.074 6.585 5.753 10.075M54.855 181.262c1.678 3.493 3.031 7.12 4.128 10.948.064.202-.064.472-.256.672-.325.202-.71.136-.841-.135-2.193-3.222-4.128-6.582-5.74-10.074-1.613-3.492-3.033-7.119-4.13-10.88a.597.597 0 0 1 .322-.672c.26-.2.647-.134.841.066 2.128 3.225 4.063 6.582 5.676 10.075M100.981 177.07c-1.256 4.016-2.828 7.83-4.714 11.645-.126.201-.44.334-.755.268-.313-.067-.565-.403-.502-.737.691-4.217 1.696-8.297 2.955-12.313 1.257-3.95 2.891-7.83 4.777-11.579.126-.269.376-.404.692-.337.377.136.566.469.566.737-.755 4.217-1.698 8.365-3.019 12.316M141.053 260.963a87.188 87.188 0 0 0-12.316-2.95c-.202-.063-.535.125-.671.375-.132.314-.066.754.202.88a92.606 92.606 0 0 0 11.648 4.77c4.017 1.255 8.1 2.259 12.316 2.95.27.062.538-.127.67-.378.203-.313.067-.753-.2-.878a92.054 92.054 0 0 0-11.65-4.769"/>
        <path fill="#FFF" d="M119 235.665c0-.867-.73-1.665-1.66-1.665-.926 0-1.657.732-1.657 1.665 0 3.992-.4 7.72-1.197 11.248a40.844 40.844 0 0 1-3.317 9.72 1.656 1.656 0 0 0 .73 2.198c.863.399 1.858.067 2.257-.732a45.185 45.185 0 0 0 3.583-10.453A57.226 57.226 0 0 0 119 235.665M110.772 262.53c.424-.717.242-1.762-.423-2.285-.726-.456-1.632-.26-2.116.456-.303.59-.605.98-.847 1.307-.302.39-.605.783-.968 1.24-.605.716-.543 1.762.121 2.349.604.588 1.573.522 2.117-.13.423-.521.725-.979 1.088-1.435.363-.458.664-.915 1.028-1.501"/>
        <path fill="#EEA886" d="M25.026 301c4.006-.537 6.01-.67 6.01-.67-.84-3.559-1.163-6.378-.969-8.191 2.198-1.614 4.522-3.493 4.847-6.18.517-4.765-1.293-6.578-5.365-5.776-2.068.54-4.846 7.522-4.523 9.872V301z"/>
        <path fill="#FFC8B7" d="M60 483.477c2.223 1.782 5.333 2.035 7.873.574L68 481.32l-7.873-.32-.127 2.477z"/>
        <path fill="#414773" d="M59.747 484a10.245 10.245 0 0 0-1.71 6.612L80 491c0-4.407-6.246-3.564-12.1-6.414-2.63 1.49-5.851 1.23-8.153-.586"/>
        <path fill="#FFC8B7" d="M34 483.477c2.417 1.782 5.707 2.035 8.328.574l.672-2.86-8.26-.191-.74 2.477z"/>
        <path fill="#414773" d="M34.681 484a10.618 10.618 0 0 0-1.644 6.612L55 491c0-4.407-6.248-3.564-12.165-6.414-2.566 1.49-5.788 1.23-8.154-.586"/>
        <path fill="#262222" d="M34 482l10.855-50.78-3.82-38.22L60 431.75 44.52 482z"/>
        <path fill="#E8E8E8" d="M82.78 330.368C76.31 339.914 69.64 345.18 64.225 349c-.922-7.966-1.185-8.493-2.375-9.876-.86-.462-.99-1.712-1.85-2.304l14.659-13.234c2.574-2.171 2.244-3.487 2.772-6.647l2.444-25.61 6.338-.329c.726 9.874 1.056 20.54.528 27.19-.462 5.792-.594 7.176-3.961 12.178"/>
        <path fill="#262222" d="M41 392.067L67.146 392 73 429.937 69.008 481h-9.647l-.332-48.029z"/>
        <path fill="#23233B" d="M54.2 330.98c4.278.27 6.122-2.219 5.528-7.465-3.29-1.007-.656-5.38 1.515-2.018.13.136.197.338.262.54.529 1.412 1.843.133 1.58-.135-.922-1.48-.856-3.498.33-4.842 2.435-.066 4.409-.674 5.857-1.613 5.922-3.9 4.08-13.182-.593-11.163-5.331 2.352-13.95 2.824-17.11 5.849-4.609 6.323-2.567 14.93 2.567 20.847h.064z"/>
        <path fill="#EEA886" d="M63.435 333.619c0-.974.065-2.147.194-3.255 3.877-1.237 6.072-6.12 5.17-15.364-1.423.91-3.36 1.498-5.752 1.563-1.164 1.3-1.229 3.253-.324 4.686.259.26-1.032 1.498-1.55.132-.065-.196-.13-.392-.258-.523-2.132-3.255-4.718.979-1.487 1.953.583 5.08-1.228 7.489-5.428 7.228.257 1.498.451 3.19.451 4.753 3.363-.324 5.235 2.865 8.789 2.085l.195-3.258z"/>
        <path fill="#FF9D81" d="M60 331.13a6.755 6.755 0 0 0 3.93.842c0-.323 0-.646.07-.972-1.22.326-2.577.39-4 .13"/>
        <path fill="#E8E8E8" d="M69 392.18c-12.125 2.57-22.666 2.702-29.913-1.451 1.383-10.68 2.24-29.596 2.963-43.044l-.197-3.891c-5.599-5.67-9.95-9.558-12.583-16.48-3.69-9.69-4.547-22.742-5.27-33.223 2.173-.199 4.676 0 6.85-.068 2.305 8.572 3.03 17.338 7.577 28.61 7.643 10.482 17.79 10.68 24.642 14.04 1.187 1.451 2.175 6.132 3.164 14.109.92 8.106 2.042 26.499 2.767 41.398"/>
        <path fill="#C6EAFF" d="M211.67 131.598c-2.168.28-1.015.47-7.01.47-6.04 0-17.893-.607-19.182-3.452-2.953.419-20.478 2.379-20.478-3.774 0-1.958 9.592-6.197 15.77-6.243-2.025-8.53 5.814-15.286 13.928-11.186 2.537-4.24 7.656-7.129 13.608-7.129 4.656 0 8.853 1.819 11.67 4.66 3.136-4.194 8.67-6.944 14.892-6.944 9.827 0 17.757 6.756 17.757 15.194 0 .37 0 .746-.047 1.165h.047c17.891 0 32.375 3.12 32.375 6.99 0 3.865-14.484 7.035-32.375 7.035-.323 3.634-10.054 6.616-21.996 6.616-8.072 0-15.13-1.35-18.96-3.402M375.67 46.599c-2.169.28-1.016.468-7.011.468-6.041 0-17.892-.607-19.182-3.452-2.952.42-20.477 2.379-20.477-3.772 0-1.96 9.59-6.198 15.77-6.243-2.026-8.531 5.813-15.287 13.928-11.188 2.537-4.24 7.655-7.128 13.608-7.128 4.655 0 8.853 1.819 11.67 4.66C387.111 15.75 392.643 13 398.867 13c9.825 0 17.757 6.755 17.757 15.194 0 .37 0 .745-.049 1.165h.05c17.892 0 32.374 3.12 32.374 6.99 0 3.865-14.482 7.035-32.375 7.035-.323 3.634-10.054 6.616-21.997 6.616-8.071 0-15.129-1.35-18.959-3.401M630.912 71.38C610.007 71.38 593 74.5 593 78.39c0 3.828 17.007 6.952 37.912 6.952.41 3.71 11.747 6.658 25.68 6.658 12.982 0 23.707-2.533 25.483-5.834 1.98.234 4.234.354 6.558.354 8.47 0 15.367-1.826 15.367-4.063 0-2.24-6.83-4.067-15.232-4.067 2.188-1.768 3.486-4.124 3.486-6.656 0-5.599-6.356-10.076-14.21-10.076-2.937 0-5.602.59-7.851 1.65C666.705 58.417 659.737 55 651.675 55c-11.473 0-20.763 6.834-20.763 15.199 0 .415 0 .768.067 1.18h-.067z"/>
        <path fill="#333" d="M617.215 212.441H263.788c-.739 0-1.364.287-1.82.742a2.604 2.604 0 0 0-.741 1.816v203.894c0 .738.283 1.363.742 1.818.455.453 1.08.795 1.819.795h353.427c.737 0 1.364-.342 1.818-.795.456-.455.743-1.08.743-1.818V215c0-.683-.287-1.363-.743-1.816a2.53 2.53 0 0 0-1.818-.742M263.788 200h353.427c4.096 0 7.791 1.705 10.462 4.43C630.352 207.16 632 210.853 632 215v203.894c0 4.147-1.648 7.898-4.323 10.566-2.67 2.727-6.366 4.433-10.462 4.433H479.938v20.735h18.255c6.086 0 11.088 4.09 11.088 9.033V469H371.72v-5.34c0-5 5.001-9.033 11.09-9.033h18.253v-20.735H263.788c-4.097 0-7.794-1.706-10.466-4.433-2.67-2.668-4.322-6.42-4.322-10.566V215c0-4.146 1.653-7.839 4.322-10.569 2.672-2.725 6.369-4.43 10.466-4.43"/>
        <path fill="#FFF" d="M260.555 424h359.893c.683 0 1.307-.283 1.815-.738.454-.51.737-1.134.737-1.872V213.61c0-.68-.283-1.36-.737-1.873-.508-.453-1.132-.737-1.815-.737H260.555c-.683 0-1.308.284-1.815.737-.455.512-.74 1.193-.74 1.873v207.78c0 .738.285 1.363.74 1.872.507.455 1.132.738 1.815.738"/>
        <mask id="d" fill="#fff">
            <use xlink:href="#c"/>
        </mask>
        <path fill="#CCC" d="M544 304.588h64V301h-64v3.588zm0 21.132h64v-3.588h-64v3.588zm0 6.835h32v-3.588h-32v3.588zm32-17.602h32v3.59h-64v-3.59h32zm-32 40.214h64v-3.588h-64v3.588zm0 6.833h32v-3.588h-32V362zm0-14.011h64V344.4h-64v3.588zm0-36.282h64v-3.588h-64v3.588z" mask="url(#d)"/>
        <path fill="#555" d="M359.993 416.385h-56.985l1.652-9.002h53.68l1.653 9.002zm2.284 12.623H300.72l1.54-8.377h58.476l1.54 8.377zm2.457 13.645h-66.47l1.713-9.455h63.044l1.713 9.455zm-9.08-50.104l1.942 10.644h-52.193l1.943-10.644H355.654zm-54.42 12.288s0 .054-.06.112l-2.34 13.079c0 .055-.055.112-.055.17l-2.228 12.455s-.054.054-.054.11l-2.4 13.248c-.06.227-.114.453-.114.735l-5.94 32.778c-.227 1.134.457 2.21 1.482 2.435 1.032.227 2.057-.508 2.288-1.642l5.65-31.42h68.066l5.716 31.42c.168 1.134 1.198 1.869 2.223 1.642 1.033-.225 1.714-1.301 1.489-2.435l-5.941-32.778c0-.282-.058-.508-.113-.735l-2.4-13.248c0-.056 0-.11-.054-.11l-2.227-12.456c0-.057 0-.114-.06-.169l-2.343-13.079c0-.058-.054-.112-.054-.112l-2.228-12.288h2.113c1.371 0 2.512-1.243 2.512-2.774 0-1.528-1.14-2.775-2.512-2.775H300.89c-1.369 0-2.454 1.247-2.454 2.775 0 1.53 1.085 2.774 2.454 2.774h2.573l-2.23 12.288z" mask="url(#d)"/>
        <path fill="#CCC" d="M544 234.584h64V231h-64v3.584zm0 21.168h64v-3.585h-64v3.585zm0 6.828h32v-3.583h-32v3.583zm32-17.584h32v3.584h-64v-3.584h32zm-32 40.175h64v-3.585h-64v3.585zm0 6.829h32v-3.585h-32V292zm0-14h64v-3.585h-64V278zm0-36.248h64v-3.585h-64v3.585zM405 405.172H532.374v3.628H405v-3.628zm.626-10.543H533V391H405.626v3.629zm0 21.371h63.661v-3.629h-63.661V416zm0-14.112H533v-3.63H405.626v3.63z" mask="url(#d)"/>
        <path fill="#E8E8E8" d="M272.775 73.962l28.38-8.455-25.139 10.329L289.071 87 319 60l-58 4.214z" mask="url(#d)"/>
        <path fill="#BADC00" d="M319 60l-46.27 13.839L272 85l3.973-9.303z" mask="url(#d)"/>
        <path fill="#CDCEBE" d="M280 78.816L276.74 76 273 85z" mask="url(#d)"/>
        <path fill="#E4E5DA" d="M255.238 93.76l.698-.49.675-.432.643-.507.676-.434.697-.488.248-.154-.839-1.22-.195.177-.696.489-.676.432-.698.488-.678.433-.695.485.84 1.22zm-5.76 4.204l.617-.454.622-.453.642-.508.623-.454.62-.454.252-.156-.843-1.22-.25.157-.623.453-.638.51-.677.43-.645.508-.618.456-.122.141 1.04 1.044zm-5.47 4.258l.564-.476.622-.452.589-.53.62-.454.546-.42-.862-1.166-.625.454-.564.476-.62.454-.568.476-.619.453-.49.442 1.407.743zm-5.609 4.774l.512-.497.565-.473.565-.477.57-.474.508-.498.155-.067-.939-1.13-.153.066-.51.496-.567.476-.568.476-.565.475-.511.497-.492.443 1.43.687zm-5.675 5.257l.512-.497.512-.497.49-.44.51-.497.512-.497.49-.441-1.014-1.098-.511.498-.488.44-.514.497-.514.496-.51.497-.457.518-.177.123 1.159.898zm-5.063 5.309l.433-.466.459-.516.437-.464.455-.517.491-.445.458-.517.118-.145-1.055-.986-.122.142-.512.498-.435.463-.457.517-.437.464-.455.518-.439.463-.195.178 1.256.813zm-4.53 5.39l.382-.487.379-.483.404-.54.434-.464.384-.485.433-.462.044-.112-1.136-.954-.044.11-.432.463-.382.486-.405.538-.434.464-.382.484-.402.541-.336.376 1.493.524zm-4.354 5.9l.382-.484.327-.507.325-.506.38-.483.327-.507.381-.485.142-.197-1.178-.846-.143.2-.38.484-.382.483-.325.507-.382.486-.347.562-.328.503-.283.398 1.484.392zm-3.939 6.45l.249-.476.327-.502.25-.476.326-.506.274-.529.327-.506.305-.45.043-.11-1.255-.812-.045.112-.327.503-.27.53-.326.506-.328.505-.27.529-.253.472-.325.508-.087.218 1.385.484zm-3.165 6.56l.196-.495.218-.55.25-.47.196-.496.27-.526.25-.474.217-.55.122-.141-1.321-.647-.121.143-.218.55-.27.526-.25.473-.216.548-.252.473-.218.549-.195.495-.11.274 1.452.319zm-2.618 7.094l.194-.492.141-.519.144-.516.194-.49.141-.518.195-.495.195-.494.217-.548.022-.056-1.385-.48-.021.053-.197.495-.215.547-.198.496-.14.516-.195.492-.163.572-.143.514-.14.52 1.354.403zm-1.573 6.679l.086-.536.118-.46.087-.538.087-.538.142-.514.14-.515.087-.539.087-.218-1.45-.318-.034.24-.14.515-.14.518-.087.536-.14.517-.089.537-.087.538-.14.514-.044.429 1.517-.168zm-.864 7.278l.031-.558.011-.504.088-.538.01-.503.087-.536.01-.504.085-.538.034-.241-1.497-.208v.317l-.085.538-.011.504-.085.538-.031.56-.067.48-.031.56-.031.558-.022.372 1.504-.297zm.009 7.304l-.044-.524-.045-.526.011-.505-.045-.525.01-.504-.023-.579.01-.504.001-.319-1.502-.02.05.339-.03.558-.01.503.023.583.044.524-.011.503.021.583.046.524.032.392 1.462-.503zm.838 7.438l-.047-.525-.098-.547-.12-.49-.043-.526-.1-.546-.042-.524-.1-.547-.01-.45-1.46.186.01.449.099.548.045.524.096.547.102.547.04.525.1.547.1.547.011.13 1.417-.395zm1.643 6.997l-.175-.516-.154-.566-.098-.548-.175-.514-.098-.545-.156-.568-.118-.491-.045-.21-1.448.317.043.208.154.57.099.545.173.517.157.566.096.55.155.565.175.511.074.286 1.34-.677zm2.365 7.087l-.21-.591-.227-.536-.177-.511-.205-.59-.179-.513-.23-.534-.15-.57-.044-.206-1.44.449.1.229.151.569.232.533.153.569.227.534.21.59.228.535.155.568.087.097 1.32-.622zm2.875 6.59l-.283-.558-.285-.553-.209-.593-.229-.533-.284-.554-.229-.536-.23-.534-1.318.62.174.517.284.554.231.535.26.61.232.536.282.557.285.554.066.153 1.253-.774zm3.203 6.084l-.339-.577-.286-.555-.282-.558-.34-.575-.306-.503-.282-.557-1.287.7.284.555.286.558.336.577.284.557.34.578.307.5.283.557 1.002-1.257zm4.097 6.69l-.362-.522-.337-.578-.393-.598-.362-.523-.339-.58-.338-.575-.207-.273-1.233.722.189.327.337.578.393.599.339.578.362.523.391.598.34.578 1.22-.853zm3.932 5.675l-.395-.599-.413-.545-.413-.544-.398-.6-.412-.543-.22-.402-1.221.852.276.424.413.545.395.598.414.543.392.603.417.543.239.347.926-1.222zm35.847-127.184l.696-.489.753-.464.674-.433.754-.467.696-.485-.764-1.256-.698.488-.752.466-.752.467-.674.433-.695.487-.155.065.917 1.188z" mask="url(#d)"/>
        <path fill="#E8E8E8" d="M571.618 91.876L537.5 93.242l31.24 1.865L558.469 112 516 93.903 581 77z" mask="url(#d)"/>
        <path fill="#DC3B41" d="M515 94.044L571.057 92 576 104l-7.844-8.743z" mask="url(#d)"/>
        <path fill="#CDCEBE" d="M566 99.634L568.857 95l8.143 9z" mask="url(#d)"/>
        <path fill="#E4E5DA" d="M600.01 108.385l-.234-.053-.294-.076-.233-.052-.275-.034-.277-.032-.247-.094-.277-.033-.231-.052-.277-.035-.274-.033-.233-.052-.273-.03-.234-.053-.187 1.185.21.009.277.033.232.053.294.074.276.033.231.051.275.034.234.052.273.032.232.055.292.074.236.052.275.033.124.048.085-1.189zm5.794 1.409l-.251-.094-.275-.033-.254-.095-.249-.097-.276-.031-.252-.098-.294-.075-.233-.051-.295-.077-.231-.051-.296-.076-.23-.054-.172-.026-.25 1.16.126.047.274.034.234.052.296.076.23.053.294.074.253.096.233.053.293.075.233.052.293.077.233.051.252.095.169.03.145-1.167zm5.783 1.838l-.253-.097-.254-.093-.248-.1-.294-.074-.254-.095-.253-.096-.251-.097-.294-.075-.252-.095-.25-.095-.296-.078-.234-.05-.19-.072-.312 1.136.126.048.294.077.251.096.253.095.295.075.23.054.254.095.252.095.252.095.293.077.253.096.25.095.256.094.104.007.272-1.118zm5.493 2.123l-.27-.14-.253-.094-.25-.1-.273-.136-.25-.096-.254-.095-.25-.095-.315-.12-.252-.096-.252-.098-.25-.093-.253-.096-.02-.044-.422 1.134.252.096.272.139.293.075.256.096.248.095.255.097.248.093.276.14.249.096.253.095.207.115.271.14.232.051.252-1.16zm5.564 2.615l-.227-.16-.273-.14-.252-.094-.227-.158-.251-.095-.273-.138-.252-.097-.27-.14-.21-.115-.27-.139-.253-.094-.271-.14-.126-.049-.504 1.066.146.091.252.097.271.138.252.095.208.115.271.138.254.098.272.139.207.114.272.14.25.094.23.16.252.096.062.022.46-1.044zm5.177 2.79l-.253-.095-.229-.16-.27-.139-.228-.157-.23-.16-.252-.094-.227-.16-.272-.137-.228-.158-.251-.097-.229-.16-.273-.136-.061-.026-.568 1.042.065.024.27.139.228.16.252.092.229.161.228.158.252.095.23.158.269.14.208.116.23.159.27.138.229.16.126.047.485-1.11zm5.112 3.341l-.228-.156-.23-.16-.224-.159-.23-.158-.229-.156-.228-.16-.229-.16-.229-.157-.21-.115-.225-.16-.23-.158-.27-.138-.165-.135-.65.973.166.135.27.14.229.159.229.157.226.158.23.16.229.157.209.113.226.161.23.158.226.16.23.158.23.159.018.042.629-1.018zm4.619 3.515l-.203-.222-.23-.159-.183-.177-.23-.16-.228-.156-.186-.18-.226-.158-.23-.159-.185-.178-.227-.16-.249-.201-.23-.157-.71.95.227.159.23.157.182.178.23.158.23.16.183.179.23.159.247.2.185.18.23.156.185.18.226.158.188.179.544-1.086zm4.643 4.132l-.186-.178-.185-.178-.203-.222-.229-.159-.186-.177-.186-.177-.206-.223-.184-.178-.185-.176-.23-.16-.183-.179-.205-.222-.185-.177-.066-.024-.771.927.04-.018.207.22.186.179.184.176.228.16.183.176.187.179.185.178.186.178.206.222.184.178.185.177.185.178.186.177.062.026.796-.883zm3.954 4.338l-.162-.242-.185-.178-.142-.197-.206-.221-.185-.178-.141-.197-.207-.222-.14-.198-.186-.177-.186-.18-.204-.22-.143-.198-.166-.134-.83.795.12.154.186.176.14.2.184.178.207.222.141.196.186.178.184.179.14.197.208.222.143.197.185.177.14.198.143.198.776-.925zm3.598 4.812l-.164-.24-.143-.198-.138-.2-.164-.24-.142-.198-.16-.239-.145-.199-.141-.196-.162-.242-.142-.197-.14-.197-.163-.241-.186-.179-.918.73.142.197.142.196.143.199.143.197.206.22.142.2.142.196.1.218.14.199.162.239.143.199.14.196.145.198.159.241.859-.86zm3.069 5.368l-.159-.346-.2-.33-.16-.348-.2-.327-.178-.39-.202-.327-.2-.33-.16-.347-.22-.37-1.021.618.201.328.161.347.2.327.2.328.16.346.2.329.158.346.204.33.157.346.038.086 1.02-.616zm2.338 5.59l-.116-.365-.113-.368-.139-.303-.116-.367-.158-.348-.114-.367-.159-.347-.138-.304-.158-.346-.099-.22-1.078.49.08.173.156.345.159.35.14.304.114.368.138.303.115.365.157.347.095.326.159.348-.023.061 1.098-.445zm1.63 5.862l-.052-.344-.095-.322-.072-.387-.094-.325-.054-.342-.114-.366-.053-.343-.096-.325-.116-.365-.092-.325-.04-.087-1.095.338-.025.064.096.324.115.365.094.325.096.323.052.344.096.323.052.34.096.325.052.344.094.324 1.155-.208zm.72 5.694l-.032-.3-.008-.361-.033-.299-.01-.363-.05-.343-.033-.299-.008-.363-.054-.343-.051-.343-.032-.3-1.175.162.031.302.053.343.033.3.052.344-.01.318.052.343.032.3-.011.318.053.344.033.299-.032.276 1.2-.335zm-.29 6.1l.073-.293.012-.32.053-.338.03-.276.012-.32.053-.337.01-.32.012-.318.011-.32.01-.32.005-.211-1.165-.048-.007.213-.01.317-.012.32-.031.275-.01.321-.012.318-.027.276-.057.338-.03.274-.012.321-.073.293-.007.215 1.171-.06zm-1.414 5.93l.094-.251.073-.298.138-.272.074-.294.074-.295.074-.296.117-.315.093-.25.075-.295.073-.297.052-.337.006-.107-1.162-.26-.002.105-.076.296-.072.292-.073.298-.095.251-.072.296-.076.294-.09.251-.076.298-.093.25-.075.295-.092.252-.09.146 1.201.242zm-2.777 5.547l.155-.227.137-.269.156-.229.136-.271.2-.247.136-.271.158-.23.136-.27.093-.252.138-.272.155-.227.137-.271.023-.06-1.085-.558-.023.061-.092.252-.138.273-.157.226-.094.253-.136.272-.157.224-.157.23-.135.27-.16.229-.11.209-.157.227-.138.272-.042.018 1.02.638zm-3.87 4.421l.218-.204.222-.205.22-.203.219-.204.217-.204.176-.182.201-.249.22-.204.201-.247.177-.184.199-.25.108-.1-.928-.784-.091.146-.177.183-.22.204-.156.227-.175.187-.219.202-.178.185-.22.203-.155.228-.24.162-.22.203-.176.183-.175.187.952.72zm-4.963 3.395l.306-.138.24-.16.301-.136.24-.16.28-.18.26-.118.241-.16.28-.18.24-.161.242-.16.236-.162-.665-1.004-.24.159-.239.16-.24.16-.237.16-.242.161-.239.161-.258.117-.283.18-.26.117-.239.161-.256.116-.26.117.792.95zm-5.679 2.149l.325-.092.318-.092.322-.094.322-.093.28-.074.32-.092.304-.138.32-.092.303-.138.28-.075.128-.058-.45-1.104-.085.038-.324.095-.259.117-.323.092-.256.118-.323.092-.279.075-.322.094-.278.073-.323.093-.322.094-.233.053.555 1.108zm-5.891.888l.36-.008.342-.05.358-.004.386-.072.364-.006.34-.049.341-.05.34-.048.342-.052.107.004-.191-1.22-.086.038-.343.05-.342.05-.342.049-.34.05-.34.05-.364.007-.3.03-.361.007-.384.067-.274-.032.387 1.189zm-6.244-.11l.442.06.381.037.424.02.382.036.405-.027.38.039.423.017.364-.008.316.014-.02-1.194-.257.012-.424-.019-.36.006-.383-.037-.384-.036-.36.007-.423-.018-.382-.037-.38-.038-.106-.004-.038 1.17zm-5.922-.882l.444.06.465.105.398.08.446.06.402.08.444.06.443.061.4.082.147-1.167-.4-.079-.38-.036-.446-.063-.401-.08-.4-.08-.464-.105-.405-.078-.463-.106-.104-.005-.126 1.21zm-5.452-1.462l.483.147.464.104.439.17.463.103.484.149.42.121.234.054.315-1.138-.23-.051-.422-.123-.486-.15-.464-.104-.44-.167-.463-.103-.44-.168-.465-.107.108 1.263zm-5.795-2.092l.502.19.462.212.5.19.507.193.482.148.505.19.126.047.377-1.112-.125-.048-.484-.148-.46-.21-.503-.191-.485-.149-.462-.21-.503-.19-.268-.142-.17 1.23zm-5.234-2.347l.544.278.605.303.589.259.583.258.418.23.484-1.108-.459-.212-.588-.259-.542-.276-.545-.278-.564-.217-.5-.296-.025 1.318zm-5.544-3.147l.457.318.499.298.437.272.499.299.5.296.501.296.042-.018.524-1.02-.5-.297-.48-.255-.455-.318-.481-.254-.458-.316-.438-.276-.207-.113-.44 1.088zm-4.871-3.608l.35.313.35.311.393.295.396.293.394.292.41.338.395.293.714-.952-.394-.292-.395-.295-.394-.29-.394-.294-.35-.314-.35-.312-.35-.312-.147-.092-.628 1.018zm-4.227-4.478l.263.351.246.31.243.308.309.333.245.307.309.332.305.332.289.288.102.113.835-.797-.103-.11-.244-.31-.308-.33-.287-.289-.246-.31-.286-.289-.245-.307-.265-.35-.225-.267-.059-.13-.878.815zm-3.053-5.216l.158.349.138.303.157.348.14.303.158.349.2.326.14.305.2.327.204.328.098.217 1-.662-.08-.174-.18-.285-.182-.283-.158-.347-.182-.284-.14-.305-.157-.346-.14-.305-.138-.304-.138-.303-.06-.131-1.038.574zm-1.267-5.868l-.011.32.05.345.034.297.052.343.033.299.052.345.031.3.055.341.093.324.054.344.04.084 1.133-.249.004-.108-.094-.324-.077-.278-.034-.3-.05-.343-.076-.278-.033-.301-.032-.3-.032-.3.011-.318-.033-.3-.013-.256-1.157.313zm.93-6.18l-.115.316-.075.296-.116.315-.072.291-.075.297-.075.295-.073.297-.072.294-.056.339-.03.276-.054.337-.025.064 1.207.135-.02-.043.076-.295.029-.277.074-.295.03-.276.074-.294.074-.295.05-.233.073-.294.076-.297.091-.25.118-.315.047-.126-1.16-.262zm3.033-5.455l-.203.248-.196.246-.198.249-.18.29-.157.228-.18.291-.2.248-.137.271-.18.292-.136.27-.139.27-.087.146 1.043.576.088-.146.137-.271.138-.271.156-.23.136-.27.156-.227.18-.29.158-.228.154-.227.2-.249.2-.247.156-.23.045-.02-.954-.719zm4.196-4.044l-.241.161-.262.224-.26.222-.286.18-.259.224-.222.205-.26.223-.22.203-.243.267-.218.204-.112.103.845.822.066-.083.218-.2.263-.226.22-.205.22-.203.216-.204.266-.224.238-.159.262-.225.24-.16.263-.223.153-.123-.887-.803zm5.392-3.014l-.363.113-.303.137-.302.137-.346.156-.283.178-.3.137-.347.156-.283.18-.3.136-.284.182-.042.02.624 1.024.28-.179.303-.136.283-.18.301-.135.303-.138.283-.18.303-.137.301-.137.303-.136.32-.093.131-.06-.582-1.045zm5.838-1.697l-.344.05-.384.07-.32.092-.386.07-.322.093-.385.07-.32.093-.366.11-.321.094-.322.094.364 1.145.26-.117.32-.093.344-.05.364-.113.32-.094.343-.05.322-.093.384-.07.341-.048.324-.095.06.025-.276-1.183zm6.069-.39l-.362.01-.424-.019-.36.005-.427-.016-.361.006-.404.026-.362.006-.362.007-.406.026-.127.058.109 1.155.149-.016.363-.005.34-.052.363-.005.36-.007.362-.005.362-.007.425.017.358-.005.384.037.043-.02-.023-1.196zm5.962.866l-.4-.082-.422-.122-.4-.082-.403-.08-.38-.037-.401-.08-.402-.082-.38-.036-.34-.056-.123 1.208.317.014.338.057.402.079.379.038.402.08.4.08.36.1.4.082.403.078.043-.017.207-1.142zm5.691 1.981l-.398-.187-.396-.188-.442-.165-.397-.188-.422-.123-.376-.146-.44-.165-.377-.142-.043.02-.378 1.111.062.025.377.141.38.146.417.124.378.143.382.142.394.186.377.144.398.188.127.046.377-1.112zm5.276 2.901l-.435-.273-.376-.25-.415-.23-.395-.293-.417-.23-.395-.188-.418-.23-.166-.135-.548 1.086.145.09.397.187.419.231.372.25.375.25.42.23.373.249.375.251.126.046.563-1.04zm4.763 3.711l-.413-.336-.37-.357-.414-.335-.395-.295-.413-.337-.35-.313-.373-.25-.712.952.31.226.394.293.413.336.351.315.411.336.354.312.413.336.104.11.69-.993zm4.21 4.327l-.41-.442-.349-.419-.388-.4-.391-.398-.348-.419-.388-.4-.103-.11-.858.857.104.112.369.358.39.396.349.42.388.398.347.42.39.4.103.111.795-.884zm3.685 4.775l-.183-.285-.224-.264-.182-.285-.18-.287-.225-.261-.162-.242-.226-.265-.183-.284-.203-.222-.183-.284-.122-.154-.96.748.124.155.204.22.18.284.207.224.181.284.225.265.16.24.183.285.226.264.162.24.18.286.104.11.897-.772zm3.127 4.921l-.203-.327-.181-.285-.181-.285-.183-.284-.157-.347-.18-.286-.184-.283-.18-.283-.181-.285-.125-.154-.955.642.059.13.18.283.18.286.184.283.183.284.18.288.158.345.184.285.18.284.182.283.14.304.9-.878zm2.813 5.379l-.159-.35-.14-.304-.2-.328-.157-.346-.139-.304-.202-.329-.138-.302-.159-.35-.182-.28-.039-.088-1.058.531.04.087.201.328.138.302.158.349.184.283.158.348.137.304.18.282.16.349.158.348.1.216.959-.746zm2.409 5.4l-.116-.366-.158-.347-.137-.303-.159-.347-.16-.349-.156-.345-.114-.37-.139-.303-.138-.303-1.079.487.119.26.159.348.115.369.157.345.139.305.157.346.158.347.16.348.093.324.14.303.959-.748zm2.168 5.671l-.116-.366-.115-.368-.158-.349-.115-.365-.115-.367-.16-.347-.113-.368-.157-.346-.079-.28-1.117.4.096.323.159.349.115.368.157.346.095.323.115.367.159.347.114.367.116.366.098.217 1.021-.617zm1.903 5.892l-.073-.384-.113-.367-.115-.367-.115-.367-.116-.368-.116-.367-.116-.366-.112-.368-.116-.366-.04-.088-1.138.358.04.088.115.367.113.367.119.365.113.37.116.365.115.367.114.367.115.366.116.367 1.094-.339zm1.594 5.668l-.114-.367-.074-.385-.134-.411-.117-.367-.07-.387-.116-.366-.073-.386-.114-.367-.076-.281-1.156.314.074.282.115.365.116.368.072.385.115.369.072.386.114.368.117.366.07.386.018.15 1.161-.422zm1.27 5.76l-.092-.429-.071-.384-.071-.389-.072-.386-.116-.366-.072-.388-.07-.386-.075-.385-.078-.174-1.135.252.035.191.073.388.117.366.072.387.07.387.073.384.116.368.07.387.071.387.058.237 1.097-.446zm1.062 5.755l-.074-.389-.073-.385-.028-.406-.073-.386-.07-.388-.073-.385-.071-.386-.072-.39-.038-.084-1.158.208.04.087.072.387.073.385.072.386.071.388.029.406.053.34.072.387.071.388.07.387 1.107-.55zm.852 6.103l-.07-.386-.01-.364-.07-.386-.074-.385-.008-.364-.073-.385-.027-.407-.074-.384-.051-.344-1.173.164.05.344.073.386.01.361.071.389.071.385.01.362.07.387.03.404.053.345.035.193 1.157-.315zm.519 6.048l-.01-.361-.027-.406-.056-.343-.025-.405-.01-.364-.028-.405-.053-.343-.01-.362-.03-.406-.037-.087-1.151.103-.001.104.007.363.071.387.01.362.01.362.07.387.012.363.008.363.028.404.05.344-.004.106 1.176-.166zm.227 5.867l-.01-.361-.009-.364-.01-.36-.006-.363-.01-.363-.01-.363-.008-.363-.01-.362-.008-.363-.017-.148-1.17.057-.005.106.01.364.01.362.006.363.03.404-.009.32.007.363.011.36.008.364.01.363-.006.211 1.196-.227zm-.1 6.068l-.009-.361.054-.34-.011-.363.014-.32-.007-.362.03-.381.01-.32-.009-.362-.007-.362.01-.32-1.148-.003-.028.275.008.362.008.362-.053.338.01.363-.011.322.008.358-.054.34.01.363-.01.317-.048.127 1.233-.033zm-.524 6.048l.013-.32.054-.338.052-.339.012-.318.051-.337.012-.322.057-.339.01-.318.053-.338-.01-.362.054-.231-1.189-.094-.008.213-.055.34-.01.318-.053.339-.011.319-.055.34-.011.318-.052.337-.012.32-.053.338-.032.275-.022.065 1.205.134zm-1.05 5.92l.074-.294.075-.297.051-.339.075-.293.075-.297.011-.318.073-.296.073-.296.056-.337.072-.295.011-.319.046-.127-1.183-.198-.003.108-.054.337-.075.296-.03.276-.054.338-.073.295-.074.296-.03.275-.056.34-.07.294-.077.295-.03.274-.043.02 1.16.262zm-.975 3.687l.093-.253.074-.295.096-.252.07-.293.052-.232-1.136-.323-.05.23-.093.251-.075.297-.092.25-.075.297-.092.25 1.228.073zm-61.322-135.63l-.275-.032-.231-.051-.276-.034-.254.01-.234-.051-.274-.032-.274-.033-.213-.01-.273-.03-.278-.034-.21-.01-.277-.032-.275-.031-.083 1.186.276.035.214.007.274.034.276.031.21.012.277.032.23.05.254-.01.276.033.233.053.275.032.213.009.275.032.232.053-.088-1.22z" mask="url(#d)"/>
        <path fill="#EEA886" d="M482 198.218c2.121 2.194.947 1.744 4.351 1.744H497c-.278-1.913-5.908-1.463-10.928-5.962L482 198.218zM376.569 202c-.06.625-.06 1.08-.119 1.475-.784 5.68-.543 8.347.718 8.064 1.324 0 2.525-.056 3.605-.17 0 1.078.423 2.84.66 4.998.121.454.3.679.78.625.481 0 .663-.228.78-.683 0-2.839.183-4.43.245-6.361.96.058 1.559-.283 1.74-1.02.3-1.59-2.464-5.282-3.3-5.624v-1.248l-5.11-.056z" mask="url(#d)"/>
        <path fill="#373942" d="M441.081 155.336c-14.787-7.452-24.108-6.824-38.495.172-5.46 4.528-17.569 16.796-23.595 22.587-.343.4-1.653 23.56-1.991 23.848l5.74.057c.4-.229 3.017-18.917 3.47-19.203 5.402-3.44 16.204-9.633 17.74-10.264 1.423 6.249 1.365 12.098 2.103 15.478.116 5.046.057 9.001-.285 11.868h34.801c-.568-8.026-.343-19.377.796-28.206 3.184 1.262 37.64 24.307 40.256 26.658l4.379-4.529c-.228-.229-28.376-25.168-28.601-25.34-4.946-4.987-10.407-9.4-16.318-13.126" mask="url(#d)"/>
        <path fill="#EEA886" d="M408.91 135.975c.93 9.7 1.71 15.161 7.173 15.161l-.994 5.27c1.685 2.24 9.647 2.297 12.145-.975-.466-1.147-1.513-4.245-1.979-6.026-.23-.918-.29-1.949-.519-3.099 3.428-.918 3.718-3.557 2.847-5.396a2.147 2.147 0 0 0-2.091-.459c-.7.23-1.22.862-1.396 1.608-.759.058-1.222-1.205-1.337-3.788-1.919-.402-3.253-1.492-3.952-3.271-4.417.515-8.598 1.263-10.807.975h.91z" mask="url(#d)"/>
        <path fill="#42445C" d="M409.471 135.889c2.173.28 5.355.169 9.597-.339.672 1.689 4.358 6.924 5.136 6.865a1.897 1.897 0 0 1 1.285-1.52c.726-.28 1.507-.11 2.012.395.892 1.802-.058 3.378-2.736 4.727.22 1.072 1.586 2.972.666 2.983 5.18-.065 4.882-11.44 4.19-14.426-.758-3.273-3.415-6.178-4.635-7.017-2.245-1.546-4.177-1.442-6.617-1.546-1.398-.059-4.73.093-6.122.882-1.397.788-5.247 0-5.247 3.527 0 1.244 1.688 5.41 2.471 5.469" mask="url(#d)"/>
        <path fill="#FFC8B7" d="M251 471.475c1.939 1.792 4.687 2.04 6.838.557l.162-2.722-6.893-.31-.107 2.475z" mask="url(#d)"/>
        <path fill="#414773" d="M250.584 471c-1.163 1.675-1.684 3.676-1.568 5.675L269 477c0-3.784-5.694-3.026-11.039-5.513-2.32 1.297-5.285 1.08-7.377-.487" mask="url(#d)"/>
        <path fill="#FFC8B7" d="M228 471.475c2.101 1.792 5.08 2.04 7.417.557l.583-2.847-7.358-.185-.642 2.475z" mask="url(#d)"/>
        <path fill="#414773" d="M227.544 471a8.625 8.625 0 0 0-1.511 5.675L246 477c0-3.784-5.688-3.026-11.027-5.513-2.324 1.297-5.285 1.08-7.43-.487" mask="url(#d)"/>
        <path fill="#00B2CF" d="M228 469l9.6-44.523L234.21 391 251 424.988 237.316 469z" mask="url(#d)"/>
        <path fill="#00B2CF" d="M234 390.058l22.909-.058L262 423.72 258.496 469h-8.43l-.34-42.661z" mask="url(#d)"/>
        <path fill="#CCC" d="M309 295.393c0 2.545-2.074 4.607-4.639 4.607H176.64c-2.564 0-4.639-2.062-4.639-4.607v-33.785c0-2.545 2.075-4.608 4.639-4.608H304.36c2.565 0 4.639 2.063 4.639 4.608v33.785z" mask="url(#d)"/>
        <path fill="#F3F3FF" d="M306 295.393c0 2.545-2.077 4.607-4.64 4.607H173.638c-2.563 0-4.638-2.062-4.638-4.607v-33.785c0-2.545 2.075-4.608 4.638-4.608H301.36c2.563 0 4.64 2.063 4.64 4.608v33.785z" mask="url(#d)"/>
        <path fill="#0096FF" d="M186.99 277.931v9.414c0 .539.033 1.143-.182 1.39-.088.1-.167.134-.25.176-.298.14-1.011.073-1.488.073h-3.891c-.28 0-.553.022-.714-.053a1.063 1.063 0 0 1-.376-.335c-.155-.313-.06-1.042-.06-1.49v-9.917c0-.277-.024-.557.047-.723.091-.233.354-.396.647-.433.417-.06 1.025-.02 1.495-.02h2.926c.443 0 1.042-.054 1.371.078a.697.697 0 0 1 .39.332c.139.292.085 1.011.085 1.508M203.031 278.908c.41.29.876.776.94 1.433.084.824-.271 1.516-.802 1.8-.21.118-.453.148-.672.27.016.179.18.232.264.307.194.145.425.39.542.64.407.908.05 1.883-.554 2.26-.172.103-.366.142-.52.251.001.183.173.214.244.3.314.34.547 1.179.307 1.814-.175.483-.66.912-1.207.97-.532.057-1.096-.005-1.652 0-3.194.016-6.512.016-9.854.016-.786 0-1.596.17-1.901-.287-.206-.329-.148-.95-.148-1.461v-4.785c0-1.068-.04-2.178 0-3.209.148-4.092 2.034-6.414 4.003-8.66.215-.243.493-.56.753-.824.253-.261.635-.588.708-.871.061-.196.016-.448.025-.682.003-.226.003-.463.015-.673.021-.452-.012-.92.06-1.326.115-.639.63-1.115 1.228-1.18.892-.094 1.546.47 1.843 1 .603 1.06.868 2.84.54 4.458-.145.686-.418 1.353-.671 1.976-.172.42-.374.935-.596 1.386-.069.154-.205.366-.196.455.052.274.735.238 1.055.238 1.29 0 2.533-.013 3.826-.013.862 0 1.79-.126 2.364.152.558.264.957.797 1.015 1.572.067.912-.214 1.623-.75 2.04-.16.128-.285.152-.552.31.028.179.217.228.343.323" mask="url(#d)"/>
        <path fill="#FFC73C" d="M220.667 271.349c.182-.465.484-.465.666 0l1.391 3.541c.182.467.725.88 1.205.92l3.641.29c.48.04.572.337.204.667l-2.778 2.49c-.364.326-.573.995-.457 1.486l.855 3.726c.115.49-.126.674-.54.411l-3.109-2.01c-.408-.266-1.081-.266-1.487 0l-3.113 2.01c-.409.263-.651.078-.54-.41l.856-3.727c.112-.49-.096-1.16-.46-1.486l-2.776-2.49c-.367-.327-.275-.626.205-.667l3.637-.29c.48-.04 1.023-.453 1.205-.92l1.395-3.541zM238.667 271.349c.181-.465.487-.465.666 0l1.39 3.541c.183.467.725.88 1.206.92l3.64.29c.48.04.574.337.205.667l-2.779 2.49c-.363.326-.572.995-.457 1.486l.855 3.726c.116.49-.126.674-.539.411l-3.108-2.01c-.41-.266-1.083-.266-1.492 0l-3.109 2.01c-.409.263-.655.078-.54-.41l.855-3.727c.117-.49-.092-1.16-.46-1.486l-2.774-2.49c-.368-.327-.276-.626.204-.667l3.637-.29c.48-.04 1.023-.453 1.205-.92l1.395-3.541zM255.667 271.349c.183-.465.487-.465.665 0l1.392 3.541c.183.467.725.88 1.205.92l3.642.29c.477.04.573.337.204.667l-2.779 2.49c-.364.326-.572.995-.457 1.486l.856 3.726c.119.49-.127.674-.54.411l-3.11-2.01c-.408-.266-1.083-.266-1.49 0l-3.11 2.01c-.41.263-.656.078-.54-.41l.856-3.727c.115-.49-.097-1.16-.462-1.486l-2.774-2.49c-.369-.327-.273-.626.204-.667l3.64-.29c.478-.04 1.02-.453 1.203-.92l1.395-3.541zM273.668 271.349c.184-.465.485-.465.663 0l1.391 3.541c.188.467.726.88 1.206.92l3.64.29c.482.04.574.337.21.667l-2.78 2.49c-.367.326-.576.995-.46 1.486l.859 3.726c.115.49-.13.674-.54.411l-3.11-2.01c-.411-.266-1.082-.266-1.49 0l-3.113 2.01c-.406.263-.652.078-.541-.41l.86-3.727c.112-.49-.097-1.16-.465-1.486l-2.775-2.49c-.365-.327-.272-.626.205-.667l3.641-.29c.48-.04 1.023-.453 1.206-.92l1.393-3.541z" mask="url(#d)"/>
        <path fill="#0791DA" d="M291.667 271.349c.183-.465.483-.465.665 0l1.392 3.541c.182.467.725.88 1.206.92l3.64.29c.48.04.572.337.205.667l-2.78 2.49c-.363.326-.571.995-.457 1.486l.856 3.726c.115.49-.126.674-.54.411l-3.11-2.01c-.408-.266-1.08-.266-1.486 0l-3.113 2.01c-.408.263-.651.078-.54-.41l.857-3.727c.11-.49-.098-1.16-.462-1.486l-2.774-2.49c-.369-.327-.276-.626.204-.667l3.638-.29c.48-.04 1.022-.453 1.204-.92l1.395-3.541z" mask="url(#d)"/>
        <path fill="#FFCFCC" d="M295 254.5c0 6.904-5.596 12.5-12.5 12.5s-12.5-5.596-12.5-12.5 5.596-12.5 12.5-12.5 12.5 5.596 12.5 12.5" mask="url(#d)"/>
        <path fill="#FF3453" d="M292 255c0 5.524-4.476 10-10 10-5.522 0-10-4.476-10-10 0-5.523 4.478-10 10-10 5.524 0 10 4.477 10 10" mask="url(#d)"/>
        <path fill="#FFF" d="M278.355 251.386c2.03-1.204 3.511.775 3.647.962.133-.187 1.612-2.166 3.641-.962 1.834 1.087 2.759 5.24-3.617 8.596l-.024.018-.03-.018c-6.37-3.355-5.45-7.51-3.617-8.596" mask="url(#d)"/>
        <path fill="#E3FCB0" d="M225 237.007c0 7.17-5.824 12.993-13 12.993-7.18 0-13-5.823-13-12.993 0-7.185 5.82-13.007 13-13.007 7.176 0 13 5.822 13 13.007" mask="url(#d)"/>
        <path fill="#8BCF2E" d="M222 237.005c0 5.516-4.48 9.995-10 9.995-5.523 0-10-4.48-10-9.995 0-5.527 4.477-10.005 10-10.005 5.52 0 10 4.478 10 10.005" mask="url(#d)"/>
        <path fill="#FFF" d="M214.699 233.505l-3.922 5.135a602.025 602.025 0 0 0-1.557-1.676 1.263 1.263 0 0 0-1.824-.039 1.367 1.367 0 0 0-.037 1.885l2.581 2.778c.258.279.621.43.994.41a1.27 1.27 0 0 0 .95-.506l4.839-6.333a1.362 1.362 0 0 0-.212-1.87 1.262 1.262 0 0 0-1.812.216" mask="url(#d)"/>
        <path fill="#EEA886" d="M268.065 298.43c1.353-.056 4.397-.395 4.397.055 1.129 2.138.113 2.138.227 5.29l-3.665.225a7.018 7.018 0 0 0-.34-1.577c-.847-.672-1.973-1.405-2.311-3.207-1.014-3.32.338-3.769.562-2.7.17.845.339 1.52 1.13 1.913" mask="url(#d)"/>
        <path fill="#2D3BE8" d="M270.142 335.574c-5.745 8.41-11.605 13.095-16.385 16.426-.856-7-1.081-7.451-2.106-8.694-.798-.45-.852-1.524-1.651-2.033l12.972-11.627c2.275-1.977 1.99-3.106 2.445-5.926l2.731-20.379 5.291-.341c.626 8.695.738 15.975.285 21.846-.457 5.14-.569 6.324-3.582 10.728" mask="url(#d)"/>
        <path fill="#3D3938" d="M244.589 334.984c3.692.223 5.312-1.896 4.753-6.357-2.85-.833-.56-4.624 1.399-1.725.053.167.164.334.221.501.446 1.172 1.567.113 1.399-.167-.894-1.226-.782-2.954.22-4.123 2.181 0 3.86-.558 5.147-1.395 5.196-3.286 3.577-11.202-.502-9.475-4.644 2.005-12.242 2.398-14.983 4.962-4.026 5.405-2.238 12.762 2.236 17.78h.11z" mask="url(#d)"/>
        <path fill="#EEA886" d="M253.819 338.927c0-.92.057-1.951.119-2.985 3.7-1.09 5.7-5.566 4.88-13.942-1.353.861-3.12 1.436-5.413 1.436-1.054 1.203-1.173 2.982-.232 4.244.177.29-1.002 1.379-1.47.173-.06-.173-.177-.345-.233-.517-2.06-2.984-4.468.92-1.471 1.777.587 4.592-1.116 6.772-4.999 6.543.24 1.377.355 2.928.415 4.361 3.114-.343 4.877 2.524 8.229 1.892l.175-2.982z" mask="url(#d)"/>
        <path fill="#FF9D81" d="M250 336.123c.883.67 1.916.97 2.948.852.052-.306.052-.669.052-.975-.886.364-1.87.364-3 .123" mask="url(#d)"/>
        <path fill="#EEA886" d="M224.68 306.774c-.268-.455-.589-2.605-.589-3.567.321-.338.748-1.02.909-1.585l-1.015.057c-.855.509-.907-4.188-.48-5.718 0-.226-.16-.397-.427-.397a.541.541 0 0 0-.48.34c-.374 1.473-.585 2.548-.534 3.397a.39.39 0 0 1-.266.113c-.106-.056-.162-.113-.106-.225 0-1.245.106-2.55.265-3.85 0-.17-.16-.339-.37-.339a.544.544 0 0 0-.483.34c-.32 1.244-.482 2.545-.533 3.791 0 .058-.109.17-.215.17s-.16-.057-.212-.112c-.054-1.19.052-2.377.268-3.567 0-.17-.216-.282-.377-.227-.211 0-.373.114-.426.283-.32 1.19-.48 2.378-.427 3.51 0 .113-.106.17-.21.17-.162.056-.218-.057-.267-.17-.056-.792.05-1.585.21-2.376-.105-.058-.21-.058-.371-.058-.11.058-.215.171-.215.284-.694 2.263-.267 3.733 1.068 5.66.212.509.32 3.734.587 4.302l4.696-.226z" mask="url(#d)"/>
        <path fill="#4857EB" d="M259 391.387c-10.768 2.283-20.172 2.396-26.61-1.313 1.253-9.47 1.994-26.3 2.62-38.339l-.112-3.365c-5.016-5.079-8.89-8.56-11.227-14.72-3.248-8.615-4.043-20.254-4.671-29.61 1.936-.113 4.101.056 6.042 0 2.048 7.587 2.675 15.404 6.779 25.446 6.78 9.356 15.84 9.471 21.88 12.493 1.082 1.255 1.993 5.48 2.79 12.552.858 7.245 1.825 23.562 2.509 36.856" mask="url(#d)"/>
        <path fill="#EEA886" d="M336.394 264c-4.501-.687-7.122-1.664-11.394-3.274a1.2 1.2 0 0 1 .226-.343c.573-1.15 3.135-5.687 3.82-7.01 2.847-10.628 3.817-12.466 15.954-8.33-.342 3.791-.915 6.606-1.825 8.446-.966 1.952-3.533 4.538-5.356 4.998-1.425 1.84-1.65 3.33-1.425 5.513" mask="url(#d)"/>
        <path fill="#3D3938" d="M336.217 234.002c-1.68.06-3.241.52-4.685 1.445-1.393.925-2.664 2.254-3.47 3.582-.758 1.386-1.275 2.659-1.508 3.931-3.935 20.284 14.35 12.31 15.564 6.473.173-.695 1.16-2.832 1.388-3.411.232-.578.58-1.041 1.043-1.33.403-.287.518.349.81.058 5.497-6.47-4.168-10.863-9.142-10.748" mask="url(#d)"/>
        <path fill="#FFC8B7" d="M311 396.857c1.915 1.372 4.647 1.517 6.781.391.219-1.075.273-1.66.166-1.758l-.112-.05-6.726-.44-.109 1.857z" mask="url(#d)"/>
        <path fill="#F94C28" d="M310.456 397c-1.137 1.748-1.591 3.786-1.421 5.825L328 403c-.058-3.901-5.453-3.087-10.506-5.535-2.215 1.342-5.05 1.168-7.038-.465" mask="url(#d)"/>
        <path fill="#7285A0" d="M309 402c.055.351.114.65.172.95 7.507 0 13.769 0 18.771.05.057-.3.057-.599.057-.85l-19-.15z" mask="url(#d)"/>
        <path fill="#FFC8B7" d="M338 384.365c1.846 1.805 4.51 2.177 6.687.808.272-1.367.38-2.114.272-2.24h-.112l-6.683-.933-.164 2.365z" mask="url(#d)"/>
        <path fill="#F94C28" d="M337.662 384a9.667 9.667 0 0 0-1.647 5.974L355 391c.053-4.044-5.347-3.439-10.347-6.216-2.276 1.327-5.06.966-6.991-.784" mask="url(#d)"/>
        <path fill="#7285A0" d="M336 390c0 .41.053.764.112 1.12 7.507.352 13.708.647 18.716.88.113-.352.113-.706.172-1l-19-1z" mask="url(#d)"/>
        <path fill="#608079" d="M345.88 382.871l-8.587-.514.915-32.653-16.257-18.893.17 24.887L317.717 396l-8.475-.17.06-40.247L303 316.481c14.257.232 25.592-2.168 34.006-3.481L350 345.882l-4.12 36.99z" mask="url(#d)"/>
        <path fill="#FF4B00" d="M336.838 313.311c-8.382 2.68-19.67 3.934-33.872 3.65H302c2.393-32.733 9.294-52.006 24.231-58.961 2.053 1.708 4.961 2.566 8.725 2.566 6.329.057 16.593 17.85 19.044 22.694l-6.56 6.901-1.195 1.253c-.229-.283-.456-.57-.685-.856-3.08-3.99-5.702-7.81-5.702-7.81a50.452 50.452 0 0 0-1.025 4.22c-1.882 8.324-2.166 16.992-.856 25.944-.34.115-.742.284-1.14.4" mask="url(#d)"/>
        <path fill="#EDEDED" d="M382 312l3.38-12.25c-2.198-3.802-3.38-8.026-3.38-12.418C382 273.983 392.983 263 406.415 263 419.85 263 431 273.983 431 287.332 431 300.679 419.849 312 406.415 312c-4.223 0-8.28-1.352-11.911-3.38L382 312z" mask="url(#d)"/>
        <path fill="#55CD6C" d="M394.833 304.5l.75.417C398.667 306.834 402.25 308 406 308c10.916 0 20-9.083 20-20.166C426 276.75 416.916 268 405.917 268c-11 0-19.917 8.833-19.917 19.834 0 3.833 1.084 7.583 3.084 10.75l.5.75-1.917 7 7.166-1.834z" mask="url(#d)"/>
        <path fill="#FEFEFE" d="M399.546 276.084l-1.62-.084c-.512 0-1.023.168-1.364.504-.767.672-2.045 1.931-2.386 3.61-.597 2.519.341 5.542 2.557 8.565 2.216 3.023 6.477 7.893 13.978 9.99 2.386.673 4.262.254 5.796-.67a4.954 4.954 0 0 0 2.216-3.191l.255-1.175a.84.84 0 0 0-.426-.924l-5.37-2.435a.82.82 0 0 0-1.022.252l-2.13 2.687a.67.67 0 0 1-.683.167c-1.448-.503-6.306-2.518-8.95-7.556-.084-.252-.084-.504.086-.672l2.046-2.267c.17-.252.255-.588.17-.84l-2.471-5.458c-.086-.251-.341-.503-.682-.503" mask="url(#d)"/>
        <path fill="#EEA886" d="M354.05 296.767l-6.05-6.295 5.996-6.472c1.88 2.858 3.71 5.715 5.588 8.511 5.996-.057 14.671.409 18.038-.115.857-1.108 1.598-1.809 2.797-2.39 1.083-.409 2.055-.874 2.108-.409.06.291-.398.643-.912.875-.799.35-1.423 1.398-.456 1.458l.286-.06c1.712-.406 2.966-1.048 5.253-2.04.228-.115.456 0 .63.234.112.176 0 .465-.174.583-1.426.873-2.57 1.456-3.483 1.75-.059.057-.059.175 0 .23.114.06.173.117.284.06 1.43-.467 2.798-1.05 4.112-1.633.227-.117.455 0 .57.175.114.235.058.465-.17.583-1.199.76-2.513 1.342-3.883 1.868-.114.055-.114.115-.114.232.06.116.174.173.227.173a16.48 16.48 0 0 0 3.77-1.513c.228-.06.455.055.512.291.056.175 0 .348-.171.465-1.085.757-2.34 1.284-3.65 1.631-.117.059-.117.234-.06.352 0 .117.173.173.286.117a10.95 10.95 0 0 0 2.512-.991c.171.057.224.175.224.29a.313.313 0 0 1-.17.29c-3.42 2.393-6.047 1.75-9.759 1.692 0 0-14.606 1.516-19.974 2.215-2.11.294-2.454-.233-4.167-2.157M346 290.712l-1.838.227c-1.781.225-1.96-.115-3.62-2.029L339 287.165a47.436 47.436 0 0 1 1.065-4.165s2.73 3.771 5.935 7.712" mask="url(#d)"/>
        <path fill="#FBCCBA" d="M571 473h-6V476.318c2.192 1.026 4.211.785 6 0V473z" mask="url(#d)"/>
        <path fill="#EEA886" d="M548.714 338A67.641 67.641 0 0 0 560 334.002c-.059-.111-.173-.222-.226-.33-.58-.888-3.283-4.443-3.976-5.553-3.456-8.66-4.49-10.16-14.798-5.606.632 3.164 1.381 5.493 2.36 6.939 1.036 1.609 3.513 3.496 5.127 3.718.227 2.275.227 2.941.227 4.83" mask="url(#d)"/>
        <path fill="#0096FF" d="M476.01 324.985c.356 23.561 12.346 44.292 23.15 48.154 1.487.532 2.93.985 4.34.83 1.413-.155 3.021-.326 4.535-1.159 10.217-5.621 22.59-23.184 22.956-47.825.402-27.05-12.308-48.985-27.491-48.985-15.182 0-27.9 21.934-27.49 48.985" mask="url(#d)"/>
        <path fill="#FFF" d="M489 300.433c0 4.184 6.492 7.567 14.499 7.567 8.007 0 14.499-3.383 14.499-7.558 0-.05.004-.392 0-.442-4.462 1.54-9.242 2.345-14.5 2.345-5.095 0-10.14-.466-14.498-1.912" mask="url(#d)"/>
        <path fill="#FFF" d="M489 300.148c0 4.342 6.492 7.852 14.5 7.852s14.5-3.51 14.5-7.843c0-.051 0-.105-.004-.157-4.463 1.598-9.239 2.132-14.496 2.132-5.096 0-10.14-.483-14.5-1.984" mask="url(#d)"/>
        <path fill="#333" d="M505 255l-1.578-12L502 254.805z" mask="url(#d)"/>
        <path fill="#CCC" d="M500 245a3 3 0 1 0 6 0 3 3 0 0 0-6 0" mask="url(#d)"/>
        <path fill="#FFF" d="M494.284 333h18.432c4.006 0 7.284-3.282 7.284-7.293v-2.415c0-4.011-3.278-7.292-7.284-7.292h-19.047c-3.668 0-6.669 3.004-6.669 6.676v3.031c0 4.011 3.278 7.293 7.284 7.293" mask="url(#d)"/>
        <path fill="#CCC" d="M500.41 321h15.18c.226 0 .41-.178.41-.397v-.207a.404.404 0 0 0-.41-.396h-15.18a.404.404 0 0 0-.41.396v.207c0 .219.184.397.41.397M489.447 321h8.106c.245 0 .447-.178.447-.397v-.207c0-.218-.202-.396-.447-.396h-8.106c-.245 0-.447.178-.447.396v.207c0 .219.202.397.447.397M507.41 324h8.18c.226 0 .41-.179.41-.397v-.207a.405.405 0 0 0-.41-.396h-8.18a.405.405 0 0 0-.41.396v.207c0 .218.184.397.41.397M489.433 324h15.136c.237 0 .431-.179.431-.397v-.207c0-.217-.194-.396-.431-.396h-15.136c-.238 0-.433.179-.433.396v.207c0 .218.195.397.433.397M491.42 328h24.16a.41.41 0 0 0 .42-.397v-.207c0-.218-.188-.396-.42-.396h-24.16c-.231 0-.42.178-.42.396v.207c0 .219.189.397.42.397" mask="url(#d)"/>
        <path fill="#333" d="M546.299 316l1.701-3.817L529.701 303 528 306.817z" mask="url(#d)"/>
        <path fill="#0096FF" d="M535.13 302.516l-5.721-4.9c-2.69-2.278-5.531-2.248-7.243.732-1.797 2.275-1.481 5.666.703 7.538l5.722 4.9c2.185 1.872 5.444 1.542 7.242-.732 1.799-2.274 1.482-5.666-.703-7.538" mask="url(#d)"/>
        <path fill="#CCC" d="M554.994 314.555l-.102-1.63c-.106-1.718-1.522-3.032-3.147-2.918l-2.978.207c-1.625.112-2.867 1.61-2.76 3.328l.007.11c.158 2.553 2.263 4.505 4.677 4.338l1.543-.107c1.624-.113 2.866-1.61 2.76-3.328" mask="url(#d)"/>
        <path fill="#0096FF" d="M551.969 310.271c2.329-1.933 5.795-1.627 7.743.683 1.95 2.311 1.66 5.773-.688 7.685-2.639 2.15-5.794 1.627-7.743-.683a5.427 5.427 0 0 1 .688-7.685" mask="url(#d)"/>
        <path fill="#333" d="M461 317.043l2.956 2.957L479 304.957 476.043 302z" mask="url(#d)"/>
        <path fill="#0096FF" d="M477.684 309.712l5.589-4.874a4.987 4.987 0 0 0 .402-7.158c-1.913-2.076-5.226-2.253-7.36-.391l-5.588 4.873a4.987 4.987 0 0 0-.402 7.158c1.913 2.077 5.225 2.252 7.359.392" mask="url(#d)"/>
        <path fill="#CCC" d="M457.37 323.931a4.14 4.14 0 0 1-.293-5.862l.648-.71c1.545-1.692 4.202-1.822 5.905-.29a4.139 4.139 0 0 1 .293 5.861l-.65.712c-1.542 1.69-4.2 1.82-5.904.29" mask="url(#d)"/>
        <path fill="#0096FF" d="M451 325a6 6 0 1 0 12 0 6 6 0 0 0-12 0M473 278.262c0 9.929 4.047 17.07 14.603 20.925 6.128 2.954 16.048 3.4 22.967 2.177 5.355-.946 11.616-2.999 15.996-7.063 4.632-4.298 7.434-9.904 7.434-16.039C534 264.724 520.347 255 503.5 255s-30.5 9.724-30.5 23.262" mask="url(#d)"/>
        <path fill="#FFF" d="M491.536 291h22.98c4.132 0 7.484-3.295 7.484-7.359v-6.012c0-4.064-2.426-6.53-6.746-6.53-1.867 0-7.25 1.245-11.807 1.245-3.939 0-7.761-1.032-10.052-1.253-5.459-.524-9.586 1.236-9.388 4.702.031.556.045 1.255.045 1.836v6.012c0 4.064 3.35 7.359 7.484 7.359" mask="url(#d)"/>
        <path fill="#333" d="M509 280.5c0 1.933.895 3.5 2 3.5s2-1.567 2-3.5-.895-3.5-2-3.5-2 1.567-2 3.5M493 280.5c0 1.932.895 3.5 2 3.5 1.104 0 2-1.568 2-3.5 0-1.933-.896-3.5-2-3.5-1.105 0-2 1.567-2 3.5M503.348 288c2.648 0 4.621-.723 4.652-.734l-.168-.265c-.463.175-4.76 1.422-8.67-.001l-.162.267c1.512.55 3.015.733 4.348.733" mask="url(#d)"/>
        <path fill="#3D3938" d="M547.783 312.008c1.447-.057 2.893.176 4.164.874 1.329.643 2.542 1.752 3.352 2.861a11.768 11.768 0 0 1 1.678 3.267c5.258 17.51-11.39 12.08-13.01 7.063-.174-.584-1.154-2.335-1.441-2.802-.294-.524-.638-.933-1.044-1.109-.348-.176-.463.35-.691.118-5.377-5.195 2.66-9.922 6.992-10.272" mask="url(#d)"/>
        <path fill="#FBCCBA" d="M591 470.594c5.56-.54 6.5-.594 6.5-.594.334 1.892.5 3.35.5 3.35-5.442.595-6.387.65-6.387.65-.387-1.892-.613-3.406-.613-3.406" mask="url(#d)"/>
        <path fill="#2B383D" d="M591.31 473.506c-.682 2.362-.059 5.063.169 6.864.623.842 4.088.76 5.203.225 2.907-1.395 15.154-.027 15.315-3.158.229-2.53-12.482.796-13.221-5.113-.056-.282.057-.393-.678-.282-.793 1.577-1.868 2.59-6.788 1.464M570.26 475c1.179 2.036 1.517 4.636 1.74 6.387-.333.96-1.12 1.076-2.302.85-.673-.113-14.265 1.46-14.654.386-.788-2.26 9.375-1.406 8.588-7.17-.053-.283.057-.226.787-.283 1.125 1.3 1.516 2.09 5.84-.17" mask="url(#d)"/>
        <path fill="#0E608F" d="M588.363 382c-2.852 2.154-12.314 8.957-29.363 11.849 2.734 48.987 4.676 79.151 4.676 79.151h7.069s2.451-26.762 4.333-72.178l7.927 31.526 7.868 38.442 7.127-.738s-3.876-36.684-9.637-88.052" mask="url(#d)"/>
        <path fill="#EEA886" d="M539 299.862c-.809-.858-1.385-1.43-3.406-2.117-3.12-.804-5.541-1.491-7.389-2.006-2.773-.802-5.082-.974-6.929-.403-1.673 1.492 4.617.689 8.95 5.444 0 .115-2.483 6.018.288 3.668.402-.23 1.385-1.204 2.943-2.923 1.155 0 3.349 1.49 4.62 2.864l.923-4.527zM522.424 372.805c-1.047.447-2.84 0-4.987-.113-3.243-.279-5.793-.559-7.645-.726-2.9-.222-5.157-.949-6.667-2.063-1.04-1.952 4.578 1.003 10.372-1.784.06-.112-.114-6.307 1.624-3.293.289.39.87 1.62 1.68 3.739 1.043.388 4.462.333 6.199-.504l-.576 4.744z" mask="url(#d)"/>
        <path fill="#373942" d="M550.385 365.217c3.37 7.324 6.919 18.451 7.602 28.783.287-.055.629-.112.915-.17 17.092-2.894 25.21-8.4 28.07-10.559.743-.51 1.028-.793 1.028-.793.059-5.679-5.888-28.217-11.034-44.85-3.657-13.854-9.66-27.934-15.146-31.962 0 0-9.947-2.5-26.925-7.666l-1.944 5.677 21.665 9.256c3.145 1.93 5.49 8.004 6.973 18.28-.854.396-2.23.795-4.113 1.305-1.887 2.384-5.204 3.746-9.946 3.976-4.635 3.973-6.75 6.527-6.291 7.55l-.684 24.524-23.038-.85-.517 5.507c1.947.679 24.696 4.653 31.384 2.269 0 0 1.602-3.633 2.001-10.277" mask="url(#d)"/>
        <path fill="#AAA" d="M174.938 311.033c1.214-.401 3.108 2.879 4.27 7.309 1.107 4.373 1.054 8.287-.16 8.63-.947.29-2.316-1.725-3.427-4.773.58-1.383.109-3.74-1.316-5.007-.58-3.28-.315-5.873.633-6.159" mask="url(#d)"/>
        <path fill="#DC3B41" d="M174 317c1.358 0 2.517.804 2.906 1.953.32 1.15-.195 2.415-1.295 3.047-.382-.748-.71-1.61-.967-2.53-.259-.861-.515-1.666-.644-2.47" mask="url(#d)"/>
        <path fill="#E8E8E8" d="M178.727 327.425l.222.111c.285.111.566.168.79.055 1.517-.39 1.685-4.457.396-9.028-1.352-4.624-3.603-7.97-5.121-7.523-.169 0-.34.168-.504.28l-.338.554c-1.634 2.51-3.936 4.571-6.974 6.187-3.429 1.84-8.716 3.178-12.425 4.35-.731 1.058-.957 2.338-.62 3.508.339 1.227 1.18 2.231 2.307 2.731l4.892-1.114 1.91 2.009.73-.113 2.364 4.568c1.125-.22 1.348-.5 1.406-1.392l-1.126-3.511c.058-.837.339-.892-.338-1.172-.222-.052-.281-.334-.281-.5-.057-.502.56-1.06 1.18-1.171 3.881-1.225 7.707-.835 11.53 1.17m-3.542-15.827c-1.013.277-1.294 2.788-.675 5.964.113.78.335 1.56.561 2.396.224.891.51 1.728.842 2.453 1.184 2.952 2.646 4.904 3.655 4.623 1.296-.332 1.353-4.122.17-8.358-1.238-4.29-3.26-7.467-4.553-7.078" mask="url(#d)"/>
        <path fill="#BBB" d="M174.88 320.256c-.978-3.584-1.142-6.883-.486-8.364.109-.168.214-.34.326-.567.16-.112.324-.284.488-.284 1.468-.456 3.647 2.958 4.954 7.68 1.248 4.666 1.086 8.818-.382 9.216-.217.115-.488.057-.764-.056a.379.379 0 0 0-.215-.114c-1.306-.854-2.938-3.813-3.922-7.51m4.9-1.422c-1.198-4.38-3.154-7.622-4.407-7.225-.978.282-1.251 2.845-.652 6.088.108.795.324 1.593.542 2.446.217.91.493 1.764.815 2.504 1.147 3.013 2.56 5.006 3.538 4.72 1.253-.34 1.309-4.209.165-8.533" mask="url(#d)"/>
        <path fill="#EEA886" d="M168.037 331.282c-1.155.657-2.142 1.015-3.019 1.072-1.152.063-2.03-.477-2.632-1.55-.717-1.254-.44-2.212.877-2.866 4.608-2.39 8.778-.06 5.652 5.254l-.275 2.267-3.348.541c0-.838-.218-2.69-.218-3.286.93-.179 1.92-.297 2.963-1.432" mask="url(#d)"/>
        <path fill="#CCC" d="M165 332.565c.512-.051 1.13-.256 1.745-.565l.102.154.153.565c-.051.82-.206 1.078-1.18 1.281h-.101l-.618-1.128-.101-.307z" mask="url(#d)"/>
        <path fill="#FFC8B7" d="M156.62 469l-5.62.592.327 4.408 5.673-.59z" mask="url(#d)"/>
        <path fill="#262222" d="M151.292 472c-.392 5.275-.276 7.941-.276 7.941s1.167-.058 3.673.059c0 0 2.62-.59 4.233 0h8.524c.334-.295.554-.827.554-1.305 0-.53-.22-1.006-.554-1.302-5.962-.95-8.243-2.667-10.195-5.216-1.834.652-4.066.475-5.96-.177" mask="url(#d)"/>
        <path fill="#FFC8B7" d="M133 470.495l-5.465-.495-.535 4.45 5.521.55z" mask="url(#d)"/>
        <path fill="#262222" d="M126.307 473c-.445 5.275-.275 7.939-.275 7.939s1.113-.057 3.67.061c0 0 2.617-.535 4.173 0h8.514c.387-.295.611-.769.611-1.303 0-.475-.224-.948-.611-1.305-5.898-.948-8.18-2.665-10.125-5.155-1.837.651-4.062.415-5.957-.237" mask="url(#d)"/>
        <path fill="#7285A0" d="M143 414.664L147.231 382h7.232L157 470h-7.341z" mask="url(#d)"/>
        <path fill="#7285A0" d="M130.62 382H149l-15.894 88-7.106-.393.806-75.49 4.566-.055z" mask="url(#d)"/>
        <path fill="#EEA886" d="M126.044 393.281l4.131-.281c.058.738.058 1.36.113 1.87 1.058.908 1.674 1.643 2.178 2.833.389 1.078.782 2.042.336 2.097-.284.058-.561-.395-.784-.963-.335-.738-1.285-1.416-1.396-.453l.059.285c.331 1.697.944 2.946 1.837 5.156.059.227-.052.51-.221.622-.224.115-.444 0-.555-.17-.783-1.415-1.288-2.548-1.567-3.455a.164.164 0 0 0-.222 0c-.113.055-.113.169-.055.284.39 1.36.893 2.719 1.396 4.078.11.171 0 .455-.167.511-.226.112-.446.059-.561-.17a18.12 18.12 0 0 1-1.619-3.854.431.431 0 0 0-.279-.112c-.055.056-.165.17-.11.226.279 1.304.725 2.55 1.34 3.74 0 .229-.111.397-.278.453a.445.445 0 0 1-.504-.171c-.672-1.076-1.12-2.321-1.45-3.568-.057-.114-.169-.17-.283-.114-.11.057-.167.17-.11.284.166.906.503 1.698.893 2.492a.377.377 0 0 1-.336.23.311.311 0 0 1-.279-.171c-2.12-3.459-1.507-6.008-1.34-9.58 0 0-.057-.85-.167-2.099" mask="url(#d)"/>
        <path fill="#0096FF" d="M154.046 356.072c.287 5.76 1.206 19.87 1.206 27.147h-23.981l.631 10.725-4.533.056h-2.12c-2.871-14.165-4.302-24.042-4.247-29.574.576-5.36 4.246-26.525 10.5-28.163 7.171-1.862 14.689-1.579 21.628.284 4.42 1.24 9.065 12.754 11.304 17.381l.169-18.456 5.968-.225c.977 8.75 3.615 27.769-2.354 30.422-6.594-.113-12.045-6.887-14.17-9.597" mask="url(#d)"/>
        <path fill="#EEA886" d="M149.71 318c.803 7.984-.06 12.706-2.58 14.167l.229 3.937c-3.151 1.347-6.814 1.29-9.396-.958.231-.956.344-2.193.46-3.71 0-.787-.116-1.63-.116-2.587-2.86-.169-3.61-2.304-3.206-3.933.4-.508 1.03-.731 1.66-.677.63.114 1.149.508 1.375 1.068.63-.111.801-1.179.457-3.257 1.548-.619 2.41-1.745 2.694-3.26 3.665-.282 6.645-.226 8.422-.79" mask="url(#d)"/>
        <path fill="#42445C" d="M149.304 317.664c-1.742.56-4.382 1.004-8.032 1.286-.227 1.506-1.126 2.621-2.641 3.236.338 2.063.222 3.18-.45 3.235-.226-.557-.729-.95-1.348-1.06-.617-.056-1.235.167-1.574.668-.449 1.619.561 2.79 3.032 3.404 0 .95-.056 1.786-.056 2.567-2.415-.169-4.38-1.84-4.888-4.183a3.023 3.023 0 0 1-1.347-2.512c0-.947.506-1.896 1.347-2.51-.783-.615-1.23-1.62-1.122-2.623.055-1.003.674-1.954 1.571-2.455a3.698 3.698 0 0 1 1.296-3.347 3.694 3.694 0 0 1 3.539-.727c.054-1.226.898-2.231 2.077-2.567 1.178-.279 2.415.224 3.033 1.23a3.306 3.306 0 0 1 3.54-1.117c1.293.446 2.246 1.619 2.303 2.956 1.01-.222 1.965.337 2.304 1.34.336.95-.11 2.009-1.01 2.455-.394.278-.903.501-1.574.724" mask="url(#d)"/>
        <path fill="#FF9D81" d="M147 332.777c-2.431.594-4.485 0-6-1.777 2.542 1.285 4.54 1.531 5.944.79l.056.987z" mask="url(#d)"/>
        <path fill="#E8E8E8" d="M88 28.526L44.99 11.176l37.629 19.728L60.376 46 18 0l90 15.418z" mask="url(#d)"/>
        <path fill="#DC3B41" d="M18 0l70 28.565L87.36 46l-4.743-15.054z" mask="url(#d)"/>
        <path fill="#D6D6D6" d="M76 34.973L82.096 31 87 46z" mask="url(#d)"/>
        <path fill="#E4E5DA" d="M120.304 216.46l-.13.527-.194.46-.13.527-.132.526-.196.46-.132.527-.193.526-.13.462-.067.263 1.63.262.132-.525.195-.462.13-.526.131-.526.196-.461.127-.526.197-.526.13-.528.132-.46-1.564-.46zM149.068 134.716v.518l.066.52.068.52v.517l.067.52v.52l.067.522V139l1.664-.193v-.518l-.067-.522v-.52l-.067-.52v-.584l-.067-.517-.065-.522v-.52l-.068-.584-1.666.195zM144.346 165.276l-.208.409-.206.412-.208.34-.21.414-.205.409-.205.344-.278.41-.204.34-.21.414-.274.341-.138.277 1.588.614.275-.341.207-.41.276-.41.207-.345.209-.41.272-.412.209-.412.207-.41.204-.412.21-.41.136-.276-1.517-.752zM147.408 157.413l-.125.478-.12.41-.124.482-.183.41-.123.48-.122.41-.185.41-.122.48-.12.412-.184.342 1.589.273.122-.412.185-.478.124-.41.182-.48.123-.48.123-.41.184-.48.122-.478.124-.48.122-.411-1.468-.481zM150.792 146.468l.069-.534v-.466l.07-.534v-.533l.069-.533V142h-1.723v1.803l-.069.534v.464l-.07.532v.533l-.069.47v.533l-.069.066 1.725.065zM148.684 150.065l-.051.448-.053.511-.053.45-.052.45-.106.447-.051.449-.106.447-.052.45-.107.449-.053.447 1.263.387.105-.452.053-.445.104-.515.054-.447.105-.449.054-.512.105-.45.05-.45.053-.51.054-.45v-.13l-1.262-.19zM122.325 208.136l-.139.55-.137.546-.139.548-.142.55-.21.548-.139.476-.138.549-.14.548L121 213l1.815-.067.14-.549.138-.549.211-.548.136-.548.145-.547.135-.549.14-.546.14-.552v-.134l-1.675-.411zM138.59 172.857l-.238.356-.235.287-.236.358-.235.286-.236.355-.234.286-.176.144 1.234 1.071.235-.284.236-.36.292-.286.239-.356.233-.358.237-.357.293-.357.235-.284.235-.357.239-.36.23-.425.062-.145-1.179-1.071-.057.144-.236.356-.234.355-.236.361-.235.285zM140.336 104.41l.108.319.168.32.167.321.11.322.167.321.167.383.11.322.168.32.11.32.165.32.114.322 1.11-1.027-.108-.382-.17-.321-.108-.322-.167-.321-.167-.318-.112-.323-.166-.32-.167-.321-.111-.321-.165-.32-.17-.386-.166-.318-1.223.767.168.321zM135.4 97.43l.199.323.2.325.2.323.2.327.2.324.202.258.199.326.2.326.196.325.202.324.202.325V101l1.4-.91-.201-.324-.2-.325-.2-.325-.198-.323-.202-.324-.2-.326-.199-.324-.202-.326-.202-.26-.196-.325-.2-.325-.268-.323-.132-.26-1.4.842.135.262zM143.17 111.075l.118.319.112.315.176.315.114.315.116.318.115.316.115.318.115.38.117.317.116.316.114.315.117.316.057.065 1.328-.633-.117-.317-.115-.317-.113-.379-.174-.318-.116-.316-.118-.315-.113-.381-.115-.315-.117-.315-.172-.319-.115-.315-.117-.382-.114-.316-.059-.062-1.325.696h.053zM146.066 118.758l.14.315.064.32.136.314.14.383.065.315.137.316.137.318.068.316.136.381.069.316.137.315.068.318.068.315 1.569-.695-.068-.379-.136-.318-.07-.315-.135-.38-.138-.317-.07-.317-.136-.379-.066-.319-.136-.315-.139-.317-.135-.381-.07-.315-.137-.253-1.564.506zM148.053 126.696l.052.315.054.317.053.318.106.377.052.32.053.314v.316l.052.319.052.377.054.319.051.315.054.317.052.38 1.262-.57-.051-.38-.054-.318-.051-.315-.054-.38-.052-.318-.053-.377-.053-.319-.054-.315-.051-.38-.054-.317-.05-.315-.054-.38-.105-.316-1.264.38zM124.631 183.408l-.314.121-.317.124.758 1.347.378-.124.385-.12.38-.124.378-.12.38-.125.315-.122.38-.184.38-.123.383-.181.316-.124.378-.185.189-.06-.693-1.408-.19.123-.319.121-.38.122-.314.183-.318.125-.378.12-.321.124-.378.121-.316.184-.38.063zM110.025 185.648l.483.058.477.06.411.059.477.06h.484l.476.058h.483l.411.057h.204l.069-1.471h-.135l-.482-.058h-.41l-.482-.06h-.41l-.478-.059-.412-.058-.48-.058-.409-.06-.483-.06-.48-.056L109 184l.069 1.529.48.062zM127 160.066v.13l.072.528v.988l.071.458v.99l.072.458V165l1.785-.393V163.618l-.072-.526v-.986l-.07-.528V160.591l-.074-.46V160zM128.7 153.601l-.063-.447-.06-.448-.06-.45-.064-.256-1.453.256v.192l.062.448.061.45.062.449.06.448.059.45v.51l.062.452.059.447.062.449V157l1.513-.576-.062-.515-.059-.447-.059-.45-.063-.45v-.511zM118.303 223.162l-.073.143-.224.507-.006.026h2v-.097zM123.901 201.352l-.151.54-.149.541-.147.539-.078.542-.15.541-.15.541-.076.339 1.876.065.149-.608.149-.538.155-.542.149-.542.07-.54.154-.541.15-.54.148-.54v-.269l-1.798-.34-.078.27-.15.54zM60.581 146.05l.362.58.369.577.36.575.363.642.365.576 1.6-.768-.362-.577-.364-.579-.365-.576-.366-.576-.288-.577-.291-.578-.293-.574-.144-.195-1.527.9.29.577zM58 136.506l.136.568.135.51.137.504.205.57.136.506.206.57.203.57.207.505.064.191 1.571-.506-.067-.19-.136-.507-.205-.568-.205-.506-.135-.509-.205-.505-.14-.506-.136-.57-.135-.443V136z" mask="url(#d)"/>
        <path fill="#E4E5DA" d="M127.527 188.48l.06-.52.06-.517.059-.519.058-.522.06-.519.056-.519.063-.519.057-.52v-.13l-1.472-.195v.13l-.06.52-.057.519-.056.52-.061.521-.058.518-.06.52-.059.518-.06.519-.057.52 1.412.195zM128.924 172.064v-2.598l.076-.533V168h-1.85v.933l-.076.533V172.064l-.074.468V173l1.85-.4zM125.63 192.402l-.05.53-.054.535-.104.532-.056.534-.102.534-.055.534-.052.533-.106.531-.051.203 1.368.132.054-.535.102-.531.053-.601.053-.533.107-.534.05-.533.106-.532.053-.533.054-.401-1.315-.267zM134.27 177.562l-.336.186-.267.252-.333.251-.332.183-.335.191-.332.25-.337.186-.263.19-.336.187-.331.25H131l.934 1.312.333-.188.333-.247.332-.188.335-.251.4-.188.332-.25.334-.187.333-.25.27-.25.331-.252.335-.187.333-.25.065-.06-1.064-1.252-.067.061-.27.25zM127.323 176.465V177l-.067.534v.532l-.062.468-.066.535v.532l-.065.534-.063.532V181l1.616-.199.063-.533.065-.533v-.536l.064-.531.066-.535v-.533l.065-.533v-.533l.061-.4-1.614-.134zM127.773 147.67l-.075-.443-.074-.445-.148-.44-.078-.38-.149-.444-.077-.443-.148-.379-.076-.442-.075-.254-1.873.379.076.255.15.378.07.443.153.381.072.442.15.443.077.379.075.444.152.443.077.38.069.444.077.189 1.802-.442-.076-.445zM106.199 111.827l-.467-.318-.465-.253-.403-.256-.864 1.397.397.192.4.253.47.316.465.254.467.318.467.317.403.318.464.317.469.318h.064l.934-1.27-.466-.318-.468-.38-.466-.317-.47-.318-.464-.254zM81.972 171.268l.421.42.485.357.483.418.427.357.242.18.97-1.134-.241-.179-.424-.357-.486-.42-.488-.36-.422-.415-.484-.358-.425-.418-.485-.359-.545 1.494.487.416zM77.484 164.974L77 164.48l-.426-.565-.484-.56-.239-.355-.85 1.551.483.562.426.564.485.562.482.565.485.494.487.563.12.139L79 166.734l-.124-.14-.484-.494-.424-.564zM81.658 106.929h.46l.46-.072h.922l.46-.071H85.341l.461.071H86l-.13-1.787-.527-.07H83.893l-.46.07h-.984l-.465.071h-.457l-.463.074H81l.196 1.785zM89.844 107.001l.456.155.519.078.452.076.459.152.45.079.52.152.454.155.457.076.062.076.327-1.92-.457-.158-.517-.152-.454-.078-.52-.152-.455-.076-.52-.154-.453-.078-.52-.08-.453-.073-.455-.079-.196 1.927h.39zM93 179.573l.525.355.458.287.526.285.463.286.528.212.457.287.527.287.464.213.391.215.661-1.642-.329-.143-.527-.287-.46-.214-.46-.285-.465-.287-.458-.212-.527-.285-.46-.288-.46-.285-.132-.072zM73.696 108.93l.378-.138.444-.14.38-.14.38-.138.378-.143.446-.138.376-.07.446-.14.377-.069.446-.14.253-.069-.635-1.605-.381.068-.44.14-.442.138-.446.07-.443.143-.38.139-.441.14-.381.138-.443.209-.38.14-.188.07.568 1.605zM87.082 176.097l.468.315.545.318.475.32.538.315.54.317.471.318.881-1.334-.473-.316-.472-.253-.539-.319-.477-.318-.469-.316-.542-.381-.478-.317-.538-.383-.133-.063-.879 1.398.542.316zM62.331 118.93l.246-.351.181-.354.242-.351.182-.354.24-.351.244-.35.183-.283.24-.353.244-.351.24-.282.306-.352.121-.14L63.787 114l-.302.354-.244.35-.303.354-.24.35-.243.354-.24.35-.246.356-.24.351-.245.422-.182.351-.24.422-.062.07 1.331.916zM70.8 157l-.8 1.689.532.677.6.744.603.676.598.674.4.54L74 160.853l-.464-.541-.602-.678-.533-.673-.536-.677-.597-.608zM57.072 132.618l.071.525.073.527v.33l1.784-.265v-.264l-.068-.46-.072-.458v-.527l-.073-.46V129l-1.787.132v2.5l.072.524zM59.667 125.862l.068-.48.063-.41.133-.41.136-.48.065-.41.133-.412.136-.41.132-.41.2-.41.133-.412.134-.34-1.665-.278-.202.412-.132.48-.135.409-.134.48-.131.41-.135.482-.134.41-.132.478-.067.48-.133.48v.134l1.6.345zM65.4 152.776l.467.66.4.589.466.66.467.659.469.656h.065l1.266-.984-.467-.659-.466-.592-.398-.658-.47-.595-.4-.656-.4-.595L66.2 151 65 152.12zM67.17 112.867l.323-.262.325-.26.326-.2.323-.261.323-.197.392-.262.323-.195.323-.197.39-.198.39-.196.323-.198H71L70.218 109l-.39.196-.388.196-.388.2-.389.26-.324.197-.392.262-.388.198-.325.26-.392.264-.323.263-.325.261-.194.13.974 1.313zM118.401 184.362h-.39l-.455.062h-.389l-.387.06H116l.452 1.516h.458l.388-.059h.455l.391-.06.454-.061h.388l.393-.06.452-.062.39-.061.39-.058.389-.064-.259-1.515-.392.059-.386.062-.392.06-.388.06-.39.06zM119.652 130.772l.368.632.287.573.363.631.295.57.361.63.074.192 1.6-.822-.365-.633-.287-.634-.364-.631-.366-.572-.363-.633-.29-.57-.364-.505-1.601.76.289.441zM118.29 124.895l-.387-.526-.32-.593-.389-.526-.385-.46-.39-.528-.125-.262-1.294 1.052.13.198.386.46.388.526.322.527.322.526.389.526.321.525.325.53.13.13 1.287-.988-.386-.59zM131.318 90.401l.19.333.254.265.192.336.19.332.251.265.193.334.253.335.189.266.19.334.257.332.188.336.129.131L135 92.867l-.257-.266-.188-.335-.254-.334-.19-.331-.192-.336-.254-.266-.188-.331-.257-.333-.19-.335-.25-.265-.192-.334-.257-.333-.06-.068L131 90l.066.068zM121.477 78.875l.297.277.242.281.237.274.242.282.236.274.242.348.236.277.241.28.178.277.238.348.24.207.894-1.389-.235-.348-.242-.274-.236-.282-.24-.346-.239-.279-.24-.276-.237-.277-.3-.347-.24-.278-.236-.28-.242-.275-.237-.28V77L121 78.251l.24.278zM126.363 84.577l.244.341.241.273.184.274.24.342.243.277.244.343.18.272.243.342.242.273.184.345.24.275.062.066 1.09-1.096-.18-.342-.244-.343-.242-.274-.183-.34-.241-.275-.243-.342-.243-.276-.242-.342-.182-.274-.241-.343-.244-.273-.242-.343-.12-.137L126 84.096l.123.205zM124.597 136.188l-.066-.188-1.531.562.064.187.255.627.256.686.194.688.252.686.19.688.257.686.063.19 1.469-.626-.257-.749-.191-.688-.252-.688-.258-.685-.193-.688zM99.627 108.691l-.511-.174-.448-.172-.453-.172-.51-.173h-.191L97 109.326l.193.057.45.175.447.113.448.175.45.172.448.173.45.174.512.23.446.173.45.232h.063l.643-1.329-.448-.17-.514-.232-.446-.174-.516-.23zM102.616 63.651l.27.192.346.252.34.19.276.19.34.192.276.19.343.191.27.193.343.25.276.191.344.191.133.127.827-1.396-.278-.193-.34-.253-.276-.19-.341-.192-.345-.19-.27-.252-.343-.191-.275-.19-.343-.193-.34-.19-.277-.192-.34-.188-.276-.19-.956 1.334.27.126zM101.207 182l-.207 1.628.479.185.48.126.477.187.548.124.483.19.477.123.478.126.481.127.48.124.138.06.479-1.561h-.136l-.481-.126-.48-.124-.48-.127-.48-.124-.476-.125-.483-.189-.41-.123-.48-.188-.547-.127zM115.4 73.45l.227.232.231.232.285.23.227.175.23.232.229.231.227.233.286.233.23.23.226.232.233.232.111.058.858-1.1-.228-.233-.232-.232-.225-.234-.284-.228-.233-.233-.227-.233-.229-.232-.286-.232-.227-.23-.23-.233-.284-.232-.231-.174-.17-.174-.914 1.1.115.117zM95.617 58.8l.34.2.345.198.271.134.344.202.274.197.342.134.34.2.278.202.344.197.273.135.343.2.27.201.619-1.602-.342-.2-.276-.198-.342-.2-.341-.135-.276-.2-.342-.198-.341-.201-.276-.136-.341-.196-.343-.202-.272-.134-.345-.2-.344-.198L95 58.464l.342.2zM112.144 117.337l-.347-.425-.406-.491-.348-.421h-.059l-.984 1.265.055.072.349.422.348.424.404.42.35.425.35.423.348.491.346.425.349.494.116.139.985-1.268-.346-.492-.347-.494-.408-.493-.35-.494zM108.492 67.516l.283.181.354.242.28.183.35.24.284.243.282.184.35.24.283.181.35.244.284.18.28.243.21.123.918-1.274-.282-.24-.351-.184-.285-.244-.278-.24-.354-.18-.283-.245-.35-.242-.282-.18-.352-.244-.282-.18-.353-.243-.279-.183-.212-.121L108 67.212l.143.12z" mask="url(#d)"/>
        <path fill="#23233B" d="M437.549 409.689s-5.277-1.655-3.468-5.715c.15-1.503-3.619-3.007-3.016-8.72.603-5.716 6.785-6.918 8.294-8.573 1.507-1.655 3.316-5.865 3.467-8.873.15-3.007 1.96-8.27 6.936-9.473 4.976-1.203 8.75 1.076 10.856 3.008 3.769 3.458 3.318 9.624 8.444 12.18 4.264 2.127 8.594 2.406 11.46 5.263 2.864 2.858 2.562 6.316 2.11 8.873 0 0 2.261-1.655 5.88 2.555 3.62 4.212 4.675 8.572 1.96 13.986-2.714 5.414-7.237 7.97-11.76 6.617 0 0-13.27 8.872-22.919-3.008-10.856 3.008-19.903 2.255-18.244-8.12" mask="url(#d)"/>
        <path fill="#F2B892" d="M466 484.48l.627-5.48 11.296 1.258c1.764.15 2.08.262 4.334.202l4.743.287s-1.414.876-.419 2.596c1.11 1.919-5.272 1.677-5.742 1.611L466 484.48zM418 445.484L435.41 457l38.95-.365 13.64-7.86-5.205-7.861-10.77 8.592-34.46 1.096L424.103 440z" mask="url(#d)"/>
        <path fill="#FF3453" d="M451.51 398.387c-3.331-.145-6.31.516-8.985 1.35-1.737.54-3.498 1.246-4.626 1.53-2.866.72-23.806 31.775-25.94 35.023-3.94 5.998-.717 9.597-.717 9.597l10.507 6.956 3.702-12.475-2.06-1.438 11.014-15.715-1.288 9.838L431.45 458l43.878-.36-1.983-25.91-.853-8.874 8.238 16.312-1.075 1.56 5.166 12.235s8.955-9.176 10.388-10.076c1.432-.899 2.834-5.817.685-8.156-2.15-2.339-19.462-27.123-24.297-31.62-1.332-1.24-6.806-3.15-9.314-4.633-5.523-3.271-10.774-.091-10.774-.091" mask="url(#d)"/>
        <path fill="#F2B892" d="M443 399.992s5.12 5.231 10.844 5c5.724-.23 9.427-3.279 11.156-5.103l-7.347-3.804a1.626 1.626 0 0 1-.885-1.51l.145-3.575-6.383.673s-.018 2.481-.205 3.746c-.186 1.264-7.325 4.573-7.325 4.573" mask="url(#d)"/>
        <path fill="#EFEFEF" d="M430 470h48v-34h-48z" mask="url(#d)"/>
        <path fill="#4D5068" d="M474.408 486c-11.767-.631-36.945-3.633-56.353-9.343-.051-.013-28.77-3.796-25.846-18.321l.44-1.896c3.631-10.824 30.537-2.155 30.587-2.141 19.575 5.468 42.026 15.903 52.521 21.655 0 0 1.09 7.67-1.35 10.046" mask="url(#d)"/>
        <path fill="#2B383D" d="M480 480.168s4.58-.097 4.67 2.21c.094 2.32-4.304 2.594-4.304 2.594l10.442 2.017s4.67.287 7.143-2.017c2.473-2.307 0-5.189-1.556-5.861-1.557-.672-2.656-1.441-5.313-.961-2.655.48-11.082 2.018-11.082 2.018" mask="url(#d)"/>
        <path fill="#F2B892" d="M442 484.48l-.627-5.48-11.295 1.258c-1.764.149-2.08.262-4.334.201l-4.744.288s1.414.876.419 2.596c-1.11 1.918 5.273 1.676 5.742 1.612L442 484.48z" mask="url(#d)"/>
        <path fill="#2B383D" d="M427 480.168s-4.58-.097-4.67 2.209c-.093 2.322 4.304 2.594 4.304 2.594l-10.442 2.018s-4.67.287-7.143-2.018c-2.473-2.307 0-5.188 1.556-5.861 1.557-.671 2.656-1.44 5.312-.96 2.657.48 11.083 2.018 11.083 2.018" mask="url(#d)"/>
        <path fill="#4D5068" d="M430.592 488c11.767-.63 36.945-3.633 56.353-9.343.05-.013 28.77-3.796 25.846-18.322l-.44-1.895c-3.631-10.824-30.537-2.155-30.587-2.14-19.575 5.467-42.026 15.902-52.521 21.654 0 0-1.09 7.67 1.35 10.046" mask="url(#d)"/>
        <path fill="#F2B892" d="M446 380.906s.294 8.63 2.208 10.9c1.913 2.272 3.238 3.331 6.034 3.18 2.797-.152 6.33-4.39 6.624-9.387.294-4.996.013-5.133.013-5.133s-9.295-.378-10.767-4.466c0 0-.432 3.847-4.112 4.906" mask="url(#d)"/>
        <path fill="#CCC" d="M243.884 141h108.232a3.886 3.886 0 0 1 3.884 3.888v28.96a3.886 3.886 0 0 1-3.884 3.889h-58.11a.957.957 0 0 0-.952.851l-.464 4.12a.328.328 0 0 1-.52.227l-3.331-2.462-2.39-1.765a4.956 4.956 0 0 0-2.946-.971h-39.52a3.886 3.886 0 0 1-3.883-3.89v-28.959a3.886 3.886 0 0 1 3.884-3.888" mask="url(#d)"/>
        <path fill="#0096FF" d="M273 159.5c0 6.904-5.596 12.5-12.5 12.5s-12.5-5.596-12.5-12.5 5.596-12.5 12.5-12.5 12.5 5.596 12.5 12.5" mask="url(#d)"/>
        <path fill="#F1F5F9" d="M264.806 159.876l-7.08 5.038a.46.46 0 0 1-.726-.377v-10.074a.46.46 0 0 1 .727-.377l7.08 5.038a.463.463 0 0 1 0 .752" mask="url(#d)"/>
        <path fill="#FFF" d="M298.971 156h-.942v8h.942v-1.99zM296.971 154h-.942v10h.942v-2.033zM294.971 153h-.942v11h.942v-1.93zM292.971 152h-.942v12h.942v-1.988zM290.971 153h-.942v11h.942v-2.064zM288.971 154h-.942v10h.942v-1.997zM286.971 153h-.942v11h.942v-2.017zM283.971 156h-.942v8h.942v-1.94zM281.971 157h-.942v7h.942v-2.02zM279.971 158h-.942v6h.942v-2.065zM277.971 160h-.942v4h.942v-1.834zM332.971 157h-.942v7h.942v-2.173zM330.971 155h-.942v9h.942v-1.946zM328.971 156h-.942v8h.942v-2.15zM325.971 156h-.942v8h.942v-1.99zM323.971 158h-.942v6h.942v-2.065zM321.971 157h-.942v7h.942v-2.02zM319.971 158h-.942v6h.942v-2.152zM317.971 160h-.942v4h.942v-1.834zM313.971 161h-.942v3h.942v-1.768zM311.971 158h-.942v6h.942v-2.065zM309.971 156h-.942v8h.942v-2.053zM307.971 155h-.942v9h.942v-1.946zM304.971 154h-.942v10h.942v-1.97zM302.971 155h-.942v9h.942v-1.946zM300.971 157h-.942v7h.942v-2.173zM334.971 160h-.942v4h.942v-1.834zM336.971 158h-.942v6h.942v-2.065zM338.971 156h-.942v8h.942v-2.15zM340.971 156h-.942v8h.942v-1.99zM342.971 158h-.942v6h.942v-2.065zM344.971 157h-.942v7h.942v-2.02zM346.971 158h-.942v6h.942v-2.152zM348.971 160h-.942v4h.942v-1.834zM315.971 162h-.942v2h.942v-1.747zM277.399 169.018c0 1.006.235 1.577.599 1.577.408 0 .603-.625.603-1.613 0-.952-.186-1.578-.599-1.578-.349 0-.603.56-.603 1.614m1.601-.06c0 1.316-.372 2.042-1.025 2.042-.576 0-.967-.708-.975-1.988 0-1.298.426-2.012 1.025-2.012.62 0 .975.726.975 1.959M280 170.61c0-.232.151-.394.362-.394s.35.162.356.395c0 .22-.139.389-.362.389-.21 0-.356-.17-.356-.39m0-2.214c0-.234.151-.396.362-.396s.35.162.356.396c0 .218-.139.388-.362.388-.21 0-.356-.17-.356-.388M282.609 167.379h-.01l-.52.281-.079-.31.654-.35H283v3h-.391zM286 167v.268L284.62 170h-.444l1.375-2.654v-.01H284V167z" mask="url(#d)"/>
        <path fill="#333" d="M361.016 141l1.984 4.848L350.986 150 349 145.152z" mask="url(#d)"/>
        <path fill="#545671" d="M397.402 125.044a.662.662 0 0 1 .856.384l2.698 7.074a.671.671 0 0 1-.38.862l-40.977 15.592a.664.664 0 0 1-.857-.384l-2.698-7.073a.67.67 0 0 1 .382-.862l40.976-15.593zM345.354 156.463c-.255 10.137-8.68 18.149-18.817 17.893-10.137-.255-18.147-8.68-17.892-18.817.255-10.137 8.679-18.148 18.816-17.893 10.137.255 18.148 8.68 17.893 18.817m-43.346-1.091c-.347 13.803 10.56 25.273 24.363 25.62 13.802.347 25.273-10.56 25.621-24.362.346-13.804-10.562-25.275-24.363-25.622-13.804-.347-25.274 10.561-25.62 24.364" mask="url(#d)"/>
        <path fill="#FFCEBD" d="M649 491h-15l5.437-3.637 1.208-3.363H649z" mask="url(#d)"/>
        <path fill="#9FB6BE" d="M651 486.481v7.038c0 1.312-1.033 2.374-2.307 2.374 0 0-17.064.24-21.621 0-4.557-.242-9.072-1.61-9.072-1.61a4.784 4.784 0 0 1 2.965-2.823l9.39-3.049 9.633-3.411.078 4.458h7.802L651 486.48z" mask="url(#d)"/>
        <path fill="#4D5068" d="M653.78 403.684s-5.042 15.613-7.899 33.763c-2.887 18.345-3.6 39.266-5.881 46.553h10.067s6.823-21.884 7.409-38.4a14.72 14.72 0 0 1 2.736-8.012c5.91-8.306 19.297-27.936 18.773-34.588l-25.205.684z" mask="url(#d)"/>
        <path fill="#444757" d="M653.78 403.684s-5.042 15.613-7.899 33.763c-2.887 18.345-3.6 39.266-5.881 46.553h10.067s6.823-21.884 7.409-38.4a14.72 14.72 0 0 1 2.736-8.012c5.91-8.306 19.297-27.936 18.773-34.588l-25.205.684z" mask="url(#d)"/>
        <path fill="#FFCEBD" d="M703 484.09L690 491l2.59-6.46-.827-3.817 7.053-4.723z" mask="url(#d)"/>
        <path fill="#9FB6BE" d="M702.666 481l3.09 5.86c.607 1.15.033 2.562-1.21 2.98 0 0-15.33 5.121-19.476 6.533-4.148 1.411-8.813 0-8.813 0s-.942-.777-1.257-2.019l10.07-4.658 6.28-6.078 2.531 2.817 6.06-2.02 2.725-3.415z" mask="url(#d)"/>
        <path fill="#4D5068" d="M690.728 399l.908 6.714c.729 5.38.573 10.84-.464 16.171l-3.63 18.686a20.79 20.79 0 0 0 1.357 12.286L701 478.527 691.207 483l-16.775-29.99a8.65 8.65 0 0 1-1.056-3.293L668 400.535 690.728 399z" mask="url(#d)"/>
        <path fill="#FFCEBD" d="M670.607 360.928L686 361l-2.454-40.68h-9.15c-1.117 0-2.324-.42-3.39-.298.84.475 1.354 1.432 1.554 2.414.225 1.103.181 3.133.125 4.36-.056 1.226-3.685 6.775-3.685 7.906 0 1.338 1.607 24.888 1.607 26.226" mask="url(#d)"/>
        <path fill="#FFF" d="M684.145 330L686 361l-15.393-.072c0-1.35-1.607-25.083-1.607-26.432 0-.47.622-1.705 1.355-3.077 5.35 2.543 10.967.177 13.79-1.419" mask="url(#d)"/>
        <path fill="#91DDF8" d="M613 406h106v-46H613z" mask="url(#d)"/>
        <path fill="#A58877" d="M673.514 320.335H683l-2.31 1.953c-4.335.077-4.429 1.384-7.852 1.645-.33.026-.695.051-1.078.067-.025-.543-.07-1.05-.149-1.442-.207-1.03-.74-2.036-1.611-2.534 1.104-.13 2.355.311 3.514.311" mask="url(#d)"/>
        <path fill="#FFCEBD" d="M668.242 320.317c1.065 1.215 3.474 1.446 5.053 1.565 3.525.266 7.165-.001 10.705-.001V303h-17.218c.112 0 .057 1.995-.027 4.186-.069 1.838-1.727 6.185-1.755 7.239-.01.337 1.555.579 1.561.693l1.681 5.199z" mask="url(#d)"/>
        <path fill="#545671" d="M665.449 300.36c.782-1.048 2.241-3.855 3.525-3.766 1.283.09 2.607.37 3.828-.047 1.267-.431 2.33-1.588 3.662-1.546 1.809.058 4.22 2.267 6.011 2.528 1.34.196 2.713-.659 4.002-.235 5.24 1.724 2.384 8.804 2.93 10.023.431.969 1.362 1.697 1.555 2.744.36 1.952-1.967 3.384-2.241 5.351-.167 1.2.462 2.35.664 3.543.172 1.02-2.78 2.311-3.636 2.64l.022-.005c-.846.737-2.22.406-2.998-.406-.78-.812-1.111-1.956-1.417-3.052-.258-.927-.52-1.869-.512-2.832.016-1.809.939-3.79-.018-5.31-.648-.364-1.46.234-1.737.938-.277.705-.24 1.501-.46 2.227-.22.725-.886 1.435-1.601 1.244-.885-.236-.969-1.484-.824-2.41.144-.927-4.616-6.234-5.622-6.446-1.007-.211-2.06-.164-3.045-.465-1.896-.58-3.292-3.106-2.088-4.718" mask="url(#d)"/>
        <path fill="#6727E5" d="M682.999 323l1.544.79.962 1.599a10.383 10.383 0 0 0 4.704 4.137l1.643.728c3.652 1.617 6.341 4.798 7.288 8.622l2.975 12.002a64.105 64.105 0 0 1 1.129 25.248L700.164 396h-8.381l-.533-29.586a27.56 27.56 0 0 0-.478-4.65l-.197-1.04-19.575-.096s1.938-24.11 6.187-27.27l-1.744-1.31 3.88-1.621a3.868 3.868 0 0 0 2.316-2.816c.096-.484.192-.947.313-1.326L683 323z" mask="url(#d)"/>
        <path fill="#6727E5" d="M672 326l-1.668.812-6.087 3.932a16.888 16.888 0 0 0-5.3 5.454c-3.33 5.515-9.293 16.446-8.93 23.462l21.068.34s1.32-16.323-.772-23.359a9.109 9.109 0 0 1 .022-5.321L672 326z" mask="url(#d)"/>
        <path fill="#FFCEBD" d="M669 361l-.177-1.979c-.13-1.189-1.09-2.07-2.199-2.019l-.409.795-7.578-.138c-1.055-.02-1.84 1.044-1.59 2.15l.348 1.526c.177.778.823 1.324 1.564 1.324h.621c-.008 1.29.958 2.341 2.154 2.341h2.819c1.189 0 2.154-1.04 2.154-2.324v-1.874L669 361z" mask="url(#d)"/>
        <path fill="#EDF3FA" d="M707 401h3v-35h-3zM701 401h3v-35h-3z" mask="url(#d)"/>
        <path fill="#E6E7E8" d="M695 401h3v-35h-3z" mask="url(#d)"/>
        <path fill="#EDF3FA" d="M689 401h3v-35h-3zM683 401h3v-35h-3zM677 401h3v-35h-3zM671 401h3v-35h-3zM665 401h3v-35h-3zM659 401h3v-35h-3zM653 401h3v-35h-3zM646 401h3v-35h-3z" mask="url(#d)"/>
        <path fill="#FF3453" d="M707 401h3v-9h-3zM701 400h3v-17h-3zM695 400h3v-17h-3zM689 400h3v-28h-3zM683 400h3v-22h-3zM677 401h3v-8h-3zM671 400h3v-22h-3zM665 400h3v-10h-3zM659 400h3v-17h-3zM653 401h3v-24h-3zM646 400h3v-27h-3z" mask="url(#d)"/>
        <path fill="#FFCEBD" d="M698.187 396l.813 11.043a3.193 3.193 0 0 1-2.358 2.426l-.312.078-6.447.446a3.055 3.055 0 0 1-2.767-1.36l-.475-.727a3.9 3.9 0 0 1-.641-2.139v-1.362a5.54 5.54 0 0 1 1.881-4.149l4.038-3.573V396h6.268z" mask="url(#d)"/>
        <path fill="#A9B6FE" d="M620 371h22v-3h-22z" mask="url(#d)"/>
        <path fill="#DDE2FF" d="M620 379h22v-2h-22zM620 383h22v-2h-22zM620 388h22v-2h-22zM631 392h11v-2h-11z" mask="url(#d)"/>
        <path fill="#6727E5" d="M683 323l1.544.79 2.646 4.399 4.662 2.065c3.652 1.617 6.341 4.798 7.288 8.622l2.975 12.002a64.108 64.108 0 0 1 1.129 25.248L700.165 396h-8.381l-.533-29.586c-.027-1.56-1.569-10.412-1.569-10.412L683 323z" mask="url(#d)"/>
        <path fill="#545671" d="M444.149 381c-.017.015-.031 0-.049 0-.633 0-1.1 1.791-1.1 4.356 0 2.566.514 4.644 1.149 4.644H446v-9h-1.851zM461.851 381c.017.016.031 0 .049 0 .634 0 1.1 1.792 1.1 4.356 0 2.565-.514 4.644-1.149 4.644H460v-9h1.851zM449.478 393.457c-.628 0-1.223-.352-1.623-.96L446.214 390H445l2.657 4.04c.399.608.994.96 1.622.96H453v-1.543h-3.522z" mask="url(#d)"/>
        <path fill="#545671" d="M456 393.5c0 .828-.896 1.5-2 1.5s-2-.672-2-1.5c0-.829.896-1.5 2-1.5s2 .671 2 1.5" mask="url(#d)"/>
    </g>
</svg>
