<svg xmlns="http://www.w3.org/2000/svg" width="100" height="100" viewBox="0 0 100 100">
    <g fill="none" fill-rule="evenodd">
        <circle cx="50" cy="50" r="50" fill="#FB5E49"/>
        <g fill="#FFF" fill-rule="nonzero">
            <path d="M39.734 30.3a.966.966 0 0 0-1.366-.033l-.072.069a.969.969 0 0 0 .67 1.664c.242 0 .484-.09.671-.271l.063-.06a.969.969 0 0 0 .034-1.369zM58.707 68.293A1.008 1.008 0 0 0 58 68c-.264 0-.521.107-.707.293A1.008 1.008 0 0 0 57 69c0 .263.107.521.293.707.186.186.444.293.707.293.263 0 .521-.107.707-.293.186-.186.293-.444.293-.707 0-.263-.107-.521-.293-.707zM58 51c-1.654 0-3 1.463-3 3.262 0 1.465.893 2.707 2.118 3.118v7.66c0 .53.395.96.882.96s.882-.43.882-.96v-7.66C60.107 56.969 61 55.727 61 54.262 61 52.463 59.654 51 58 51zm0 4.605c-.681 0-1.235-.602-1.235-1.343 0-.74.554-1.343 1.235-1.343s1.235.602 1.235 1.343c0 .74-.554 1.343-1.235 1.343z"/>
            <path d="M70.06 72.086h-4.535v-9.422a7.68 7.68 0 0 1 1.336-4.348c2.631-3.855 4.216-9.23 4.136-14.028-.088-5.257-2.168-10.152-5.859-13.785-3.689-3.632-8.563-5.584-13.724-5.5a18.943 18.943 0 0 0-10.428 3.33.968.968 0 0 0-.255 1.328.929.929 0 0 0 1.304.26 17.156 17.156 0 0 1 4.788-2.291v14.596l-1.416 1.442a3.128 3.128 0 0 0-1.493-.379c-1.762 0-3.195 1.46-3.195 3.254s1.433 3.254 3.195 3.254c1.761 0 3.194-1.46 3.194-3.254 0-.55-.135-1.068-.372-1.522l1.69-1.721a.966.966 0 0 0 .276-.677v-15.44a17.15 17.15 0 0 1 4.225-.226v8.734a3.253 3.253 0 0 0-2.255 3.11c0 1.795 1.433 3.254 3.195 3.254 1.76 0 3.194-1.46 3.194-3.254 0-1.461-.95-2.7-2.255-3.11v-8.498c1.376.252 2.697.669 3.942 1.231v14.199c0 .254.1.497.276.677l1.69 1.72a3.282 3.282 0 0 0-.372 1.523c0 1.794 1.433 3.254 3.195 3.254 1.761 0 3.194-1.46 3.194-3.254s-1.433-3.254-3.194-3.254c-.54 0-1.047.137-1.493.379l-1.417-1.442v-12.81A17.772 17.772 0 0 1 69.12 44.32c.072 4.35-1.42 9.414-3.8 12.903a9.61 9.61 0 0 0-1.672 5.441v9.422h-8.84v-8.23c0-.254-.1-.498-.276-.678l-1.691-1.72c.237-.455.372-.973.372-1.523 0-1.794-1.433-3.254-3.194-3.254-1.762 0-3.195 1.46-3.195 3.254 0 1.795 1.433 3.254 3.195 3.254.539 0 1.047-.137 1.493-.378l1.416 1.441v7.834h-3.298v-1.431c0-2.058-1.644-3.732-3.664-3.732h-5.912c-2.034 0-3.688-1.686-3.688-3.757v-6.908a.948.948 0 0 0-.94-.957h-4.219L34.3 44.906a.974.974 0 0 0 .04-.277 17.91 17.91 0 0 1 3.061-10.04.968.968 0 0 0-.24-1.331.929.929 0 0 0-1.307.245 19.846 19.846 0 0 0-3.392 10.982L29.04 55.981a.972.972 0 0 0 .145.848.934.934 0 0 0 .755.387h4.546v5.95c0 3.127 2.497 5.67 5.567 5.67h5.912c.984 0 1.785.816 1.785 1.82v1.43H29.94a.948.948 0 0 0-.94.957c0 .528.42.957.94.957h40.12c.518 0 .939-.429.939-.957a.948.948 0 0 0-.94-.957zM43.913 47.883a1.33 1.33 0 0 1-1.316-1.34c0-.739.59-1.34 1.316-1.34a1.33 1.33 0 0 1 1.315 1.34c0 .739-.59 1.34-1.315 1.34zM55.182 38.8c0 .739-.59 1.34-1.316 1.34a1.33 1.33 0 0 1-1.315-1.34c0-.739.59-1.34 1.315-1.34a1.33 1.33 0 0 1 1.316 1.34zm8.355 6.402a1.33 1.33 0 0 1 1.315 1.34c0 .739-.59 1.34-1.315 1.34a1.33 1.33 0 0 1-1.316-1.34c0-.739.59-1.34 1.316-1.34zm-13.52 16.072a1.33 1.33 0 0 1-1.315-1.34c0-.738.59-1.34 1.315-1.34a1.33 1.33 0 0 1 1.316 1.34c0 .74-.59 1.34-1.316 1.34z"/>
        </g>
    </g>
</svg>
