<svg xmlns="http://www.w3.org/2000/svg" width="30" height="30" viewBox="0 0 30 30">
    <path fill="#DC3B41" fill-rule="nonzero" d="M15 0C6.729 0 0 6.729 0 15c0 8.27 6.729 15 15 15 8.27 0 15-6.73 15-15 0-8.271-6.728-15-15-15zm6.818 11.236c.007.147.01.296.01.445 0 4.528-3.536 9.748-10.008 9.748-1.986 0-3.835-.566-5.391-1.539.275.032.555.048.839.048a7.18 7.18 0 0 0 4.368-1.466c-1.539-.028-2.838-1.019-3.286-2.38a3.636 3.636 0 0 0 1.589-.058c-1.61-.314-2.822-1.7-2.822-3.36l.001-.043c.474.256 1.016.41 1.592.428a3.402 3.402 0 0 1-1.564-2.852c0-.628.173-1.217.476-1.723a10.077 10.077 0 0 0 7.25 3.581 3.338 3.338 0 0 1-.09-.781c0-1.892 1.574-3.427 3.516-3.427a3.56 3.56 0 0 1 2.567 1.082 7.135 7.135 0 0 0 2.235-.832 3.46 3.46 0 0 1-1.549 1.896 7.138 7.138 0 0 0 2.02-.539 6.977 6.977 0 0 1-1.753 1.772z"/>
</svg>
