<?xml version="1.0" encoding="UTF-8"?>
<svg width="265px" height="50px" viewBox="0 0 265 50" version="1.1" xmlns="http://www.w3.org/2000/svg" xmlns:xlink="http://www.w3.org/1999/xlink">
    <!-- Generator: sketchtool 53.2 (72643) - https://sketchapp.com -->
    <title>3F2E4406-FC2C-48CD-AEFA-B5D4660089CF</title>
    <desc>Created with sketchtool.</desc>
    <defs>
        <radialGradient cx="20.4994381%" cy="87.3920768%" fx="20.4994381%" fy="87.3920768%" r="110.2824%" id="radialGradient-1">
            <stop stop-color="#FAE100" offset="0%"></stop>
            <stop stop-color="#FADC04" offset="5.44%"></stop>
            <stop stop-color="#FBCE0E" offset="11.67%"></stop>
            <stop stop-color="#FCB720" offset="18.29%"></stop>
            <stop stop-color="#FE9838" offset="25.14%"></stop>
            <stop stop-color="#FF7950" offset="30.54%"></stop>
            <stop stop-color="#FF1C74" offset="49.22%"></stop>
            <stop stop-color="#6C1CD1" offset="100%"></stop>
        </radialGradient>
        <linearGradient x1="36.8759009%" y1="42.6177546%" x2="-154.039644%" y2="-64.7722395%" id="linearGradient-2">
            <stop stop-color="#A1B5D8" stop-opacity="0" offset="0%"></stop>
            <stop stop-color="#90A2BD" stop-opacity="0.309804" offset="30.94%"></stop>
            <stop stop-color="#7C8B9C" stop-opacity="0.756863" offset="75.54%"></stop>
            <stop stop-color="#748290" offset="100%"></stop>
        </linearGradient>
        <linearGradient x1="49.9996672%" y1="41.2557065%" x2="49.9996672%" y2="119.349194%" id="linearGradient-3">
            <stop stop-color="#FAE100" stop-opacity="0" offset="0%"></stop>
            <stop stop-color="#FCA800" stop-opacity="0.305882" offset="30.68%"></stop>
            <stop stop-color="#FE7300" stop-opacity="0.627451" offset="62.75%"></stop>
            <stop stop-color="#FF5200" stop-opacity="0.866667" offset="86.85%"></stop>
            <stop stop-color="#FF4500" offset="100%"></stop>
        </linearGradient>
        <linearGradient x1="31.6097795%" y1="31.2687228%" x2="1.2163078%" y2="1.03725639%" id="linearGradient-4">
            <stop stop-color="#833AB4" stop-opacity="0" offset="0%"></stop>
            <stop stop-color="#833AB4" offset="100%"></stop>
        </linearGradient>
        <linearGradient x1="58.2371646%" y1="88.5512159%" x2="41.8417883%" y2="11.3608773%" id="linearGradient-5">
            <stop stop-color="#833AB4" stop-opacity="0" offset="0%"></stop>
            <stop stop-color="#833AB4" offset="100%"></stop>
        </linearGradient>
        <linearGradient x1="60.5048093%" y1="60.5047823%" x2="-15.9715487%" y2="-15.9716059%" id="linearGradient-6">
            <stop stop-color="#833AB4" stop-opacity="0" offset="0%"></stop>
            <stop stop-color="#833AB4" offset="100%"></stop>
        </linearGradient>
        <linearGradient x1="40.2793567%" y1="33.2168435%" x2="5.2944048%" y2="-6.34929376%" id="linearGradient-7">
            <stop stop-color="#833AB4" stop-opacity="0" offset="0%"></stop>
            <stop stop-color="#833AB4" offset="100%"></stop>
        </linearGradient>
        <linearGradient x1="81.5887586%" y1="19.065856%" x2="17.2310239%" y2="82.5326174%" id="linearGradient-8">
            <stop stop-color="#833AB4" offset="0%"></stop>
            <stop stop-color="#9C3495" offset="9.22%"></stop>
            <stop stop-color="#DC2546" offset="29.27%"></stop>
            <stop stop-color="#FD1D1D" offset="39.2%"></stop>
            <stop stop-color="#FC6831" offset="55.89%"></stop>
            <stop stop-color="#FC9B40" offset="68.87%"></stop>
            <stop stop-color="#FCAF45" offset="75.21%"></stop>
            <stop stop-color="#FDB750" offset="78.06%"></stop>
            <stop stop-color="#FECB6A" offset="86.56%"></stop>
            <stop stop-color="#FFD87A" offset="94.15%"></stop>
            <stop stop-color="#FFDC80" offset="100%"></stop>
        </linearGradient>
    </defs>
    <g id="Desktop" stroke="none" stroke-width="1" fill="none" fill-rule="evenodd">
        <g id="Digital-Touchpoints" transform="translate(-588.000000, -228.000000)">
            <g id="ICONOS-DIGITAL" transform="translate(588.000000, 228.000000)">
                <g id="whatsapp-green">
                    <g id="whatsapp">
                        <path d="M0,50 L3.44824219,37.5 C1.20693359,33.6207031 0,29.3103516 0,24.8275391 C0,11.2069336 11.2069336,0 24.9137695,0 C38.6206055,0 50,11.2069336 50,24.8275391 C50,38.4481445 38.6207031,50 24.9137695,50 C20.603418,50 16.4655273,48.6207031 12.7585937,46.5517578 L0,50 Z" id="Path" fill="#FFFFFF" fill-rule="nonzero"></path>
                        <path d="M13.4541807,42.0601705 L14.2296607,42.4910036 C17.4176694,44.4726992 21.1226974,45.6790123 25,45.6790123 C36.2872609,45.6790123 45.6790123,36.2872609 45.6790123,24.8276277 C45.6790123,13.3679946 36.2872609,4.32098765 24.9138139,4.32098765 C13.5403668,4.32098765 4.32098765,13.4541807 4.32098765,24.8276277 C4.32098765,28.7911165 5.44111465,32.6684191 7.50899636,35.9426139 L8.0260156,36.718094 L6.04432002,43.9557776 L13.4541807,42.0601705 Z" id="Path" fill="#00DC87" fill-rule="nonzero"></path>
                        <path d="M18.2682108,13.3572599 L16.6288632,13.2716049 C16.1111179,13.2716049 15.5934703,13.4429149 15.2483393,13.7854379 C14.4717703,14.4704837 13.1775536,15.7549205 12.8324227,17.4676323 C12.2284679,20.0366029 13.1775536,23.1193094 15.4209537,26.2020159 C17.6643538,29.2847224 21.9785396,34.2513536 29.5714206,36.3921462 C31.9873373,37.0771921 33.8856064,36.6490142 35.4387446,35.7071003 C36.6467518,34.9363995 37.4232232,33.7376177 37.6821447,32.4530839 L37.9409685,31.2542051 C38.0272756,30.9116821 37.8546613,30.4835042 37.5095303,30.3122912 L32.0736445,27.8289756 C31.7285135,27.6576656 31.2970754,27.7433206 31.0382516,28.0858436 L28.8811587,30.8260271 C28.7085444,30.9973371 28.4497206,31.0828951 28.1908968,30.9973371 C26.7240658,30.4835042 21.8059252,28.4283665 19.131087,23.2905223 C19.0447799,23.0336544 19.0447799,22.7766894 19.2173942,22.6054764 L21.2881799,20.2934708 C21.4607943,20.0366029 21.5470037,19.6940799 21.4607943,19.437115 L18.9585704,13.8710928 C18.8721655,13.6141279 18.6133417,13.3572599 18.2682108,13.3572599" id="Path" fill="#FEFEFE" fill-rule="nonzero"></path>
                    </g>
                </g>
                <g id="messenger" transform="translate(141.000000, 0.000000)">
                    <g id="mensajero">
                        <path d="M24.9537037,0.00487329435 C11.4688109,-0.261013645 0.310331384,10.4325536 0.00243664717,23.9164717 C0.0376218324,30.7803119 3.07690058,37.2846004 8.31949318,41.7150097 L8.31949318,48.8677388 C8.31949318,49.4419103 8.78499025,49.9074074 9.35916179,49.9074074 C9.5539961,49.9074074 9.74493177,49.8526316 9.91013645,49.7494152 L15.7050682,46.1294347 C18.6575049,47.2586745 21.7926901,47.8345029 24.9537037,47.8281676 C38.4385965,48.0940546 49.597076,37.4004873 49.9049708,23.9165692 C49.597076,10.4325536 38.4385965,-0.261013645 24.9537037,0.00487329435 Z" id="Path" fill="#2196F3" fill-rule="nonzero"></path>
                        <path d="M41.379922,17.0548733 C41.0705653,16.6402534 40.5034113,16.5161793 40.0492203,16.7637427 L29.237037,22.6584795 L22.5106238,16.8905458 C22.0981481,16.5369396 21.4829435,16.5604288 21.0988304,16.9446394 L8.62319688,29.4202729 C8.21842105,29.8274854 8.22037037,30.48577 8.62768031,30.8905458 C8.95331384,31.21423 9.45263158,31.2859649 9.85623782,31.0670565 L20.6684211,25.1723197 L27.4010721,30.9423002 C27.8135478,31.2959064 28.4287524,31.2724172 28.8128655,30.8882066 L41.288499,18.4125731 C41.6520468,18.045614 41.6910331,17.4673489 41.379922,17.0548733 Z" id="Path" fill="#FAFAFA" fill-rule="nonzero"></path>
                    </g>
                </g>
                <g id="bot" transform="translate(74.000000, 0.000000)">
                    <g id="Group-12">
                        <path d="M36.3804895,8.92761364 L21.9709632,8.92761364 L6.07680526,8.92761364 C2.72280526,8.93329545 0.00588421053,11.6628409 0.00022631579,15.0298864 L0.00022631579,36.9276136 C0.0183315789,40.2867045 2.73185789,43.0003409 6.07680526,43.0071591 L24.5441737,43.0071591 L24.7478579,43.3821591 C25.4381211,44.6094318 27.9049632,48.5753409 31.8428579,49.9389773 C30.7384368,48.0321591 30.2518579,45.82875 30.4510158,43.6321591 L30.5415421,43.0298864 L36.3804895,43.0298864 C39.7288316,43.0173864 42.4389632,40.29125 42.4457526,36.9276136 L42.4457526,15.0298864 C42.4389632,11.6673864 39.7288316,8.94011364 36.3804895,8.92761364" id="Fill-1" fill="#00DDFF"></path>
                        <path d="M21.2009237,5.04136364 C20.2447395,5.02318182 19.4707395,4.25272727 19.4469763,3.29136364 L19.4130289,3.24590909 C19.4130289,2.25386364 20.2130553,1.45045455 21.2009237,1.45045455 C22.1887921,1.45045455 22.9888184,2.25386364 22.9888184,3.24590909 C22.9888184,4.23681818 22.1887921,5.04136364 21.2009237,5.04136364 M24.4100816,2.53454545 C24.0038447,0.774318182 22.2532921,-0.322272727 20.4993447,0.0856818182 C18.7465289,0.493636364 17.6545553,2.25159091 18.0607921,4.01181818 C18.3414237,5.23 19.2874237,6.18 20.4993447,6.46181818 L20.4993447,8.91636364 L21.9703974,8.92772727 L21.9703974,6.46181818 C23.7243447,6.05386364 24.8163184,4.29590909 24.4100816,2.53454545" id="Fill-4" fill="#00DDFF"></path>
                        <path d="M29.6247368,32.2685227 C26.8998947,33.4935227 23.9419474,34.1094318 20.9568421,34.0753409 C18.1493947,34.04125 15.3804211,33.4264773 12.8207895,32.2685227 C12.4598158,32.0969318 12.0275526,32.2503409 11.8555526,32.6139773 L11.8476316,32.6321591 C11.6801579,33.0026136 11.8419737,33.4389773 12.2097368,33.6094318 C14.9526842,34.8560227 17.9230789,35.5173864 20.9342105,35.5526136 L21.2171053,35.5526136 C24.338,35.55375 27.4226842,34.89125 30.2697368,33.6094318 C30.6386316,33.4298864 30.7925263,32.9855682 30.6148684,32.6151136 C30.4372105,32.2446591 29.9936316,32.0901136 29.6247368,32.2685227" id="Fill-6" stroke="#FFFFFF" fill="#FFFFFF"></path>
                        <path d="M9.64082632,21.81375 C9.64082632,20.0876136 11.0338,18.68875 12.7526684,18.68875 C14.4715368,18.68875 15.8645105,20.0876136 15.8645105,21.81375 C15.8645105,23.5398864 14.4715368,24.93875 12.7526684,24.93875 C11.0338,24.93875 9.64082632,23.5398864 9.64082632,21.81375 M17.3355632,21.81375 C17.3355632,19.2728409 15.2840105,17.2114773 12.7526684,17.2114773 C10.2213263,17.2114773 8.16977368,19.2728409 8.16977368,21.81375 C8.16977368,24.3557955 10.2213263,26.4160227 12.7526684,26.4160227 C15.2840105,26.4160227 17.3355632,24.3557955 17.3355632,21.81375" id="Fill-8" stroke="#FFFFFF" fill="#FFFFFF"></path>
                        <path d="M29.6927447,24.93875 C27.9738763,24.93875 26.5809026,23.5398864 26.5809026,21.81375 C26.5809026,20.0876136 27.9738763,18.68875 29.6927447,18.68875 C31.4116132,18.68875 32.8045868,20.0876136 32.8045868,21.81375 C32.8045868,23.5398864 31.4116132,24.93875 29.6927447,24.93875 L29.6927447,24.93875 Z M29.6927447,17.2228409 C27.1930868,17.2546591 25.1913237,19.3148864 25.2230079,21.8251136 C25.2546921,24.3353409 27.3062447,26.3444318 29.8059026,26.3126136 C32.2829289,26.2819318 34.2756395,24.2569318 34.2756395,21.7682955 C34.2756395,19.2580682 32.2489816,17.2228409 29.7493237,17.2228409 L29.6927447,17.2228409 Z" id="Fill-10" stroke="#FFFFFF" fill="#FFFFFF"></path>
                    </g>
                </g>
                <g id="instagram" transform="translate(215.000000, 0.000000)">
                    <g>
                        <path d="M49.1439819,8.94317627 C48.6888886,4.67910762 45.3212738,1.31072998 41.0568237,0.856018066 C30.3627014,-0.285339355 19.6372986,-0.285339355 8.94355771,0.856018066 C4.67910762,1.31111143 1.31111143,4.67910762 0.856018066,8.94317627 C-0.285339355,19.6369171 -0.285339355,30.3627014 0.856018066,41.0564423 C1.31111143,45.3208924 4.67910762,48.6888886 8.94317627,49.1439819 C19.6369171,50.2853394 30.3627014,50.2853394 41.0568237,49.1439819 C45.3212738,48.6888886 48.6888886,45.3208924 49.1439819,41.0564423 C50.2853394,30.3627014 50.2853394,19.6372986 49.1439819,8.94317627 Z" id="Path" fill="url(#radialGradient-1)" fill-rule="nonzero"></path>
                        <path d="M46.4244843,10.7517242 C46.0208893,6.96792598 43.0324555,3.97911074 39.2482758,3.57513428 C29.7588349,2.56271367 20.2411651,2.56271367 10.7517242,3.57513428 C6.96792598,3.97911074 3.97911074,6.96792598 3.57513428,10.7517242 C2.56271367,20.2411651 2.56271367,29.7588349 3.57513428,39.2478943 C3.97911074,43.032074 6.96792598,46.0208893 10.7517242,46.4244843 C20.2411651,47.4372863 29.7588349,47.4372863 39.2478943,46.4244843 C43.032074,46.0208893 46.0208893,43.032074 46.4244843,39.2478943 C47.4372863,29.7588349 47.4372863,20.2411651 46.4244843,10.7517242 L46.4244843,10.7517242 Z" id="Path" fill="url(#linearGradient-2)" fill-rule="nonzero"></path>
                        <path d="M0.749206543,40.0199891 C0.783538867,40.3656006 0.819015527,40.7112121 0.856018066,41.0568237 C1.31111143,45.3208924 4.67910762,48.6888886 8.94355771,49.1439819 C19.6372986,50.2853394 30.3630829,50.2853394 41.0568237,49.1439819 C45.3212738,48.6888886 48.6888886,45.3208924 49.1439819,41.0568237 C49.1809845,40.7112121 49.2164611,40.3656006 49.2511749,40.0199891 L0.749206543,40.0199891 Z" id="Path" fill="url(#linearGradient-3)" fill-rule="nonzero"></path>
                        <path d="M49.1439819,41.0564423 C49.7573853,35.3103638 50.0404357,29.55513 49.9946594,23.8006592 L38.5658264,12.3718262 C37.1379853,10.7418061 35.0524902,9.72442627 32.6019287,9.63630674 C27.5623321,9.45472715 22.5067139,9.46388242 17.4663544,9.63706973 C13.2801056,9.78126523 10.3527069,12.5949859 9.60197451,16.7304992 C9.46960449,17.4606323 9.39025879,18.2003021 9.28611758,18.9357758 L9.28611758,31.0596466 C9.34371953,31.4525604 9.42840576,31.8435669 9.45472715,32.2387695 C9.62257383,34.7541809 10.6563568,36.9087219 12.3115539,38.3663178 L23.9418029,49.9961854 C29.649353,50.0362396 35.3572846,49.7524262 41.0568237,49.1439819 C45.3212738,48.6888886 48.6888886,45.3208924 49.1439819,41.0564423 L49.1439819,41.0564423 Z" id="Path" fill="url(#linearGradient-4)" fill-rule="nonzero"></path>
                        <path d="M49.1439819,41.0568237 C48.68927,45.3205108 45.3205108,48.68927 41.0568237,49.1439819 C35.3580475,49.7520447 29.6489716,50.0362396 23.9421845,49.9961854 L12.329483,38.3834839 C13.6756896,39.5618438 15.4304504,40.2793885 17.4667358,40.3560639 C22.505951,40.5452729 27.5627137,40.5403137 32.6019287,40.3587342 C37.159729,40.1939393 40.4579162,36.8206024 40.6002045,32.2628021 C40.7520294,27.4234771 40.7520294,22.5715637 40.6002045,17.7322388 C40.5353546,15.6295776 39.7972107,13.7794494 38.5734559,12.3794556 L49.9950409,23.8010406 C50.0400543,29.5547485 49.7570038,35.3107452 49.1439819,41.0568237 Z" id="Path" fill="url(#linearGradient-5)" fill-rule="nonzero"></path>
                        <path d="M30.8998107,19.5858002 C29.43573,17.9916382 27.3349762,16.9914246 25,16.9914246 C20.57724,16.9914246 16.9914246,20.57724 16.9914246,25 C16.9914246,27.3349762 17.9916382,29.43573 19.5858002,30.8998107 L38.1149292,49.4289398 C39.0956879,49.3434906 40.0764465,49.2485047 41.0564423,49.1439819 C45.3208924,48.6888886 48.6888886,45.3208924 49.1439819,41.0564423 C49.2485047,40.0764465 49.3434906,39.0956879 49.4289398,38.1149292 L30.8998107,19.5858002 Z" id="Path" fill="url(#linearGradient-6)" fill-rule="nonzero"></path>
                        <path d="M49.9031066,30.3859711 L34.9906922,15.473938 C34.6427918,15.0173188 34.0946197,14.7209168 33.4762573,14.7209168 C32.4241639,14.7209168 31.570816,15.573883 31.570816,16.626358 C31.570816,17.2447205 31.867218,17.7928925 32.3238373,18.1407929 L49.6364594,35.4537964 C49.7539521,33.7650299 49.8428345,32.0755005 49.9031066,30.3859711 L49.9031066,30.3859711 Z" id="Path" fill="url(#linearGradient-7)" fill-rule="nonzero"></path>
                        <path d="M9.28611758,18.9357758 C9.39025879,18.2003021 9.46960449,17.4606323 9.60197451,16.7304992 C10.3523254,12.5949859 13.2801056,9.78126523 17.4663544,9.63706973 C22.5067139,9.46388242 27.5623321,9.45472715 32.6019287,9.63630674 C37.1582031,9.80033877 40.4579162,13.174057 40.6002045,17.7318573 C40.7516479,22.5715637 40.7516479,27.4230957 40.6002045,32.2628021 C40.4579162,36.8206024 37.1593476,40.1939393 32.6023102,40.3583526 C27.5627137,40.5403137 22.505951,40.5448914 17.4667358,40.3556824 C12.9096984,40.1844024 9.75952148,36.8030548 9.45472715,32.2383881 C9.42840576,31.8435669 9.34371953,31.4521789 9.28611758,31.0592651 C9.28611758,27.0179748 9.28611758,22.9766846 9.28611758,18.9357758 Z M25.0041962,37.6571655 C27.3105621,37.6571655 29.6192169,37.7262115 31.9225312,37.6411437 C35.5339051,37.5072479 37.7552032,35.3519439 37.839508,31.7440033 C37.9440308,27.2483826 37.9440308,22.7466583 37.839508,18.2506562 C37.7552032,14.6434784 35.5323791,12.4378204 31.9225312,12.361145 C27.3406982,12.2642518 22.7539062,12.2650146 18.1720733,12.361145 C14.5896912,12.4362945 12.361908,14.5973205 12.2646332,18.1648254 C12.141037,22.7172852 12.141037,27.2777558 12.2646332,31.8302154 C12.361908,35.3973389 14.5896912,37.5083924 18.1724549,37.6411437 C20.4467773,37.7258301 22.7268219,37.6571655 25.0041962,37.6571655 L25.0041962,37.6571655 Z" id="Shape" fill="url(#linearGradient-8)" fill-rule="nonzero"></path>
                        <g id="Group" transform="translate(9.277344, 9.472656)" fill="#FFFFFF" fill-rule="nonzero">
                            <path d="M0.00877382812,9.46311953 C0.112915039,8.7276459 0.192260742,7.98797607 0.324630762,7.25784297 C1.07498164,3.12232969 4.00276182,0.308608984 8.18901064,0.164413477 C13.2293701,-0.00877382812 18.2849884,-0.0179291016 23.324585,0.163650488 C27.8808594,0.32768252 31.1805725,3.70140078 31.3228607,8.25920107 C31.4743042,13.0989074 31.4743042,17.9504395 31.3228607,22.7901459 C31.1805725,27.3479462 27.8820038,30.721283 23.3249664,30.8856964 C18.2853699,31.0676574 13.2286072,31.0722352 8.18939209,30.8830262 C3.63235469,30.7117462 0.482177734,27.3303985 0.177383398,22.7657318 C0.151062012,22.3709106 0.0663757812,21.9795227 0.00877382812,21.5866089 C0.00877382812,17.5453186 0.00877382812,13.5040283 0.00877382812,9.46311953 Z M15.7268524,28.1845093 C18.0332184,28.1845093 20.3418731,28.2535553 22.6451874,28.1684875 C26.2565613,28.0345917 28.4778595,25.8792877 28.5621643,22.2713471 C28.666687,17.7757264 28.666687,13.2740021 28.5621643,8.7779999 C28.4778595,5.17082217 26.2550354,2.96516416 22.6451874,2.88848877 C18.0633545,2.79159551 13.4765625,2.7923584 8.89472959,2.88848877 C5.31234746,2.96363828 3.08456426,5.12466426 2.98728945,8.69216914 C2.86369326,13.2446289 2.86369326,17.8050995 2.98728945,22.3575592 C3.08456426,25.9246826 5.31234746,28.0357361 8.89511113,28.1684875 C11.1694336,28.2531738 13.4494781,28.1845093 15.7268524,28.1845093 L15.7268524,28.1845093 Z" id="Shape"></path>
                            <path d="M15.7226562,7.5191498 C11.2998963,7.5191498 7.71408086,11.1045838 7.71408086,15.5273438 C7.71408086,19.9504853 11.2998963,23.5359191 15.7226562,23.5359191 C20.1457978,23.5359191 23.7312316,19.9504853 23.7312316,15.5273438 C23.7312316,11.1045838 20.1457978,7.5191498 15.7226562,7.5191498 Z M15.7226562,20.7786561 C12.8223419,20.7786561 10.4713439,18.4276581 10.4713439,15.5273438 C10.4713439,12.6270294 12.8223419,10.2760314 15.7226562,10.2760314 C18.6229706,10.2760314 20.9739686,12.6270294 20.9739686,15.5273438 C20.9739686,18.4276581 18.6229706,20.7786561 15.7226562,20.7786561 Z" id="Shape"></path>
                            <path d="M26.1039734,7.15370176 C26.1039734,8.20579531 25.251007,9.05876162 24.1989136,9.05876162 C23.1468201,9.05876162 22.2934723,8.20579531 22.2934723,7.15370176 C22.2934723,6.10122676 23.1468201,5.24826055 24.1989136,5.24826055 C25.251007,5.24826055 26.1039734,6.10122676 26.1039734,7.15370176 Z" id="Path"></path>
                        </g>
                    </g>
                </g>
            </g>
        </g>
    </g>
</svg>