<?xml version="1.0" encoding="UTF-8"?>
<svg width="819px" height="654px" viewBox="0 0 819 654" version="1.1" xmlns="http://www.w3.org/2000/svg" xmlns:xlink="http://www.w3.org/1999/xlink">
    <!-- Generator: Sketch 53.2 (72643) - https://sketchapp.com -->
    <title>img-addons</title>
    <desc>Created with Sketch.</desc>
    <defs>
        <linearGradient x1="20.1745489%" y1="33.5219951%" x2="80.6131757%" y2="62.3225566%" id="linearGradient-1">
            <stop stop-color="#FFFFFF" stop-opacity="0.105031687" offset="0.0923775338%"></stop>
            <stop stop-color="#E6E6E6" offset="100%"></stop>
        </linearGradient>
        <polygon id="path-2" points="0 501 570 501 570 0 0 0"></polygon>
    </defs>
    <g id="img-addons" stroke="none" stroke-width="1" fill="none" fill-rule="evenodd">
        <g transform="translate(12.000000, 0.000000)">
            <g id="Fill-1" fill="url(#linearGradient-1)">
                <path d="M201.911813,0 C179.723651,0.0286076688 157.702869,2.8499157 137.716672,8.13937501 C98.1649925,18.6068224 52.4292629,46.7597279 46.0258084,87.3707799 C42.3988429,110.382197 59.9557535,128.696037 63.080576,150.58485 C69.0576613,192.480287 20.0308592,196.445902 4.46329453,227.863041 C-16.1313552,269.422092 39.6890801,300.515669 67.1214702,323.783568 C104.125113,355.170127 130.999944,401.39716 112.246485,448.370953 C93.8119553,494.531892 44.3271174,520.811489 25.2886586,566.725811 C4.58091361,616.662963 27.3006236,678.789941 76.5377829,706.870834 C110.588509,726.290509 152.615844,729.568553 192.559964,727.432843 C285.037971,722.486676 375.61824,690.61576 448.245764,637.46863 C478.622024,615.240471 508.733641,588.213129 547.242583,584.260339 C611.221711,577.694386 660.165954,636.352931 721.82776,653.437628 C780.655399,669.736107 846.039171,644.879003 888.430673,603.807268 C909.088656,583.795711 926.142293,558.101092 924.94009,530.464111 C923.322827,493.257371 890.399662,464.658581 860.599056,439.601222 C830.798451,414.54485 799.419036,383.424639 802.386656,346.289912 C806.344991,296.752281 867.838285,268.484945 886.938946,222.055685 C904.04913,180.469012 883.376445,133.480423 854.807447,97.6715137 C816.097196,49.1489615 751.855687,8.94828151 688.739475,24.1517778 C626.697669,39.097805 588.050751,101.840342 525.595016,115.232676 C479.95881,125.019459 432.863676,105.722106 394.06521,81.4549113 C360.94639,60.7380268 330.608582,35.9243267 294.860296,18.9609656 C267.588501,6.02142105 234.90849,0.0394588535 202.559849,0 L201.911813,0 Z" transform="translate(462.500000, 364.000000) scale(-1, 1) translate(-462.500000, -364.000000) "></path>
            </g>
            <g id="Group-157" transform="translate(133.000000, 137.000000)">
                <path d="M498.076178,104 L108.923822,104 C94.0529926,104 82,116.038644 82,130.889024 L82,345.110126 C82,359.961356 94.0529926,372 108.923822,372 L498.076178,372 C512.946157,372 525,359.961356 525,345.110126 L525,130.889024 C525,116.038644 512.946157,104 498.076178,104" id="Fill-1" fill="#D1D3D4"></path>
                <path d="M498.076178,104 L108.923822,104 C94.0529926,104 82,116.038644 82,130.889024 L82,345.110126 C82,359.961356 94.0529926,372 108.923822,372 L498.076178,372 C512.946157,372 525,359.961356 525,345.110126 L525,130.889024 C525,116.038644 512.946157,104 498.076178,104" id="Fill-3" fill="#333333"></path>
                <path d="M486.615555,118 L130.383596,118 C122.991642,118 117,123.987677 117,131.373695 L117,343.626305 C117,351.011475 122.991642,357 130.383596,357 L486.615555,357 C494.00751,357 500,351.011475 500,343.626305 L500,131.373695 C500,123.987677 494.00751,118 486.615555,118" id="Fill-5" fill="#F2F2F2"></path>
                <path d="M109,238.000424 C109,242.970479 104.971138,247 100,247 C95.0297114,247 91,242.970479 91,238.000424 C91,233.03037 95.0297114,229 100,229 C104.971138,229 109,233.03037 109,238.000424" id="Fill-7" fill="#4F4F4F"></path>
                <path d="M474.252378,132 L147.747622,132 C141.259001,132 136,137.284475 136,143.804525 L136,329.195475 C136,335.713819 141.259001,341 147.747622,341 L474.252378,341 C480.740999,341 486,335.713819 486,329.195475 L486,143.804525 C486,137.284475 480.740999,132 474.252378,132" id="Fill-9" fill="#FFFFFF"></path>
                <path d="M474.252378,133 L147.747622,133 C141.259001,133 136,138.168336 136,144.545092 L136,164 L486,164 L486,144.545092 C486,138.168336 480.740999,133 474.252378,133" id="Fill-11" fill="#0096FF"></path>
                <path d="M420.029458,224.598329 C406.492604,224.943834 396.456426,212.370339 383.974941,207.094151 C368.052917,200.363608 348.627674,206.710351 336.933058,219.481278 C331.42667,225.495281 326.481,233.300634 318.468321,234.696271 C307.050676,236.686755 297.822542,224.399195 286.306645,223.106529 C269.271654,221.194337 258.24702,242.946697 241.328916,245.711589 C225.983703,248.218629 210.133674,234.315875 195.828585,240.430296 C189.609017,243.089664 185.468851,248.967507 180.41307,253.475244 C175.356442,257.982129 167.659696,261.194646 162,257.480891 L162,280 L461,280 L461,203 C447.13366,209.237815 435.217975,224.211976 420.029458,224.598329" id="Fill-13" fill="#DB3931"></path>
                <path d="M184,307 C184,313.074575 179.07525,318 172.999565,318 C166.92475,318 162,313.074575 162,307 C162,300.925425 166.92475,296 172.999565,296 C179.07525,296 184,300.925425 184,307" id="Fill-15" fill="#FFCE55"></path>
                <mask id="mask-3" fill="white">
                    <use xlink:href="#path-2"></use>
                </mask>
                <g id="Clip-18"></g>
                <polygon id="Fill-17" fill="#FFCE55" mask="url(#mask-3)" points="193 313 297 313 297 301 193 301"></polygon>
                <polygon id="Fill-19" fill="#00A79D" mask="url(#mask-3)" points="358 297 462 297 462 291 358 291"></polygon>
                <polygon id="Fill-20" fill="#00A79D" mask="url(#mask-3)" points="358 310 462 310 462 304 358 304"></polygon>
                <polygon id="Fill-21" fill="#00A79D" mask="url(#mask-3)" points="358 323 462 323 462 317 358 317"></polygon>
                <polygon id="Fill-22" fill="#BADC00" mask="url(#mask-3)" points="161 196 213 196 213 177 161 177"></polygon>
                <path d="M471,148 C471,151.314007 468.313171,154 465,154 C461.686829,154 459,151.314007 459,148 C459,144.686829 461.686829,142 465,142 C468.313171,142 471,144.686829 471,148" id="Fill-23" fill="#00DDFF" mask="url(#mask-3)"></path>
                <path d="M421,148 C421,151.314007 418.31382,154 415.000418,154 C411.68618,154 409,151.314007 409,148 C409,144.686829 411.68618,142 415.000418,142 C418.31382,142 421,144.686829 421,148" id="Fill-24" fill="#FFC73C" mask="url(#mask-3)"></path>
                <path d="M447,148 C447,151.314007 444.313171,154 441,154 C437.685993,154 435,151.314007 435,148 C435,144.686829 437.685993,142 441,142 C444.313171,142 447,144.686829 447,148" id="Fill-25" fill="#FF3453" mask="url(#mask-3)"></path>
                <path d="M420.500428,414.279742 C416.204122,414.279742 412.720538,410.79708 412.720538,406.5 C412.720538,402.204631 416.204122,398.721113 420.500428,398.721113 C424.795878,398.721113 428.279462,402.204631 428.279462,406.5 C428.279462,410.79708 424.795878,414.279742 420.500428,414.279742 M440.258987,401.746093 L436.178267,401.746093 C435.862588,400.705829 435.454516,399.717748 434.949773,398.775864 L437.833653,395.891183 C438.904736,394.820976 438.904736,393.085206 437.833653,392.014999 L434.986559,389.167959 C433.915477,388.096897 432.179673,388.096897 431.108591,389.167959 L428.224711,392.051785 C427.283664,391.547051 426.294709,391.138132 425.25528,390.823315 L425.25528,386.742671 C425.25528,385.22847 424.027642,384 422.514268,384 L418.486588,384 C416.973213,384 415.74472,385.22847 415.74472,386.742671 L415.74472,390.822459 C414.705291,391.138132 413.716336,391.546196 412.775289,392.051785 L409.891409,389.167959 C408.820327,388.096897 407.084523,388.096897 406.013441,389.167959 L403.166347,392.014999 C402.095264,393.085206 402.095264,394.820976 403.166347,395.891183 L406.050227,398.775864 C405.546339,399.717748 405.138267,400.705829 404.822589,401.746093 L400.741868,401.746093 C399.227638,401.746093 398,402.972853 398,404.487909 L398,408.513802 C398,410.027147 399.227638,411.255618 400.741868,411.255618 L404.822589,411.255618 C405.138267,412.295027 405.546339,413.283107 406.050227,414.224991 L403.166347,417.109673 C402.095264,418.179879 402.095264,419.91565 403.166347,420.986712 L406.013441,423.833752 C407.084523,424.903958 408.820327,424.903958 409.891409,423.833752 L412.775289,420.949926 C413.716336,421.455515 414.705291,421.861868 415.74472,422.177541 L415.74472,426.258184 C415.74472,427.772385 416.973213,429 418.486588,429 L422.514268,429 C424.027642,429 425.25528,427.772385 425.25528,426.258184 L425.25528,422.177541 C426.294709,421.861868 427.283664,421.45466 428.224711,420.94907 L431.108591,423.833752 C432.179673,424.903958 433.915477,424.903958 434.986559,423.833752 L437.833653,420.986712 C438.904736,419.91565 438.904736,418.179879 437.833653,417.109673 L434.949773,414.224991 C435.453661,413.283107 435.862588,412.295027 436.178267,411.255618 L440.258987,411.255618 C441.772362,411.255618 443,410.027147 443,408.513802 L443,404.487909 C443,402.972853 441.772362,401.746093 440.258987,401.746093" id="Fill-26" fill="#DB3931" mask="url(#mask-3)"></path>
                <path d="M196.886578,392 L168.11258,392 C164.737655,392 162,394.736869 162,398.113548 L162,426.887294 C162,430.263131 164.737655,433 168.11258,433 L196.886578,433 C200.262345,433 203,430.263131 203,426.887294 L203,398.113548 C203,394.736869 200.262345,392 196.886578,392" id="Fill-27" fill="#6AD1F6" mask="url(#mask-3)"></path>
                <path d="M179.446139,421 L171.68527,413.177991 C170.771577,412.257957 170.771577,410.766541 171.68527,409.846506 C172.598113,408.926471 174.077022,408.926471 174.989865,409.846506 L179.446139,414.337886 L190.010135,403.690669 C190.922978,402.769777 192.401887,402.769777 193.31473,403.690669 C194.228423,404.609847 194.228423,406.100406 193.31473,407.022154 L179.446139,421 Z" id="Fill-28" fill="#FFFFFF" mask="url(#mask-3)"></path>
                <path d="M513.941618,36 L502,66.167375 C505.476415,67.3493887 509.203758,68 513.086762,68 C528.891819,68 542.176539,57.3618763 546,42.9468493 L513.941618,36 Z" id="Fill-29" fill="#FFC73C" mask="url(#mask-3)"></path>
                <path d="M513.786273,32.7672073 L546.475293,40 C546.814113,38.0675095 547,36.0822373 547,34.0509939 C547,15.2453922 531.868823,0 513.204109,0 C502.632226,0 493.197631,4.89337249 487,12.5518239 L513.786273,32.7672073 Z" id="Fill-30" fill="#6727E5" mask="url(#mask-3)"></path>
                <path d="M512,34.9697966 L485.924555,15 C482.190479,20.5422443 480,27.2533138 480,34.4898816 C480,48.5777092 488.286638,60.680512 500.142478,66 L512,34.9697966 Z" id="Fill-31" fill="#BADC00" mask="url(#mask-3)"></path>
                <polygon id="Fill-32" fill="#636ED3" mask="url(#mask-3)" points="509 163 570 163 570 124 509 124"></polygon>
                <polygon id="Fill-33" fill="#00DDFF" mask="url(#mask-3)" points="509 124 539.5 146 570 124"></polygon>
                <path d="M543.345274,188 L341.653875,188 C335.76968,188 331,192.770831 331,198.654543 L331,338.344605 C331,344.229169 335.76968,349 341.653875,349 L543.345274,349 C549.229468,349 554,344.229169 554,338.344605 L554,198.654543 C554,192.770831 549.229468,188 543.345274,188" id="Fill-34" fill="#D1D3D4" mask="url(#mask-3)"></path>
                <path d="M543.345274,188 L341.653875,188 C335.76968,188 331,192.770831 331,198.654543 L331,338.344605 C331,344.229169 335.76968,349 341.653875,349 L543.345274,349 C549.229468,349 554,344.229169 554,338.344605 L554,198.654543 C554,192.770831 549.229468,188 543.345274,188" id="Fill-35" fill="#E6E6E6" mask="url(#mask-3)"></path>
                <polygon id="Fill-36" fill="#6727E5" mask="url(#mask-3)" points="349 330 534 330 534 236 349 236"></polygon>
                <path d="M371,210.000421 C371,216.075594 366.075405,221 360,221 C353.924595,221 349,216.075594 349,210.000421 C349,203.924406 353.924595,199 360,199 C366.075405,199 371,203.924406 371,210.000421" id="Fill-37" fill="#CCCCCC" mask="url(#mask-3)"></path>
                <polygon id="Fill-38" fill="#BADC00" mask="url(#mask-3)" points="384 207 462 207 462 200 384 200"></polygon>
                <polygon id="Fill-39" fill="#CCCCCC" mask="url(#mask-3)" points="384 220 513 220 513 217 384 217"></polygon>
                <polygon id="Fill-40" fill="#FFFFFF" mask="url(#mask-3)" points="459 282.5 429 268 429 297"></polygon>
                <polygon id="Fill-41" fill="#CCCCCC" mask="url(#mask-3)" points="93 45 100 45 100 38 93 38"></polygon>
                <polygon id="Fill-42" fill="#DB3931" mask="url(#mask-3)" points="88 38 104 38 104 32 88 32"></polygon>
                <path d="M122,68.0004292 C122,81.8072386 110.807239,93 96.9995708,93 C83.1927614,93 72,81.8072386 72,68.0004292 C72,54.1927614 83.1927614,43 96.9995708,43 C110.807239,43 122,54.1927614 122,68.0004292" id="Fill-43" fill="#DB3931" mask="url(#mask-3)"></path>
                <path d="M117,68 C117,79.5984824 107.597825,89 96.0004238,89 C84.4021754,89 75,79.5984824 75,68 C75,56.4015176 84.4021754,47 96.0004238,47 C107.597825,47 117,56.4015176 117,68" id="Fill-44" fill="#F6F6F6" mask="url(#mask-3)"></path>
                <path d="M113.887456,73 C113.839463,73 113.790599,72.9948634 113.740861,72.9837342 C113.38921,72.9049737 113.168446,72.5608246 113.249597,72.2158193 C113.542785,70.9488025 113.691997,69.6398371 113.691997,68.3291596 C113.691997,60.0935501 107.733121,52.9194954 99.523852,51.2715174 C99.169583,51.2004617 98.940966,50.8614491 99.0133904,50.5138756 C99.0858149,50.166302 99.4331033,49.9402936 99.7856272,50.0139176 C108.601342,51.7843168 115,59.4865806 115,68.3291596 C115,69.7357195 114.840317,71.1397111 114.523569,72.5008981 C114.454635,72.7988183 114.185879,73 113.887456,73" id="Fill-45" fill="#DC3B41" mask="url(#mask-3)"></path>
                <path d="M99,67.5004219 C99,68.8810127 97.8808238,70 96.5,70 C95.1191762,70 94,68.8810127 94,67.5004219 C94,66.1189873 95.1191762,65 96.5,65 C97.8808238,65 99,66.1189873 99,67.5004219" id="Fill-46" fill="#DC3B41" mask="url(#mask-3)"></path>
                <path d="M96.9993329,69 C96.4469646,69 96,68.7082007 96,68.3495306 L96,48.6504694 C96,48.2909309 96.4469646,48 96.9993329,48 C97.5530354,48 98,48.2909309 98,48.6504694 L98,68.3495306 C98,68.7082007 97.5530354,69 96.9993329,69" id="Fill-47" fill="#DC3B41" mask="url(#mask-3)"></path>
                <path d="M110.349964,74 C110.259887,74 110.169811,73.9822322 110.081467,73.945889 L96.3811969,68.1576319 C96.05467,68.0203354 95.9100281,67.6609418 96.0581345,67.3564667 C96.2062408,67.0519916 96.5881993,66.9155028 96.9173245,67.0544145 L110.618461,72.8426716 C110.944987,72.9799681 111.089629,73.3393617 110.942389,73.6438368 C110.833258,73.8675493 110.596808,74 110.349964,74" id="Fill-48" fill="#DC3B41" mask="url(#mask-3)"></path>
                <path d="M98,86.0004843 C98,86.5525424 97.5515738,87 96.9995157,87 C96.4464891,87 96,86.5525424 96,86.0004843 C96,85.4484262 96.4464891,85 96.9995157,85 C97.5515738,85 98,85.4484262 98,86.0004843" id="Fill-49" fill="#333333" mask="url(#mask-3)"></path>
                <path d="M84.7073348,81.707955 C84.3171145,82.0973483 83.6828855,82.0973483 83.2926652,81.707955 C82.9024449,81.3175929 82.9024449,80.6831336 83.2926652,80.2927715 C83.6828855,79.9024095 84.3171145,79.9024095 84.7073348,80.2927715 C85.0975551,80.6831336 85.0975551,81.3175929 84.7073348,81.707955" id="Fill-50" fill="#333333" mask="url(#mask-3)"></path>
                <path d="M78,69 C77.4476744,69 77,68.5525424 77,68.0004843 C77,67.4464891 77.4476744,67 78,67 C78.5523256,67 79,67.4464891 79,68.0004843 C79,68.5525424 78.5523256,69 78,69" id="Fill-51" fill="#333333" mask="url(#mask-3)"></path>
                <path d="M83.2926652,55.707193 C82.9024449,55.3167837 82.9024449,54.6832163 83.2926652,54.292807 C83.6828855,53.9023977 84.3171145,53.9023977 84.7073348,54.292807 C85.0975551,54.6832163 85.0975551,55.3167837 84.7073348,55.707193 C84.3171145,56.0976023 83.6828855,56.0976023 83.2926652,55.707193" id="Fill-52" fill="#333333" mask="url(#mask-3)"></path>
                <path d="M109.707193,80.2927715 C110.097602,80.6831336 110.097602,81.3175929 109.707193,81.707955 C109.316784,82.0973483 108.683216,82.0973483 108.292807,81.707955 C107.902398,81.3175929 107.902398,80.6831336 108.292807,80.2927715 C108.683216,79.9024095 109.316784,79.9024095 109.707193,80.2927715" id="Fill-53" fill="#333333" mask="url(#mask-3)"></path>
                <polygon id="Fill-54" fill="#0096FF" mask="url(#mask-3)" points="0 293 7 293 7 273 0 273"></polygon>
                <path d="M38.0386013,275.777373 C37.547388,274.461402 36.2756166,273.593812 34.8608549,273.593812 L20.2994082,273.040421 C22.3273454,270.876029 22.5039803,265.202938 22.4644477,262.488488 C22.4526721,261.662569 21.778936,261 20.9462285,261 C20.3465109,261 19.8031482,261.345036 19.560906,261.888426 C19.0360479,263.066882 17.8736219,265.226274 15.7464328,267.193145 C13.2760672,269.478383 11,273.25461 11,273.25461 L11,293 L14.0128871,293 L14.4805491,293 L29.2657334,293 C31.4703055,293 33.2358136,291.198146 33.1845054,289.013751 C33.1727297,288.502865 33.1651597,287.967809 33.1651597,287.426086 C33.1651597,284.535785 39,282.058027 39,279.78779 C39,278.633503 38.5146745,277.052505 38.0386013,275.777373" id="Fill-55" fill="#0096FF" mask="url(#mask-3)"></path>
                <polygon id="Fill-56" fill="#E6E6E6" mask="url(#mask-3)" points="83.2045513 142 35 142 35 236 108 236 108 166.648629"></polygon>
                <polygon id="Fill-57" fill="#CCCCCC" mask="url(#mask-3)" points="83 142 108 167 83 167"></polygon>
                <polygon id="Fill-58" fill="#CCCCCC" mask="url(#mask-3)" points="46 160 72 160 72 155 46 155"></polygon>
                <polygon id="Fill-59" fill="#CCCCCC" mask="url(#mask-3)" points="46 181 98 181 98 176 46 176"></polygon>
                <polygon id="Fill-60" fill="#CCCCCC" mask="url(#mask-3)" points="46 195 98 195 98 190 46 190"></polygon>
                <polygon id="Fill-61" fill="#CCCCCC" mask="url(#mask-3)" points="46 207 98 207 98 202 46 202"></polygon>
                <polygon id="Fill-62" fill="#CCCCCC" mask="url(#mask-3)" points="46 219 98 219 98 214 46 214"></polygon>
                <path d="M241,449.171105 C241,449.171105 237.635266,452.701115 236.874544,455.489227 C236.178191,458.176434 235.798665,459.24834 234.633339,458.952242 C233.467177,458.656145 222.653216,453.915279 219.563512,452.004707 C216.475481,450.093307 226.888182,450.442338 231.18083,450.903026 C235.473477,451.36206 238.260564,447 238.260564,447 L241,449.171105 Z" id="Fill-63" fill="#F8E4D2" mask="url(#mask-3)"></path>
                <path d="M237.39187,456.263823 C237.525194,455.757715 237.741093,455.227841 238,454.697967 C237.204356,454.411905 236.318395,453.779049 235.084071,454.314204 C232.662731,455.376593 227.453626,452.364585 225.699768,451.017895 C221.476401,450.918434 217.472374,451.207136 219.579757,452.555586 C222.758034,454.589703 233.885873,459.634068 235.084931,459.949176 C236.284849,460.264284 236.67536,459.123559 237.39187,456.263823" id="Fill-64" fill="#545671" mask="url(#mask-3)"></path>
                <path d="M329,405.114499 C329,405.114499 328.705083,422.650386 298.129752,421.260766 C279.266962,420.864096 269.833866,417.251593 269.833866,417.251593 C269.833866,417.251593 252.459259,441.424701 239.914662,451 L236,448.794105 C236,448.794105 257.568888,407.991421 263.525022,404.551346 C268.091561,402.104222 308.977089,401 308.977089,401 L329,405.114499 Z" id="Fill-65" fill="#3251D0" mask="url(#mask-3)"></path>
                <path d="M261,452.67363 C261,452.67363 259.625606,457.326378 260.268191,460.138805 C260.921071,462.831677 261.088366,463.95302 259.885557,464.221812 C258.682748,464.48978 246.567147,465.220302 242.839468,464.935019 C239.112646,464.650561 248.76,460.220432 252.889188,458.673639 C257.016659,457.126021 257.46707,452 257.46707,452 L261,452.67363 Z" id="Fill-66" fill="#F8E4D2" mask="url(#mask-3)"></path>
                <path d="M332.623714,406.766324 C332.623714,406.766324 337.40354,418.248746 329.147864,424.09825 C320.89304,429.947753 277.217931,418.762606 277.217931,418.762606 C277.217931,418.762606 276.880652,437.585148 260.586487,456 L256,454.593469 C256,454.593469 265.446374,414.001125 271.312137,405.550898 C281.523352,401.868098 309.377849,402.000597 309.377849,402.000597 L332.623714,406.766324 Z" id="Fill-67" fill="#4763D5" mask="url(#mask-3)"></path>
                <path d="M259.513988,460.709438 C259.408705,460.187184 259.363466,459.604809 259.355241,459 C258.556573,459.124731 257.532534,458.978464 256.715771,460.056172 C255.119257,462.183772 249.401913,461.966615 247.333272,461.59332 C243.707599,463.536067 240.434788,465.724686 242.804471,465.92928 C246.377503,466.23976 257.993146,465.444715 259.147143,465.153078 C260.300318,464.860545 260.139926,463.641056 259.513988,460.709438" id="Fill-68" fill="#545671" mask="url(#mask-3)"></path>
                <path d="M275.131553,383.120407 C275.131553,383.120407 273.495174,383.598757 272.532646,383.254969 C271.570117,382.91118 269.838048,381.683716 268.249112,382.076734 C266.661785,382.469753 264.832418,385.612258 264.111124,386.594393 C263.388223,387.576529 266.372302,386.594393 267.864744,385.563849 C269.356382,384.531663 270.415405,387.036641 272.099227,386.791313 C273.783852,386.545163 276,386.029891 276,386.029891 L275.131553,383.120407 Z" id="Fill-69" fill="#FFBBA6" mask="url(#mask-3)"></path>
                <path d="M317.601919,345.228638 C312.94709,344.118961 308.307606,347.162672 307.492585,351.885848 C307.11406,354.080429 306.697171,356.265613 306.248739,358.391854 C305.721021,360.891404 305.131069,363.367889 304.439664,365.629957 C304.108882,366.787472 303.722684,367.849311 303.364621,368.772761 C303.364621,368.772761 303.110566,369.384407 303.097778,369.414306 C302.553862,370.72815 301.827504,371.082666 300.577691,371.748131 C299.477923,372.333296 298.338087,372.916752 297.159886,373.469455 C294.818831,374.590237 292.392523,375.657202 289.940638,376.687433 C285.041132,378.751314 280.017156,380.702432 275,382.547623 L276.076749,387 C281.484365,386.260215 286.839124,385.429879 292.235657,384.434672 C294.933071,383.93835 297.633042,383.400169 300.366263,382.761187 C301.731168,382.451092 303.108008,382.094013 304.509572,381.702765 C305.221437,381.48493 305.907726,381.308099 306.643462,381.052677 L307.749197,380.664845 L308.303343,380.46922 C308.567629,380.347916 308.984517,380.099328 309.31189,379.89687 C309.956405,379.491098 310.796149,378.900808 311.185757,378.506142 L312.323036,377.320436 L312.87633,376.707936 L313.275315,376.177443 L314.068171,375.105353 C315.046878,373.699249 315.876393,372.353798 316.598488,371.038245 C318.095536,368.384929 319.335971,365.795682 320.513319,363.194475 C321.521865,360.958036 322.468177,358.748932 323.374419,356.527015 C325.308816,351.778211 322.582416,346.416053 317.601919,345.228638" id="Fill-70" fill="#B92650" mask="url(#mask-3)"></path>
                <path d="M286.131553,394.119885 C286.131553,394.119885 284.495175,394.599075 283.532646,394.254452 C282.570118,393.91147 280.837245,392.683134 279.249113,393.076989 C277.661785,393.469203 275.832419,396.61184 275.111125,397.594016 C274.388224,398.577013 277.372303,397.594016 278.863941,396.563428 C280.356383,395.53202 281.415405,398.036283 283.099227,397.790944 C284.783853,397.544784 287,397.02949 287,397.02949 L286.131553,394.119885 Z" id="Fill-71" fill="#FFBBA6" mask="url(#mask-3)"></path>
                <path d="M351.049014,443.318276 L351.049014,425.681724 L354,425.681724 L354,423 L291.239155,423 C286.13662,423 282,427.110352 282,432.181523 L282,436.818477 C282,441.889648 286.13662,446 291.239155,446 L354,446 L354,443.318276 L351.049014,443.318276 Z" id="Fill-72" fill="#00A79D" mask="url(#mask-3)"></path>
                <path d="M330.946167,381.879444 C331.488187,374.260495 332.355248,366.468619 331.392991,358.848823 C330.654574,353.001525 327.262659,346.756666 321.04572,345.302047 C317.694114,344.517942 315.037185,345.345278 312.518335,346.807526 C311.213884,347.563657 309.948026,348.488476 308.641003,349.44805 C303.96179,352.883698 297.729414,359.97539 299.226831,366.739877 C300.023566,370.340822 301.271414,372.260818 303.446356,374.971699 C305.866579,377.988592 306.833125,381.475948 306.957481,385.28627 C306.994359,386.417923 304.960068,398.509233 303.320285,400.705572 C303.113597,400.981916 303.198502,401.374392 303.480661,401.576987 C309.031223,405.564475 321.865612,414.530387 334.965007,409.513816 C335.482156,405.078754 330.082536,393.987707 330.946167,381.879444" id="Fill-73" fill="#FF3453" mask="url(#mask-3)"></path>
                <path d="M292.340284,426 C288.286236,426 285,429.302729 285,433.375208 L285,436.625649 C285,440.697271 288.286236,444 292.340284,444 L353,444 L353,426 L292.340284,426 Z" id="Fill-74" fill="#FFFDEB" mask="url(#mask-3)"></path>
                <path d="M296.950175,464.207228 L296.950175,448.792772 L294,448.792772 L294,446 L356.760737,446 C361.863332,446 366,450.279219 366,455.559604 L366,457.441271 C366,462.720781 361.863332,467 356.760737,467 L294,467 L294,464.207228 L296.950175,464.207228 Z" id="Fill-75" fill="#BB4738" mask="url(#mask-3)"></path>
                <path d="M354.660569,450 C358.713764,450 362,453.277554 362,457.320892 L362,457.679108 C362,461.722446 358.713764,465 354.660569,465 L294,465 L294,450 L354.660569,450 Z" id="Fill-76" fill="#FEE0CF" mask="url(#mask-3)"></path>
                <path d="M308.723976,319.008716 C304.082725,319.152675 299.137988,321.079903 299.010663,325.135735 C298.844094,330.503014 300.684199,332.018335 300.679839,333.790785 C300.676351,335.563235 299.795542,337.275772 299.882751,337.790032 C299.970832,338.304292 302.635932,337.552041 302.981278,338.070462 C303.328369,338.588051 306.15655,342.197858 308.628046,341.991488 C311.845178,341.722708 314.997775,338.626329 316.581486,336.346276 C319.589316,332.010845 320.568671,323.114476 314.901845,320.130435 C313.371331,319.324928 311.087333,318.935488 308.723976,319.008716" id="Fill-77" fill="#FFBBA6" mask="url(#mask-3)"></path>
                <path d="M319.628433,346.065147 C315.291385,341.061888 315.683145,335 315.683145,335 C315.683145,335 310.663243,335.161616 311.738697,337.972369 C312.813312,340.783977 311.912347,347.415369 311.912347,347.415369 C311.912347,347.415369 305.417681,352.830792 309.164152,353.870608 C312.458462,354.784723 317.574836,350.650257 319.700577,347.91732 C320.131765,347.364062 320.088143,346.595317 319.628433,346.065147" id="Fill-78" fill="#FFBBA6" mask="url(#mask-3)"></path>
                <path d="M298.081222,328.286292 C298.081222,328.286292 298.323654,329.780296 306.283633,329.437642 C308.946186,328.95826 308.652584,332.901698 309.453699,335.652099 C310.05852,337.728865 311.030763,334.484909 312.94505,331.814543 C314.860176,329.145011 316.699805,334.237297 314.290588,335.757147 C311.881371,337.276162 316.165448,343.718222 308.947025,346.552828 C312.062566,347.96096 319.054495,345.930048 324.149754,342.053307 C329.245013,338.175733 322.596178,322.231906 318.859879,318.517738 C315.121902,314.80357 296.627471,313.207854 298.081222,328.286292" id="Fill-79" fill="#534741" mask="url(#mask-3)"></path>
                <polygon id="Fill-80" fill="#647FA0" mask="url(#mask-3)" points="260 404 297 404 297 401 260 401"></polygon>
                <polygon id="Fill-81" fill="#7991B4" mask="url(#mask-3)" points="240 380 263.051347 380 276 404 252.948653 404"></polygon>
                <path d="M258.665897,392.000431 C259.354796,393.65718 258.944212,395 257.748284,395 C256.551438,395 255.02392,393.65718 254.334103,392.000431 C253.645204,390.34282 254.055788,389 255.251716,389 C256.447644,389 257.97608,390.34282 258.665897,392.000431" id="Fill-82" fill="#A2C4ED" mask="url(#mask-3)"></path>
                <path d="M253.202954,404 L277,404 L273.731113,398.098936 C261.682709,399.9505 251.914059,395.128453 246,391 L253.202954,404 Z" id="Fill-83" fill="#7991B4" mask="url(#mask-3)"></path>
                <path d="M330.174765,367.685478 C329.706021,363.933719 329.152971,360.282808 328.512242,356.63444 C327.680137,351.892833 322.879728,348.963122 318.290085,350.341959 C313.898563,351.661474 311.525336,356.385284 313.008287,360.745528 C314.111858,363.993042 315.146298,367.273607 316.067767,370.498238 C316.916733,373.458459 317.654415,376.429696 318.145078,379.209405 C318.292615,379.930604 318.369333,380.572988 318.446052,381.211982 C318.559023,381.911147 318.564081,382.41624 318.597804,382.934893 L318.628997,383.333205 C318.620567,383.386596 318.617194,383.440834 318.61888,383.496767 L318.637428,383.661177 C318.112199,384.053556 317.344167,384.511191 316.528081,384.901029 C315.312382,385.486632 313.945774,386.015455 312.545444,386.512073 C309.719492,387.492599 306.713968,388.318037 303.667976,389.051948 C297.573463,390.510447 291.255538,391.668094 285,392.580822 L285.305189,397.983457 C291.876034,398.05634 298.359199,397.894473 304.967981,397.376667 C308.270265,397.109713 311.589409,396.7453 314.994546,396.136815 C316.703438,395.818166 318.428348,395.4546 320.229134,394.922388 C322.045094,394.343564 323.906581,393.741011 326.129742,392.248613 C327.261977,391.324868 328.577158,390.451124 329.636047,388.06549 C329.937864,387.430733 329.904141,387.313782 330.043247,386.914623 L330.320615,385.906978 L330.568476,384.886622 L330.677231,384.076438 C330.824767,382.984047 330.946169,381.877248 330.951227,380.960283 C330.992537,379.983995 331.019515,379.011944 330.98242,378.127183 C330.914975,374.470341 330.591239,371.056723 330.174765,367.685478" id="Fill-84" fill="#FF3453" mask="url(#mask-3)"></path>
                <path d="M361,81.8458159 L361,81.1398209 C361,78.2619349 357.56066,76.9064594 355.705471,79.0522668 L343.613911,93.034793 C343.219136,93.3999628 342.759548,93.7147044 342.250296,93.9425008 C342.091208,94.0398794 341.594583,94.1702972 341.177923,94.2946289 L339.906057,94.6693626 L326.639432,99.0166224 C325.440798,99.4096147 324.167249,99.5113405 322.931578,99.2748496 C322.243037,99.1426929 321.530927,98.9583691 320.957703,98.7044891 C319.27507,97.9593688 318.552859,97.2151179 317.352542,97.5455097 C316.149699,97.8759014 311.423342,100.111262 311.022675,102.262286 C310.621166,104.41418 315.669067,101.043315 316.871068,101.157213 C318.073069,101.269372 318.633666,103.204772 320.235493,102.982193 C321.838161,102.759613 335.787435,101.155474 335.787435,101.155474 L341.068497,100.555552 L342.389183,100.406007 C342.835304,100.347753 343.209877,100.334712 343.900944,100.188644 C345.092002,99.9417192 346.2536,99.4896042 347.333549,98.8566432 C347.870578,98.5392933 348.388246,98.1758623 348.876454,97.7706977 L349.94967,96.9099403 L352.046438,95.2318981 L356.241658,91.8732052 C358.85862,89.777826 361,85.2662398 361,81.8458159" id="Fill-85" fill="#FFBBA6" mask="url(#mask-3)"></path>
                <path d="M337.356193,58.1792803 C337.356193,58.1792803 347.045451,51.5537231 355.266459,57.431914 C362.529987,62.6247322 367.324222,54.9650886 372.43534,56.4417398 C377.547312,57.9192519 376.499294,65.7140758 381.741094,68.621744 C385.018394,70.4384985 388.487872,71.6275686 392.269963,71.3210451 C395.944433,71.0222708 399.423308,70.0269304 401.96093,73.4658486 C404.114193,76.3847101 405.009322,80.4160108 404.999927,84.0064688 C404.987115,88.8566005 401.6859,91.9313068 397.393039,93.5043923 C392.004328,95.4778527 386.108264,96.0607639 381.741094,91.6996922 C377.022876,86.9864627 378.122996,84.4938067 371.596584,82.7588492 C365.070171,81.0238917 354.642944,90.0430876 347.045451,81.3054456 C342.290506,77.0778321 345.379042,66.8747322 343.04812,64.1805973 C340.718051,61.4873233 335.612058,61.6543614 337.356193,58.1792803" id="Fill-86" fill="#42210B" mask="url(#mask-3)"></path>
                <path d="M465,100.726002 C465,100.726002 468.376469,99.895615 469.531071,98.6508501 C470.686547,97.4069009 471.842023,96.4101102 472.641161,97.4069009 C473.441173,98.4020603 478.238624,104.625885 479.572268,105.289868 C480.905039,105.953851 482.593274,107.993112 481.793262,108.799028 C480.99325,109.604944 476.728558,107.8626 474.152101,105.787448 C471.57477,103.713111 465.622717,103.796313 465.622717,103.796313 L465,100.726002 Z" id="Fill-87" fill="#FFBBA6" mask="url(#mask-3)"></path>
                <path d="M448,70.1240371 C448,70.1240371 449.625383,67.0241173 449.48026,65.2326572 C449.334307,63.4420866 449.369966,61.8409802 450.626321,62.0126544 C451.883505,62.1825496 459.600759,63.3976114 460.967408,62.9261745 C462.333228,62.4547376 464.939646,62.7678429 464.999354,63.9651146 C465.059062,65.1623864 460.966579,66.960073 457.748154,67.2705097 C454.5289,67.5809465 450.653687,72 450.653687,72 L448,70.1240371 Z" id="Fill-88" fill="#FFBBA6" mask="url(#mask-3)"></path>
                <path d="M388.679147,97.2573868 C388.679147,97.2573868 397.82986,87.0364855 432.790388,95.2947973 C433.232058,86.2256663 448.178509,69 448.178509,69 L453,70.5817759 C453,70.5817759 439.136712,101.420892 436.122208,106.408787 C431.501398,107.24081 407.53116,110.604522 389.508457,108.071984 C386.695492,104.538645 388.679147,97.2573868 388.679147,97.2573868" id="Fill-89" fill="#85B2C5" mask="url(#mask-3)"></path>
                <path d="M465.998392,99.0666274 L459.668848,99.3179487 C459.668848,99.3179487 449.538156,97.9022009 445.145111,98.2457023 C440.75292,98.5892038 433.734824,100.345844 433.734824,100.345844 C433.734824,100.345844 414.989965,91.1260907 405.77278,89.4207581 C396.55474,87.7162951 389.657248,91.7409149 389.657248,91.7409149 C387.854183,96.6421157 387.244323,103.541712 389.248394,107.591551 C395.861056,110.148246 426.520855,108.442913 433.133518,108.442913 C439.747036,108.442913 467,104.607002 467,104.607002 L465.998392,99.0666274 Z" id="Fill-90" fill="#A5C6D4" mask="url(#mask-3)"></path>
                <path d="M358.520885,72.838952 C358.520885,72.838952 353.579326,75.7090105 353.198625,79.5363178 C352.818763,83.3619369 348.447416,95.4161823 353.198625,96.9465987 C357.950673,98.4770152 360.801734,94.8413265 364.602869,98.8594083 C368.404005,102.878334 376.007114,106.703953 390.642281,109 C392.161729,104.025513 392.721879,99.8166572 390.642281,91.5897191 C387.60087,90.2500771 383.609384,90.6324702 376.386976,83.9359486 C369.164567,77.2394269 363.843146,69.3948819 358.520885,72.838952" id="Fill-91" fill="#0096FF" mask="url(#mask-3)"></path>
                <path d="M340.618803,60.3542855 C337.508144,62.1103328 334.911465,65.3155285 336.462043,68.4103786 C338.51278,72.506098 340.381249,72.9923084 341.09391,74.3259388 C341.807436,75.6604313 341.89641,77.261305 342.163334,77.61648 C342.431122,77.972517 343.946284,76.4612991 344.391157,76.7276804 C344.837758,76.9949237 348.223979,78.7044189 349.828115,77.6716528 C351.915134,76.3276775 352.818702,72.8802386 352.978511,70.6034979 C353.281716,66.2750182 350.359372,59.2361739 345.287815,59.0051378 C343.918641,58.9422063 342.202207,59.4611756 340.618803,60.3542855" id="Fill-92" fill="#FFBBA6" mask="url(#mask-3)"></path>
                <path d="M358.257014,74.1143283 C353.546461,72.8808528 350.793406,69 350.793406,69 C350.793406,69 347.790933,71.0723737 349.555778,72.3007905 C351.321483,73.5292073 353.383909,77.780187 353.383909,77.780187 C353.383909,77.780187 351.301702,85.7990423 354.000573,84.9348506 C356.389822,84.1684602 358.792832,77.5415858 358.996666,75.1117319 C359.036229,74.6429606 358.719727,74.2357366 358.257014,74.1143283" id="Fill-93" fill="#FFBBA6" mask="url(#mask-3)"></path>
                <path d="M335.219332,69.0888981 C335.219332,69.0888981 338.367155,71.3580286 342.883708,67.9037157 C343.978861,66.7028955 346.168319,69.143219 346.989897,71.5687277 C347.810625,73.9942364 347.673837,69.4000085 347.810625,67.5876671 C347.947413,65.7745026 352.32208,69.1094742 350.20314,72.0823067 C351.220979,72.9934157 352.737541,73.7835373 354.926999,71.5687277 C357.117306,69.3539181 355.575255,64.7144228 353.678065,61.3992043 C351.779176,58.0848088 348.221838,54.3720603 342.336556,56.758886 C336.451274,59.1457117 331.661994,63.65352 335.219332,69.0888981" id="Fill-94" fill="#42210B" mask="url(#mask-3)"></path>
                <polygon id="Fill-95" fill="#CCCCCC" mask="url(#mask-3)" points="304 108 333 108 333 106 304 106"></polygon>
                <polygon id="Fill-96" fill="#CCCCCC" mask="url(#mask-3)" points="295 79 298.242769 79 308 108 304.758057 108"></polygon>
                <path d="M366.959409,79.239799 C366.642568,78.6425314 366.282679,78.074823 365.875435,77.54189 C364.309313,75.4910107 360.814596,75.4562353 359.653135,77.6166571 C358.127478,80.4534605 358.369414,84.4943621 358.510614,87.596328 C358.702613,91.8111066 360.068988,95.9998037 360.01819,100.186762 C358.809374,100.34586 354.141142,101.163081 352.990873,101.256975 C350.585296,101.454325 348.184023,101.712533 345.787917,102.002907 C343.21617,102.315017 340.522165,103.004439 337.933198,103.080945 C337.933198,103.080945 335.085938,103.163536 333.483655,102.469767 C331.881372,101.775998 331.19431,101.082229 330.050068,101.39086 C328.905826,101.698623 324.402902,103.77993 324.021488,105.782124 C323.640074,107.786057 328.447785,104.648446 329.592888,104.753642 C330.73713,104.857968 331.270937,106.660203 332.796593,106.453289 C334.323971,106.244637 337.098909,105.582166 338.014992,105.582166 C347.016535,107.254862 358.263513,107.075769 363.463831,106.871464 C365.195261,106.804521 366.663232,105.578688 367.036036,103.870347 C368.542751,96.9587354 370.612546,86.1279366 366.959409,79.239799" id="Fill-97" fill="#FFBBA6" mask="url(#mask-3)"></path>
                <path d="M189.153767,54.9750978 C184.961246,47.3185478 167.000621,48.0166026 167.000621,48.0166026 C167.000621,48.0166026 149.039997,47.3185478 144.846636,54.9750978 C141.842136,60.4611469 147.683939,79.3790256 149.186189,91.1085514 C153.024992,91.8651308 162.616538,93 167.000621,93 C171.384704,93 180.976251,91.8651308 184.814214,91.1085514 C186.315623,79.3790256 192.157426,60.4611469 189.153767,54.9750978" id="Fill-98" fill="#FFC73C" mask="url(#mask-3)"></path>
                <path d="M187.982299,52 C187.982299,52 195.321633,58.27557 198.561207,74.8040867 C201.365484,89.1069301 189.98362,90.4468234 185.529207,91.9714701 C182.466526,92.5257301 184.950835,84.8204801 184.950835,84.8204801 L190.88196,80.8785 C190.88196,80.8785 186.162207,67.7661934 184.770474,62.9151234 C183.377873,58.06319 187.982299,52 187.982299,52" id="Fill-99" fill="#FFC73C" mask="url(#mask-3)"></path>
                <path d="M147.017283,52 C147.017283,52 139.678079,58.27557 136.438562,74.8040867 C133.635201,89.1069301 145.015997,90.4468234 149.4712,91.9714701 C152.532959,92.5257301 150.049561,84.8204801 150.049561,84.8204801 L144.117673,80.8785 C144.117673,80.8785 148.837344,67.7661934 150.229052,62.9151234 C151.621628,58.06319 147.017283,52 147.017283,52" id="Fill-100" fill="#FFC73C" mask="url(#mask-3)"></path>
                <path d="M196.448895,142 C196.448895,142 196.874016,146.140422 201.429838,147.824075 C205.985659,149.508571 208.401651,148.973208 208.815893,150.809461 C209.230134,152.646557 208.815893,152.762061 208.815893,152.762061 C208.815893,152.762061 196.874016,153.297424 193.767622,152.762061 C190.661227,152.225855 192.594355,142.542951 192.594355,142.542951 L196.448895,142 Z" id="Fill-101" fill="#594A42" mask="url(#mask-3)"></path>
                <path d="M138.551105,142 C138.551105,142 138.125984,146.140422 133.570162,147.824075 C129.014341,149.508571 126.598349,148.973208 126.184107,150.809461 C125.769866,152.646557 126.184107,152.762061 126.184107,152.762061 C126.184107,152.762061 138.125984,153.297424 141.232378,152.762061 C144.338773,152.225855 142.405645,142.542951 142.405645,142.542951 L138.551105,142 Z" id="Fill-102" fill="#594A42" mask="url(#mask-3)"></path>
                <path d="M199.862403,104.226916 C199.641992,99.7203056 196.730515,95.7849319 192.457274,94.1918818 C188.05247,92.5498927 183.837321,91.6352389 183.837321,91.6352389 L168.000188,90 L152.161345,91.6352389 C152.161345,91.6352389 147.947051,92.5498927 143.542247,94.1918818 C139.269006,95.7849319 136.358384,99.7203056 136.137973,104.226916 C135.594634,115.32764 136.804332,135.644935 137.203293,143.732533 C139.627815,145.492651 144.08046,144.906226 144.08046,144.906226 C144.08046,144.906226 148.113641,129.711498 148.287065,116.017849 C149.50018,107.409641 154.806278,104.084318 168.000188,104.084318 C181.193243,104.084318 186.500195,107.409641 187.712456,116.017849 C187.88588,129.711498 191.919061,144.906226 191.919061,144.906226 C191.919061,144.906226 196.371706,145.492651 198.797082,143.732533 C199.195189,135.644935 200.404887,115.32764 199.862403,104.226916" id="Fill-103" fill="#4763D5" mask="url(#mask-3)"></path>
                <path d="M171.567703,47.0716881 C170.217122,46.2579082 169.885648,42.3030901 169.885648,42.3030901 C169.885648,42.3030901 166.457182,41.6211374 165.552681,42.3030901 C165.745747,44.9066787 163.972889,47.0716881 163.972889,47.0716881 C160.996674,50.3056815 165.597641,52 167.769855,52 C169.942951,52 172.406086,50.9005943 172.912113,49.4462691 C173.419022,47.9910988 171.567703,47.0716881 171.567703,47.0716881" id="Fill-104" fill="#FFBBA6" mask="url(#mask-3)"></path>
                <path d="M165.342086,42.3289701 C165.407802,43.2743521 165.24126,44.1565255 165,44.9251064 C166.665416,45.7898744 168.974494,46.797549 171,47 C170.024156,45.5764306 169.766692,42.3289701 169.766692,42.3289701 C169.766692,42.3289701 166.265716,41.5887873 165.342086,42.3289701" id="Fill-105" fill="#F2B892" mask="url(#mask-3)"></path>
                <path d="M176.056057,26.4380155 C172.705679,20.5376998 162.306701,20.5033607 158.939018,26.438874 C157.466305,29.0340514 157.978553,32.7418156 158.763365,35.4657646 C159.8467,39.2293299 162.150085,42.7542384 165.619872,44.5888048 C166.489482,45.0472318 168.105832,45.1313625 169.103504,44.7956979 C172.710871,43.5809522 174.712272,39.9272721 175.929725,36.4212501 C176.936916,33.5195962 177.606645,29.5766092 176.185849,26.685257 C176.145181,26.6011262 176.101917,26.5195709 176.056057,26.4380155" id="Fill-106" fill="#FFBBA6" mask="url(#mask-3)"></path>
                <path d="M175.734183,34.4292172 C175.734183,34.4292172 177.567521,32.01159 178.705999,33.4650935 C179.843647,34.9176822 177.401683,38.9077276 176.113952,38.997371 C174.825391,39.0870143 174.596534,36.8706274 175.734183,34.4292172" id="Fill-107" fill="#FFBBA6" mask="url(#mask-3)"></path>
                <path d="M159.26576,34.4292172 C159.26576,34.4292172 157.432451,32.01159 156.293992,33.4650935 C155.156362,34.9176822 157.598286,38.9077276 158.886826,38.997371 C160.174537,39.0870143 160.40339,36.8706274 159.26576,34.4292172" id="Fill-108" fill="#FFBBA6" mask="url(#mask-3)"></path>
                <path d="M160.365307,28.3247432 C160.365307,28.3247432 172.432429,33.9392109 177.910749,31.4502789 C181.38689,29.6871782 182.862593,22.5378262 181.493231,21.238022 C180.122997,19.9390758 179.069172,20.250514 177.383401,20.4572815 C175.69763,20.664907 174.32914,18.6941808 173.379913,17.5539565 C172.432429,16.4128743 172.642497,17.2425183 170.745787,18.176833 C168.672131,19.1960854 166.263762,18.3029526 164.082023,18.6487091 C159.947787,19.301614 157.494964,22.4443089 156.470775,26.1961529 C155.967833,28.0390436 155.8397,29.9805993 156.224098,31.8578083 C156.361819,32.5304462 159.242622,38.3825679 159.566876,37.9801862 C161.239572,35.9056473 161.257005,33.1884989 160.365307,28.3247432" id="Fill-109" fill="#C69C6D" mask="url(#mask-3)"></path>
                <path d="M174.366263,29.6704253 C174.366263,29.6704253 173.249385,36.3022411 174.916325,38 C176.16653,35.2871044 177,32.661296 177,30.2457281 C177,27.8310399 174.366263,29.6704253 174.366263,29.6704253" id="Fill-110" fill="#C69C6D" mask="url(#mask-3)"></path>
                <polygon id="Fill-111" fill="#DDC2BF" mask="url(#mask-3)" points="186.356849 93 149.643151 93 146 71 190 71"></polygon>
                <path d="M170.891478,83.1101957 C170.488905,84.2542053 169.0057,85 167.500394,85 C165.994297,85 164.511093,84.2542053 164.10852,83.1101957 C163.580439,81.6091658 165.022597,80 167.500394,80 C169.977401,80 171.419559,81.6091658 170.891478,83.1101957" id="Fill-112" fill="#FCE2E0" mask="url(#mask-3)"></path>
                <path d="M148.17764,93 L185.618304,93 L186,90.8380353 C166.535232,91.055314 151.908438,80.8948293 145,75 L148.17764,93 Z" id="Fill-113" fill="#DDC2BF" mask="url(#mask-3)"></path>
                <path d="M214.686908,267 L67.3139424,267 C61.065462,267 56,272.061178 56,278.306273 L56,371.693727 C56,377.937972 61.065462,383 67.3139424,383 L214.686908,383 C220.935388,383 226,377.937972 226,371.693727 L226,278.306273 C226,272.061178 220.935388,267 214.686908,267" id="Fill-114" fill="#D1D3D4" mask="url(#mask-3)"></path>
                <path d="M214.686058,267 L67.3139424,267 C61.0646115,267 56,272.061178 56,278.306273 L56,371.693727 C56,377.937972 61.0646115,383 67.3139424,383 L214.686058,383 C220.934538,383 226,377.937972 226,371.693727 L226,278.306273 C226,272.061178 220.934538,267 214.686058,267" id="Fill-115" fill="#FFFFFF" mask="url(#mask-3)"></path>
                <path d="M214.686058,266 L67.3139424,266 C61.0646115,266 56,271.045343 56,277.270899 L56,293 L226,293 L226,277.270899 C226,271.045343 220.934538,266 214.686058,266" id="Fill-116" fill="#0096FF" mask="url(#mask-3)"></path>
                <path d="M92,279.5 C92,281.432972 90.4331417,283 88.5003796,283 C86.5668583,283 85,281.432972 85,279.5 C85,277.567028 86.5668583,276 88.5003796,276 C90.4331417,276 92,277.567028 92,279.5" id="Fill-117" fill="#FF3453" mask="url(#mask-3)"></path>
                <path d="M75,279.5 C75,281.432972 73.4331417,283 71.5003796,283 C69.5676174,283 68,281.432972 68,279.5 C68,277.567028 69.5676174,276 71.5003796,276 C73.4331417,276 75,277.567028 75,279.5" id="Fill-118" fill="#FFC73C" mask="url(#mask-3)"></path>
                <path d="M102,279.5 C102,281.432972 103.566858,283 105.49962,283 C107.433142,283 109,281.432972 109,279.5 C109,277.567028 107.433142,276 105.49962,276 C103.566858,276 102,277.567028 102,279.5" id="Fill-119" fill="#00DDFF" mask="url(#mask-3)"></path>
                <polygon id="Fill-120" fill="#DB3931" mask="url(#mask-3)" points="69 356 79 356 79 310 69 310"></polygon>
                <polygon id="Fill-121" fill="#FFC73C" mask="url(#mask-3)" points="85 356 95 356 95 320 85 320"></polygon>
                <polygon id="Fill-122" fill="#6AD1F6" mask="url(#mask-3)" points="102 356 112 356 112 315 102 315"></polygon>
                <polygon id="Fill-123" fill="#0096FF" mask="url(#mask-3)" points="117 357 127 357 127 330 117 330"></polygon>
                <path d="M168,315.5 C168,322.403061 162.403721,328 155.500425,328 C148.596279,328 143,322.403061 143,315.5 C143,308.596088 148.596279,303 155.500425,303 C162.403721,303 168,308.596088 168,315.5" id="Fill-124" fill="#BADC00" mask="url(#mask-3)"></path>
                <polygon id="Fill-125" fill="#FFCE55" mask="url(#mask-3)" points="180 318 213 318 213 314 180 314"></polygon>
                <polygon id="Fill-126" fill="#CCCCCC" mask="url(#mask-3)" points="147 337 213 337 213 333 147 333"></polygon>
                <polygon id="Fill-127" fill="#CCCCCC" mask="url(#mask-3)" points="147 346 213 346 213 342 147 342"></polygon>
                <polygon id="Fill-128" fill="#CCCCCC" mask="url(#mask-3)" points="147 356 213 356 213 352 147 352"></polygon>
                <polygon id="Fill-129" fill="#CCCCCC" mask="url(#mask-3)" points="80 371 103 371 103 367 80 367"></polygon>
                <polygon id="Fill-130" fill="#DB3931" mask="url(#mask-3)" points="70 373 78 373 78 365 70 365"></polygon>
                <polygon id="Fill-131" fill="#CCCCCC" mask="url(#mask-3)" points="123 371 146 371 146 367 123 367"></polygon>
                <polygon id="Fill-132" fill="#6AD1F6" mask="url(#mask-3)" points="112 373 120 373 120 365 112 365"></polygon>
                <path d="M497.525702,474 C497.418178,474.322246 497.657312,478.301512 493.26859,479.484233 C488.878148,480.666955 485.772839,480.989201 485.237797,482.495032 C484.702754,484 485.237797,484 485.237797,484 C485.237797,484 498.728257,484 501.406048,483.140389 C502.261944,481.742549 501.94109,474 501.94109,474 L497.525702,474 Z" id="Fill-133" fill="#37384F" mask="url(#mask-3)"></path>
                <path d="M524.865912,474.087263 C524.826801,474.401074 525.954784,478.244839 521.681071,479.474911 C517.407357,480.704983 514.271404,481.077529 514.051852,482.544218 C513.831411,484.010907 514.38518,483.999999 514.38518,483.999999 C514.38518,483.999999 528.322749,483.736532 530.897821,482.851316 C531.473813,481.482798 529.426732,474 529.426732,474 L524.865912,474.087263 Z" id="Fill-134" fill="#37384F" mask="url(#mask-3)"></path>
                <path d="M493.097949,380.208084 C493.097949,380.208084 490.259971,429.734555 491.185567,439.456107 C492.111164,449.177658 496.430613,475 496.430613,475 L502.297033,475 L500.754372,437.937644 C500.754372,437.937644 505.38063,413.02638 507.387813,408.772989 C511.247912,416.367846 513.74547,439.641037 513.74547,439.641037 L524.21057,475 L531,475 C531,475 523.593505,439.152414 523.902038,438.240489 C524.21057,437.329411 527.500143,400.088912 519.374027,382.405189 C510.938518,379.000101 493.097949,380.208084 493.097949,380.208084" id="Fill-135" fill="#000016" mask="url(#mask-3)"></path>
                <path d="M542.396827,390.127684 C542.396827,390.127684 540.541045,393.745573 538.633488,395.483326 C536.724314,397.221078 539.587267,396.465027 541.201166,394.576564 C541.862097,393.896284 542.082137,396.767281 541.348399,397.674043 C540.614661,398.579972 538.779103,399.714049 538.559872,399.939699 C538.339022,400.167014 540.761894,399.686572 542.230179,398.704871 C541.570058,399.988826 538.926336,401.299426 539.146377,401.753223 C539.367226,402.207021 542.302987,402.207021 544.577817,400.241953 C546.853456,398.277718 545.751635,391.328374 545.605211,390.497384 C545.458787,389.666393 542.396827,390.127684 542.396827,390.127684" id="Fill-136" fill="#FFBBA6" mask="url(#mask-3)"></path>
                <path d="M488.532524,307 C488.532524,307 493.60186,305.939382 495.983444,305.520266 C498.365886,305.100296 494.635281,304.585383 492.36347,304.124356 C492.522986,302.756671 496.3222,298.917917 497.653212,297.6332 C498.983366,296.346773 496.176407,297.386008 494.480053,298.899955 C493.374593,299.970837 492.871176,300.308696 492.871176,300.308696 C492.871176,300.308696 495.477454,295.133905 495.193585,294.194744 C494.909716,293.255584 489.936432,295.949896 488.606278,297.235468 C487.275267,298.521041 486,304.43912 486,304.43912 L488.532524,307 Z" id="Fill-137" fill="#FFBBA6" mask="url(#mask-3)"></path>
                <path d="M479.997825,331.577418 C479.971591,331.499304 479.9809,331.344776 479.969052,331.236945 C479.991055,331.286191 480.035061,331.344776 480.027444,331.376191 C480.140844,331.635154 480.027444,331.778645 479.997825,331.577418 M545.566427,358.889929 C545.283775,358.026437 545.132293,357.28436 544.69816,356.318131 C544.245408,355.373978 543.64456,354.194636 543.200271,353.61388 C542.227066,352.140764 541.297021,351.002176 540.344973,349.867834 C538.448493,347.621226 536.53255,345.605561 534.590372,343.633198 C532.765825,341.805176 530.944663,340.038285 529.09642,338.303659 C529.059185,338.267998 529.018564,338.240828 528.980482,338.206017 C525.723209,333.199119 509.453766,333.761196 509.453766,333.761196 C509.453766,333.761196 495.748507,335.134124 495.110423,335.045821 C492.817891,334.727425 490.537208,334.33431 488.372462,333.863083 C488.359768,333.725536 482.134644,332.058834 481.68697,331.912796 C481.158054,331.739588 480.602058,331.550248 480.229701,331.134209 C479.341123,330.138264 480.518278,327.453541 480.876248,326.425331 C481.567646,324.317119 482.495999,322.149473 483.506439,320.003902 C485.542552,315.718704 487.950176,311.419922 490.4822,307.346988 L486.050311,304 C482.732107,307.891235 479.660165,311.837658 476.761708,316.120309 C475.32475,318.267578 473.940261,320.481073 472.696252,322.92721 C471.52079,325.456556 470.173536,327.851749 470.001744,332.057136 C469.978895,333.096383 470.177767,334.457424 470.762536,335.855823 C471.06296,336.500259 471.664655,337.473279 471.961694,337.778941 L473.005984,338.945547 C474.412477,340.348191 475.743651,341.233759 477.050284,342.059044 C479.642394,343.623859 482.144799,344.727635 484.648897,345.747354 C486.585151,346.516601 488.489247,347.187357 490.396728,347.819905 C490.69292,354.157278 492.370217,362.132483 492.769654,368.947026 C493.450051,380.561297 493.514367,389.456882 493.514367,389.456882 C493.514367,389.456882 510.560681,394.935007 523.499224,389.810939 C524.127153,382.673754 525.632658,366.503436 527.482593,355.503035 C528.948324,356.523603 533.506307,360.071819 534.131696,360.683141 C534.587833,361.073708 534.501514,361.128896 534.731698,361.303802 C534.915338,361.49569 535.121826,362.033993 535.336778,362.384654 C537.002227,366.20202 538.030439,371.499296 538.845392,376.49176 C539.66373,381.564884 540.2595,386.786593 540.702097,391.935283 L546.249363,391.977736 C546.682651,386.605744 546.962764,381.301676 547,375.882136 C546.968688,370.411652 547.026234,365.136452 545.566427,358.889929" id="Fill-138" fill="#00CFFF" mask="url(#mask-3)"></path>
                <path d="M512.958605,332.959515 C512.603619,330.97185 512.655608,328 512.655608,328 L508.333224,328.633609 C508.333224,328.633609 508.412832,332.517276 506.091206,334.181704 C505.392606,337.266928 508.83118,338.090298 512.169025,335.281675 C512.840006,334.716412 513.111323,333.819068 512.958605,332.959515" id="Fill-139" fill="#FFBBA6" mask="url(#mask-3)"></path>
                <path d="M509.143326,337.21487 C509.143326,337.21487 508.578075,335.459232 509.692643,334.635192 C510.807211,333.811152 512.397295,333.070384 512.757077,332 C513.515218,332.658364 514.072083,333.755638 513.992411,334.607435 C513.912739,335.459232 510.40969,339 510.40969,339 L509.143326,337.21487 Z" id="Fill-140" fill="#8C67E8" mask="url(#mask-3)"></path>
                <path d="M507.398472,332.026624 C507.398472,332.026624 506.700256,333.649044 507.733355,334.458504 C508.016218,334.914427 508.339722,337.241296 507.16763,338 C507.16763,338 505.243676,336.078299 505.008769,334.205603 C504.868151,332.84046 506.451532,331.820103 507.398472,332.026624" id="Fill-141" fill="#8C67E8" mask="url(#mask-3)"></path>
                <path d="M507,342.000403 C507,341.44704 507.448651,341 508.000403,341 C508.55296,341 509,341.44704 509,342.000403 C509,342.55296 508.55296,343 508.000403,343 C507.448651,343 507,342.55296 507,342.000403" id="Fill-142" fill="#8C67E8" mask="url(#mask-3)"></path>
                <path d="M507,349.999597 C507,349.44704 507.448026,349 508,349 C508.55278,349 509,349.44704 509,349.999597 C509,350.55296 508.55278,351 508,351 C507.448026,351 507,350.55296 507,349.999597" id="Fill-143" fill="#8C67E8" mask="url(#mask-3)"></path>
                <path d="M508.3566,327.660054 C508.3566,327.660054 508.37857,328.884673 508,330.273467 C509.395133,330.843895 511.138415,331.221667 513,330.854784 C512.822545,328.99524 512.852966,327 512.852966,327 L508.3566,327.660054 Z" id="Fill-144" fill="#FFBBA6" mask="url(#mask-3)"></path>
                <path d="M521.629683,316.503562 C521.307551,315.505143 520.770085,314.556029 519.989501,313.708811 C518.255546,311.825374 515.62292,310.817094 512.999846,311.027461 C508.015049,311.589533 505.522216,315.407356 503.861196,319.338579 C502.199308,323.269802 501.020183,325.769547 503.149206,327.650518 C505.358111,329.601339 510.713664,329.194575 515.104557,327.959494 C520.090222,326.555956 523.09013,321.036302 521.629683,316.503562" id="Fill-145" fill="#FFBBA6" mask="url(#mask-3)"></path>
                <path d="M506.079167,310.226139 C506.079167,310.226139 506.177833,315.261693 514.849424,318.33034 C515.546893,319.61711 514.014161,322.488051 511.491362,323.378567 C508.968563,324.269928 513.093841,324.56733 515.017837,323.378567 C516.941833,322.19065 516.681557,325.473053 515.017837,325.713003 C513.354967,325.952952 511.311891,327.347868 511.722718,328.337236 C512.132694,329.326604 515.64641,329.615557 519.733413,326.250354 C523.817864,322.883461 525.612573,317.340127 524.814735,314.46834 C524.19807,312.24543 521.938948,310.515937 520.109366,309.289999 C517.911486,307.817353 515.33425,307.068779 513.177197,305.515868 C512.744256,305.204103 511.699752,304.519741 511.791614,305.536146 C511.960028,307.41772 511.16219,306.252614 510.165319,305.658655 C509.168447,305.064696 508.171576,304.964999 508.470978,306.351466 C508.769529,307.737933 508.280449,307.044277 507.080291,306.549171 C505.880133,306.054909 505.924363,308.509319 506.079167,310.226139" id="Fill-146" fill="#C69C6D" mask="url(#mask-3)"></path>
                <path d="M78.3035855,497.07618 C77.1511892,495.263366 71.4267313,496.553673 68.3948116,494.818143 C66.0124699,493.454752 66.150057,489.729158 66.150057,489.729158 L61.3878751,489 C61.3878751,489 60.0703743,494.436763 60.0003299,498.124555 C59.981985,499.141008 60.7307924,500.016333 61.7272567,500.172581 C71.3600224,501.67878 78.8305859,500.668207 78.8305859,500.668207 C78.8305859,500.668207 79.4559818,498.888995 78.3035855,497.07618" id="Fill-147" fill="#37384F" mask="url(#mask-3)"></path>
                <path d="M48.3170399,493.628811 C47.1872316,491.927768 42.2089875,492.000136 39.2346976,490.37146 C36.8982979,489.092424 37.580908,485.676514 37.580908,485.676514 L32.9629538,485 C32.9629538,485 31.0686897,490.013687 31.0003443,493.474319 C30.9817814,494.427294 31.7158615,495.249356 32.6946349,495.395718 C42.1440172,496.808917 48.8334272,497 48.8334272,497 C48.8334272,497 49.4476919,495.330668 48.3170399,493.628811" id="Fill-148" fill="#37384F" mask="url(#mask-3)"></path>
                <path d="M71.959075,449.431043 L68.7703377,400.425115 L41.1724131,400 C41.1724131,400 38.3161911,406.036293 37.9470138,412.191144 C37.5786891,418.345996 38.6222758,438.442415 38.6231284,438.449189 L38.1772168,445.172272 L38.2940235,444.531212 L31,486.447375 L36.9545833,487.862449 L49.5475378,447.204694 L49.6643445,446.562787 L53.7380843,419.42826 L60.4344327,450.531091 L59.9723216,490.460561 L66.0334803,491 L71.9676011,450.462497 L72,450.237237 L71.959075,449.431043 Z" id="Fill-149" fill="#000016" mask="url(#mask-3)"></path>
                <path d="M64.8992793,318.952271 C62.6601373,315.47618 56.1796082,314.837458 51.4054133,318.28924 C46.6295323,321.741023 50.4401205,330.868381 50.4401205,330.868381 C54.1647175,338.95132 63.3691427,339.432457 65.6327333,335.934572 C67.8963238,332.435849 67.1384214,322.428362 64.8992793,318.952271" id="Fill-150" fill="#FFBBA6" mask="url(#mask-3)"></path>
                <path d="M60.375546,335.132441 C60.375546,335.132441 59.5779459,341.930132 62,345.85099 C62,345.85099 58.0489974,346.259039 55.0986516,345.724648 C52.1483058,345.191111 56.0743565,333 56.0743565,333 C56.0743565,333 59.1744136,333.005122 60.375546,335.132441" id="Fill-151" fill="#FFBBA6" mask="url(#mask-3)"></path>
                <path d="M62.3798033,312.017007 C58.6975798,311.868915 54.0709561,312.694713 50.5369072,314.231683 C47.447382,315.576219 45.6539586,318.762274 46.0559034,322.058771 C46.6673365,327.076306 48.6651386,332.346517 50.7080744,335.227186 C53.3879905,339.008117 60.963629,340.044756 61.896107,337.893667 C62.8277334,335.741741 61.4319969,333.362239 59.9493995,332.152408 C58.465099,330.943414 60.2261624,327.806722 61.3877149,328.728737 C62.5492674,329.649916 63.1368562,333.264348 64.2038835,332.229382 C65.2709108,331.195253 60.4169159,324.593057 63.4323538,324.261734 C65.6353863,324.019098 67.3462066,322.307263 68.4719928,320.260758 C69.3142035,318.729644 69.8285566,317.012788 69.9767312,315.582075 C70.3957076,311.540939 65.0520553,312.124938 62.3798033,312.017007" id="Fill-152" fill="#534741" mask="url(#mask-3)"></path>
                <path d="M52.4391552,339.84061 C52.4391552,339.84061 54.4972337,338.549609 57.0759009,339.167405 C59.653669,339.786126 62.7034735,341.078975 62.7034735,341.078975 L64,345 C64,345 59.1204927,343.76533 56.4357297,343.904772 C53.7518658,344.044215 50.8845821,344.085771 52.4391552,339.84061" id="Fill-153" fill="#A59C9A" mask="url(#mask-3)"></path>
                <path d="M27.4096685,394.191504 C27.4096685,394.191504 28.993933,400.251895 29.7913651,401.538903 C30.5871666,402.826746 28.9156574,402.356767 27.978797,400.714348 C27.0427519,399.07193 26.8438015,400.100532 26.9261539,400.670026 C27.0093217,401.239521 27.5515429,404.828758 27.428422,405.645786 C27.3061165,406.46365 26.8364632,405.558815 26.4801464,404.224977 C26.1254603,402.891139 25.8604649,402.071602 25.8604649,402.071602 C25.8604649,402.071602 25.847419,405.635751 25.0948322,405.969419 C24.34143,406.303088 22.6797054,403.829425 22.0812236,402.293211 C21.4827418,400.756161 24.3879062,394 24.3879062,394 L27.4096685,394.191504 Z" id="Fill-154" fill="#FFBBA6" mask="url(#mask-3)"></path>
                <path d="M112,333.871643 C112,333.871643 116.244337,328.390114 118.103667,326.526394 C119.963883,324.660947 123.470151,322.588324 123.947152,323.070872 C124.424154,323.554282 121.528518,325.579427 121.025852,326.400362 C120.524072,327.222159 122.459511,327.790167 123.278112,329.526128 C124.097598,331.261227 122.900228,333.433984 121.428516,334.060692 C119.957688,334.686535 117.954992,334.472454 117.15055,335.169946 C116.346994,335.868301 114.808023,337 114.808023,337 L112,333.871643 Z" id="Fill-155" fill="#FFBBA6" mask="url(#mask-3)"></path>
                <path d="M113.271053,332 C109.348822,335.442915 105.886591,339.272798 101.869828,342.568377 C99.8610246,344.213627 97.8387167,345.842787 95.8113446,347.36695 C94.8035667,348.1375 93.7797522,348.877565 92.7981395,349.535496 C92.3094432,349.858957 91.8030222,350.208668 91.3911331,350.41443 C91.2062894,350.505033 90.8897763,350.723496 90.8205654,350.710795 C90.7429142,350.701481 90.7007124,350.726036 90.6315016,350.736198 C90.4103644,350.614265 89.3873939,350.740431 88.257231,350.627813 C87.1920588,350.587168 85.9513273,350.447453 84.762926,350.315359 C82.3498298,350.041857 79.8371375,349.624405 77.3447021,349.195946 C75.7503199,348.913129 60.7720742,343.167035 57.801915,342.653053 C57.0979897,342.531967 56.3603031,342.489629 55.6479376,342.529426 C49.3725371,342.879984 45.1709307,344.172135 42.6768072,346.497331 C42.1737623,346.875831 41.6960385,347.303444 41.2892136,347.830127 C39.9632346,349.548197 38.6558243,351.278122 37.3501021,353.036837 C34.4542179,356.976798 31.6267005,360.870188 28.9747425,365.414734 C27.5998094,367.64848 26.3573898,370.793336 25.8686936,373.276029 C25.2863094,375.850171 24.9444752,378.321855 24.6845124,380.777451 C24.191596,385.691183 24.000844,390.480442 24,395.35099 L28.432028,395.736265 C29.3343014,391.184944 30.4399873,386.585359 31.7752507,382.211011 C32.4513228,380.028918 33.2067341,377.887469 34.071026,375.956862 C34.9783637,373.91533 35.7835731,372.741725 37.20324,371.149821 C38.0430549,370.201453 38.9495485,369.248851 39.8830512,368.296249 C39.5817307,380.259236 38.7132187,395.059706 38.4144303,404.411293 C51.4860008,409.354661 69.9982212,405.698364 69.9982212,405.698364 C69.9982212,405.698364 70.2016336,383.78598 72.3328221,375.6859 C73.2570404,372.176938 74.234433,367.446105 74.717221,362.853294 C75.3333666,362.827044 75.9402278,362.818577 76.5597495,362.788093 C79.2868267,362.640758 81.9987113,362.480721 84.8144121,362.166574 C86.2374552,362.000609 87.6157644,361.849886 89.1535962,361.560295 C90.6289695,361.291873 92.2132232,361.018371 94.4701729,360.058995 C94.9900985,359.79396 95.5049598,359.466265 96.0004084,359.146191 C96.5026092,358.815955 96.6866089,358.602572 97.0411036,358.323989 C97.7078913,357.787145 98.1999637,357.289252 98.7257975,356.786278 C99.7614285,355.778637 100.705904,354.788778 101.622526,353.786217 C103.46843,351.788717 105.209675,349.775128 106.934038,347.749685 C110.377701,343.696258 113.705731,339.609807 117,335.46239 L113.271053,332 Z" id="Fill-156" fill="#9FB6BE" mask="url(#mask-3)"></path>
            </g>
        </g>
    </g>
</svg>