<svg xmlns="http://www.w3.org/2000/svg" xmlns:xlink="http://www.w3.org/1999/xlink" width="807" height="654" viewBox="0 0 807 654">
    <defs>
        <path id="prefix__a" d="M0 0H807V654H0z"/>
        <path id="prefix__d" d="M0 501L570 501 570 0 0 0z"/>
        <linearGradient id="prefix__b" x1="20.175%" x2="80.613%" y1="33.522%" y2="62.323%">
            <stop offset=".092%" stop-color="#FFF" stop-opacity=".105"/>
            <stop offset="100%" stop-color="#E6E6E6"/>
        </linearGradient>
    </defs>
    <g fill="none" fill-rule="evenodd">
        <mask id="prefix__c" fill="#fff">
            <use xlink:href="#prefix__a"/>
        </mask>
        <path fill="url(#prefix__b)" d="M201.912 0c-22.188.029-44.21 2.85-64.195 8.14-39.552 10.467-85.288 38.62-91.691 79.23-3.627 23.012 13.93 41.326 17.055 63.215 5.977 41.895-43.05 45.86-58.618 77.278-20.594 41.56 35.226 72.653 62.658 95.92 37.004 31.387 63.879 77.614 45.125 124.588-18.434 46.16-67.919 72.44-86.957 118.355C4.58 616.663 27.3 678.79 76.538 706.87c34.05 19.42 76.078 22.698 116.022 20.562 92.478-4.946 183.058-36.817 255.686-89.964 30.376-22.229 60.488-49.256 98.997-53.209 63.979-6.566 112.923 52.093 174.585 69.178 58.827 16.298 124.211-8.559 166.603-49.63 20.658-20.012 37.711-45.707 36.51-73.344-1.618-37.207-34.541-65.805-64.342-90.863-29.8-25.056-61.18-56.176-58.212-93.311 3.958-49.538 65.451-77.805 84.552-124.234 17.11-41.587-3.563-88.576-32.132-124.384-38.71-48.523-102.951-88.724-166.068-73.52-62.041 14.946-100.688 77.688-163.144 91.08-45.636 9.787-92.731-9.51-131.53-33.777-33.119-20.717-63.456-45.53-99.205-62.494C267.59 6.021 234.908.039 202.56 0h-.648z" mask="url(#prefix__c)" transform="matrix(-1 0 0 1 925 0)"/>
        <g transform="translate(133 137)">
            <path fill="#D1D3D4" d="M498.076 104H108.924C94.053 104 82 116.039 82 130.889V345.11C82 359.961 94.053 372 108.924 372h389.152c14.87 0 26.924-12.039 26.924-26.89V130.89c0-14.85-12.054-26.889-26.924-26.889"/>
            <path fill="#333" d="M498.076 104H108.924C94.053 104 82 116.039 82 130.889V345.11C82 359.961 94.053 372 108.924 372h389.152c14.87 0 26.924-12.039 26.924-26.89V130.89c0-14.85-12.054-26.889-26.924-26.889"/>
            <path fill="#F2F2F2" d="M486.616 118H130.384c-7.392 0-13.384 5.988-13.384 13.374v212.252c0 7.385 5.992 13.374 13.384 13.374h356.232c7.392 0 13.384-5.989 13.384-13.374V131.374c0-7.386-5.992-13.374-13.384-13.374"/>
            <path fill="#4F4F4F" d="M109 238c0 4.97-4.029 9-9 9-4.97 0-9-4.03-9-9s4.03-9 9-9c4.971 0 9 4.03 9 9"/>
            <path fill="#FFF" d="M474.252 132H147.748c-6.489 0-11.748 5.284-11.748 11.805v185.39c0 6.519 5.259 11.805 11.748 11.805h326.504c6.489 0 11.748-5.286 11.748-11.805v-185.39c0-6.52-5.259-11.805-11.748-11.805"/>
            <path fill="#0096FF" d="M474.252 133H147.748c-6.489 0-11.748 5.168-11.748 11.545V164h350v-19.455c0-6.377-5.259-11.545-11.748-11.545"/>
            <path fill="#DB3931" d="M420.03 224.598c-13.537.346-23.574-12.228-36.055-17.504-15.922-6.73-35.347-.384-47.042 12.387-5.506 6.014-10.452 13.82-18.465 15.215-11.417 1.99-20.645-10.297-32.161-11.59-17.035-1.912-28.06 19.84-44.978 22.606-15.345 2.507-31.195-11.396-45.5-5.282-6.22 2.66-10.36 8.538-15.416 13.045-5.057 4.507-12.753 7.72-18.413 4.006V280h299v-77c-13.866 6.238-25.782 21.212-40.97 21.598"/>
            <path fill="#FFCE55" d="M184 307c0 6.075-4.925 11-11 11s-11-4.925-11-11 4.925-11 11-11 11 4.925 11 11"/>
            <mask id="prefix__e" fill="#fff">
                <use xlink:href="#prefix__d"/>
            </mask>
            <path fill="#FFCE55" d="M193 313L297 313 297 301 193 301z" mask="url(#prefix__e)"/>
            <path fill="#00A79D" d="M358 297L462 297 462 291 358 291zM358 310L462 310 462 304 358 304zM358 323L462 323 462 317 358 317z" mask="url(#prefix__e)"/>
            <path fill="#BADC00" d="M161 196L213 196 213 177 161 177z" mask="url(#prefix__e)"/>
            <path fill="#0DF" d="M471 148c0 3.314-2.687 6-6 6s-6-2.686-6-6c0-3.313 2.687-6 6-6s6 2.687 6 6" mask="url(#prefix__e)"/>
            <path fill="#FFC73C" d="M421 148c0 3.314-2.686 6-6 6s-6-2.686-6-6c0-3.313 2.686-6 6-6s6 2.687 6 6" mask="url(#prefix__e)"/>
            <path fill="#FF3453" d="M447 148c0 3.314-2.687 6-6 6-3.314 0-6-2.686-6-6 0-3.313 2.686-6 6-6 3.313 0 6 2.687 6 6" mask="url(#prefix__e)"/>
            <path fill="#DB3931" d="M420.5 414.28c-4.296 0-7.78-3.483-7.78-7.78 0-4.295 3.484-7.779 7.78-7.779s7.78 3.484 7.78 7.779c0 4.297-3.484 7.78-7.78 7.78m19.759-12.534h-4.08c-.316-1.04-.724-2.028-1.23-2.97l2.885-2.885c1.07-1.07 1.07-2.806 0-3.876l-2.847-2.847c-1.072-1.071-2.807-1.071-3.878 0l-2.884 2.884c-.941-.505-1.93-.914-2.97-1.229v-4.08c0-1.515-1.227-2.743-2.74-2.743h-4.028c-1.514 0-2.742 1.228-2.742 2.743v4.08c-1.04.315-2.029.723-2.97 1.229l-2.884-2.884c-1.07-1.071-2.806-1.071-3.878 0l-2.847 2.847c-1.07 1.07-1.07 2.806 0 3.876l2.884 2.885c-.504.942-.912 1.93-1.227 2.97h-4.081c-1.514 0-2.742 1.227-2.742 2.742v4.026c0 1.513 1.228 2.742 2.742 2.742h4.08c.316 1.039.724 2.027 1.228 2.969l-2.884 2.885c-1.07 1.07-1.07 2.806 0 3.877l2.847 2.847c1.072 1.07 2.807 1.07 3.878 0l2.884-2.884c.941.506 1.93.912 2.97 1.228v4.08c0 1.514 1.228 2.742 2.742 2.742h4.027c1.514 0 2.741-1.228 2.741-2.742v-4.08c1.04-.316 2.029-.723 2.97-1.229l2.884 2.885c1.07 1.07 2.806 1.07 3.878 0l2.847-2.847c1.07-1.071 1.07-2.807 0-3.877l-2.884-2.885c.504-.942.913-1.93 1.228-2.97h4.081c1.513 0 2.741-1.228 2.741-2.741v-4.026c0-1.515-1.228-2.742-2.741-2.742" mask="url(#prefix__e)"/>
            <path fill="#6AD1F6" d="M196.887 392h-28.774c-3.375 0-6.113 2.737-6.113 6.114v28.773c0 3.376 2.738 6.113 6.113 6.113h28.774c3.375 0 6.113-2.737 6.113-6.113v-28.773c0-3.377-2.738-6.114-6.113-6.114" mask="url(#prefix__e)"/>
            <path fill="#FFF" d="M179.446 421l-7.76-7.822c-.914-.92-.914-2.411 0-3.331.912-.92 2.391-.92 3.304 0l4.456 4.49 10.564-10.646c.913-.921 2.392-.921 3.305 0 .913.919.913 2.41 0 3.331L179.446 421z" mask="url(#prefix__e)"/>
            <path fill="#FFC73C" d="M513.942 36L502 66.167C505.476 67.35 509.204 68 513.087 68c15.805 0 29.09-10.638 32.913-25.053L513.942 36z" mask="url(#prefix__e)"/>
            <path fill="#6727E5" d="M513.786 32.767L546.476 40c.338-1.932.524-3.918.524-5.949C547 15.245 531.869 0 513.204 0 502.632 0 493.198 4.893 487 12.552l26.786 20.215z" mask="url(#prefix__e)"/>
            <path fill="#BADC00" d="M512 34.97L485.925 15C482.19 20.542 480 27.253 480 34.49c0 14.088 8.287 26.19 20.142 31.51L512 34.97z" mask="url(#prefix__e)"/>
            <path fill="#636ED3" d="M509 163L570 163 570 124 509 124z" mask="url(#prefix__e)"/>
            <path fill="#0DF" d="M509 124L539.5 146 570 124z" mask="url(#prefix__e)"/>
            <path fill="#D1D3D4" d="M543.345 188H341.654C335.77 188 331 192.77 331 198.655v139.69c0 5.884 4.77 10.655 10.654 10.655h201.691c5.884 0 10.655-4.77 10.655-10.655v-139.69c0-5.884-4.77-10.655-10.655-10.655" mask="url(#prefix__e)"/>
            <path fill="#E6E6E6" d="M543.345 188H341.654C335.77 188 331 192.77 331 198.655v139.69c0 5.884 4.77 10.655 10.654 10.655h201.691c5.884 0 10.655-4.77 10.655-10.655v-139.69c0-5.884-4.77-10.655-10.655-10.655" mask="url(#prefix__e)"/>
            <path fill="#6727E5" d="M349 330L534 330 534 236 349 236z" mask="url(#prefix__e)"/>
            <path fill="#CCC" d="M371 210c0 6.076-4.925 11-11 11s-11-4.924-11-11 4.925-11 11-11 11 4.924 11 11" mask="url(#prefix__e)"/>
            <path fill="#BADC00" d="M384 207L462 207 462 200 384 200z" mask="url(#prefix__e)"/>
            <path fill="#CCC" d="M384 220L513 220 513 217 384 217z" mask="url(#prefix__e)"/>
            <path fill="#FFF" d="M459 282.5L429 268 429 297z" mask="url(#prefix__e)"/>
            <path fill="#CCC" d="M93 45L100 45 100 38 93 38z" mask="url(#prefix__e)"/>
            <path fill="#DB3931" d="M88 38L104 38 104 32 88 32zM122 68c0 13.807-11.193 25-25 25S72 81.807 72 68s11.193-25 25-25 25 11.193 25 25" mask="url(#prefix__e)"/>
            <path fill="#F6F6F6" d="M117 68c0 11.598-9.402 21-21 21s-21-9.402-21-21 9.402-21 21-21 21 9.402 21 21" mask="url(#prefix__e)"/>
            <path fill="#DC3B41" d="M113.887 73c-.048 0-.096-.005-.146-.016-.352-.079-.573-.423-.491-.768.293-1.267.442-2.576.442-3.887 0-8.235-5.959-15.41-14.168-17.057-.354-.072-.583-.41-.51-.758.072-.348.42-.574.772-.5C108.6 51.784 115 59.487 115 68.329c0 1.407-.16 2.81-.476 4.172-.07.298-.338.499-.637.499M99 67.5c0 1.381-1.12 2.5-2.5 2.5S94 68.881 94 67.5s1.12-2.5 2.5-2.5 2.5 1.119 2.5 2.5" mask="url(#prefix__e)"/>
            <path fill="#DC3B41" d="M97 69c-.553 0-1-.292-1-.65v-19.7c0-.36.447-.65 1-.65.553 0 1 .29 1 .65v19.7c0 .358-.447.65-1 .65" mask="url(#prefix__e)"/>
            <path fill="#DC3B41" d="M110.35 74c-.09 0-.18-.018-.269-.054l-13.7-5.788c-.326-.138-.471-.497-.323-.802.148-.304.53-.44.86-.302l13.7 5.789c.327.137.472.496.324.8-.109.225-.345.357-.592.357" mask="url(#prefix__e)"/>
            <path fill="#333" d="M98 86c0 .553-.448 1-1 1-.554 0-1-.447-1-1 0-.552.446-1 1-1 .552 0 1 .448 1 1M84.707 81.708c-.39.39-1.024.39-1.414 0-.39-.39-.39-1.025 0-1.415.39-.39 1.024-.39 1.414 0 .39.39.39 1.025 0 1.415M78 69c-.552 0-1-.447-1-1 0-.554.448-1 1-1s1 .446 1 1c0 .553-.448 1-1 1M83.293 55.707c-.39-.39-.39-1.024 0-1.414.39-.39 1.024-.39 1.414 0 .39.39.39 1.024 0 1.414-.39.39-1.024.39-1.414 0M109.707 80.293c.39.39.39 1.025 0 1.415-.39.39-1.024.39-1.414 0-.39-.39-.39-1.025 0-1.415.39-.39 1.024-.39 1.414 0" mask="url(#prefix__e)"/>
            <path fill="#0096FF" d="M0 293L7 293 7 273 0 273zM38.039 275.777c-.492-1.316-1.763-2.183-3.178-2.183l-14.562-.554c2.028-2.164 2.205-7.837 2.165-10.552-.011-.825-.685-1.488-1.518-1.488-.6 0-1.143.345-1.385.888-.525 1.179-1.687 3.338-3.815 5.305-2.47 2.285-4.746 6.062-4.746 6.062V293h18.266c2.204 0 3.97-1.802 3.919-3.986-.012-.511-.02-1.046-.02-1.588 0-2.89 5.835-5.368 5.835-7.638 0-1.154-.485-2.735-.961-4.01" mask="url(#prefix__e)"/>
            <path fill="#E6E6E6" d="M83.205 142L35 142 35 236 108 236 108 166.649z" mask="url(#prefix__e)"/>
            <path fill="#CCC" d="M83 142L108 167 83 167zM46 160L72 160 72 155 46 155zM46 181L98 181 98 176 46 176zM46 195L98 195 98 190 46 190zM46 207L98 207 98 202 46 202zM46 219L98 219 98 214 46 214z" mask="url(#prefix__e)"/>
            <path fill="#F8E4D2" d="M241 449.171s-3.365 3.53-4.125 6.318c-.697 2.687-1.076 3.76-2.242 3.463-1.166-.296-11.98-5.037-15.07-6.947-3.088-1.912 7.325-1.563 11.618-1.102 4.292.46 7.08-3.903 7.08-3.903l2.739 2.171z" mask="url(#prefix__e)"/>
            <path fill="#545671" d="M237.392 456.264c.133-.506.35-1.036.608-1.566-.796-.286-1.682-.919-2.916-.384-2.421 1.063-7.63-1.95-9.384-3.296-4.224-.1-8.228.19-6.12 1.538 3.178 2.034 14.306 7.078 15.505 7.393 1.2.315 1.59-.825 2.307-3.685" mask="url(#prefix__e)"/>
            <path fill="#3251D0" d="M329 405.114s-.295 17.536-30.87 16.147c-18.863-.397-28.296-4.01-28.296-4.01s-17.375 24.174-29.92 33.749L236 448.794s21.569-40.803 27.525-44.243c4.567-2.447 45.452-3.551 45.452-3.551L329 405.114z" mask="url(#prefix__e)"/>
            <path fill="#F8E4D2" d="M261 452.674s-1.374 4.652-.732 7.465c.653 2.693.82 3.814-.382 4.083-1.203.268-13.319.998-17.047.713-3.726-.284 5.921-4.715 10.05-6.261 4.128-1.548 4.578-6.674 4.578-6.674l3.533.674z" mask="url(#prefix__e)"/>
            <path fill="#4763D5" d="M332.624 406.766s4.78 11.483-3.476 17.332c-8.255 5.85-51.93-5.335-51.93-5.335s-.337 18.822-16.632 37.237L256 454.593s9.446-40.592 15.312-49.042c10.211-3.683 38.066-3.55 38.066-3.55l23.246 4.765z" mask="url(#prefix__e)"/>
            <path fill="#545671" d="M259.514 460.71c-.105-.523-.15-1.105-.159-1.71-.798.125-1.822-.022-2.64 1.056-1.596 2.128-7.313 1.91-9.382 1.537-3.625 1.943-6.898 4.132-4.529 4.336 3.574.31 15.19-.484 16.343-.776 1.153-.292.993-1.512.367-4.444" mask="url(#prefix__e)"/>
            <path fill="#FFBBA6" d="M275.132 383.12s-1.637.479-2.6.135c-.962-.344-2.694-1.571-4.283-1.178-1.587.393-3.417 3.535-4.138 4.517-.723.983 2.261 0 3.754-1.03 1.491-1.032 2.55 1.473 4.234 1.227 1.685-.246 3.901-.761 3.901-.761l-.868-2.91z" mask="url(#prefix__e)"/>
            <path fill="#B92650" d="M317.602 345.229c-4.655-1.11-9.294 1.934-10.11 6.657-.378 2.194-.795 4.38-1.243 6.506-.528 2.5-1.118 4.976-1.81 7.238-.33 1.157-.716 2.22-1.074 3.143l-.267.641c-.544 1.314-1.27 1.669-2.52 2.334-1.1.585-2.24 1.169-3.418 1.721-2.341 1.121-4.767 2.188-7.22 3.218-4.899 2.064-9.923 4.015-14.94 5.86l1.077 4.453c5.407-.74 10.762-1.57 16.159-2.565 2.697-.497 5.397-1.035 8.13-1.674 1.365-.31 2.742-.667 4.144-1.058.711-.218 1.398-.395 2.133-.65l1.106-.388.554-.196c.265-.121.682-.37 1.009-.572.644-.406 1.484-.996 1.874-1.39l1.137-1.187.553-.612.4-.53.792-1.073c.979-1.406 1.808-2.751 2.53-4.067 1.498-2.653 2.738-5.242 3.915-7.844 1.009-2.236 1.955-4.445 2.861-6.667 1.935-4.749-.792-10.11-5.772-11.298" mask="url(#prefix__e)"/>
            <path fill="#FFBBA6" d="M286.132 394.12s-1.637.48-2.6.134c-.962-.343-2.695-1.57-4.283-1.177-1.587.392-3.417 3.535-4.138 4.517-.723.983 2.261 0 3.753-1.03 1.492-1.032 2.551 1.472 4.235 1.227 1.685-.246 3.901-.762 3.901-.762l-.868-2.91z" mask="url(#prefix__e)"/>
            <path fill="#00A79D" d="M351.049 443.318v-17.636H354V423h-62.76c-5.103 0-9.24 4.11-9.24 9.182v4.636c0 5.072 4.137 9.182 9.24 9.182H354v-2.682h-2.951z" mask="url(#prefix__e)"/>
            <path fill="#FF3453" d="M330.946 381.88c.542-7.62 1.41-15.411.447-23.031-.738-5.847-4.13-12.092-10.347-13.547-3.352-.784-6.009.043-8.528 1.506-1.304.756-2.57 1.68-3.877 2.64-4.68 3.436-10.912 10.527-9.414 17.292.797 3.6 2.044 5.52 4.22 8.232 2.42 3.017 3.386 6.504 3.51 10.314.037 1.132-1.997 13.223-3.637 15.42-.206.276-.121.668.16.871 5.551 3.987 18.386 12.953 31.485 7.937.517-4.435-4.882-15.526-4.019-27.635" mask="url(#prefix__e)"/>
            <path fill="#FFFDEB" d="M292.34 426c-4.054 0-7.34 3.303-7.34 7.375v3.25c0 4.072 3.286 7.375 7.34 7.375H353v-18h-60.66z" mask="url(#prefix__e)"/>
            <path fill="#BB4738" d="M296.95 464.207v-15.414H294V446h62.76c5.103 0 9.24 4.28 9.24 9.56v1.881c0 5.28-4.137 9.559-9.24 9.559H294v-2.793h2.95z" mask="url(#prefix__e)"/>
            <path fill="#FEE0CF" d="M354.66 450c4.054 0 7.34 3.278 7.34 7.32v.36c0 4.042-3.286 7.32-7.34 7.32H294v-15h60.66z" mask="url(#prefix__e)"/>
            <path fill="#FFBBA6" d="M308.724 319.009c-4.641.144-9.586 2.07-9.713 6.127-.167 5.367 1.673 6.882 1.669 8.655-.004 1.772-.884 3.485-.797 3.999.088.514 2.753-.238 3.098.28.347.518 3.176 4.128 5.647 3.921 3.217-.268 6.37-3.365 7.953-5.645 3.008-4.335 3.988-13.232-1.68-16.216-1.53-.805-3.814-1.195-6.177-1.121" mask="url(#prefix__e)"/>
            <path fill="#FFBBA6" d="M319.628 346.065c-4.337-5.003-3.945-11.065-3.945-11.065s-5.02.162-3.944 2.972c1.074 2.812.173 9.443.173 9.443s-6.494 5.416-2.748 6.456c3.294.914 8.41-3.22 10.537-5.954.43-.553.387-1.322-.073-1.852" mask="url(#prefix__e)"/>
            <path fill="#534741" d="M298.081 328.286s.243 1.494 8.203 1.152c2.662-.48 2.369 3.464 3.17 6.214.605 2.077 1.577-1.167 3.491-3.837 1.915-2.67 3.755 2.422 1.346 3.942-2.41 1.52 1.874 7.961-5.344 10.796 3.116 1.408 10.107-.623 15.203-4.5 5.095-3.877-1.554-19.821-5.29-23.535-3.738-3.714-22.233-5.31-20.779 9.768" mask="url(#prefix__e)"/>
            <path fill="#647FA0" d="M260 404L297 404 297 401 260 401z" mask="url(#prefix__e)"/>
            <path fill="#7991B4" d="M240 380L263.051 380 276 404 252.949 404z" mask="url(#prefix__e)"/>
            <path fill="#A2C4ED" d="M258.666 392c.689 1.657.278 3-.918 3-1.197 0-2.724-1.343-3.414-3-.689-1.657-.278-3 .918-3 1.196 0 2.724 1.343 3.414 3" mask="url(#prefix__e)"/>
            <path fill="#7991B4" d="M253.203 404H277l-3.269-5.901c-12.048 1.851-21.817-2.97-27.731-7.099l7.203 13z" mask="url(#prefix__e)"/>
            <path fill="#FF3453" d="M330.175 367.685c-.469-3.751-1.022-7.402-1.663-11.05-.832-4.742-5.632-7.672-10.222-6.293-4.391 1.32-6.765 6.043-5.282 10.404 1.104 3.247 2.138 6.528 3.06 9.752.849 2.96 1.586 5.932 2.077 8.711.148.722.224 1.364.301 2.003.113.7.118 1.204.152 1.723l.031.398c-.008.054-.012.108-.01.164l.018.164c-.525.393-1.293.85-2.109 1.24-1.216.586-2.582 1.114-3.983 1.611-2.826.98-5.831 1.806-8.877 2.54-6.095 1.458-12.412 2.616-18.668 3.529l.305 5.402c6.571.073 13.054-.089 19.663-.606 3.302-.267 6.621-.632 10.027-1.24 1.708-.319 3.433-.682 5.234-1.215 1.816-.578 3.678-1.181 5.9-2.673 1.133-.924 2.448-1.798 3.507-4.184.302-.634.268-.751.407-1.15l.278-1.008.247-1.02.11-.81c.147-1.093.268-2.2.273-3.117.042-.976.069-1.948.031-2.833-.067-3.657-.39-7.07-.807-10.442" mask="url(#prefix__e)"/>
            <path fill="#FFBBA6" d="M361 81.846v-.706c0-2.878-3.44-4.234-5.295-2.088l-12.091 13.983c-.395.365-.854.68-1.364.908-.159.097-.655.227-1.072.352l-1.272.374-13.267 4.348c-1.198.393-2.472.494-3.707.258-.689-.132-1.401-.317-1.974-.57-1.683-.746-2.405-1.49-3.605-1.16-1.203.33-5.93 2.566-6.33 4.717-.402 2.152 4.646-1.219 5.848-1.105 1.202.112 1.763 2.048 3.364 1.825 1.603-.222 15.552-1.827 15.552-1.827l5.281-.6 1.321-.149c.446-.058.82-.071 1.512-.217 1.191-.247 2.353-.7 3.433-1.332.537-.318 1.054-.681 1.542-1.086l1.074-.861 2.096-1.678 4.196-3.359c2.617-2.095 4.758-6.607 4.758-10.027" mask="url(#prefix__e)"/>
            <path fill="#42210B" d="M337.356 58.18s9.69-6.626 17.91-.748c7.264 5.193 12.058-2.467 17.17-.99 5.111 1.477 4.063 9.272 9.305 12.18 3.277 1.816 6.747 3.006 10.529 2.699 3.674-.299 7.153-1.294 9.69 2.145 2.154 2.919 3.05 6.95 3.04 10.54-.013 4.85-3.314 7.925-7.607 9.498-5.389 1.974-11.285 2.557-15.652-1.804-4.718-4.714-3.618-7.206-10.144-8.941-6.527-1.735-16.954 7.284-24.552-1.454-4.754-4.227-1.666-14.43-3.997-17.124-2.33-2.694-7.436-2.527-5.692-6.002" mask="url(#prefix__e)"/>
            <path fill="#FFBBA6" d="M465 100.726s3.376-.83 4.531-2.075c1.156-1.244 2.311-2.24 3.11-1.244.8.995 5.598 7.219 6.931 7.883 1.333.664 3.021 2.703 2.221 3.509-.8.806-5.064-.936-7.64-3.012-2.578-2.074-8.53-1.99-8.53-1.99l-.623-3.071zM448 70.124s1.625-3.1 1.48-4.891c-.146-1.79-.11-3.392 1.146-3.22 1.258.17 8.975 1.385 10.341.913 1.366-.471 3.973-.158 4.032 1.04.06 1.196-4.032 2.994-7.25 3.305-3.22.31-7.095 4.729-7.095 4.729L448 70.124z" mask="url(#prefix__e)"/>
            <path fill="#85B2C5" d="M388.68 97.257s9.15-10.22 44.11-1.962C433.232 86.225 448.18 69 448.18 69L453 70.582s-13.863 30.839-16.878 35.827c-4.62.832-28.59 4.196-46.614 1.663-2.813-3.533-.829-10.815-.829-10.815" mask="url(#prefix__e)"/>
            <path fill="#A5C6D4" d="M465.998 99.067l-6.33.25s-10.13-1.415-14.523-1.071c-4.392.343-11.41 2.1-11.41 2.1s-18.745-9.22-27.962-10.925c-9.218-1.705-16.116 2.32-16.116 2.32-1.803 4.901-2.413 11.8-.409 15.85 6.613 2.557 37.273.852 43.886.852 6.613 0 33.866-3.836 33.866-3.836l-1.002-5.54z" mask="url(#prefix__e)"/>
            <path fill="#0096FF" d="M358.52 72.839s-4.94 2.87-5.321 6.697c-.38 3.826-4.752 15.88 0 17.41 4.752 1.531 7.603-2.105 11.404 1.913 3.801 4.02 11.404 7.845 26.04 10.141 1.519-4.974 2.079-9.183 0-17.41-3.042-1.34-7.034-.958-14.256-7.654-7.222-6.697-12.544-14.541-17.866-11.097" mask="url(#prefix__e)"/>
            <path fill="#FFBBA6" d="M340.619 60.354c-3.11 1.756-5.708 4.962-4.157 8.056 2.05 4.096 3.92 4.582 4.632 5.916.713 1.334.802 2.935 1.07 3.29.267.357 1.782-1.155 2.227-.888.447.267 3.833 1.976 5.437.944 2.087-1.344 2.99-4.792 3.15-7.069.304-4.328-2.619-11.367-7.69-11.598-1.37-.063-3.086.456-4.67 1.35" mask="url(#prefix__e)"/>
            <path fill="#FFBBA6" d="M358.257 74.114c-4.71-1.233-7.464-5.114-7.464-5.114s-3.002 2.072-1.237 3.3c1.765 1.23 3.828 5.48 3.828 5.48s-2.082 8.019.617 7.155c2.389-.767 4.792-7.393 4.996-9.823.04-.469-.277-.876-.74-.998" mask="url(#prefix__e)"/>
            <path fill="#42210B" d="M335.22 69.089s3.147 2.269 7.664-1.185c1.095-1.201 3.284 1.24 4.106 3.665.82 2.425.684-2.169.82-3.981.137-1.813 4.512 1.521 2.393 4.494 1.018.911 2.535 1.702 4.724-.513 2.19-2.215.648-6.855-1.249-10.17-1.899-3.314-5.456-7.027-11.341-4.64-5.886 2.387-10.675 6.895-7.118 12.33" mask="url(#prefix__e)"/>
            <path fill="#CCC" d="M304 108L333 108 333 106 304 106z" mask="url(#prefix__e)"/>
            <path fill="#CCC" d="M295 79L298.243 79 308 108 304.758 108z" mask="url(#prefix__e)"/>
            <path fill="#FFBBA6" d="M366.96 79.24c-.317-.597-.677-1.165-1.085-1.698-1.566-2.051-5.06-2.086-6.222.075-1.526 2.836-1.284 6.877-1.142 9.98.192 4.214 1.558 8.403 1.507 12.59-1.209.159-5.877.976-7.027 1.07-2.406.197-4.807.456-7.203.746-2.572.312-5.266 1.001-7.855 1.078 0 0-2.847.083-4.45-.611-1.602-.694-2.289-1.388-3.433-1.08-1.144.309-5.647 2.39-6.029 4.392-.38 2.004 4.427-1.134 5.572-1.028 1.144.104 1.678 1.906 3.204 1.7 1.527-.21 4.302-.872 5.218-.872 9.002 1.673 20.249 1.494 25.449 1.29 1.731-.067 3.2-1.293 3.572-3.002 1.507-6.911 3.577-17.742-.077-24.63" mask="url(#prefix__e)"/>
            <path fill="#FFC73C" d="M189.154 54.975C184.96 47.32 167 48.017 167 48.017s-17.961-.698-22.154 6.958c-3.005 5.486 2.837 24.404 4.34 36.134C153.024 91.865 162.616 93 167 93s13.975-1.135 17.813-1.891c1.502-11.73 7.343-30.648 4.34-36.134" mask="url(#prefix__e)"/>
            <path fill="#FFC73C" d="M187.982 52s7.34 6.276 10.58 22.804c2.803 14.303-8.578 15.643-13.033 17.167-3.062.555-.578-7.15-.578-7.15l5.931-3.942s-4.72-13.113-6.112-17.964C183.378 58.063 187.982 52 187.982 52M147.017 52s-7.339 6.276-10.578 22.804c-2.804 14.303 8.577 15.643 13.032 17.167 3.062.555.579-7.15.579-7.15l-5.932-3.942s4.72-13.113 6.111-17.964C151.622 58.063 147.017 52 147.017 52" mask="url(#prefix__e)"/>
            <path fill="#594A42" d="M196.449 142s.425 4.14 4.98 5.824c4.557 1.685 6.973 1.15 7.387 2.985.414 1.838 0 1.953 0 1.953s-11.942.535-15.048 0c-3.107-.536-1.174-10.219-1.174-10.219l3.855-.543zM138.551 142s-.425 4.14-4.98 5.824c-4.557 1.685-6.973 1.15-7.387 2.985-.414 1.838 0 1.953 0 1.953s11.942.535 15.048 0c3.107-.536 1.174-10.219 1.174-10.219L138.55 142z" mask="url(#prefix__e)"/>
            <path fill="#4763D5" d="M199.862 104.227c-.22-4.507-3.131-8.442-7.405-10.035-4.405-1.642-8.62-2.557-8.62-2.557L168 90l-15.839 1.635s-4.214.915-8.619 2.557c-4.273 1.593-7.184 5.528-7.404 10.035-.543 11.1.666 31.418 1.065 39.506 2.425 1.76 6.877 1.173 6.877 1.173s4.034-15.195 4.207-28.888c1.213-8.608 6.52-11.934 19.713-11.934 13.193 0 18.5 3.326 19.712 11.934.174 13.693 4.207 28.888 4.207 28.888s4.453.587 6.878-1.173c.398-8.088 1.608-28.405 1.065-39.506" mask="url(#prefix__e)"/>
            <path fill="#FFBBA6" d="M171.568 47.072c-1.35-.814-1.682-4.769-1.682-4.769s-3.429-.682-4.333 0c.193 2.604-1.58 4.769-1.58 4.769-2.976 3.234 1.625 4.928 3.797 4.928 2.173 0 4.636-1.1 5.142-2.554.507-1.455-1.344-2.374-1.344-2.374" mask="url(#prefix__e)"/>
            <path fill="#F2B892" d="M165.342 42.329c.066.945-.1 1.828-.342 2.596 1.665.865 3.974 1.873 6 2.075-.976-1.424-1.233-4.671-1.233-4.671s-3.501-.74-4.425 0" mask="url(#prefix__e)"/>
            <path fill="#FFBBA6" d="M176.056 26.438c-3.35-5.9-13.75-5.935-17.117 0-1.473 2.596-.96 6.304-.176 9.028 1.084 3.763 3.387 7.288 6.857 9.123.87.458 2.486.542 3.484.207 3.607-1.215 5.608-4.869 6.826-8.375 1.007-2.901 1.677-6.844.256-9.736-.04-.084-.084-.165-.13-.247" mask="url(#prefix__e)"/>
            <path fill="#FFBBA6" d="M175.734 34.43s1.834-2.418 2.972-.965c1.138 1.453-1.304 5.443-2.592 5.532-1.289.09-1.517-2.126-.38-4.568M159.266 34.43s-1.834-2.418-2.972-.965c-1.138 1.453 1.304 5.443 2.593 5.532 1.288.09 1.516-2.126.379-4.568" mask="url(#prefix__e)"/>
            <path fill="#C69C6D" d="M160.365 28.325s12.067 5.614 17.546 3.125c3.476-1.763 4.952-8.912 3.582-10.212-1.37-1.299-2.424-.987-4.11-.78-1.685.207-3.054-1.764-4.003-2.904-.948-1.141-.738-.311-2.634.623-2.074 1.02-4.482.126-6.664.472-4.134.653-6.587 3.795-7.611 7.547-.503 1.843-.631 3.785-.247 5.662.138.672 3.019 6.525 3.343 6.122 1.673-2.074 1.69-4.792.798-9.655" mask="url(#prefix__e)"/>
            <path fill="#C69C6D" d="M174.366 29.67s-1.117 6.632.55 8.33c1.25-2.713 2.084-5.339 2.084-7.754 0-2.415-2.634-.576-2.634-.576" mask="url(#prefix__e)"/>
            <path fill="#DDC2BF" d="M186.357 93L149.643 93 146 71 190 71z" mask="url(#prefix__e)"/>
            <path fill="#FCE2E0" d="M170.891 83.11c-.402 1.144-1.885 1.89-3.39 1.89-1.507 0-2.99-.746-3.392-1.89-.529-1.5.914-3.11 3.391-3.11s3.92 1.61 3.391 3.11" mask="url(#prefix__e)"/>
            <path fill="#DDC2BF" d="M148.178 93h37.44l.382-2.162c-19.465.217-34.092-9.943-41-15.838l3.178 18z" mask="url(#prefix__e)"/>
            <path fill="#D1D3D4" d="M214.687 267H67.314C61.065 267 56 272.061 56 278.306v93.388C56 377.938 61.065 383 67.314 383h147.373c6.248 0 11.313-5.062 11.313-11.306v-93.388c0-6.245-5.065-11.306-11.313-11.306" mask="url(#prefix__e)"/>
            <path fill="#FFF" d="M214.686 267H67.314C61.064 267 56 272.061 56 278.306v93.388C56 377.938 61.065 383 67.314 383h147.372c6.249 0 11.314-5.062 11.314-11.306v-93.388c0-6.245-5.065-11.306-11.314-11.306" mask="url(#prefix__e)"/>
            <path fill="#0096FF" d="M214.686 266H67.314C61.064 266 56 271.045 56 277.27V293h170v-15.73c0-6.225-5.065-11.27-11.314-11.27" mask="url(#prefix__e)"/>
            <path fill="#FF3453" d="M92 279.5c0 1.933-1.567 3.5-3.5 3.5s-3.5-1.567-3.5-3.5 1.567-3.5 3.5-3.5 3.5 1.567 3.5 3.5" mask="url(#prefix__e)"/>
            <path fill="#FFC73C" d="M75 279.5c0 1.933-1.567 3.5-3.5 3.5-1.932 0-3.5-1.567-3.5-3.5s1.568-3.5 3.5-3.5c1.933 0 3.5 1.567 3.5 3.5" mask="url(#prefix__e)"/>
            <path fill="#0DF" d="M102 279.5c0 1.933 1.567 3.5 3.5 3.5s3.5-1.567 3.5-3.5-1.567-3.5-3.5-3.5-3.5 1.567-3.5 3.5" mask="url(#prefix__e)"/>
            <path fill="#DB3931" d="M69 356L79 356 79 310 69 310z" mask="url(#prefix__e)"/>
            <path fill="#FFC73C" d="M85 356L95 356 95 320 85 320z" mask="url(#prefix__e)"/>
            <path fill="#6AD1F6" d="M102 356L112 356 112 315 102 315z" mask="url(#prefix__e)"/>
            <path fill="#0096FF" d="M117 357L127 357 127 330 117 330z" mask="url(#prefix__e)"/>
            <path fill="#BADC00" d="M168 315.5c0 6.903-5.596 12.5-12.5 12.5s-12.5-5.597-12.5-12.5c0-6.904 5.596-12.5 12.5-12.5s12.5 5.596 12.5 12.5" mask="url(#prefix__e)"/>
            <path fill="#FFCE55" d="M180 318L213 318 213 314 180 314z" mask="url(#prefix__e)"/>
            <path fill="#CCC" d="M147 337L213 337 213 333 147 333zM147 346L213 346 213 342 147 342zM147 356L213 356 213 352 147 352zM80 371L103 371 103 367 80 367z" mask="url(#prefix__e)"/>
            <path fill="#DB3931" d="M70 373L78 373 78 365 70 365z" mask="url(#prefix__e)"/>
            <path fill="#CCC" d="M123 371L146 371 146 367 123 367z" mask="url(#prefix__e)"/>
            <path fill="#6AD1F6" d="M112 373L120 373 120 365 112 365z" mask="url(#prefix__e)"/>
            <path fill="#37384F" d="M497.526 474c-.108.322.131 4.302-4.257 5.484-4.39 1.183-7.496 1.505-8.031 3.011-.535 1.505 0 1.505 0 1.505s13.49 0 16.168-.86c.856-1.397.535-9.14.535-9.14h-4.415zM524.866 474.087c-.04.314 1.089 4.158-3.185 5.388-4.274 1.23-7.41 1.603-7.63 3.07-.22 1.466.334 1.455.334 1.455s13.938-.263 16.513-1.149c.576-1.368-1.471-8.851-1.471-8.851l-4.561.087z" mask="url(#prefix__e)"/>
            <path fill="#000016" d="M493.098 380.208s-2.838 49.527-1.912 59.248c.925 9.722 5.245 35.544 5.245 35.544h5.866l-1.543-37.062s4.627-24.912 6.634-29.165c3.86 7.595 6.357 30.868 6.357 30.868L524.211 475H531s-7.406-35.848-7.098-36.76c.309-.91 3.598-38.151-4.528-55.835-8.435-3.405-26.276-2.197-26.276-2.197" mask="url(#prefix__e)"/>
            <path fill="#FFBBA6" d="M542.397 390.128s-1.856 3.618-3.764 5.355c-1.909 1.738.954.982 2.568-.906.661-.68.881 2.19.147 3.097-.733.906-2.569 2.04-2.788 2.266-.221.227 2.202-.253 3.67-1.235-.66 1.284-3.304 2.594-3.084 3.048.221.454 3.157.454 5.432-1.511 2.275-1.964 1.174-8.914 1.027-9.745-.146-.83-3.208-.37-3.208-.37M488.533 307s5.069-1.06 7.45-1.48c2.383-.42-1.348-.935-3.62-1.396.16-1.367 3.96-5.206 5.29-6.49 1.33-1.287-1.477-.248-3.173 1.266-1.105 1.07-1.609 1.409-1.609 1.409s2.606-5.175 2.323-6.114c-.284-.94-5.258 1.755-6.588 3.04-1.33 1.286-2.606 7.204-2.606 7.204l2.533 2.561z" mask="url(#prefix__e)"/>
            <path fill="#00CFFF" d="M479.998 331.577c-.026-.078-.017-.232-.029-.34.022.05.066.108.058.14.114.258 0 .402-.03.2m65.57 27.313c-.283-.864-.435-1.606-.869-2.572-.453-.944-1.053-2.123-1.498-2.704-.973-1.473-1.903-2.612-2.855-3.746-1.897-2.247-3.812-4.262-5.755-6.235-1.824-1.828-3.645-3.595-5.494-5.33-.037-.035-.077-.062-.116-.097-3.257-5.007-19.526-4.445-19.526-4.445s-13.705 1.373-14.344 1.285c-2.292-.319-4.573-.712-6.738-1.183-.012-.137-6.237-1.804-6.685-1.95-.529-.173-1.085-.363-1.457-.779-.889-.996.288-3.68.646-4.709.692-2.108 1.62-4.276 2.63-6.421 2.037-4.285 4.444-8.584 6.976-12.657L486.05 304c-3.318 3.891-6.39 7.838-9.288 12.12-1.437 2.148-2.822 4.361-4.066 6.807-1.175 2.53-2.522 4.925-2.694 9.13-.023 1.04.176 2.4.76 3.799.301.644.903 1.617 1.2 1.923l1.044 1.167c1.406 1.402 2.738 2.288 4.044 3.113 2.592 1.565 5.095 2.669 7.599 3.688 1.936.77 3.84 1.44 5.748 2.073.296 6.337 1.973 14.312 2.373 21.127.68 11.614.744 20.51.744 20.51s17.047 5.478 29.985.354c.628-7.137 2.134-23.308 3.984-34.308 1.465 1.02 6.023 4.569 6.649 5.18.456.39.37.446.6.62.183.193.39.731.605 1.082 1.665 3.817 2.693 9.114 3.508 14.107.819 5.073 1.414 10.295 1.857 15.443l5.547.043c.434-5.372.714-10.676.751-16.096-.031-5.47.026-10.746-1.434-16.992" mask="url(#prefix__e)"/>
            <path fill="#FFBBA6" d="M512.959 332.96c-.355-1.988-.303-4.96-.303-4.96l-4.323.634s.08 3.883-2.242 5.548c-.698 3.085 2.74 3.908 6.078 1.1.671-.566.942-1.463.79-2.322" mask="url(#prefix__e)"/>
            <path fill="#8C67E8" d="M509.143 337.215s-.565-1.756.55-2.58c1.114-.824 2.704-1.565 3.064-2.635.758.658 1.315 1.756 1.235 2.607-.08.852-3.582 4.393-3.582 4.393l-1.267-1.785zM507.398 332.027s-.698 1.622.335 2.432c.283.455.607 2.782-.565 3.541 0 0-1.924-1.922-2.16-3.794-.14-1.366 1.444-2.386 2.39-2.18M507 342c0-.553.449-1 1-1 .553 0 1 .447 1 1 0 .553-.447 1-1 1-.551 0-1-.447-1-1M507 350c0-.553.448-1 1-1 .553 0 1 .447 1 1 0 .553-.447 1-1 1-.552 0-1-.447-1-1" mask="url(#prefix__e)"/>
            <path fill="#FFBBA6" d="M508.357 327.66s.022 1.225-.357 2.613c1.395.57 3.138.949 5 .582-.177-1.86-.147-3.855-.147-3.855l-4.496.66z" mask="url(#prefix__e)"/>
            <path fill="#FFBBA6" d="M521.63 316.504c-.322-.999-.86-1.948-1.64-2.795-1.734-1.884-4.367-2.892-6.99-2.682-4.985.563-7.478 4.38-9.139 8.312-1.662 3.93-2.84 6.43-.712 8.312 2.21 1.95 7.565 1.544 11.956.308 4.985-1.403 7.985-6.923 6.525-11.455" mask="url(#prefix__e)"/>
            <path fill="#C69C6D" d="M506.08 310.226s.098 5.036 8.77 8.104c.697 1.287-.836 4.158-3.359 5.049-2.522.89 1.603 1.188 3.527 0 1.924-1.188 1.664 2.094 0 2.334-1.663.24-3.706 1.635-3.295 2.624.41.99 3.923 1.279 8.01-2.087 4.085-3.367 5.88-8.91 5.082-11.782-.617-2.223-2.876-3.952-4.706-5.178-2.198-1.473-4.775-2.221-6.932-3.774-.433-.312-1.477-.996-1.385.02.168 1.882-.63.717-1.627.123s-1.993-.694-1.694.692c.299 1.387-.19.693-1.39.198-1.2-.494-1.157 1.96-1.002 3.677" mask="url(#prefix__e)"/>
            <path fill="#37384F" d="M78.304 497.076c-1.153-1.813-6.877-.522-9.91-2.258-2.382-1.363-2.244-5.089-2.244-5.089L61.388 489s-1.318 5.437-1.388 9.125c-.018 1.016.73 1.891 1.727 2.048 9.633 1.506 17.104.495 17.104.495s.625-1.779-.527-3.592M48.317 493.629c-1.13-1.701-6.108-1.629-9.082-3.258-2.337-1.279-1.654-4.694-1.654-4.694L32.963 485s-1.894 5.014-1.963 8.474c-.018.953.716 1.775 1.695 1.922C42.144 496.809 48.833 497 48.833 497s.615-1.67-.516-3.371" mask="url(#prefix__e)"/>
            <path fill="#000016" d="M71.96 449.431l-3.19-49.006L41.172 400s-2.856 6.036-3.225 12.191c-.368 6.155.675 26.251.676 26.258l-.446 6.723.117-.64L31 486.446l5.955 1.415 12.593-40.657.116-.642 4.074-27.135 6.696 31.103-.462 39.93 6.061.539 5.935-40.538.032-.225-.04-.806z" mask="url(#prefix__e)"/>
            <path fill="#FFBBA6" d="M64.9 318.952c-2.24-3.476-8.72-4.115-13.495-.663-4.775 3.452-.965 12.58-.965 12.58 3.725 8.082 12.93 8.563 15.193 5.066 2.263-3.5 1.505-13.507-.734-16.983" mask="url(#prefix__e)"/>
            <path fill="#FFBBA6" d="M60.376 335.132s-.798 6.798 1.624 10.719c0 0-3.951.408-6.901-.126-2.95-.534.975-12.725.975-12.725s3.1.005 4.302 2.132" mask="url(#prefix__e)"/>
            <path fill="#534741" d="M62.38 312.017c-3.682-.148-8.309.678-11.843 2.215-3.09 1.344-4.883 4.53-4.481 7.827.611 5.017 2.61 10.288 4.652 13.168 2.68 3.781 10.256 4.818 11.188 2.667.932-2.152-.464-4.532-1.947-5.742-1.484-1.209.277-4.345 1.439-3.423 1.161.92 1.749 4.535 2.816 3.5 1.067-1.034-3.787-7.636-.772-7.967 2.203-.243 3.914-1.955 5.04-4.001.842-1.531 1.357-3.248 1.505-4.679.419-4.041-4.925-3.457-7.597-3.565" mask="url(#prefix__e)"/>
            <path fill="#A59C9A" d="M52.44 339.84s2.057-1.29 4.636-.673c2.578.62 5.627 1.912 5.627 1.912L64 345s-4.88-1.235-7.564-1.095c-2.684.14-5.551.18-3.997-4.064" mask="url(#prefix__e)"/>
            <path fill="#FFBBA6" d="M27.41 394.192s1.584 6.06 2.381 7.347c.796 1.288-.875.818-1.812-.825-.936-1.642-1.135-.613-1.053-.044.083.57.626 4.159.502 4.976-.122.818-.592-.087-.948-1.421-.355-1.334-.62-2.153-.62-2.153s-.013 3.564-.765 3.897c-.754.334-2.415-2.14-3.014-3.676-.598-1.537 2.307-8.293 2.307-8.293l3.022.192zM112 333.872s4.244-5.482 6.104-7.346c1.86-1.865 5.366-3.938 5.843-3.455.477.483-2.418 2.508-2.921 3.33-.502.821 1.434 1.39 2.252 3.125.82 1.735-.378 3.908-1.85 4.535-1.47.626-3.473.411-4.277 1.109-.804.698-2.343 1.83-2.343 1.83L112 333.872z" mask="url(#prefix__e)"/>
            <path fill="#9FB6BE" d="M113.271 332c-3.922 3.443-7.384 7.273-11.401 10.568-2.009 1.646-4.031 3.275-6.059 4.799-1.007.77-2.031 1.51-3.013 2.168-.489.324-.995.674-1.407.88-.185.09-.501.308-.57.296-.078-.01-.12.015-.19.025-.22-.122-1.244.004-2.374-.108-1.065-.04-2.306-.18-3.494-.313-2.413-.273-4.926-.69-7.418-1.12-1.595-.282-16.573-6.028-19.543-6.542-.704-.121-1.442-.163-2.154-.124-6.275.351-10.477 1.643-12.971 3.968-.503.379-.981.806-1.388 1.333-1.326 1.718-2.633 3.448-3.939 5.207-2.896 3.94-5.723 7.833-8.375 12.378-1.375 2.233-2.618 5.378-3.106 7.861-.583 2.574-.925 5.046-1.184 7.501-.493 4.914-.684 9.703-.685 14.574l4.432.385c.902-4.551 2.008-9.15 3.343-13.525.676-2.182 1.432-4.324 2.296-6.254.907-2.042 1.713-3.215 3.132-4.807.84-.949 1.747-1.901 2.68-2.854-.301 11.963-1.17 26.764-1.469 36.115 13.072 4.944 31.584 1.287 31.584 1.287s.204-21.912 2.335-30.012c.924-3.51 1.901-8.24 2.384-12.833.616-.026 1.223-.034 1.843-.065 2.727-.147 5.439-.307 8.254-.621 1.423-.166 2.802-.317 4.34-.607 1.475-.268 3.06-.542 5.316-1.501.52-.265 1.035-.593 1.53-.913.503-.33.687-.543 1.041-.822.667-.537 1.159-1.035 1.685-1.538 1.035-1.007 1.98-1.997 2.897-3 1.845-1.997 3.587-4.01 5.311-6.036 3.444-4.054 6.772-8.14 10.066-12.288L113.271 332z" mask="url(#prefix__e)"/>
        </g>
    </g>
</svg>
