<svg xmlns="http://www.w3.org/2000/svg" width="78" height="80" viewBox="0 0 78 80">
    <g fill="none" fill-rule="evenodd">
        <path fill="#DC3B41" d="M39 0C17.46 0 0 17.908 0 40s17.46 40 39 40 39-17.908 39-40S60.54 0 39 0z"/>
        <path fill="#FFF" d="M56.713 17.905H25.407a.704.704 0 0 0-.695.713v3.81c0 .394.311.714.695.714.385 0 .697-.32.697-.714v-3.096h29.914v30.681h-3.34a.705.705 0 0 0-.696.714c0 .394.312.713.696.713h4.035a.704.704 0 0 0 .696-.713V18.618a.704.704 0 0 0-.696-.713M18.451 58.575h31.305a.704.704 0 0 0 .696-.713v-3.81a.705.705 0 0 0-.696-.714.705.705 0 0 0-.695.714v3.096H19.146v-30.68h3.34a.705.705 0 0 0 .696-.714.706.706 0 0 0-.696-.714H18.45a.705.705 0 0 0-.696.714v32.108c0 .394.311.713.696.713"/>
        <path fill="#FFF" d="M44.052 38.99h-5.774v5.922a.704.704 0 0 1-.696.713.704.704 0 0 1-.696-.713V38.99h-5.774a.706.706 0 0 1-.696-.714c0-.394.312-.713.696-.713h5.774V31.64c0-.394.311-.713.696-.713.385 0 .696.319.696.713v5.923h5.774c.384 0 .696.319.696.713a.706.706 0 0 1-.696.714zm5.704-13.914H25.408a.705.705 0 0 0-.696.714v24.937c0 .394.311.714.696.714h24.348c.384 0 .695-.32.695-.714V25.81a.706.706 0 0 0-.673-.735h-.022z"/>
    </g>
</svg>
