<svg xmlns="http://www.w3.org/2000/svg" xmlns:xlink="http://www.w3.org/1999/xlink" width="93" height="94" viewBox="0 0 93 94">
    <defs>
        <path id="a" d="M0 .453h92.548V93H.001z"/>
    </defs>
    <g fill="none" fill-rule="evenodd">
        <g transform="translate(0 .548)">
            <mask id="b" fill="#fff">
                <use xlink:href="#a"/>
            </mask>
            <path fill="#FF3453" d="M92.535 47.821C93.139 22.272 72.919 1.07 47.369.466 21.819-.14.618 20.082.014 45.631-.592 71.179 19.63 92.382 45.179 92.987c25.548.605 46.75-19.616 47.356-45.166" mask="url(#b)"/>
        </g>
        <path fill="#FFF" d="M33.43 31.4a3.034 3.034 0 0 0-3.03 3.03 3.034 3.034 0 0 0 3.03 3.031 3.034 3.034 0 0 0 3.031-3.03 3.034 3.034 0 0 0-3.03-3.032m0 7.875a4.85 4.85 0 0 1-4.845-4.844 4.849 4.849 0 0 1 4.844-4.843 4.849 4.849 0 0 1 4.844 4.843 4.85 4.85 0 0 1-4.844 4.844"/>
        <path fill="#FFF" d="M33.43 25.587c-4.876 0-8.844 3.968-8.844 8.844 0 3.424 2.51 6.686 4.615 8.82a32.048 32.048 0 0 0 3.935 3.372l.293.212.294-.213a32.123 32.123 0 0 0 3.975-3.41c2.087-2.126 4.576-5.376 4.576-8.781 0-4.876-3.968-8.844-8.844-8.844zM62.774 40.68a3.317 3.317 0 0 0-3.313 3.312 3.318 3.318 0 0 0 3.313 3.313 3.317 3.317 0 0 0 3.312-3.313 3.316 3.316 0 0 0-3.312-3.312zm-2.344 8.437a2.847 2.847 0 0 0-2.844 2.844v6.5h10.375v-6.5a2.847 2.847 0 0 0-2.844-2.844H60.43zm-.108 19.844h4.904l.776-8.687h-6.457l.777 8.687zm-33.36 1.813a4.193 4.193 0 0 1-4.188-4.188 4.192 4.192 0 0 1 4.187-4.187H39.9a2.378 2.378 0 0 0 2.375-2.375A2.378 2.378 0 0 0 39.9 57.65h-3.188a4.193 4.193 0 0 1-4.187-4.188v-5.047l-.212-.15c-2.237-1.58-9.538-7.25-9.538-13.834 0-5.876 4.78-10.656 10.656-10.656s10.656 4.78 10.656 10.656c0 6.584-7.3 12.254-9.538 13.835l-.212.149v5.047a2.378 2.378 0 0 0 2.375 2.375H39.9a4.193 4.193 0 0 1 4.187 4.188 4.193 4.193 0 0 1-4.187 4.187H26.961a2.378 2.378 0 0 0-2.375 2.375 2.378 2.378 0 0 0 2.375 2.375h31.541l-.776-8.687h-1.952v-8.313a4.684 4.684 0 0 1 2.668-4.21l.546-.258-.356-.488a5.079 5.079 0 0 1-.983-3.013 5.13 5.13 0 0 1 5.125-5.125 5.13 5.13 0 0 1 5.125 5.125c0 1.09-.34 2.132-.984 3.013l-.355.488.546.259a4.684 4.684 0 0 1 2.668 4.209v8.313h-1.952l-.938 10.5H26.961z"/>
    </g>
</svg>
