<?xml version="1.0" encoding="UTF-8"?>
<svg width="30px" height="30px" viewBox="0 0 30 30" version="1.1" xmlns="http://www.w3.org/2000/svg" xmlns:xlink="http://www.w3.org/1999/xlink">
    <!-- Generator: sketchtool 53.2 (72643) - https://sketchapp.com -->
    <title>5C566B29-D893-4F64-B3DD-CECB9C8B8780</title>
    <desc>Created with sketchtool.</desc>
    <g id="Desktop" stroke="none" stroke-width="1" fill="none" fill-rule="evenodd">
        <g id="mkt-y-ventas" transform="translate(-1175.000000, -2719.000000)" fill="#FFFFFF">
            <g id="linkedin" transform="translate(1175.000000, 2719.000000)">
                <g id="Shape">
                    <path d="M15,0 C6.71699525,0 0,6.71699525 0,15 C0,23.2830047 6.71699525,30 15,30 C23.2830047,30 30,23.2830047 30,15 C30,6.71699525 23.2830047,0 15,0 Z M10.6411743,22.6757813 L6.98799135,22.6757813 L6.98799135,11.6851044 L10.6411743,11.6851044 L10.6411743,22.6757813 Z M8.81469727,10.1843262 L8.79089355,10.1843262 C7.56500244,10.1843262 6.77215576,9.34043883 6.77215576,8.28575133 C6.77215576,7.20726012 7.58926395,6.38671875 8.83895871,6.38671875 C10.0886536,6.38671875 10.8576966,7.20726012 10.8815003,8.28575133 C10.8815003,9.34043883 10.0886536,10.1843262 8.81469727,10.1843262 Z M23.8137817,22.6757813 L20.1610565,22.6757813 L20.1610565,16.7960358 C20.1610565,15.3183746 19.6321106,14.3106079 18.310318,14.3106079 C17.301178,14.3106079 16.7001343,14.990387 16.4360046,15.6465912 C16.3394165,15.881424 16.3158417,16.2096405 16.3158417,16.5380859 L16.3158417,22.6757813 L12.6628876,22.6757813 C12.6628876,22.6757813 12.7107239,12.7162171 12.6628876,11.6851044 L16.3158417,11.6851044 L16.3158417,13.241272 C16.8013001,12.4923706 17.6699066,11.4271546 19.608078,11.4271546 C22.0115661,11.4271546 23.8137817,12.9979706 23.8137817,16.3737488 L23.8137817,22.6757813 Z" fill-rule="nonzero"></path>
                </g>
            </g>
        </g>
    </g>
</svg>