<svg xmlns="http://www.w3.org/2000/svg" xmlns:xlink="http://www.w3.org/1999/xlink" width="181" height="37" viewBox="0 0 181 37">
    <defs>
        <path id="prefix__a" d="M0.27 0.18L148.5 0.18 148.5 27.9 0.27 27.9z"/>
    </defs>
    <g fill="none" fill-rule="evenodd">
        <path fill="#FFF" d="M18.27 0c-2.07 0-3.78 1.8-3.69 3.87.09 1.89 1.62 3.42 3.51 3.51h.18c2.07 0 3.69-1.71 3.69-3.69S20.25 0 18.27 0m0 2.07c.9 0 1.62.72 1.62 1.62 0 .9-.72 1.62-1.62 1.62h-.09c-.81 0-1.53-.72-1.53-1.53 0-.45.18-.9.45-1.17.27-.36.72-.54 1.17-.54M15.75 23.49H11.7c-3.42 0-6.21 2.79-6.21 6.21s2.79 6.21 6.21 6.21h4.05c3.42 0 6.21-2.79 6.21-6.21s-2.79-6.21-6.21-6.21m0 2.52c2.07 0 3.78 1.71 3.78 3.78s-1.71 3.78-3.78 3.78H11.7c-2.07 0-3.78-1.71-3.78-3.78s1.71-3.78 3.78-3.78h4.05M15.75 9H6.21C2.79 9 0 11.79 0 15.21s2.79 6.21 6.21 6.21h9.54c3.42 0 6.21-2.79 6.21-6.21S19.17 9 15.75 9m0 2.43c2.07 0 3.78 1.71 3.78 3.78s-1.71 3.78-3.78 3.78H6.21c-2.07 0-3.78-1.71-3.78-3.78s1.71-3.78 3.78-3.78h9.54"/>
        <g transform="translate(31.5 8.55)">
            <mask id="prefix__b" fill="#fff">
                <use xlink:href="#prefix__a"/>
            </mask>
            <path fill="#FFF" d="M126.54 19.26c.09 3.87 2.61 8.55 8.73 8.55 4.95 0 8.01-2.79 8.01-7.38 0-4.14-2.79-6.39-5.4-7.11l-4.68-1.26c-2.25-.63-3.51-2.25-3.51-4.59 0-2.79 1.98-4.68 5.04-4.68 2.88 0 4.86 1.62 5.49 4.77h2.7c-.54-3.69-2.88-7.38-8.19-7.38-4.59 0-7.74 2.97-7.74 7.29 0 3.6 1.98 6.39 5.31 7.29l4.5 1.26c2.34.63 3.69 2.25 3.69 4.5 0 3.06-1.89 4.68-5.31 4.68s-5.76-2.25-6.03-5.85l-2.61-.09zm-39.78 0c.09 3.87 2.61 8.55 8.73 8.55 4.95 0 8.01-2.79 8.01-7.38 0-4.14-2.79-6.39-5.4-7.11l-4.68-1.26c-2.25-.63-3.51-2.25-3.51-4.59 0-2.79 1.98-4.68 5.04-4.68 2.88 0 4.86 1.62 5.49 4.77h2.7c-.54-3.69-2.88-7.38-8.19-7.38-4.59 0-7.74 2.97-7.74 7.29 0 3.6 1.98 6.39 5.31 7.29l4.5 1.26c2.34.63 3.69 2.25 3.69 4.5 0 3.06-1.89 4.68-5.31 4.68s-5.76-2.25-6.03-5.85l-2.61-.09zM9.45 15.84h6.48V18c0 5.31-3.33 7.11-6.48 7.11-3.15 0-6.48-1.89-6.48-7.11V9.99c0-5.31 3.33-7.11 6.48-7.11 3.42 0 5.76 2.07 6.3 5.49h2.7c-.63-4.95-4.14-8.19-9-8.19C3.96.18.27 4.14.27 9.99v8.1c0 5.85 3.69 9.81 9.18 9.81s9.18-3.96 9.18-9.81v-4.77H9.45v2.52zm53.28 11.52V.45h-2.7v21.96L46.71.45h-2.7v26.91h2.7V5.4l13.32 21.96h2.7zm53.55 0V16.2L125.37.45h-2.97l-7.38 12.87L107.55.45h-3.06l9.09 15.75v11.16h2.7zm-32.85 0v-2.7H71.01v-9.63h11.16v-2.61H71.01V3.15h12.42V.45H68.31v26.91h15.12zm-44.64 0v-2.7H26.37v-9.63h11.16v-2.61H26.37V3.15h12.42V.45H23.67v26.91h15.12zM146.97 3.15l-.72-2.34v2.34h-.45V.45h.63l.72 2.25.72-2.25h.63v2.7h-.36V.81l-.72 2.34h-.45zM144.09.81h-.9V.45h2.16v.36h-.9v2.34h-.36V.81z" mask="url(#prefix__b)"/>
        </g>
    </g>
</svg>
