<svg xmlns="http://www.w3.org/2000/svg" xmlns:xlink="http://www.w3.org/1999/xlink" width="130" height="32" viewBox="0 0 130 32">
    <defs>
        <path id="a" d="M0 31.605h129.627V.064H0z"/>
    </defs>
    <g fill="none" fill-rule="evenodd">
        <path fill="#1A1919" d="M16.395 4l-3.86 12.526h-.066L8.6 4H0v21h5.5V9.056h.061L10.274 25h4.459l4.71-15.944h.064V25H25V4z"/>
        <g>
            <path fill="#1A1919" d="M34.914 21.151c-2.83 0-3.683-2.742-3.683-5.065 0-2.328.852-5.11 3.683-5.11 2.819 0 3.712 2.782 3.712 5.11 0 2.323-.893 5.065-3.712 5.065m0-14.747c-5.759 0-9.762 4.19-9.762 9.682 0 5.484 4.003 9.64 9.762 9.64 5.753 0 9.792-4.156 9.792-9.64 0-5.492-4.039-9.682-9.792-9.682"/>
            <mask id="b" fill="#fff">
                <use xlink:href="#a"/>
            </mask>
            <path fill="#1A1919" d="M62.114 4.641h6.072V.064h-6.072zM56.461 6.931l-3.432 12.075h-.07l-3.4-12.075h-6.325L49.42 25.2h7.004l5.69-16.702V25.2h6.073V6.93z" mask="url(#b)"/>
            <path fill="#DC3B41" d="M79.205 19.854c-2.51 0-3.507-2.152-3.507-4.303 0-2.246.858-4.575 3.537-4.575 2.724 0 3.65 2.29 3.65 4.614 0 2.286-1.109 4.264-3.68 4.264zM82.811 9.22h-.07c-1.072-1.87-2.752-2.816-4.967-2.816-5.257 0-8.157 4.082-8.157 8.94 0 5.144 2.54 9.08 8.157 9.08 1.962 0 3.82-.982 4.931-2.676h.07v1.723c0 2.254-.284 4.261-3.18 4.261-.93 0-1.684-.105-2.215-.387-.574-.28-.894-.772-1.037-1.582h-6.078c.713 4.884 4.791 5.842 9.116 5.842 8.688 0 9.26-5.629 9.26-8.622V6.931h-5.83V9.22zM119.033 20.986c-3.615 0-5-3.141-5-6.282 0-3.142 1.385-6.283 5-6.283 3.607 0 4.988 3.14 4.988 6.283 0 3.14-1.381 6.282-4.988 6.282m-19.42.165c-2.82 0-3.682-2.742-3.682-5.066 0-2.327.861-5.109 3.683-5.109 2.824 0 3.72 2.782 3.72 5.11 0 2.323-.896 5.065-3.72 5.065m19.42-17.47c-5.823 0-9.455 3.611-10.368 8.525-1.421-3.471-4.755-5.802-9.052-5.802-5.755 0-9.761 4.19-9.761 9.681 0 5.485 4.006 9.64 9.76 9.64 4.777 0 8.359-2.857 9.449-6.966 1.334 4.099 4.78 6.966 9.971 6.966 6.774 0 10.594-4.89 10.594-11.02 0-6.136-3.82-11.024-10.594-11.024" mask="url(#b)"/>
        </g>
    </g>
</svg>
