<svg xmlns="http://www.w3.org/2000/svg" xmlns:xlink="http://www.w3.org/1999/xlink" width="123" height="66" viewBox="0 0 123 66">
    <defs>
        <path id="prefix__a" d="M0 0.183L23.29 0.183 23.29 34.509 0 34.509z"/>
        <path id="prefix__c" d="M0.184 0.169L98.917 0.169 98.917 54.927 0.184 54.927z"/>
        <path id="prefix__e" d="M0 65.88L122.409 65.88 122.409 1.08 0 1.08z"/>
    </defs>
    <g fill="none" fill-rule="evenodd">
        <g transform="translate(0 30.24)">
            <mask id="prefix__b" fill="#fff">
                <use xlink:href="#prefix__a"/>
            </mask>
            <path fill="#FEFEFE" d="M6.483 6.12h15.186c.29-2.071.838-4.062 1.621-5.937H0V34.51h6.483V20.456h14.063v-5.939H6.483V6.12z" mask="url(#prefix__b)"/>
        </g>
        <g transform="translate(23.417)">
            <mask id="prefix__d" fill="#fff">
                <use xlink:href="#prefix__c"/>
            </mask>
            <path fill="#FEFEFE" d="M6.477 36.148c1.558-7.283 7.898-12.74 15.487-12.74 2.006 0 3.915.396 5.68 1.088C28.864 14.35 37.317 6.49 47.572 6.49c10.269 0 18.733 7.88 19.934 18.046 2.18-.949 4.578-1.474 7.093-1.474 10.015 0 18.139 8.304 18.139 18.542 0 5.46-1.883 9.522-4.774 13.324h7.021c2.662-4.1 3.932-8.575 3.932-13.324 0-13.709-10.908-24.862-24.318-24.862-.914 0-1.815.059-2.707.16C67.977 7.096 58.552.169 47.572.169 36.51.17 27.026 7.203 23.163 17.124c-.397-.022-.794-.034-1.199-.034-10.998 0-20.138 8.277-21.78 19.058h6.293z" mask="url(#prefix__d)"/>
        </g>
        <mask id="prefix__f" fill="#fff">
            <use xlink:href="#prefix__e"/>
        </mask>
        <path fill="#FEFEFE" d="M24.482 65.88L30.868 65.88 30.868 38.88 24.482 38.88zM32.997 38.88L39.65 38.88 45.841 56.786 45.979 56.786 51.799 38.88 58.543 38.88 48.15 65.88 43.344 65.88zM97.95 35.117c-3.697 0-5.66 3.308-5.66 6.049 0 3.545 2.33 6.147 5.66 6.147 3.653 0 5.612-3.313 5.612-5.91 0-3.451-2.416-6.286-5.612-6.286zM90.371 64.8l7.487-11.818c-.5.141-1.05.141-1.643.141-4.792-.045-9.997-4.395-9.997-11.389 0-7.42 5.522-12.574 11.686-12.574 6.07 0 11.732 4.868 11.732 12.527 0 1.276-.23 2.786-.776 4.348-.55 1.417-1.186 2.741-1.965 3.923L97.494 64.8H90.37zM72.008 43.558c3.035 0 6.207 1.934 6.897 6.135H64.792c1.152-4.862 4.965-6.135 7.216-6.135zm5.477 13.875c-1.19 1.744-3.056 2.689-5.477 2.689-4.366 0-6.754-3.681-7.032-5.38h19.812c.184-.85.366-1.934.366-3.16 0-6.608-5.101-13.782-13.192-13.782-7.858 0-13.419 6.796-13.419 14.205 0 7.645 5.88 13.875 13.465 13.875 5.694 0 10.382-3.988 12.082-8.447h-6.605zM107.507 61.916L106.605 61.916 106.605 64.8 106.282 64.8 106.282 61.916 105.378 61.916 105.378 61.56 107.507 61.56zM108.571 61.56L109.118 61.56 110.166 64.099 110.175 64.099 111.231 61.56 111.764 61.56 111.764 64.8 111.398 64.8 111.398 62.081 111.389 62.081 110.279 64.8 110.057 64.8 108.949 62.081 108.937 62.081 108.937 64.8 108.571 64.8z" mask="url(#prefix__f)"/>
    </g>
</svg>
