<svg xmlns="http://www.w3.org/2000/svg" xmlns:xlink="http://www.w3.org/1999/xlink" width="168" height="42" viewBox="0 0 168 42">
    <defs>
        <path id="prefix__a" d="M0 41.481L167.518 41.481 167.518 0.084 0 0.084z"/>
    </defs>
    <g fill="none" fill-rule="evenodd">
        <path fill="#1A1919" d="M20.986 6L16.046 22.701 15.96 22.701 11.009 6 0 6 0 34 7.04 34 7.04 12.742 7.118 12.742 13.151 34 18.858 34 24.887 12.742 24.969 12.742 24.969 34 32 34 32 6zM45.12 27.761c-3.659 0-4.76-3.6-4.76-6.649 0-3.055 1.101-6.706 4.76-6.706 3.642 0 4.797 3.651 4.797 6.706 0 3.05-1.155 6.65-4.797 6.65m0-19.356c-7.442 0-12.616 5.5-12.616 12.706 0 7.199 5.174 12.652 12.616 12.652 7.435 0 12.654-5.453 12.654-12.652 0-7.207-5.22-12.706-12.654-12.706"/>
        <mask id="prefix__b" fill="#fff">
            <use xlink:href="#prefix__a"/>
        </mask>
        <path fill="#1A1919" d="M80.27 6.092L88.117 6.092 88.117.084 80.27.084zM72.965 9.097L68.529 24.945 68.44 24.945 64.045 9.097 55.872 9.097 63.865 33.075 72.916 33.075 80.27 11.153 80.27 33.075 88.117 33.075 88.117 9.097z" mask="url(#prefix__b)"/>
        <path fill="#EA0029" d="M102.357 26.058c-3.243 0-4.532-2.824-4.532-5.647 0-2.949 1.108-6.005 4.57-6.005 3.521 0 4.718 3.006 4.718 6.055 0 3.001-1.433 5.597-4.756 5.597zm4.66-13.957h-.09c-1.386-2.454-3.556-3.696-6.42-3.696-6.793 0-10.54 5.357-10.54 11.734 0 6.752 3.283 11.917 10.54 11.917 2.536 0 4.937-1.289 6.373-3.512h.09v2.261c0 2.96-.366 5.594-4.109 5.594-1.202 0-2.176-.138-2.862-.509-.742-.368-1.156-1.013-1.34-2.077h-7.855c.92 6.412 6.192 7.669 11.78 7.669 11.228 0 11.967-7.388 11.967-11.317V9.097h-7.534v3.004zM153.827 27.544c-4.672 0-6.462-4.123-6.462-8.245 0-4.124 1.79-8.247 6.462-8.247 4.661 0 6.446 4.123 6.446 8.247 0 4.122-1.785 8.245-6.446 8.245m-25.096.217c-3.645 0-4.76-3.6-4.76-6.649 0-3.055 1.115-6.706 4.76-6.706 3.65 0 4.81 3.65 4.81 6.706 0 3.05-1.16 6.649-4.81 6.649m25.096-22.93c-7.523 0-12.217 4.74-13.397 11.189-1.837-4.555-6.145-7.615-11.699-7.615-7.436 0-12.613 5.5-12.613 12.707 0 7.198 5.177 12.652 12.613 12.652 6.174 0 10.802-3.75 12.21-9.143 1.724 5.38 6.177 9.143 12.886 9.143 8.754 0 13.69-6.418 13.69-14.465 0-8.052-4.936-14.468-13.69-14.468" mask="url(#prefix__b)"/>
    </g>
</svg>
