<?xml version="1.0" encoding="UTF-8"?>
<svg width="93px" height="94px" viewBox="0 0 93 94" version="1.1" xmlns="http://www.w3.org/2000/svg" xmlns:xlink="http://www.w3.org/1999/xlink">
    <!-- Generator: sketchtool 53.2 (72643) - https://sketchapp.com -->
    <title>E6707502-739F-4637-9287-A8101D51B0DB</title>
    <desc>Created with sketchtool.</desc>
    <defs>
        <polygon id="path-1" points="0 0.453 92.547 0.453 92.547 92.9998 0 92.9998"></polygon>
    </defs>
    <g id="Symbols" stroke="none" stroke-width="1" fill="none" fill-rule="evenodd">
        <g id="mail">
            <g id="Group-6">
                <g id="Group-3" transform="translate(0.000000, 0.547400)">
                    <mask id="mask-2" fill="white">
                        <use xlink:href="#path-1"></use>
                    </mask>
                    <g id="Clip-2"></g>
                    <path d="M92.5476,46.7268 C92.5476,21.1698 71.8296,0.4528 46.2736,0.4528 C20.7176,0.4528 -0.0004,21.1698 -0.0004,46.7268 C-0.0004,72.2828 20.7176,92.9998 46.2736,92.9998 C71.8296,92.9998 92.5476,72.2828 92.5476,46.7268" id="Fill-1" fill="#0096FF" mask="url(#mask-2)"></path>
                </g>
                <path d="M68.0339,61.0242 L67.4229,61.0242 L67.3639,61.0242 L57.2999,51.4612 L53.0209,47.5032 L67.6349,33.9802 L68.0339,33.9802 L68.0339,61.0242 Z M27.0879,61.0242 L36.3159,52.2562 L40.6579,48.2392 L46.0749,53.2502 C46.2819,53.4422 46.6009,53.4422 46.8079,53.2502 L52.2239,48.2402 L56.5609,52.2512 L65.7949,61.0242 L27.0879,61.0242 Z M24.8489,33.9802 L25.2479,33.9802 L39.8619,47.5032 L35.5769,51.4672 L25.5179,61.0242 L25.4599,61.0242 L24.8489,61.0242 L24.8489,33.9802 Z M41.0259,47.1072 C41.0259,47.1062 41.0259,47.1062 41.0249,47.1052 L26.8399,33.9802 L66.0429,33.9802 L51.8569,47.1052 C51.8569,47.1062 51.8559,47.1062 51.8559,47.1072 L46.4409,52.1172 L41.0259,47.1072 Z M68.5749,32.8992 L67.4229,32.8992 L25.4599,32.8992 L24.3079,32.8992 C24.0099,32.8992 23.7669,33.1402 23.7669,33.4392 L23.7669,61.5652 C23.7669,61.8642 24.0099,62.1052 24.3079,62.1052 L25.4599,62.1052 L25.7339,62.1052 L67.1479,62.1052 L67.4229,62.1052 L68.5749,62.1052 C68.8729,62.1052 69.1159,61.8642 69.1159,61.5652 L69.1159,33.4392 C69.1159,33.1402 68.8729,32.8992 68.5749,32.8992 L68.5749,32.8992 Z" id="Fill-4" fill="#FFFFFF"></path>
            </g>
        </g>
    </g>
</svg>