<svg xmlns="http://www.w3.org/2000/svg" width="35" height="25" viewBox="0 0 35 25">
    <g fill="#000" fill-rule="nonzero">
        <path d="M33.223 3.617H5.648c-1.273 0-2.546.035-3.81 0h-.053c-.928 0-1.812-.816-1.767-1.773C.062.887.795.071 1.785.071h27.576c1.273 0 2.546-.036 3.81 0h.052c.929 0 1.812.816 1.768 1.773-.044.966-.778 1.773-1.768 1.773zM33.223 14.424H12.26c-.928 0-1.812-.816-1.768-1.773.044-.958.778-1.773 1.768-1.773h20.964c.929 0 1.812.815 1.768 1.773-.044.957-.778 1.773-1.768 1.773zM33.223 24.938H22.742c-.929 0-1.813-.816-1.769-1.773.045-.958.778-1.773 1.768-1.773h10.482c.929 0 1.812.815 1.768 1.773-.044.957-.778 1.773-1.768 1.773z"/>
    </g>
</svg>
