<svg xmlns="http://www.w3.org/2000/svg" width="329" height="80" viewBox="0 0 329 80">
    <g fill="#FFF" fill-rule="evenodd">
        <path d="M41.971 10l-9.88 32.209h-.171L22.018 10H0v54h14.08V23.002h.156L26.303 64h11.413l12.057-40.998h.164V64H64V10z"/>
        <path d="M88.36 53.54c-7.165 0-9.321-6.943-9.321-12.823 0-5.893 2.156-12.933 9.32-12.933 7.133 0 9.395 7.04 9.395 12.933 0 5.88-2.262 12.822-9.394 12.822m0-37.328c-14.575 0-24.706 10.606-24.706 24.506 0 13.882 10.131 24.4 24.706 24.4 14.56 0 24.78-10.518 24.78-24.4 0-13.9-10.22-24.506-24.78-24.506M157.196 11.749h15.366V.162h-15.366zM142.89 17.545l-8.686 30.564h-.176l-8.607-30.564h-16.005l15.652 46.242h17.725l14.403-42.277v42.277h15.366V17.545zM200.45 50.255c-6.352 0-8.876-5.447-8.876-10.89 0-5.687 2.17-11.582 8.95-11.582 6.895 0 9.24 5.798 9.24 11.678 0 5.787-2.808 10.794-9.314 10.794zm9.126-26.917h-.177c-2.715-4.733-6.965-7.127-12.572-7.127-13.303 0-20.643 10.33-20.643 22.629 0 13.021 6.43 22.982 20.643 22.982 4.965 0 9.668-2.485 12.48-6.773h.176v4.361c0 5.707-.717 10.788-8.046 10.788-2.355 0-4.261-.266-5.606-.981-1.454-.71-2.264-1.954-2.625-4.005h-15.382C179.628 77.576 189.95 80 200.894 80c21.988 0 23.435-14.249 23.435-21.825v-40.63h-14.753v5.792zM301.245 53.12c-9.15 0-12.655-7.951-12.655-15.9 0-7.955 3.506-15.905 12.655-15.905 9.128 0 12.624 7.95 12.624 15.905 0 7.949-3.496 15.9-12.624 15.9m-49.146.419c-7.14 0-9.321-6.942-9.321-12.823 0-5.892 2.181-12.933 9.321-12.933 7.149 0 9.418 7.04 9.418 12.933 0 5.88-2.27 12.823-9.418 12.823m49.146-44.221c-14.733 0-23.926 9.14-26.236 21.578-3.597-8.786-12.035-14.685-22.91-14.685-14.564 0-24.702 10.607-24.702 24.505 0 13.883 10.138 24.4 24.702 24.4 12.09 0 21.153-7.23 23.912-17.632 3.375 10.375 12.096 17.633 25.234 17.633 17.142 0 26.81-12.38 26.81-27.897 0-15.529-9.668-27.902-26.81-27.902"/>
    </g>
</svg>
