<svg xmlns="http://www.w3.org/2000/svg" xmlns:xlink="http://www.w3.org/1999/xlink" width="483" height="418" viewBox="0 0 483 418">
    <defs>
        <path id="prefix__a" d="M0 417.833L482.792 417.833 482.792 0 0 0z"/>
    </defs>
    <g fill="none" fill-rule="evenodd">
        <path fill="#F4A086" d="M133.972 270.109c-2.06 5.432-2.39 21.543-7.242 37.21-.194 1.02 4.728 2.61 5.332 1.87 7.782-17.111 19.555-36.325 21.883-47.448.776-3.711-3.02-11.888-7.585-8.816-4.156 2.798-10.677 12.675-12.388 17.184"/>
        <path fill="#37384F" d="M121.754 313.243c.477-1.513.968-3.055 1.889-4.346.9-1.264 1.969-2.49 3.434-3.002.01.817.36 2.059 1.109 2.389.59.26 4.06.169 4.544.598.324.288-1.061 5.566-.18 7.836 0 0 3.162 2.393 4.793 3.544.665.468 1.325.983 1.747 1.678.422.696.565 1.614.165 2.322-.038.068-.088.114-.131.172l-12.05-2.208-1.641-.646c-.131-.565-.203-1.151-.27-1.727l-.722-6.198c-1.357 1.925-2.423 4.054-3.163 6.29l-1.456-.572c.644-2.044 1.287-4.087 1.932-6.13"/>
        <path fill="#F4A086" d="M126.301 196.496c-.67 4.601.21 9.276 1.253 13.807 3.29 14.292 9.572 35.028 16.065 48.179.79 1.6 10.168 4.263 10.426 2.609 2.637-16.863-1.11-46.73-6.243-63.008-1.102-3.496-2.444-7.048-4.99-9.685-7.41-7.671-15.294-.27-16.51 8.098"/>
        <path fill="#F7B690" d="M111.56 273.89c-.25 5.805 4.498 21.203 4.814 37.602.138 1.03 5.31.993 5.65.099 2.012-18.689 7.15-40.629 5.866-51.92-.429-3.767-6.602-10.338-9.97-5.986-3.066 3.961-6.155 15.387-6.36 20.205"/>
        <path fill="#37384F" d="M113.745 318.003c-.11-1.583-.218-3.197.167-4.736.376-1.507.92-3.038 2.098-4.052.307.758 1.089 1.785 1.905 1.818.644.026 3.84-1.33 4.447-1.107.437.16 1.143 6.367 3.069 7.683 1.925 1.316 4.182 2.042 6.3 3.02.739.343 1.48.73 2.02 1.338.542.608.848 1.485.582 2.254-.026.074-.066.128-.098.193H120.22c-.33-.478-.611-.997-.883-1.508l-2.942-5.504c-.557 2.289-.771 4.66-.64 7.012h-1.565l-.446-6.411"/>
        <path fill="#222B56" d="M140.687 205.798c-3.682 4.564-14.783 8.29-17.924 6.335-17.178-10.694-16.973-8.67-18.28-13.87-1.015-4.03 1.16-8.105 3.255-11.694 1.87-3.202 21.088-6.194 29.73-3.946 1.753.456 4.457-.163 5.19 1.55 1.395 3.271 2.306 6.402 4.442 11.806 1.201 3.041-2.933 5.504-6.413 9.82"/>
        <path fill="#F7B690" d="M106.841 188.144c6.112-8.362 20.579-6.986 25.009 3.892 4.9 12.034-1.112 59.484-3.863 68.651-1.254 2.385-12.024 6.784-13.965 2.294-1.445-14.03-5.726-40.118-7.818-47.224-1.57-5.34-5.701-18.94.638-27.613"/>
        <path fill="#FF3453" d="M158.733 163.697c.36 1.123-6.796 2.21-7.78 1.332-9.13-8.132-20.715-19.367-26.568-30.1-1.006-1.847 3.452-8.245 3.184-10.33 9.831 2.846 27.957 29.08 31.164 39.098"/>
        <path fill="#12122A" d="M140.45 182.175c-2.13-.854-4.687 1.122-6.657 1.756-2.64.85-5.415 1.282-8.19 1.25-5.497-.063-11.291-1.83-16.306.422-4.795 2.153-7.442 7.54-7.962 12.771-.521 5.23.685 10.455 1.564 15.638.987 5.814 8.157 14.038 8.236 43.498h43.853c2.64-45.192-10.903-73.878-14.537-75.335"/>
        <path fill="#FF3453" d="M140.44 169.62c.945-6.385 3.351-12.647 2.878-19.084-.373-5.082-4.552-9.334-7.214-14.065-1.263-2.245-.546-5.997-2.063-7.877-3.132-3.882-7.673-4.514-12.419-6.046-12.992-4.196-16.358 15.236-15.82 19.515.536 4.279 3.22 10.289 3.991 14.532 1.976 10.864 1.91 19.668-2.055 29.975-.182.47 25.494 3.826 30.3 2.86 4.868-.98 5.491-2.796 3.821-7.101-1.608-4.148-2.076-8.282-1.42-12.709"/>
        <path fill="#F4A086" d="M151.874 158.72c-10.158-1.033-28.611 1.528-35.3 1.949.279 7.752 38.732 9.36 41.212 6.77 5.628-5.874-2.68-8.39-5.912-8.72"/>
        <path fill="#FF3453" d="M111.691 138.328l-.953 36.492c-.026.988-.08 2.058-.707 2.823-1.289 1.578-4.144 1.035-5.474-.51-5.74-6.659-8.125-33.056-6.344-37.847 1.463-3.935 4.307-7.839 8.224-9.61 5.458-2.47 5.365 4.398 5.254 8.653"/>
        <path fill="#F7B690" d="M146.892 157.207c-1.964-1.31-37.443 9.202-43.466 14.975-1.639 1.57.56 5.9 3.624 6.36 2.055.31 5.07-.23 6.794-.73 13.787-4.004 38.943-15.89 33.048-20.605"/>
        <path fill="#534741" d="M131.59 91.1c-.97-2.411-3.313-4.212-5.892-4.527-2.58-.316-5.29.866-6.811 2.971-.775 1.072-1.285 2.381-2.347 3.171-1.395 1.04-3.312.885-4.999 1.312-2.558.648-4.667 2.826-5.23 5.406-1.14 5.228 3.66 10.35 2.663 15.605-.454 2.394-2.056 4.395-3.717 6.176-1.662 1.781-3.473 3.501-4.523 5.699-1.051 2.197-1.163 5.056.456 6.877 1.156 1.301 2.936 1.826 4.636 2.202 1.895.418 3.83.479 5.772.479 4.487 0 4.487-9.243 4.718-16.39.132-4.136 9.706-4.585 10.876-8.554.64-2.177-.088-4.517.13-6.776.215-2.202 1.347-3.757 2.749-5.366 1.048-1.203 1.754-3.044 1.96-4.601.165-1.239.028-2.522-.44-3.684"/>
        <path fill="#F4A086" d="M125.585 114.12c-.476 2.898-.293 5.903.53 8.722.256.873.552 1.886.029 2.63-.501.709-1.498.802-2.366.83-1.453.046-2.936.09-4.331-.325-1.393-.413-2.71-1.37-3.166-2.752-.38-1.138-.132-2.38.118-3.554l1.436-6.76c.14-.66.297-1.353.749-1.855.758-.841 2.135-.849 3.139-.325 1.005.523 1.724 1.453 2.41 2.354l1.452 1.036z"/>
        <path fill="#F7B690" d="M129.862 113.145c.726-1.456.908-3.113 1.072-4.731.227-2.226.44-4.485.057-6.69-.383-2.204-1.44-4.384-3.284-5.65-2.229-1.526-5.232-1.471-7.79-.606-2.223.75-4.36 2.194-5.234 4.37-.475 1.184-.543 2.485-.604 3.758-.08 1.654-.155 3.35.35 4.928.56 1.746 1.801 3.215 3.264 4.32 1.463 1.105 3.146 1.879 4.84 2.58.978.405 1.986.793 3.043.86 2.106.13 3.412-1.386 4.286-3.14"/>
        <path fill="#534741" d="M120.78 99.426c-.941 2.124-.576 4.8-2.057 6.59-1.202 1.455-3.524 1.824-5.118.813-1.215-.77-1.93-2.2-2.011-3.637-.081-1.436.42-2.865 1.219-4.062.798-1.198 1.879-2.182 3.03-3.045 1.77-1.33 3.766-2.415 5.932-2.874 1.374-.292 2.816-.317 4.189-.012 1.037.23 3.045.795 3.322 2.022.275 1.212-.792 1.434-1.654 1.196-1.311-.364-2.485-.467-3.79.057-1.35.541-2.471 1.624-3.061 2.952"/>
        <path fill="#F7B690" d="M115.617 105.547c-.411-.147-.841-.263-1.277-.246-.436.017-.881.183-1.16.518-.375.452-.378 1.112-.23 1.68.377 1.433 1.64 2.467 3.155 2.167 1.15-.228 1.594-1.265 1.382-2.368-.182-.943-1.031-1.45-1.87-1.751M113.844 156.074c-1.313 1.906 3.145 3.025 2.848 4.19-.258 1.011-6.574 1.164-8.075 1.55-.728.186-1.576.497-1.82 1.38-.232.836.226 1.728.756 2.311 1.304 1.435 3.123 1.947 4.854 1.85 1.731-.098 3.41-.745 5.065-1.386.874-.339 1.764-.688 2.513-1.348 1.53-1.348 1.867-4.234.294-5.765-1.609-1.565-4.537-2.01-6.435-2.782M158.308 161.129c-1.565-.935-3.802-1.878-4.815-1.995.963.954 2.984 3.374 2.428 4.258-.538.857-3.067-2.674-4.077-2.821-1.988-.287-4.184.76-6.052-.155-1.406-.69-2.373-2.67-1.23-3.903 5.104-5.515 13.101-.041 13.746 4.616"/>
        <path fill="#E6E6E6" d="M349.234 70.862L373.746 355.999 368.977 355.999 344.466 70.862zM201.48 230.986L192.18 356h4.768l9.3-125.013h-4.768zm117.724 0h-4.769L305.135 356h4.768l9.301-125.013z"/>
        <path fill="#4F4F4F" d="M179.03 274.925L335.116 274.925 351.972 48.348 195.886 48.348z"/>
        <path fill="#FFF" d="M330.703 270.157L346.85 53.115 200.3 53.115 184.152 270.157z"/>
        <path fill="#FDD247" d="M304.865 218.407h12.134c2.066 0 3.782-1.593 3.935-3.653l.905-12.156c.17-2.288-1.641-4.238-3.935-4.238h-12.135c-2.065 0-3.781 1.593-3.934 3.653l-.905 12.156c-.17 2.288 1.64 4.238 3.935 4.238"/>
        <path fill="#E6E6E6" d="M318.307 250.062H302.49l-.256 3.442h15.817l.256-3.442zm.48-6.458H286.41l-.256 3.443h32.378l.255-3.443zm.481-6.457H286.89l-.256 3.442h32.378l.256-3.442zm.48-6.458H287.37l-.255 3.443h32.378l.255-3.443zm-31.897-6.457l-.257 3.442h32.38l.255-3.442h-32.378z"/>
        <path fill="#6727E5" d="M261.67 218.407h12.134c2.065 0 3.78-1.593 3.934-3.653l.905-12.156c.17-2.288-1.64-4.238-3.935-4.238h-12.134c-2.065 0-3.782 1.593-3.935 3.653l-.905 12.156c-.17 2.288 1.64 4.238 3.936 4.238"/>
        <path fill="#E6E6E6" d="M275.112 250.062h-15.818l-.256 3.442h15.817l.257-3.442zm.479-6.458h-32.377l-.256 3.443h32.378l.255-3.443zm.481-6.457h-32.378l-.256 3.442h32.378l.256-3.442zm.48-6.458h-32.377l-.256 3.443h32.378l.255-3.443zm-31.897-6.457l-.256 3.442h32.378l.256-3.442h-32.378z"/>
        <path fill="#67BDD4" d="M218.473 218.407h12.135c2.065 0 3.781-1.593 3.934-3.653l.905-12.156c.17-2.288-1.64-4.238-3.935-4.238h-12.135c-2.065 0-3.78 1.593-3.934 3.653l-.905 12.156c-.169 2.288 1.641 4.238 3.935 4.238"/>
        <path fill="#E6E6E6" d="M231.916 250.062h-15.817l-.256 3.442h15.817l.256-3.442zm.48-6.458h-32.377l-.256 3.443h32.378l.255-3.443zm.48-6.457H200.5l-.256 3.442h32.378l.256-3.442zm.48-6.458H200.98l-.255 3.443h32.378l.255-3.443zm-31.896-6.457l-.257 3.442h32.379l.256-3.442H201.46zM317.919 87.55h-93.812l-.323 4.339h93.813l.322-4.34zm-105.111-8.344l-.323 4.339h117.653l.322-4.34H212.808zm24.138-4.005h69.972l.322-4.34h-69.971l-.323 4.34z"/>
        <path fill="#FDD247" d="M264.762 183.158L296.225 183.158 298.572 151.695 267.109 151.695z"/>
        <path fill="#DB3931" d="M262.249 129.87c1.624-.233 3.102.154 4.249.958.882.618 2.172-.054 2.255-1.167l.703-9.43h31.464l-2.348 31.464h-9.427c-1.116 0-1.88 1.24-1.331 2.168.713 1.207.99 2.714.637 4.319-.598 2.726-3.017 4.898-5.777 5.202-3.748.412-6.68-2.487-6.408-6.122.09-1.24.545-2.393 1.249-3.357.692-.953.157-2.21-.98-2.21h-9.426l.703-9.427c.085-1.136-1.126-1.764-2.124-1.143-1.011.631-2.192.999-3.431.999-3.635 0-6.3-3.147-5.611-6.864.508-2.737 2.849-4.994 5.603-5.39"/>
        <path fill="#6727E5" d="M246.156 153.764c-.94 1.223-1.472 2.769-1.355 4.418.19 2.726 2.287 4.898 5 5.202 3.688.412 7.05-2.487 7.322-6.122.096-1.285-.21-2.476-.81-3.461-.545-.895.162-2.106 1.246-2.106h9.55l-.684 9.184c-.077 1.02.97 1.66 1.899 1.162 1.157-.62 2.5-.905 3.886-.718 2.727.367 4.768 2.627 4.873 5.389.14 3.722-2.995 6.875-6.633 6.875-1.08 0-2.073-.28-2.918-.768-.86-.5-2.008.13-2.085 1.156l-.685 9.183H233.3l2.346-31.463h9.549c1.063 0 1.633 1.195.96 2.069"/>
        <path fill="#BADC00" d="M218.74 105.34h31.465l-.704 9.429c-.083 1.114-1.373 1.786-2.254 1.168-1.148-.804-2.626-1.192-4.25-.96-2.755.397-5.095 2.655-5.603 5.392-.688 3.717 1.977 6.863 5.61 6.863 1.24 0 2.42-.367 3.433-.998.997-.623 2.208.007 2.123 1.143l-.703 9.426h-11.042c-.58 0-.921.708-.53 1.107 1.287 1.313 1.916 3.26 1.45 5.38-.598 2.726-3.017 4.899-5.777 5.202-3.748.412-6.68-2.487-6.407-6.122.13-1.76.987-3.342 2.253-4.463.448-.395.193-1.104-.382-1.104h-11.028l2.347-31.463z"/>
        <path fill="#6B6B6B" d="M192.374 292.986L171.441 292.986 160.976 269.257 181.907 269.257z"/>
        <path fill="#4F4F4F" d="M190.021 292.986L169.088 292.986 158.622 269.257 179.554 269.257z"/>
        <path fill="#6B6B6B" d="M194.191 289.89h-40.436c-.784 0-1.419.636-1.419 1.42v.257c0 .784.635 1.42 1.418 1.42h40.437c.784 0 1.42-.637 1.42-1.42v-.257c0-.784-.636-1.42-1.42-1.42M132.375 277.313c-3.868 0-6.57-3.146-6.023-7.015l9.087-64.279c.547-3.869 4.139-7.016 8.007-7.016h82.658c3.869 0 6.57 3.147 6.023 7.015l-9.087 64.28c-.547 3.87-4.14 7.015-8.007 7.015h-82.658z"/>
        <path fill="#4F4F4F" d="M128.55 277.313c-3.868 0-6.57-3.146-6.023-7.015l9.086-64.279c.548-3.869 4.14-7.016 8.008-7.016h82.659c3.868 0 6.57 3.147 6.023 7.015l-9.089 64.28c-.547 3.87-4.138 7.015-8.006 7.015H128.55z"/>
        <path fill="#F7F6F0" d="M129.28 272.147c-2.243 0-3.805-1.82-3.488-4.062l8.462-59.852c.317-2.244 2.393-4.063 4.637-4.063h82.658c2.244 0 3.805 1.819 3.488 4.063l-8.461 59.852c-.317 2.243-2.394 4.062-4.638 4.062H129.28z"/>
        <path fill="#BCCACE" d="M219.703 218.404H136.81c-.831 0-1.407-.674-1.288-1.505l.55-3.818c.119-.83.89-1.505 1.72-1.505h82.892c.83 0 1.408.674 1.289 1.505l-.55 3.818c-.12.831-.89 1.505-1.721 1.505M142.056 258.767H131.1c-.884 0-1.498-.716-1.37-1.601l4.936-34.315c.127-.885.948-1.602 1.832-1.602h10.956c.885 0 1.498.718 1.372 1.602l-4.938 34.315c-.127.885-.947 1.601-1.832 1.601M215.138 247.862H186.01c-.885 0-1.499-.717-1.37-1.6l3.367-23.412c.127-.884.947-1.6 1.832-1.6h29.13c.884 0 1.497.716 1.37 1.6l-3.368 23.411c-.128.884-.947 1.601-1.832 1.601M216.164 251.863c.137-.949-.421-1.718-1.245-1.718h-29.347c-.824 0-1.603.77-1.74 1.718l-1.853 12.877h32.332l1.853-12.877zM181.773 239.837c.137-.949-.42-1.718-1.245-1.718h-11.174c-.824 0-1.603.77-1.74 1.718l-3.583 24.903h14.16l3.582-24.903zM143.067 262.877c.136-.949-.422-1.718-1.246-1.718h-11.174c-.824 0-1.602.77-1.739 1.718l-.269 1.863h14.159l.269-1.863zM161.382 245.681h-10.956c-.884 0-1.497-.717-1.37-1.602l3.054-21.228c.126-.885.947-1.602 1.832-1.602H164.9c.882 0 1.498.718 1.37 1.602l-3.055 21.228c-.127.885-.946 1.602-1.832 1.602M170.289 221.249l-1.866 12.97c-.137.95.42 1.719 1.245 1.719h11.174c.824 0 1.603-.77 1.739-1.718l1.867-12.971h-14.16zM162.928 249.58c.136-.949-.422-1.718-1.246-1.718h-11.174c-.824 0-1.602.77-1.739 1.719l-2.182 15.16h14.16l2.181-15.16z"/>
        <path fill="#CC346F" d="M141.961 230.994L135.39 230.994 136.479 223.43 143.05 223.43z"/>
        <path fill="#F7F6F0" d="M133.484 244.237h5.185l.187-1.299h-5.185l-.187 1.3zm.351-2.437h10.613l.186-1.298h-10.612l-.187 1.298zm.35-2.436h10.613l.187-1.299h-10.612l-.188 1.3zm.351-2.437h10.613l.187-1.298h-10.613l-.187 1.298zm.538-3.735l-.188 1.3H145.5l.186-1.3h-10.612z"/>
        <path fill="#FDD247" d="M159.404 230.994L152.833 230.994 153.922 223.43 160.493 223.43z"/>
        <path fill="#F7F6F0" d="M150.927 244.237h5.185l.186-1.299h-5.184l-.187 1.3zm.351-2.437h10.613l.186-1.298h-10.613l-.186 1.298zm.35-2.436h10.613l.187-1.299h-10.613l-.187 1.3zm.351-2.437h10.613l.187-1.298h-10.614l-.186 1.298zm.537-3.735l-.187 1.3h10.614l.186-1.3h-10.613z"/>
        <path fill="#70A0FE" d="M174.925 247.865L168.354 247.865 169.442 240.301 176.013 240.301z"/>
        <path fill="#F7F6F0" d="M166.448 261.107h5.186l.186-1.299h-5.185l-.187 1.3zm.35-2.437h10.614l.186-1.298h-10.612l-.187 1.298zm.35-2.436h10.614l.188-1.298h-10.613l-.188 1.298zm.352-2.436h10.613l.188-1.299h-10.614l-.187 1.3zm.538-3.736l-.188 1.3h10.614l.186-1.3h-10.612zM171.126 228.602h4.929l.186-1.299h-4.928l-.187 1.3zm.35-2.437h10.613l.187-1.298h-10.613l-.186 1.298zm.538-3.735l-.187 1.3h10.612l.188-1.3h-10.613z"/>
        <path fill="#70A0FE" d="M216.758 230.994L188.815 230.994 189.905 223.43 217.846 223.43z"/>
        <path fill="#F7F6F0" d="M187.962 236.928h16.574l.188-1.3h-16.575l-.187 1.3zm.537-3.735l-.186 1.298h27.943l.186-1.298h-27.943z"/>
        <path fill="#818BEA" d="M155.56 257.709L148.989 257.709 150.078 250.145 156.648 250.145z"/>
        <path fill="#F7F6F0" d="M148.135 263.643h6.823l.188-1.299h-6.824l-.187 1.299zm.537-3.735l-.186 1.298H159.1l.186-1.298h-10.613z"/>
        <path fill="#66BCD5" d="M138.636 254.103L132.065 254.103 133.153 246.539 139.724 246.539z"/>
        <path fill="#F7F6F0" d="M131.749 256.302L131.562 257.601 142.175 257.601 142.361 256.302z"/>
        <path fill="#E6E6E6" d="M29.876 258.362l.005.055c.214-.033.43-.055.653-.055 2.249 0 4.129 1.71 4.342 3.949l7.393 77.694c.149 1.597 1.47 2.802 3.076 2.802H92.1c2.409 0 4.362 1.952 4.362 4.362 0 2.409-1.953 4.36-4.362 4.36H45.345c-3.572 0-6.792-1.6-8.968-4.138-2.571.19-12.532 1.044-12.532 1.044l-10.208-3.248-9.275-86.825h25.514z"/>
        <path fill="gray" d="M19.172 342.807c-1.604 0-2.927-1.206-3.076-2.803L8.703 262.31c-.212-2.238-2.092-3.949-4.341-3.949-2.572 0-4.585 2.216-4.341 4.776l7.389 77.68c.569 6.072 5.665 10.714 11.762 10.714H65.93c2.407 0 4.36-1.954 4.36-4.363 0-2.409-1.953-4.361-4.36-4.361H19.172z"/>
        <mask id="prefix__b" fill="#fff">
            <use xlink:href="#prefix__a"/>
        </mask>
        <path fill="#E6E6E6" d="M45.636 417.458L52.729 417.458 52.729 351.53 45.636 351.53z" mask="url(#prefix__b)"/>
        <path fill="#4B4B6D" d="M23.905 417.458c0-3.917 3.176-7.093 7.093-7.093h36.37c3.917 0 7.093 3.176 7.093 7.093H23.905zM52.42 358.314h-6.475c-2.21 0-4.268-1.124-5.464-2.983l-2.444-3.801h22.292l-2.444 3.8c-1.195 1.86-3.254 2.984-5.465 2.984" mask="url(#prefix__b)"/>
        <path fill="#F4A086" d="M110.966 287.203c-3.43-1.616-23.084-4.362-26.558-5.876-4.788-2.086-8.416-7.71-10.767-12.373-1.3-2.578-2.336-5.274-3.37-7.971l-14.69 7.761c1.988 3.406 4.203 6.681 6.636 9.784 3.734 4.762 8.061 9.203 13.4 12.054 5.563 2.973 28.588 3.333 34.82 2.35 5.02-1.042 3.957-4.113.529-5.729" mask="url(#prefix__b)"/>
        <path fill="#E2B639" d="M59.903 245.037c-3.878-2.1-11.836-1.655-12.221 3.933-.225 3.287 1.662 6.879 2.913 9.833 1.396 3.298 2.996 6.51 4.787 9.61.065.111.134.22.2.332l16.185-6.75c-3.556-4.48-6.888-14.263-11.864-16.958" mask="url(#prefix__b)"/>
        <path fill="#F4A086" d="M125.088 285.973c1.283 1.222 2.253 2.872 2.29 4.644.04 1.77-1.405 5.32-2.722 4.135-1.087-.98-1.36-2.62-2.822-2.575-1.463.044-2.774.852-4.135 1.393-4.014 1.595-16.175-.57-11.002-6.927 3.963-4.87 14.064-4.791 18.39-.67M151.972 406.354c.83 1.246 1.94 2.637 3.434 2.602 2.578-.061 2.766-3.741 2.12-6.218l-2.09-8.018-8.098 2.367c.883 3.36 3.065 6.91 4.634 9.267" mask="url(#prefix__b)"/>
        <path fill="#4763D5" d="M131.551 328.97c-6.516-7.198-47.252-16.146-66.41-22.006-14.306-4.377-29.028-6.838-31.206 12.484-.94 8.335 3.303 16.897 10.442 21.28 7.778 4.777 17.554 4.33 26.66 3.727l45.37-3.004c1.661 22.72 20.97 30.855 29.615 56.02l12.987-2.647c-7.874-11.85-24.22-61.706-27.458-65.854" mask="url(#prefix__b)"/>
        <path fill="#F7B690" d="M62.944 394.618c-.664 1.342-1.314 2.998-.537 4.274 1.342 2.203 4.622.526 6.445-1.272l5.899-5.818-7.948-4.748c-1.31 2.508-2.603 5.026-3.859 7.564" mask="url(#prefix__b)"/>
        <path fill="#4763D5" d="M30.691 340.729c7.777 4.776 17.554 4.329 26.66 3.726l53.935-3.571c2.87-.19 6.091-.555 7.881-2.806 2.09-2.63 1.078-6.738-1.302-9.108s-5.728-3.433-8.94-4.416c-19.157-5.864-38.313-11.73-57.47-17.591-14.306-4.376-29.029-6.837-31.206 12.485-.94 8.334 3.302 16.897 10.442 21.28" mask="url(#prefix__b)"/>
        <path fill="#4763D5" d="M120.227 333.925c-3.96-12.262-28.664 11.94-32.977 18.455-7.4 11.177-14.222 22.759-20.447 34.674l9.644 7.894c6.325-12.743 18.94-23.5 29.26-33.677 3.39-3.345 6.85-6.785 8.92-11.128 2.071-4.343 6.306-14.031 5.6-16.218" mask="url(#prefix__b)"/>
        <path fill="#FFC73C" d="M31.074 259.52c.98 7.317 3.79 14.41 3.673 21.792-.12 7.39-3.342 14.682-8.728 19.744-3.32 3.12-7.878 6.663-6.688 11.06 1.068 3.957 6.015 5.129 10.088 5.59 8.879 1.01 19.009 1.634 25.542-4.464 3.999-3.735 5.73-9.257 7.003-14.58 2.255-9.428 3.577-19.08 3.94-28.766.31-8.25-.241-17.044-4.983-23.802-4.726-6.733-10.03-11.198-17.76-8.824-8.792 8.624-13.06 14.994-12.087 22.25" mask="url(#prefix__b)"/>
        <path fill="#37384F" d="M148.305 400.726c.504.884 2.828 1.296 3.786 1.334.757.03 4.224-1.548 4.973-1.29.54.185 2.551 7.422 5.05 8.957 2.496 1.534 5.265 2.38 7.921 3.522.927.397 1.866.85 2.613 1.558.747.708 1.271 1.73 1.11 2.627-.016.087-.053.15-.079.225h-16.337c-.474-.556-.902-1.161-1.318-1.757l-4.483-6.416c-.47 2.337-.878 5.077-1.33 8.173h-1.824c-.583-2.491-2.193-14.344-.082-16.933M56.761 402.724c.556-1.764 1.128-3.561 2.201-5.067 1.052-1.474 2.297-2.902 4.005-3.5.011.953.42 2.4 1.292 2.785.69.303 4.734.197 5.297.697.38.335-1.236 6.488-.209 9.135 0 0 3.685 2.79 5.587 4.132.775.546 1.545 1.145 2.037 1.957.492.81.66 1.88.192 2.705-.045.08-.1.135-.153.202l-14.046-2.575-1.914-.752c-.153-.66-.237-1.344-.315-2.013l-.84-7.226c-1.584 2.245-2.827 4.726-3.689 7.332l-1.697-.666 2.252-7.147" mask="url(#prefix__b)"/>
        <path fill="#F7B690" d="M101.611 286.33c-3.429-1.615-23.083-3.488-26.558-5.002-4.787-2.087-8.415-7.71-10.767-12.373-1.3-2.578-2.335-5.274-3.37-7.972l-14.689 7.762c1.988 3.406 4.203 6.68 6.637 9.784 3.734 4.762 8.06 9.202 13.398 12.053 5.565 2.974 28.589 2.46 34.821 1.478 5.021-1.043 3.957-4.113.528-5.73" mask="url(#prefix__b)"/>
        <path fill="#FDD247" d="M58.265 254.496c-1.733-3.762-4.074-7.487-7.716-9.459-3.878-2.1-11.836-1.655-12.22 3.933-.227 3.287 1.662 6.879 2.912 9.833 1.396 3.298 2.996 6.51 4.788 9.61.064.111.133.22.198.332l16.185-6.75c-.836-2.183-3.17-5.377-4.147-7.499" mask="url(#prefix__b)"/>
        <path fill="#F7B690" d="M115.668 279.523c1.622.714 3.094 1.938 3.73 3.591.637 1.654.482 5.483-1.16 4.814-1.354-.553-2.166-2.003-3.527-1.466-1.361.538-2.321 1.743-3.417 2.713-3.236 2.862-15.411 4.951-12.7-2.786 2.078-5.925 11.606-9.276 17.074-6.866" mask="url(#prefix__b)"/>
        <path fill="#F4A086" d="M44.66 220.433c.685-1.29 8.188 2.579 8.634 3.505.446.927.919 11.41 2.523 17.953.346 1.413-13.65-2.911-12.656-4.621 1.61-2.774 3.258-13.346 1.499-16.838" mask="url(#prefix__b)"/>
        <path fill="#F7B690" d="M66.29 210.984c-2.591-10.753-17.301-8.485-20.794-7.413-3.494 1.073-3.583 6.015-3.92 9.653-.208 2.245.606 4.479 1.942 6.262 1.284 1.714 6.879 4.295 7.196 4.363 2.076 3.579 5.45 7.672 8.884 7.62 1.546-.022 2.948-1.013 3.857-2.264.908-1.252 1.405-2.747 1.89-4.216 1.502-4.56 2.07-9.338.946-14.005" mask="url(#prefix__b)"/>
        <path fill="#42210B" d="M40.83 217.233c-1.28-1.547-2.28-3.386-2.532-5.379-.298-2.358.485-4.767 1.812-6.739 2.369-3.52 8.489-8.066 13.432-8.166 5.28-.107 14.35 5.152 13.49 11.686-.258 1.955-1.331 1.97-3.201 2.594-2.465.822-5.771 1.391-7.815 2.995-2.445 1.918-1.358 6.544-6.361 8.048-1.617.485-3.28 3.342-4.353 5.563-1.278-1.45-3.232-9.106-4.471-10.602" mask="url(#prefix__b)"/>
        <path fill="#42210B" d="M33.413 230.703c-.472 2.014.239 4.115.125 6.181-.265 4.803-4.755 8.275-6.254 12.844-.577 1.758-.674 3.751.144 5.412.816 1.661 2.688 2.863 4.51 2.535 2.01-.365 3.31-2.325 4.065-4.223.754-1.898 1.252-3.99 2.66-5.469 2.173-2.284 5.938-2.493 8.03-4.85 2.018-2.274 3.522-8.585 3.522-13.243 0-8.98-2.88-17.173-7.19-15.881-2.57.77-3.312 5.452-3.996 7.51-1.161 3.493-4.787 5.636-5.616 9.184" mask="url(#prefix__b)"/>
        <path fill="#F7B690" d="M47.483 218.057c-.263.244-.397.595-.479.944-.256 1.094-.053 2.288.551 3.236.604.947 1.602 1.636 2.701 1.865.437.09.918.104 1.298-.128 1.31-.798.646-3.577.016-4.654-.653-1.118-2.972-2.3-4.087-1.263" mask="url(#prefix__b)"/>
        <path fill="#A2D1EB" d="M127.82 286.65l-28.655 2.292c-1.053.083-1.864.962-1.864 2.019 0 1.118.907 2.025 2.026 2.025h28.655c1.118 0 2.026-.907 2.026-2.025v-2.292c0-1.183-1.009-2.114-2.188-2.02" mask="url(#prefix__b)"/>
        <path fill="#D0D9DF" d="M111.814 417.833L108.557 417.532 119.462 299.59 122.719 299.892zM236.923 417.833L226.018 299.892 229.274 299.59 240.179 417.532z" mask="url(#prefix__b)"/>
        <path fill="#999" d="M256.814 299.74H91.922c-1.865 0-3.377-1.511-3.377-3.376 0-1.866 1.512-3.377 3.377-3.377h164.892c1.865 0 3.378 1.51 3.378 3.377 0 1.865-1.513 3.377-3.378 3.377" mask="url(#prefix__b)"/>
        <path fill="#4763D5" d="M368.755 307.914c-1.383 2.915-3.267 6.202-6 7.018-1.895.565-7.22-3.019-8.286-4.458-1.065-1.439 2.238-70.823 4.625-75.047 3.2-5.666 28.454 2.16 27.584 11.99-1.111 12.566-4.692 25.936-8.94 38.397-2.55 7.478-5.551 14.872-8.983 22.1" mask="url(#prefix__b)"/>
        <path fill="#F4A086" d="M413.96 372.324c-2.721.409-5.602.179-8.351-.667l-.435-9.77c-.02-.411-.032-.842.152-1.19.27-.512.893-.71 1.479-.815 2.217-.398 5.637-.522 6 2.303.434 3.377.768 6.76 1.156 10.139M354.29 372.324c-2.816.409-5.644.179-8.2-.667.604-3.257 1.208-6.513 1.81-9.77.077-.411.16-.842.426-1.19.389-.512 1.057-.71 1.666-.815 2.309-.398 5.758-.522 5.472 2.303-.342 3.377-.785 6.76-1.174 10.139" mask="url(#prefix__b)"/>
        <path fill="#4763D5" d="M355.21 299.927c3.606-5.765 12.297-9.717 15.949.284 5.57 15.253-12.095 43.783-14.724 62.202h-9.46c-.262-1.782 6.235-59.288 8.236-62.486" mask="url(#prefix__b)"/>
        <path fill="#0A3C5F" d="M400.984 252.322c-2.303 1.814-5.348 2.092-8.204 2.092-23.513 0-37.118-7.647-33.866-18.447 3.34-11.095 24.382-9.304 35.373-5.73 2.369.772 5.821 1.518 7.439 3.73 2.346 3.207 4.854 13.947-.742 18.355" mask="url(#prefix__b)"/>
        <path fill="#512990" d="M331.397 195.484c-2.258.597-5.01.86-6.602-.85-.929-1-1.206-2.478-1.002-3.828.204-1.35.833-2.596 1.525-3.773 5.45-9.257 29.461-26.08 39.415-31.864 4.381-2.546 2.873 20.484 1.221 23.006-1.673 2.555-24.082 14.538-34.557 17.309" mask="url(#prefix__b)"/>
        <path fill="#4763D5" d="M409.175 307.598c-.498 2.915-4.262 6.518-6.748 7.334-1.723.566-8.136-3.019-9.639-4.458-1.502-1.439-18.336-59.649-17.232-63.873 1.48-5.667 6.266-9.336 11.486-10.181 7.586-1.228 15.781 1.411 18.816 10.997 7.322 23.136-1.754 40.422 3.317 60.181" mask="url(#prefix__b)"/>
        <path fill="#D5E5FD" d="M316.38 151.915c-.967-1.295-2.2-2.725-3.815-2.653-1.363.06-2.462 1.26-2.841 2.57-.115.397.877 5.004 2.202 10.038l8.28-3.306c-1.663-3.187-3.054-5.612-3.827-6.649" mask="url(#prefix__b)"/>
        <path fill="#512990" d="M320.206 158.565l-9.874 2.94c3.038 11.552 10.258 29.768 14.273 33.077 2.903 2.39 6.096 1.37 8.366-1.117 2.463-2.701-6.87-23.6-12.765-34.9" mask="url(#prefix__b)"/>
        <path fill="#4763D5" d="M389.801 299.927c1.647-5.754 10.02-10.302 16.045.284 9.704 17.045 7.436 42.52 7.971 62.202h-9.459c-.868-1.782-15.473-59.288-14.557-62.486" mask="url(#prefix__b)"/>
        <path fill="#512990" d="M356.366 164.456c-2.396 3.543-1.526 8.593-.93 12.69 1.278 8.766.907 70.666.786 72.047-.12 1.381.482 2.921 1.875 3.544.817.366 1.772.368 2.687.362 12.349-.08 31.9-.16 44.25-.24.819-.006 1.697-.026 2.368-.445 1.483-.925.97-2.934.438-4.471-3.563-10.288-5.322-37.37-2.09-47.742 3.208-10.293 7.147-23.007 5.37-33.768-4.357-5.321-13.267-17.669-30.934-17.669-12.392 0-21.671 12.512-23.82 15.692" mask="url(#prefix__b)"/>
        <path fill="#512990" d="M404.41 159.993c-1.686-.503-13.56.252-10.391 8.695 3.934 10.48 11.794 19.014 18.355 28.083 2.015 2.787 4.062 5.606 6.719 7.79 2.657 2.183 6.038 3.696 9.465 3.414 1.794-.148 4.443-.992 5.323-2.753.708-1.416-.172-3.746-.493-5.157-1.142-5.005-19.613-37.277-28.978-40.072" mask="url(#prefix__b)"/>
        <path fill="#18898D" d="M420.072 191.239c.018.068.026.138.026.209-.006-.07-.018-.14-.026-.21" mask="url(#prefix__b)"/>
        <path fill="#D5E5FD" d="M394.774 229.685c-.164 1.744 3.303 3.32 5.012 3.708.494.112 3.03-2.419 6.587-4.885l-5.429-5.552c-2.534 3.166-6.136 6.373-6.17 6.73" mask="url(#prefix__b)"/>
        <path fill="#9FB6BE" d="M370.124 211.798c2.24-11.873 4.53-23.712 7.209-34.463 2.534-10.167 8.632-17.33 16.317-24.007-6.347-4.956-17.417-5.426-22.858 1.05-6.714 7.987-4.58 22.475-4.28 32.053.24 7.6 2.439 25.38 3.612 25.367" mask="url(#prefix__b)"/>
        <path fill="#3C79A6" d="M434.03 202.67c-.448-1.611-2.097-2.56-3.67-3.131-2.638-.961-5.954-1.611-8.754-1.047-1.931.389-2.528 2.144-3.632 3.559-2.761 3.542-13.56 16.385-18.967 23.144l5.917 7.44c8.74-6.061 24.62-21.406 27.278-24.88 1.138-1.485 2.332-3.282 1.829-5.085" mask="url(#prefix__b)"/>
        <path fill="#C69C6D" d="M378.2 117.002c1.364-1.369 10.784-4.956 13.816 1.842 1.055 2.366 1.449 6.406.897 8.936-.733 3.358-3.954 14.281-1.671 15.848-2.3.55-4.841-.022-6.686-1.5-1.845-1.48-2.954-3.837-2.917-6.202.04-2.673 1.442-5.356.683-7.919-.458-1.547-1.635-2.759-2.771-3.905-.914-.922-2.454-1.938-2.69-3.252-.24-1.343.403-2.908 1.34-3.848" mask="url(#prefix__b)"/>
        <path fill="#C69C6D" d="M369.509 121.327c.155-1.131.518-2.298 1.364-3.065 1.356-1.228 3.51-1.033 5.163-.249.89.422 1.803 1.15 1.808 2.136.005.825-.63 1.499-1.248 2.046-1.428 1.262-3.476 3.134-5.358 3.637-2.322.621-1.916-3.17-1.73-4.505" mask="url(#prefix__b)"/>
        <path fill="#F4A086" d="M375.222 136.377c1.21-5.341 5.251-6.592 7.602-5.311 1.505 9.998 3.04 14.44 6.96 19.894-4.874 3.124-13.19 2.543-14.989 0-.072-.801-.199-11.822.427-14.583" mask="url(#prefix__b)"/>
        <path fill="#F7B690" d="M385.111 123.773c-2.265-5.426-9.692-6.742-13.878-2.078-3.832 4.27-4.285 15.524-2.863 18.31 2.487 4.871 11.406 2.73 13.307.177 2.786-3.738 5.338-11.846 3.434-16.409" mask="url(#prefix__b)"/>
        <path fill="#C69C6D" d="M370.164 122.77c-.16 1.255-.088 2.54-.372 3.772-.284 1.232-1.036 2.468-2.243 2.845.616-.975.614-2.222.386-3.353-.226-1.131-.656-2.217-.834-3.356-.387-2.485.527-5.136 2.363-6.855 1.837-1.718 4.543-2.454 6.996-1.903 1.353.305 2.673 1.03 3.378 2.224.705 1.194.628 2.894-.407 3.816-.842.752-2.154.87-3.22.624-.905-.21-1.184-.83-1.927-1.24-2.33-1.286-3.88 1.535-4.12 3.427" mask="url(#prefix__b)"/>
        <path fill="#F7B690" d="M388.875 133.788c-.254 1.323-1.046 2.536-2.155 3.3-3.176 2.187-4.388-2.378-3.14-4.636 1.487-2.692 5.987-2.264 5.295 1.336" mask="url(#prefix__b)"/>
        <path fill="#C69C6D" d="M377.405 119.803c.024 1.027 2.757 2.695 3.51 3.395.752.7 1.604 1.341 2.073 2.255.605 1.18.462 2.601.125 3.882-.338 1.281-.855 2.528-.962 3.848-.107 1.32.299 2.793 1.417 3.504-.486-1.225.036-2.634.82-3.693.785-1.059 1.822-1.916 2.57-3 1.44-2.079 1.647-4.948.523-7.213-.8-1.612-3-4.23-4.68-4.86-1.388-.522-5.45-.443-5.396 1.882" mask="url(#prefix__b)"/>
        <path fill="#000016" d="M328.045 377.108c-.121-1.354 1.163-2.475 2.485-2.79 1.322-.314 2.704-.075 4.063-.091 3.875-.045 7.64-2.37 9.418-5.813.244-.473.48-.996.945-1.257.618-.348 1.42-.09 1.969.362.549.45.935 1.064 1.436 1.567.899.9 2.18 1.398 3.449 1.38 1.063-.016 2.254-.828 3.274-.291.9.474 1.145 1.722 1.373 2.612.394 1.533.75 3.077 1.126 4.615.083.34.164.697.19 1.047h-7.385c-.343-.483-.623-1.891-.771-2.472-.024.597-.26 2.013-.64 2.472h-20.294c-.35-.375-.592-.832-.638-1.341M402.199 377.108c-.054-1.354.51-2.475 1.092-2.79.58-.314 1.488-2.584 2.69-5.904.55-1.518 3.616-1.943 5.148.672.497.848.958 1.398 1.515 1.38.467-.016.99-.828 1.44-.291.396.474.503 1.722.603 2.612.173 1.533.33 3.077.494 4.615.038.34.073.697.084 1.047h-12.787c-.152-.375-.26-.832-.28-1.341" mask="url(#prefix__b)"/>
        <path fill="#85B2C5" d="M370.378 252.279L369.378 252.26 370.013 218.375 371.014 218.394z" mask="url(#prefix__b)"/>
        <path fill="#F7B690" d="M392.287 234.642c-.308 1.576-.258 3.325.665 4.638.814 1.16 2.207 1.814 3.61 2.008 1.404.196 2.83-.017 4.22-.292.986-.195 2.025-.453 2.725-1.173.7-.72.86-2.053.066-2.668-.938-.728-2.48-.04-3.41-.782-.933-.744-.51-2.203-.557-3.397-.071-1.803-1.944-3.969-3.892-3.656-2.154.344-3.077 3.529-3.427 5.322M306.956 145.917c1.218-2.945 4.646-4.79 7.775-4.184.189-3.404-2.31-12.043.566-10.21 1.274.811 3.454 11.958 2.328 18.007-.372 2-1.023 4.076-2.558 5.41-5.122 4.447-9.864-4.786-8.111-9.023" mask="url(#prefix__b)"/>
        <path fill="#F4A086" d="M312.416 155.576c-.058 0-.116-.01-.173-.031-.933-.344-1.294-1.414-1.234-2.262.036-.514.184-.985.327-1.441.072-.231.144-.462.2-.696.352-1.492-.062-3.132-1.083-4.277-.078-.087-.158-.171-.238-.256-.232-.243-.471-.494-.657-.811-.347-.59-.378-1.26-.081-1.747.513-.845 1.648-.81 2.467-.522 2.177.763 3.94 2.703 4.494 4.942.067.268-.096.539-.365.605-.27.064-.54-.098-.605-.365-.475-1.92-1.99-3.584-3.856-4.24-.498-.175-1.1-.197-1.28.099-.118.194-.041.5.088.719.129.22.319.419.52.63.088.093.176.186.26.28 1.234 1.386 1.735 3.368 1.309 5.173-.061.258-.14.51-.22.764-.131.42-.255.817-.282 1.213-.035.49.157 1.097.582 1.254.26.095.39.383.296.642-.074.202-.266.327-.47.327" mask="url(#prefix__b)"/>
        <path fill="#85B2C5" d="M370.655 227.486c.385 8.73.46 17.385 4.003 25.373-1.958.073-4.371 1.108-6.028-.182-1.83-1.423-.568-4.98-.325-6.879.745-5.797 2.63-12.487 2.35-18.312" mask="url(#prefix__b)"/>
        <path fill="#F4A086" d="M449.157 394.69c-3.023.44-6.07.193-8.835-.718l1.77-10.512c.074-.442.158-.907.436-1.281.408-.551 1.123-.764 1.777-.877 2.477-.428 6.187-.562 5.93 2.479-.307 3.633-.722 7.274-1.078 10.909M463.35 380.765c-2.112 2.219-4.659 3.903-7.384 4.884-1.653-3.158-3.305-6.315-4.959-9.471-.209-.4-.424-.822-.43-1.291-.012-.692.422-1.303.868-1.796 1.69-1.872 4.527-4.269 6.163-1.687 1.953 3.087 3.826 6.245 5.742 9.361" mask="url(#prefix__b)"/>
        <path fill="#131327" d="M421.316 247.38c3.443-6.097 30.62 2.325 29.684 12.902-1.198 13.523-5.048 27.91-9.62 41.319-.195.569-.392 1.137-.59 1.706-2.454 6.99-2.255 14.66.7 21.455 6.375 14.662 10.387 34.58 17.091 46.19l-8.007 6.285c-1.407-1.334-31.718-52.584-33.273-59.446-1.174-5.19 1.278-65.563 4.015-70.41" mask="url(#prefix__b)"/>
        <path fill="#000016" d="M468.882 266.675c-.185 3.149-8.243 1.136-11.317 1.136-25.301 0-39.942-8.228-36.442-19.85 3.594-11.94 26.237-10.012 38.064-6.164 2.548.829 6.262 1.63 8.005 4.012 2.524 3.45 2.356 9.504 1.69 20.866" mask="url(#prefix__b)"/>
        <path fill="#F4A086" d="M431.786 183.713c-.822 11.63-3.104 23.544-9.646 33.195-1.411 2.08-3.458 4.238-5.958 3.975-1.46-.153-2.73-1.16-3.52-2.398-.787-1.24-1.157-2.695-1.427-4.14-2.12-11.363 1.349-22.944 4.804-33.975 1.423-4.544 3.313-12.587 7.939-15.037 4.818-2.552 7.244 5.33 7.685 8.545.447 3.255.354 6.566.123 9.835" mask="url(#prefix__b)"/>
        <path fill="#62C1C5" d="M432.34 167.19c-.221-1.925-.734-4.192-2.522-5.032-1.883-.885-3.905.407-5.371 1.722-8.882 7.97-12.25 19.217-13.86 31.288l21.302 1.315c1.42-9.612 1.582-19.484.452-29.294" mask="url(#prefix__b)"/>
        <path fill="#000016" d="M455.666 325.382c-1.205 3.136-2.91 6.673-5.772 7.55-1.985.61-8.064-3.247-9.351-4.796-1.287-1.548-6.066-64.186-3.911-68.732 2.89-6.097 8.882-10.046 14.692-10.955 8.444-1.321 17.704 1.256 17.728 11.833.028 13.523-2.52 27.91-5.875 41.319-2.015 8.047-4.525 16.003-7.511 23.78" mask="url(#prefix__b)"/>
        <path fill="#000016" d="M439.744 316.787c3.09-6.192 13.14-11.086 17.2.306 6.537 18.341-1.738 45.752-5.672 66.933h-10.18c-.524-1.918-3.066-63.798-1.348-67.239" mask="url(#prefix__b)"/>
        <path fill="#62C1C5" d="M423.892 212.599c-1.898-9.361-5.137-18.5-6.51-27.933-.643-4.409-1.579-9.843 1-13.656 2.312-3.421 12.296-16.886 25.631-16.886 19.011 0 27.03 7.743 29.708 16.914 1.912 11.581 1.252 27.361-2.199 38.436-3.317 10.646.211 21.979 3.254 45.482h-54.912c.203-13.329 5.927-32.996 4.028-42.357" mask="url(#prefix__b)"/>
        <path fill="#F4A086" d="M421.283 164.425c-1.468 0-12.601 43.238-8.372 50.075 2.128 3.44 5.735 3.508 8.909 1.76 4.416-2.434 6.273-51.835-.537-51.835" mask="url(#prefix__b)"/>
        <path fill="#F7B690" d="M480.356 199.567c-.695-10.494-4.516-20.76-10.85-29.156-1.139-1.51-2.77-3.119-4.62-2.72-1.01.218-1.813 1.025-2.276 1.948-.463.924-.636 1.961-.79 2.982-1.806 11.908-1.907 24.002-2.006 36.046-.03 3.7-.055 7.45.855 11.036.91 3.587 2.875 7.054 6.026 8.996 1.648 1.017 4.482 1.974 6.368 1.01 1.518-.776 2.241-3.357 2.861-4.785 2.204-5.066 3.632-10.468 4.23-15.96.338-3.118.41-6.267.202-9.397" mask="url(#prefix__b)"/>
        <path fill="#62C1C5" d="M462.596 166.799c.462-1.87 1.256-4.026 3.116-4.522 1.963-.524 4.985 1.758 6.256 3.342 7.708 9.6 10.78 21.262 10.823 33.564l-23.48-3.184c-.17-9.821.927-19.664 3.285-29.2" mask="url(#prefix__b)"/>
        <path fill="#F7B690" d="M427.48 213.268c-1.618.967-1.965 3.302-1.214 5.031.751 1.729 35.52 12.328 42.14 12.462 2.012.04 4.332-.067 5.576-1.651 1.111-1.415.885-3.449.381-5.176-.846-2.902-2.393-6.193-4.664-8.263-1.568-1.428-3.47-.829-5.4-.885-7.093-.209-35.784-2.137-36.819-1.518" mask="url(#prefix__b)"/>
        <path fill="#534741" d="M426.34 141.346c.825.919 1.56.485 1.287-.708-.877-3.818-1.129-4.394-.063-8.18.587-2.081.863-2.301-.136-2.774-3.31-1.566-7.91 4.052-1.087 11.662" mask="url(#prefix__b)"/>
        <path fill="#F4A086" d="M438.671 140.795c1.303-5.748 5.651-7.094 8.18-5.714 1.62 10.757 3.272 15.54 7.488 21.407-5.241 3.361-14.192 2.736-16.127 0-.077-.862-.214-12.72.46-15.693" mask="url(#prefix__b)"/>
        <path fill="#F7B690" d="M440.725 128.513c-4.845-4.07-12.596-1.662-14.296 4.864-1.556 5.975 3.567 16.96 6.302 18.92 4.783 3.43 12.253-3.02 12.811-6.399.818-4.949-.744-13.962-4.817-17.385" mask="url(#prefix__b)"/>
        <path fill="#534741" d="M442.7 143.984c.098.627.176 1.337-.217 1.836-.326.415-.903.56-1.43.516-.524-.046-1.02-.25-1.52-.421-2.123-.726-4.448-.851-6.638-.356-.996.224-2.032.626-2.597 1.477-.462.694-.534 1.575-.49 2.408.058 1.052.282 2.108.778 3.038.496.929 1.28 1.725 2.257 2.122 1.365.554 2.92.282 4.333-.145 2.512-.762 4.92-2.022 6.726-3.93 1.806-1.907 2.958-4.507 2.803-7.13-.077-1.302-.473-2.584-1.143-3.704-.58-.967-1.4-1.84-2.458-2.23-1.644-.606-1.3.789-1.143 1.764.255 1.584.493 3.17.739 4.755" mask="url(#prefix__b)"/>
        <path fill="#534741" d="M438.98 130.492c-.072.927 4.281 12.209 4.577 12.013 1.055-.698 1.876-4.263 4.066-4.561.7-.095 1.741.169 1.498-1.223-1.54-8.814-1.108-8.434-2.83-8.934-3.794-1.103-7.186 1.052-7.312 2.705" mask="url(#prefix__b)"/>
        <path fill="#534741" d="M447.514 123.14c-8.142-3.635-20.262-3.25-23.272-.588-4.484 3.963.895 11.736 2.886 11.835.91.045 1.572-.795 2.212-1.442 3.038-3.071 6.531-1.855 9.261-1.883 4.835-.049 15.852-4.824 8.913-7.922" mask="url(#prefix__b)"/>
        <path fill="#F7B690" d="M449.267 136.23c.41 1.391.252 2.941-.432 4.22-1.956 3.66-5.369-.108-5.29-2.883.093-3.309 4.607-5.12 5.722-1.337" mask="url(#prefix__b)"/>
        <path fill="#F6F6F6" d="M453.323 386.119c-.222-.528-.49-1.085-.384-1.648.14-.751.908-1.233 1.658-1.375.75-.142 1.526-.036 2.287-.102 1.363-.12 2.659-.832 3.52-1.891.722-.888.875-2.431 2.023-2.902 1.013-.416 2.21.246 3.103.672 1.537.735 3.058 1.507 4.585 2.26.339.167.688.346.995.568l-5.102 6.09c-.636-.05-1.992-.792-2.573-1.072.476.433 1.48 1.606 1.598 2.236l-9.31 12.328-3.95-3.594c2.5-3.22 3.127-7.807 1.55-11.57" mask="url(#prefix__b)"/>
        <path fill="#F6F6F6" d="M450.516 396.82c1.424-.335 2.91-.072 4.372-.084.091 0 .181-.01.271-.013l.564 4.56-7.21-.025c-.373-.405-.633-.898-.68-1.446-.126-1.456 1.26-2.659 2.683-2.993" mask="url(#prefix__b)"/>
        <path fill="#F6F6F6" d="M436.187 399.838c-.057-1.456.551-2.663 1.176-3.002.625-.339 1.6-2.78 2.895-6.353.592-1.634 3.891-2.09 5.538.722.536.913 1.032 1.506 1.631 1.486.503-.017 1.067-.89 1.55-.313.426.51.541 1.853.648 2.81.187 1.65.356 3.312.533 4.966.04.367.078.75.09 1.128H436.49c-.165-.404-.28-.896-.302-1.444" mask="url(#prefix__b)"/>
        <path fill="#F7B690" d="M424.804 210.327c-.767-.488-2.014-.854-2.385-.024-.22.493.104 1.062.491 1.439.388.377.868.699 1.066 1.202.343.867-.37 1.861-1.25 2.168-.88.307-1.848.124-2.762-.063-2.474-.505-4.95-1.011-7.426-1.515-1.028-.21-2.338-.307-2.884.589-.399.656-.145 1.504.186 2.196 1.323 2.774 3.768 4.992 6.656 6.041 2.888 1.05 6.187.918 8.982-.359 1.69-.772 3.225-1.986 4.104-3.621 2.452-4.561-1.539-5.991-4.778-8.053M422.266 158.157c1.843-1.781 4.7-2.43 7.13-1.617 1.588.53 3.104 1.953 2.892 3.614-.164 1.278-1.469 2.292-2.75 2.144-.03 1.564-1.479 2.674-2.784 3.537l-2.352 1.555c-.698.46-1.49.943-2.314.786-3.88-.742-1.558-8.34.178-10.02" mask="url(#prefix__b)"/>
        <path fill="#CCC" d="M390.334 84.266c-.555 0-1.055-.463-.997-1.123l-.714-2.118c-.431-.586-.152-1.353.472-1.564.526-.177 1.093.105 1.268.627.324.958.632 1.92.927 2.887.16.528-.136 1.087-.664 1.248-.098.03-.195.043-.292.043M271.226 4.15h-.037c-1.986-.072-4.002-.112-5.993-.12-.552-.002-.998-.452-.996-1.004.002-.55.45-.996 1-.996h.003c2.013.008 4.051.048 6.058.12.552.021.984.484.963 1.036-.019.54-.463.964-.998.964zm-18.076.213c-.526 0-.966-.409-.997-.94-.033-.552.387-1.025.94-1.058 2.016-.119 4.052-.207 6.052-.262h.028c.54 0 .984.43 1 .971.014.553-.42 1.013-.973 1.028-1.979.055-3.995.142-5.99.26l-.06.001zm30.098.62c-.034 0-.068 0-.103-.005-1.974-.204-3.983-.377-5.972-.515-.55-.038-.967-.515-.928-1.066.04-.55.522-.96 1.067-.929 2.01.14 4.042.314 6.038.52.55.057.95.548.893 1.098-.054.514-.489.897-.995.897zm-42.105.46c-.498 0-.93-.373-.99-.88-.068-.549.324-1.047.872-1.113 1.995-.24 4.022-.454 6.025-.635.557-.046 1.036.356 1.086.906.05.551-.356 1.036-.906 1.086-1.983.178-3.99.39-5.966.628-.04.005-.08.007-.12.007zm54.042 1.198c-.058 0-.115-.005-.174-.015-1.95-.343-3.94-.655-5.918-.929-.547-.076-.929-.58-.852-1.128.076-.547.58-.926 1.128-.854 2 .278 4.014.594 5.988.941.544.095.907.614.812 1.158-.086.485-.507.827-.984.827zm-65.959.61c-.474 0-.895-.339-.983-.822-.099-.543.26-1.064.804-1.163 1.978-.362 3.99-.698 5.976-.999.543-.087 1.055.293 1.14.84.081.544-.294 1.054-.84 1.137-1.968.3-3.958.632-5.916.99-.06.01-.12.016-.18.016zm77.741 1.917c-.082 0-.165-.01-.248-.032-1.908-.486-3.869-.946-5.829-1.366-.54-.115-.884-.647-.768-1.187.117-.539.641-.886 1.188-.768 1.983.425 3.97.891 5.903 1.384.535.136.86.68.722 1.216-.115.452-.52.753-.968.753zm-89.528.61c-.449 0-.858-.306-.97-.762-.132-.536.195-1.078.732-1.21 1.954-.482 3.94-.94 5.903-1.36.543-.114 1.072.227 1.187.767.117.54-.227 1.072-.767 1.187-1.944.417-3.909.871-5.845 1.348-.08.02-.16.03-.24.03zm101.072 2.835c-.107 0-.218-.018-.325-.054-1.86-.64-3.779-1.256-5.698-1.828-.53-.159-.83-.716-.672-1.245.157-.529.713-.83 1.244-.672 1.945.58 3.89 1.204 5.776 1.853.523.18.8.75.62 1.271-.142.415-.53.675-.945.675zm-112.68.415c-.424 0-.819-.273-.954-.7-.165-.527.128-1.089.655-1.254 1.912-.6 3.866-1.18 5.808-1.725.53-.15 1.084.161 1.233.693.15.532-.16 1.084-.694 1.233-1.922.538-3.856 1.112-5.748 1.707-.099.031-.2.046-.3.046zm-65.52 1.485h-.048c-1.926-.09-3.936-.094-5.94-.019-.548.003-1.018-.41-1.038-.962-.02-.552.41-1.016.962-1.037 2.06-.077 4.126-.073 6.11.02.551.025.977.493.952 1.045-.025.536-.468.953-.998.953zm-18.004 1.256c-.479 0-.903-.346-.985-.835-.09-.544.276-1.06.821-1.152 2.052-.344 4.08-.626 6.025-.837.55-.064 1.042.337 1.103.886.06.55-.338 1.043-.887 1.102-1.908.207-3.896.484-5.91.822-.057.01-.112.014-.167.014zm29.893.547c-.087 0-.175-.012-.263-.036-1.843-.502-3.787-.906-5.78-1.202-.546-.082-.923-.59-.842-1.136.081-.547.595-.922 1.137-.843 2.07.308 4.091.73 6.01 1.252.534.145.847.695.702 1.227-.12.445-.524.738-.964.738zm42.255.698c-.4 0-.78-.242-.933-.638-.199-.516.056-1.095.57-1.294 1.863-.724 3.778-1.429 5.688-2.098.523-.18 1.092.093 1.274.613.183.522-.093 1.092-.613 1.275-1.89.661-3.782 1.36-5.625 2.074-.119.046-.24.068-.36.068zm135.264.014c-.135 0-.273-.028-.406-.087-1.798-.803-3.65-1.58-5.514-2.314-.513-.203-.767-.783-.564-1.297.203-.514.785-.766 1.297-.564 1.89.744 3.773 1.534 5.597 2.35.504.224.731.815.505 1.32-.166.372-.53.592-.915.592zm-219.19 1.298c-.445 0-.85-.299-.967-.748-.14-.534.181-1.08.715-1.22 2.012-.526 3.997-1.003 5.901-1.419.54-.116 1.071.224 1.191.763.117.54-.225 1.073-.764 1.191-1.878.41-3.837.881-5.823 1.4-.084.022-.169.033-.253.033zm52.718 2.7c-.177 0-.358-.047-.52-.147-1.653-1.008-3.412-1.91-5.227-2.679-.508-.216-.746-.802-.53-1.31.216-.51.804-.747 1.311-.53 1.905.807 3.751 1.753 5.488 2.812.471.288.62.903.332 1.375-.188.31-.518.48-.854.48zm-64.279.726c-.42 0-.812-.268-.95-.689-.172-.525.113-1.09.64-1.262 1.971-.646 3.916-1.255 5.778-1.809.531-.157 1.086.145 1.244.674.157.53-.144 1.086-.674 1.243-1.844.55-3.77 1.152-5.726 1.793-.104.034-.209.05-.312.05zm84.405.003c-.376 0-.735-.21-.905-.574-.235-.5-.02-1.095.48-1.33 1.8-.847 3.66-1.682 5.531-2.482.506-.216 1.095.018 1.312.526.218.507-.018 1.095-.526 1.313-1.849.791-3.688 1.616-5.467 2.452-.137.065-.283.095-.425.095zm157.103.7c-.167 0-.336-.042-.492-.13-1.715-.972-3.488-1.92-5.27-2.82-.495-.249-.692-.85-.443-1.343.248-.493.85-.692 1.343-.443 1.811.914 3.613 1.878 5.355 2.866.482.273.651.883.378 1.363-.184.325-.522.507-.87.507zM87.59 25.74c-.407 0-.789-.25-.938-.654-.192-.518.074-1.094.592-1.285 1.848-.682 3.747-1.37 5.686-2.05.522-.186 1.091.09 1.275.611.183.521-.09 1.092-.612 1.275-1.929.678-3.818 1.362-5.657 2.04-.114.043-.23.063-.346.063zm84.871 2.99c-.274 0-.547-.113-.746-.334-1.32-1.476-2.74-2.852-4.218-4.09-.423-.355-.479-.986-.124-1.409.353-.424.985-.479 1.408-.124 1.07.896 2.11 1.86 3.106 2.88.077-.094.172-.175.283-.238 1.733-.98 3.528-1.95 5.337-2.884.49-.255 1.094-.062 1.348.43.253.491.06 1.094-.43 1.347-1.757.906-3.5 1.847-5.182 2.798.328.411.282 1.012-.116 1.368-.19.171-.428.255-.666.255zm178.171.205c-.202 0-.406-.06-.583-.188-1.285-.925-2.602-1.826-3.916-2.682-.34-.222-.684-.443-1.028-.662-.466-.296-.604-.915-.307-1.38.297-.466.914-.603 1.381-.307.35.223.697.447 1.045.673 1.34.872 2.684 1.792 3.993 2.735.448.322.551.947.228 1.395-.196.272-.502.416-.813.416zM76.446 30.358c-.37 0-.727-.207-.9-.562-.242-.497-.035-1.095.461-1.337 1.97-.957 3.841-1.8 5.563-2.506.512-.209 1.095.036 1.304.546.21.511-.035 1.095-.546 1.304-1.682.69-3.515 1.516-5.446 2.455-.14.068-.29.1-.436.1zm86.036 3.372c-.304 0-.604-.138-.8-.4-.332-.44-.243-1.068.198-1.4 1.448-1.088 3.058-2.176 5.068-3.425.47-.29 1.085-.147 1.377.322.292.47.147 1.086-.322 1.378-1.958 1.216-3.52 2.272-4.922 3.324-.179.135-.39.201-.599.201zm-96.65 2.374c-.34 0-.673-.175-.86-.49-.282-.475-.126-1.089.35-1.37 1.754-1.042 3.53-2.052 5.28-3 .486-.264 1.092-.085 1.355.401.264.485.083 1.093-.402 1.356-1.726.937-3.48 1.934-5.214 2.962-.159.096-.336.141-.509.141zm294.16.42c-.242 0-.483-.087-.674-.262-1.464-1.332-2.988-2.64-4.528-3.89-.428-.349-.494-.979-.146-1.408.347-.428.978-.495 1.406-.146 1.57 1.273 3.122 2.607 4.614 3.965.408.372.438 1.004.066 1.412-.198.217-.468.328-.739.328zm-180.97 2.246c-.39 0-.762-.23-.922-.613-.79-1.884-1.718-3.608-2.753-5.125-.31-.456-.194-1.078.262-1.389.456-.31 1.078-.195 1.39.261 1.111 1.628 2.102 3.471 2.945 5.478.213.51-.026 1.096-.535 1.31-.127.053-.258.078-.387.078zM55.698 42.652c-.316 0-.625-.148-.82-.425-.317-.452-.209-1.076.244-1.393 1.636-1.15 3.331-2.29 5.038-3.392.462-.302 1.083-.167 1.381.297.3.464.167 1.083-.296 1.382-1.685 1.088-3.359 2.215-4.974 3.35-.175.122-.375.181-.573.181zm98.986.084c-.133 0-.267-.026-.396-.082-.507-.219-.74-.807-.522-1.314.281-.653.6-1.29.945-1.896.646-1.129 1.496-2.272 2.53-3.397.374-.405 1.006-.433 1.413-.059.407.373.433 1.006.06 1.413-.932 1.014-1.695 2.035-2.266 3.035-.309.541-.593 1.111-.846 1.696-.162.378-.53.604-.918.604zm213.747 2.385c-.277 0-.554-.116-.752-.34-1.307-1.49-2.673-2.963-4.06-4.378-.387-.395-.38-1.027.013-1.414s1.028-.382 1.414.014c1.414 1.441 2.806 2.941 4.137 4.458.364.415.322 1.047-.093 1.411-.189.167-.425.25-.659.25zM46.136 50.01c-.284 0-.566-.12-.764-.354-.357-.422-.304-1.052.117-1.409 1.507-1.276 3.1-2.559 4.735-3.816.438-.336 1.065-.255 1.402.184.336.438.254 1.066-.184 1.402-1.61 1.237-3.178 2.501-4.66 3.756-.188.16-.417.237-.646.237zm135.421.472c-.55 0-.996-.443-1-.993-.013-1.846-.242-3.785-.683-5.766-.12-.539.22-1.073.76-1.193.538-.124 1.072.22 1.193.76.47 2.117.716 4.198.73 6.185.004.552-.44 1.003-.993 1.007h-.007zm-27.906 4.058c-.448 0-.855-.302-.97-.756-.363-1.442-.548-2.96-.548-4.513 0-.598.028-1.205.082-1.806.051-.549.542-.943 1.087-.905.551.05.956.537.905 1.088-.049.54-.074 1.086-.074 1.623 0 1.387.164 2.741.488 4.024.135.536-.19 1.08-.725 1.214-.082.021-.165.031-.245.031zm222.21.067c-.317 0-.627-.149-.822-.428-1.13-1.62-2.325-3.236-3.549-4.802-.34-.434-.264-1.063.171-1.404.433-.34 1.062-.263 1.403.172 1.248 1.593 2.464 3.24 3.616 4.89.316.453.205 1.076-.248 1.392-.175.122-.374.18-.57.18zm-338.45 3.726c-.243 0-.484-.087-.676-.263-.407-.373-.435-1.005-.062-1.412 1.32-1.44 2.76-2.904 4.28-4.348.4-.38 1.033-.364 1.414.037.38.4.364 1.033-.037 1.413-1.487 1.412-2.894 2.842-4.182 4.248-.197.216-.467.325-.738.325zm140.485 3.337c-.25 0-.502-.094-.696-.283-.397-.384-.406-1.018-.02-1.414.442-.457.834-.962 1.163-1.502.612-1.002 1.104-2.12 1.464-3.323.158-.53.716-.83 1.244-.672.53.158.83.715.672 1.244-.409 1.37-.972 2.645-1.673 3.793-.406.666-.889 1.29-1.436 1.853-.197.202-.457.304-.718.304zm-16.942 1.936c-.142 0-.287-.03-.423-.095-1.137-.53-2.16-1.17-3.044-1.9-.74-.61-1.419-1.305-2.019-2.065-.343-.433-.268-1.062.165-1.404.433-.343 1.062-.268 1.405.165.512.65 1.091 1.241 1.722 1.761.753.623 1.634 1.171 2.618 1.632.5.234.716.83.482 1.33-.17.363-.53.576-.906.576zm221.235 1.253c-.356 0-.699-.188-.88-.522-.945-1.742-1.952-3.48-2.993-5.166-.29-.47-.145-1.086.324-1.377.472-.289 1.087-.144 1.377.326 1.061 1.718 2.087 3.488 3.05 5.262.263.486.083 1.093-.403 1.356-.15.082-.314.121-.475.121zm-213.819.351c-.566 0-1.139-.026-1.706-.077-.549-.049-.956-.535-.906-1.086.05-.549.525-.946 1.086-.906 1.944.177 3.886.013 5.613-.473.53-.149 1.084.16 1.234.691.15.532-.16 1.084-.692 1.234-1.453.41-3.01.617-4.629.617zM30.14 67.93c-.175 0-.35-.045-.51-.14-.475-.283-.632-.896-.349-1.37.992-1.67 2.154-3.38 3.455-5.08.337-.439.965-.52 1.401-.187.44.336.523.964.188 1.402-1.254 1.638-2.372 3.282-3.325 4.886-.187.314-.519.49-.86.49zm.594 6.305c-.44 0-.844-.293-.965-.738-.145-.533.17-1.082.702-1.227 2.072-.565 4.148-.888 6.17-.962.551-.02 1.015.412 1.035.964.02.551-.41 1.015-.964 1.035-1.868.068-3.79.368-5.715.892-.088.024-.176.036-.263.036zm356.591 1.523c-.396 0-.77-.237-.928-.627-.74-1.838-1.545-3.679-2.39-5.469-.235-.5-.02-1.096.478-1.33.5-.237 1.095-.024 1.331.476.861 1.825 1.681 3.701 2.436 5.575.206.513-.042 1.096-.553 1.302-.123.05-.249.073-.374.073zm-339.178.551c-.194 0-.39-.057-.564-.175-.45-.307-.918-.587-1.388-.832-1.182-.612-2.454-1.092-3.785-1.426-.536-.135-.86-.678-.726-1.214.134-.536.681-.862 1.213-.726 1.48.372 2.9.907 4.22 1.591.541.281 1.078.603 1.594.956.456.312.574.934.262 1.39-.193.283-.507.436-.826.436zm-28.13 3.283c-.304 0-.603-.137-.8-.398-.333-.44-.245-1.067.197-1.4 1.206-.91 2.476-1.749 3.778-2.495.483-.276.976-.54 1.476-.794.322-.162.69-.133.976.042.254-.859.552-1.725.894-2.59.203-.514.782-.764 1.297-.564.514.203.766.784.563 1.298-.745 1.888-1.269 3.764-1.555 5.575-.087.545-.599.92-1.144.831-.545-.086-.918-.598-.83-1.144.074-.477.165-.957.27-1.44-.322.168-.64.343-.953.522-1.229.704-2.429 1.496-3.568 2.356-.18.136-.392.201-.602.201zm34.785 6.453c-.452 0-.862-.31-.972-.769-.426-1.789-1.218-3.568-2.292-5.145-.31-.456-.194-1.078.263-1.389.458-.31 1.08-.193 1.39.263 1.21 1.776 2.102 3.785 2.585 5.808.128.537-.204 1.076-.74 1.204-.08.02-.158.028-.234.028zM11.74 88.282c-.197 0-.396-.058-.569-.178-.454-.315-.567-.937-.253-1.39 1.187-1.715 2.495-3.328 3.887-4.797.38-.4 1.013-.417 1.414-.038.401.38.417 1.013.037 1.414-1.322 1.395-2.564 2.93-3.693 4.558-.194.28-.507.431-.823.431zm15.557 2.621c-.386 0-.755-.225-.918-.603-.848-1.959-1.404-4.002-1.652-6.073-.066-.548.325-1.046.873-1.112.55-.062 1.047.326 1.112.874.226 1.88.731 3.735 1.502 5.516.22.507-.013 1.096-.52 1.315-.129.057-.264.083-.397.083zm24.905 6.41c-.245 0-.489-.09-.68-.268-.405-.376-.429-1.009-.054-1.414.42-.452.8-.948 1.131-1.476.64-1.02 1.094-2.145 1.352-3.346.116-.54.648-.882 1.186-.768.54.116.885.647.77 1.187-.308 1.43-.85 2.772-1.614 3.99-.396.633-.854 1.23-1.359 1.774-.197.212-.465.32-.732.32zm-45.895 1.69c-.11 0-.224-.02-.334-.059-.52-.184-.793-.755-.608-1.276.693-1.956 1.505-3.859 2.411-5.657.25-.493.85-.69 1.344-.443.493.25.691.851.442 1.344-.869 1.722-1.647 3.548-2.313 5.424-.144.41-.53.667-.942.667zm29.068.441c-.14 0-.284-.03-.42-.093-2.01-.933-3.758-2.173-5.19-3.687-.38-.4-.363-1.034.037-1.413.403-.38 1.033-.363 1.414.038 1.258 1.33 2.8 2.422 4.581 3.248.501.232.718.826.487 1.328-.17.365-.532.58-.909.58zm7.356 1.64c-.545 0-1.102-.027-1.656-.079-.55-.05-.953-.539-.903-1.089.051-.549.528-.953 1.09-.902 1.963.181 3.865 0 5.57-.53.527-.165 1.088.13 1.253.658.164.527-.13 1.087-.658 1.252-1.47.457-3.05.69-4.696.69zm-39.106 9.645c-.038 0-.076-.002-.114-.007-.549-.062-.943-.557-.88-1.106.231-2.04.576-4.075 1.026-6.049.124-.54.662-.877 1.197-.753.54.122.876.658.753 1.197-.434 1.902-.767 3.864-.989 5.83-.059.511-.492.888-.993.888zm-.053 12.031c-.505 0-.939-.38-.993-.895-.206-1.932-.309-3.908-.309-5.874l.001-.254c.003-.55.45-.994 1-.994h.006c.552.003.997.453.994 1.006v.248c0 1.89.1 3.795.297 5.657.058.55-.34 1.042-.889 1.1-.036.004-.07.006-.107.006zm2.433 11.79c-.43 0-.828-.28-.958-.714-.59-1.975-1.096-3.967-1.504-5.922-.113-.54.235-1.07.775-1.183.542-.114 1.07.234 1.183.774.396 1.9.888 3.837 1.462 5.757.16.53-.14 1.087-.67 1.245-.096.03-.193.042-.288.042zm4.32 11.242c-.377 0-.738-.214-.908-.578-.875-1.876-1.679-3.762-2.39-5.606-.199-.515.058-1.094.573-1.292.516-.199 1.094.057 1.293.573.695 1.801 1.481 3.645 2.337 5.48.233.5.017 1.095-.483 1.328-.137.064-.28.095-.422.095zm5.717 10.605c-.337 0-.667-.17-.855-.48-1.078-1.773-2.098-3.545-3.03-5.269-.263-.486-.08-1.092.404-1.355.483-.264 1.092-.082 1.355.404.916 1.694 1.92 3.437 2.98 5.181.287.471.137 1.086-.335 1.374-.162.098-.342.145-.519.145zm6.687 10.027c-.31 0-.616-.144-.812-.415-1.214-1.683-2.378-3.358-3.462-4.978-.306-.459-.183-1.08.276-1.386.458-.308 1.08-.184 1.387.275 1.07 1.6 2.221 3.255 3.421 4.92.324.447.222 1.072-.226 1.395-.177.127-.38.19-.584.19zM28.233 173.721c-.296 0-.59-.13-.787-.383-.618-.788-1.234-1.58-1.845-2.38-.336-.438-.253-1.066.186-1.402.437-.335 1.066-.253 1.402.186.607.792 1.217 1.58 1.83 2.362.341.434.266 1.063-.169 1.404-.183.143-.4.213-.617.213" mask="url(#prefix__b)"/>
        <path fill="#A1ADB0" d="M4 129.647L37.044 178.745 26.005 180.512z" mask="url(#prefix__b)"/>
        <path fill="#FFF" d="M4 129.647L15.63 192.626 36.379 168.398z" mask="url(#prefix__b)"/>
        <path fill="#DB3931" d="M4 129.647L28.453 177.653 37.044 178.745 23.083 183.923z" mask="url(#prefix__b)"/>
        <path fill="#A1ADB0" d="M274.257 1.536L329.089 23.806 328.553 12.638z" mask="url(#prefix__b)"/>
        <path fill="#FFF" d="M274.257 1.536L338.281 -0.001 318.825 25.277z" mask="url(#prefix__b)"/>
        <path fill="#DB3931" d="M274.257 1.536L326.257 15.621 329.089 23.806 331.293 9.079z" mask="url(#prefix__b)"/>
        <path fill="#CCC" d="M431.164 47.263c-.377 0-.737-.213-.907-.576-.234-.5-.018-1.096.482-1.33.928-.434 1.894-.766 2.872-.987.936-.212 1.91-.32 2.899-.32.17 0 .34.003.509.01.552.02.983.484.962 1.036-.02.553-.49.982-1.036.962-.978-.037-1.965.051-2.892.262-.84.19-1.668.476-2.466.85-.137.063-.281.093-.423.093m16.054 4.228c-.318 0-.63-.15-.824-.43-1.008-1.46-2.436-2.697-4.126-3.579-.49-.256-.68-.86-.424-1.349.256-.49.857-.682 1.349-.425 1.977 1.033 3.652 2.49 4.846 4.214.314.454.2 1.077-.253 1.391-.174.12-.372.178-.568.178m-23.92 4.45c-.117 0-.237-.02-.353-.066-.516-.195-.777-.772-.582-1.289.745-1.969 1.883-3.84 3.29-5.41.369-.413 1.003-.446 1.412-.079.41.37.447 1.001.078 1.412-1.244 1.39-2.25 3.045-2.91 4.785-.15.4-.531.647-.934.647m25.1 7.064c-.098 0-.2-.015-.3-.047-.527-.166-.82-.728-.653-1.255.505-1.598.76-3.137.76-4.574 0-.32-.012-.639-.037-.958-.044-.55.367-1.032.918-1.076.56-.044 1.032.368 1.076.918.029.371.044.743.044 1.116 0 1.641-.287 3.383-.853 5.176-.134.427-.53.7-.954.7M423.324 67.7c-.415 0-.802-.26-.945-.674-.706-2.044-1.076-4.129-1.1-6.198-.006-.552.437-1.004.989-1.01.543-.015 1.005.435 1.01.988.022 1.853.355 3.726.99 5.566.182.522-.095 1.092-.617 1.272-.108.037-.218.056-.327.056m19.244 5.622c-.197 0-.391-.056-.552-.179-.44-.335-.583-.883-.25-1.322l.796.606-.738-.682c1.32-1.747 2.359-3.289 3.232-4.79.277-.479.892-.64 1.366-.363.477.277.64.89.362 1.367-.913 1.572-1.995 3.18-3.307 4.916-.211.28-.566.447-.91.447m-12.358 4.01c-.22 0-.443-.073-.627-.223-.821-.662-1.595-1.368-2.301-2.1-.724-.75-1.403-1.565-2.015-2.419-.323-.449-.22-1.074.229-1.396.448-.32 1.072-.219 1.396.23.556.776 1.17 1.515 1.829 2.196.649.672 1.36 1.322 2.118 1.933.43.346.497.976.15 1.406-.197.244-.487.372-.78.372m10.455 5.806c-.128 0-.26-.025-.384-.077-1.424-.592-2.662-1.144-3.787-1.69-.286.32-.573.638-.86.954-.371.41-1.003.44-1.413.065-.41-.372-.438-1.004-.066-1.412l.5-.553c-.41-.286-.551-.84-.308-1.293.26-.486.868-.669 1.354-.409.104.056.208.112.315.167.694-.795 1.379-1.598 2.048-2.403.352-.424.982-.484 1.408-.13.425.353.483.984.13 1.408-.57.685-1.15 1.368-1.736 2.046.957.452 2.004.913 3.183 1.403.51.212.752.798.54 1.307-.16.385-.532.617-.924.617m11.099 4.557c-.141 0-.285-.03-.421-.094-.968-.45-2.001-.903-3.072-1.347-.793-.329-1.594-.65-2.398-.968-.514-.203-.766-.784-.562-1.297.202-.514.784-.766 1.296-.563.816.322 1.626.647 2.43.98 1.097.455 2.156.92 3.15 1.382.5.233.717.828.484 1.33-.17.363-.53.577-.907.577m-25.334 3.456c-.271 0-.54-.109-.737-.324-.374-.406-.346-1.039.06-1.413 1.459-1.34 2.904-2.728 4.296-4.124.389-.39 1.022-.393 1.414-.003.39.39.392 1.023.002 1.414-1.411 1.417-2.878 2.826-4.36 4.186-.191.176-.433.264-.675.264m35.6 2.705c-.218 0-.436-.07-.621-.216-1.447-1.148-3.075-2.26-4.84-3.304-.473-.28-.631-.894-.35-1.369.282-.475.895-.633 1.37-.35 1.842 1.088 3.545 2.251 5.063 3.456.433.343.506.972.162 1.404-.197.25-.49.38-.784.38m-44.786 5.008c-.301 0-.598-.135-.795-.392-.336-.438-.253-1.065.186-1.4 1.574-1.209 3.136-2.463 4.643-3.728.425-.357 1.056-.3 1.409.122.356.423.3 1.054-.122 1.41-1.531 1.283-3.116 2.556-4.713 3.782-.182.14-.397.206-.608.206m52.603 3.99c-.355 0-.7-.19-.88-.526-.431-.798-.911-1.574-1.427-2.306-.58-.82-1.218-1.628-1.897-2.397-.366-.414-.327-1.046.087-1.412.415-.363 1.046-.325 1.413.09.726.822 1.41 1.686 2.032 2.566.56.798 1.084 1.642 1.552 2.51.262.485.08 1.092-.406 1.354-.15.081-.313.12-.474.12m-62.44 2.88c-.331 0-.655-.165-.845-.466-.296-.466-.158-1.084.309-1.379 1.67-1.06 3.338-2.169 4.955-3.3.455-.315 1.077-.204 1.393.247.315.453.206 1.076-.247 1.393-1.642 1.147-3.334 2.274-5.031 3.35-.166.104-.351.154-.534.154m-10.41 5.96c-.363 0-.713-.199-.891-.544-.252-.49-.058-1.094.433-1.346 1.75-.899 3.51-1.855 5.232-2.84.482-.276 1.09-.109 1.366.371.274.48.107 1.09-.371 1.364-1.75 1.001-3.537 1.971-5.313 2.884-.146.075-.303.11-.456.11m75.71 2.681h-.023c-.552-.013-.99-.47-.977-1.024.004-.158.006-.317.006-.476-.001-1.709-.224-3.458-.663-5.197-.135-.536.189-1.079.724-1.215.538-.133 1.08.19 1.215.725.48 1.9.723 3.812.724 5.686 0 .176-.002.35-.006.524-.013.544-.458.977-1 .977m-2.742 9.14c-.19 0-.38-.054-.55-.166-.461-.304-.588-.924-.284-1.385.625-.947 1.144-1.978 1.547-3.064.19-.518.767-.783 1.284-.59.518.19.783.766.59 1.284-.453 1.23-1.043 2.397-1.751 3.471-.193.291-.511.45-.836.45M141.916 74.695c-.165 0-.334-.041-.488-.128-1.721-.966-3.494-1.88-5.27-2.713-.5-.235-.714-.83-.48-1.33.236-.501.83-.715 1.332-.48 1.818.854 3.634 1.789 5.397 2.779.482.27.653.88.382 1.362-.184.326-.523.51-.873.51m10.012 6.597c-.212 0-.426-.067-.608-.206-1.564-1.198-3.19-2.353-4.831-3.435-.461-.304-.59-.925-.285-1.386.304-.462.924-.59 1.386-.284 1.68 1.108 3.345 2.29 4.946 3.517.439.335.523.963.187 1.402-.198.257-.494.392-.795.392m8.989 7.936c-.26 0-.518-.1-.714-.3-1.38-1.402-2.828-2.774-4.303-4.076-.414-.366-.453-.998-.088-1.412.367-.413.998-.453 1.413-.087 1.508 1.333 2.99 2.737 4.405 4.174.387.394.382 1.027-.012 1.414-.194.192-.448.287-.701.287m7.786 9.119c-.308 0-.61-.14-.806-.406-1.165-1.58-2.405-3.141-3.686-4.642-.36-.42-.31-1.051.11-1.41.42-.358 1.052-.308 1.41.112 1.313 1.537 2.583 3.136 3.776 4.753.328.444.233 1.07-.211 1.398-.18.132-.387.195-.593.195m16.96 10.554c-.112 0-.226-.02-.338-.06-1.811-.648-3.696-1.073-5.6-1.26-.55-.053-.951-.543-.897-1.093.055-.55.544-.948 1.093-.897 2.067.203 4.112.663 6.079 1.368.52.186.79.758.604 1.278-.146.409-.531.664-.941.664m-17.485.77c-.36 0-.707-.194-.886-.535-.258-.488-.07-1.093.419-1.35 1.644-.867 3.446-1.498 5.364-1.881-.287-.517-.595-1.047-.926-1.598-.297-.494-.6-.985-.91-1.473-.294-.467-.155-1.084.312-1.38.468-.297 1.084-.155 1.38.31.316.5.627 1.005.932 1.512.814 1.353 1.494 2.597 2.08 3.803.243.496.036 1.095-.461 1.337-.495.24-1.094.035-1.337-.462l-.095-.196-.038.008c-1.934.329-3.741.93-5.37 1.789-.148.078-.308.116-.464.116m27.349 5.855c-.265 0-.532-.106-.728-.316-1.283-1.366-2.682-2.586-4.158-3.627l-.208-.144c-.456-.311-.575-.933-.263-1.39.31-.456.934-.573 1.39-.262l.229.159c1.59 1.12 3.093 2.43 4.468 3.895.378.403.357 1.036-.045 1.414-.193.18-.44.27-.685.27m-34.69 3.155c-.078 0-.158-.01-.238-.03-.537-.13-.866-.671-.735-1.207.523-2.14 1.51-4.12 2.855-5.731.354-.424.985-.48 1.409-.126.424.354.48.984.126 1.408-1.134 1.358-2.003 3.106-2.446 4.923-.112.457-.521.763-.971.763m16.694 1.404c-.043 0-.085-.003-.128-.008-.548-.07-.935-.571-.866-1.12.07-.553.107-1.127.107-1.702 0-1.237-.165-2.544-.49-3.888-.128-.537.202-1.077.74-1.207.538-.13 1.076.202 1.206.738.36 1.497.544 2.963.544 4.356 0 .659-.041 1.318-.123 1.957-.064.505-.495.874-.99.874m24.492 5.465c-.383 0-.75-.223-.915-.596-.812-1.836-1.738-3.57-2.753-5.152-.298-.465-.163-1.084.302-1.381.465-.3 1.083-.163 1.382.302 1.069 1.669 2.045 3.493 2.898 5.42.224.506-.004 1.097-.51 1.32-.131.059-.268.087-.404.087m-37.351 3.488c-.141 0-.284-.03-.42-.092-.2-.093-.4-.196-.596-.31-1.788-1.025-3.072-2.66-3.717-4.73-.164-.526.13-1.086.658-1.251.526-.166 1.088.13 1.252.658.499 1.6 1.44 2.808 2.8 3.589.147.083.295.16.445.229.5.232.718.827.486 1.328-.17.365-.53.579-.908.579m5.838.066c-.404 0-.783-.246-.936-.645-.195-.516.065-1.094.58-1.29 1.624-.617 3.158-1.766 4.32-3.236.344-.434.972-.507 1.406-.165.432.343.507.972.164 1.405-1.383 1.75-3.223 3.123-5.18 3.866-.116.044-.236.065-.354.065m34.953 7.914c-.476 0-.897-.34-.984-.823l-.07-.376c-.34-1.832-.771-3.633-1.282-5.354-.157-.53.144-1.086.674-1.243.528-.158 1.086.144 1.243.674.53 1.788.979 3.657 1.332 5.556l.072.389c.098.543-.263 1.063-.807 1.16-.06.012-.12.017-.178.017m.967 11.943h-.015c-.553-.008-.994-.462-.986-1.015.005-.305.007-.611.007-.917 0-1.66-.067-3.336-.2-4.983-.044-.551.367-1.033.917-1.077.55-.052 1.033.366 1.076.916.137 1.7.207 3.432.207 5.144 0 .315-.002.63-.007.946-.008.547-.454.986-1 .986m-1.286 11.913c-.067 0-.133-.007-.201-.02-.541-.11-.89-.638-.781-1.18.39-1.92.695-3.883.906-5.834.06-.55.554-.95 1.103-.887.549.059.945.553.886 1.102-.218 2.012-.533 4.037-.935 6.018-.096.474-.513.8-.978.8m-3.46 11.474c-.125 0-.252-.024-.376-.074-.512-.207-.758-.791-.55-1.303.736-1.812 1.396-3.685 1.964-5.568.16-.53.718-.828 1.246-.67.529.16.828.718.669 1.247-.585 1.943-1.267 3.875-2.027 5.744-.157.389-.531.624-.926.624m-5.547 10.62c-.188 0-.377-.053-.546-.163-.462-.301-.592-.921-.29-1.384 1.066-1.634 2.069-3.347 2.978-5.092.256-.49.86-.68 1.35-.424.489.255.68.859.424 1.349-.94 1.802-1.975 3.572-3.077 5.26-.193.294-.512.454-.84.454" mask="url(#prefix__b)"/>
    </g>
</svg>
