<?xml version="1.0" encoding="UTF-8"?>
<svg width="896px" height="235px" viewBox="0 0 896 235" version="1.1" xmlns="http://www.w3.org/2000/svg" xmlns:xlink="http://www.w3.org/1999/xlink">
    <!-- Generator: Sketch 53.2 (72643) - https://sketchapp.com -->
    <title>Group 194</title>
    <desc>Created with Sketch.</desc>
    <defs>
        <polygon id="path-1" points="282 235.724 895.578 235.724 895.578 8 282 8"></polygon>
        <polygon id="path-3" points="0.507008264 0.333 24.8962 0.333 24.8962 12.4199 0.507008264 12.4199"></polygon>
        <polygon id="path-5" points="0 0.2452 63.8028 0.2452 63.8028 84.8162 0 84.8162"></polygon>
        <polygon id="path-7" points="0 233 265.878 233 265.878 0.333 0 0.333"></polygon>
    </defs>
    <g id="Desktop" stroke="none" stroke-width="1" fill="none" fill-rule="evenodd">
        <g id="Nosotros" transform="translate(-480.000000, -518.000000)">
            <g id="Group-194" transform="translate(480.000000, 517.000000)">
                <path d="M337.162,82.912 L324.106,51.49 L326.363,49.183 C332.397,54.616 344.635,72.114 345.56,82.817 L337.162,82.912 Z" id="Fill-1" fill="#F2B892"></path>
                <path d="M290.0292,88.8026 L311.4332,115.2536 L309.9202,118.1056 C302.5962,114.5996 285.9132,101.2726 282.0002,91.2666 L290.0292,88.8026 Z" id="Fill-3" fill="#F2B892"></path>
                <path d="M290.0292,88.8026 C288.2312,94.4856 282.5052,95.1256 282.0002,91.2666 C282.8192,81.0946 284.7492,64.2766 290.0912,54.2276 L300.4142,57.2976 L290.0292,88.8026 Z" id="Fill-5" fill="#FF3453"></path>
                <polygon id="Fill-7" fill="#F2B892" points="324.1063 51.4901 320.7433 51.0921 315.8873 50.1321 315.7653 49.1671 319.0113 48.8321 318.1713 42.2001 318.9933 42.0951 320.8583 44.6221 324.9943 45.5471 326.3633 49.1821"></polygon>
                <path d="M323.4588,96.9647 C323.4698,87.2557 325.1398,59.5167 324.7498,51.3827 C316.1608,49.9697 303.3478,47.8477 290.0908,54.2277 C289.6368,67.8487 298.7198,96.9377 298.7198,96.9377 L323.4588,96.9647 Z" id="Fill-9" fill="#FF3453"></path>
                <path d="M345.5604,82.8173 C345.0124,85.6383 341.3624,88.3563 336.7424,84.8233 C329.0924,78.0673 320.9394,68.1033 316.1014,57.8023 L324.7494,51.3823 L345.5604,82.8173 Z" id="Fill-11" fill="#FF3453"></path>
                <polygon id="Fill-13" fill="#FFE300" points="302.4403 228.6132 306.1933 228.6132 311.3033 232.5712 316.0533 233.3722 315.7493 235.7232 301.5183 235.7232"></polygon>
                <polygon id="Fill-15" fill="#FFE300" points="317.2782 228.6132 321.0302 228.6132 326.1402 232.5712 330.8912 233.3722 330.5862 235.7232 316.3552 235.7232"></polygon>
                <polygon id="Fill-17" fill="#F2B892" points="311.4608 42.3944 310.5118 49.9494 304.2918 50.1874 304.3428 39.7484"></polygon>
                <path d="M315.3866,41.0224 C315.6156,42.8864 313.9416,44.7324 310.3196,43.7424 L304.3536,40.7054 L300.8976,32.9904 L303.3496,25.8924 L313.7816,25.4944 L315.3866,41.0224 Z" id="Fill-19" fill="#F2B892"></path>
                <path d="M306.9989,31.3065 L314.5619,28.4555 L316.0219,22.4545 L313.4889,23.2135 L303.4909,24.2125 C299.0349,24.6085 297.5399,28.0975 299.3909,32.8995 L306.9989,31.3065 Z" id="Fill-21" fill="#945561"></path>
                <path d="M299.3905,32.8993 C301.0215,38.8523 296.8875,42.6383 293.1635,45.5813 L288.7395,48.8663 C286.9605,50.1853 286.2675,52.5213 287.0365,54.5983 C287.9315,57.0133 290.9355,60.3193 297.0415,59.7093 C304.7735,58.9363 311.4275,51.3383 309.3375,30.4243 L299.3905,32.8993 Z" id="Fill-23" fill="#945561"></path>
                <path d="M330.8417,114.9706 C328.6417,108.7466 326.1837,102.8126 323.4847,96.9476 L298.7457,96.9476 C298.7457,96.9476 292.7137,109.0656 291.6027,113.6956 C291.5017,114.1156 291.4197,114.5466 291.3247,114.9706 C288.9357,127.8986 293.9567,149.2766 293.9567,168.3996 C293.3367,188.1966 297.0017,205.4436 302.4417,228.6136 L306.1937,228.6136 L309.7107,168.3946 L312.2567,141.2776 C315.2867,150.8616 318.9827,160.7226 321.4317,168.3996 L321.4307,168.3996 C318.3747,188.1966 314.7637,205.4436 317.3537,228.6136 L321.1057,228.6136 L337.1847,168.3946 L330.8417,114.9706 Z" id="Fill-25" fill="#333333"></path>
                <path d="M404.0497,169.788 C402.3157,169.743 400.8747,171.113 400.8297,172.848 C400.8277,172.903 400.8287,172.969 400.8297,173.023 L402.9767,233.248 C403.0017,234.088 403.7037,234.748 404.5447,234.723 C405.3547,234.698 405.9967,234.04 406.0197,233.24 L407.1107,173.008 C407.1537,171.273 405.7837,169.832 404.0497,169.788 M446.4597,232.641 L429.5667,172.093 C429.5517,172.04 429.5317,171.977 429.5157,171.926 C428.9487,170.219 427.2707,169.356 425.7677,170 C424.2637,170.642 423.5037,172.547 424.0707,174.254 L443.7957,233.687 C444.0597,234.476 444.8237,234.906 445.5407,234.649 C446.2827,234.382 446.6947,233.483 446.4597,232.641 M382.1727,170 C380.6687,169.356 378.9907,170.219 378.4247,171.926 C378.4077,171.977 378.3887,172.04 378.3737,172.093 L361.4807,232.641 C361.2447,233.483 361.6567,234.382 362.3997,234.649 C363.1157,234.906 363.8807,234.476 364.1437,233.687 L383.8697,174.254 C384.4357,172.547 383.6767,170.642 382.1727,170" id="Fill-27" fill="#00344A"></path>
                <path d="M351.3749,99.1171 L375.6109,160.3001 C377.1709,167.6701 383.6759,172.9421 391.2089,172.9421 L450.1449,172.9421 C452.1419,172.9421 453.7609,171.3231 453.7609,169.3261 C453.7609,167.5641 452.4909,166.0591 450.7549,165.7621 L423.2239,161.0481 C417.9159,160.1381 409.5979,155.9021 405.6839,150.7121 L374.7979,103.5071 C373.4969,100.8221 370.7769,99.1171 367.7939,99.1171 L351.3749,99.1171 Z" id="Fill-29" fill="#DAD6E6"></path>
                <path d="M413.6327,145.4354 L458.1807,149.6074 C460.9867,150.1074 463.0237,152.5554 463.0057,155.4064 L468.2837,227.3074 L464.3697,227.3074 C455.6227,203.2894 449.8337,187.7894 447.7757,167.3294 C435.3147,167.6244 420.3797,167.8694 409.6827,167.1724 C405.5347,166.9024 402.2877,163.4964 402.2877,159.3394 L402.1947,145.4354 L413.6327,145.4354 Z" id="Fill-31" fill="#0096FF"></path>
                <path d="M445.0702,155.5809 L445.0002,166.9509 C432.6942,167.1219 406.7362,168.2279 390.5192,167.1729 C386.3722,166.9019 383.1252,163.4959 383.1252,159.3399 L383.0312,145.4349 L413.1612,145.4349 L440.2442,149.7809 C443.0492,150.2819 445.0882,152.7299 445.0702,155.5809" id="Fill-33" fill="#0096FF"></path>
                <path d="M428.5702,166.9559 C429.3742,187.6039 434.2652,203.1419 441.6362,227.3079 L445.5492,227.3079 L445.0002,166.9509 L428.5702,166.9559 Z" id="Fill-35" fill="#0096FF"></path>
                <polygon id="Fill-37" fill="#414366" points="441.6366 227.3075 445.5496 227.3075 451.7446 231.4355 456.8746 232.2715 457.0706 234.7235 442.2286 234.7235"></polygon>
                <polygon id="Fill-39" fill="#414366" points="464.37 227.3075 468.284 227.3075 474.479 231.4355 479.608 232.2715 479.805 234.7235 464.962 234.7235"></polygon>
                <path d="M407.8651,86.0517 L419.5201,86.0517 C422.5711,89.7227 421.8701,111.1627 420.6291,125.0027 L446.2591,128.5107 L445.8811,131.8427 C437.8691,134.0767 421.6261,136.8157 411.8621,131.7377 C411.8621,131.7377 407.2751,101.4447 407.8651,86.0517" id="Fill-41" fill="#333333"></path>
                <polygon id="Fill-43" fill="#915C5C" points="446.2587 128.5106 452.4277 127.8126 456.7067 130.5906 457.5967 133.5876 454.5297 132.0056 445.8807 131.8426"></polygon>
                <path d="M414.7782,127.5458 C414.7782,117.6008 419.9282,94.3828 419.5202,86.0518 C407.1062,80.3558 388.3982,79.5008 374.8252,86.0518 C374.3752,100.0048 382.6742,129.7938 382.6742,129.7938 L381.6532,147.0258 L417.1222,147.0258 L414.7782,127.5458 Z" id="Fill-45" fill="#333333"></path>
                <polygon id="Fill-47" fill="#F2B892" points="402.2137 73.7518 403.6837 85.9198 394.2587 81.5538 395.2277 70.3298"></polygon>
                <path d="M405.8934,75.3964 C405.4824,77.2754 403.2384,78.4914 400.0734,76.3054 L395.3364,71.3464 L394.6134,62.7164 L399.3904,56.6884 L409.6104,59.8414 L405.8934,75.3964 Z" id="Fill-49" fill="#F2B892"></path>
                <path d="M403.0067,60.3632 C403.7727,60.4592 404.3107,61.1642 404.1997,61.9262 L403.9717,63.5052 C407.3677,64.0012 410.4337,64.1162 410.8237,60.6792 C411.0437,58.7412 409.6217,56.9912 407.7077,56.6142 L400.0977,55.1122 C395.6557,53.9822 392.0577,56.1912 391.6207,61.4452 C391.4017,64.0902 391.7877,69.9612 391.1197,72.5292 C390.4727,75.0222 392.1367,76.4822 394.7757,75.5722 C398.4627,74.2992 400.3777,66.1592 401.4977,61.4062 C401.6597,60.7222 402.3097,60.2762 403.0067,60.3632" id="Fill-51" fill="#37384F"></path>
                <path d="M400.0487,65.2196 L398.7547,66.1246 C397.9627,69.2406 397.3667,72.6486 396.8957,76.2386 L402.1117,78.1246 C405.0137,79.1186 406.6707,78.5986 406.6707,76.6346 L406.4847,72.9216 L400.3697,71.9356 L400.0487,65.2196 Z" id="Fill-53" fill="#37384F"></path>
                <path d="M378.8221,131.7372 C378.8221,131.7372 370.6731,90.1102 374.8251,86.0512 C378.7811,84.4012 386.4781,87.2072 387.1941,90.0132 C388.0231,102.3322 387.9391,113.4892 387.8091,125.5162 L378.8221,131.7372 Z" id="Fill-55" fill="#414141"></path>
                <path d="M387.4247,124.994 L413.2247,128.575 L412.8407,131.906 C404.8237,134.126 388.5767,136.833 378.8217,131.737 L387.4247,124.994 Z" id="Fill-57" fill="#414141"></path>
                <polygon id="Fill-59" fill="#915C5C" points="412.9061 128.5536 418.9831 127.2826 423.5031 129.6506 424.6691 132.5506 421.4671 131.2626 412.8411 131.9066"></polygon>
                <path d="M351.3749,99.1171 C348.4639,99.1171 346.2679,101.7631 346.8039,104.6241 L357.2289,160.3001 C358.7879,167.6701 365.2939,172.9421 372.8269,172.9421 L407.4229,172.9421 C405.7709,167.4621 401.7059,163.0361 396.3859,160.9251 C396.3859,160.9251 375.9249,154.1581 373.7839,149.2171 L355.5599,101.7401 C354.7819,100.1361 353.1569,99.1171 351.3749,99.1171" id="Fill-61" fill="#F6F6F6"></path>
                <path d="M435.6083,133.8114 L475.6103,133.8114 C476.2543,133.8114 476.7753,133.2904 476.7753,132.6464 L483.4653,104.8404 C483.6153,104.1974 483.2133,103.6754 482.5703,103.6754 L442.5693,103.6754 C441.9253,103.6754 441.2833,104.1974 441.1343,104.8404 L434.4443,132.6464 C434.4443,133.2904 434.9653,133.8114 435.6083,133.8114" id="Fill-63" fill="#5D5D5D"></path>
                <path d="M484.4842,103.6757 L444.4832,103.6757 C443.8392,103.6757 443.1982,104.1967 443.0492,104.8407 L436.3582,131.8967 L425.8292,131.8967 L425.8292,132.6467 C425.8292,133.2897 426.3502,133.8117 426.9942,133.8117 L437.5232,133.8117 L476.5672,133.8117 L477.5242,133.8117 C478.1682,133.8117 478.6892,133.2897 478.6892,132.6467 L485.3802,104.8407 C485.5292,104.1967 485.1282,103.6757 484.4842,103.6757" id="Fill-65" fill="#333333"></path>
                <path d="M436.3583,131.8964 L436.3583,132.6464 C436.3583,133.2904 435.8373,133.8114 435.1933,133.8114 L414.3373,133.8114 C413.6933,133.8114 413.1713,133.2904 413.1713,132.6464 L413.1713,131.8964 L436.3583,131.8964 Z" id="Fill-67" fill="#5D5D5D"></path>
                <path d="M638.6815,169.788 C636.9475,169.832 635.5775,171.273 635.6205,173.008 L636.7115,233.24 C636.7345,234.04 637.3765,234.698 638.1865,234.723 C639.0275,234.748 639.7295,234.088 639.7545,233.248 L641.9015,173.023 C641.9025,172.969 641.9035,172.903 641.9015,172.848 C641.8565,171.113 640.4155,169.743 638.6815,169.788 M681.2505,232.641 L664.3575,172.093 C664.3425,172.04 664.3245,171.977 664.3065,171.926 C663.7405,170.219 662.0625,169.356 660.5585,170 C659.0545,170.642 658.2955,172.547 658.8625,174.254 L678.5875,233.687 C678.8505,234.476 679.6155,234.906 680.3315,234.649 C681.0755,234.382 681.4865,233.483 681.2505,232.641 M616.9635,170 C615.4605,169.356 613.7825,170.219 613.2155,171.926 C613.1995,171.977 613.1795,172.04 613.1645,172.093 L596.2715,232.641 C596.0365,233.483 596.4485,234.382 597.1905,234.649 C597.9075,234.906 598.6715,234.476 598.9355,233.687 L618.6605,174.254 C619.2275,172.547 618.4675,170.642 616.9635,170" id="Fill-69" fill="#00344A"></path>
                <path d="M679.9315,99.1171 L674.2085,160.3001 L661.0045,172.9421 L597.2835,172.9421 C595.2855,172.9421 593.6665,171.3231 593.6665,169.3261 C593.6665,167.5641 594.9365,166.0591 596.6725,165.7621 L615.8285,161.0481 C621.2365,159.5221 625.8655,155.9021 629.7795,150.7121 L646.3055,103.5071 C647.6065,100.8221 650.3275,99.1171 653.3095,99.1171 L679.9315,99.1171 Z" id="Fill-71" fill="#DAD6E6"></path>
                <path d="M605.659,159.7909 C617.791,176.0629 624.302,192.2619 633.287,214.8719 L632.855,219.8249 L592.335,168.8959 L605.659,159.7909 Z" id="Fill-73" fill="#F7B690"></path>
                <polygon id="Fill-75" fill="#37384F" points="633.287 214.872 631.677 218.362 631.405 227.439 630.067 232.299 632.255 233.308 639.901 217.924"></polygon>
                <path d="M626.5155,165.7567 C629.6445,186.0357 628.0625,203.7037 625.4085,227.4397 L621.5645,227.4397 L610.3775,165.7507 L626.5155,165.7567 Z" id="Fill-77" fill="#F7B690"></path>
                <polygon id="Fill-79" fill="#37384F" points="625.4081 227.4393 621.5641 227.4393 615.8041 231.4933 610.8311 232.3143 610.8311 234.7233 625.4081 234.7233"></polygon>
                <path d="M598.1502,148.4022 L620.4912,143.8722 L659.7022,143.8722 C664.0582,153.1202 662.4292,169.2342 652.5462,169.2342 C634.8972,169.2342 609.3182,171.5472 591.0242,170.6962 L590.9322,156.8592 C590.8882,152.6332 593.9692,149.0232 598.1502,148.4022" id="Fill-81" fill="#0A3C5F"></path>
                <path d="M614.1971,115.2216 C616.4761,108.2256 620.3541,88.8576 623.9621,86.3016 L629.9451,98.4616 C626.4561,108.1516 622.9071,115.2556 617.7071,122.7596 C610.3421,125.8396 603.9031,128.1456 596.9961,129.4556 L595.8271,126.6616 C595.8271,126.6616 609.4751,118.6286 614.1971,115.2216" id="Fill-83" fill="#0096FF"></path>
                <path d="M592.1248,124.1503 L586.7588,126.0813 C586.0378,126.4713 585.2438,127.5283 584.9418,128.2553 L589.8708,128.1373 L591.6878,128.4733 L590.0428,128.9643 L590.2818,129.8103 L596.9958,129.4563 L596.7438,126.0723 L592.1248,124.1503 Z" id="Fill-85" fill="#915C5C"></path>
                <path d="M626.5086,122.8397 C626.5086,122.8397 623.5646,94.4047 623.9616,86.3017 C636.0356,80.7617 644.3316,79.9297 657.5336,86.3017 C657.9716,99.8727 651.7616,125.0177 651.7616,125.0177 L659.7016,143.8717 L620.4906,143.8717 L626.5086,122.8397 Z" id="Fill-87" fill="#0096FF"></path>
                <path d="M642.6737,114.9022 C642.6737,114.9012 647.2687,104.6362 648.2897,91.7912 C649.0197,82.6162 660.7597,82.7762 659.6247,93.2682 C658.4407,104.2152 654.7727,110.9612 647.8677,121.5832 C642.1437,124.0282 623.4867,128.8902 618.9177,129.0042 L618.1627,126.0722 L642.6737,114.9022 Z" id="Fill-89" fill="#2CA8FF"></path>
                <path d="M613.5448,124.1503 L608.1788,126.0813 C607.4578,126.4713 606.6628,127.5283 606.3608,128.2553 L611.2898,128.1373 L613.1078,128.4733 L611.4618,128.9643 L611.7018,129.8103 L618.9178,129.0043 L618.1628,126.0723 L613.5448,124.1503 Z" id="Fill-91" fill="#915C5C"></path>
                <polygon id="Fill-93" fill="#F7B690" points="631.9686 75.122 636.2036 86.198 640.9976 81.83 637.4676 69.925"></polygon>
                <path d="M627.8338,75.3915 C628.7668,77.0705 631.0898,78.0615 633.5398,75.9125 C634.7938,74.8145 637.2428,72.3675 637.8298,70.8065 C638.5698,68.8345 637.9968,62.3845 637.9968,62.3845 L632.9858,56.8295 L623.2628,60.5235 C623.7778,66.1385 625.4138,71.0355 627.8338,75.3915" id="Fill-95" fill="#F7B690"></path>
                <path d="M631.7459,63.2147 C631.7459,63.2147 625.7119,63.6097 623.6989,63.5437 C621.1479,63.4607 619.9689,61.5937 620.0239,58.6087 L622.6419,58.3187 L632.2029,55.3437 C636.4429,53.9717 639.1729,56.5907 639.3449,61.7147 L631.7459,63.2147 Z" id="Fill-97" fill="#37384F"></path>
                <path d="M647.0975,53.788 C647.0975,58.034 643.6555,61.476 639.4105,61.476 C635.1635,61.476 631.7215,58.034 631.7215,53.788 C631.7215,49.543 635.1635,46.101 639.4105,46.101 C643.6555,46.101 647.0975,49.543 647.0975,53.788" id="Fill-99" fill="#37384F"></path>
                <path d="M639.3446,61.7147 L631.6146,62.2007 C632.6676,68.3487 637.9966,71.8477 637.9966,71.8477 C639.3676,69.6027 640.7066,67.3167 639.8466,64.8297 C639.5266,63.9077 639.3466,62.8757 639.3446,61.7147" id="Fill-101" fill="#37384F"></path>
                <polygon id="Fill-103" fill="#0A3C5F" points="630.4911 165.4052 591.0241 169.2342 591.0241 174.8222 631.0681 174.8222"></polygon>
                <path d="M679.9315,99.1171 C680.9055,99.1171 681.6955,99.9061 681.6975,100.8811 L681.7905,159.6311 C681.7905,166.3111 673.5345,172.9421 666.2255,172.9421 L640.0045,172.9421 C641.6565,167.4621 645.7215,163.0361 651.0415,160.9251 C651.0415,160.9251 667.3965,155.5161 672.3915,150.8391 C673.1965,150.0861 673.6585,149.0401 673.7465,147.9421 L678.1735,100.7191 C678.2585,99.8111 679.0205,99.1171 679.9315,99.1171" id="Fill-105" fill="#F6F6F6"></path>
                <path d="M609.5106,133.8563 L569.5086,133.8563 C568.8656,133.8563 568.3446,133.3353 568.3446,132.6913 L561.6536,104.8853 C561.5046,104.2423 561.9056,103.7203 562.5486,103.7203 L602.5496,103.7203 C603.1936,103.7203 603.8356,104.2423 603.9846,104.8853 L610.6756,132.6913 C610.6756,133.3353 610.1546,133.8563 609.5106,133.8563" id="Fill-107" fill="#5D5D5D"></path>
                <path d="M560.6346,103.7206 L600.6356,103.7206 C601.2796,103.7206 601.9206,104.2416 602.0706,104.8856 L608.7606,131.9416 L619.2896,131.9416 L619.2896,132.6916 C619.2896,133.3346 618.7686,133.8566 618.1256,133.8566 L607.5956,133.8566 L568.5516,133.8566 L567.5946,133.8566 C566.9506,133.8566 566.4296,133.3346 566.4296,132.6916 L559.7386,104.8856 C559.5896,104.2416 559.9906,103.7206 560.6346,103.7206" id="Fill-109" fill="#333333"></path>
                <path d="M608.7606,131.9413 L608.7606,132.6913 C608.7606,133.3353 609.2816,133.8563 609.9256,133.8563 L630.7816,133.8563 C631.4256,133.8563 631.9476,133.3353 631.9476,132.6913 L631.9476,131.9413 L608.7606,131.9413 Z" id="Fill-111" fill="#5D5D5D"></path>
                <path d="M721.1844,155.5809 L721.2544,166.9509 C733.5594,167.1219 759.5184,168.2279 775.7354,167.1729 C779.8824,166.9019 783.1294,163.4959 783.1294,159.3399 L783.2234,145.4349 L753.0934,145.4349 L726.0094,149.7809 C723.2044,150.2819 721.1664,152.7299 721.1844,155.5809" id="Fill-113" fill="#37384F"></path>
                <path d="M737.6844,166.9559 C736.8804,187.6039 731.9894,203.1419 724.6184,227.3079 L720.7044,227.3079 L721.2544,166.9509 L737.6844,166.9559 Z" id="Fill-115" fill="#899AB3"></path>
                <polygon id="Fill-117" fill="#F6F6F6" points="724.618 227.3075 720.704 227.3075 714.51 231.4355 709.38 232.2715 709.184 234.7235 724.026 234.7235"></polygon>
                <path d="M752.6219,145.4354 L708.0739,149.6074 C705.2679,150.1074 703.2309,152.5554 703.2479,155.4064 L697.9699,227.3074 L701.8839,227.3074 C710.6309,203.2894 716.4199,187.7894 718.4789,167.3294 C730.9389,167.6244 745.8739,167.8694 756.5719,167.1724 C760.7199,166.9024 763.9659,163.4964 763.9659,159.3394 L764.0599,145.4354 L752.6219,145.4354 Z" id="Fill-119" fill="#37384F"></path>
                <polygon id="Fill-121" fill="#F6F6F6" points="701.8836 227.3075 697.9706 227.3075 691.7756 231.4355 686.6456 232.2715 686.4496 234.7235 701.2916 234.7235"></polygon>
                <path d="M756.4383,128.8925 C761.4873,118.7215 766.4623,104.8545 768.7663,91.1115 C769.4163,87.2345 766.8533,83.5435 763.0013,82.7605 C759.1763,81.9825 755.4013,84.3385 754.4533,88.1245 C751.5293,99.8065 749.6833,112.9455 748.6463,123.2545 L756.4383,128.8925 Z" id="Fill-123" fill="#BADC00"></path>
                <path d="M751.9334,120.9979 L717.3344,126.6029 L717.8614,129.9769 C726.1064,131.9099 746.7214,134.4729 756.4384,128.8929 L751.9334,120.9979 Z" id="Fill-125" fill="#BADC00"></path>
                <polygon id="Fill-127" fill="#F7B690" points="718.4295 126.6102 712.5905 124.1892 707.6205 125.7022 705.9065 128.3832 709.3535 127.7002 717.8615 129.9762"></polygon>
                <path d="M755.4803,125.6024 C755.4803,116.9084 756.0243,98.2494 756.4413,87.7794 C756.5513,85.0214 758.2583,82.5704 760.8203,81.5424 C769.6543,77.9974 776.0563,77.5284 785.5753,81.3174 C788.4253,82.4514 790.2623,85.2774 790.0433,88.3374 C788.9433,103.6254 782.1833,127.8904 782.1833,127.8904 L783.2233,145.4354 L753.0933,145.4354 L755.4803,125.6024 Z" id="Fill-129" fill="#BADC00"></path>
                <polygon id="Fill-131" fill="#F7B690" points="766.4745 70.8319 766.5235 83.2209 775.5655 78.7739 773.1545 67.3479"></polygon>
                <path d="M762.1141,71.6073 C762.4151,73.5433 764.6191,74.9203 767.9721,72.8963 L773.0951,68.1533 L774.3721,59.4293 L769.8941,53.0033 L759.3121,55.5683 L762.1141,71.6073 Z" id="Fill-133" fill="#F7B690"></path>
                <path d="M769.2752,51.3583 L758.9572,53.1973 L756.2002,53.1563 C755.4542,56.5763 756.4752,58.4753 759.3712,58.7623 L767.7702,59.4733 C768.3402,62.6693 769.5022,63.9203 769.8972,63.0953 C770.4152,62.0133 770.8922,61.0883 771.5512,61.2323 C772.2122,61.3753 772.7132,62.4933 772.2852,63.6143 C771.2212,66.3953 773.3152,68.9783 773.3152,68.9783 C774.8582,68.1073 774.8052,67.1883 775.0292,65.4313 L775.8582,58.9103 C776.3502,53.5653 773.8592,50.4883 769.2752,51.3583" id="Fill-135" fill="#945561"></path>
                <path d="M771.12,128.8925 C776.919,119.1305 782.925,105.6765 786.256,92.1455 C787.195,88.3295 784.918,84.4555 781.136,83.3855 C777.38,82.3215 773.438,84.3865 772.208,88.0915 C768.413,99.5195 765.584,112.4825 763.773,122.6845 L771.12,128.8925 Z" id="Fill-137" fill="#CCE543"></path>
                <path d="M766.6141,120.9979 L732.0161,126.6029 L732.5421,129.9769 C740.7871,131.9099 761.4021,134.4729 771.1201,128.8929 L766.6141,120.9979 Z" id="Fill-139" fill="#CCE543"></path>
                <polygon id="Fill-141" fill="#F7B690" points="733.1112 126.6102 727.2712 124.1892 722.3022 125.7022 720.5882 128.3832 724.0352 127.7002 732.5422 129.9762"></polygon>
                <path d="M690.2459,101.9638 L672.3879,101.9638 L681.1539,132.5668 C681.3649,133.3038 682.0389,133.8118 682.8059,133.8118 L700.8089,133.8118 L690.2459,101.9638 Z" id="Fill-143" fill="#333333"></path>
                <path d="M700.1356,133.8114 L725.0396,133.8114 C725.5566,133.8114 725.9746,133.3934 725.9746,132.8764 C725.9746,132.3604 725.5566,131.9414 725.0396,131.9414 L700.1356,131.9414 C699.6186,131.9414 699.2006,132.3604 699.2006,132.8764 C699.2006,133.3934 699.6186,133.8114 700.1356,133.8114" id="Fill-145" fill="#5D5D5D"></path>
                <polygon id="Fill-147" fill="#5D5D5D" points="691.4422 101.9638 689.6762 101.9638 699.2012 132.8768 701.6932 132.6208"></polygon>
                <path d="M721.535,234.6493 C722.252,234.9063 723.016,234.4753 723.28,233.6873 L743.006,174.2533 C743.572,172.5463 742.812,170.6423 741.309,170.0003 C739.806,169.3563 738.128,170.2183 737.561,171.9253 C737.544,171.9773 737.525,172.0403 737.511,172.0923 L720.617,232.6403 C720.382,233.4833 720.793,234.3813 721.535,234.6493 M771.241,174.2533 L790.968,233.6873 C791.23,234.4753 791.995,234.9063 792.712,234.6493 C793.454,234.3813 793.865,233.4833 793.631,232.6403 L776.737,172.0923 C776.723,172.0403 776.703,171.9773 776.686,171.9253 C776.12,170.2183 774.441,169.3563 772.938,170.0003 C771.434,170.6423 770.675,172.5463 771.241,174.2533" id="Fill-149" fill="#00344A"></path>
                <path d="M803.7362,99.1171 C806.6472,99.1171 808.8422,101.7631 808.3072,104.6241 L797.8822,160.3001 C796.3222,167.6701 789.8172,172.9421 782.2842,172.9421 L723.3492,172.9421 C721.3512,172.9421 719.7322,171.3231 719.7322,169.3261 C719.7322,167.5641 721.0022,166.0591 722.7392,165.7621 L764.6022,158.5941 C769.9102,157.6841 774.4002,154.1581 776.5412,149.2171 L799.5512,101.7401 C800.3292,100.1361 801.9542,99.1171 803.7362,99.1171" id="Fill-151" fill="#F6F6F6"></path>
                <mask id="mask-2" fill="white">
                    <use xlink:href="#path-1"></use>
                </mask>
                <g id="Clip-154"></g>
                <polygon id="Fill-153" fill="#3D4D66" mask="url(#mask-2)" points="387.834 234.724 406.113 234.724 406.113 133.857 387.834 133.857"></polygon>
                <polygon id="Fill-155" fill="#3D4D66" mask="url(#mask-2)" points="713.615 234.724 731.895 234.724 731.895 133.857 713.615 133.857"></polygon>
                <polygon id="Fill-156" fill="#60718D" mask="url(#mask-2)" points="387.833 145.435 731.895 145.435 731.895 133.856 387.833 133.856"></polygon>
                <path d="M592.5731,103.7206 L552.5711,103.7206 C551.9271,103.7206 551.2861,104.2416 551.1371,104.8856 L544.4461,131.9416 L533.9171,131.9416 L533.9171,132.6916 C533.9171,133.3346 534.4381,133.8566 535.0821,133.8566 L545.6111,133.8566 L584.6551,133.8566 L585.6121,133.8566 C586.2561,133.8566 586.7771,133.3346 586.7771,132.6916 L593.4691,104.8856 C593.6171,104.2416 593.2161,103.7206 592.5731,103.7206" id="Fill-157" fill="#FFFFFF" mask="url(#mask-2)"></path>
                <polygon id="Fill-158" fill="#37384F" mask="url(#mask-2)" points="546.2059 131.9413 552.7109 105.6353 591.5359 105.6353 585.2059 131.9413"></polygon>
                <path d="M526.1669,166.9559 C523.8579,187.6029 526.1289,203.1419 529.8559,227.3079 L533.7709,227.3079 L542.5979,166.9499 L526.1669,166.9559 Z" id="Fill-159" fill="#37384F" mask="url(#mask-2)"></path>
                <polygon id="Fill-160" fill="#2B383D" mask="url(#mask-2)" points="529.8963 227.3075 533.8103 227.3075 539.6753 231.4345 544.7383 232.2705 544.7383 234.7235 529.8963 234.7235"></polygon>
                <path d="M543.9471,156.2186 L542.5971,166.9496 C530.2921,167.1216 516.8581,168.2286 500.6411,167.1716 C496.4941,166.9016 493.2471,163.4956 493.2471,159.3396 L493.1531,145.4346 L510.2041,144.8506 L539.1101,149.7156 C542.2051,150.2366 544.3391,153.1046 543.9471,156.2186" id="Fill-161" fill="#37384F" mask="url(#mask-2)"></path>
                <path d="M574.3368,155.58 L574.2668,166.95 C561.9618,167.122 536.5628,168.228 520.3458,167.172 C516.1978,166.901 512.9508,163.496 512.9508,159.34 L512.8578,145.434 L529.9068,144.851 L569.5108,149.781 C572.3168,150.281 574.3548,152.73 574.3368,155.58" id="Fill-162" fill="#37384F" mask="url(#mask-2)"></path>
                <path d="M557.8368,166.9559 C558.6408,187.6029 563.5318,203.1419 570.9028,227.3079 L574.8168,227.3079 L574.2668,166.9499 L557.8368,166.9559 Z" id="Fill-163" fill="#37384F" mask="url(#mask-2)"></path>
                <polygon id="Fill-164" fill="#2B383D" mask="url(#mask-2)" points="570.9032 227.3075 574.8172 227.3075 581.0112 231.4345 586.1412 232.2705 586.3372 234.7235 571.4952 234.7235"></polygon>
                <polygon id="Fill-165" fill="#F2B892" mask="url(#mask-2)" points="513.2323 70.5819 514.6093 81.5559 505.9073 83.1689 506.2293 67.1919"></polygon>
                <path d="M517.661,72.0018 C517.332,73.8968 515.142,75.2088 511.886,73.1628 L506.938,68.4138 L505.986,60.9658 C505.892,60.2318 506.082,59.4908 506.515,58.8928 L507.803,57.1138 C509.339,54.9918 512.02,54.0298 514.556,54.6928 L518.063,55.6108 C519.545,55.9988 520.472,57.4708 520.181,58.9748 L517.661,72.0018 Z" id="Fill-166" fill="#F2B892" mask="url(#mask-2)"></path>
                <path d="M514.7782,59.8212 L520.0852,59.4682 C521.0672,51.0562 510.9892,51.9882 510.9892,51.9882 C506.5032,51.0532 501.1832,54.0692 501.3772,59.3372 C501.4902,62.4342 502.2292,64.0372 503.0182,64.8622 C504.2652,66.1662 504.9392,67.9132 505.0902,69.7112 C505.1682,70.6332 505.4042,71.4192 506.0142,71.7782 L509.5502,71.7782 C512.0182,71.7782 514.4412,65.2342 514.7782,59.8212" id="Fill-167" fill="#37384F" mask="url(#mask-2)"></path>
                <path d="M526.8797,125.6014 C526.8797,115.4764 532.1227,91.8364 531.7077,83.3544 C521.5507,78.6944 507.2567,77.2164 494.8627,80.2774 C489.5337,81.5924 486.0657,86.7264 486.7017,92.1784 C488.4757,107.3684 494.1927,127.8904 494.1927,127.8904 L493.1527,145.4344 L529.2657,145.4344 L526.8797,125.6014 Z" id="Fill-168" fill="#FF4B00" mask="url(#mask-2)"></path>
                <path d="M530.1942,98.9286 L523.7972,93.2476 C522.7302,105.4916 522.5982,116.1946 527.3402,118.8576 C527.9902,112.9586 529.2062,105.6206 530.1942,98.9286" id="Fill-169" fill="#FFB95D" mask="url(#mask-2)"></path>
                <path d="M536.0379,123.6991 C530.9469,118.9371 525.4599,104.2751 520.7289,87.8581 L531.7079,83.3541 C538.1199,94.5401 543.2009,107.9531 547.7069,120.8971 L536.0379,123.6991 Z" id="Fill-170" fill="#FF4B00" mask="url(#mask-2)"></path>
                <path d="M545.9881,118.4384 L571.1131,126.3404 L570.1641,129.6204 C561.7411,130.4934 544.9701,130.4644 536.0381,123.6994 L545.9881,118.4384 Z" id="Fill-171" fill="#FF4B00" mask="url(#mask-2)"></path>
                <path d="M570.1639,129.62 L576.1429,128.806 L579.8789,130.104 L579.9269,128.924 C579.9819,127.545 579.2229,126.261 577.9849,125.647 L576.0019,124.664 L579.9169,124.579 L580.3419,123.723 L574.0189,123.681 L570.0889,126.207 L570.1639,129.62 Z" id="Fill-172" fill="#F4ACC8" mask="url(#mask-2)"></path>
                <path d="M561.9432,232.6405 L545.0492,172.0925 C545.0352,172.0395 545.0162,171.9775 544.9992,171.9255 C544.4322,170.2185 542.7552,169.3565 541.2512,169.9995 C539.7482,170.6425 538.9882,172.5465 539.5542,174.2535 L559.2802,233.6875 C559.5442,234.4755 560.3082,234.9065 561.0252,234.6495 C561.7672,234.3815 562.1782,233.4835 561.9432,232.6405 M509.6222,169.9995 C508.1192,169.3565 506.4402,170.2185 505.8742,171.9255 C505.8572,171.9775 505.8382,172.0395 505.8232,172.0925 L488.9292,232.6405 C488.6952,233.4835 489.1062,234.3815 489.8482,234.6495 C490.5652,234.9065 491.3302,234.4755 491.5922,233.6875 L511.3192,174.2535 C511.8852,172.5465 511.1262,170.6425 509.6222,169.9995" id="Fill-173" fill="#00344A" mask="url(#mask-2)"></path>
                <path d="M551.0545,149.2167 L543.6755,119.1987 C540.7775,107.4067 530.2025,99.1167 518.0595,99.1167 L490.0685,99.1167 C485.0635,99.1167 480.9955,103.1557 480.9605,108.1607 L480.7285,141.4617 C480.6925,146.5547 481.9015,151.5787 484.2505,156.0987 C489.6305,166.4477 500.3255,172.9427 511.9895,172.9427 L554.6535,172.9427 C557.6075,172.9427 560.0015,170.5477 560.0015,167.5937 C560.0015,166.7287 559.7915,165.8757 559.3895,165.1097 L551.0545,149.2167 Z" id="Fill-174" fill="#F6F6F6" mask="url(#mask-2)"></path>
                <path d="M539.367,172.9423 C521.915,166.7033 508.757,152.1253 504.332,134.1273 L504.038,132.9313 C501.341,121.9603 491.996,114.0293 480.928,112.9783 L480.731,141.0453 C480.711,143.9533 481,146.8673 481.756,149.6743 C485.527,163.6913 498.067,172.9423 511.989,172.9423 L539.367,172.9423 Z" id="Fill-175" fill="#DAD6E6" mask="url(#mask-2)"></path>
                <path d="M860.5487,107.7177 C865.0937,124.9757 867.0527,144.4207 867.7747,161.6677 C875.9717,180.9317 882.7917,202.0227 886.1797,225.4397 L875.3957,225.4397 L851.7207,163.7517 L838.5207,107.7177 L860.5487,107.7177 Z" id="Fill-176" fill="#333333" mask="url(#mask-2)"></path>
                <polygon id="Fill-177" fill="#FFFFFF" mask="url(#mask-2)" points="878.9852 225.4393 883.7872 225.4393 887.8862 229.4943 890.0392 230.3153 890.1892 232.7233 879.4402 232.7233"></polygon>
                <path d="M847.2909,103.6161 C847.9039,121.5681 844.9139,144.8631 841.5019,162.8551 C843.3639,183.1361 842.9549,200.5271 841.4519,225.4391 L830.4289,225.4391 L825.4879,163.7521 L825.0329,107.7181 L847.2909,103.6161 Z" id="Fill-178" fill="#333333" mask="url(#mask-2)"></path>
                <polygon id="Fill-179" fill="#FFFFFF" mask="url(#mask-2)" points="837.8622 225.4393 832.8212 225.4393 826.8072 229.4943 821.7832 230.3153 821.6332 232.7233 837.4072 232.7233"></polygon>
                <path d="M825.4628,90.5614 C823.6568,80.6164 815.7968,55.1504 814.6918,46.8194 C827.3778,41.7484 845.5358,39.0724 859.3878,46.8194 C862.3708,60.7724 859.4818,90.5614 859.4818,90.5614 L860.5028,107.7934 L825.0328,107.7934 L825.5028,90.5614 L825.4628,90.5614 Z" id="Fill-180" fill="#6727E5" mask="url(#mask-2)"></path>
                <polygon id="Fill-181" fill="#F7B690" mask="url(#mask-2)" points="831.8817 36.9022 833.6527 49.0302 841.6037 42.3462 837.7277 31.7692"></polygon>
                <path d="M827.4657,35.1757 C827.4237,37.0987 829.3187,38.8097 832.9087,37.4297 L838.6797,33.7257 L841.4137,25.5087 L838.1907,18.5247 L827.5167,19.1837 L827.4657,35.1757 Z" id="Fill-182" fill="#F7B690" mask="url(#mask-2)"></path>
                <path d="M837.5243,28.163 C835.7583,30.619 835.0263,28.968 835.0233,24.415 L827.0233,22.282 C824.6673,21.377 823.6653,19.694 827.5813,16.83 C829.6583,15.31 837.8753,16.827 837.8753,16.827 C842.4573,16.774 844.3363,20.179 842.9413,25.262 L841.0173,31.426 C840.4993,33.087 840.3913,33.983 838.7503,34.56 L837.2763,30.727 L837.5243,28.163 Z" id="Fill-183" fill="#37384F" mask="url(#mask-2)"></path>
                <path d="M836.4569,28.2841 C836.0089,29.3741 836.1429,30.4621 836.7559,30.7141 C837.3689,30.9651 838.2289,30.2861 838.6769,29.1961 C839.1249,28.1061 838.9899,27.0181 838.3779,26.7661 C837.7649,26.5141 836.9039,27.1941 836.4569,28.2841" id="Fill-184" fill="#F7B690" mask="url(#mask-2)"></path>
                <path d="M845.078,126.1132 L893.633,126.1132 C894.707,126.1132 895.578,125.2432 895.578,124.1692 L895.578,93.0952 C895.578,92.0212 894.707,91.1502 893.633,91.1502 L845.078,91.1502 C844.004,91.1502 843.133,92.0212 843.133,93.0952 L843.133,124.1692 C843.133,125.2432 844.004,126.1132 845.078,126.1132" id="Fill-185" fill="#F6F6F6" mask="url(#mask-2)"></path>
                <path d="M884.1219,71.9354 C881.7249,69.4024 878.2529,65.7564 874.5189,61.9004 L864.1799,72.3024 L880.0539,84.5024 L886.5509,80.1604 C887.1009,77.1844 886.2019,74.1324 884.1219,71.9354" id="Fill-186" fill="#F7B690" mask="url(#mask-2)"></path>
                <path d="M859.3876,46.8192 L851.4136,62.4912 L864.1796,72.3022 L874.5196,61.9002 C869.2506,56.4582 863.4556,50.5932 859.3876,46.8192" id="Fill-187" fill="#6727E5" mask="url(#mask-2)"></path>
                <path d="M874.4032,80.1601 L886.5502,80.1601 C881.5102,90.6821 874.9382,102.3251 870.1612,108.3981 L866.7372,108.1691 L874.4032,80.1601 Z" id="Fill-188" fill="#F7B690" mask="url(#mask-2)"></path>
                <polygon id="Fill-189" fill="#F7B690" mask="url(#mask-2)" points="863.7606 117.1561 863.9096 114.8681 863.8456 113.0401 862.9696 116.9461 862.0496 116.9791 862.5746 112.0311 866.7376 108.1691 870.1606 108.3981 869.6286 113.1861 867.0766 118.5951 864.7436 118.0201 862.4156 119.7651 861.9586 119.2781"></polygon>
                <path d="M785.4481,46.4569 L781.7431,50.9499 L783.0501,56.7479 C783.0501,56.7479 793.4301,58.6539 804.4371,60.0339 L804.4371,45.7109 L785.4481,46.4569 Z" id="Fill-190" fill="#F7B690" mask="url(#mask-2)"></path>
                <path d="M823.7977,61.3983 L822.4897,45.0023 L804.4377,45.7103 L804.4377,60.0343 C811.4877,60.9183 818.7947,61.5863 823.7977,61.3983" id="Fill-191" fill="#6727E5" mask="url(#mask-2)"></path>
                <path d="M791.8973,46.1483 L783.0493,56.7483 C779.1733,45.7433 771.6753,29.0413 770.7593,21.3683 L773.3423,19.1103 L791.8973,46.1483 Z" id="Fill-192" fill="#F7B690" mask="url(#mask-2)"></path>
                <polygon id="Fill-193" fill="#F7B690" mask="url(#mask-2)" points="772.9129 10.2323 772.1929 10.2393 771.5589 14.6933 766.6049 8.0013 763.9549 9.8213 767.7509 17.6063 770.7599 21.3683 773.3429 19.1103 773.5139 14.5533"></polygon>
                <g id="Group-139">
                    <polygon id="Fill-1" fill="#616D7D" points="201.3481 120.3416 182.3481 120.3416 172.8471 98.8016 191.8481 98.8016"></polygon>
                    <polygon id="Fill-2" fill="#333333" points="199.2133 120.3416 180.2123 120.3416 170.7113 98.8016 189.7123 98.8016"></polygon>
                    <g id="Group-138" transform="translate(0.000000, 0.667000)">
                        <path d="M202.8813,116.864 L166.4103,116.864 C165.6343,116.864 165.0053,117.493 165.0053,118.269 C165.0053,119.046 165.6343,119.675 166.4103,119.675 L202.8813,119.675 C203.6573,119.675 204.2863,119.046 204.2863,118.269 C204.2863,117.493 203.6573,116.864 202.8813,116.864" id="Fill-3" fill="#333333"></path>
                        <path d="M146.8862,105.448 C143.3752,105.448 140.9222,102.592 141.4182,99.081 L149.6672,40.732 C150.1642,37.22 153.4242,34.364 156.9362,34.364 L231.9662,34.364 C235.4772,34.364 237.9302,37.22 237.4342,40.732 L229.1852,99.081 C228.6882,102.592 225.4282,105.448 221.9172,105.448 L146.8862,105.448 Z" id="Fill-5" fill="#424242"></path>
                        <path d="M143.4145,105.448 C139.9035,105.448 137.4505,102.592 137.9465,99.081 L146.1955,40.732 C146.6925,37.22 149.9525,34.364 153.4645,34.364 L228.4945,34.364 C232.0055,34.364 234.4585,37.22 233.9625,40.732 L225.7125,99.081 C225.2165,102.592 221.9565,105.448 218.4455,105.448 L143.4145,105.448 Z" id="Fill-7" fill="#333333"></path>
                        <path d="M144.0776,100.7585 C142.0406,100.7585 140.6236,99.1075 140.9106,97.0705 L148.5926,42.7415 C148.8796,40.7055 150.7646,39.0545 152.8016,39.0545 L227.8316,39.0545 C229.8686,39.0545 231.2856,40.7045 230.9976,42.7415 L223.3166,97.0705 C223.0286,99.1075 221.1446,100.7585 219.1076,100.7585 L144.0776,100.7585 Z" id="Fill-9" fill="#F7F6F0"></path>
                        <path d="M226.1557,51.9744 L150.9137,51.9744 C150.1587,51.9744 149.6347,51.3634 149.7437,50.6094 L150.2427,47.1434 C150.3507,46.3884 151.0517,45.7774 151.8047,45.7774 L227.0477,45.7774 C227.8017,45.7774 228.3257,46.3884 228.2167,47.1434 L227.7177,50.6094 C227.6097,51.3634 226.9097,51.9744 226.1557,51.9744" id="Fill-11" fill="#BCCACE"></path>
                        <path d="M155.6743,88.613 L145.7303,88.613 C144.9263,88.613 144.3693,87.963 144.4853,87.16 L148.9673,56.01 C149.0823,55.208 149.8263,54.557 150.6293,54.557 L160.5743,54.557 C161.3773,54.557 161.9353,55.208 161.8193,56.01 L157.3373,87.16 C157.2223,87.963 156.4773,88.613 155.6743,88.613" id="Fill-13" fill="#BCCACE"></path>
                        <path d="M222.0121,78.7146 L195.5721,78.7146 C194.7691,78.7146 194.2111,78.0646 194.3261,77.2606 L197.3841,56.0106 C197.5001,55.2076 198.2441,54.5576 199.0471,54.5576 L225.4891,54.5576 C226.2911,54.5576 226.8481,55.2076 226.7331,56.0106 L223.6751,77.2606 C223.5601,78.0646 222.8161,78.7146 222.0121,78.7146" id="Fill-15" fill="#BCCACE"></path>
                        <path d="M222.9438,82.3464 C223.0678,81.4854 222.5618,80.7864 221.8128,80.7864 L195.1738,80.7864 C194.4258,80.7864 193.7188,81.4854 193.5948,82.3464 L191.9138,94.0354 L221.2618,94.0354 L222.9438,82.3464 Z" id="Fill-17" fill="#BCCACE"></path>
                        <path d="M191.726,71.4304 C191.85,70.5694 191.344,69.8704 190.596,69.8704 L180.453,69.8704 C179.705,69.8704 178.997,70.5694 178.873,71.4304 L175.622,94.0354 L188.474,94.0354 L191.726,71.4304 Z" id="Fill-19" fill="#BCCACE"></path>
                        <path d="M156.5912,92.3445 C156.7152,91.4835 156.2092,90.7845 155.4612,90.7845 L145.3192,90.7845 C144.5702,90.7845 143.8622,91.4835 143.7382,92.3445 L143.4952,94.0355 L156.3482,94.0355 L156.5912,92.3445 Z" id="Fill-21" fill="#BCCACE"></path>
                        <path d="M173.2172,76.7351 L163.2722,76.7351 C162.4692,76.7351 161.9122,76.0841 162.0282,75.2811 L164.8002,56.0101 C164.9152,55.2081 165.6602,54.5571 166.4632,54.5571 L176.4072,54.5571 C177.2112,54.5571 177.7682,55.2081 177.6532,56.0101 L174.8802,75.2811 C174.7642,76.0841 174.0202,76.7351 173.2172,76.7351" id="Fill-23" fill="#BCCACE"></path>
                        <path d="M181.3012,54.5574 L179.6082,66.3304 C179.4842,67.1934 179.9892,67.8904 180.7382,67.8904 L190.8802,67.8904 C191.6282,67.8904 192.3352,67.1934 192.4592,66.3304 L194.1542,54.5574 L181.3012,54.5574 Z" id="Fill-25" fill="#BCCACE"></path>
                        <path d="M174.6205,80.2742 C174.7445,79.4132 174.2375,78.7142 173.4895,78.7142 L163.3475,78.7142 C162.5995,78.7142 161.8915,79.4132 161.7675,80.2742 L159.7875,94.0362 L172.6405,94.0362 L174.6205,80.2742 Z" id="Fill-27" fill="#BCCACE"></path>
                        <polygon id="Fill-29" fill="#FF3453" points="155.5883 63.4031 149.6233 63.4031 150.6103 56.5371 156.5753 56.5371"></polygon>
                        <path d="M147.893,75.4236 L152.6,75.4236 L152.769,74.2446 L148.063,74.2446 L147.893,75.4236 Z M148.211,73.2126 L157.845,73.2126 L158.015,72.0326 L148.381,72.0326 L148.211,73.2126 Z M148.53,71.0006 L158.164,71.0006 L158.333,69.8216 L148.7,69.8216 L148.53,71.0006 Z M148.848,68.7886 L158.482,68.7886 L158.652,67.6106 L149.018,67.6106 L148.848,68.7886 Z M149.336,65.3986 L149.166,66.5766 L158.8,66.5766 L158.969,65.3986 L149.336,65.3986 Z" id="Fill-31" fill="#F7F6F0"></path>
                        <polygon id="Fill-33" fill="#FDD247" points="171.4213 63.4031 165.4563 63.4031 166.4443 56.5371 172.4093 56.5371"></polygon>
                        <path d="M163.727,75.4236 L168.433,75.4236 L168.603,74.2446 L163.897,74.2446 L163.727,75.4236 Z M164.045,73.2126 L173.679,73.2126 L173.848,72.0326 L164.214,72.0326 L164.045,73.2126 Z M164.364,71.0006 L173.997,71.0006 L174.166,69.8216 L164.533,69.8216 L164.364,71.0006 Z M164.681,68.7886 L174.315,68.7886 L174.485,67.6106 L164.851,67.6106 L164.681,68.7886 Z M165.169,65.3986 L164.999,66.5766 L174.633,66.5766 L174.803,65.3986 L165.169,65.3986 Z" id="Fill-35" fill="#F7F6F0"></path>
                        <polygon id="Fill-37" fill="#0096FF" points="185.5102 78.7166 179.5452 78.7166 180.5332 71.8506 186.4982 71.8506"></polygon>
                        <path d="M177.8159,90.7371 L182.5219,90.7371 L182.6919,89.5581 L177.9859,89.5581 L177.8159,90.7371 Z M178.1339,88.5261 L187.7679,88.5261 L187.9369,87.3461 L178.3029,87.3461 L178.1339,88.5261 Z M178.4529,86.3141 L188.0859,86.3141 L188.2549,85.1351 L178.6219,85.1351 L178.4529,86.3141 Z M178.7699,84.1021 L188.4039,84.1021 L188.5739,82.9241 L178.9399,82.9241 L178.7699,84.1021 Z M179.2579,80.7121 L179.0879,81.8901 L188.7219,81.8901 L188.8919,80.7121 L179.2579,80.7121 Z" id="Fill-39" fill="#F7F6F0"></path>
                        <path d="M182.061,61.2322 L186.535,61.2322 L186.705,60.0522 L182.231,60.0522 L182.061,61.2322 Z M182.379,59.0202 L192.013,59.0202 L192.182,57.8412 L182.549,57.8412 L182.379,59.0202 Z M182.867,55.6292 L182.698,56.8082 L192.332,56.8082 L192.5,55.6292 L182.867,55.6292 Z" id="Fill-41" fill="#F7F6F0"></path>
                        <polygon id="Fill-43" fill="#0096FF" points="223.4828 63.4031 198.1188 63.4031 199.1058 56.5371 224.4708 56.5371"></polygon>
                        <path d="M197.3432,68.7888 L212.3892,68.7888 L212.5592,67.6098 L197.5132,67.6098 L197.3432,68.7888 Z M197.8312,65.3978 L197.6612,66.5768 L223.0272,66.5768 L223.1962,65.3978 L197.8312,65.3978 Z" id="Fill-45" fill="#F7F6F0"></path>
                        <polygon id="Fill-47" fill="#6727E5" points="167.9321 87.6531 161.9671 87.6531 162.9551 80.7871 168.9201 80.7871"></polygon>
                        <path d="M161.1928,93.0388 L167.3858,93.0388 L167.5558,91.8598 L161.3618,91.8598 L161.1928,93.0388 Z M161.6798,89.6478 L161.5108,90.8268 L171.1438,90.8268 L171.3138,89.6478 L161.6798,89.6478 Z" id="Fill-49" fill="#F7F6F0"></path>
                        <polygon id="Fill-51" fill="#66BCD5" points="152.5698 84.3796 146.6048 84.3796 147.5928 77.5136 153.5578 77.5136"></polygon>
                        <polygon id="Fill-53" fill="#F7F6F0" points="146.3178 86.3748 146.1478 87.5538 155.7818 87.5538 155.9518 86.3748"></polygon>
                        <path d="M123.6127,71.7195 C125.6697,80.3055 128.7197,88.6525 132.7077,96.5295 C133.7877,98.6625 135.3377,101.0325 137.7247,101.1685 C140.4837,101.3255 142.7757,98.5245 143.2397,95.8005 C144.5077,88.3395 142.6387,76.3745 140.5967,66.2405 L123.6127,71.7195 Z" id="Fill-55" fill="#F7B690"></path>
                        <path d="M141.434,62.491 C140.122,56.267 138.078,40.34 129.714,39.634 C119.928,38.807 119.743,53.155 120.476,59.387 C120.997,63.803 121.785,68.187 122.821,72.512 L142.213,66.257 C141.958,64.995 141.698,63.738 141.434,62.491" id="Fill-57" fill="#0096FF"></path>
                        <path d="M166.3266,63.0261 C167.8156,62.1321 169.6746,61.2231 171.1926,62.0661 C173.4316,63.3091 172.5326,66.7091 171.2586,68.9291 C164.5696,80.5861 155.3736,90.7871 144.5046,98.6851 C138.4846,103.0601 135.6466,102.1441 132.4716,95.4401 C128.9716,88.0551 157.0466,68.5941 166.3266,63.0261" id="Fill-59" fill="#F7B690"></path>
                        <path d="M169.5004,56.9187 C173.3414,53.8647 178.7044,53.8837 183.6084,54.0447 C183.8764,54.6627 183.3474,55.3637 182.7344,55.6457 C182.1224,55.9257 181.4194,55.9607 180.8054,56.2367 C179.1884,56.9627 178.7224,59.0327 178.7424,60.8047 C178.7634,62.5757 179.0314,64.4777 178.1464,66.0117 C177.2434,67.5757 175.3484,68.3137 173.5464,68.4417 C171.3574,68.5997 165.8984,67.5357 165.3184,64.8167 C164.7864,62.3147 167.7054,58.3447 169.5004,56.9187" id="Fill-61" fill="#F7B690"></path>
                        <path d="M111.2065,91.3142 C109.0655,86.1212 86.4705,92.3822 82.6505,101.0642 C80.1515,102.8002 78.0745,105.5242 77.0805,108.2762 C75.4275,112.8572 76.0115,117.4162 76.6715,121.7382 C79.0365,137.2202 82.0885,152.4622 85.8155,167.4152 C86.0905,168.5152 86.3875,169.6492 87.1385,170.4372 C89.0565,172.4512 92.2345,171.6072 95.0025,169.7492 C95.1905,169.8412 95.3845,169.9252 95.5885,169.9892 C97.3785,170.5482 103.1875,167.0022 104.4595,165.5782 C105.7315,164.1532 112.9305,95.4942 111.2065,91.3142" id="Fill-63" fill="#333333"></path>
                        <path d="M85.1743,226.781 C87.8403,227.186 90.7063,226.959 93.4863,226.121 C93.8533,222.898 94.2203,219.677 94.5873,216.454 C94.6343,216.047 94.6773,215.62 94.5193,215.275 C94.2853,214.769 93.6843,214.573 93.1113,214.469 C90.9453,214.076 87.5693,213.953 87.0153,216.749 C86.3543,220.091 85.7903,223.438 85.1743,226.781" id="Fill-65" fill="#F4A086"></path>
                        <path d="M105.6987,155.1404 C103.8377,149.4354 96.4067,145.5254 89.8327,155.4214 C79.8037,170.5154 88.8397,198.7474 85.9867,216.9754 L95.3467,216.9754 C96.1357,215.2104 106.7307,158.3054 105.6987,155.1404" id="Fill-67" fill="#333333"></path>
                        <path d="M62.7465,108.032 C65.0245,109.827 68.0385,110.101 70.8645,110.101 C94.1325,110.101 107.5965,102.535 104.3785,91.847 C101.0725,80.869 80.2505,82.64 69.3745,86.178 C67.0295,86.941 63.6135,87.679 62.0125,89.869 C59.6905,93.042 57.2095,103.671 62.7465,108.032" id="Fill-69" fill="#A0B5BF"></path>
                        <path d="M58.3315,100.282 C61.6325,84.767 89.4665,88.605 92.6845,104.005 C94.3425,111.937 92.2415,120.155 89.5715,127.806 C87.3805,134.084 84.7945,140.222 81.8355,146.177 C79.1775,151.526 76.0725,158.532 72.8315,163.55 C72.4725,164.107 58.6815,163.362 58.1765,160.415 C56.9255,153.107 56.1445,145.68 55.8345,138.215 C55.3175,125.776 55.7275,112.523 58.3315,100.282" id="Fill-71" fill="#333333"></path>
                        <path d="M111.8676,231.5154 C111.9876,230.1764 110.7166,229.0674 109.4086,228.7544 C108.0996,228.4434 106.7326,228.6804 105.3886,228.6644 C101.5536,228.6194 97.8276,226.3214 96.0686,222.9124 C95.8276,222.4444 95.5926,221.9264 95.1336,221.6684 C94.5206,221.3254 93.7266,221.5804 93.1846,222.0264 C92.6416,222.4714 92.2596,223.0794 91.7636,223.5774 C90.8746,224.4674 89.6056,224.9604 88.3506,224.9434 C87.2996,224.9274 86.1216,224.1234 85.1106,224.6554 C84.2186,225.1234 83.9776,226.3594 83.7526,227.2404 C83.3626,228.7564 83.0096,230.2854 82.6386,231.8064 C82.5556,232.1434 82.4746,232.4954 82.4506,232.8434 L89.7586,232.8434 C90.0966,232.3644 90.3746,230.9704 90.5196,230.3964 C90.5446,230.9874 90.7776,232.3884 91.1536,232.8434 L111.2366,232.8434 C111.5816,232.4714 111.8216,232.0194 111.8676,231.5154" id="Fill-73" fill="#E8E8E8"></path>
                        <path d="M30.5317,222.8552 C32.9107,224.2652 35.6137,225.1252 38.3707,225.3462 C39.4187,222.2932 40.4667,219.2412 41.5147,216.1872 C41.6467,215.8022 41.7817,215.3962 41.7107,214.9952 C41.6057,214.4052 41.0917,213.9832 40.5857,213.6642 C38.6657,212.4542 35.5667,211.0542 34.4407,213.6152 C33.0947,216.6742 31.8367,219.7772 30.5317,222.8552" id="Fill-75" fill="#F4A086"></path>
                        <path d="M73.0131,162.825 C73.1211,156.718 66.7321,149.245 58.2361,157.089 C44.5561,169.72 39.4721,194.873 33.4501,213.454 L42.1141,216.996 C43.4091,215.619 72.9521,166.22 73.0131,162.825" id="Fill-77" fill="#333333"></path>
                        <path d="M39.7045,231.7195 C40.2605,230.4995 40.1625,229.2605 39.7485,228.7545 C39.3345,228.2485 39.3525,225.8305 39.4935,222.3395 C39.5585,220.7415 36.9095,219.2055 34.5275,221.0275 C33.7555,221.6175 33.1265,221.9495 32.6225,221.7245 C32.2005,221.5345 32.0255,220.5955 31.4135,220.9185 C30.8735,221.2035 30.3085,222.3075 29.8825,223.0855 C29.1495,224.4255 28.4285,225.7815 27.7015,227.1275 C27.5405,227.4255 27.3745,227.7395 27.2325,228.0555 L38.9455,232.8435 C39.2255,232.5565 39.4955,232.1775 39.7045,231.7195" id="Fill-79" fill="#E8E8E8"></path>
                        <path d="M111.8754,103.864 C111.4714,84.138 119.6024,70.49 129.5194,60.499 C133.3934,56.596 138.0904,52.028 137.0774,46.623 C136.2174,42.032 131.5674,39.294 127.3064,37.382 C119.9374,34.075 112.3094,31.515 104.5134,29.427 C99.8434,28.176 87.8544,21.55 83.0004,22.823 C69.9254,26.252 71.9044,50.332 68.2934,61.272 C65.3914,70.063 58.5174,97.636 58.6044,98.281 L110.3054,114.591 C113.1644,112.627 111.9664,108.325 111.8754,103.864" id="Fill-81" fill="#0096FF"></path>
                        <path d="M121.3188,23.0427 C119.1348,17.1187 113.4208,14.5357 110.2888,15.1177 C109.1538,25.0087 108.9658,25.6047 104.0578,30.0137 C102.6098,35.2937 116.9228,40.4117 119.1708,38.3467 C119.1938,37.5387 122.4478,26.1057 121.3188,23.0427" id="Fill-83" fill="#F7B690"></path>
                        <path d="M128.7338,10.0906 C129.5478,11.0636 130.3318,12.2106 130.2568,13.4776 C130.2008,14.4486 129.6468,15.3116 129.1108,16.1236 C128.4168,17.1746 127.7218,18.2266 127.0278,19.2776 C126.3508,17.8236 126.2828,16.1756 126.1138,14.5806 C125.9458,12.9866 125.6258,11.3176 124.5748,10.1066 C123.9238,9.3566 122.9608,8.6896 122.9588,7.6956 C122.9558,6.2696 124.5368,5.9716 125.4288,6.7586 C126.6048,7.7966 127.7258,8.8876 128.7338,10.0906" id="Fill-85" fill="#222B56"></path>
                        <path d="M113.1743,8.7332 C116.9163,4.2782 124.3203,5.2292 126.8953,10.8712 C129.2523,16.0362 126.3553,26.7982 124.1893,29.0092 C120.4013,32.8752 112.6103,28.2172 111.5693,25.2452 C110.0433,20.8922 110.0273,12.4802 113.1743,8.7332" id="Fill-87" fill="#F7B690"></path>
                        <path d="M115.0698,10.2488 C115.2808,11.0768 113.1278,21.9868 112.8288,21.8558 C111.7618,21.3918 110.4538,18.2928 108.4228,18.3698 C107.7728,18.3948 106.8728,18.7988 106.8718,17.4998 C106.8688,9.2708 106.5368,9.6848 108.0158,8.9588 C111.2788,7.3568 114.6928,8.7698 115.0698,10.2488" id="Fill-89" fill="#222B56"></path>
                        <path d="M106.6606,17.0789 C106.5096,18.4039 106.8986,19.7829 107.7216,20.8329 C110.0736,23.8369 112.5666,19.8839 112.0566,17.3819 C111.4466,14.3999 107.0706,13.4749 106.6606,17.0789" id="Fill-91" fill="#F7B690"></path>
                        <path d="M125.0502,11.5613 C124.8512,12.2793 124.4292,13.0683 123.6922,13.1713 C122.9212,13.2813 115.9022,7.4083 115.4552,7.3543 C115.0092,7.3003 115.5212,10.3543 115.0262,10.6813 C114.6012,10.9613 114.0392,10.7503 113.5702,10.5563 C111.4992,9.7023 109.2232,9.7813 106.9862,9.8763 C106.8452,9.2253 107.0452,8.0573 107.3832,7.4833 C107.7222,6.9083 108.2062,6.4343 108.7072,5.9953 C110.9292,4.0463 113.7552,2.5993 116.7072,2.7013 C118.4652,2.7613 120.1922,3.2653 121.8112,3.9533 C128.0492,6.6023 125.3532,10.4683 125.0502,11.5613" id="Fill-93" fill="#222B56"></path>
                        <path d="M90.5424,56.3337 L72.5244,58.0137 C72.5144,66.0037 73.1284,73.9977 74.2664,81.8087 L89.3134,80.3017 C89.4534,72.3527 89.8794,64.4517 90.5424,56.3337" id="Fill-95" fill="#F7B690"></path>
                        <path d="M92.0063,44.4041 C92.7583,37.5371 98.0833,27.4341 90.4563,24.1611 C83.4223,21.1411 76.8823,25.8581 75.4593,32.5231 C73.4623,41.8711 72.5383,51.5741 72.5253,61.2871 L92.1853,60.4761 C92.5903,55.5101 91.4393,49.5951 92.0063,44.4041" id="Fill-97" fill="#0096FF"></path>
                        <path d="M89.393,76.8425 L74.266,81.8085 C75.08,83.5095 89.85,108.3215 97.289,117.1135 C98.529,118.5805 100.553,120.1495 102.141,119.0695 C103.453,118.1765 103.527,116.1285 102.901,114.6705 C97.347,101.7375 92.945,89.0055 89.393,76.8425" id="Fill-99" fill="#F7B690"></path>
                        <g id="Group-103" transform="translate(105.000000, 0.000000)">
                            <mask id="mask-4" fill="white">
                                <use xlink:href="#path-3"></use>
                            </mask>
                            <g id="Clip-102"></g>
                            <path d="M2.1752,10.4919 C1.4522,10.5539 0.7862,11.0579 0.5292,11.7359 C0.3622,10.0059 1.1482,8.2129 2.5342,7.1629 C1.6582,7.2789 0.9912,6.2159 1.1812,5.3519 C1.3702,4.4889 2.1062,3.8609 2.8472,3.3809 C5.2802,1.8039 8.2722,1.1069 11.1522,1.4459 C11.2052,1.0749 11.2592,0.7039 11.3142,0.3329 C13.0642,0.7189 14.6902,1.6459 15.9132,2.9549 C15.9672,2.6279 16.0202,2.2999 16.0722,1.9719 L19.8692,4.2809 C19.6492,4.0869 19.7982,3.6449 20.0912,3.6259 C22.7922,5.7449 24.5712,9.0019 24.8962,12.4199 C23.3762,10.6449 21.4332,9.2359 19.2752,8.3419 C16.0462,7.0039 12.3822,6.8119 9.3202,5.1279 C9.7422,6.8549 8.0062,8.7259 6.2512,8.4319 C6.5522,8.1279 6.8522,7.8229 7.1532,7.5179 L2.1752,10.4919 Z" id="Fill-101" fill="#222B56" mask="url(#mask-4)"></path>
                        </g>
                        <path d="M106.3266,111.1208 C107.6316,111.4188 108.6396,112.4238 109.5706,113.3838 C110.9206,114.7748 112.2696,116.1668 113.6206,117.5578 C114.1626,118.1168 114.7476,118.8898 114.4206,119.5968 C114.1256,120.2328 113.2116,120.3528 112.5926,120.0248 C111.9726,119.6958 111.5826,119.0668 111.2216,118.4658 C111.0886,119.5978 109.9876,120.5258 108.8496,120.4678 C108.3246,119.8938 107.7986,119.3198 107.2726,118.7468 C106.2646,119.9948 104.3846,119.9578 102.7856,119.8098 C100.1846,119.5688 96.9636,118.7328 98.8366,115.7248 C100.1996,113.5328 103.5176,110.4788 106.3266,111.1208" id="Fill-104" fill="#F7B690"></path>
                        <path d="M27.1186,88.2449 L27.1226,88.2949 C27.3166,88.2659 27.5146,88.2449 27.7166,88.2449 C29.7586,88.2449 31.4646,89.7979 31.6576,91.8299 L38.3676,162.3539 C38.5036,163.8049 39.7036,164.8969 41.1606,164.8969 L83.6006,164.8969 C85.7876,164.8969 87.5606,166.6699 87.5606,168.8569 C87.5606,171.0439 85.7876,172.8159 83.6006,172.8159 L41.1606,172.8159 C37.9186,172.8159 34.9956,171.3639 33.0196,169.0579 C30.6856,169.2319 21.6436,170.0069 21.6436,170.0069 L12.3786,167.0579 L3.9596,88.2449 L27.1186,88.2449 Z" id="Fill-106" fill="#CCCCCC"></path>
                        <g id="Group-110" transform="translate(0.000000, 88.000000)">
                            <mask id="mask-6" fill="white">
                                <use xlink:href="#path-5"></use>
                            </mask>
                            <g id="Clip-109"></g>
                            <path d="M17.4028,76.8972 C15.9468,76.8972 14.7468,75.8042 14.6108,74.3542 L7.9008,3.8292 C7.7078,1.7972 6.0008,0.2452 3.9598,0.2452 C1.6248,0.2452 -0.2022,2.2542 0.0178,4.5792 L6.7258,75.0922 C7.2418,80.6032 11.8678,84.8162 17.4028,84.8162 L59.8438,84.8162 C62.0308,84.8162 63.8028,83.0432 63.8028,80.8572 C63.8028,78.6692 62.0308,76.8972 59.8438,76.8972 L17.4028,76.8972 Z" id="Fill-108" fill="#F6F6F6" mask="url(#mask-6)"></path>
                        </g>
                        <mask id="mask-8" fill="white">
                            <use xlink:href="#path-7"></use>
                        </mask>
                        <g id="Clip-112"></g>
                        <polygon id="Fill-111" fill="#CCCCCC" mask="url(#mask-8)" points="41.426 232.66 47.863 232.66 47.863 172.816 41.426 172.816"></polygon>
                        <path d="M21.6987,232.6599 L21.6987,232.6599 C21.6987,229.1039 24.5817,226.2229 28.1367,226.2229 L61.1507,226.2229 C64.7067,226.2229 67.5897,229.1039 67.5897,232.6599 L21.6987,232.6599 Z" id="Fill-113" fill="#60718D" mask="url(#mask-8)"></path>
                        <path d="M47.5825,178.9744 L41.7055,178.9744 C39.6985,178.9744 37.8305,177.9534 36.7445,176.2664 L34.5265,172.8164 L54.7615,172.8164 L52.5435,176.2664 C51.4575,177.9534 49.5895,178.9744 47.5825,178.9744" id="Fill-114" fill="#60718D" mask="url(#mask-8)"></path>
                        <path d="M100.7251,114.4246 C97.6141,112.9576 79.7731,110.4656 76.6191,109.0916 C72.2731,107.1976 68.9801,102.0926 66.8451,97.8606 C65.6641,95.5206 64.7251,93.0726 63.7861,90.6236 L50.4531,97.6696 C52.2571,100.7616 54.2671,103.7336 56.4771,106.5506 C59.8661,110.8736 63.7931,114.9036 68.6391,117.4926 C73.6901,120.1916 94.5891,120.5186 100.2461,119.6246 C104.8031,118.6796 103.8371,115.8926 100.7251,114.4246" id="Fill-115" fill="#F4A086" mask="url(#mask-8)"></path>
                        <path d="M54.3754,76.1501 C50.8544,74.2441 43.6314,74.6481 43.2824,79.7191 C43.0774,82.7041 44.7914,85.9631 45.9264,88.6461 C47.1934,91.6391 48.6464,94.5541 50.2714,97.3691 C50.3304,97.4701 50.3944,97.5681 50.4524,97.6701 L65.1444,91.5431 C61.9164,87.4761 58.8924,78.5951 54.3754,76.1501" id="Fill-116" fill="#E8E8E8" mask="url(#mask-8)"></path>
                        <path d="M113.5444,113.3083 C114.7094,114.4173 115.5894,115.9143 115.6244,117.5233 C115.6594,119.1303 114.3484,122.3533 113.1524,121.2773 C112.1664,120.3873 111.9194,118.8993 110.5914,118.9393 C109.2634,118.9793 108.0724,119.7133 106.8374,120.2043 C103.1924,121.6513 92.1544,119.6873 96.8514,113.9153 C100.4484,109.4953 109.6174,109.5673 113.5444,113.3083" id="Fill-117" fill="#F4A086" mask="url(#mask-8)"></path>
                        <path d="M137.9487,222.5808 C138.7027,223.7118 139.7097,224.9748 141.0647,224.9428 C143.4057,224.8878 143.5767,221.5478 142.9897,219.2988 C142.3577,216.8728 141.7247,214.4458 141.0937,212.0198 L133.7417,214.1698 C134.5447,217.2198 136.5237,220.4408 137.9487,222.5808" id="Fill-118" fill="#F4A086" mask="url(#mask-8)"></path>
                        <path d="M119.4126,152.3376 C113.4976,145.8036 76.5196,137.6816 59.1306,132.3616 C46.1446,128.3896 32.7806,126.1546 30.8046,143.6936 C29.9506,151.2596 33.8026,159.0316 40.2826,163.0116 C47.3426,167.3466 56.2166,166.9406 64.4816,166.3936 C80.2416,165.3506 89.9066,164.7096 105.6666,163.6666 C107.1736,184.2916 124.7006,191.6746 132.5476,214.5186 L144.3366,212.1146 C137.1886,201.3586 122.3506,156.1036 119.4126,152.3376" id="Fill-119" fill="#7285A0" mask="url(#mask-8)"></path>
                        <path d="M57.1352,211.9275 C56.5322,213.1465 55.9422,214.6495 56.6482,215.8075 C57.8652,217.8075 60.8442,216.2845 62.4982,214.6535 C64.2832,212.8925 66.0682,211.1315 67.8532,209.3715 L60.6392,205.0625 C59.4492,207.3385 58.2762,209.6245 57.1352,211.9275" id="Fill-120" fill="#F7B690" mask="url(#mask-8)"></path>
                        <path d="M27.8588,163.0115 C34.9188,167.3465 43.7928,166.9405 52.0578,166.3935 C68.3778,165.3135 84.6978,164.2325 101.0168,163.1525 C103.6218,162.9805 106.5458,162.6485 108.1708,160.6055 C110.0678,158.2185 109.1488,154.4895 106.9888,152.3375 C104.8288,150.1865 101.7898,149.2215 98.8738,148.3285 C81.4848,143.0065 64.0958,137.6815 46.7068,132.3625 C33.7208,128.3895 20.3578,126.1555 18.3798,143.6945 C17.5268,151.2595 21.3788,159.0325 27.8588,163.0115" id="Fill-121" fill="#7285A0" mask="url(#mask-8)"></path>
                        <path d="M109.1323,156.8347 C105.5373,145.7047 83.1143,167.6747 79.1993,173.5867 C72.4823,183.7327 66.2883,194.2467 60.6393,205.0627 L69.3933,212.2277 C75.1343,200.6597 86.5853,190.8957 95.9513,181.6577 C99.0293,178.6217 102.1703,175.4987 104.0503,171.5567 C105.9293,167.6137 109.7743,158.8197 109.1323,156.8347" id="Fill-122" fill="#7285A0" mask="url(#mask-8)"></path>
                        <path d="M28.2065,89.2966 C29.0965,95.9386 31.6475,102.3776 31.5405,109.0766 C31.4325,115.7856 28.5065,122.4036 23.6175,126.9996 C20.6045,129.8316 16.4675,133.0476 17.5465,137.0396 C18.5175,140.6306 23.0075,141.6936 26.7035,142.1136 C34.7635,143.0296 43.9595,143.5966 49.8885,138.0606 C53.5185,134.6706 55.0905,129.6576 56.2455,124.8266 C58.2925,116.2696 59.4925,107.5086 59.8225,98.7146 C60.1025,91.2266 59.6025,83.2426 55.2985,77.1086 C51.0095,70.9966 46.1955,66.9446 39.1775,69.0996 C31.1965,76.9276 27.3245,82.7096 28.2065,89.2966" id="Fill-123" fill="#E8E8E8" mask="url(#mask-8)"></path>
                        <path d="M134.6205,217.4734 C135.0775,218.2744 137.1865,218.6484 138.0575,218.6834 C138.7435,218.7104 141.8915,217.2774 142.5705,217.5114 C143.0595,217.6804 144.8865,224.2484 147.1525,225.6424 C149.4205,227.0354 151.9335,227.8034 154.3455,228.8394 C155.1855,229.2014 156.0385,229.6104 156.7165,230.2534 C157.3945,230.8974 157.8705,231.8254 157.7235,232.6384 C157.7095,232.7174 157.6765,232.7744 157.6525,232.8434 L142.8235,232.8434 C142.3915,232.3374 142.0045,231.7874 141.6265,231.2474 C140.2695,229.3064 138.9145,227.3654 137.5585,225.4234 C137.1305,227.5444 136.7605,230.0324 136.3505,232.8434 L134.6935,232.8434 C134.1655,230.5814 132.7035,219.8224 134.6205,217.4734" id="Fill-124" fill="#333333" mask="url(#mask-8)"></path>
                        <path d="M51.5229,219.2859 C52.0279,217.6839 52.5469,216.0539 53.5219,214.6859 C54.4759,213.3489 55.6059,212.0519 57.1569,211.5099 C57.1679,212.3739 57.5379,213.6889 58.3299,214.0379 C58.9549,214.3129 62.6269,214.2169 63.1379,214.6699 C63.4809,214.9739 62.0149,220.5599 62.9489,222.9629 C62.9489,222.9629 66.2939,225.4949 68.0199,226.7119 C68.7229,227.2089 69.4209,227.7529 69.8689,228.4889 C70.3149,229.2239 70.4659,230.1959 70.0439,230.9449 C70.0019,231.0169 69.9509,231.0669 69.9049,231.1279 L57.1549,228.7909 L55.4169,228.1069 C55.2779,227.5099 55.2019,226.8899 55.1309,226.2809 L54.3669,219.7219 C52.9299,221.7589 51.8019,224.0119 51.0199,226.3779 L49.4789,225.7719 C50.1609,223.6089 50.8419,221.4479 51.5229,219.2859" id="Fill-125" fill="#333333" mask="url(#mask-8)"></path>
                        <path d="M92.2348,113.6335 C89.1228,112.1655 71.2818,110.4655 68.1278,109.0915 C63.7818,107.1975 60.4888,102.0925 58.3538,97.8605 C57.1738,95.5205 56.2338,93.0725 55.2948,90.6235 L41.9618,97.6695 C43.7658,100.7615 45.7768,103.7335 47.9858,106.5505 C51.3758,110.8735 55.3018,114.9045 60.1478,117.4925 C65.1988,120.1915 86.0988,119.7265 91.7558,118.8325 C96.3128,117.8875 95.3468,115.1005 92.2348,113.6335" id="Fill-126" fill="#F7B690" mask="url(#mask-8)"></path>
                        <path d="M52.8881,84.7361 C51.3151,81.3221 49.1911,77.9401 45.8841,76.1501 C42.3651,74.2441 35.1411,74.6481 34.7911,79.7191 C34.5861,82.7041 36.3001,85.9641 37.4361,88.6461 C38.7021,91.6391 40.1551,94.5541 41.7811,97.3691 C41.8391,97.4701 41.9031,97.5681 41.9611,97.6701 L56.6541,91.5431 C55.8931,89.5611 53.7751,86.6621 52.8881,84.7361" id="Fill-127" fill="#E8E8E8" mask="url(#mask-8)"></path>
                        <path d="M104.9946,107.4539 C106.4666,108.1019 107.8026,109.2129 108.3806,110.7139 C108.9586,112.2149 108.8176,115.6909 107.3286,115.0829 C106.0986,114.5809 105.3616,113.2659 104.1256,113.7529 C102.8896,114.2409 102.0186,115.3349 101.0226,116.2159 C98.0856,118.8129 87.0346,120.7089 89.4966,113.6859 C91.3816,108.3079 100.0306,105.2659 104.9946,107.4539" id="Fill-128" fill="#F7B690" mask="url(#mask-8)"></path>
                        <path d="M40.5385,53.8162 C41.1595,52.6452 47.9715,56.1572 48.3765,56.9982 C48.7805,57.8382 49.2105,67.3542 50.6665,73.2952 C50.9805,74.5762 38.2745,70.6512 39.1775,69.0992 C40.6415,66.5832 42.1355,56.9862 40.5385,53.8162" id="Fill-129" fill="#F4A086" mask="url(#mask-8)"></path>
                        <path d="M60.1733,45.239 C57.8203,35.478 44.4683,37.537 41.2973,38.51 C38.1263,39.484 38.0443,43.969 37.7383,47.272 C37.5503,49.31 38.2883,51.338 39.5013,52.956 C40.6673,54.512 45.7463,56.855 46.0333,56.917 C47.9183,60.166 50.9823,63.881 54.0983,63.835 C55.5013,63.814 56.7743,62.914 57.5993,61.778 C58.4233,60.642 58.8743,59.285 59.3143,57.952 C60.6783,53.814 61.1943,49.475 60.1733,45.239" id="Fill-130" fill="#F7B690" mask="url(#mask-8)"></path>
                        <path d="M37.0629,50.9119 C35.9009,49.5079 34.9929,47.8389 34.7639,46.0289 C34.4939,43.8889 35.2049,41.7019 36.4089,39.9119 C38.5599,36.7159 44.1139,32.5909 48.6009,32.4999 C53.3939,32.4029 61.6269,37.1769 60.8459,43.1069 C60.6129,44.8829 59.6379,44.8939 57.9399,45.4619 C55.7039,46.2089 52.7019,46.7249 50.8459,48.1809 C48.6269,49.9219 49.6149,54.1209 45.0729,55.4849 C43.6039,55.9269 42.0959,58.5189 41.1209,60.5359 C39.9609,59.2189 38.1879,52.2699 37.0629,50.9119" id="Fill-131" fill="#222B56" mask="url(#mask-8)"></path>
                        <path d="M30.3286,63.1394 C29.9006,64.9674 27.5466,66.8744 27.4426,68.7494 C27.2026,73.1094 23.1266,76.2594 21.7656,80.4084 C21.2426,82.0044 21.1546,83.8134 21.8956,85.3214 C22.6386,86.8284 30.8376,91.4194 32.4906,91.1204 C34.3146,90.7904 35.4966,89.0124 36.1806,87.2884 C36.8646,85.5664 37.3166,83.6674 38.5946,82.3244 C40.5676,80.2504 43.9846,80.0614 45.8846,77.9204 C47.7166,75.8584 45.5806,66.6284 45.5806,62.4014 C45.5806,54.2494 42.9676,46.8114 39.0556,47.9854 C36.7216,48.6844 36.0476,52.9334 35.4276,54.8014 C34.3736,57.9734 31.0826,59.9184 30.3286,63.1394" id="Fill-132" fill="#222B56" mask="url(#mask-8)"></path>
                        <path d="M43.101,51.6599 C42.864,51.8819 42.741,52.1999 42.666,52.5159 C42.434,53.5099 42.619,54.5939 43.166,55.4539 C43.715,56.3139 44.621,56.9379 45.619,57.1459 C46.015,57.2289 46.452,57.2409 46.797,57.0309 C47.986,56.3059 47.382,53.7839 46.811,52.8059 C46.218,51.7919 44.114,50.7189 43.101,51.6599" id="Fill-133" fill="#F7B690" mask="url(#mask-8)"></path>
                        <path d="M116.0249,113.9226 L90.0139,116.0026 C89.0589,116.0786 88.3229,116.8766 88.3229,117.8356 C88.3229,118.8516 89.1449,119.6746 90.1609,119.6746 L116.1709,119.6746 C117.1869,119.6746 118.0099,118.8516 118.0099,117.8356 L118.0099,115.7556 C118.0099,114.6826 117.0949,113.8366 116.0249,113.9226" id="Fill-134" fill="#A2D1EB" mask="url(#mask-8)"></path>
                        <polygon id="Fill-135" fill="#00344A" mask="url(#mask-8)" points="111.394 232.9998 108.438 232.7278 118.337 125.6688 121.293 125.9418"></polygon>
                        <polygon id="Fill-136" fill="#00344A" mask="url(#mask-8)" points="244.7563 232.9998 234.8583 125.9418 237.8143 125.6688 247.7133 232.7278"></polygon>
                        <path d="M262.8129,125.8054 L93.3389,125.8054 C91.6459,125.8054 90.2729,124.4334 90.2729,122.7404 C90.2729,121.0464 91.6459,119.6744 93.3389,119.6744 L262.8129,119.6744 C264.5049,119.6744 265.8779,121.0464 265.8779,122.7404 C265.8779,124.4334 264.5049,125.8054 262.8129,125.8054" id="Fill-137" fill="#F6F6F6" mask="url(#mask-8)"></path>
                    </g>
                </g>
            </g>
        </g>
    </g>
</svg>