<svg xmlns="http://www.w3.org/2000/svg" xmlns:xlink="http://www.w3.org/1999/xlink" width="1440" height="662" viewBox="0 0 1440 662">
    <defs>
        <path id="a" d="M0 .083h252.184V130.68H0z"/>
        <path id="c" d="M0 662h830.833V.083H0z"/>
    </defs>
    <g fill="none" fill-rule="evenodd">
        <path fill="#EE3B42" d="M0 0h1440v662H0z"/>
        <g opacity=".3">
            <path fill="#E4E1EA" d="M868.555 8.258h6.708V0h-6.708v8.258zm-28.868 0h23.555V0h-23.555v8.258zm-28.868 0h23.556V0h-23.556v8.258zm-27.974 0h23.553V0h-23.553v8.258zm-28.868 0h23.556V0h-23.556v8.258zm-28.868 0h23.555V0h-23.555v8.258zm127.335 11.097H876v-8.259h-23.556v8.259zm-28.868 0h23.556v-8.259h-23.556v8.259zm-28.866 0h23.553v-8.259H794.71v8.259zm-27.975 0h23.555v-8.259h-23.555v8.259zm-28.868 0h23.555v-8.259h-23.555v8.259zm-28.867 0h23.553v-8.259H709v8.259zm159.555 12.738h6.708v-8.258h-6.708v8.258zm-28.868 0h23.555v-8.258h-23.555v8.258zm-28.868 0h23.556v-8.258h-23.556v8.258zm-27.974 0h23.553v-8.258h-23.553v8.258zm-28.868 0h23.556v-8.258h-23.556v8.258zm-28.868 0h23.555v-8.258h-23.555v8.258zM852.444 44.88H876V36.62h-23.556v8.258zm-28.868 0h23.556V36.62h-23.556v8.258zm-28.866 0h23.553V36.62H794.71v8.258zm-27.975 0h23.555V36.62h-23.555v8.258zm-28.868 0h23.555V36.62h-23.555v8.258zm-28.867 0h23.553V36.62H709v8.258zm159.555 11.669h6.708v-8.259h-6.708v8.259zm-28.868 0h23.555v-8.259h-23.555v8.259zm-28.868 0h23.556v-8.259h-23.556v8.259zm-27.974 0h23.553v-8.259h-23.553v8.259zm-28.868 0h23.556v-8.259h-23.556v8.259zm-28.868 0h23.555v-8.259h-23.555v8.259zm41.626 12.69h23.555v-8.26h-23.555v8.26zm-28.868 0h23.555v-8.26h-23.555v8.26zm-28.867 0h23.553v-8.26H709v8.26zm143.444 0H876v-8.259h-23.556v8.258zm-28.868 0h23.556v-8.259h-23.556v8.258zm-28.866 0h23.553v-8.259H794.71v8.258zm73.845 11.668h6.708v-8.258h-6.708v8.258zm-28.868 0h23.555v-8.258h-23.555v8.258zm-28.868 0h23.556v-8.258h-23.556v8.258zm-27.974 0h23.553v-8.258h-23.553v8.258zm-28.868 0h23.556v-8.258h-23.556v8.258zm-28.868 0h23.555v-8.258h-23.555v8.258zm127.335 12.69H876v-8.258h-23.556v8.258zm-28.868 0h23.556v-8.258h-23.556v8.258zm-28.866 0h23.553v-8.258H794.71v8.258zm-27.975 0h23.555v-8.258h-23.555v8.258zm-28.868 0h23.555v-8.258h-23.555v8.258zm-28.867 0h23.553v-8.258H709v8.258zm159.555 11.67h6.708v-8.26h-6.708v8.26zm-28.868 0h23.555v-8.26h-23.555v8.26zm-28.868 0h23.556v-8.26h-23.556v8.26zm-27.974 0h23.553v-8.26h-23.553v8.26zm-28.868 0h23.556v-8.26h-23.556v8.26zm-28.868 0h23.555v-8.26h-23.555v8.26zm127.335 11.097H876v-8.258h-23.556v8.258zm-28.868 0h23.556v-8.258h-23.556v8.258zm-28.866 0h23.553v-8.258H794.71v8.258zm-27.975 0h23.555v-8.258h-23.555v8.258zm-28.868 0h23.555v-8.258h-23.555v8.258zm-28.867 0h23.553v-8.258H709v8.258zm159.555 11.668h6.708v-8.26h-6.708v8.26zm-28.868 0h23.555v-8.26h-23.555v8.26zm-28.868 0h23.556v-8.26h-23.556v8.26zm-27.974 0h23.553v-8.259h-23.553v8.259zm-28.868 0h23.556v-8.259h-23.556v8.259zm-28.868 0h23.555v-8.259h-23.555v8.259zm127.335 12.69H876v-8.258h-23.556v8.257zm-28.868 0h23.556v-8.258h-23.556v8.257zm-28.866 0h23.553v-8.258H794.71v8.257zm-27.975 0h23.555v-8.258h-23.555v8.257zm-28.868 0h23.555v-8.258h-23.555v8.257zm-28.867 0h23.553v-8.258H709v8.257zm159.555 11.669h6.708v-8.259h-6.708v8.259zm-28.868 0h23.555v-8.259h-23.555v8.259zm-28.868 0h23.556v-8.259h-23.556v8.259zm-27.974 0h23.553v-8.259h-23.553v8.259zm-28.868 0h23.556v-8.259h-23.556v8.259zm-28.868 0h23.555v-8.259h-23.555v8.259zm41.626 12.69h23.555v-8.259h-23.555v8.26zm-28.868 0h23.555v-8.259h-23.555v8.26zm-28.867 0h23.553v-8.259H709v8.26zm143.444 0H876v-8.258h-23.556v8.259zm-28.868 0h23.556v-8.258h-23.556v8.259zm-28.866 0h23.553v-8.258H794.71v8.259zm73.845 11.668h6.708v-8.258h-6.708v8.258zm-28.868 0h23.555v-8.258h-23.555v8.258zm-28.868 0h23.556v-8.258h-23.556v8.258zm-27.974 0h23.553v-8.258h-23.553v8.258zm-28.868 0h23.556v-8.258h-23.556v8.258zm-28.868 0h23.555v-8.258h-23.555v8.258zm127.335 12.69H876v-8.258h-23.556v8.258zm-28.868 0h23.556v-8.258h-23.556v8.258zm-28.866 0h23.553v-8.258H794.71v8.258zm-27.975 0h23.555v-8.258h-23.555v8.258zm-28.868 0h23.555v-8.258h-23.555v8.258zm-28.867 0h23.553v-8.258H709v8.258zm73.845 11.67h23.553v-8.26h-23.553v8.26zm-28.868 0h23.556v-8.26h-23.556v8.26zm-28.868 0h23.555v-8.26h-23.555v8.26zm143.446 0h6.708v-8.258h-6.708v8.258zm-28.868 0h23.555v-8.258h-23.555v8.258zm-28.868 0h23.556v-8.258h-23.556v8.258zm41.625 12.69H876v-8.258h-23.556v8.258zm-28.868 0h23.556v-8.258h-23.556v8.258zm-28.866 0h23.553v-8.258H794.71v8.258zm-27.975 0h23.555v-8.258h-23.555v8.258zm-28.868 0h23.555v-8.258h-23.555v8.258zm-28.867 0h23.553v-8.258H709v8.258zm159.555 11.668h6.708v-8.258h-6.708v8.258zm-28.868 0h23.555v-8.258h-23.555v8.258zm-28.868 0h23.556v-8.258h-23.556v8.258zm-27.974 0h23.553v-8.258h-23.553v8.258zm-28.868 0h23.556v-8.258h-23.556v8.258zm-28.868 0h23.555v-8.258h-23.555v8.258zm127.335 12.691H876v-8.258h-23.556v8.258zm-28.868 0h23.556v-8.258h-23.556v8.258zm-28.866 0h23.553v-8.258H794.71v8.258zm-27.975 0h23.555v-8.258h-23.555v8.258zm-28.868 0h23.555v-8.258h-23.555v8.258zm-28.867 0h23.553v-8.258H709v8.258zm159.555 11.668h6.708v-8.257h-6.708v8.257zm-28.868 0h23.555v-8.257h-23.555v8.257zm-28.868 0h23.556v-8.257h-23.556v8.257zm-27.974 0h23.553v-8.257h-23.553v8.257zm-28.868 0h23.556v-8.257h-23.556v8.257zm-28.868 0h23.555v-8.257h-23.555v8.257zm127.335 12.69H876v-8.259h-23.556v8.26zm-28.868 0h23.556v-8.259h-23.556v8.26zm-28.866 0h23.553v-8.259H794.71v8.26zm-27.975 0h23.555v-8.259h-23.555v8.26zm-28.868 0h23.555v-8.259h-23.555v8.26zm-28.867 0h23.553v-8.259H709v8.26zm159.555 11.669h6.708v-8.259h-6.708v8.259zm-28.868 0h23.555v-8.259h-23.555v8.259zm-28.868 0h23.556v-8.259h-23.556v8.259zm-27.974 0h23.553v-8.259h-23.553v8.259zm-28.868 0h23.556v-8.259h-23.556v8.259zm-28.868 0h23.555v-8.259h-23.555v8.259zm127.335 12.69H876v-8.258h-23.556v8.259zm-28.868 0h23.556v-8.258h-23.556v8.259zm-28.866 0h23.553v-8.258H794.71v8.259zm-27.975 0h23.555v-8.258h-23.555v8.259zm-28.868 0h23.555v-8.258h-23.555v8.259zm-28.867 0h23.553v-8.258H709v8.259zm159.555 11.67h6.708v-8.26h-6.708v8.26zm-28.868 0h23.555v-8.26h-23.555v8.26zm-28.868 0h23.556v-8.26h-23.556v8.26zm-27.974-.001h23.553v-8.259h-23.553v8.259zm-28.868 0h23.556v-8.259h-23.556v8.259zm-28.868 0h23.555v-8.259h-23.555v8.259zm127.335 12.786H876v-8.26h-23.556v8.26zm-28.868 0h23.556v-8.26h-23.556v8.26zm-28.866 0h23.553v-8.26H794.71v8.26zm-27.975 0h23.555v-8.26h-23.555v8.26zm-28.868 0h23.555v-8.26h-23.555v8.26zm-28.867 0h23.553v-8.26H709v8.26zm159.555 11.668h6.708v-8.258h-6.708v8.258zm-28.868 0h23.555v-8.258h-23.555v8.258zm-28.868 0h23.556v-8.258h-23.556v8.258zm-27.974 0h23.553v-8.258h-23.553v8.258zm-28.868 0h23.556v-8.258h-23.556v8.258zm-28.868 0h23.555v-8.258h-23.555v8.258zm127.335 12.69H876v-8.259h-23.556v8.259zm-28.868 0h23.556v-8.259h-23.556v8.259zm-28.866 0h23.553v-8.259H794.71v8.259zm-27.975 0h23.555v-8.259h-23.555v8.259zm-28.868 0h23.555v-8.259h-23.555v8.259zm-28.867 0h23.553v-8.259H709v8.259zm73.845 11.67h23.553v-8.26h-23.553v8.26zm-28.868 0h23.556v-8.26h-23.556v8.26zm-28.868 0h23.555v-8.26h-23.555v8.26zm143.446 0h6.708v-8.258h-6.708v8.258zm-28.868 0h23.555v-8.258h-23.555v8.258zm-28.868 0h23.556v-8.258h-23.556v8.258zm41.625 12.69H876v-8.259h-23.556v8.259zm-28.868 0h23.556v-8.259h-23.556v8.259zm-28.866 0h23.553v-8.259H794.71v8.259zm-27.975 0h23.555v-8.259h-23.555v8.259zm-28.868 0h23.555v-8.259h-23.555v8.259zm-28.867 0h23.553v-8.259H709v8.259zm159.555 11.666h6.708v-8.257h-6.708v8.257zm-28.868 0h23.555v-8.257h-23.555v8.257zm-28.868 0h23.556v-8.257h-23.556v8.257zm-27.974 0h23.553v-8.257h-23.553v8.257zm-28.868 0h23.556v-8.257h-23.556v8.257zm-28.868 0h23.555v-8.257h-23.555v8.257zm127.335 11.1H876v-8.258h-23.556v8.257zm-28.868 0h23.556v-8.258h-23.556v8.257zm-28.866 0h23.553v-8.258H794.71v8.257zm-27.975 0h23.555v-8.258h-23.555v8.257zm-28.868 0h23.555v-8.258h-23.555v8.257zm-28.867 0h23.553v-8.258H709v8.257zm159.555 12.737h6.708v-8.259h-6.708v8.259zm-28.868 0h23.555v-8.259h-23.555v8.259zm-28.868 0h23.556v-8.259h-23.556v8.259zm-27.974 0h23.553v-8.259h-23.553v8.259zm-28.868 0h23.556v-8.259h-23.556v8.259zm-28.868 0h23.555v-8.259h-23.555v8.259zm127.335 12.786H876v-8.26h-23.556v8.26zm-28.868 0h23.556v-8.26h-23.556v8.26zm-28.866 0h23.553v-8.26H794.71v8.26zm-27.975 0h23.555v-8.26h-23.555v8.26zm-28.868 0h23.555v-8.26h-23.555v8.26zm-28.867 0h23.553v-8.26H709v8.26zm159.555 11.67h6.708v-8.26h-6.708v8.26zm-28.868 0h23.555v-8.26h-23.555v8.26zm-28.868 0h23.556v-8.26h-23.556v8.26zm-27.974 0h23.553v-8.26h-23.553v8.26zm-28.868 0h23.556v-8.26h-23.556v8.26zm-28.868 0h23.555v-8.26h-23.555v8.26zm127.335 12.689H876v-8.258h-23.556v8.258zm-28.868 0h23.556v-8.258h-23.556v8.258zm-28.866 0h23.553v-8.258H794.71v8.258zm-27.975 0h23.555v-8.258h-23.555v8.258zm-28.868 0h23.555v-8.258h-23.555v8.258zm-28.867 0h23.553v-8.258H709v8.258zm159.555 11.669h6.708v-8.26h-6.708v8.26zm-28.868 0h23.555v-8.26h-23.555v8.26zm-28.868 0h23.556v-8.26h-23.556v8.26zm-27.974-.001h23.553v-8.259h-23.553v8.259zm-28.868 0h23.556v-8.259h-23.556v8.259zm-28.868 0h23.555v-8.259h-23.555v8.259zm127.335 12.69H876v-8.258h-23.556v8.259zm-28.868 0h23.556v-8.258h-23.556v8.259zm-28.866 0h23.553v-8.258H794.71v8.259zm-27.975 0h23.555v-8.258h-23.555v8.259zm-28.868 0h23.555v-8.258h-23.555v8.259zm-28.867 0h23.553v-8.258H709v8.259zm159.555 11.669h6.708v-8.258h-6.708v8.258zm-28.868 0h23.555v-8.258h-23.555v8.258zm-28.868 0h23.556v-8.258h-23.556v8.258zm-27.974 0h23.553v-8.258h-23.553v8.258zm-28.868 0h23.556v-8.258h-23.556v8.258zm-28.868 0h23.555v-8.258h-23.555v8.258zm41.626 11.097h23.555v-8.258h-23.555v8.258zm-28.868 0h23.555v-8.258h-23.555v8.258zm-28.867 0h23.553v-8.258H709v8.258zm143.444 0H876v-8.257h-23.556v8.257zm-28.868 0h23.556v-8.257h-23.556v8.257zm-28.866 0h23.553v-8.257H794.71v8.257zm73.845 11.67h6.708v-8.26h-6.708v8.26zm-28.868 0h23.555v-8.26h-23.555v8.26zm-28.868 0h23.556v-8.26h-23.556v8.26zm-27.974 0h23.553v-8.26h-23.553v8.26zm-28.868 0h23.556v-8.26h-23.556v8.26zm-28.868 0h23.555v-8.26h-23.555v8.26zm127.335 12.69H876v-8.26h-23.556v8.26zm-28.868 0h23.556v-8.26h-23.556v8.26zm-28.866 0h23.553v-8.26H794.71v8.26zm-27.975 0h23.555v-8.26h-23.555v8.26zm-28.868 0h23.555v-8.26h-23.555v8.26zm-28.867 0h23.553v-8.26H709v8.26zm73.845 11.668h23.553v-8.26h-23.553v8.26zm-28.868 0h23.556v-8.26h-23.556v8.26zm-28.868 0h23.555v-8.26h-23.555v8.26zm143.446 0h6.708v-8.258h-6.708v8.258zm-28.868 0h23.555v-8.258h-23.555v8.258zm-28.868 0h23.556v-8.258h-23.556v8.258zm41.625 12.69H876v-8.259h-23.556v8.259zm-28.868 0h23.556v-8.259h-23.556v8.259zm-28.866 0h23.553v-8.259H794.71v8.259zm-27.975 0h23.555v-8.259h-23.555v8.259zm-28.868 0h23.555v-8.259h-23.555v8.259zm-28.867 0h23.553v-8.259H709v8.259zm159.555 11.67h6.708v-8.26h-6.708v8.26zm-28.868 0h23.555v-8.26h-23.555v8.26zm-28.868 0h23.556v-8.26h-23.556v8.26zm-27.974-.001h23.553v-8.258h-23.553v8.258zm-28.868 0h23.556v-8.258h-23.556v8.258zm-28.868 0h23.555v-8.258h-23.555v8.258zm127.335 12.69H876v-8.258h-23.556v8.259zm-28.868 0h23.556v-8.258h-23.556v8.259zm-28.866 0h23.553v-8.258H794.71v8.259zm-27.975 0h23.555v-8.258h-23.555v8.259zm-28.868 0h23.555v-8.258h-23.555v8.259zm-28.867 0h23.553v-8.258H709v8.259zm159.555 11.669h6.708v-8.259h-6.708v8.259zm-28.868 0h23.555v-8.259h-23.555v8.259zm-28.868 0h23.556v-8.259h-23.556v8.259zm-27.974 0h23.553v-8.259h-23.553v8.259zm-28.868 0h23.556v-8.259h-23.556v8.259zm-28.868 0h23.555v-8.259h-23.555v8.259zm127.335 12.69H876v-8.259h-23.556v8.26zm-28.868 0h23.556v-8.259h-23.556v8.26zm-28.866 0h23.553v-8.259H794.71v8.26zm-27.975 0h23.555v-8.259h-23.555v8.26zm-28.868 0h23.555v-8.259h-23.555v8.26zm-28.867 0h23.553v-8.259H709v8.26zm159.555 11.668h6.708v-8.257h-6.708v8.257zm-28.868 0h23.555v-8.257h-23.555v8.257zm-28.868 0h23.556v-8.257h-23.556v8.257zm-27.974 0h23.553v-8.257h-23.553v8.257zm-28.868 0h23.556v-8.257h-23.556v8.257zm-28.868 0h23.555v-8.257h-23.555v8.257zm127.335 12.691H876v-8.258h-23.556v8.258zm-28.868 0h23.556v-8.258h-23.556v8.258zm-28.866 0h23.553v-8.258H794.71v8.258zm-27.975 0h23.555v-8.258h-23.555v8.258zm-28.868 0h23.555v-8.258h-23.555v8.258zm-28.867 0h23.553v-8.258H709v8.258zm159.555 11.668h6.708v-8.258h-6.708v8.258zm-28.868 0h23.555v-8.258h-23.555v8.258zm-28.868 0h23.556v-8.258h-23.556v8.258zm-27.974 0h23.553v-8.258h-23.553v8.258zm-28.868 0h23.556v-8.258h-23.556v8.258zm-28.868 0h23.555v-8.258h-23.555v8.258zm127.335 12.691H876v-8.258h-23.556v8.258zm-28.868 0h23.556v-8.258h-23.556v8.258zm-28.866 0h23.553v-8.258H794.71v8.258zm-27.975 0h23.555v-8.258h-23.555v8.258zm-28.868 0h23.555v-8.258h-23.555v8.258zm-28.867 0h23.553v-8.258H709v8.258zm159.555 11.668h6.708v-8.258h-6.708v8.258zm-28.868 0h23.555v-8.258h-23.555v8.258zm-28.868 0h23.556v-8.258h-23.556v8.258zm-27.974 0h23.553v-8.258h-23.553v8.258zm-28.868 0h23.556v-8.258h-23.556v8.258zm-28.868 0h23.555v-8.258h-23.555v8.258zm127.335 12.69H876v-8.257h-23.556v8.257zm-28.868 0h23.556v-8.257h-23.556v8.257zm-28.866 0h23.553v-8.257H794.71v8.257zm-27.975 0h23.555v-8.257h-23.555v8.257zm-28.868 0h23.555v-8.257h-23.555v8.257zm-28.867 0h23.553v-8.257H709v8.257zM868.555 662h6.708v-8.258h-6.708V662zm-28.868 0h23.555v-8.258h-23.555V662zm-28.868 0h23.556v-8.258h-23.556V662zm-27.974 0h23.553v-8.258h-23.553V662zm-28.868 0h23.556v-8.258h-23.556V662zm-28.868 0h23.555v-8.258h-23.555V662z"/>
            <g transform="translate(532)">
                <path fill="#FFF" d="M35.674 123.554v-6.898h-6.05v6.898a7.544 7.544 0 0 0 3.024 14.452 7.542 7.542 0 0 0 3.026-14.452M129.117 123.554v-6.898h-6.05v6.898a7.544 7.544 0 0 0 3.024 14.452 7.542 7.542 0 0 0 3.026-14.452M222.562 123.554v-6.898h-6.05v6.898a7.544 7.544 0 0 0 3.024 14.452 7.542 7.542 0 0 0 3.026-14.452"/>
                <mask id="b" fill="#fff">
                    <use xlink:href="#a"/>
                </mask>
                <path fill="#C9C3D9" d="M248.788 123.884c-17.037-4.233-23.51-13.17-25.616-24.79a6.63 6.63 0 0 0 3.01-5.554c0-3.42-2.593-6.202-5.913-6.572V5.585c2.73-.362 4.842-2.672 4.842-5.502h-11.15c0 2.83 2.114 5.14 4.844 5.502v81.383c-3.322.37-5.914 3.152-5.914 6.572 0 2.327 1.2 4.368 3.01 5.555-2.106 11.618-8.576 20.556-25.586 24.789-1.897 0-3.427 1.528-3.427 3.396 0 1.87 1.53 3.399 3.4 3.399h58.5a3.407 3.407 0 0 0 3.396-3.399 3.407 3.407 0 0 0-3.396-3.396m-93.445 0c-17.036-4.233-23.509-13.17-25.615-24.79a6.632 6.632 0 0 0 3.01-5.554c0-3.42-2.592-6.202-5.914-6.572V5.585c2.73-.362 4.843-2.672 4.843-5.502h-11.15c0 2.83 2.115 5.14 4.843 5.502v81.383c-3.321.37-5.913 3.152-5.913 6.572 0 2.327 1.2 4.368 3.01 5.555-2.107 11.618-8.577 20.556-25.586 24.789-1.898 0-3.426 1.528-3.426 3.396a3.407 3.407 0 0 0 3.396 3.399h58.502a3.407 3.407 0 0 0 3.397-3.399 3.406 3.406 0 0 0-3.397-3.396m-93.445 0c-17.036-4.233-23.507-13.17-25.614-24.79a6.63 6.63 0 0 0 3.01-5.554c0-3.42-2.593-6.202-5.915-6.572V5.585c2.731-.362 4.844-2.672 4.844-5.502h-11.15c0 2.83 2.114 5.14 4.843 5.502v81.383c-3.321.37-5.914 3.152-5.914 6.572a6.63 6.63 0 0 0 3.01 5.555c-2.107 11.618-8.575 20.556-25.585 24.789-1.898 0-3.427 1.528-3.427 3.396 0 1.87 1.53 3.399 3.398 3.399h58.5a3.408 3.408 0 0 0 3.398-3.399 3.407 3.407 0 0 0-3.398-3.396" mask="url(#b)"/>
                <mask id="d" fill="#fff">
                    <use xlink:href="#c"/>
                </mask>
                <path fill="#FFF" d="M699.504 643.355h123.67V302.107h-123.67z" mask="url(#d)"/>
                <path fill="#DAD6E6" d="M708.382 634.476h105.913V310.987H708.382z" mask="url(#d)"/>
                <path fill="#FFF" d="M699.43 662h8.877V302.107h-8.878z" mask="url(#d)"/>
                <path fill="#FFF" d="M694.772 293.228h133.132a2.927 2.927 0 0 1 2.928 2.928v3.022a2.927 2.927 0 0 1-2.928 2.929H694.772a2.928 2.928 0 0 1-2.928-2.929v-3.022a2.928 2.928 0 0 1 2.928-2.928M708.382 367.361h105.913v-4.44H708.382zM708.382 421.639h105.913v-4.44H708.382zM708.382 475.917h105.913v-4.44H708.382zM708.382 530.195h105.913v-4.44H708.382zM708.382 571.155h105.913v-4.439H708.382z" mask="url(#d)"/>
                <path fill="#FFF" d="M814.295 662h8.878V302.107h-8.878z" mask="url(#d)"/>
                <path fill="#DAD6E6" d="M699.43 306.548h123.817v-4.441H699.429z" mask="url(#d)"/>
                <path fill="#FFF" d="M756.003 417.198h49.394v-34.457h-49.394z" mask="url(#d)"/>
                <path fill="#C9C3D9" d="M760.443 412.76h40.515v-25.58h-40.515z" mask="url(#d)"/>
                <path fill="#FFF" d="M717.185 417.198h33.859v-43.336h-33.859z" mask="url(#d)"/>
                <path fill="#A48FB0" d="M721.625 412.76h24.979v-34.458h-24.979z" mask="url(#d)"/>
                <path fill="#FFF" d="M800.958 471.477h8.233v-43.91h-8.233zM789.814 471.477h8.233v-43.91h-8.233zM778.671 471.477h8.233v-43.91h-8.233zM767.527 471.477h8.233v-43.91h-8.233zM745.743 468.867l7.808 2.61 13.92-41.644-7.808-2.61zM715.749 362.92h8.232v-43.91h-8.232zM726.891 362.92h8.233v-43.91h-8.233zM738.035 362.92h8.233v-43.91h-8.233zM749.18 362.92h8.231v-43.91h-8.232zM779.196 360.31l-7.808 2.61-13.92-41.644 7.808-2.61zM764.635 525.756h12.404l8.878-25.916h-30.16zM722.437 525.756h14.208l4.775-40.54h-23.756z" mask="url(#d)"/>
                <path fill="#A48FB0" d="M768.148 566.716h36.795v-31.493h-36.795z" mask="url(#d)"/>
                <path fill="#FFF" d="M806.509 535.222v9.06h-13.565l-1.006-1.849h-10.786l-1.004 1.85h-13.567v-9.06zM750.567 525.756h14.208l4.774-20.414h-23.755z" mask="url(#d)"/>
                <path fill="#DAD6E6" d="M780.098 552.895h12.895a1.55 1.55 0 0 0 1.55-1.55v-1.598c0-.855-.695-1.55-1.55-1.55h-12.895a1.55 1.55 0 0 0-1.55 1.55v1.599c0 .856.695 1.549 1.55 1.549" mask="url(#d)"/>
                <path fill="#C9C3D9" d="M721.957 566.716h36.795v-31.493h-36.795z" mask="url(#d)"/>
                <path fill="#FFF" d="M760.32 535.222v9.06h-13.566l-1.006-1.849h-10.785l-1.006 1.85h-13.565v-9.06z" mask="url(#d)"/>
                <path fill="#DAD6E6" d="M733.908 552.895h12.895c.855 0 1.55-.693 1.55-1.55v-1.598a1.55 1.55 0 0 0-1.55-1.55h-12.895c-.855 0-1.55.695-1.55 1.55v1.599c0 .856.695 1.549 1.55 1.549" mask="url(#d)"/>
                <path fill="#C9C3D9" d="M792.087 634.476h16.595v-56.24h-16.595z" mask="url(#d)"/>
                <path fill="#DAD6E6" d="M797.005 626.562h6.76c.918 0 1.664-.744 1.664-1.663v-1.717c0-.919-.746-1.664-1.664-1.664h-6.76c-.919 0-1.663.745-1.663 1.664v1.717c0 .919.744 1.663 1.663 1.663" mask="url(#d)"/>
                <path fill="#C9C3D9" d="M772.565 634.476h16.594v-56.24h-16.594z" mask="url(#d)"/>
                <path fill="#DAD6E6" d="M777.481 626.562h6.76c.919 0 1.664-.744 1.664-1.663v-1.717c0-.919-.745-1.664-1.664-1.664h-6.76c-.919 0-1.663.745-1.663 1.664v1.717c0 .919.744 1.663 1.663 1.663" mask="url(#d)"/>
                <path fill="#A48FB0" d="M753.04 634.476h16.595v-56.24h-16.594z" mask="url(#d)"/>
                <path fill="#DAD6E6" d="M757.958 626.562h6.76c.918 0 1.664-.744 1.664-1.663v-1.717c0-.919-.746-1.664-1.664-1.664h-6.76c-.919 0-1.662.745-1.662 1.664v1.717c0 .919.743 1.663 1.662 1.663" mask="url(#d)"/>
                <path fill="#A48FB0" d="M733.518 634.476h16.595v-56.24h-16.595z" mask="url(#d)"/>
                <path fill="#DAD6E6" d="M738.434 626.562h6.76c.92 0 1.664-.744 1.664-1.663v-1.717c0-.919-.745-1.664-1.664-1.664h-6.76c-.918 0-1.662.745-1.662 1.664v1.717c0 .919.744 1.663 1.662 1.663" mask="url(#d)"/>
                <path fill="#C9C3D9" d="M713.994 634.476h16.595v-56.24h-16.595z" mask="url(#d)"/>
                <path fill="#DAD6E6" d="M718.912 626.562h6.76c.917 0 1.664-.744 1.664-1.663v-1.717c0-.919-.747-1.664-1.664-1.664h-6.76c-.92 0-1.663.745-1.663 1.664v1.717c0 .919.744 1.663 1.663 1.663" mask="url(#d)"/>
                <path fill="#C9C3D9" d="M60.725 367.348h104.143V208.743H60.725z" mask="url(#d)"/>
                <path fill="#FFF" d="M64.238 363.833h97.118V212.256H64.238z" mask="url(#d)"/>
                <path fill="#C9C3D9" d="M71.263 356.808h83.067V219.282H71.263z" mask="url(#d)"/>
                <path fill="#E4E1EA" d="M87.828 249.22h49.937v-5.838H87.828zM87.828 337.737h49.937v-1.945H87.828v1.945zm11.672 5.76h26.592v-1.945H99.5v1.945zm7.782-11.52h11.029v-1.946h-11.03v1.945zM119.994 297.529c-11.006 11.008-22.586 17.275-25.864 13.997-3.275-3.276 2.99-14.856 13.997-25.866 11.008-11.008 22.588-17.274 25.863-13.998 3.278 3.278-2.989 14.859-13.996 25.867m20.842-35.242c-4.609-4.61-20.902 4.207-36.387 19.695-15.486 15.487-24.303 31.78-19.692 36.39 4.61 4.611 20.901-4.205 36.386-19.694 15.488-15.487 24.305-31.78 19.693-36.39m-31.284 24.795a6.974 6.974 0 0 0 0 9.867 6.973 6.973 0 0 0 9.864 0 6.976 6.976 0 0 0 0-9.867 6.973 6.973 0 0 0-9.864 0" mask="url(#d)"/>
                <path fill="#C9C3D9" d="M183.653 367.348h104.144V208.743H183.653z" mask="url(#d)"/>
                <path fill="#FFF" d="M187.166 363.833h97.118V212.256h-97.118z" mask="url(#d)"/>
                <path fill="#E4E1EA" d="M194.19 356.808h83.067V219.282H194.19z" mask="url(#d)"/>
                <path fill="#C9C3D9" d="M205.864 244.388h59.72v-4.868h-59.72v4.868zm0 92.18h59.72v-1.62h-59.72v1.62zm0-4.866h59.72v-1.622h-59.72v1.622zm50.096-55.76a7.237 7.237 0 1 0 .001 14.474 7.237 7.237 0 0 0 0-14.475zm-27.472 33.356a7.236 7.236 0 1 0 14.473 0 7.236 7.236 0 0 0-14.473 0zm18.753-59.791l4.361 7.55 4.358 7.552 4.36-7.551 4.358-7.551H247.24zm8.72 52.555a7.236 7.236 0 1 0 0 14.471 7.236 7.236 0 0 0 0-14.471zm-13.002-45.004a7.236 7.236 0 1 0-14.47 0 7.236 7.236 0 1 0 14.47 0zm-27.472 33.357a7.236 7.236 0 0 0 7.236-7.237 7.236 7.236 0 1 0-14.472 0 7.237 7.237 0 0 0 7.236 7.237zm0-26.12a7.236 7.236 0 0 0 7.236-7.237 7.236 7.236 0 1 0-14.472 0 7.237 7.237 0 0 0 7.236 7.237zm20.236 26.433l8.719-15.101h-17.437l8.718 15.101zm-24.594 18.57l4.358 7.55 8.718-15.1h-17.436l4.36 7.55z" mask="url(#d)"/>
                <path fill="#FFF" d="M383.228 662h296.85V.083h-296.85z" mask="url(#d)"/>
                <path fill="#F0F0F8" d="M578.143 662h5.968V.083h-5.968zM479.194 662h5.968V.083h-5.968z" mask="url(#d)"/>
                <path fill="#F0F0F8" d="M383.23 135.45h296.848v-5.968H383.23zM383.23 267.835h296.848v-5.97H383.23zM383.23 400.216h296.848v-5.967H383.23zM383.23 532.6h296.848v-5.967H383.23z" mask="url(#d)"/>
                <path fill="#FFF" d="M440.462.084l-77.468 77.475L285.526.084h-34.537L352.294 101.4h21.398L474.998.084z" mask="url(#d)"/>
                <path fill="#E4E1EA" d="M432.572.084l-69.579 69.584L293.416.084h-33.122l92.439 92.448h20.521L465.693.084z" mask="url(#d)"/>
                <path fill="#FFF" d="M342.759 662h40.47V.083h-40.47z" mask="url(#d)"/>
                <path fill="#E4E1EA" d="M351.283 662h23.421V.083h-23.42z" mask="url(#d)"/>
            </g>
        </g>
    </g>
</svg>
