<svg xmlns="http://www.w3.org/2000/svg" xmlns:xlink="http://www.w3.org/1999/xlink" width="110" height="110" viewBox="0 0 110 110">
    <defs>
        <path id="a" d="M0 .53h109.465v108.3H.001z"/>
    </defs>
    <g fill="none" fill-rule="evenodd">
        <g transform="translate(0 .641)">
            <mask id="b" fill="#fff">
                <use xlink:href="#a"/>
            </mask>
            <path fill="#F9F9F9" d="M56.028.545C25.808-.164.73 23.5.016 53.398c-.716 29.897 23.202 54.709 53.421 55.417 30.218.708 55.297-22.955 56.013-52.854.714-29.898-23.202-54.709-53.422-55.416z" mask="url(#b)"/>
        </g>
        <path fill="#DC3B41" d="M55.082 55.666c3.463 0 6.29-2.93 6.29-6.568 0-3.64-2.827-6.57-6.29-6.57s-6.29 2.93-6.29 6.57c0 3.638 2.827 6.568 6.29 6.568m0 2.075c-4.644 0-8.387-3.88-8.387-8.643 0-4.764 3.743-8.645 8.387-8.645 4.643 0 8.387 3.88 8.387 8.645 0 4.762-3.744 8.643-8.387 8.643M54.733 59.049a9.164 9.164 0 0 0 4.09-.962l6.563 4.029a5.48 5.48 0 0 1 2.626 4.669c0 1.688-1.383 3.058-3.09 3.058H44.543c-1.707 0-3.09-1.37-3.09-3.058 0-1.902.993-3.666 2.625-4.67l6.565-4.028a9.16 9.16 0 0 0 4.09.962zm-9.549 4.83a3.408 3.408 0 0 0-1.634 2.906c0 .542.444.982.993.982h20.379c.548 0 .993-.44.993-.982a3.408 3.408 0 0 0-1.635-2.906l-5.628-3.457a11.265 11.265 0 0 1-3.92.701c-1.351 0-2.672-.24-3.918-.7l-5.63 3.456z"/>
        <path fill="#DC3B41" d="M79.112 44.037a26.307 26.307 0 0 1 2.53 11.284c0 4.17-.972 8.204-2.81 11.856l-.46.911-.928-.435a2.444 2.444 0 0 0-1.044-.232c-1.352 0-2.446 1.084-2.446 2.422 0 .68.284 1.312.777 1.768l.75.692-.684.759a26.957 26.957 0 0 1-16.437 8.642l-1.112.147-.075-1.108c-.084-1.266-1.15-2.258-2.44-2.258s-2.357.992-2.441 2.258l-.073 1.108-1.113-.147a26.954 26.954 0 0 1-16.436-8.642l-.685-.759.75-.692a2.397 2.397 0 0 0 .778-1.768c0-1.338-1.095-2.422-2.447-2.422-.367 0-.722.08-1.045.232l-.93.435-.457-.911a26.278 26.278 0 0 1-2.81-11.856c0-3.951.871-7.783 2.53-11.284l.487-1.03.991.575c.371.214.792.33 1.234.33 1.352 0 2.447-1.084 2.447-2.421 0-.794-.387-1.52-1.028-1.972l-.934-.659.746-.86a26.95 26.95 0 0 1 16.809-9.061l1.113-.149.073 1.108c.084 1.265 1.15 2.258 2.441 2.258 1.29 0 2.356-.993 2.44-2.258l.075-1.108 1.112.149a26.938 26.938 0 0 1 16.807 9.06l.747.861-.934.659a2.407 2.407 0 0 0-1.026 1.972c0 1.337 1.094 2.42 2.446 2.42.44 0 .862-.115 1.232-.33l.993-.574.487 1.03zM76.4 45.985c-2.51 0-4.545-2.012-4.545-4.494a4.45 4.45 0 0 1 1.055-2.88 24.834 24.834 0 0 0-13.862-7.469 4.54 4.54 0 0 1-4.315 3.087 4.54 4.54 0 0 1-4.317-3.087 24.827 24.827 0 0 0-13.86 7.47 4.46 4.46 0 0 1 1.053 2.879c0 2.482-2.035 4.494-4.543 4.494-.417 0-.827-.056-1.22-.165a24.248 24.248 0 0 0-1.925 9.501c0 3.541.758 6.975 2.2 10.124.308-.066.625-.097.945-.097 2.508 0 4.543 2.011 4.543 4.495 0 .903-.271 1.765-.762 2.492a24.852 24.852 0 0 0 13.57 7.164 4.542 4.542 0 0 1 4.316-3.088 4.54 4.54 0 0 1 4.315 3.088 24.847 24.847 0 0 0 13.57-7.164 4.453 4.453 0 0 1-.763-2.492c0-2.484 2.035-4.495 4.545-4.495.32 0 .635.031.944.097a24.236 24.236 0 0 0 2.2-10.124c0-3.309-.66-6.522-1.926-9.5-.393.108-.8.164-1.218.164z"/>
        <path fill="#DC3B41" d="M54.733 32.155c1.35 0 2.446-1.083 2.446-2.42 0-1.336-1.095-2.42-2.446-2.42-1.352 0-2.446 1.084-2.446 2.42 0 1.337 1.094 2.42 2.446 2.42m0 2.074c-2.509 0-4.543-2.01-4.543-4.494 0-2.482 2.034-4.494 4.543-4.494 2.509 0 4.543 2.012 4.543 4.494 0 2.484-2.034 4.494-4.543 4.494M54.733 83.326c1.35 0 2.446-1.084 2.446-2.42 0-1.338-1.095-2.421-2.446-2.421-1.352 0-2.446 1.083-2.446 2.42s1.094 2.42 2.446 2.42m0 2.075c-2.509 0-4.543-2.012-4.543-4.494 0-2.482 2.034-4.495 4.543-4.495 2.509 0 4.543 2.013 4.543 4.495S57.242 85.4 54.733 85.4M33.066 43.911c1.352 0 2.446-1.083 2.446-2.42s-1.094-2.42-2.446-2.42-2.446 1.083-2.446 2.42 1.094 2.42 2.446 2.42m0 2.074c-2.509 0-4.543-2.012-4.543-4.494 0-2.482 2.034-4.494 4.543-4.494 2.509 0 4.543 2.012 4.543 4.494 0 2.482-2.034 4.494-4.543 4.494M76.4 72.262c1.35 0 2.445-1.084 2.445-2.42 0-1.337-1.095-2.42-2.445-2.42-1.352 0-2.446 1.083-2.446 2.42 0 1.336 1.094 2.42 2.446 2.42m0 2.074c-2.51 0-4.545-2.011-4.545-4.493 0-2.483 2.035-4.495 4.545-4.495 2.508 0 4.543 2.012 4.543 4.495 0 2.482-2.035 4.493-4.543 4.493M33.066 72.262c1.352 0 2.446-1.084 2.446-2.42 0-1.337-1.094-2.42-2.446-2.42s-2.446 1.083-2.446 2.42c0 1.336 1.094 2.42 2.446 2.42m0 2.074c-2.509 0-4.543-2.011-4.543-4.493 0-2.483 2.034-4.495 4.543-4.495 2.509 0 4.543 2.012 4.543 4.495 0 2.482-2.034 4.493-4.543 4.493M76.4 43.911c1.35 0 2.445-1.083 2.445-2.42s-1.095-2.42-2.445-2.42c-1.352 0-2.446 1.083-2.446 2.42s1.094 2.42 2.446 2.42m0 2.074c-2.51 0-4.545-2.012-4.545-4.494 0-2.482 2.035-4.494 4.545-4.494 2.508 0 4.543 2.012 4.543 4.494 0 2.482-2.035 4.494-4.543 4.494"/>
    </g>
</svg>
