<svg xmlns="http://www.w3.org/2000/svg" width="100" height="100" viewBox="0 0 100 100">
    <g fill="none" fill-rule="evenodd">
        <circle cx="50" cy="50" r="50" fill="#FB5E49"/>
        <g fill="#FFF" fill-rule="nonzero">
            <path d="M26.682 49h-2.455C23.55 49 23 49.67 23 50.5s.55 1.5 1.227 1.5h2.455c.677 0 1.227-.67 1.227-1.5s-.55-1.5-1.227-1.5zm49.09 0h-2.454c-.677 0-1.227.67-1.227 1.5s.55 1.5 1.227 1.5h2.455C76.45 52 77 51.33 77 50.5s-.55-1.5-1.227-1.5zM67.767 40c-.681 0-1.234.559-1.234 1.25v17.5c0 .691.553 1.25 1.234 1.25.68 0 1.233-.559 1.233-1.25v-17.5c0-.691-.553-1.25-1.233-1.25zM43.1 40c-.68 0-1.233.559-1.233 1.25v17.5c0 .691.552 1.25 1.233 1.25.68 0 1.233-.559 1.233-1.25v-17.5c0-.691-.552-1.25-1.233-1.25zm-9.867 5c-.68 0-1.233.559-1.233 1.25v7.5c0 .691.553 1.25 1.233 1.25.681 0 1.234-.559 1.234-1.25v-7.5c0-.691-.553-1.25-1.234-1.25zm29.6-10c-.68 0-1.233.559-1.233 1.25v27.5c0 .691.553 1.25 1.233 1.25.681 0 1.234-.559 1.234-1.25v-27.5c0-.691-.553-1.25-1.234-1.25zm-9.866 0c-.681 0-1.234.559-1.234 1.25v27.5c0 .691.553 1.25 1.234 1.25.68 0 1.233-.559 1.233-1.25v-27.5c0-.691-.553-1.25-1.233-1.25zm-14.8 0c-.681 0-1.234.559-1.234 1.25v27.5c0 .691.553 1.25 1.234 1.25.68 0 1.233-.559 1.233-1.25v-27.5c0-.691-.553-1.25-1.233-1.25zM57.9 30c-.68 0-1.233.559-1.233 1.25v37.5c0 .691.552 1.25 1.233 1.25.68 0 1.233-.559 1.233-1.25v-37.5c0-.691-.552-1.25-1.233-1.25zm-9.867 0c-.68 0-1.233.559-1.233 1.25v37.5c0 .691.553 1.25 1.233 1.25.681 0 1.234-.559 1.234-1.25v-37.5c0-.691-.553-1.25-1.234-1.25z"/>
        </g>
    </g>
</svg>
