<svg xmlns="http://www.w3.org/2000/svg" width="78" height="78" viewBox="0 0 78 78">
    <g fill="none" fill-rule="evenodd">
        <path fill="#DC3B41" d="M38.953 78C17.439 78 0 60.559 0 39.048 0 17.534 17.439.096 38.953.096c21.51 0 38.952 17.438 38.952 38.952C77.905 60.558 60.464 78 38.953 78z"/>
        <path fill="#FFF" d="M52.911 45.49c-1.274-1.275-3.391-1.234-4.709.088l-3.23 3.238-.638-.357c-2.04-1.131-4.83-2.681-7.771-5.63-2.945-2.953-4.495-5.754-5.631-7.8a19.54 19.54 0 0 0-.344-.622l2.168-2.17 1.063-1.068c1.327-1.328 1.358-3.448.086-4.727l-6.408-6.425c-1.271-1.276-3.389-1.238-4.716.09l-1.804 1.82.05.049a10.445 10.445 0 0 0-1.49 2.633c-.346.916-.563 1.79-.66 2.668-.848 7.033 2.357 13.462 11.061 22.185 12.03 12.053 21.722 11.142 22.142 11.1.91-.11 1.784-.326 2.67-.673a10.395 10.395 0 0 0 2.617-1.484l.041.033 1.83-1.798c1.32-1.325 1.36-3.444.086-4.724l-6.413-6.427z"/>
    </g>
</svg>
