<svg xmlns="http://www.w3.org/2000/svg" xmlns:xlink="http://www.w3.org/1999/xlink" width="137" height="127" viewBox="0 0 137 127">
    <defs>
        <path id="a" d="M.664.485h34.391V35H.665z"/>
    </defs>
    <g fill="none" fill-rule="evenodd">
        <path stroke="#929292" stroke-dasharray="1,8" stroke-linecap="round" stroke-width="3" d="M118 58c0-28.719-23.281-52-52-52S14 29.281 14 58s23.281 52 52 52 52-23.281 52-52z"/>
        <path fill="#DC3B41" d="M84 109.5c0 9.664-7.835 17.5-17.5 17.5S49 119.164 49 109.5C49 99.835 56.835 92 66.5 92S84 99.835 84 109.5"/>
        <g fill-rule="nonzero">
            <path fill="#FFF" d="M57 119l1.38-5a10.082 10.082 0 0 1-1.38-5.069C57 103.483 61.483 99 66.966 99 72.448 99 77 103.483 77 108.931 77 114.379 72.448 119 66.966 119c-1.725 0-3.38-.552-4.863-1.38L57 119z"/>
            <path fill="#DC3B41" d="M62.382 115.824l.31.172c1.275.793 2.757 1.276 4.308 1.276 4.515 0 8.272-3.757 8.272-8.34 0-4.585-3.757-8.204-8.306-8.204-4.55 0-8.238 3.654-8.238 8.203a8.35 8.35 0 0 0 1.276 4.446l.206.31-.792 2.895 2.964-.758z"/>
            <path fill="#FEFEFE" d="M64.307 104.343l-.655-.034a.787.787 0 0 0-.553.205c-.31.274-.828.788-.966 1.473-.242 1.028.138 2.26 1.035 3.494.898 1.233 2.623 3.22 5.66 4.076.967.274 1.726.103 2.347-.274a2.02 2.02 0 0 0 .898-1.302l.103-.48a.343.343 0 0 0-.172-.376l-2.175-.993a.33.33 0 0 0-.414.102l-.863 1.096c-.069.069-.172.103-.276.069-.586-.206-2.554-1.028-3.624-3.083-.034-.103-.034-.205.035-.274l.828-.925c.07-.102.104-.24.07-.342l-1.002-2.227a.3.3 0 0 0-.276-.205"/>
        </g>
        <path fill="#DC3B41" d="M35 74.5C35 84.165 27.164 92 17.5 92 7.833 92 0 84.164 0 74.5S7.834 57 17.5 57C27.163 57 35 64.836 35 74.5"/>
        <path fill="#FFF" d="M25.612 72.192l-7.706 4.168c-.34.183-.578.208-.907.208-.328 0-.566-.025-.905-.208l-7.706-4.168c-.391-.21-.388.036-.388.227v7.589c0 .434.558.992.992.992h16.016c.434 0 .992-.558.992-.992v-7.59c0-.19.003-.437-.388-.226m-17.019-2.07c.489.272 7.248 4.03 7.5 4.168.253.14.578.207.906.207.329 0 .655-.067.907-.207.251-.138 7.012-3.896 7.5-4.167.488-.27.95-1.123.053-1.123H8.541c-.898 0-.435.852.052 1.123"/>
        <path fill="#DC3B41" d="M48 17.5C48 27.164 40.164 35 30.5 35 20.835 35 13 27.164 13 17.5 13 7.835 20.835 0 30.5 0 40.164 0 48 7.835 48 17.5"/>
        <path fill="#FFF" d="M39.597 22.237l-2.781-2.787c-.553-.552-1.471-.535-2.042.039l-1.401 1.404-.277-.155c-.885-.49-2.095-1.163-3.37-2.442-1.277-1.28-1.949-2.495-2.442-3.382-.05-.094-.099-.183-.149-.27l.94-.94.461-.464c.576-.576.59-1.495.038-2.05l-2.779-2.786c-.551-.553-1.47-.537-2.045.04l-.782.789.022.02a4.53 4.53 0 0 0-.647 1.142 4.7 4.7 0 0 0-.286 1.158c-.368 3.05 1.022 5.837 4.797 9.62 5.216 5.227 9.42 4.831 9.601 4.814a4.667 4.667 0 0 0 2.293-.936l.018.014.793-.78c.573-.574.59-1.493.038-2.048"/>
        <path fill="#DC3B41" d="M114 18.5c0 9.664-7.836 17.5-17.5 17.5C86.833 36 79 28.164 79 18.5 79 8.835 86.833 1 96.5 1c9.664 0 17.5 7.835 17.5 17.5"/>
        <path fill="#FFF" d="M105 10h-9c-1.1 0-2 .9-2 2v8h7l3 3v-3h1c1.1 0 2-.9 2-2v-6c0-1.1-.9-2-2-2zM92.8 21.2V15h-3.801C87.9 15 87 15.9 87 17v6c0 1.1.9 2 1.999 2h1v3l3-3h5c1.1 0 2-.9 2-2v-1.82a.962.962 0 0 1-.198.02h-7.002z"/>
        <g transform="translate(101 52)">
            <mask id="b" fill="#fff">
                <use xlink:href="#a"/>
            </mask>
            <path fill="#DC3B41" d="M35.056 17.743c0 9.53-7.7 17.257-17.196 17.257C8.363 35 .664 27.273.664 17.743.664 8.21 8.363.485 17.86.485c9.496 0 17.196 7.726 17.196 17.258" mask="url(#b)"/>
        </g>
        <path fill="#FFF" d="M124 73c-.688 0-1.317.234-1.824.623l-5.22-3.133c.027-.16.043-.322.043-.49 0-.168-.016-.33-.042-.49l5.219-3.133A2.985 2.985 0 0 0 124 67a3 3 0 1 0-3-3c0 .167.016.33.044.491l-5.22 3.132a2.982 2.982 0 0 0-1.826-.623 3 3 0 0 0 0 6c.689 0 1.32-.233 1.825-.622l5.22 3.132c-.027.16-.043.323-.043.49a3 3 0 1 0 3-3"/>
    </g>
</svg>
