<svg xmlns="http://www.w3.org/2000/svg" width="154" height="142" viewBox="0 0 154 142">
    <g fill="none" fill-rule="evenodd">
        <path stroke="#929292" stroke-dasharray="1,8" stroke-linecap="round" stroke-linejoin="bevel" stroke-width="3" d="M79 140c32.033 0 58-25.967 58-58s-25.967-58-58-58-58 25.967-58 58 25.967 58 58 58z"/>
        <path fill="#DC3B41" d="M24.654 138C11.038 138 0 126.961 0 113.347 0 99.73 11.038 88.694 24.654 88.694c13.614 0 24.653 11.037 24.653 24.653C49.307 126.96 38.268 138 24.654 138z"/>
        <path fill="#FFF" d="M33.488 117.423c-.806-.806-2.146-.78-2.98.057l-2.045 2.05-.403-.227c-1.292-.716-3.058-1.697-4.919-3.564-1.864-1.868-2.845-3.64-3.564-4.935a12.367 12.367 0 0 0-.218-.395l1.373-1.373.672-.676c.84-.84.86-2.182.055-2.992l-4.056-4.066c-.804-.808-2.145-.784-2.985.057l-1.141 1.152.032.03a6.61 6.61 0 0 0-.944 1.667 6.859 6.859 0 0 0-.417 1.689c-.537 4.45 1.491 8.52 7 14.041 7.614 7.629 13.748 7.052 14.014 7.026a6.812 6.812 0 0 0 3.346-1.366l.026.021 1.158-1.138c.836-.839.861-2.18.055-2.99l-4.06-4.068z"/>
        <path fill="#DC3B41" d="M78.653 48.329C65.037 48.329 54 37.635 54 24.446c0-13.19 11.036-23.884 24.652-23.884 13.614 0 24.653 10.693 24.653 23.884 0 13.189-11.039 23.883-24.653 23.883z"/>
        <path fill="#FFF" d="M90.877 20.714L79.94 26.253c-.483.243-.821.276-1.287.276-.467 0-.804-.033-1.286-.276l-10.937-5.54c-.555-.28-.55.049-.55.302v10.086c0 .577.792 1.319 1.408 1.319h22.73c.617 0 1.409-.742 1.409-1.319V21.015c0-.253.005-.581-.55-.301m-24.155-2.75c.693.36 10.287 5.354 10.645 5.539.358.186.82.275 1.286.275.466 0 .929-.09 1.287-.275.356-.185 9.951-5.178 10.643-5.54.694-.359 1.349-1.492.076-1.492H66.648c-1.274 0-.618 1.133.074 1.493"/>
        <g>
            <path fill="#DC3B41" d="M153.308 113.446c0 13.189-11.04 23.883-24.654 23.883-13.617 0-24.653-10.694-24.653-23.883 0-13.19 11.036-23.883 24.653-23.883 13.615 0 24.654 10.692 24.654 23.883"/>
            <path fill="#FFF" d="M139.99 101.435h-12.753c-1.56 0-2.834 1.236-2.834 2.745v10.983h9.918l4.251 4.117v-4.117h1.418c1.56 0 2.834-1.236 2.834-2.747v-8.236c0-1.51-1.274-2.745-2.834-2.745zm-17.289 15.375v-8.51h-5.385c-1.557 0-2.832 1.235-2.832 2.744v8.236c0 1.511 1.275 2.747 2.832 2.747h1.418v4.117l4.251-4.117h7.086c1.558 0 2.834-1.236 2.834-2.747v-2.498c-.09.019-.188.028-.283.028h-9.92z"/>
        </g>
    </g>
</svg>
