<svg xmlns="http://www.w3.org/2000/svg" width="96" height="96" viewBox="0 0 96 96">
    <g fill="none" fill-rule="evenodd">
        <circle cx="48" cy="48" r="48" fill="#FFF"/>
        <g>
            <path fill="red" d="M59.112 21.905h-2.69V41.35h2.69V21.905zM3.875 20.597c-.85.007-1.46.44-1.842.996-.291.422-.421.927-.37 1.374.053.45.258.846.733 1.167 2.845 1.927 8.154 5.74 13.313 9.07 2.578 1.664 5.118 3.207 7.27 4.324 2.154 1.117 3.983 1.773 4.812 1.775 7.904 0 13.782-2.91 23.725-1.055v-2.042c-.005-.387.304-.705.692-.71.386-.006.705.304.71.691v5.162h2.102V21.905h-2.102v5.136c.006.387-.304.705-.691.711-.386.005-.705-.304-.711-.69v-1.719c-2.53-1.008-6.65-2.009-8.948-2.009-2.646 0-4.457.48-6.19.982-1.734.501-3.41 1.036-5.603 1.036h-.02l-7.567-.23h-.002c-1.087-.03-1.947.823-1.947 1.758 0 .945.849 1.715 1.996 1.76h.003l14.393.616c.386.01.69.333.68.72-.01.386-.332.691-.72.681h-.021l-14.39-.617h-.003c-1.366-.053-2.602-.843-3.103-2.008-.025-.009-.048-.019-.07-.03L5.407 20.988c-.577-.278-1.088-.394-1.532-.39zm.172-1.364c.62.012 1.286.164 1.967.492l13.864 6.662c.255-1.536 1.682-2.715 3.349-2.667h.002l7.55.23c1.967 0 3.455-.473 5.209-.98 1.757-.508 3.76-1.038 6.58-1.038 2.513 0 6.258.904 8.948 1.91v-2.638c0-.387.314-.7.7-.7h7.596c.388 0 .7.313.7.7V42.05c0 .387-.312.701-.7.701h-7.596c-.386 0-.7-.314-.7-.7v-2.377c-9.75-1.888-15.414 1.031-23.726 1.031h-.001c-1.421 0-3.233-.78-5.454-1.933-2.221-1.153-4.787-2.714-7.387-4.392-5.198-3.356-10.532-7.185-13.336-9.085H1.61C.816 24.757.366 23.947.27 23.128c-.095-.82.136-1.647.608-2.33.647-.942 1.8-1.592 3.168-1.566z" transform="translate(18 25)"/>
            <path stroke="red" stroke-width=".5" d="M59.112 21.905h-2.69V41.35h2.69V21.905zM3.875 20.597c-.85.007-1.46.44-1.842.996-.291.422-.421.927-.37 1.374.053.45.258.846.733 1.167h0c2.845 1.927 8.154 5.74 13.313 9.07 2.578 1.664 5.118 3.207 7.27 4.324 2.154 1.117 3.983 1.773 4.812 1.775h0c7.904 0 13.782-2.91 23.725-1.055v-2.042c-.005-.387.304-.705.692-.71.386-.006.705.304.71.691v5.162h2.102V21.905h-2.102v5.136c.006.387-.304.705-.691.711-.386.005-.705-.304-.711-.69v-1.719c-2.53-1.008-6.65-2.009-8.948-2.009-2.646 0-4.457.48-6.19.982-1.734.501-3.41 1.036-5.603 1.036h-.02l-7.567-.23h-.002c-1.087-.03-1.947.823-1.947 1.758 0 .945.849 1.715 1.996 1.76h.003l14.393.616c.386.01.69.333.68.72-.01.386-.332.691-.72.681h-.021l-14.39-.617h-.003c-1.366-.053-2.602-.843-3.103-2.008-.025-.009-.048-.019-.07-.03L5.407 20.988c-.577-.278-1.088-.394-1.532-.39h0zm.172-1.364c.62.012 1.286.164 1.967.492l13.864 6.662c.255-1.536 1.682-2.715 3.349-2.667h.002l7.55.23c1.967 0 3.455-.473 5.209-.98 1.757-.508 3.76-1.038 6.58-1.038 2.513 0 6.258.904 8.948 1.91v-2.638c0-.387.314-.7.7-.7h7.596c.388 0 .7.313.7.7V42.05c0 .387-.312.701-.7.701h-7.596c-.386 0-.7-.314-.7-.7v-2.377c-9.75-1.888-15.414 1.031-23.726 1.031h-.001c-1.421 0-3.233-.78-5.454-1.933-2.221-1.153-4.787-2.714-7.387-4.392-5.198-3.356-10.532-7.185-13.336-9.085H1.61C.816 24.757.366 23.947.27 23.128c-.095-.82.136-1.647.608-2.33.647-.942 1.8-1.592 3.168-1.566z" transform="translate(18 25)"/>
            <path fill="red" d="M26.652 9.01c.387.005.695.323.689.71v4.042h4.044c.387-.005.705.304.71.691.006.388-.303.705-.69.711H27.34v4.043c.006.387-.303.705-.69.711-.387.005-.705-.304-.711-.69V15.163h-4.043c-.387.006-.705-.304-.711-.69-.005-.388.305-.706.692-.712h4.062V9.72c-.005-.387.304-.705.69-.71h.022" transform="translate(18 25)"/>
            <path stroke="red" stroke-width=".5" d="M26.652 9.01c.387.005.695.323.689.71v4.042h4.044c.387-.005.705.304.71.691.006.388-.303.705-.69.711H27.34v4.043c.006.387-.303.705-.69.711-.387.005-.705-.304-.711-.69V15.163h-4.043c-.387.006-.705-.304-.711-.69-.005-.388.305-.706.692-.712h4.062V9.72c-.005-.387.304-.705.69-.71h.022z" transform="translate(18 25)"/>
            <path fill="red" d="M20.92.25c.386.006.695.324.69.71V3h2.038c.387-.006.707.304.712.69.005.388-.303.706-.691.71h-2.06v2.034c.006.386-.303.705-.69.71-.387.005-.704-.304-.71-.691V4.4h-2.032c-.387.006-.706-.303-.712-.691-.005-.387.305-.705.692-.71h2.052V.96c-.006-.386.303-.704.69-.71h.02z" transform="translate(18 25)"/>
            <path stroke="red" stroke-width=".5" d="M20.92.25c.386.006.695.324.69.71V3h2.038c.387-.006.707.304.712.69.005.388-.303.706-.691.71h-2.06v2.034c.006.386-.303.705-.69.71-.387.005-.704-.304-.71-.691V4.4h-2.032c-.387.006-.706-.303-.712-.691-.005-.387.305-.705.692-.71h2.052V.96c-.006-.386.303-.704.69-.71h.02z" transform="translate(18 25)"/>
            <path fill="red" d="M32.383.25c.387.006.695.324.69.71V3h2.04c.386-.006.705.304.71.69.005.388-.304.706-.69.71h-2.06v2.034c.005.386-.303.705-.69.71-.388.005-.706-.304-.71-.691V4.4H29.64c-.387.006-.705-.303-.71-.691-.006-.387.303-.705.69-.71h2.052V.96c-.006-.386.304-.704.69-.71h.021z" transform="translate(18 25)"/>
            <path stroke="red" stroke-width=".5" d="M32.383.25c.387.006.695.324.69.71V3h2.04c.386-.006.705.304.71.69.005.388-.304.706-.69.71h-2.06v2.034c.005.386-.303.705-.69.71-.388.005-.706-.304-.71-.691V4.4H29.64c-.387.006-.705-.303-.71-.691-.006-.387.303-.705.69-.71h2.052V.96c-.006-.386.304-.704.69-.71h.021z" transform="translate(18 25)"/>
        </g>
    </g>
</svg>
