<svg xmlns="http://www.w3.org/2000/svg" xmlns:xlink="http://www.w3.org/1999/xlink" width="110" height="110" viewBox="0 0 110 110">
    <defs>
        <path id="a" d="M0 .53h109.465v108.3H0z"/>
        <path id="c" d="M0 109.47h109.465V1.17H0z"/>
    </defs>
    <g fill="none" fill-rule="evenodd">
        <g transform="translate(0 .641)">
            <mask id="b" fill="#fff">
                <use xlink:href="#a"/>
            </mask>
            <path fill="#F9F9F9" d="M109.45 55.96C110.164 26.064 86.246 1.253 56.027.546 25.808-.164.731 23.5.016 53.398c-.716 29.896 23.203 54.708 53.422 55.416 30.218.708 55.297-22.954 56.011-52.853" mask="url(#b)"/>
        </g>
        <mask id="d" fill="#fff">
            <use xlink:href="#c"/>
        </mask>
        <path fill="#DC3B41" d="M28.938 78.636h51.59v-40.26h-51.59v40.26zm0-41.485h51.59v-5.064h-51.59v5.064zM27.7 79.78h54.065V30.86H27.7v48.92z" mask="url(#d)"/>
        <path stroke="#DC3B41" stroke-linecap="round" stroke-linejoin="round" stroke-width=".545" d="M28.938 78.636h51.59v-40.26h-51.59v40.26zm0-41.485h51.59v-5.064h-51.59v5.064zM27.7 79.78h54.065V30.86H27.7v48.92z" mask="url(#d)"/>
        <path fill="#DC3B41" d="M71.695 35.272h1.239v-1.225h-1.239z" mask="url(#d)"/>
        <path stroke="#DC3B41" stroke-linecap="round" stroke-linejoin="round" stroke-width=".545" d="M71.695 35.272h1.239v-1.225h-1.239z" mask="url(#d)"/>
        <path fill="#DC3B41" d="M74.832 35.272h1.238v-1.225h-1.238z" mask="url(#d)"/>
        <path stroke="#DC3B41" stroke-linecap="round" stroke-linejoin="round" stroke-width=".545" d="M74.832 35.272h1.238v-1.225h-1.238z" mask="url(#d)"/>
        <path fill="#DC3B41" d="M68.558 35.272h1.239v-1.225h-1.239z" mask="url(#d)"/>
        <path stroke="#DC3B41" stroke-linecap="round" stroke-linejoin="round" stroke-width=".545" d="M68.558 35.272h1.239v-1.225h-1.239z" mask="url(#d)"/>
        <path fill="#DC3B41" d="M60.387 66.55l-.33.244c-.99.654-2.064 1.062-3.22 1.307l-.413.082-.495 2.532h-2.31l-.496-2.532-.412-.082c-1.157-.245-2.23-.653-3.22-1.307l-.33-.244-2.146 1.47-1.65-1.634 1.485-2.123-.331-.326c-.66-.98-1.073-2.042-1.32-3.186l-.083-.408-2.558-.408v-2.286l2.558-.49.083-.41c.247-1.143.66-2.204 1.32-3.185l.247-.325-1.567-2.206L46.85 49.4l2.146 1.47.33-.244c.99-.655 2.064-1.063 3.22-1.309l.412-.08.412-2.532h2.31l.497 2.531.412.081c1.157.246 2.23.654 3.22 1.309l.33.244 2.145-1.47 1.652 1.633-1.486 2.124.248.326c.66.98 1.073 2.042 1.32 3.185l.083.408 2.56.41v2.286l-2.56.489.083.41c-.248 1.142-.661 2.203-1.321 3.184l-.247.326 1.485 2.123-1.65 1.635-2.064-1.39zm5.365-.082l-1.568-2.287c.496-.898.908-1.878 1.156-2.859l2.724-.489v-4.328l-2.724-.49a9.671 9.671 0 0 0-1.239-2.858l1.569-2.287-3.137-3.103-2.311 1.55c-.908-.489-1.899-.897-2.889-1.142l-.495-2.695h-4.375l-.495 2.695a9.9 9.9 0 0 0-2.89 1.225l-2.312-1.551-3.135 3.103 1.568 2.287c-.496.898-.907 1.877-1.156 2.857l-2.724.49v4.33l2.724.49c.249.978.66 1.958 1.239 2.857l-1.57 2.287 3.138 3.102 2.311-1.55c.908.57 1.898.898 2.889 1.143l.495 2.694h4.374l.496-2.694a9.924 9.924 0 0 0 2.89-1.225l2.31 1.551 3.137-3.103z" mask="url(#d)"/>
        <path stroke="#DC3B41" stroke-linecap="round" stroke-linejoin="round" stroke-width=".545" d="M60.387 66.55l-.33.244c-.99.654-2.064 1.062-3.22 1.307l-.413.082-.495 2.532h-2.31l-.496-2.532-.412-.082c-1.157-.245-2.23-.653-3.22-1.307l-.33-.244-2.146 1.47-1.65-1.634 1.485-2.123-.331-.326c-.66-.98-1.073-2.042-1.32-3.186l-.083-.408-2.558-.408v-2.286l2.558-.49.083-.41c.247-1.143.66-2.204 1.32-3.185l.247-.325-1.567-2.206L46.85 49.4l2.146 1.47.33-.244c.99-.655 2.064-1.063 3.22-1.309l.412-.08.412-2.532h2.31l.497 2.531.412.081c1.157.246 2.23.654 3.22 1.309l.33.244 2.145-1.47 1.652 1.633-1.486 2.124.248.326c.66.98 1.073 2.042 1.32 3.185l.083.408 2.56.41v2.286l-2.56.489.083.41c-.248 1.142-.661 2.203-1.321 3.184l-.247.326 1.485 2.123-1.65 1.635-2.064-1.39zm5.365-.082l-1.568-2.287c.496-.898.908-1.878 1.156-2.859l2.724-.489v-4.328l-2.724-.49a9.671 9.671 0 0 0-1.239-2.858l1.569-2.287-3.137-3.103-2.311 1.55c-.908-.489-1.899-.897-2.889-1.142l-.495-2.695h-4.375l-.495 2.695a9.9 9.9 0 0 0-2.89 1.225l-2.312-1.551-3.135 3.103 1.568 2.287c-.496.898-.907 1.877-1.156 2.857l-2.724.49v4.33l2.724.49c.249.978.66 1.958 1.239 2.857l-1.57 2.287 3.138 3.102 2.311-1.55c.908.57 1.898.898 2.889 1.143l.495 2.694h4.374l.496-2.694a9.924 9.924 0 0 0 2.89-1.225l2.31 1.551 3.137-3.103z" mask="url(#d)"/>
        <path fill="#DC3B41" d="M54.692 63.283v.654-.654c-2.56 0-4.707-2.041-4.707-4.572 0-2.533 2.065-4.657 4.624-4.657 2.56 0 4.622 2.042 4.622 4.573.166 2.533-1.981 4.656-4.54 4.656m0-10.454c-3.219 0-5.86 2.614-5.86 5.882 0 3.184 2.641 5.797 5.86 5.797 3.22 0 5.861-2.613 5.861-5.88 0-3.185-2.64-5.799-5.86-5.799" mask="url(#d)"/>
        <path stroke="#DC3B41" stroke-linecap="round" stroke-linejoin="round" stroke-width=".545" d="M54.692 63.283v.654-.654c-2.56 0-4.707-2.041-4.707-4.572 0-2.533 2.065-4.657 4.624-4.657 2.56 0 4.622 2.042 4.622 4.573.166 2.533-1.981 4.656-4.54 4.656zm0-10.454c-3.22 0-5.861 2.614-5.861 5.882 0 3.184 2.641 5.797 5.86 5.797 3.22 0 5.861-2.613 5.861-5.88 0-3.185-2.64-5.799-5.86-5.799z" mask="url(#d)"/>
        <path fill="#DC3B41" d="M37.192 43.601h10.07v-1.225H35.955v8.413h1.238z" mask="url(#d)"/>
        <path stroke="#DC3B41" stroke-linecap="round" stroke-linejoin="round" stroke-width=".545" d="M37.192 43.601h10.07v-1.225H35.955v8.413h1.238z" mask="url(#d)"/>
        <path fill="#DC3B41" d="M37.192 66.55h-1.238v8.493h11.309v-1.225h-10.07z" mask="url(#d)"/>
        <path stroke="#DC3B41" stroke-linecap="round" stroke-linejoin="round" stroke-width=".545" d="M37.192 66.55h-1.238v8.493h11.309v-1.225h-10.07z" mask="url(#d)"/>
        <path fill="#DC3B41" d="M72.191 73.818H62.119v1.225h11.31V66.55h-1.238z" mask="url(#d)"/>
        <path stroke="#DC3B41" stroke-linecap="round" stroke-linejoin="round" stroke-width=".545" d="M72.191 73.818H62.119v1.225h11.31V66.55h-1.238z" mask="url(#d)"/>
        <path fill="#DC3B41" d="M62.12 43.601H72.19v7.188h1.239v-8.413H62.12z" mask="url(#d)"/>
        <path stroke="#DC3B41" stroke-linecap="round" stroke-linejoin="round" stroke-width=".545" d="M62.12 43.601H72.19v7.188h1.239v-8.413H62.12z" mask="url(#d)"/>
    </g>
</svg>
