<?xml version="1.0" encoding="UTF-8"?>
<svg width="571px" height="381px" viewBox="0 0 571 381" version="1.1" xmlns="http://www.w3.org/2000/svg" xmlns:xlink="http://www.w3.org/1999/xlink">
    <!-- Generator: Sketch 53.2 (72643) - https://sketchapp.com -->
    <title>Group 126</title>
    <desc>Created with Sketch.</desc>
    <defs>
        <path d="M58.741275,1.84697535 C51.561725,3.66400432 44.8439,7.02907611 38.421725,10.6594744 L38.421725,10.6594744 C32.851825,13.8086253 26.0172,16.520445 23.31255,22.3814156 L23.31255,22.3814156 C16.75715,36.5846169 10.940875,51.4008138 6.115575,66.282885 L6.115575,66.282885 C2.0805,78.7331016 -2.3506,91.7816752 4.01135,104.400237 L4.01135,104.400237 C6.071775,108.488095 9.064775,111.986745 11.422675,115.893448 L11.422675,115.893448 C14.047025,120.244803 15.028875,124.33449 15.371975,129.351906 L15.371975,129.351906 C16.15855,140.803031 15.85195,152.290753 15.8191,163.760176 L15.8191,163.760176 C15.809975,167.064864 15.853775,170.497639 17.29735,173.471126 L17.29735,173.471126 C20.1407,179.330267 27.87505,179.412609 33.44495,179.40163 L33.44495,179.40163 C51.806275,179.370523 70.16395,179.337586 88.525275,179.308309 L88.525275,179.308309 C96.1629,179.29184 102.001075,180.230547 109.1715,181.709056 L109.1715,181.709056 C115.206775,182.951516 120.38795,179.899346 123.2824,174.268935 L123.2824,174.268935 C126.02355,168.936788 126.233425,162.713509 126.525425,156.72445 L126.525425,156.72445 C127.6697,133.419635 130.967475,110.220951 136.362175,87.5254724 L136.362175,87.5254724 C137.891525,81.0972521 140.5688,72.6928069 142.651125,63.85652 L142.651125,63.85652 C146.104025,49.1958592 147.89435,34.1985083 140.06875,24.2094236 L140.06875,24.2094236 C136.53555,19.702533 130.237475,16.5607014 125.0855,14.3282992 L125.0855,14.3282992 C115.03705,9.97145535 104.7623,4.11780411 94.0021,2.22026227 L94.0021,2.22026227 C87.44305,1.06197492 80.455125,0.161694703 73.54385,0.161694703 L73.54385,0.161694703 C68.50685,0.161694703 63.508175,0.639282378 58.741275,1.84697535" id="path-1"></path>
    </defs>
    <g id="Desktop" stroke="none" stroke-width="1" fill="none" fill-rule="evenodd">
        <g id="PureCloud" transform="translate(-786.000000, -369.000000)">
            <g id="Group-126" transform="translate(786.000000, 369.000000)">
                <g id="Group-9" transform="translate(159.000000, 64.000000)">
                    <path d="M208.353467,217.078485 C193.647263,222.304404 175.913686,221.769352 162.534124,213.149884 C149.380839,204.677005 137.399088,198.562387 121.216606,198.857398 C106.756752,199.12126 94.7987226,206.9693 80.7932482,208.642254 C69.6855839,209.965225 58.4027372,205.103947 50.3516423,197.305381 C42.4921533,189.693716 37.275,178.087485 40.6910584,167.672294 C42.4812044,162.220994 46.3899635,157.722525 48.6217153,152.437971 C53.7677007,140.247213 40.2184307,132.893913 43.5870438,120.061826 C46.4538321,109.150063 58.3790146,101.366155 58.2001825,90.080589 C58.0706204,81.8220977 51.7020073,75.4179647 49.4593066,67.7769821 C47.1965328,60.0663694 47.6965328,51.4304098 51.6874088,44.3867798 C54.6198905,39.2121671 59.3315693,34.9738954 64.7914234,32.6394561 C69.694708,30.5395601 75.1728102,30.5010803 78.9629562,26.1986757 C85.7202555,18.5320399 88.1983577,10.2222422 97.4702555,4.61702254 C105.318796,-0.128815607 115.683759,-0.431156647 124.687409,0.397074566 C144.694708,2.23860636 164.114416,12.8443636 175.384489,29.7333173 C179.379015,35.7178376 182.260401,41.8434503 182.360766,48.9567104 C182.470255,56.7332884 182.466606,64.5575081 187.212956,71.1668665 C191.196533,76.717115 197.592518,79.9659069 203.933759,82.4707566 C210.273175,84.9756064 216.919161,87.0022075 222.486679,90.9491324 C228.052372,94.8942249 232.473905,101.333173 231.82427,108.144092 C231.280474,113.844595 227.351642,118.797491 226.82792,124.501658 C225.87719,134.87104 235.826095,142.40208 241.959307,150.797999 C250.545073,162.554485 251.968431,179.179577 245.504927,192.235213 C238.065146,207.267976 224.545073,210.656028 210.379015,216.314387 C209.711131,216.581913 209.035949,216.83478 208.353467,217.078485" id="Fill-1" fill="#333333"></path>
                    <path d="M172.221533,148.185773 C172.743431,160.928073 169.801825,170.500374 158.195985,176.801894 C148.953285,181.820755 137.885766,183.468056 127.685036,183.720923 C110.577372,184.144201 91.5153285,179.71353 78.7178832,167.647374 C76.3948905,165.457692 74.1667883,162.77327 73.9989051,159.577617 C73.8456204,156.67331 75.4368613,153.937582 75.5773723,151.033276 C75.8127737,146.133518 72.0208029,142.076651 70.3255474,137.475571 C68.0864964,131.401264 69.6083942,124.619663 71.6193431,118.464732 C73.6321168,112.311634 76.150365,106.096235 75.8474453,99.626137 C75.4551095,91.2320503 70.4332117,83.9044029 66.4113139,76.5364434 C62.3894161,69.1684838 59.2251825,60.2026977 62.6613139,52.5433913 C64.9259124,47.4933798 70.3255474,43.6124202 75.8437956,42.9967439 C81.6740876,42.3462526 86.9113139,49.0380676 90.6467153,52.7211312 C95.670438,57.6795243 101.270803,62.051559 107.292701,65.721796 C115.622993,70.7992931 124.768978,74.5428249 132.604745,80.3587671 C137.34562,83.8769173 142.431387,88.7088769 144.695985,94.3177613 C147.245255,100.63394 142.779927,106.750391 148.179562,112.562669 C151.663139,116.309865 157.015328,117.585195 161.228832,120.484004 C170.24708,126.688409 171.809124,138.126062 172.221533,148.185773" id="Fill-3" fill="#333333"></path>
                    <path d="M77.7445255,219.487135 C89.7572993,200.899575 97.2317518,178.088401 86.7937956,157.102268 C85.7354015,154.974887 84.4635036,152.653274 82.2171533,151.903835 C77.3850365,150.291349 70.830292,152.026603 66.629562,154.500303 C52.0547445,163.088621 43.1350365,179.246459 34.9470803,193.623234 C26.4416058,208.557049 19.0529197,224.10654 10.5054745,239.018366 C7.0419708,245.057858 3.54562044,251.177973 1.68978102,257.893609 C0.0620437956,263.775517 -0.114963504,270.511309 2.1040146,276.26495 C11.7007299,301.146702 38.0857664,270.668892 46.1167883,261.461234 C57.5784672,248.321309 68.2810219,234.138765 77.7445255,219.487135" id="Fill-5" fill="#91DDF8"></path>
                    <path d="M186.432482,198.692302 C189.885036,184.011354 191.675182,168.99325 183.850365,158.992175 C180.317518,154.477215 174.021898,151.331036 168.868613,149.097377 C158.821168,144.734504 148.547445,138.872753 137.790146,136.970753 C126.44708,134.967972 113.833942,133.731123 102.531022,136.596949 C95.3521898,138.416492 88.6350365,141.786221 82.2153285,145.423475 C76.6441606,148.575151 69.810219,151.292556 67.1058394,157.161637 C60.5529197,171.384492 54.7354015,186.21936 49.9124088,201.122024 C45.8759124,213.589469 41.4452555,226.657932 47.8047445,239.292123 C49.8667883,243.387469 52.8594891,246.890961 55.2171533,250.801238 C57.8412409,255.158614 58.8211679,259.253961 59.1660584,264.278319 C59.9507299,275.747123 59.6459854,287.248909 59.6131387,298.734203 C59.6040146,302.043464 59.6459854,305.482822 61.0894161,308.458591 C63.9361314,314.325839 71.6678832,314.408296 77.2372263,314.399134 C95.5948905,314.366151 113.952555,314.333169 132.312044,314.303851 C139.948905,314.289192 145.786496,315.229198 152.956204,316.70792 C158.990876,317.953932 164.171533,314.895706 167.065693,309.257504 C169.806569,303.91981 170.016423,297.686088 170.310219,291.688741 C171.452555,268.35351 174.75,245.122724 180.144161,222.395839 C181.673358,215.958724 184.350365,207.542649 186.432482,198.692302" id="Fill-7" fill="#91DDF8"></path>
                </g>
                <g id="Group-12" transform="translate(204.000000, 199.000000)">
                    <mask id="mask-2" fill="white">
                        <use xlink:href="#path-1"></use>
                    </mask>
                    <g id="Clip-11"></g>
                    <path d="M100.128077,21.2119662 C104.449677,13.9218923 105.431527,4.8129595 99.7703775,-2.20995812 C97.1825275,-5.42132352 92.6036025,-5.77997174 88.6889775,-5.85316525 C80.9820025,-5.99772244 73.2586025,-5.17795509 65.7542025,-3.41765109 C58.6020275,-1.73968979 51.3075025,1.10204837 48.2086525,8.34454653 C45.9073275,13.7224399 46.7103275,19.9493781 49.7434775,24.869812 C52.4974025,29.338276 57.0672025,32.6484527 62.1662525,33.8652949 C70.3970025,35.8305407 80.0330025,35.567044 87.8878025,32.2605271 C92.8098275,30.1891506 97.2226775,26.1122719 100.128077,21.2119662" id="Fill-10" fill="#0096FF" mask="url(#mask-2)"></path>
                </g>
                <g id="Group-54" transform="translate(15.000000, 16.000000)">
                    <path d="M212.55471,121.467548 C202.519808,131.796834 211.622336,157.034821 227.626258,153.382628 C244.823984,149.459767 242.237104,122.648979 226.684743,118.246962 C220.622486,116.53151 215.785111,118.144547 212.55471,121.467548" id="Fill-13" fill="#9B87FF"></path>
                    <path d="M378.060748,277.45641 C381.137582,283.008767 384.194305,288.56844 387.196183,294.164689 C393.28952,305.521783 404.602322,330.754283 386.490504,336.986968 C377.366038,340.128914 372.146573,337.056464 366.115394,330.406803 C343.296003,305.247457 323.836813,277.04675 308.419738,246.78677 C302.681069,235.524776 287.441328,206.175558 305.949862,199.469203 C311.794566,197.351407 318.531424,197.845194 324.005006,200.789625 C326.50779,202.13748 328.729033,203.951689 330.849727,205.844538 C344.206438,217.759428 353.718479,233.136311 362.181143,248.730827 C367.409749,258.366982 372.764499,267.898894 378.060748,277.45641" id="Fill-15" fill="#91DDF8"></path>
                    <path d="M273.196302,207.25878 C278.708276,205.490292 283.247657,202.063046 284.947868,196.616762 C286.490855,191.67158 284.057542,186.110079 283.624263,181.121004 C283.209265,176.340417 283.154419,171.530569 283.468867,166.742667 C283.759548,162.316875 284.181859,157.704542 283.501774,153.293381 C283.116028,150.771411 281.730264,151.204846 279.181776,150.202642 C276.633287,149.200438 273.77218,149.191294 271.000653,149.19678 C265.32597,149.211411 250.53779,148.799922 247.031333,153.779852 C245.422532,156.065902 245.296387,158.942666 245.219603,161.66398 C245.126366,164.950404 244.545003,169.206114 244.007517,173.791015 C243.768025,175.832 243.916108,177.867498 243.603489,179.893853 C243.254305,182.163443 242.391403,184.339762 241.636363,186.514252 C238.782568,194.736715 241.455372,202.556833 250.344003,206.320585 C256.722536,209.02361 265.82872,209.623469 273.196302,207.25878" id="Fill-17" fill="#F8A17A"></path>
                    <path d="M283.472706,153.293564 C283.086959,150.771594 281.703024,151.2032 279.152708,150.202825 C276.604219,149.200621 273.743111,149.191476 270.971585,149.196963 C265.29873,149.211594 250.51055,148.800105 247.004093,153.780035 C245.393463,156.066084 245.267319,158.942849 245.190535,161.664163 C245.099126,164.950587 244.515935,169.206297 243.978449,173.791198 C243.738957,175.832183 243.88704,177.867681 243.57442,179.894036 C243.307506,181.62046 242.744425,183.293848 242.157578,184.954435 C247.658583,186.999077 253.868924,187.454459 259.605765,186.040766 C269.940489,183.49685 277.766944,177.061163 283.350218,168.694222 C283.379469,168.043155 283.397751,167.392088 283.439799,166.74285 C283.73048,162.317058 284.154619,157.704725 283.472706,153.293564" id="Fill-19" fill="#E5785C"></path>
                    <path d="M291.709406,120.894207 C291.66553,113.315496 290.619808,106.128156 288.669136,100.158824 C280.25949,74.4032756 248.141955,68.0407427 228.801598,86.5284822 C207.234512,107.143162 215.488762,156.439534 238.205776,173.754987 C244.279003,178.385609 252.533253,180.011447 259.909975,178.032643 C282.230272,172.045022 291.850176,144.568536 291.709406,120.894207" id="Fill-21" fill="#F8A17A"></path>
                    <path d="M287.488861,121.530095 C297.370195,116.125874 300.410465,129.81108 298.712082,136.623508 C298.008231,139.436263 296.898523,142.179523 295.152608,144.494833 C292.803391,147.611176 286.079331,152.781306 282.205409,149.372349 C280.448524,147.823322 280.267534,145.19345 280.212689,142.852536 C280.068262,136.575958 280.790395,125.195089 287.488861,121.530095" id="Fill-23" fill="#F8A17A"></path>
                    <path d="M255.303683,166.613368 C252.881339,166.613368 250.442542,166.434142 248.000088,166.073861 L248.437024,163.109312 C257.305544,164.416932 266.150298,163.180636 274.013317,159.535759 C276.148636,158.546357 277.960366,157.505747 279.549058,156.355407 C282.43576,154.261386 284.914778,151.529099 286.715539,148.449333 L289.302419,149.963613 C287.293245,153.398173 284.527203,156.446849 281.305943,158.782277 C279.560027,160.046005 277.585588,161.181715 275.272936,162.255243 C269.04797,165.139324 262.25261,166.613368 255.303683,166.613368" id="Fill-25" fill="#8070F2"></path>
                    <path d="M239.33925,160.746451 C242.951741,157.646568 250.988438,157.909921 253.637476,161.130507 C255.600946,163.518972 255.001301,166.54753 252.83856,168.56474 C250.28093,170.953205 247.118172,170.814213 243.927991,170.09365 C239.935238,169.193861 234.984516,164.484599 239.33925,160.746451" id="Fill-27" fill="#8070F2"></path>
                    <path d="M291.76023,101.219916 C282.906335,74.1037117 249.092245,67.4046722 228.729933,86.8690121 C224.230772,91.168614 220.983917,96.664277 218.823004,102.838439 C219.278222,103.540714 219.786457,104.244817 220.395242,104.950749 C223.188707,108.187795 227.044347,110.301934 230.925582,112.096026 C242.260322,117.33748 254.476247,120.413588 266.750674,122.716097 C267.655625,122.886179 268.564232,123.052604 269.474668,123.230001 C272.853152,123.897527 276.206041,124.729649 279.15673,126.470705 C287.498733,131.388454 283.911836,142.20787 290.021627,146.948222 C290.575566,147.377999 291.133162,147.655983 291.692587,147.851669 C293.950394,139.775513 295.008912,131.201913 294.959551,123.052604 C294.912019,115.071548 293.811452,107.505638 291.76023,101.219916" id="Fill-29" fill="#F8A17A"></path>
                    <path d="M270.348722,120.135239 C273.579123,121.3313 276.756507,122.688299 279.39092,124.87742 C286.842598,131.064384 281.5756,141.172381 286.853567,146.827153 C291.528233,151.838173 298.628899,145.217774 300.488162,140.588981 C303.916007,132.062931 303.713079,122.574911 303.460789,113.390478 C303.320019,108.26607 303.16828,103.070336 301.667341,98.1708751 C300.029288,92.8251769 296.839107,88.0573921 293.041969,83.9571337 C282.074694,72.119055 265.524145,65.9668385 249.501941,66.976358 C236.971569,67.7645879 214.989485,78.298704 224.812317,94.2571583 C227.053671,97.898378 230.523564,100.601403 234.068413,102.991696 C244.423246,109.974206 255.991994,114.961451 267.74356,119.189729 C268.608291,119.50246 269.480335,119.813363 270.348722,120.135239" id="Fill-31" fill="#333333"></path>
                    <path d="M291.638838,117.638507 C277.691623,121.215717 272.300309,147.4998 287.86181,152.73211 C304.580552,158.355792 316.3504,134.130982 305.375812,122.261813 C301.096034,117.63302 296.128858,116.486338 291.638838,117.638507" id="Fill-33" fill="#9B87FF"></path>
                    <path d="M296.211126,121.010338 C286.582081,122.559366 280.651453,143.020423 290.574835,148.65142 C301.236804,154.704879 311.242454,136.482321 304.969955,125.986611 C302.523845,121.891839 299.309898,120.514723 296.211126,121.010338" id="Fill-35" fill="#8070F2"></path>
                    <path d="M298.154486,119.476125 L294.434131,119.046348 C296.958853,97.2319488 295.882053,69.3586045 276.432004,60.4576421 C267.221614,56.240338 240.84092,51.5621663 229.23378,67.2353217 C227.837048,68.8044661 226.901018,70.1194017 226.901018,70.1194017 C234.100406,47.8953429 268.047953,52.4985322 277.991445,57.0486851 C299.487232,66.8878422 300.819978,96.4272594 298.154486,119.476125" id="Fill-37" fill="#9B87FF"></path>
                    <polygon id="Fill-39" fill="#999999" points="151.864123 340.394279 228.346197 340.394279 228.346197 325.416083 151.864123 325.416083"></polygon>
                    <path d="M164.988107,326.869096 L145.686141,228.56531 C145.176078,225.968357 142.899989,224.097455 140.254607,224.097455 L11.9362057,224.097455 C10.0787708,224.097455 8.48825084,225.015532 7.49006242,226.379846 L7.47178058,226.361558 L1.5484647,233.369671 L6.80449345,232.217502 L25.8084652,329.003352 C26.3185286,331.600304 28.5946175,333.471207 31.2399997,333.471207 L159.556572,333.471207 C163.042919,333.471207 165.65905,330.289026 164.988107,326.869096" id="Fill-41" fill="#999999"></path>
                    <path d="M153.690479,340.394279 C157.174997,340.394279 159.792956,337.212098 159.120185,333.792168 L139.818219,235.488382 C139.308156,232.89143 137.033895,231.018698 134.386685,231.018698 L6.07011197,231.018698 C2.58559343,231.018698 -0.0323659346,234.202708 0.638577562,237.622638 L19.9423715,335.926424 C20.4524348,338.523376 22.7266956,340.394279 25.3720777,340.394279 L153.690479,340.394279 Z" id="Fill-42" fill="#EFEFEF"></path>
                    <path d="M65.733991,283.271572 C66.9168259,289.902944 73.2514832,295.277903 79.8804781,295.277903 C86.5076448,295.277903 90.8459252,289.902944 89.5680247,283.271572 C88.2882959,276.640199 81.9554668,271.26524 75.4215375,271.26524 C68.8876082,271.26524 64.551156,276.640199 65.733991,283.271572" id="Fill-43" fill="#CCCCCC"></path>
                    <path d="M463.574038,281.705353 C464.987224,278.781039 464.734935,275.706759 463.842781,272.917779 C462.987191,270.068447 461.457001,267.614144 459.800666,264.929408 C458.12605,262.283077 456.416698,259.398997 455.370977,255.924201 C454.308802,252.412829 454.61228,248.475338 455.58853,245.145021 C457.696427,238.352711 462.012769,233.345348 464.985396,228.224597 C466.475366,225.633131 467.694764,222.999602 468.177405,220.088089 C468.718547,217.202181 468.532073,214.12973 467.117058,211.232848 C469.572309,213.383564 470.764285,216.867503 470.925165,220.243541 C471.076905,223.652498 470.217658,227.110834 468.910507,230.152194 C466.329111,236.32087 462.460674,241.328233 460.95425,246.743427 C460.100488,249.424505 459.890247,252.021458 460.495376,254.620239 C461.003611,257.284858 462.396687,259.975081 463.648993,262.89208 C464.978083,265.741412 466.250499,269.031495 466.533868,272.416677 C466.820892,275.750652 466.056712,279.521719 463.574038,281.705353" id="Fill-44" fill="#E8E7E7"></path>
                    <path d="M473.462136,340.08173 L456.322912,340.08173 C450.525741,340.08173 445.82548,335.379784 445.82548,329.580533 L445.82548,285.439661 L483.959568,285.439661 L483.959568,329.580533 C483.959568,335.379784 479.259307,340.08173 473.462136,340.08173" id="Fill-45" fill="#DC3B41"></path>
                    <path d="M486.62177,325.41718 C480.738674,325.41718 475.968942,320.57807 475.968942,314.60508 C475.968942,308.63209 480.738674,303.791152 486.62177,303.791152 C492.504865,303.791152 497.274597,308.63209 497.274597,314.60508 C497.274597,320.57807 492.504865,325.41718 486.62177,325.41718 M486.62177,297.798044 C477.479022,297.798044 470.063908,305.323719 470.063908,314.60508 C470.063908,323.886441 477.479022,331.410287 486.62177,331.410287 C495.766346,331.410287 503.179631,323.886441 503.179631,314.60508 C503.179631,305.323719 495.766346,297.798044 486.62177,297.798044" id="Fill-46" fill="#DC3B41"></path>
                    <path d="M477.877945,0.451586031 L356.075191,0.451586031 C346.607027,0.451586031 338.859183,8.20037941 338.859183,17.6737685 L338.859183,78.131548 C338.859183,87.6031083 346.607027,95.3537305 356.075191,95.3537305 L359.424424,95.3537305 L359.424424,120.335679 L393.567587,95.3537305 L477.877945,95.3537305 C487.346109,95.3537305 495.093952,87.6031083 495.093952,78.131548 L495.093952,17.6737685 C495.093952,8.20037941 487.346109,0.451586031 477.877945,0.451586031" id="Fill-47" fill="#FFC73C"></path>
                    <g id="bot" transform="translate(470.045375, 142.681579)">
                        <g id="Group-12">
                            <path d="M36.3804895,8.74906136 L21.9709632,8.74906136 L6.07680526,8.74906136 C2.72280526,8.75462955 0.00588421053,11.4295841 0.00022631579,14.7292886 L0.00022631579,36.1890614 C0.0183315789,39.4809705 2.73185789,42.1403341 6.07680526,42.1470159 L24.5441737,42.1470159 L24.7478579,42.5145159 C25.4381211,43.7172432 27.9049632,47.6038341 31.8428579,48.9401977 C30.7384368,47.0715159 30.2518579,44.912175 30.4510158,42.7595159 L30.5415421,42.1692886 L36.3804895,42.1692886 C39.7288316,42.1570386 42.4389632,39.485425 42.4457526,36.1890614 L42.4457526,14.7292886 C42.4389632,11.4340386 39.7288316,8.76131136 36.3804895,8.74906136" id="Fill-1" fill="#00DDFF"></path>
                            <path d="M21.2009237,4.94053636 C20.2447395,4.92271818 19.4707395,4.16767273 19.4469763,3.22553636 L19.4130289,3.18099091 C19.4130289,2.20878636 20.2130553,1.42144545 21.2009237,1.42144545 C22.1887921,1.42144545 22.9888184,2.20878636 22.9888184,3.18099091 C22.9888184,4.15208182 22.1887921,4.94053636 21.2009237,4.94053636 M24.4100816,2.48385455 C24.0038447,0.758831818 22.2532921,-0.315827273 20.4993447,0.0839681818 C18.7465289,0.483763636 17.6545553,2.20655909 18.0607921,3.93158182 C18.3414237,5.1254 19.2874237,6.0564 20.4993447,6.33258182 L20.4993447,8.73803636 L21.9703974,8.74917273 L21.9703974,6.33258182 C23.7243447,5.93278636 24.8163184,4.20999091 24.4100816,2.48385455" id="Fill-4" fill="#00DDFF"></path>
                            <path d="M29.6247368,31.6231523 C26.8998947,32.8236523 23.9419474,33.4272432 20.9568421,33.3938341 C18.1493947,33.360425 15.3804211,32.7579477 12.8207895,31.6231523 C12.4598158,31.4549932 12.0275526,31.6053341 11.8555526,31.9616977 L11.8476316,31.9795159 C11.6801579,32.3425614 11.8419737,32.7701977 12.2097368,32.9372432 C14.9526842,34.1589023 17.9230789,34.8070386 20.9342105,34.8415614 L21.2171053,34.8415614 C24.338,34.842675 27.4226842,34.193425 30.2697368,32.9372432 C30.6386316,32.7612886 30.7925263,32.3258568 30.6148684,31.9628114 C30.4372105,31.5997659 29.9936316,31.4483114 29.6247368,31.6231523" id="Fill-6" stroke="#FFFFFF" fill="#FFFFFF"></path>
                            <path d="M9.64082632,21.377475 C9.64082632,19.6858614 11.0338,18.314975 12.7526684,18.314975 C14.4715368,18.314975 15.8645105,19.6858614 15.8645105,21.377475 C15.8645105,23.0690886 14.4715368,24.439975 12.7526684,24.439975 C11.0338,24.439975 9.64082632,23.0690886 9.64082632,21.377475 M17.3355632,21.377475 C17.3355632,18.8873841 15.2840105,16.8672477 12.7526684,16.8672477 C10.2213263,16.8672477 8.16977368,18.8873841 8.16977368,21.377475 C8.16977368,23.8686795 10.2213263,25.8877023 12.7526684,25.8877023 C15.2840105,25.8877023 17.3355632,23.8686795 17.3355632,21.377475" id="Fill-8" stroke="#FFFFFF" fill="#FFFFFF"></path>
                            <path d="M29.6927447,24.439975 C27.9738763,24.439975 26.5809026,23.0690886 26.5809026,21.377475 C26.5809026,19.6858614 27.9738763,18.314975 29.6927447,18.314975 C31.4116132,18.314975 32.8045868,19.6858614 32.8045868,21.377475 C32.8045868,23.0690886 31.4116132,24.439975 29.6927447,24.439975 L29.6927447,24.439975 Z M29.6927447,16.8783841 C27.1930868,16.9095659 25.1913237,18.9285886 25.2230079,21.3886114 C25.2546921,23.8486341 27.3062447,25.8175432 29.8059026,25.7863614 C32.2829289,25.7562932 34.2756395,23.7717932 34.2756395,21.3329295 C34.2756395,18.8729068 32.2489816,16.8783841 29.7493237,16.8783841 L29.6927447,16.8783841 Z" id="Fill-10" stroke="#FFFFFF" fill="#FFFFFF"></path>
                        </g>
                    </g>
                    <path d="M436.218935,52.1770222 L366.437155,52.1770222 C364.35851,52.1770222 362.658299,50.4743725 362.658299,48.3968107 L362.658299,47.6762479 C362.658299,45.5968573 364.35851,43.8960365 366.437155,43.8960365 L436.218935,43.8960365 C438.29758,43.8960365 439.997791,45.5968573 439.997791,47.6762479 L439.997791,48.3968107 C439.997791,50.4743725 438.29758,52.1770222 436.218935,52.1770222" id="Fill-48" fill="#FFFFFF"></path>
                    <path d="M467.517626,52.1770222 L449.727569,52.1770222 C447.647095,52.1770222 445.946884,50.4743725 445.946884,48.3968107 L445.946884,47.6762479 C445.946884,45.5968573 447.647095,43.8960365 449.727569,43.8960365 L467.517626,43.8960365 C469.596271,43.8960365 471.296482,45.5968573 471.296482,47.6762479 L471.296482,48.3968107 C471.296482,50.4743725 469.596271,52.1770222 467.517626,52.1770222" id="Fill-49" fill="#FFFFFF"></path>
                    <path d="M397.735115,25.0926393 L467.516895,25.0926393 C469.59554,25.0926393 471.295751,26.7952889 471.295751,28.8728507 L471.295751,29.5934135 C471.295751,31.6728041 469.59554,33.3717961 467.516895,33.3717961 L397.735115,33.3717961 C395.65647,33.3717961 393.956259,31.6728041 393.956259,29.5934135 L393.956259,28.8728507 C393.956259,26.7952889 395.65647,25.0926393 397.735115,25.0926393" id="Fill-50" fill="#FFFFFF"></path>
                    <path d="M366.436424,25.0926393 L384.226481,25.0926393 C386.306955,25.0926393 388.007166,26.7952889 388.007166,28.8728507 L388.007166,29.5934135 C388.007166,31.6728041 386.306955,33.3717961 384.226481,33.3717961 L366.436424,33.3717961 C364.357778,33.3717961 362.657567,31.6728041 362.657567,29.5934135 L362.657567,28.8728507 C362.657567,26.7952889 364.357778,25.0926393 366.436424,25.0926393" id="Fill-51" fill="#FFFFFF"></path>
                    <path d="M413.197895,69.3651883 L366.436606,69.3651883 C364.357961,69.3651883 362.65775,67.6643675 362.65775,65.5868057 L362.65775,64.8662429 C362.65775,62.7868522 364.357961,61.0860314 366.436606,61.0860314 L413.197895,61.0860314 C415.27654,61.0860314 416.976751,62.7868522 416.976751,64.8662429 L416.976751,65.5868057 C416.976751,67.6643675 415.27654,69.3651883 413.197895,69.3651883" id="Fill-52" fill="#FFFFFF"></path>
                </g>
                <g id="Group-125">
                    <path d="M303.587498,333.711336 C305.14644,333.443963 306.709042,333.187578 308.273473,332.942182 C315.87789,331.748162 323.453031,330.330721 330.986088,328.691691 C345.902162,325.444763 360.906065,322.657495 376.091112,321.218079 C377.701287,321.066079 379.311462,320.92873 380.923466,320.806032 C387.731945,320.291431 394.866117,320.12295 401.098226,323.380866 C407.328505,326.638782 412.285282,334.346803 410.762935,341.776464 C409.694364,346.997554 405.705522,350.925732 401.273881,352.907219 C396.842241,354.886875 391.962313,355.232994 387.177532,355.557138 C371.67228,356.600989 356.168857,357.644841 340.663605,358.690524 C332.987828,359.201462 325.312051,359.732544 317.638104,360.26729 C310.306319,360.776396 302.866579,361.814754 295.516496,361.805597 C292.407761,361.801935 288.936736,361.219575 286.323862,359.14286 C282.691819,356.256701 280.505275,350.110795 280.153964,345.309078 C279.972819,342.816653 280.457702,339.787651 282.366125,338.245681 C283.387122,337.417925 284.686241,337.167034 285.937786,336.938119 C291.829562,335.850316 297.692062,334.720392 303.587498,333.711336" id="Fill-106" fill="#91DDF8"></path>
                    <path d="M286.194133,357.357507 C282.444987,358.132155 279.515566,361.426697 275.784718,362.530983 C273.12061,363.31845 270.269869,362.897246 267.711887,361.937635 C265.358836,361.05494 262.96736,360.582459 260.552098,359.807812 C258.669291,359.203476 256.127776,357.932541 254.105909,358.355576 C248.80514,359.45803 243.520839,363.234209 238.71593,365.684514 C237.636381,366.235741 236.452537,366.801618 235.263203,366.576366 C234.07021,366.351114 233.078488,364.906203 233.755494,363.898978 C232.372207,365.190058 230.542463,367.774048 228.313834,366.774148 C227.402622,366.363933 226.851869,365.155263 227.356878,364.29088 C226.590215,365.133287 225.785128,366.001332 224.727536,366.418873 C223.669944,366.838245 222.282998,366.655113 221.659055,365.704658 C221.366296,365.254154 221.276638,364.704758 221.251022,364.168182 C221.159535,362.327706 221.713947,360.509207 222.48244,358.83355 C226.266351,350.568808 234.822235,344.437553 242.102787,339.513137 C243.389097,338.641429 244.702853,337.760565 246.188606,337.306398 C247.51883,336.898013 248.929562,336.854062 250.321998,336.848568 C259.349956,336.804616 268.383403,338.266009 276.939287,341.152167 C278.790988,341.776647 280.829323,341.243733 282.675535,340.899445 C284.042354,340.64306 285.469554,340.388507 286.803438,340.778578 C288.296509,341.216263 289.454737,342.399295 290.36412,343.661074 C292.036506,345.985017 293.315497,349.061633 293.116055,351.978924 C292.964186,354.19482 292.79585,356.584691 290.192124,357.049846 C289.134532,357.240303 288.049493,357.123098 286.982752,357.234809 C286.71561,357.262279 286.453956,357.304399 286.194133,357.357507" id="Fill-107" fill="#F8A17A"></path>
                    <path d="M560.784394,380.91431 L10.1558122,380.91431 C4.54764623,380.91431 0.00073189768,375.303149 0.00073189768,368.380764 C0.00073189768,361.458379 4.54764623,355.847218 10.1558122,355.847218 L560.784394,355.847218 C566.39256,355.847218 570.939474,361.458379 570.939474,368.380764 C570.939474,375.303149 566.39256,380.91431 560.784394,380.91431" id="Fill-108" fill="#CCCCCC"></path>
                    <path d="M52.3835637,160.853887 L31.8135794,160.853887 C23.0692319,160.853887 15.9131023,168.014343 15.9131023,176.766216 C15.9131023,182.181425 18.6503997,186.981312 22.8057487,189.860145 L22.8057487,201.060491 L34.2526284,192.682207 L52.3835637,192.682207 C61.1279113,192.682207 68.2840408,185.521751 68.2840408,176.766216 C68.2840408,168.014343 61.1279113,160.853887 52.3835637,160.853887" id="Fill-109" fill="#0096FF"></path>
                    <path d="M32.9908368,176.766948 C32.9908368,178.10198 31.9112878,179.182458 30.5774042,179.182458 C29.2453505,179.182458 28.1658014,178.10198 28.1658014,176.766948 C28.1658014,175.433748 29.2453505,174.35327 30.5774042,174.35327 C31.9112878,174.35327 32.9908368,175.433748 32.9908368,176.766948" id="Fill-110" fill="#FFFFFF"></path>
                    <path d="M44.5116382,176.766948 C44.5116382,178.10198 43.4320891,179.182458 42.0982056,179.182458 C40.7661518,179.182458 39.6866028,178.10198 39.6866028,176.766948 C39.6866028,175.433748 40.7661518,174.35327 42.0982056,174.35327 C43.4320891,174.35327 44.5116382,175.433748 44.5116382,176.766948" id="Fill-111" fill="#FFFFFF"></path>
                    <path d="M56.0322566,176.766948 C56.0322566,178.10198 54.9527076,179.182458 53.6206538,179.182458 C52.2867703,179.182458 51.2072212,178.10198 51.2072212,176.766948 C51.2072212,175.433748 52.2867703,174.35327 53.6206538,174.35327 C54.9527076,174.35327 56.0322566,175.433748 56.0322566,176.766948" id="Fill-112" fill="#FFFFFF"></path>
                    <path d="M260.238296,32.4559137 L222.915174,32.4559137 C220.141282,32.4559137 217.872399,30.1850784 217.872399,27.4087991 L217.872399,5.84502021 C217.872399,3.06690959 220.141282,0.796074282 222.915174,0.796074282 L260.238296,0.796074282 C263.012189,0.796074282 265.281071,3.06690959 265.281071,5.84502021 L265.281071,27.4087991 C265.281071,30.1850784 263.012189,32.4559137 260.238296,32.4559137" id="Fill-113" fill="#6727E5"></path>
                    <path d="M218.637415,1.81337187 L239.394033,21.9560473 C240.583367,23.1116095 242.570469,23.1116095 243.757973,21.9560473 L264.516421,1.81337187" id="Stroke-114" stroke="#FFFFFF"></path>
                    <path d="M218.637415,31.4345872 L235.668674,18.3424891" id="Stroke-115" stroke="#FFFFFF"></path>
                    <path d="M264.516055,31.4345872 L247.484796,18.3424891" id="Stroke-116" stroke="#FFFFFF"></path>
                    <path d="M172.286335,130.747921 L127.607641,130.747921 C124.822771,130.747921 122.564866,133.005937 122.564866,135.795036 L122.564866,163.770262 C122.564866,166.55936 124.822771,168.819208 127.607641,168.819208 L141.034304,168.819208 L149.946988,180.84731 L158.859672,168.819208 L172.286335,168.819208 C175.071206,168.819208 177.32911,166.55936 177.32911,163.770262 L177.32911,135.795036 C177.32911,133.005937 175.071206,130.747921 172.286335,130.747921" id="Fill-117" fill="#FF3453"></path>
                    <path d="M164.355309,154.678497 L161.98579,154.678497 L161.98579,148.186471 L162.009577,147.120644 L162.046172,145.952263 C161.652777,146.347827 161.380145,146.606043 161.226446,146.728742 L159.938306,147.765268 L158.796546,146.336839 L162.408461,143.459838 L164.355309,143.459838 L164.355309,154.678497 Z" id="Fill-118" fill="#FFFFFF"></path>
                    <path d="M146.792326,143.082586 L139.019573,143.082586 C135.715055,143.082586 133.012523,145.789275 133.012523,149.094806 C133.012523,151.140389 134.046328,152.955226 135.616249,154.041198 L135.616249,158.275207 L139.941764,155.108857 L146.792326,155.108857 C150.096844,155.108857 152.801206,152.402167 152.801206,149.094806 C152.801206,145.789275 150.096844,143.082586 146.792326,143.082586" id="Fill-119" fill="#FFFFFF"></path>
                    <path d="M404.580778,177.637924 L407.735257,166.192181 C405.685944,162.641254 404.580778,158.692931 404.580778,154.588945 C404.580778,142.117664 414.834665,131.854954 427.373902,131.854954 C439.914968,131.854954 450.324383,142.117664 450.324383,154.588945 C450.324383,167.060226 439.914968,177.637924 427.373902,177.637924 C423.430803,177.637924 419.645062,176.376145 416.252716,174.48073 L404.580778,177.637924 Z" id="Fill-120" fill="#EDEDED"></path>
                    <path d="M416.884161,170.375279 L417.594102,170.770844 C420.512544,172.585681 423.90306,173.691798 427.452764,173.691798 C437.783499,173.691798 446.381467,165.086431 446.381467,154.589311 C446.381467,144.088529 437.783499,135.801812 427.374085,135.801812 C416.96284,135.801812 408.52406,144.169107 408.52406,154.589311 C408.52406,158.218985 409.548717,161.771744 411.442502,164.769613 L411.916406,165.481996 L410.101299,172.11137 L416.884161,170.375279 Z" id="Fill-121" fill="#55CD6C"></path>
                    <path d="M421.301347,144.010698 L419.802786,143.931952 C419.328882,143.931952 418.856808,144.089445 418.540263,144.406263 C417.830322,145.038068 416.648307,146.2211 416.331761,147.799697 C415.779179,150.167592 416.648307,153.009799 418.69945,155.852006 C420.748764,158.694212 424.693692,163.272509 431.632082,165.24484 C433.840584,165.874813 435.577011,165.482911 436.996892,164.613035 C438.100228,163.902483 438.810169,162.798198 439.046206,161.613335 L439.284073,160.509049 C439.362752,160.192231 439.203564,159.798498 438.888848,159.641004 L433.919263,157.351856 C433.604547,157.192531 433.209322,157.271278 432.973285,157.588096 L431.00265,160.113485 C430.843463,160.272809 430.607426,160.351556 430.371389,160.272809 C429.030186,159.798498 424.534505,157.903083 422.089966,153.167292 C422.011287,152.931052 422.011287,152.692981 422.168645,152.535487 L424.060601,150.403832 C424.219789,150.167592 424.298468,149.850774 424.219789,149.616365 L421.932608,144.48501 C421.8521,144.24877 421.616063,144.010698 421.301347,144.010698" id="Fill-122" fill="#FEFEFE"></path>
                    <path d="M446.664895,218.42414 L441.327531,218.42414 C440.694439,218.42414 439.991818,219.251896 439.991818,220.363507 L439.991818,224.21477 L446.664895,224.21477 L446.664895,229.706895 L439.991818,229.706895 L439.991818,246.197921 L433.690179,246.197921 L433.690179,229.706895 L427.977717,229.706895 L427.977717,224.21477 L433.690179,224.21477 L433.690179,220.982493 C433.690179,216.347425 436.908699,212.578571 441.327531,212.578571 L446.664895,212.578571 L446.664895,218.42414 Z" id="Fill-123" fill="#0096FF"></path>
                    <path d="M171.480081,51.676944 C171.501936,52.1629727 171.514425,52.6553134 171.514425,53.144498 C171.514425,68.1324852 160.212223,85.4149064 139.543556,85.4149064 C133.199337,85.4149064 127.295342,83.5402245 122.321749,80.3179177 C123.199074,80.4252227 124.092011,80.4788752 125.000558,80.4788752 C130.264511,80.4788752 135.110096,78.6673139 138.956591,75.6217448 C134.039197,75.533376 129.889853,72.2542606 128.459906,67.7474496 C129.14678,67.8768468 129.852387,67.9494355 130.573605,67.9494355 C131.597672,67.9494355 132.590517,67.8105702 133.533408,67.5517757 C128.39434,66.5071297 124.519746,61.9245739 124.519746,56.4299254 C124.519746,56.3794289 124.519746,56.3352445 124.522868,56.2879041 C126.037113,57.1368762 127.769909,57.6481531 129.611981,57.7049616 C126.595979,55.6724782 124.61341,52.200845 124.61341,48.2652754 C124.61341,46.1854515 125.166032,44.2381809 126.1339,42.5623289 C131.672603,49.4235385 139.955681,53.9398176 149.294047,54.4132222 C149.100473,53.5831862 149.003686,52.718434 149.003686,51.8284335 C149.003686,45.5637136 154.033478,40.4856611 160.237201,40.4856611 C163.468631,40.4856611 166.390968,41.8648463 168.439102,44.0677553 C170.999269,43.5596345 173.406451,42.6159814 175.576349,41.315697 C174.733367,43.9636063 172.953738,46.1886076 170.633977,47.589885 C172.910028,47.3153103 175.073682,46.7093526 177.087472,45.8067279 C175.582593,48.0790696 173.678078,50.0768367 171.480081,51.676944" id="Fill-124" fill="#00DDFF"></path>
                </g>
            </g>
        </g>
    </g>
</svg>