<svg xmlns="http://www.w3.org/2000/svg" xmlns:xlink="http://www.w3.org/1999/xlink" width="613" height="340" viewBox="0 0 613 340">
    <defs>
        <path id="prefix__a" d="M0 339L612.88 339 612.88 0.002 0 0.002z"/>
        <path id="prefix__c" d="M.428 5.584v5.202l7.168-1.171c1.001-.164 1.736-1.028 1.736-2.043V3.597c0-1.014-.735-1.879-1.736-2.043L.428.382"/>
        <path id="prefix__e" d="M.428 5.584v5.202l7.168-1.171c1.001-.164 1.736-1.028 1.736-2.043V3.597c0-1.014-.735-1.879-1.736-2.043L.428.382v5.202z"/>
        <path id="prefix__g" d="M.428 5.584v5.202l7.168-1.171c1.001-.164 1.736-1.028 1.736-2.043V3.597c0-1.014-.735-1.879-1.736-2.043L.428.382v5.202z"/>
        <path id="prefix__i" d="M0 339L612.88 339 612.88 0.002 0 0.002z"/>
        <path id="prefix__k" d="M1.882 1.554C.881 1.718.146 2.583.146 3.597v3.975c0 1.015.735 1.879 1.736 2.043l7.168 1.171V.382"/>
        <path id="prefix__m" d="M1.882 1.554C.881 1.718.146 2.583.146 3.597v3.975c0 1.015.735 1.879 1.736 2.043l7.168 1.171V.382L1.882 1.554z"/>
        <path id="prefix__o" d="M1.882 1.554C.881 1.718.146 2.583.146 3.597v3.975c0 1.015.735 1.879 1.736 2.043l7.168 1.171V.382L1.882 1.554z"/>
        <path id="prefix__q" d="M0 339L612.88 339 612.88 0.002 0 0.002z"/>
    </defs>
    <g fill="none" fill-rule="evenodd">
        <g transform="translate(0 .998)">
            <path fill="#ECC19C" d="M270.46 145.072s-.463 11.94-22.036 31.687c-7.185 6.578-7.686 24.535-7.686 24.535h24.836l33.681-56.222H270.46z"/>
            <path fill="#FFF" d="M241.266 229.33L217.138 229.33 217.138 208.935 217.138 191.84 241.266 191.84z"/>
            <mask id="prefix__b" fill="#fff">
                <use xlink:href="#prefix__a"/>
            </mask>
            <path fill="#999" d="M218.159 229.33L241.266 229.33 241.266 220.912 218.159 220.912z" mask="url(#prefix__b)"/>
            <path fill="#E6E6E6" d="M218.159 200.256L241.266 200.256 241.266 191.839 218.159 191.839z" mask="url(#prefix__b)"/>
            <path fill="#CCC" d="M218.159 220.912L241.266 220.912 241.266 200.257 218.159 200.257z" mask="url(#prefix__b)"/>
            <path fill="#999" d="M245.667 219.022h21.761c0 3.798-3.079 6.877-6.877 6.877h-14.883v-6.877z" mask="url(#prefix__b)"/>
            <path fill="#F5FFF7" d="M245.667 202.147h21.761c0-3.799-3.079-6.878-6.877-6.878h-14.883v6.878z" mask="url(#prefix__b)"/>
            <path fill="#CCC" d="M245.667 219.022L267.428 219.022 267.428 202.147 245.667 202.147z" mask="url(#prefix__b)"/>
            <path fill="#999" d="M242.741 231.219L245.667 231.219 245.667 221.953 242.741 221.953z" mask="url(#prefix__b)"/>
            <path fill="#E6E6E6" d="M242.741 199.216L245.667 199.216 245.667 189.95 242.741 189.95zM217.159 200.256L240.266 200.256 240.266 191.839 217.159 191.839z" mask="url(#prefix__b)"/>
            <path fill="#E6E6E6" d="M244.667 202.147h21.761c0-3.799-3.079-6.878-6.877-6.878h-14.883v6.878zM241.741 199.216L244.667 199.216 244.667 189.95 241.741 189.95z" mask="url(#prefix__b)"/>
            <path fill="#CCC" d="M242.742 221.953L245.668 221.953 245.668 199.217 242.742 199.217z" mask="url(#prefix__b)"/>
            <path fill="#999" d="M236.365 208.935L218.159 208.935 217.138 208.935 217.138 212.233 218.159 212.233 236.365 212.233zM241.265 228.484L242.741 228.484 242.741 192.684 241.265 192.684z" mask="url(#prefix__b)"/>
            <path fill="#A7A5A6" d="M253.573 215.575L254.348 215.575 254.348 205.595 253.573 205.595zM255.199 215.575L255.974 215.575 255.974 205.595 255.199 205.595zM256.824 215.575L257.599 215.575 257.599 205.595 256.824 205.595zM258.45 215.575L259.225 215.575 259.225 205.595 258.45 205.595z" mask="url(#prefix__b)"/>
            <path fill="#D3CFD0" d="M197.25 202.78h19.888v-3.801H197.25c-1.05 0-1.9.852-1.9 1.902 0 1.049.85 1.9 1.9 1.9M197.25 222.189h19.888v-3.802H197.25c-1.05 0-1.9.852-1.9 1.902 0 1.049.85 1.9 1.9 1.9" mask="url(#prefix__b)"/>
        </g>
        <g transform="translate(267 205.998)">
            <mask id="prefix__d" fill="#fff">
                <use xlink:href="#prefix__c"/>
            </mask>
            <path fill="#F0ECEC" d="M7.596 1.554L.428.382v10.404l7.168-1.17c1.001-.166 1.736-1.03 1.736-2.044V3.597c0-1.015-.735-1.879-1.736-2.043" mask="url(#prefix__d)"/>
            <mask id="prefix__f" fill="#fff">
                <use xlink:href="#prefix__e"/>
            </mask>
            <path fill="#231F20" d="M0.429 11.687L1.429 11.687 1.429 -0.468 0.429 -0.468z" mask="url(#prefix__f)"/>
            <mask id="prefix__h" fill="#fff">
                <use xlink:href="#prefix__g"/>
            </mask>
            <path fill="#A7A5A6" d="M1.592 11.586L2.098 11.586 2.098 6.878 1.592 6.878zM2.736 11.586L3.242 11.586 3.242 6.878 2.736 6.878zM3.879 11.586L4.386 11.586 4.386 6.878 3.879 6.878zM5.024 11.586L5.53 11.586 5.53 6.878 5.024 6.878zM6.168 11.586L6.674 11.586 6.674 6.878 6.168 6.878zM7.313 11.586L7.819 11.586 7.819 6.878 7.313 6.878zM8.457 11.586L8.963 11.586 8.963 6.878 8.457 6.878zM1.592 4.291L2.098 4.291 2.098-.418 1.592-.418zM2.736 4.291L3.242 4.291 3.242-.418 2.736-.418zM3.879 4.291L4.386 4.291 4.386-.418 3.879-.418zM5.024 4.291L5.53 4.291 5.53-.418 5.024-.418zM6.168 4.291L6.674 4.291 6.674-.418 6.168-.418zM7.313 4.291L7.819 4.291 7.819-.418 7.313-.418zM8.457 4.291L8.963 4.291 8.963-.418 8.457-.418z" mask="url(#prefix__h)"/>
            <path fill="#231F20" d="M0.429 11.687L11.183 11.687 11.183 8.286 0.429 8.286z" mask="url(#prefix__h)"/>
        </g>
        <g transform="translate(0 .998)">
            <path fill="#CCC" d="M501.08 339c-18.824 0-34.094-11.768-39.85-30.712-7.663-25.226-17.04-45.121-37.888-60.212-41.062-29.72-95.173-33.561-147.077-34.95l.136-5.083c52.7 1.408 107.686 5.343 149.923 35.913 23.297 16.863 32.883 40.174 39.773 62.855 5.079 16.717 18.484 27.103 34.984 27.103 20.478 0 37.146-16.664 37.155-37.146V185.944h5.087v110.825c-.012 23.287-18.961 42.23-42.242 42.23"/>
            <path fill="#999" d="M555.251 167.077h-28.944c-1 0-1.81-.81-1.81-1.81s.81-1.808 1.81-1.808h28.944c1 0 1.81.809 1.81 1.808 0 1-.81 1.81-1.81 1.81M555.251 169.116h-28.944c-1 0-1.81.81-1.81 1.809 0 1 .81 1.809 1.81 1.809h.496v5.204c0 4.422 3.585 8.006 8.005 8.006h11.94c4.421 0 8.005-3.584 8.005-8.006v-5.204h.498c1 0 1.81-.81 1.81-1.81 0-.998-.81-1.808-1.81-1.808"/>
            <path fill="#FFF" d="M552.109 175.225h-22.66c-.391 0-.712-.32-.712-.713 0-.39.32-.712.712-.712h22.66c.391 0 .712.321.712.712 0 .393-.32.713-.712.713M552.109 178.242h-22.66c-.391 0-.712-.32-.712-.712 0-.392.32-.713.712-.713h22.66c.391 0 .712.32.712.713 0 .392-.32.712-.712.712"/>
            <path fill="#FFC73C" d="M581.484 114.035c0 15.469-8.63 28.92-21.338 35.813-.954.508-1.722 1.268-2.253 2.16-.533.899-.83 1.932-.83 3.012 0 2.316-1.886 4.202-4.202 4.202H528.7c-1.166 0-2.215-.47-2.973-1.23-.76-.766-1.229-1.813-1.229-2.972 0-2.152-1.174-4.14-3.067-5.165-12.778-6.917-21.44-20.476-21.354-36.055.071-12.52 5.885-23.763 14.93-31.197 1.69-1.4 3.505-2.66 5.407-3.771 5.844-3.404 12.597-5.4 19.788-5.493 22.746-.321 41.283 18.028 41.283 40.696"/>
            <path fill="#333" d="M556.442 121.768c-.264-.62-.982-.91-1.6-.646-7.02 2.98-9.892 14.022-9.903 38.096h2.442c.011-22.625 2.528-33.35 8.414-35.849.621-.263.911-.98.647-1.6M525.762 123.369c5.886 2.499 8.404 13.225 8.414 35.85h2.442c-.011-24.076-2.882-35.118-9.901-38.097-.621-.264-1.338.025-1.601.646-.264.622.025 1.338.646 1.6"/>
            <path fill="#333" d="M549.198 127.611c-1.505 0-2.12-1.423-2.526-2.365-.077-.178-.185-.424-.287-.625-.101.201-.207.447-.284.625-.408.941-1.021 2.365-2.528 2.365-1.505 0-2.118-1.424-2.525-2.366-.077-.177-.182-.42-.284-.622-.101.201-.207.445-.283.623-.407.941-1.02 2.365-2.526 2.365-1.507 0-2.12-1.424-2.527-2.365-.076-.178-.182-.422-.284-.623-.1.201-.207.445-.284.622-.405.942-1.02 2.366-2.524 2.366-1.506 0-2.12-1.424-2.527-2.365-.12-.278-.31-.72-.447-.903-.597-.079-1.058-.59-1.058-1.21 0-.675.548-1.22 1.221-1.22 1.505 0 2.12 1.422 2.527 2.365.077.177.182.422.284.622.1-.2.207-.445.283-.622.406-.943 1.02-2.365 2.525-2.365 1.506 0 2.12 1.422 2.528 2.365.075.177.182.422.283.623.101-.2.207-.446.284-.623.406-.943 1.02-2.365 2.525-2.365 1.506 0 2.12 1.422 2.526 2.365.077.178.183.422.284.623.103-.2.208-.446.285-.624.406-.942 1.02-2.364 2.526-2.364 1.506 0 2.121 1.422 2.529 2.364.076.18.183.425.284.626.103-.2.21-.447.286-.625.406-.943 1.021-2.365 2.527-2.365.676 0 1.223.545 1.223 1.22 0 .62-.462 1.131-1.06 1.21-.136.183-.327.625-.447.903-.408.942-1.022 2.365-2.529 2.365z"/>
            <path fill="#FFF" d="M509.836 122.93c-1.818 0-3.382-1.37-3.583-3.22-2.412-22.262 12.123-32.11 12.743-32.519 1.665-1.097 3.902-.636 4.998 1.028 1.093 1.658.638 3.887-1.012 4.986-.504.343-11.473 8.026-9.555 25.727.215 1.981-1.217 3.762-3.198 3.976-.132.014-.263.021-.393.021M532.501 85.266c0-2.027-1.644-3.67-3.671-3.67-2.028 0-3.671 1.643-3.671 3.67 0 2.028 1.643 3.672 3.671 3.672 2.027 0 3.671-1.644 3.671-3.672"/>
            <path fill="#FFC73C" d="M540.778 62.12c-1.566 0-2.837-1.27-2.837-2.836V44.629c0-1.568 1.271-2.837 2.837-2.837 1.567 0 2.837 1.269 2.837 2.837v14.655c0 1.567-1.27 2.837-2.837 2.837M579.392 78.115c-.726 0-1.452-.276-2.006-.831-1.108-1.107-1.108-2.903 0-4.012l10.364-10.363c1.108-1.107 2.904-1.107 4.012 0 1.108 1.107 1.108 2.904 0 4.012l-10.364 10.363c-.554.555-1.28.83-2.006.83M610.043 116.728h-14.657c-1.567 0-2.837-1.27-2.837-2.836 0-1.567 1.27-2.837 2.837-2.837h14.657c1.567 0 2.837 1.27 2.837 2.837 0 1.566-1.27 2.836-2.837 2.836M589.756 165.706c-.726 0-1.452-.277-2.006-.831l-10.364-10.363c-1.108-1.108-1.108-2.905 0-4.012 1.108-1.108 2.904-1.108 4.012 0l10.364 10.363c1.108 1.108 1.108 2.905 0 4.012-.554.554-1.28.83-2.006.83M502.166 78.115c-.726 0-1.452-.276-2.006-.831L489.796 66.92c-1.108-1.108-1.108-2.905 0-4.012 1.108-1.107 2.904-1.107 4.012 0l10.364 10.363c1.108 1.109 1.108 2.905 0 4.012-.554.555-1.28.83-2.006.83M486.171 116.728h-14.656c-1.567 0-2.837-1.27-2.837-2.836 0-1.567 1.27-2.837 2.837-2.837h14.656c1.566 0 2.837 1.27 2.837 2.837 0 1.566-1.27 2.836-2.837 2.836M491.802 165.706c-.726 0-1.452-.277-2.006-.831-1.107-1.107-1.107-2.904 0-4.012L500.16 150.5c1.108-1.108 2.904-1.108 4.012 0 1.108 1.107 1.108 2.904 0 4.012l-10.364 10.363c-.554.554-1.28.83-2.006.83"/>
            <path fill="#231F20" d="M538.236 187.419L543.322 187.419 543.322 185.943 538.236 185.943z"/>
            <path fill="#ECC19C" d="M310.168 220.99s9.961-8.356 8.74-64.078v-28.67l-35.014 28.229 26.274 64.52z"/>
            <path fill="#ECC19C" d="M248.725 178.853v51.626c0 2.038.828 3.884 2.165 5.221 1.336 1.337 3.182 2.165 5.22 2.165 4.077 0 7.386-3.309 7.386-7.386v-8.06c0-1.12.907-2.026 2.026-2.026 1.12 0 2.027.906 2.027 2.026v3.435c0 2.042.828 3.888 2.16 5.225 1.338 1.336 3.187 2.16 5.225 2.16 4.078 0 7.386-3.304 7.386-7.385v-2.043c.986 2.918 3.738 5.023 6.995 5.023 4.077 0 7.385-3.303 7.385-7.384v-1.649c.493 1.46 1.424 2.717 2.646 3.608 1.214.891 2.72 1.416 4.345 1.416 4.08 0 7.386-3.305 7.386-7.386v-29.183s1.545-17.215-3.395-27.59c-1.846-3.864-2.315-5.602-3.301-12.9-.11-.82-.228-1.717-.354-2.694-.257-1.984-.552-4.306-.911-7.062l-54.391 40.843z"/>
            <mask id="prefix__j" fill="#fff">
                <use xlink:href="#prefix__i"/>
            </mask>
            <path fill="#F6F6F6" d="M263.647 145.072L325.18 145.072 325.18 132.03 263.647 132.03z" mask="url(#prefix__j)"/>
            <path fill="#DC3B41" d="M260.891 135.336L327.576 135.336 327.576 0.001 260.891 0.001z" mask="url(#prefix__j)"/>
            <path fill="#ECC19C" d="M115.22 145.07l1.938 3.234 9.974 16.648 21.775 36.342h24.832s-.498-17.956-7.683-24.536c-14.975-13.704-19.777-23.652-21.314-28.454-.677-2.118-.722-3.233-.722-3.233h-28.8z" mask="url(#prefix__j)"/>
            <path fill="#FFF" d="M180.485 229.33L194.14 229.33 194.14 208.935 194.14 191.84 180.485 191.84z" mask="url(#prefix__j)"/>
            <path fill="#999" d="M192.933 220.912h-24.122v3.196c0 2.884 2.338 5.222 5.222 5.222h18.9v-8.418z" mask="url(#prefix__j)"/>
            <path fill="#E6E6E6" d="M192.933 200.256h-24.122v-3.195c0-2.884 2.338-5.222 5.222-5.222h18.9v8.417z" mask="url(#prefix__j)"/>
            <path fill="#CCC" d="M168.811 220.912L192.933 220.912 192.933 200.257 168.811 200.257z" mask="url(#prefix__j)"/>
            <path fill="#999" d="M168.811 219.022h-21.76c0 3.798 3.078 6.877 6.876 6.877h14.884v-6.877z" mask="url(#prefix__j)"/>
            <path fill="#E6E6E6" d="M168.811 202.147h-21.76c0-3.799 3.078-6.878 6.876-6.878h14.884v6.878z" mask="url(#prefix__j)"/>
            <path fill="#CCC" d="M147.05 219.022L168.811 219.022 168.811 202.147 147.05 202.147z" mask="url(#prefix__j)"/>
            <path fill="#A7A5A6" d="M160.13 215.575L160.905 215.575 160.905 205.595 160.13 205.595zM158.504 215.575L159.279 215.575 159.279 205.595 158.504 205.595zM156.879 215.575L157.654 215.575 157.654 205.595 156.879 205.595zM155.253 215.575L156.028 215.575 156.028 205.595 155.253 205.595z" mask="url(#prefix__j)"/>
            <path fill="#F0ECEC" d="M3.545 255.351c19.999-21.866 55.506-32.223 81.773-37.06 28.538-5.255 52.646-5.306 53.12-5.306h.005l.007-4.802c-.226-.014-24.81.018-53.92 5.37-17.129 3.151-32.474 7.505-45.608 12.944C22.37 233.352 9.276 241.97 0 252.11l3.544 3.241z" mask="url(#prefix__j)"/>
            <path fill="#CCC" d="M0 252.11l3.544 3.24c19.998-21.866 55.509-32.22 81.776-37.058 24.568-4.523 45.853-5.193 51.6-5.288.928-.02 1.45-.02 1.516-.02h.006l.009-4.801c-.033-.003-.561-.003-1.531.012-5.813.09-27.437.77-52.39 5.357-17.128 3.152-32.473 7.507-45.61 12.945C22.372 233.352 9.277 241.967 0 252.11" mask="url(#prefix__j)"/>
            <path fill="#231F20" d="M136.92 208.195v4.809c.928-.02 1.45-.02 1.516-.02h.006l.01-4.801c-.034-.003-.562-.003-1.532.012" mask="url(#prefix__j)"/>
        </g>
        <g transform="translate(138 205.998)">
            <mask id="prefix__l" fill="#fff">
                <use xlink:href="#prefix__k"/>
            </mask>
            <path fill="#F0ECEC" d="M1.882 1.554L9.05.382v10.404l-7.168-1.17C.88 9.45.146 8.585.146 7.571V3.597c0-1.015.735-1.879 1.736-2.043" mask="url(#prefix__l)"/>
            <mask id="prefix__n" fill="#fff">
                <use xlink:href="#prefix__m"/>
            </mask>
            <path fill="#231F20" d="M8.049 11.687L9.049 11.687 9.049 -0.468 8.049 -0.468z" mask="url(#prefix__n)"/>
            <mask id="prefix__p" fill="#fff">
                <use xlink:href="#prefix__o"/>
            </mask>
            <path fill="#A7A5A6" d="M7.38 11.586L7.887 11.586 7.887 6.878 7.38 6.878zM6.236 11.586L6.742 11.586 6.742 6.878 6.236 6.878zM5.092 11.586L5.598 11.586 5.598 6.878 5.092 6.878zM3.948 11.586L4.454 11.586 4.454 6.878 3.948 6.878zM2.804 11.586L3.31 11.586 3.31 6.878 2.804 6.878zM1.659 11.586L2.166 11.586 2.166 6.878 1.659 6.878zM.515 11.586L1.021 11.586 1.021 6.878.515 6.878zM7.38 4.291L7.887 4.291 7.887-.418 7.38-.418zM6.236 4.291L6.742 4.291 6.742-.418 6.236-.418zM5.092 4.291L5.598 4.291 5.598-.418 5.092-.418zM3.948 4.291L4.454 4.291 4.454-.418 3.948-.418zM2.804 4.291L3.31 4.291 3.31-.418 2.804-.418zM1.659 4.291L2.166 4.291 2.166-.418 1.659-.418zM.515 4.291L1.021 4.291 1.021-.418.515-.418z" mask="url(#prefix__p)"/>
            <path fill="#231F20" d="M-1.705 11.687L9.049 11.687 9.049 8.286 -1.705 8.286z" mask="url(#prefix__p)"/>
        </g>
        <g transform="translate(0 .998)">
            <path fill="#ECC19C" d="M104.31 220.99l22.821-56.038 3.454-8.481-10.129-8.167-4.012-3.233-20.872-16.83v28.672c-1.224 55.722 8.737 64.078 8.737 64.078"/>
            <path fill="#ECC19C" d="M165.754 178.853v51.626c0 2.038-.828 3.884-2.165 5.221-1.337 1.337-3.182 2.165-5.221 2.165-4.077 0-7.385-3.309-7.385-7.386v-8.06c0-1.12-.907-2.026-2.027-2.026s-2.027.906-2.027 2.026v3.435c0 2.042-.827 3.888-2.16 5.225-1.337 1.336-3.186 2.16-5.225 2.16-4.077 0-7.385-3.304-7.385-7.385v-2.043c-.986 2.918-3.738 5.023-6.995 5.023-4.077 0-7.386-3.303-7.386-7.384v-1.649c-.493 1.46-1.423 2.717-2.646 3.608-1.214.891-2.72 1.416-4.345 1.416-4.081 0-7.385-3.305-7.385-7.386v-29.183s-1.546-17.215 3.395-27.59c1.845-3.864 2.314-5.602 3.3-12.9.11-.82.229-1.717.355-2.694.256-1.984.552-4.306.91-7.062l54.392 40.843z"/>
            <mask id="prefix__r" fill="#fff">
                <use xlink:href="#prefix__q"/>
            </mask>
            <path fill="#F6F6F6" d="M89.299 145.072L150.832 145.072 150.832 132.03 89.299 132.03z" mask="url(#prefix__r)"/>
            <path fill="#DC3B41" d="M86.902 135.336L153.587 135.336 153.587 0.001 86.902 0.001z" mask="url(#prefix__r)"/>
        </g>
    </g>
</svg>
