<svg xmlns="http://www.w3.org/2000/svg" width="100" height="100" viewBox="0 0 100 100">
    <g fill="none" fill-rule="evenodd">
        <circle cx="50" cy="50" r="50" fill="#FB5E49"/>
        <g fill="#FFF" fill-rule="nonzero">
            <path d="M75.262 35.598c-.68-2.45-2.147-4.637-4.198-6.254-3.966-3.218-7.685-4.547-12.044-4.319a44.542 44.542 0 0 0-6.753.994c-2.702.424-5.187 1.67-7.08 3.553a13.694 13.694 0 0 0-2.816 4.75 20.945 20.945 0 0 0-.678 2.516l-.02.096a9.092 9.092 0 0 1-.584 1.604c-.144.33-.285.66-.414 1.006a2.682 2.682 0 0 0-.184 1.26 2.889 2.889 0 0 0 1.059 1.687c.261.25.508.486.512.651a1.721 1.721 0 0 1-.102.238 11.34 11.34 0 0 1-1.9 2.695c-.335.384-.695.796-1.117 1.33A3.143 3.143 0 0 0 38 49.615c.144.602.53 1.125 1.076 1.459.238.173.493.327.76.458.267.117.51.276.723.47.04.216.018.44-.066.645a9.005 9.005 0 0 1-.298.577c-.274.5-.73 1.337.006 1.989.214.191.387.344 3.944 1.09-1.718.665-2.642 1.335-2.745 1.994-.04.352.105.7.389.93.094.072.13.107.131.107.027.09.048.18.064.271.024.118.053.253.095.411.03.268.004.538-.074.796a7.36 7.36 0 0 0-.104.586c-.079.672.002 1.351.235 1.989.306 1.2 1.415 2.061 2.713 2.103.21 0 .419-.023.623-.066a17.648 17.648 0 0 0 3.564-1.447c.728-.352 1.471-.71 2.153-.988 1.342 1.124 3.069 5.424 3.937 8.362a.945.945 0 0 0 .916.65l17.379-.045a.966.966 0 0 0 .754-.358.868.868 0 0 0 .158-.79 5.691 5.691 0 0 0-.717-1.408 6.655 6.655 0 0 1-.438-.76c-.299-.62-1.883-4.913-2.097-5.638a23.926 23.926 0 0 1-.813-4.217 11.607 11.607 0 0 1-.064-1.69c2.311-.744 4.176-2.394 5.122-4.534a7.745 7.745 0 0 0-.174-6.653c.543-1.336.829-2.755.844-4.187.04-2.063-.206-4.121-.734-6.122zM67.444 55.73c-2.69 0-5.116-1.542-6.145-3.906-1.03-2.364-.46-5.086 1.442-6.896 1.902-1.81 4.763-2.35 7.248-1.371 2.486.98 4.106 3.286 4.106 5.846-.004 3.493-2.98 6.323-6.651 6.327zm0-14.463c-4.723 0-8.552 3.643-8.552 8.136 0 4.492 3.829 8.135 8.552 8.135.285 0 .57-.015.855-.04 0 .496.03.992.085 1.486.156 1.524.449 3.033.875 4.51.214.722 1.834 5.145 2.19 5.883.127.267.27.526.431.775l-15.126.04c-.564-1.793-1.956-5.807-3.684-7.9l.39-.14c.493-.181.863-.314 1.057-.377 3.077-1.007 4.615-2.463 4.575-4.327-.011-.492-.434-.885-.95-.885h-.021c-.525.011-.941.424-.93.923.015.68-.543 1.68-3.29 2.578-.2.066-.595.208-1.119.398-.5.18-1.125.408-1.812.65h-.005c-.95.369-1.88.784-2.786 1.242-.99.533-2.033.967-3.116 1.296-.683.144-.988-.452-1.112-.823a2.634 2.634 0 0 1-.16-1.215c.018-.151.051-.301.082-.452.142-.51.163-1.044.06-1.563a11.483 11.483 0 0 1-.078-.35 2.861 2.861 0 0 0-.213-.697c.476-.26.973-.484 1.486-.669.745-.272 1.213-.977 1.152-1.734-.06-.757-.636-1.386-1.416-1.547a72.575 72.575 0 0 1-2.914-.65c.095-.172.19-.362.29-.573a2.877 2.877 0 0 0 .203-1.685 2.705 2.705 0 0 0-1.68-1.747 3.856 3.856 0 0 1-.544-.326 3.16 3.16 0 0 1-.316-.272c.151-.324.35-.627.592-.898.373-.472.715-.863 1.032-1.227a12.895 12.895 0 0 0 2.17-3.108c.173-.307.265-.65.267-.999a2.69 2.69 0 0 0-1.067-1.909c-.243-.231-.495-.472-.517-.633.004-.154.036-.307.095-.452.11-.304.24-.602.37-.904.293-.618.523-1.26.688-1.92l.02-.09c.157-.782.363-1.553.616-2.31a11.958 11.958 0 0 1 2.449-4.142c1.627-1.585 3.75-2.628 6.05-2.973a42.913 42.913 0 0 1 6.455-.957c3.834-.202 7.14.994 10.704 3.886 1.76 1.372 3.019 3.24 3.593 5.334a20.53 20.53 0 0 1 .675 5.656 9.886 9.886 0 0 1-.296 2.278c-1.616-1.724-3.928-2.71-6.355-2.712z"/>
            <path d="M20.91 57.357h1.817a.911.911 0 0 0 .875-.673l.885-3.166 1.904 7.779c.098.4.443.687.847.703h.035a.91.91 0 0 0 .861-.635l1.231-3.77.788 1.207a.9.9 0 0 0 .924.399.919.919 0 0 0 .72-.713l.883-4.063.975 4.975a.919.919 0 0 0 .714.728.9.9 0 0 0 .933-.394l1.548-2.377h2.24c.503 0 .91-.416.91-.928a.919.919 0 0 0-.91-.929h-2.726a.904.904 0 0 0-.757.414l-.6.92-1.389-7.09a.914.914 0 0 0-.881-.744h-.01a.913.913 0 0 0-.888.727l-1.355 6.238-.637-.976a.901.901 0 0 0-1.618.222l-.83 2.546-1.972-8.054a.914.914 0 0 0-.866-.703.895.895 0 0 0-.89.673L22.04 55.5H20.91a.919.919 0 0 0-.909.929c0 .512.407.928.91.928zM70.216 47.321l-3.306 3.538-1.213-1.037a1.125 1.125 0 0 0-1.404.01c-.386.331-.391.866-.012 1.202l2.004 1.715c.187.16.441.25.706.251h.056c.284-.014.549-.13.726-.32l4.007-4.287a.76.76 0 0 0 .151-.847c-.13-.286-.428-.49-.782-.536-.354-.046-.71.072-.933.312v-.001z"/>
        </g>
    </g>
</svg>
