<svg xmlns="http://www.w3.org/2000/svg" xmlns:xlink="http://www.w3.org/1999/xlink" width="120" height="120" viewBox="0 0 120 120">
    <defs>
        <path id="prefix__a" d="M0 0.579L46.026 0.579 46.026 18.989 0 18.989z"/>
        <path id="prefix__c" d="M0.77 0.767L34.96 0.767 34.96 34.957 0.77 34.957z"/>
        <path id="prefix__e" d="M0 119.233L119.666 119.233 119.666 0.882 0 0.882z"/>
    </defs>
    <g fill="none" fill-rule="evenodd">
        <path fill="#FF3453" d="M1.315 64.002h84.16v-7.889c0-1.454-1.176-2.63-2.63-2.63h-78.9c-1.453 0-2.63 1.176-2.63 2.63v7.89z"/>
        <path fill="#E6E6E6" d="M3.945 119.233h78.9c1.453 0 2.63-1.177 2.63-2.63v-52.6H1.315v52.6c0 1.453 1.177 2.63 2.63 2.63"/>
        <g transform="translate(0 29.233)">
            <mask id="prefix__b" fill="#fff">
                <use xlink:href="#prefix__a"/>
            </mask>
            <path fill="#0096FF" d="M14.465 18.99H1.315C.59 18.99 0 18.401 0 17.674s.59-1.315 1.315-1.315h12.202l3.645-10.936c.169-.505.625-.858 1.154-.896.525-.037 1.032.248 1.27.724l3.892 7.786 4.216-11.592c.19-.521.684-.867 1.236-.867h.019c.558.009 1.052.369 1.23.9l3.644 10.935H44.71c.726 0 1.316.589 1.316 1.316 0 .727-.59 1.314-1.316 1.314H32.875c-.566 0-1.07-.361-1.248-.899l-2.75-8.255-3.97 10.92c-.181.492-.636.833-1.16.862-.522.034-1.017-.254-1.252-.724l-3.84-7.682-2.94 8.823c-.182.539-.683.9-1.25.9" mask="url(#prefix__b)"/>
        </g>
        <path fill="#CCC" d="M111.75 44.312c-.604 15.562-11.613 28.456-26.274 31.92V56.113c0-1.453-1.177-2.63-2.63-2.63H45.051c-1.079-3.314-1.657-6.852-1.657-10.52 0-18.431 14.583-33.455 32.84-34.164.74-.029 1.35.582 1.35 1.322v31.527c0 .726.59 1.315 1.315 1.315h31.528c.74 0 1.35.61 1.322 1.349"/>
        <g transform="translate(84.706 .116)">
            <mask id="prefix__d" fill="#fff">
                <use xlink:href="#prefix__c"/>
            </mask>
            <path fill="#FFC73C" d="M34.96 34.957C34.96 16.06 19.668.767.77.767v32.875c0 .726.589 1.315 1.314 1.315H34.96z" mask="url(#prefix__d)"/>
        </g>
        <mask id="prefix__f" fill="#fff">
            <use xlink:href="#prefix__e"/>
        </mask>
        <path fill="#CCC" d="M10.52 119.233L13.15 119.233 13.15 64.002 10.52 64.002zM19.726 119.233L22.355 119.233 22.355 64.002 19.726 64.002zM28.93 119.233L31.56 119.233 31.56 64.002 28.93 64.002zM38.135 119.233L40.765 119.233 40.765 64.002 38.135 64.002zM47.34 119.233L49.969 119.233 49.969 64.002 47.34 64.002zM56.546 119.233L59.175 119.233 59.175 64.002 56.546 64.002zM65.751 119.233L68.381 119.233 68.381 64.002 65.751 64.002zM74.955 119.233L77.585 119.233 77.585 64.002 74.955 64.002z" mask="url(#prefix__f)"/>
        <path fill="#CCC" d="M1.315 74.523L85.475 74.523 85.475 71.893 1.315 71.893zM1.315 83.727L85.475 83.727 85.475 81.098 1.315 81.098zM1.315 92.933L85.475 92.933 85.475 90.304 1.315 90.304zM1.315 102.138L85.475 102.138 85.475 99.507 1.315 99.507zM1.315 111.342L85.475 111.342 85.475 108.713 1.315 108.713z" mask="url(#prefix__f)"/>
        <path fill="#55CD6C" d="M88.105 119.233h-10.52v-17.095c0-1.453 1.177-2.63 2.631-2.63h7.89v19.725z" mask="url(#prefix__f)"/>
        <path fill="#26A8D1" d="M77.586 119.233h-10.52v-10.52c0-1.453 1.177-2.63 2.63-2.63h7.89v13.15zM98.625 119.233h-10.52V88.99c0-1.454 1.177-2.631 2.631-2.631h7.89v32.875z" mask="url(#prefix__f)"/>
        <path fill="#55CD6C" d="M109.146 119.233h-10.52V81.098c0-1.453 1.176-2.63 2.63-2.63h5.26c1.453 0 2.63 1.177 2.63 2.63v38.135z" mask="url(#prefix__f)"/>
        <path fill="#26A8D1" d="M119.666 119.233h-10.52V94.248h7.89c1.453 0 2.63 1.177 2.63 2.63v22.355z" mask="url(#prefix__f)"/>
        <path fill="#4763D5" d="M5.259 39.006c-.205 0-.415-.047-.609-.15-.643-.339-.891-1.132-.553-1.776L18.56 9.489c.337-.644 1.13-.894 1.775-.555.644.339.893 1.132.555 1.776L6.425 38.301c-.235.45-.693.705-1.166.705M34.19 24.542c-.285 0-.571-.092-.812-.281-.571-.45-.67-1.278-.222-1.846l14.466-18.39c.45-.571 1.276-.666 1.845-.22.572.45.67 1.276.222 1.846l-14.465 18.39c-.259.33-.646.501-1.034.501" mask="url(#prefix__f)"/>
        <path fill="#4763D5" d="M34.169 24.553c-.315 0-.633-.113-.885-.344L18.858 11.06c-.536-.49-.576-1.321-.084-1.858.49-.533 1.32-.575 1.857-.085l14.426 13.15c.536.49.576 1.321.086 1.859-.26.283-.616.428-.974.428" mask="url(#prefix__f)"/>
        <path fill="#0096FF" d="M5.26 33.758c2.18 0 3.946 1.766 3.946 3.945 0 2.178-1.767 3.944-3.946 3.944-2.179 0-3.945-1.766-3.945-3.944 0-2.179 1.766-3.945 3.945-3.945M19.725 6.142c2.179 0 3.945 1.766 3.945 3.946 0 2.178-1.766 3.944-3.945 3.944s-3.945-1.767-3.945-3.944c0-2.18 1.766-3.946 3.945-3.946M34.19 19.293c2.179 0 3.945 1.765 3.945 3.945 0 2.177-1.766 3.944-3.945 3.944s-3.945-1.767-3.945-3.944c0-2.18 1.766-3.945 3.945-3.945M48.655.882c2.18 0 3.945 1.767 3.945 3.945 0 2.179-1.765 3.945-3.945 3.945-2.178 0-3.945-1.766-3.945-3.945 0-2.178 1.767-3.945 3.945-3.945" mask="url(#prefix__f)"/>
        <path fill="#333" d="M93.366 28.497c-.337 0-.674-.129-.93-.385-.515-.514-.515-1.345 0-1.86l10.52-10.52c.514-.513 1.346-.513 1.86 0 .514.515.514 1.347 0 1.86l-10.52 10.52c-.257.256-.593.385-.93.385M94.68 16.662c.727 0 1.315.59 1.315 1.315 0 .726-.588 1.315-1.314 1.315-.727 0-1.315-.589-1.315-1.315 0-.725.588-1.315 1.315-1.315M102.571 24.553c.726 0 1.315.588 1.315 1.314 0 .726-.589 1.315-1.315 1.315s-1.315-.589-1.315-1.315.589-1.314 1.315-1.314" mask="url(#prefix__f)"/>
        <path fill="#E05551" d="M38.135 57.428c.726 0 1.315.588 1.315 1.315 0 .726-.589 1.314-1.315 1.314s-1.315-.588-1.315-1.314c0-.727.589-1.315 1.315-1.315M43.396 57.428c.726 0 1.314.588 1.314 1.315 0 .726-.588 1.314-1.314 1.314-.727 0-1.315-.588-1.315-1.314 0-.727.588-1.315 1.315-1.315M48.655 57.428c.726 0 1.315.588 1.315 1.315 0 .726-.589 1.314-1.315 1.314s-1.314-.588-1.314-1.314c0-.727.588-1.315 1.314-1.315" mask="url(#prefix__f)"/>
    </g>
</svg>
