<svg xmlns="http://www.w3.org/2000/svg" xmlns:xlink="http://www.w3.org/1999/xlink" width="120" height="119" viewBox="0 0 120 119">
    <defs>
        <path id="prefix__b" d="M0 0L26 0 26 46 0 46z"/>
        <path id="prefix__d" d="M0 0L41 0 41 33 0 33z"/>
        <radialGradient id="prefix__a" cx="12.98%" cy="90.527%" r="98.966%" fx="12.98%" fy="90.527%" gradientTransform="matrix(.67463 -.73815 .73814 .67464 -.626 .39)">
            <stop offset="0%" stop-color="#FAE100"/>
            <stop offset="4.744%" stop-color="#FADC04"/>
            <stop offset="8.489%" stop-color="#FBCE0E"/>
            <stop offset="14.12%" stop-color="#FCB720"/>
            <stop offset="21.687%" stop-color="#FE9838"/>
            <stop offset="30.617%" stop-color="#FF7950"/>
            <stop offset="48.765%" stop-color="#FF1C74"/>
            <stop offset="100%" stop-color="#6C1CD1"/>
        </radialGradient>
    </defs>
    <g fill="none" fill-rule="evenodd">
        <g fill-rule="nonzero">
            <path fill="#FFF" d="M0 58l4-14.5C1.4 39 0 34 0 28.8 0 13 13 0 28.9 0 44.8 0 58 13 58 28.8S44.8 58 28.9 58c-5 0-9.8-1.6-14.1-4L0 58z"/>
            <path fill="#00DC87" d="M15.607 48.79l.9.5c3.697 2.298 7.995 3.698 12.493 3.698 13.093 0 23.988-10.895 23.988-24.188S42.093 5.012 28.9 5.012C15.707 5.012 5.012 15.607 5.012 28.8c0 4.598 1.3 9.095 3.698 12.893l.6.9-2.299 8.396 8.596-2.2z"/>
            <path fill="#FEFEFE" d="M21.191 15.494l-1.902-.099c-.6 0-1.2.199-1.6.596-.902.795-2.403 2.285-2.803 4.271-.701 2.98.4 6.556 3.002 10.132 2.603 3.576 7.607 9.338 16.415 11.82 2.802.796 5.004.299 6.806-.794 1.401-.894 2.302-2.284 2.602-3.774l.3-1.391c.1-.397-.1-.894-.5-1.093l-6.306-2.88c-.4-.2-.9-.1-1.2.298l-2.503 3.178c-.2.199-.5.298-.8.199-1.702-.596-7.407-2.98-10.51-8.94-.1-.298-.1-.596.1-.795l2.402-2.682c.2-.298.3-.695.2-.993l-2.902-6.457c-.1-.298-.4-.596-.8-.596"/>
        </g>
        <g>
            <path fill="url(#prefix__a)" d="M.771 9.008c-1.027 9.636-1.027 19.3 0 28.934.41 3.842 3.445 6.876 7.287 7.287 4.688.5 9.384.758 14.08.771h.773c4.696-.013 9.392-.27 14.08-.771 3.843-.41 6.876-3.445 7.286-7.287.506-4.729.762-9.464.773-14.2v-.533c-.01-4.737-.267-9.472-.773-14.2-.41-3.843-3.443-6.877-7.285-7.287-4.818-.514-9.643-.77-14.468-.77-4.825 0-9.65.256-14.466.77-3.842.41-6.876 3.444-7.287 7.286z" transform="translate(74 73)"/>
            <path fill="#FFF" d="M14.245 7.636c-4.41.151-7.494 3.116-8.284 7.47-.14.772-.223 1.551-.333 2.325v12.771c.061.415.149.827.178 1.241.32 4.81 3.639 8.37 8.44 8.551 5.309.2 10.635.194 15.943.003 4.8-.173 8.274-3.727 8.424-8.527.16-5.1.16-10.208 0-15.307-.15-4.8-3.625-8.355-8.426-8.527-2.616-.095-5.237-.14-7.857-.14-2.696 0-5.392.048-8.085.14m.744 29.5c-3.774-.141-6.12-2.365-6.223-6.122-.13-4.795-.13-9.6 0-14.395.102-3.758 2.45-6.035 6.223-6.114 4.826-.101 9.658-.102 14.483 0 3.804.082 6.145 2.404 6.235 6.203.109 4.738.109 9.48 0 14.216-.09 3.8-2.43 6.07-6.235 6.212-2.426.089-4.857.015-7.288.015-1.486 0-2.975.03-4.461.03-.912 0-1.823-.011-2.734-.045" transform="translate(74 73)"/>
            <g fill="#FFF">
                <path d="M9.37 17.183c-3.068 0-5.553-2.486-5.553-5.551 0-3.067 2.485-5.553 5.552-5.553 3.066 0 5.55 2.486 5.55 5.553 0 3.065-2.484 5.55-5.55 5.55m0-14.018c-4.676 0-8.467 3.792-8.467 8.468 0 4.675 3.79 8.467 8.467 8.467 4.677 0 8.467-3.792 8.467-8.467 0-4.676-3.79-8.468-8.467-8.468M20.345 2.778c0 1.112-.902 2.014-2.014 2.014-1.113 0-2.014-.902-2.014-2.014 0-1.114.901-2.014 2.014-2.014 1.112 0 2.014.9 2.014 2.014" transform="translate(74 73) translate(13 12)"/>
            </g>
        </g>
        <g transform="translate(23 65)">
            <mask id="prefix__c" fill="#fff">
                <use xlink:href="#prefix__b"/>
            </mask>
            <path fill="#0096FF" d="M26 7.999h-7.428c-.878 0-1.858 1.133-1.858 2.652v5.27H26v7.515h-9.286V46H7.947V23.436H0v-7.514h7.947V11.5C7.947 5.158 12.426 0 18.572 0H26v7.999z" mask="url(#prefix__c)"/>
        </g>
        <g transform="translate(70 25)">
            <mask id="prefix__e" fill="#fff">
                <use xlink:href="#prefix__d"/>
            </mask>
            <path fill="#0DF" d="M36.802 8.218c.018.358.025.718.025 1.079C36.827 20.306 28.364 33 12.893 33 8.143 33 3.722 31.62 0 29.256c.656.078 1.326.117 2.005.117 3.94 0 7.568-1.33 10.447-3.567-3.68-.066-6.788-2.475-7.857-5.784.514.096 1.04.15 1.583.15.765 0 1.51-.103 2.214-.293-3.846-.765-6.747-4.133-6.747-8.168 0-.037 0-.07.002-.106 1.132.625 2.431.998 3.81 1.042-2.258-1.493-3.743-4.043-3.743-6.934 0-1.527.414-2.957 1.139-4.187C7 6.566 13.2 9.883 20.19 10.229c-.144-.609-.217-1.245-.217-1.898C19.974 3.73 23.74 0 28.385 0c2.42 0 4.606 1.012 6.14 2.632 1.917-.375 3.718-1.066 5.344-2.022-.63 1.944-1.964 3.577-3.7 4.61 1.703-.203 3.323-.65 4.831-1.313-1.126 1.67-2.554 3.138-4.198 4.311" mask="url(#prefix__e)"/>
        </g>
    </g>
</svg>
