<?xml version="1.0" encoding="UTF-8"?>
<svg width="93px" height="94px" viewBox="0 0 93 94" version="1.1" xmlns="http://www.w3.org/2000/svg" xmlns:xlink="http://www.w3.org/1999/xlink">
    <!-- Generator: sketchtool 53.2 (72643) - https://sketchapp.com -->
    <title>E0588DBE-56E3-440F-A63C-0AA314F19686</title>
    <desc>Created with sketchtool.</desc>
    <defs>
        <polygon id="path-1" points="0 0.453 92.547 0.453 92.547 92.9998 0 92.9998"></polygon>
    </defs>
    <g id="Symbols" stroke="none" stroke-width="1" fill="none" fill-rule="evenodd">
        <g id="rrss">
            <g id="Group-10">
                <g id="Group-3" transform="translate(0.000000, 0.547400)">
                    <mask id="mask-2" fill="white">
                        <use xlink:href="#path-1"></use>
                    </mask>
                    <g id="Clip-2"></g>
                    <path d="M92.5476,46.7268 C92.5476,21.1698 71.8296,0.4528 46.2736,0.4528 C20.7176,0.4528 -0.0004,21.1698 -0.0004,46.7268 C-0.0004,72.2828 20.7176,92.9998 46.2736,92.9998 C71.8296,92.9998 92.5476,72.2828 92.5476,46.7268" id="Fill-1" fill="#0096FF" mask="url(#mask-2)"></path>
                </g>
                <path d="M35.2483,28.1453 C37.0183,28.1453 38.4583,29.6633 38.4583,31.5273 C38.4583,33.3913 37.0183,34.9093 35.2483,34.9093 C33.4783,34.9093 32.0383,33.3913 32.0383,31.5273 C32.0383,29.6633 33.4783,28.1453 35.2483,28.1453 M35.2483,35.9283 C37.5413,35.9283 39.4783,33.9143 39.4783,31.5273 C39.4783,29.0993 37.5813,27.1253 35.2483,27.1253 C32.9163,27.1253 31.0193,29.0993 31.0193,31.5273 C31.0193,33.9553 32.9163,35.9283 35.2483,35.9283" id="Fill-4" fill="#FFFFFF"></path>
                <path d="M33.1775,36.993 L34.9025,38.371 C35.0055,38.44 35.1135,38.475 35.2195,38.475 C35.3275,38.475 35.4345,38.44 35.5455,38.366 L37.1695,37.014 C37.6335,37.123 41.7065,38.166 42.0645,41.257 C42.0645,41.469 42.0105,41.597 41.8855,41.681 C40.9955,42.273 38.9505,43.265 35.2485,43.265 L35.1915,43.265 C31.4885,43.265 29.4445,42.273 28.5555,41.681 C28.4295,41.597 28.3755,41.469 28.3745,41.269 C28.7185,38.297 32.5145,37.202 33.1775,36.993 M28.0325,42.491 C29.0065,43.162 31.2465,44.285 35.3065,44.285 C39.4215,44.285 41.6305,43.161 42.5805,42.49 C43.0275,42.172 43.2575,41.664 43.1985,41.13 C42.7345,37.305 37.8845,36.122 37.3085,35.997 C37.1895,35.997 37.0545,35.997 36.8975,36.077 L35.3065,37.34 L33.6925,36.063 C33.6065,36.02 33.5095,35.972 33.4035,35.972 L33.2815,36 C33.2275,36.011 27.9075,37.117 27.4135,41.131 C27.3545,41.664 27.5855,42.172 28.0325,42.491" id="Fill-6" fill="#FFFFFF"></path>
                <path d="M56.6418,25.4783 C57.3328,25.4783 57.9668,25.6803 58.4768,26.0633 C59.1528,26.5713 59.5848,27.2973 59.6928,28.1083 C59.8088,28.9773 59.6128,29.8023 59.1418,30.4313 C58.6348,31.1073 57.9078,31.5393 57.0968,31.6483 C56.9858,31.6633 56.8688,31.6703 56.7478,31.6703 C55.4208,31.6703 53.8388,30.8313 53.5008,28.9993 C53.3318,27.3193 54.4988,25.7873 56.1528,25.5113 C56.3168,25.4893 56.4798,25.4783 56.6418,25.4783 L56.6418,25.4783 Z M38.0538,52.8243 L37.5948,52.8243 L36.4888,52.9283 L36.1148,49.8823 L37.2108,49.7783 C40.9678,49.2083 44.3688,47.0953 46.5578,43.9753 L51.1938,46.5133 C50.7118,47.7233 50.4768,49.0003 50.4768,50.4143 C50.4768,51.9453 50.8088,53.4433 51.4648,54.8743 L51.9848,55.8113 L47.4228,58.5033 L46.9008,57.5643 C44.9208,54.5953 41.6138,52.8243 38.0538,52.8243 L38.0538,52.8243 Z M35.2478,23.3943 C40.1918,23.3943 44.7358,26.3123 46.8228,30.8233 L47.3918,32.2473 C47.8008,33.5313 48.0168,34.8853 48.0168,36.1633 C48.0168,38.0933 47.5648,40.0163 46.7138,41.7193 L45.9748,43.0853 C43.9218,46.2213 40.6758,48.3113 37.0728,48.8173 L35.5348,48.9313 L35.1428,48.9313 C28.1608,48.9313 22.4808,43.2033 22.4808,36.1633 C22.4808,29.1223 28.2088,23.3943 35.2478,23.3943 L35.2478,23.3943 Z M38.0538,73.0833 C32.7488,73.0833 28.4328,68.7673 28.4328,63.4623 C28.4328,58.8963 31.6938,54.9213 36.1768,54.0143 L37.7158,53.8423 L38.0538,53.8423 C41.2408,53.8423 44.2228,55.4293 46.0268,58.0793 L46.7678,59.4443 C47.3688,60.7673 47.6728,62.1183 47.6728,63.4623 C47.6728,68.7673 43.3578,73.0833 38.0538,73.0833 L38.0538,73.0833 Z M61.0078,60.0363 C57.8418,60.0363 54.9948,58.4893 53.1988,55.7943 L52.4028,54.4903 C51.8028,53.1663 51.4978,51.8153 51.4978,50.4713 C51.4978,49.1193 51.7838,47.8053 52.3428,46.5753 L53.0818,45.2083 C54.8888,42.4443 57.9128,40.7923 61.1758,40.7923 C66.4798,40.7923 70.7948,45.1093 70.7948,50.4143 C70.7948,53.8073 69.0818,56.8743 66.2198,58.6153 L64.8518,59.2993 C63.6808,59.8013 62.5128,60.0353 61.1728,60.0353 L61.0078,60.0363 Z M68.4088,64.3143 C68.6218,64.2703 68.8398,64.2483 69.0558,64.2483 C70.4538,64.2483 71.6888,65.1843 72.0588,66.5263 C72.2768,67.2883 72.1778,68.1123 71.7818,68.8483 C71.4008,69.5543 70.6978,70.1123 69.9038,70.3393 C69.6228,70.4153 69.3368,70.4533 69.0528,70.4533 C68.5168,70.4533 68.0028,70.3223 67.5228,70.0633 C66.8158,69.6833 66.2578,68.9793 66.0308,68.1843 C65.8488,67.5173 65.8988,66.4713 66.4188,65.6383 C66.8578,64.9243 67.5258,64.4793 68.4088,64.3143 L68.4088,64.3143 Z M73.0138,66.1823 C72.5418,64.3993 70.8858,63.1543 68.9878,63.1543 C68.8498,63.1543 68.7108,63.1613 68.5718,63.1733 L67.0328,59.2703 C69.9938,57.2993 71.7578,53.9953 71.7578,50.4143 C71.7578,44.5463 66.9848,39.7743 61.1178,39.7743 C57.4928,39.7743 54.1628,41.5893 52.2078,44.6373 L51.6878,45.5743 L47.1298,43.1013 L47.6518,42.1633 C48.5708,40.2673 49.0368,38.2293 49.0368,36.1063 C49.0368,34.6523 48.8038,33.2153 48.3448,31.8363 L48.0378,30.9153 L52.6858,29.6573 C53.2798,31.7103 55.2068,32.6473 56.7728,32.6473 C56.9568,32.6473 57.1338,32.6333 57.3008,32.6083 C58.3918,32.4343 59.3518,31.8503 60.0038,30.9623 C60.6628,30.0643 60.9418,28.9493 60.7678,27.9053 C60.5938,26.7973 60.0238,25.8623 59.1218,25.2003 C58.4508,24.7083 57.5898,24.4373 56.6988,24.4373 C56.4648,24.4373 56.2328,24.4573 56.0058,24.4943 C53.9428,24.8483 52.4648,26.6463 52.5338,28.6963 L47.6118,29.9673 C45.2948,25.3523 40.4518,22.3753 35.2478,22.3753 C27.6458,22.3753 21.4608,28.5603 21.4608,36.1633 C21.4608,43.7333 27.5938,49.8973 35.1508,49.9503 L35.5298,53.0773 C30.8198,54.2023 27.4128,58.5303 27.4128,63.4063 C27.4128,69.2733 32.1858,74.0453 38.0538,74.0453 C43.9198,74.0453 48.6938,69.2733 48.6938,63.4063 C48.6938,62.0263 48.4338,60.6753 47.9198,59.3903 L52.6738,56.7373 C54.7118,59.4823 57.8258,61.0533 61.2328,61.0533 C62.5858,61.0533 63.9858,60.7743 65.2878,60.2423 L66.2098,59.7803 L67.6128,63.3943 C66.7848,63.6803 66.0908,64.2213 65.5448,65.0103 C64.9758,65.9773 64.7748,67.2583 65.0188,68.3573 C65.3118,69.4103 66.0008,70.2883 66.9608,70.8283 C67.5948,71.1723 68.3058,71.3553 69.0168,71.3553 C69.3898,71.3553 69.7988,71.2913 70.1328,71.1803 C71.1858,70.8873 72.0628,70.1993 72.5978,69.2483 C73.1658,68.3943 73.3178,67.2773 73.0138,66.1823 L73.0138,66.1823 Z" id="Fill-8" fill="#FFFFFF"></path>
            </g>
        </g>
    </g>
</svg>