<svg xmlns="http://www.w3.org/2000/svg" xmlns:xlink="http://www.w3.org/1999/xlink" width="96" height="96" viewBox="0 0 96 96">
    <defs>
        <path id="prefix__a" d="M0.882 0.112L17.456 0.112 17.456 15.834 0.882 15.834z"/>
        <path id="prefix__c" d="M0.129 0.052L39.937 0.052 39.937 37 0.129 37z"/>
    </defs>
    <g fill="none" fill-rule="evenodd">
        <circle cx="48" cy="48" r="48" fill="#FFF"/>
        <g>
            <path fill="red" d="M27.005 25.134c2.697 0 4.986 2.207 4.986 4.905 0 2.697-2.207 4.904-4.986 4.904-2.697 0-4.986-2.207-4.986-4.904 0-2.698 2.29-4.905 4.986-4.905m0 11.362c3.597 0 6.621-2.943 6.621-6.539 0-3.596-2.942-6.539-6.62-6.539-3.598 0-6.622 2.943-6.622 6.54 0 3.677 3.024 6.538 6.621 6.538" transform="translate(21 21)"/>
            <g transform="translate(21 21) translate(18 .888)">
                <mask id="prefix__b" fill="#fff">
                    <use xlink:href="#prefix__a"/>
                </mask>
                <path fill="red" d="M6.798 6.344c.245 0 .49-.245.654-.409l1.553-3.269 1.553 3.188c.082.245.327.408.654.408l3.515.573-2.533 2.452c-.165.163-.247.49-.247.736l.573 3.514-3.106-1.634c-.082-.082-.245-.082-.409-.082-.163 0-.245 0-.408.082L5.49 13.537l.573-3.514c.081-.246-.082-.573-.245-.736L3.283 6.835l3.515-.49zm-2.37 3.842l-.818 4.66c-.082.326.082.653.327.817.246.163.572.245.9.081l4.25-2.207 4.25 2.207c.245.164.572.082.9-.08.245-.165.41-.492.327-.819l-.818-4.659 3.433-3.35c.246-.247.327-.574.246-.819-.082-.327-.327-.49-.654-.572l-4.742-.654L9.904.541c-.245-.573-1.226-.573-1.47 0L6.307 4.79l-4.74.654c-.329.082-.574.245-.656.572-.08.327 0 .654.246.818l3.27 3.351z" mask="url(#prefix__b)"/>
            </g>
            <path fill="red" d="M8.695 17.287c-.245-.163-.49-.163-.735 0l-3.107 1.635.572-3.515c.082-.245-.081-.572-.245-.736l-2.534-2.452 3.516-.49c.245 0 .49-.246.653-.41l1.554-3.187 1.553 3.188c.082.245.327.409.654.409l3.515.49-2.535 2.452c-.163.164-.245.49-.245.736l.572 3.515-3.188-1.635zm4.66 3.842c.245-.163.408-.49.326-.818l-.817-4.66 3.434-3.35c.245-.245.327-.572.245-.818-.082-.326-.327-.49-.655-.571l-4.74-.655-2.126-4.332c-.163-.245-.408-.491-.735-.491s-.572.164-.736.49l-2.126 4.252-4.741.653c-.326.083-.571.246-.653.573-.082.327 0 .654.245.817l3.434 3.433-.82 4.659c-.08.328.083.655.328.818.246.163.573.245.9.082l4.25-2.207 4.25 2.207c.165.163.49.08.737-.082zM48.83 14.753c-.162.164-.244.49-.244.735l.572 3.515-3.106-1.634c-.082-.082-.245-.082-.41-.082-.163 0-.245 0-.408.082l-3.106 1.634.572-3.515c.082-.245-.081-.57-.245-.735l-2.534-2.452 3.515-.49c.246 0 .49-.246.654-.41l1.553-3.188 1.553 3.188c.082.246.327.41.655.41l3.514.49-2.534 2.452zm5.15-3.27c-.081-.327-.326-.49-.653-.572l-4.741-.654-2.125-4.25c-.246-.573-1.227-.573-1.472 0l-2.125 4.25-4.741.654c-.327.082-.572.245-.654.572-.082.327 0 .654.245.818l3.433 3.351-.817 4.66c-.082.326.082.653.327.817.245.163.572.245.899.082l4.25-2.208 4.252 2.208c.245.163.57.081.898-.082.245-.164.409-.49.327-.818l-.817-4.659 3.433-3.35c.08-.247.163-.573.08-.819z" transform="translate(21 21)"/>
            <g transform="translate(21 21) translate(12 17.888)">
                <mask id="prefix__d" fill="#fff">
                    <use xlink:href="#prefix__c"/>
                </mask>
                <path fill="red" d="M30.373 35.365c-4.414 0-7.93-3.597-7.93-7.929 0-4.332 3.598-7.929 7.93-7.929 4.333 0 7.93 3.597 7.93 7.93 0 4.331-3.516 7.928-7.93 7.928M6.096 24.74c1.144-2.453 3.515-4.006 6.213-4.006h5.394c1.717 0 3.27.572 4.496 1.635-.817 1.308-1.307 2.861-1.39 4.496-4.822 2.37-10.625 1.634-14.713-2.125m8.91-22.97c7.275 0 13.242 5.886 13.242 13.242 0 1.063-.163 2.125-.408 3.106-1.8.491-3.434 1.553-4.66 2.943-1.553-1.308-3.433-1.962-5.477-1.962h-5.394c-3.107 0-5.968 1.717-7.44 4.414-1.961-2.37-3.105-5.313-3.105-8.419C1.764 7.736 7.73 1.77 15.006 1.77M30.373 17.79h-.735c.163-.899.245-1.88.245-2.86C29.883 6.754 23.18.051 15.006.051S.129 6.674.129 14.93c0 8.175 6.62 14.877 14.877 14.877 2.044 0 4.006-.408 5.886-1.226.572 4.741 4.577 8.42 9.48 8.42 5.314 0 9.565-4.333 9.565-9.564 0-5.313-4.251-9.646-9.564-9.646" mask="url(#prefix__d)"/>
            </g>
            <path fill="red" d="M46.95 41.728l-5.967 5.23-2.288-2.696c-.327-.327-.817-.41-1.144-.082-.328.327-.41.818-.082 1.145l2.779 3.35c.164.165.327.246.572.328.245 0 .409-.082.572-.163l6.62-5.804c.329-.327.41-.817.084-1.144-.328-.41-.818-.41-1.145-.164" transform="translate(21 21)"/>
        </g>
    </g>
</svg>
