<?xml version="1.0" encoding="UTF-8"?>
<svg width="357px" height="437px" viewBox="0 0 357 437" version="1.1" xmlns="http://www.w3.org/2000/svg" xmlns:xlink="http://www.w3.org/1999/xlink">
    <!-- Generator: Sketch 53.2 (72643) - https://sketchapp.com -->
    <title>Group 77</title>
    <desc>Created with Sketch.</desc>
    <defs>
        <polygon id="path-1" points="0 439.192451 395.499343 439.192451 395.499343 0.178998141 0 0.178998141"></polygon>
        <path d="M113.195202,5.05654093 C70.0493188,14.73586 26.6939554,53.9726318 11.8661409,100.691837 L11.8661409,100.691837 C4.83439375,122.846125 2.39706112,146.455567 1.11045522,169.899393 L1.11045522,169.899393 C-0.714005737,203.101807 0.125331226,238.33266 15.6665114,266.786008 L15.6665114,266.786008 C29.8488999,292.752289 54.9072837,309.771074 81.296151,317.84661 L81.296151,317.84661 C107.685018,325.920731 135.520433,325.903745 162.8463,324.070648 L162.8463,324.070648 C188.48217,322.352207 214.39263,318.987519 238.264902,308.482952 L238.264902,308.482952 C262.138589,297.97697 284.022213,279.580885 295.395016,254.039259 L295.395016,254.039259 C302.796185,237.413989 305.426013,218.688087 306.728188,200.201409 L306.728188,200.201409 C308.651728,172.905956 307.887407,145.476028 307.121672,118.109799 L307.121672,118.109799 C306.640433,100.936722 306.078516,83.3262498 300.163526,67.4469574 L300.163526,67.4469574 C293.086486,48.442199 278.754064,33.5367837 262.440071,23.7711179 L262.440071,23.7711179 C246.124663,14.0054522 227.855991,8.95912688 209.583073,5.49110527 L209.583073,5.49110527 C192.50476,2.24956671 175.129211,0.317383241 157.808863,0.317383241 L157.808863,0.317383241 C142.826769,0.315967722 127.884306,1.76121264 113.195202,5.05654093" id="path-3"></path>
        <path d="M113.195202,5.05654093 C70.0493188,14.73586 26.6939554,53.9726318 11.8661409,100.691837 L11.8661409,100.691837 C4.83439375,122.846125 2.39706112,146.455567 1.11045522,169.899393 L1.11045522,169.899393 C-0.714005737,203.101807 0.125331226,238.33266 15.6665114,266.786008 L15.6665114,266.786008 C29.8488999,292.752289 54.9072837,309.771074 81.296151,317.84661 L81.296151,317.84661 C107.685018,325.920731 135.520433,325.903745 162.8463,324.070648 L162.8463,324.070648 C188.48217,322.352207 214.39263,318.987519 238.264902,308.482952 L238.264902,308.482952 C262.138589,297.97697 284.022213,279.580885 295.395016,254.039259 L295.395016,254.039259 C302.796185,237.413989 305.426013,218.688087 306.728188,200.201409 L306.728188,200.201409 C308.651728,172.905956 307.887407,145.476028 307.121672,118.109799 L307.121672,118.109799 C306.640433,100.936722 306.078516,83.3262498 300.163526,67.4469574 L300.163526,67.4469574 C293.086486,48.442199 278.754064,33.5367837 262.440071,23.7711179 L262.440071,23.7711179 C246.124663,14.0054522 227.855991,8.95912688 209.583073,5.49110527 L209.583073,5.49110527 C192.50476,2.24956671 175.129211,0.317383241 157.808863,0.317383241 L157.808863,0.317383241 C142.826769,0.315967722 127.884306,1.76121264 113.195202,5.05654093" id="path-5"></path>
        <path d="M113.195202,5.05654093 C70.0493188,14.73586 26.6939554,53.9726318 11.8661409,100.691837 L11.8661409,100.691837 C4.83439375,122.846125 2.39706112,146.455567 1.11045522,169.899393 L1.11045522,169.899393 C-0.714005737,203.101807 0.125331226,238.33266 15.6665114,266.786008 L15.6665114,266.786008 C29.8488999,292.752289 54.9072837,309.771074 81.296151,317.84661 L81.296151,317.84661 C107.685018,325.920731 135.520433,325.903745 162.8463,324.070648 L162.8463,324.070648 C188.48217,322.352207 214.39263,318.987519 238.264902,308.482952 L238.264902,308.482952 C262.138589,297.97697 284.022213,279.580885 295.395016,254.039259 L295.395016,254.039259 C302.796185,237.413989 305.426013,218.688087 306.728188,200.201409 L306.728188,200.201409 C308.651728,172.905956 307.887407,145.476028 307.121672,118.109799 L307.121672,118.109799 C306.640433,100.936722 306.078516,83.3262498 300.163526,67.4469574 L300.163526,67.4469574 C293.086486,48.442199 278.754064,33.5367837 262.440071,23.7711179 L262.440071,23.7711179 C246.124663,14.0054522 227.855991,8.95912688 209.583073,5.49110527 L209.583073,5.49110527 C192.50476,2.24956671 175.129211,0.317383241 157.808863,0.317383241 L157.808863,0.317383241 C142.826769,0.315967722 127.884306,1.76121264 113.195202,5.05654093 L113.195202,5.05654093 Z" id="path-7"></path>
        <path d="M113.195202,5.05654093 C70.0493188,14.73586 26.6939554,53.9726318 11.8661409,100.691837 L11.8661409,100.691837 C4.83439375,122.846125 2.39706112,146.455567 1.11045522,169.899393 L1.11045522,169.899393 C-0.714005737,203.101807 0.125331226,238.33266 15.6665114,266.786008 L15.6665114,266.786008 C29.8488999,292.752289 54.9072837,309.771074 81.296151,317.84661 L81.296151,317.84661 C107.685018,325.920731 135.520433,325.903745 162.8463,324.070648 L162.8463,324.070648 C188.48217,322.352207 214.39263,318.987519 238.264902,308.482952 L238.264902,308.482952 C262.138589,297.97697 284.022213,279.580885 295.395016,254.039259 L295.395016,254.039259 C302.796185,237.413989 305.426013,218.688087 306.728188,200.201409 L306.728188,200.201409 C308.651728,172.905956 307.887407,145.476028 307.121672,118.109799 L307.121672,118.109799 C306.640433,100.936722 306.078516,83.3262498 300.163526,67.4469574 L300.163526,67.4469574 C293.086486,48.442199 278.754064,33.5367837 262.440071,23.7711179 L262.440071,23.7711179 C246.124663,14.0054522 227.855991,8.95912688 209.583073,5.49110527 L209.583073,5.49110527 C192.50476,2.24956671 175.129211,0.317383241 157.808863,0.317383241 L157.808863,0.317383241 C142.826769,0.315967722 127.884306,1.76121264 113.195202,5.05654093" id="path-9"></path>
        <path d="M113.195202,5.05654093 C70.0493188,14.73586 26.6939554,53.9726318 11.8661409,100.691837 L11.8661409,100.691837 C4.83439375,122.846125 2.39706112,146.455567 1.11045522,169.899393 L1.11045522,169.899393 C-0.714005737,203.101807 0.125331226,238.33266 15.6665114,266.786008 L15.6665114,266.786008 C29.8488999,292.752289 54.9072837,309.771074 81.296151,317.84661 L81.296151,317.84661 C107.685018,325.920731 135.520433,325.903745 162.8463,324.070648 L162.8463,324.070648 C188.48217,322.352207 214.39263,318.987519 238.264902,308.482952 L238.264902,308.482952 C262.138589,297.97697 284.022213,279.580885 295.395016,254.039259 L295.395016,254.039259 C302.796185,237.413989 305.426013,218.688087 306.728188,200.201409 L306.728188,200.201409 C308.651728,172.905956 307.887407,145.476028 307.121672,118.109799 L307.121672,118.109799 C306.640433,100.936722 306.078516,83.3262498 300.163526,67.4469574 L300.163526,67.4469574 C293.086486,48.442199 278.754064,33.5367837 262.440071,23.7711179 L262.440071,23.7711179 C246.124663,14.0054522 227.855991,8.95912688 209.583073,5.49110527 L209.583073,5.49110527 C192.50476,2.24956671 175.129211,0.317383241 157.808863,0.317383241 L157.808863,0.317383241 C142.826769,0.315967722 127.884306,1.76121264 113.195202,5.05654093 L113.195202,5.05654093 Z" id="path-11"></path>
        <path d="M11.8661409,100.691837 C4.83439375,122.846125 2.39706112,146.455567 1.11045522,169.899393 C-0.714005737,203.101807 0.125331226,238.33266 15.6665114,266.786008 C29.8488999,292.752289 54.9072837,309.771074 81.296151,317.84661 C107.685018,325.920731 135.520433,325.903745 162.8463,324.070648 C188.48217,322.352207 214.39263,318.987519 238.264902,308.482952 C262.138589,297.97697 284.022213,279.580885 295.395016,254.039259 C302.796185,237.413989 305.426013,218.688087 306.728188,200.201409 C308.651728,172.905956 307.887407,145.476028 307.121672,118.109799 C306.640433,100.936722 306.078516,83.3262498 300.163526,67.4469574 C293.086486,48.442199 278.754064,33.5367837 262.440071,23.7711179 C246.124663,14.0054522 227.855991,8.95912688 209.583073,5.49110527 C192.50476,2.24956671 175.129211,0.317383241 157.808863,0.317383241 C142.826769,0.315967722 127.884306,1.76121264 113.195202,5.05654093 C70.0493188,14.73586 26.6939554,53.9726318 11.8661409,100.691837 Z" id="path-13"></path>
        <path d="M4.2295,0.172619048 C4.17725,0.218190476 4.126375,0.172619048 4.07275,0.172619048 L4.07275,0.172619048 C1.978625,0.172619048 0.438625,5.78757143 0.438625,13.8288571 L0.438625,13.8288571 C0.438625,21.8687619 2.13675,28.3840952 4.2295,28.3840952 L4.2295,28.3840952 L10.3345,28.3840952 L10.3345,0.172619048 L4.2295,0.172619048 Z" id="path-15"></path>
        <linearGradient x1="0.00646936223%" y1="50.0018322%" x2="100.009411%" y2="50.0018322%" id="linearGradient-17">
            <stop stop-color="#0A3B5E" offset="0%"></stop>
            <stop stop-color="#041F2F" offset="100%"></stop>
        </linearGradient>
        <path d="M6.952,0.319 L0.848375,0.319 L0.848375,28.5304762 L6.952,28.5304762 C9.046125,28.5304762 10.74425,22.0137619 10.74425,13.9738571 L10.74425,13.9738571 C10.74425,5.93533333 9.20425,0.319 7.110125,0.319 L7.110125,0.319 C7.057875,0.319 7.007,0.364571429 6.952,0.319" id="path-18"></path>
        <linearGradient x1="-0.00566347089%" y1="50.0012482%" x2="99.9954703%" y2="50.0012482%" id="linearGradient-20">
            <stop stop-color="#0A3B5E" offset="0%"></stop>
            <stop stop-color="#041F2F" offset="100%"></stop>
        </linearGradient>
        <path d="M0.111724138,0.809692308 C0.111724138,0.809692308 6.84551724,11.02 9.08965517,14.4239231 L9.08965517,14.4239231 C10.4386207,16.4700769 12.4510345,17.6553846 14.5724138,17.6553846 L14.5724138,17.6553846 L27.1448276,17.6553846 L27.1448276,12.4552308 L15.2427586,12.4552308 C13.1227586,12.4552308 11.1117241,11.2699231 9.76275862,9.22376923 L9.76275862,9.22376923 C8.37655172,7.12061538 4.2137931,0.809692308 4.2137931,0.809692308 L4.2137931,0.809692308 L0.111724138,0.809692308 Z" id="path-21"></path>
        <linearGradient x1="50.0001832%" y1="99.9985598%" x2="50.0001832%" y2="0.00469894152%" id="linearGradient-23">
            <stop stop-color="#000202" offset="0%"></stop>
            <stop stop-color="#0A3F62" offset="100%"></stop>
        </linearGradient>
        <path d="M0.4368,4.19174603 C0.4368,6.25904762 3.4342,7.9352381 7.1302,7.9352381 L7.1302,7.9352381 C10.8304,7.9352381 13.8264,6.25904762 13.8264,4.19174603 L13.8264,4.19174603 C13.8264,2.1231746 10.8304,0.448253968 7.1302,0.448253968 L7.1302,0.448253968 C3.4342,0.448253968 0.4368,2.1231746 0.4368,4.19174603" id="path-24"></path>
        <linearGradient x1="50.0005772%" y1="99.9998796%" x2="50.0005772%" y2="-0.00405698779%" id="linearGradient-26">
            <stop stop-color="#000202" offset="0%"></stop>
            <stop stop-color="#0A3F62" offset="100%"></stop>
        </linearGradient>
    </defs>
    <g id="Desktop" stroke="none" stroke-width="1" fill="none" fill-rule="evenodd">
        <g id="Servicio-al-cliente" transform="translate(-938.000000, -281.000000)">
            <g id="Group-77" transform="translate(921.000000, 281.000000)">
                <g id="Group-39">
                    <path d="M216.230991,389.091911 C226.72782,389.456765 236.900777,388.721378 246.160106,386.431458 C268.029206,381.022533 306.657591,362.070001 322.121391,347.944331 C347.198091,325.033773 361.864234,293.332646 368.596234,265.473134 C373.953549,243.300801 378.350563,200.710841 363.114463,185.124336 C355.473077,177.304819 345.110606,170.652268 343.134849,160.094217 C340.526906,146.148844 353.327606,131.27643 359.382163,116.646779 C372.078206,85.962133 353.672691,61.049846 327.137863,47.6297498 C296.405434,32.0844145 268.09002,11.5872867 224.139677,26.9509047 C182.241463,41.5961722 152.558434,84.218784 161.280334,117.211806 C118.131891,126.759055 77.3311629,154.65122 56.3459914,188.948914 C31.8647057,228.960761 40.2245486,261.515107 58.2821486,294.184445 C75.8673771,325.997725 91.3184486,353.280853 131.12352,369.149872 C152.514591,377.677802 185.734749,388.031421 216.230991,389.091911" id="Fill-1" fill="#BDE2FF"></path>
                    <path d="M236.395594,350.611883 C235.015251,352.99692 233.684409,355.734035 232.420037,358.587562 L187.843166,339.650647 C175.789209,325.874214 156.202766,277.571522 170.403609,251.749229 C183.27078,228.353145 199.718923,243.096369 212.815209,230.755218 C225.91008,218.414068 215.549023,167.239392 234.421251,154.460985 C249.19488,144.459442 270.017409,162.005086 288.553037,157.10866 C301.210894,153.765349 314.926637,125.181807 331.357809,132.160882 C347.787566,139.139956 351.829594,175.672204 338.77008,197.970887 C331.581266,210.246733 313.771166,221.533073 303.83298,240.096616 C293.89338,258.66158 306.474866,293.302833 292.375851,318.237835 C278.275423,343.174256 241.686437,341.466399 236.395594,350.611883" id="Fill-3" fill="#9BC3F0"></path>
                    <path d="M97.1174443,219.605451 C96.41313,217.305593 95.6267871,215.019932 95.0101586,212.690261 L93.0556157,205.725383 L91.3202871,198.692361 C91.2877586,198.534778 91.2509871,198.368677 91.2170443,198.212514 C90.9610586,197.150605 90.7291157,196.088695 90.5000014,195.028205 C90.4985871,195.022526 90.4971729,195.016848 90.4971729,195.012589 C92.0048014,194.791121 93.2762443,194.3709 94.4741443,193.883955 C95.8134729,193.306151 97.0340014,192.626131 98.13573,191.841056 C100.337773,190.275165 102.126844,188.352939 103.599116,186.159556 C105.064316,183.959074 106.225444,181.498794 106.967944,178.679339 C107.341316,177.271031 107.594473,175.760507 107.731659,174.149187 C107.841973,172.515152 107.871673,170.812974 107.547801,168.805567 C105.74883,168.990123 104.304844,169.479908 102.940059,170.037836 C101.602144,170.618479 100.38303,171.298499 99.2813014,172.082154 C97.0750157,173.645206 95.2873586,175.568852 93.8023586,177.752298 C92.3258443,179.942841 91.16613,182.403121 90.4208014,185.221157 C90.0460157,186.628045 89.7928586,188.138569 89.6585014,189.751309 C89.6358729,190.08635 89.6203157,190.42707 89.6075871,190.770629 C89.6061729,190.76637 89.6061729,190.762111 89.6047586,190.756432 C88.9598443,187.565024 88.3771586,184.370777 87.8609443,181.155235 C87.8567014,181.143878 87.8510443,181.132521 87.8510443,181.132521 C87.6601157,179.935743 87.4805014,178.734706 87.2994729,177.533669 C87.1580443,176.55694 87.0152014,175.58021 86.8935729,174.592123 C86.8935729,174.590703 86.8935729,174.590703 86.8935729,174.589283 C87.8369014,172.941052 88.36443,171.385099 88.7943729,169.849021 C89.1974443,168.308684 89.4590871,166.79958 89.5750586,165.323128 C89.8126586,162.367385 89.5552586,159.518116 88.9230729,156.752608 C88.2824014,153.98852 87.2782586,151.303933 85.7762871,148.72866 C85.02813,147.439604 84.13713,146.18178 83.1089443,144.95519 C82.0468157,143.735697 80.88993,142.53466 79.3101729,141.428741 C78.3611871,143.08833 77.8350729,144.65422 77.40513,146.200236 C77.0048871,147.740573 76.7446586,149.248257 76.6272729,150.726129 C76.38543,153.683292 76.64283,156.531141 77.2622871,159.299488 C77.89023,162.067835 78.8929586,164.752422 80.3921014,167.329115 C81.1388443,168.616751 82.0298443,169.875995 83.0622729,171.101166 C84.08763,172.275229 85.2091586,173.427997 86.7068871,174.497005 C86.7083014,174.502684 86.7083014,174.509782 86.7097157,174.515461 C86.7860871,175.380037 86.8751871,176.240354 86.96853,177.112029 C87.0519729,177.932595 87.1453157,178.747483 87.2485586,179.556692 C87.2443157,179.573728 87.2443157,179.573728 87.2598729,179.579407 C87.65163,183.073203 88.1254157,186.554223 88.6854729,190.032403 C88.6897157,190.059376 88.6953729,190.08777 88.6996157,190.116163 C88.1947157,188.810071 87.6389014,187.579221 87.0010586,186.460525 C85.5273729,183.866796 83.7439586,181.703226 81.7257729,179.86476 C79.7033443,178.036231 77.4532157,176.520028 74.8891157,175.438243 C73.6106014,174.894511 72.2415729,174.47429 70.7862729,174.176161 C69.3097586,173.905005 67.7752586,173.716189 65.9748729,173.895067 C66.1912586,175.912411 66.67353,177.563482 67.2137871,179.130793 C67.7752586,180.672549 68.4230014,182.092215 69.1598443,183.386949 C70.6307014,185.984937 72.4141157,188.147087 74.4238157,189.996911 C76.4391729,191.838217 78.6907157,193.353 81.2505729,194.439044 C82.5290871,194.984195 83.8981157,195.402997 85.3562443,195.698287 C86.6984014,195.942469 88.0985443,196.104311 89.6952729,195.996417 C89.6966871,196.000676 89.6952729,196.006354 89.7023443,196.010613 C89.8635729,196.975986 90.0403586,197.949876 90.2298729,198.916668 L91.6922443,206.044808 L93.3865586,213.128938 C93.9056014,215.407501 94.5788014,217.666188 95.1742157,219.920617 C95.1784586,219.930554 95.1784586,219.940492 95.1827014,219.95043 C94.8333729,219.392501 94.4755586,218.857287 94.1092586,218.349047 C93.14613,217.055732 92.13633,215.911482 91.07703,214.921975 C88.9626729,212.938703 86.6842586,211.480706 84.2828014,210.420216 C81.8756871,209.371084 79.3497729,208.703841 76.6583871,208.568973 C75.3148157,208.49657 73.9231586,208.577491 72.4834157,208.807477 C71.0351871,209.068695 69.5558443,209.43071 67.9336586,210.242758 C68.7171729,212.116716 69.6392871,213.540641 70.5925157,214.865188 C71.5584729,216.155664 72.5682729,217.298495 73.6261586,218.288002 C75.7391014,220.276953 78.0175157,221.734949 80.41473,222.808216 C82.8176014,223.872965 85.34493,224.538788 88.0334871,224.677915 C89.3770586,224.750318 90.77013,224.669397 92.2084586,224.437992 C93.4544443,224.209426 94.7287157,223.890001 96.0892586,223.289482 L96.0935014,223.302259 L96.1967443,223.695507 L97.2404871,227.186464 C97.9561157,229.510456 98.6038586,231.851484 99.3859586,234.155601 L101.647401,241.077889 L103.089973,245.166525 C102.525673,244.435397 101.950059,243.782351 101.368787,243.163377 C100.257159,242.024806 99.1186586,241.043817 97.9547014,240.22325 C95.6239586,238.576439 93.2012871,237.480457 90.7079014,236.803277 C88.2116871,236.136034 85.6475871,235.869137 82.98873,236.160168 C81.6593014,236.300715 80.3044157,236.601684 78.9226586,237.057397 C77.53383,237.548601 76.12803,238.143441 74.6416157,239.211029 C75.6485871,240.958637 76.7375871,242.233496 77.8421443,243.40472 C78.9537729,244.540453 80.0922729,245.521441 81.2576443,246.342008 C83.5869729,247.994498 86.0096443,249.08906 88.5002014,249.781857 C90.9950014,250.463296 93.5576871,250.728774 96.2165443,250.443421 C97.5459729,250.302874 98.9008586,250.001905 100.282616,249.543353 C101.493244,249.113195 102.71943,248.583659 103.99653,247.747477 C103.999359,247.754575 104.002187,247.760254 104.005016,247.767352 C104.843687,250.112639 105.692259,252.453667 106.587501,254.786177 C108.308687,259.35466 110.097759,263.904688 111.937744,268.427741 C111.937744,268.429161 111.937744,268.430581 111.937744,268.432 C111.24333,267.865554 110.554573,267.377189 109.86723,266.925735 C108.557601,266.10091 107.256459,265.439346 105.963801,264.942463 C103.378487,263.943018 100.824287,263.51286 98.2913014,263.51144 C95.75973,263.522798 93.2507871,263.945858 90.77013,264.943883 C89.5312157,265.437926 88.2993729,266.096651 87.0746014,266.914378 C85.8540729,267.769017 84.6392014,268.73155 83.4497871,270.181028 C84.7919443,271.631926 86.1086443,272.598718 87.4196871,273.456196 C88.7279014,274.276762 90.0290443,274.939746 91.3217014,275.436629 C93.9056014,276.438913 96.4612157,276.869071 98.9942014,276.886107 C101.527187,276.891786 104.037544,276.465886 106.516787,275.47354 C107.755701,274.980916 108.988959,274.322192 110.212316,273.498786 C111.161301,272.831543 112.108873,272.090478 113.042301,271.110909 L113.042301,271.112328 C114.503259,274.664331 116.000987,278.212075 117.538316,281.739943 C119.746016,286.850738 121.998973,291.954435 124.298601,297.019801 C124.300016,297.02264 124.302844,297.028319 124.304259,297.032578 C123.071001,296.329843 121.870273,295.820184 120.679444,295.372989 C119.03463,294.782408 117.418101,294.359348 115.831273,294.102388 C112.656201,293.575693 109.581544,293.612604 106.579016,294.075415 C103.58073,294.549583 100.654573,295.432615 97.82883,296.884933 C96.41313,297.600444 95.02713,298.486315 93.67083,299.532608 C92.3201871,300.611554 90.9893443,301.796975 89.7419443,303.463662 C91.4956586,304.670377 93.1645157,305.395826 94.8149871,306.013381 C96.4598014,306.601122 98.07633,307.024182 99.6617443,307.281142 C102.83823,307.812096 105.914301,307.773766 108.918244,307.326571 C111.919359,306.868019 114.845516,305.984987 117.672673,304.536929 C119.086959,303.819998 120.472959,302.935546 121.829259,301.886413 C122.939473,300.996283 124.03413,300.018134 125.080701,298.771668 C125.08353,298.777346 125.084944,298.781605 125.087773,298.787284 C126.517616,301.937521 127.958773,305.0835 129.404173,308.212442 C131.70663,313.203985 134.020401,318.133063 136.040001,323.082017 C136.040001,323.086276 136.041416,323.089115 136.04283,323.093374 C135.407816,322.805182 134.77563,322.541124 134.147687,322.30546 C132.502873,321.716299 130.886344,321.290399 129.299516,321.034859 C126.124444,320.509583 123.048373,320.546494 120.047259,321.007886 C117.048973,321.482054 114.121401,322.365086 111.295659,323.817403 C109.879959,324.534334 108.495373,325.418786 107.139073,326.465079 C105.78843,327.544025 104.454759,328.729445 103.210187,330.397552 C104.962487,331.602848 106.632759,332.328297 108.28323,332.945851 C109.928044,333.533593 111.543159,333.956653 113.128573,334.213612 C116.305059,334.744567 119.38113,334.707656 122.385073,334.260461 C125.386187,333.80049 128.313759,332.916038 131.140916,331.469399 C132.555201,330.753888 133.939787,329.868017 135.296087,328.818884 C136.044244,328.219785 136.78533,327.576677 137.510859,326.846969 C137.512273,326.849808 137.512273,326.852648 137.513687,326.856907 C138.413173,329.263239 139.222144,331.688028 139.920801,334.131272 L145.761801,330.567912 C144.940101,328.211267 144.059001,325.894374 143.104359,323.635686 C143.102944,323.632847 143.10153,323.630007 143.100116,323.625748 C144.059001,323.547667 144.951416,323.391504 145.809887,323.19701 C147.222759,322.844933 148.529559,322.372184 149.728873,321.778764 C152.13033,320.594763 154.165487,318.9948 155.919201,317.078252 C157.667259,315.154605 159.143773,312.927151 160.251159,310.278055 C160.805559,308.956347 161.256716,307.515386 161.600387,305.956594 C161.92143,304.370828 162.173173,302.70698 162.10953,300.685377 C160.289344,300.577482 158.785959,300.827343 157.350459,301.156705 C155.940416,301.511622 154.633616,301.98437 153.432887,302.57779 C151.027187,303.757532 148.994859,305.358915 147.231244,307.264106 C145.471873,309.176395 143.995359,311.405269 142.885144,314.050106 C142.32933,315.370395 141.881001,316.812775 141.53733,318.372987 C141.45813,318.771913 141.383173,319.173678 141.315287,319.583961 C141.315287,319.583961 141.315287,319.585381 141.311044,319.576863 C139.093444,314.744322 136.682087,310.096338 134.341444,305.496622 C132.913016,302.704141 131.501559,299.903141 130.097173,297.112079 C130.095759,297.10924 130.094344,297.10782 130.09293,297.1064 C131.436501,297.086525 132.618844,296.884933 133.750273,296.627973 C135.16173,296.274476 136.469944,295.801728 137.669259,295.208308 C140.07213,294.024307 142.105873,292.424344 143.861001,290.509216 C145.60623,288.584149 147.085573,286.356695 148.191544,283.707599 C148.747359,282.38731 149.195687,280.94635 149.540773,279.386138 C149.86323,277.801791 150.114973,276.136524 150.049916,274.11492 C148.22973,274.008446 146.72493,274.258307 145.292259,274.587669 C143.880801,274.942585 142.574001,275.415334 141.373273,276.007334 C138.968987,277.189916 136.935244,278.789878 135.170216,280.69365 C133.413673,282.607358 131.935744,284.834813 130.826944,287.481069 C130.269716,288.801358 129.821387,290.242318 129.47913,291.80395 C129.276887,292.804814 129.114244,293.849688 129.030801,294.984001 C129.026559,294.975483 129.02373,294.966965 129.019487,294.959866 C126.47943,289.887402 123.99453,284.802161 121.536501,279.688527 C119.911487,276.305464 118.309101,272.912464 116.75763,269.49249 C116.754801,269.488231 116.753387,269.483972 116.751973,269.479713 C118.437801,269.549277 119.863401,269.32355 121.216873,269.015483 C122.629744,268.663406 123.937959,268.190657 125.137273,267.595817 C127.540144,266.413236 129.572473,264.811854 131.326187,262.896725 C133.074244,260.971659 134.553587,258.744204 135.658144,256.096528 C136.215373,254.77482 136.663701,253.33244 137.007373,251.773647 C137.331244,250.187881 137.581573,248.524033 137.516516,246.50243 C135.69633,246.395955 134.192944,246.645816 132.758859,246.975179 C131.347401,247.330095 130.040601,247.802843 128.841287,248.394844 C126.435587,249.576005 124.401844,251.177388 122.63823,253.081159 C120.881687,254.994868 119.403759,257.222323 118.294959,259.867159 C117.73773,261.188868 117.289401,262.629828 116.947144,264.19146 C116.662873,265.599768 116.449316,267.084738 116.449316,268.81531 C116.447901,268.811051 116.446487,268.808212 116.443659,268.803953 C114.098773,263.718711 111.845816,258.588041 109.667816,253.431816 C108.840459,251.496813 108.048459,249.558969 107.262116,247.602671 C107.259287,247.598412 107.257873,247.594153 107.256459,247.589894 C108.749944,247.60551 110.046844,247.398239 111.278687,247.118565 C112.691559,246.765068 113.998359,246.29232 115.197673,245.698899 C117.59913,244.514899 119.634287,242.914936 121.388001,240.998388 C123.134644,239.074741 124.612573,236.847286 125.719959,234.198191 C126.275773,232.877902 126.725516,231.435522 127.069187,229.87673 C127.39023,228.290963 127.643387,226.625696 127.57833,224.605512 C125.758144,224.499037 124.253344,224.748898 122.820673,225.076841 C121.409216,225.431757 120.102416,225.904506 118.901687,226.497926 C116.497401,227.679088 114.465073,229.27905 112.700044,231.184241 C110.942087,233.09795 109.462744,235.325405 108.355359,237.970241 C107.799544,239.29053 107.349801,240.73291 107.007544,242.293122 C106.786916,243.394783 106.605887,244.540453 106.535173,245.809633 C106.532344,245.805374 106.529516,245.798276 106.526687,245.792597 C106.337173,245.31417 106.15473,244.832904 105.958144,244.343119 C105.389601,242.923454 104.823887,241.486752 104.266659,240.061409 L101.747816,233.298123 C100.890759,231.046534 100.160987,228.745256 99.3689871,226.476631 L98.1923014,223.052398 L97.71003,221.51774 L97.7072014,221.509222 C99.33363,221.892532 100.762059,221.957836 102.132501,221.930863 C103.593459,221.869817 104.970973,221.671064 106.259387,221.333184 C108.840459,220.661682 111.121701,219.510333 113.176659,217.99697 C115.225959,216.473669 117.057459,214.60255 118.586301,212.247326 C119.352844,211.071843 120.033116,209.758652 120.62853,208.312013 C121.204144,206.832722 121.724601,205.263992 121.989073,203.283559 C120.195759,202.815069 118.659844,202.758283 117.180501,202.790935 C115.719544,202.85482 114.344859,203.053573 113.05503,203.391453 C110.469716,204.058696 108.189887,205.210045 106.126444,206.710631 C104.068659,208.219735 102.238573,210.092274 100.706901,212.444659 C99.9403586,213.618722 99.2600871,214.931913 98.6660871,216.381391 C98.1682586,217.664768 97.7241729,219.033326 97.44273,220.663102 L97.4356586,220.637548 L97.1174443,219.605451 Z" id="Fill-5" fill="#82DC00"></path>
                    <polygon id="Fill-7" fill="#FE7F50" points="143.882781 4.57683736 105.030939 18.0721759 105.81021 10.3151246"></polygon>
                    <polygon id="Fill-9" fill="#FEC600" points="143.882781 4.57683736 99.52371 1.15686361 112.09671 19.4733855"></polygon>
                    <polygon id="Fill-11" fill="#F39100" points="143.882781 4.57683736 107.293796 12.4772749 105.030939 18.0721759 104.039524 7.73701236"></polygon>
                    <path d="M99.9874543,19.0500413 C100.182626,18.9648614 100.298597,18.7533313 100.256169,18.5347028 C100.208083,18.2805827 99.9634114,18.1144819 99.7130829,18.1627505 C98.9536114,18.3103957 98.1927257,18.4452639 97.43184,18.5701945 C97.1786829,18.6127844 97.0075543,18.8512882 97.0485686,19.106828 C97.0895829,19.360948 97.3285971,19.5341472 97.5831686,19.4929769 C98.35254,19.365207 99.1219114,19.2289192 99.88704,19.081274 C99.9223971,19.0755953 99.95634,19.064238 99.9874543,19.0500413" id="Fill-13" fill="#FFFFFF"></path>
                    <path d="M57.8034129,5.64911058 C57.5955129,5.49720639 57.5488414,5.20475533 57.7029986,4.99606453 C58.6053129,3.75527704 59.8314986,2.65929542 61.24437,1.82595188 C61.4649986,1.69676233 61.7506843,1.77058493 61.8807986,1.99205272 C62.0109129,2.21494017 61.93737,2.50171257 61.7153271,2.63232178 C60.4113557,3.40178038 59.2827557,4.40974275 58.4539843,5.54831434 C58.40307,5.61645827 58.3380129,5.66756623 58.2658843,5.70021853 C58.1187986,5.76410347 57.9420129,5.75132648 57.8034129,5.64911058 M70.2363986,1.45399956 C68.9112129,1.15303052 67.5775414,1.05081461 66.2693271,1.15161085 C66.1264843,1.16154851 65.9822271,1.17716483 65.8393843,1.19420081 C65.5833986,1.22543345 65.3514557,1.04371629 65.3189271,0.788176528 C65.2892271,0.532636771 65.4702557,0.296972329 65.7262414,0.265739692 C65.8832271,0.247284042 66.0402129,0.231667724 66.2000271,0.218890736 C67.5987557,0.112415837 69.0271843,0.220310401 70.4428843,0.542574429 C70.6917986,0.599361041 70.8516129,0.850641802 70.7936271,1.10192256 C70.75827,1.25240709 70.6564414,1.36881964 70.5263271,1.42702592 C70.4386414,1.46535689 70.3368129,1.47813387 70.2363986,1.45399956 M57.42297,14.1088962 C57.1118271,13.6702196 56.8445271,13.2017301 56.6337986,12.7190439 C56.52207,12.4649238 56.4216557,12.200866 56.3382129,11.9268706 C56.0907129,11.136117 55.9846414,10.3183898 56.0214129,9.49782325 C56.0341414,9.23944416 56.2505271,9.04069102 56.5093414,9.05204834 C56.7667414,9.06482533 56.9633271,9.28345379 56.9520129,9.54041321 C56.9194843,10.2530852 57.0099986,10.9614982 57.2263843,11.6471965 C57.3013414,11.8885396 57.3876129,12.1185254 57.4851986,12.3428325 C57.6718843,12.7673125 57.9052414,13.1790154 58.1824414,13.5651644 C58.3309414,13.7752749 58.2828557,14.0663062 58.0721271,14.2167908 C58.04667,14.2366661 58.0183843,14.2522824 57.9900986,14.2650594 C57.7920986,14.351659 57.5544986,14.292033 57.42297,14.1088962 M77.7787843,5.89755201 C76.8015129,4.79873105 75.6474557,3.85465361 74.3505557,3.09229334 C74.1285129,2.96168413 74.0535557,2.67491174 74.18367,2.45344395 C74.3137843,2.22913683 74.6008843,2.15531423 74.8200986,2.28592344 C76.2018557,3.097972 77.43087,4.10309505 78.4731986,5.27431893 C78.6443271,5.46739342 78.62877,5.7626838 78.4364271,5.93588297 C78.3996557,5.96853527 78.3572271,5.99550891 78.3133843,6.01396456 C78.13377,6.09346582 77.9173843,6.05229553 77.7787843,5.89755201 M65.4773271,18.7980507 C63.7971557,18.3664725 62.3178129,17.8156423 61.0831414,17.1625963 C60.8554414,17.0419248 60.76917,16.7594114 60.8893843,16.5308452 C61.0095986,16.3022791 61.2910414,16.2142599 61.5173271,16.3349314 C62.6883557,16.9553252 64.0983986,17.4791817 65.70927,17.8923043 C65.9581843,17.9561892 66.1080986,18.211729 66.0444557,18.4615901 C66.0076843,18.6049763 65.9058557,18.7171298 65.7799843,18.7739164 C65.6880557,18.8136671 65.5833986,18.8250244 65.4773271,18.7980507 M81.6242271,14.3985079 C81.3668271,14.4169636 81.1447843,14.2238891 81.1249843,13.96551 C81.0160843,12.4549861 80.6794843,11.0012488 80.1222557,9.64404878 C80.0260843,9.40554501 80.1123557,9.14006759 80.3768271,9.03359269 C80.6144271,8.93563579 80.88597,9.05062868 80.98497,9.28913245 C81.57897,10.7371911 81.9367843,12.2888853 82.05417,13.8987857 C82.0697271,14.1003782 81.9523414,14.2820954 81.77697,14.360177 C81.7302986,14.3800523 81.6793843,14.3942489 81.6242271,14.3985079 M74.6037129,20.2375914 C73.0791129,20.0885265 71.54037,19.8968717 70.0284986,19.6683056 C69.7739271,19.628555 69.5985557,19.3914709 69.6367414,19.1359311 C69.6763414,18.881811 69.9125271,18.7057725 70.1670986,18.7426838 C71.6634129,18.9698303 73.1865986,19.1600654 74.6928129,19.3077106 C74.9502129,19.3332646 75.1368986,19.5618307 75.1114414,19.8187901 C75.0958843,19.9934089 74.9841557,20.1353755 74.8356557,20.2006801 C74.7649414,20.2319127 74.6871557,20.2461094 74.6037129,20.2375914 M79.2340843,23.1351283 C79.0162843,22.9988404 78.9498129,22.7106484 79.0855843,22.4906002 C79.4589557,21.8915015 79.7828271,21.2611701 80.0571986,20.603865 C79.7715129,20.5925077 79.4872414,20.5811504 79.20297,20.5683734 C78.9441557,20.5555964 78.7461557,20.3383876 78.75747,20.0800085 C78.7687843,19.8216294 78.9879986,19.6214566 79.2439843,19.6342336 C79.6314986,19.6526893 80.0190129,19.6668859 80.4065271,19.6796629 C80.5479557,19.2608616 80.6709986,18.8321227 80.7728271,18.3962855 C80.8322271,18.143585 81.08397,17.9874219 81.3342986,18.0484675 C81.5832129,18.1080934 81.7387843,18.3593742 81.6793843,18.6106549 C81.5916986,18.9826072 81.4912843,19.3460416 81.3781414,19.7066366 C82.1885271,19.7236725 82.9989129,19.7293512 83.8050557,19.7250922 C84.0610414,19.7222529 84.27177,19.9309437 84.2745986,20.1893228 C84.2760129,20.4462822 84.0681129,20.6563927 83.8121271,20.659232 C82.89567,20.6649106 81.9721414,20.6563927 81.0500271,20.633678 C80.7289843,21.4570839 80.3372271,22.2435785 79.8747557,22.9860634 C79.8238414,23.068404 79.7517129,23.1294496 79.66827,23.1663609 C79.5324986,23.2259869 79.3698557,23.2203082 79.2340843,23.1351283 M46.7677414,39.1290778 C46.6362129,38.90761 46.7097557,38.6208376 46.9317986,38.4888087 C48.2626414,37.7023141 49.6330843,36.9640882 51.0049414,36.2968455 C51.2269843,36.1676559 51.5169129,36.2812291 51.6286414,36.5140542 C51.74037,36.7454597 51.6441986,37.0251338 51.4108414,37.1372873 C50.0616129,37.7945924 48.7137986,38.5200413 47.40417,39.2951786 C47.3900271,39.3051163 47.3716414,39.3122146 47.35467,39.3207326 C47.1425271,39.4144305 46.8879557,39.3363489 46.7677414,39.1290778 M59.8951414,33.8536014 C59.1922414,34.0708102 58.4949986,34.2908584 57.80907,34.5208441 C57.0609129,34.7721249 56.3169986,35.039022 55.5829843,35.322955 C55.3425557,35.4152333 55.0724271,35.2945617 54.9804986,35.0532186 C54.88857,34.8118755 55.0116129,34.5322015 55.2477986,34.4498609 C55.99737,34.1616688 56.7525986,33.8905127 57.5148986,33.6335533 C58.2078986,33.4021479 58.9122129,33.1792604 59.6221843,32.9592123 C59.86827,32.88397 60.1284986,33.0230972 60.2034557,33.270119 C60.2727557,33.4986851 60.1596129,33.7400282 59.94747,33.8351458 C59.9304986,33.8408245 59.9121129,33.8479228 59.8951414,33.8536014 M93.01347,20.1211788 C91.4973557,20.290119 89.9515414,20.4193085 88.4184557,20.5101671 C88.16247,20.5257834 87.9432557,20.32845 87.9276986,20.0700709 C87.9121414,19.8131115 88.1073129,19.5916437 88.3647129,19.5760273 C89.8822414,19.4880081 91.4110843,19.3588185 92.9116414,19.1927177 C93.1662129,19.1643244 93.3967414,19.3488809 93.4250271,19.6058403 C93.4476557,19.8131115 93.33027,20.0047663 93.1492414,20.0842675 C93.1082271,20.1027232 93.0615557,20.1155002 93.01347,20.1211788 M72.2871129,28.9983461 C72.1654843,28.7711996 72.25317,28.4872665 72.4794557,28.366595 C73.9092986,27.602815 75.1213414,26.7808288 76.1862986,25.855207 C76.3828843,25.6834275 76.6756414,25.7061422 76.8425271,25.902056 C77.0108271,26.0979698 76.9896129,26.3932602 76.7958557,26.5607807 C75.67857,27.5346711 74.4085414,28.3935686 72.9178843,29.1914205 C72.90657,29.1970992 72.89667,29.2027779 72.8853557,29.2070369 C72.6647271,29.3049938 72.40167,29.2169745 72.2871129,28.9983461 M68.6679557,31.0738968 C67.0980986,31.6602185 65.5027843,32.1613604 64.2879129,32.531893 C64.0418271,32.6071353 63.7830129,32.4680081 63.7080557,32.2209863 C63.6330986,31.9725449 63.7674557,31.7084871 64.0177843,31.6375039 C65.2185129,31.2698106 66.7968557,30.7743474 68.3440843,30.1979633 C68.5845129,30.1085243 68.8518129,30.2320352 68.9423271,30.4733783 C69.0285986,30.7062034 68.91687,30.9660022 68.6934129,31.0639591 C68.6849271,31.0682181 68.6750271,31.0710574 68.6679557,31.0738968 M39.3102129,44.476957 C39.14757,44.2767842 39.1744414,43.9829135 39.3738557,43.8182323 C40.5618557,42.8329846 41.7979414,41.8860678 43.0467557,41.0044556 C43.2588986,40.8539711 43.5488271,40.9064987 43.6959129,41.1180289 C43.8444129,41.329559 43.7934986,41.6220101 43.58277,41.7696553 C42.3523414,42.6370708 41.1360557,43.5697909 39.9664414,44.5394223 C39.9310843,44.5678156 39.8957271,44.5891106 39.8575414,44.6061466 C39.6708557,44.6884871 39.4459843,44.6416382 39.3102129,44.476957 M32.7535843,50.9037819 C32.5626557,50.7320024 32.5470986,50.436712 32.7182271,50.2450572 C33.7449986,49.092289 34.8240986,47.9693337 35.9229986,46.9060044 C36.10827,46.7285462 36.4038557,46.7328052 36.5820557,46.9187814 C36.7602557,47.1047575 36.7545986,47.4000479 36.5693271,47.5789257 C35.4859843,48.6252191 34.4238557,49.732558 33.4112271,50.8682903 C33.36597,50.9193982 33.3108129,50.9577292 33.2528271,50.9847028 C33.08877,51.0556861 32.8950129,51.0301321 32.7535843,50.9037819 M27.2265557,58.2434516 C27.0115843,58.1014851 26.9521843,57.8118733 27.0921986,57.5960842 C27.9351129,56.3084478 28.8360129,55.0364276 29.7694414,53.8155155 C29.9264271,53.609664 30.21777,53.5727527 30.4228414,53.7303356 C30.6264986,53.8879184 30.6646843,54.1803695 30.5076986,54.3862209 C29.5884129,55.5872578 28.7002414,56.8408223 27.87147,58.1100031 C27.8205557,58.1880847 27.7498414,58.2448713 27.6692271,58.2803629 C27.5306271,58.3428282 27.3637414,58.3343102 27.2265557,58.2434516 M22.8507557,66.3284456 C22.6173986,66.220551 22.51557,65.9437163 22.6216414,65.7094715 C23.25807,64.3139405 23.9581414,62.9212488 24.7048843,61.5683078 C24.8307557,61.3411613 25.1121986,61.2602404 25.33707,61.385171 C25.5619414,61.5101015 25.64397,61.7940346 25.5195129,62.021181 C24.7840843,63.3528271 24.0953271,64.7242238 23.4687986,66.0984598 C23.4192986,66.2063544 23.3344414,66.2858556 23.2326129,66.3312849 C23.1152271,66.3823929 22.9766271,66.3866519 22.8507557,66.3284456 M19.7647843,74.988404 C19.5172843,74.9188404 19.3730271,74.661881 19.4423271,74.4134396 C19.8538843,72.9327286 20.3319129,71.4463391 20.8608557,69.9982804 C20.9499557,69.7555177 21.2172557,69.6305871 21.4590986,69.720026 C21.7009414,69.8094649 21.8239843,70.0777817 21.7348843,70.3205445 C21.2144271,71.7458884 20.7448843,73.2067241 20.3389843,74.6647203 C20.2993843,74.8052672 20.2003843,74.9131618 20.0773414,74.967109 C19.9825843,75.0082793 19.8736843,75.0196367 19.7647843,74.988404 M18.1143129,84.0345114 C17.8583271,84.0075378 17.6730557,83.777552 17.7013414,83.5205926 C17.86257,81.9930327 18.0916843,80.4484368 18.3830271,78.9308146 C18.4311129,78.6752749 18.6757843,78.5120133 18.9289414,78.5588623 C19.17927,78.6085506 19.3461557,78.8541527 19.2966557,79.1068531 C19.01097,80.5989214 18.7846843,82.1179633 18.6262843,83.6185495 C18.6064843,83.7917487 18.4975843,83.9322955 18.3504986,83.9976001 C18.27837,84.0288328 18.1963414,84.0430294 18.1143129,84.0345114 M18.0096557,93.232523 C17.75367,93.249559 17.5302129,93.0536452 17.51607,92.7966858 C17.4142414,91.2492506 17.3802986,89.6876187 17.4085843,88.1543802 C17.4142414,87.8974208 17.6263843,87.6915693 17.8837843,87.6972479 C18.1411843,87.7015069 18.3462557,87.9144567 18.3405986,88.1728358 C18.3108986,89.6791007 18.3462557,91.2137589 18.4438414,92.7356402 C18.4579843,92.9372326 18.3420129,93.1175301 18.1680557,93.1941921 C18.1171414,93.215487 18.0648129,93.228264 18.0096557,93.232523 M19.4196986,102.319801 C19.1707843,102.378007 18.9204557,102.221844 18.86247,101.970563 C18.5173843,100.464298 18.22887,98.9310596 18.0039986,97.4105981 C17.9658129,97.1550583 18.1440129,96.9193939 18.39717,96.8796432 C18.6503271,96.8427319 18.8865129,97.0187704 18.9261129,97.2743102 C19.1453271,98.7692178 19.4295986,100.278322 19.7690271,101.760453 C19.8213557,101.98192 19.7053843,102.204808 19.5045557,102.292827 C19.4776843,102.304184 19.4508129,102.312702 19.4196986,102.319801 M22.2298843,111.077716 C21.99087,111.172834 21.7193271,111.056421 21.62457,110.816498 C21.0546129,109.385475 20.5313271,107.914702 20.0730986,106.446768 C19.9967271,106.201166 20.1240129,105.945626 20.3785843,105.860446 C20.62467,105.783784 20.8848986,105.921492 20.96127,106.167094 C21.4138414,107.612313 21.9272271,109.060372 22.4886986,110.470099 C22.5820414,110.704344 22.4731414,110.969822 22.2440271,111.070618 C22.2397843,111.073457 22.2341271,111.074877 22.2298843,111.077716 M25.68357,119.142835 C24.9071271,117.812608 24.1731129,116.438372 23.4984986,115.055618 C23.3853557,114.824213 23.4801129,114.544539 23.71347,114.430966 C23.9355129,114.307455 24.2211986,114.41251 24.3357557,114.643915 C24.9990557,116.006794 25.72317,117.359735 26.48547,118.670086 C26.6155843,118.892974 26.5420414,119.179746 26.3199986,119.310355 C26.3044414,119.318873 26.2888843,119.327391 26.2719129,119.33449 C26.0583557,119.428187 25.8037843,119.348686 25.68357,119.142835 M30.93057,126.770696 C29.9688557,125.576758 29.0382557,124.326033 28.1642271,123.055432 C28.0185557,122.842483 28.0722986,122.551451 28.2830271,122.405226 C28.49517,122.26042 28.7836843,122.311528 28.93077,122.524478 C29.79207,123.776622 30.7085271,125.007472 31.6546843,126.184375 C31.8159129,126.384548 31.7862129,126.678418 31.5853843,126.84168 C31.5514414,126.868653 31.5160843,126.888529 31.4793129,126.905565 C31.2926271,126.987905 31.0649271,126.939637 30.93057,126.770696 M37.2623271,133.519785 C36.1323129,132.489108 35.0235129,131.394546 33.9670414,130.265913 C33.7902557,130.078517 33.7987414,129.783226 33.9854271,129.605768 C34.1721129,129.42831 34.4676986,129.436828 34.6444843,129.627063 C35.6839843,130.735822 36.7772271,131.813348 37.8888557,132.826989 C38.07837,133.001608 38.0925129,133.296898 37.9185557,133.487133 C37.8747129,133.538241 37.82097,133.575152 37.7629843,133.600706 C37.6003414,133.673109 37.4023414,133.647555 37.2623271,133.519785 M44.57277,139.189929 C43.2900129,138.355165 42.0228129,137.450839 40.8022843,136.502502 C40.5986271,136.344919 40.5618557,136.051049 40.7188414,135.846617 C40.8758271,135.643605 41.1685843,135.606693 41.3722414,135.762857 C42.5715557,136.695577 43.8189557,137.584287 45.0790843,138.407693 C45.2940557,138.54824 45.3562843,138.837852 45.21627,139.053641 C45.1639414,139.133142 45.0932271,139.191348 45.0126129,139.22684 C44.8740129,139.287886 44.7085414,139.279368 44.57277,139.189929" id="Fill-15" fill="#FFFFFF"></path>
                    <path d="M51.1131343,142.668393 C51.21072,142.625803 51.2955771,142.547721 51.3450771,142.442666 C51.4568057,142.209841 51.35922,141.930167 51.1272771,141.819433 C50.4328629,141.485811 49.7426914,141.135154 49.0652486,140.77172 C48.8389629,140.649629 48.5561057,140.733389 48.4344771,140.963375 C48.3142629,141.190521 48.39912,141.474454 48.6254057,141.595126 C49.3155771,141.965658 50.0170629,142.321994 50.72562,142.662714 C50.8514914,142.72376 50.99292,142.72234 51.1131343,142.668393" id="Fill-17" fill="#82B4F3"></path>
                    <path d="M249.578576,102.759045 L241.138119,118.850952 L258.05439,114.417337 C258.622933,114.268272 259.207033,114.19303 259.793961,114.19303 L300.697933,114.19303 C304.500947,114.19303 307.58409,111.098159 307.58409,107.280679 L307.58409,79.4609176 C307.58409,75.6334999 304.482561,72.5329509 300.669647,72.5499869 L257.69799,72.761517 C253.968519,72.7771333 250.930633,75.7697878 250.844361,79.5120256 L250.370576,99.7010861 C250.345119,100.767255 250.07499,101.813548 249.578576,102.759045" id="Fill-19" fill="#6727E5"></path>
                    <mask id="mask-2" fill="white">
                        <use xlink:href="#path-1"></use>
                    </mask>
                    <g id="Clip-22"></g>
                    <polygon id="Fill-21" fill="#FFFFFF" mask="url(#mask-2)" points="265.372329 88.6724161 296.8713 88.6724161 296.8713 86.5642131 265.372329 86.5642131"></polygon>
                    <polygon id="Fill-23" fill="#FFFFFF" mask="url(#mask-2)" points="265.372329 94.997025 296.8713 94.997025 296.8713 92.888822 265.372329 92.888822"></polygon>
                    <polygon id="Fill-24" fill="#FFFFFF" mask="url(#mask-2)" points="265.372329 101.320214 296.8713 101.320214 296.8713 99.2120114 265.372329 99.2120114"></polygon>
                    <polygon id="Fill-25" fill="#FFFFFF" mask="url(#mask-2)" points="265.372329 107.644823 282.8727 107.644823 282.8727 105.53662 265.372329 105.53662"></polygon>
                    <path d="M305.523051,51.6232683 L300.454251,61.2869301 L310.613066,58.623638 C310.952494,58.5341991 311.304651,58.4887698 311.656809,58.4887698 L336.218709,58.4887698 C338.501366,58.4887698 340.352666,56.6304279 340.352666,54.339088 L340.352666,37.6338863 C340.352666,35.3340284 338.491466,33.4742669 336.200323,33.4827849 L310.398094,33.6105547 C308.15928,33.6204924 306.334851,35.416369 306.281109,37.6636992 L305.998251,49.787641 C305.982694,50.4279101 305.820051,51.0568218 305.523051,51.6232683" id="Fill-26" fill="#6727E5" mask="url(#mask-2)"></path>
                    <polygon id="Fill-27" fill="#FFFFFF" mask="url(#mask-2)" points="315.005271 43.1650443 333.919929 43.1650443 333.919929 41.8987028 315.005271 41.8987028"></polygon>
                    <polygon id="Fill-28" fill="#FFFFFF" mask="url(#mask-2)" points="315.005271 46.962649 333.919929 46.962649 333.919929 45.6963076 315.005271 45.6963076"></polygon>
                    <polygon id="Fill-29" fill="#FFFFFF" mask="url(#mask-2)" points="315.005271 50.7602537 333.919929 50.7602537 333.919929 49.4939123 315.005271 49.4939123"></polygon>
                    <polygon id="Fill-30" fill="#FFFFFF" mask="url(#mask-2)" points="315.005271 54.5564388 325.514829 54.5564388 325.514829 53.2900973 315.005271 53.2900973"></polygon>
                    <path d="M328.868383,90.9531084 L322.861911,102.404129 L334.900311,99.2482128 C335.303383,99.1431576 335.719183,99.0892103 336.137811,99.0892103 L365.243811,99.0892103 C367.950754,99.0892103 370.144311,96.8873094 370.144311,94.1714897 L370.144311,74.3742568 C370.144311,71.6499191 367.936611,69.4451788 365.222597,69.4565361 L334.64574,69.6070207 C331.99254,69.618378 329.831511,71.747876 329.767869,74.4111681 L329.431269,88.7767615 C329.414297,89.5362824 329.22054,90.2816067 328.868383,90.9531084" id="Fill-31" fill="#6727E5" mask="url(#mask-2)"></path>
                    <polygon id="Fill-32" fill="#FFFFFF" mask="url(#mask-2)" points="340.106014 80.9295614 362.521029 80.9295614 362.521029 79.4289752 340.106014 79.4289752"></polygon>
                    <polygon id="Fill-33" fill="#FFFFFF" mask="url(#mask-2)" points="340.106014 85.4299005 362.521029 85.4299005 362.521029 83.9293142 340.106014 83.9293142"></polygon>
                    <polygon id="Fill-34" fill="#FFFFFF" mask="url(#mask-2)" points="340.106014 89.9288199 362.521029 89.9288199 362.521029 88.4282336 340.106014 88.4282336"></polygon>
                    <polygon id="Fill-35" fill="#FFFFFF" mask="url(#mask-2)" points="340.106014 94.4291589 352.5588 94.4291589 352.5588 92.9285727 340.106014 92.9285727"></polygon>
                    <path d="M121.006993,118.653902 C120.288536,118.361451 119.544621,118.171216 118.793636,118.086036 C117.72585,117.959686 116.662307,118.034928 115.631293,118.307504 C113.763021,118.800128 112.099821,119.927342 110.950007,121.481875 C110.522893,122.063938 110.169321,122.701368 109.899193,123.37145 C109.762007,123.71075 109.65735,124.023076 109.57815,124.329724 C109.067593,126.195164 109.207607,128.201151 109.971321,129.98709 C110.404093,130.979436 111.000921,131.866727 111.743421,132.620569 C112.559464,133.443975 113.522593,134.085664 114.604521,134.52576 C115.321564,134.818211 116.066893,135.009866 116.817879,135.095046 C117.888493,135.219977 118.949207,135.144734 119.971736,134.869319 C121.837179,134.378115 123.496136,133.25232 124.64595,131.699207 C125.074479,131.124242 125.432293,130.485393 125.708079,129.799694 C125.845264,129.460394 125.949921,129.148068 126.029121,128.84284 C126.539679,126.973141 126.399664,124.972832 125.637364,123.20109 C125.217321,122.213003 124.620493,121.325712 123.866679,120.560513 C123.05205,119.735687 122.090336,119.093998 121.006993,118.653902 L121.006993,118.653902 Z M114.167507,135.607545 C112.938493,135.109243 111.84525,134.380954 110.916064,133.442556 C110.07315,132.585078 109.395707,131.578535 108.903536,130.451321 C108.035164,128.41978 107.87535,126.139797 108.453793,124.028755 C108.542893,123.680937 108.663107,123.320342 108.820093,122.934193 C109.126993,122.173252 109.52865,121.450643 110.01375,120.787659 C111.321964,119.018756 113.21145,117.736798 115.334293,117.17745 C116.506736,116.867963 117.71595,116.782783 118.926579,116.92475 C119.780807,117.022707 120.62655,117.239915 121.444007,117.572117 C122.673021,118.071839 123.766264,118.800128 124.692621,119.738526 C125.551093,120.608781 126.227121,121.616744 126.706564,122.738279 C127.573521,124.752784 127.731921,127.028508 127.153479,129.143809 C127.062964,129.490207 126.94275,129.850802 126.787179,130.236951 C126.473207,131.016348 126.065893,131.744636 125.577964,132.397682 C124.273993,134.160906 122.387336,135.441444 120.27015,135.999373 C119.106193,136.311699 117.901221,136.398299 116.683521,136.254913 C115.830707,136.158375 114.982136,135.939747 114.167507,135.607545 L114.167507,135.607545 Z M102.481264,149.014864 L112.38975,153.042455 L113.97375,149.11708 C114.075579,148.868639 114.331564,148.719574 114.59745,148.759325 C118.459864,149.321512 122.425521,148.850183 126.06165,147.395026 C126.302079,147.298489 126.57645,147.373731 126.736264,147.579583 L129.489879,151.120228 L137.920436,144.518784 L135.323807,141.176892 C135.158336,140.965362 135.15975,140.667232 135.325221,140.455702 C136.620707,138.814569 137.682836,136.976103 138.481907,134.99141 C139.156521,133.323304 139.627479,131.579955 139.886293,129.812471 C139.923064,129.555512 140.125307,129.35392 140.379879,129.318428 L144.813664,128.698034 L143.334321,118.06758 L139.152279,118.653902 C138.889221,118.690813 138.631821,118.540329 138.532821,118.291887 C137.067621,114.627731 134.680307,111.416448 131.631107,109.004437 C131.426036,108.844015 131.352493,108.56718 131.451493,108.327256 L133.128836,104.164798 L123.214693,100.135788 L121.62645,104.066841 C121.52745,104.315282 121.27005,104.464347 121.004164,104.424597 C117.147407,103.85673 113.183164,104.32522 109.542793,105.781797 C109.302364,105.878334 109.026579,105.803092 108.868179,105.59866 L106.117393,102.052336 L97.6868357,108.65378 L100.283464,111.994252 C100.448936,112.205782 100.447521,112.503912 100.28205,112.715442 C98.9865643,114.357995 97.9244357,116.196461 97.12395,118.179734 C96.4493357,119.853519 95.9769643,121.596868 95.7195643,123.364352 C95.6813786,123.622731 95.4791357,123.822903 95.2245643,123.859815 L90.79785,124.481628 L92.2771929,135.112082 L96.4578214,134.52718 C96.7237071,134.488849 96.9796929,134.639333 97.0772786,134.887775 C98.5354071,138.546252 100.922721,141.757535 103.980407,144.175225 C104.18265,144.335648 104.256193,144.612482 104.160021,144.853825 L102.481264,149.014864 Z M112.492993,154.344288 L101.505407,149.878021 C101.206993,149.757349 101.062736,149.41521 101.184364,149.11708 L102.918279,144.816914 C99.9808071,142.403483 97.6599643,139.281639 96.1707214,135.746672 L91.8613929,136.348611 C91.5431786,136.39404 91.2490071,136.171152 91.2051643,135.851728 L89.5645929,124.065666 C89.5193357,123.744822 89.7427929,123.450951 90.0595929,123.405522 L94.6348071,122.762413 C94.9176643,121.050297 95.39145,119.363735 96.0462643,117.741057 C96.8283643,115.798955 97.8508929,113.988882 99.0883929,112.354847 L96.4097357,108.910739 C96.3163929,108.788648 96.2739643,108.633904 96.2909357,108.48058 C96.3107357,108.327256 96.3899357,108.18671 96.5129786,108.091592 L105.859993,100.771798 C105.981621,100.67526 106.135779,100.63267 106.289936,100.652546 C106.442679,100.671001 106.581279,100.750503 106.676036,100.872594 L109.520164,104.53817 C113.094064,103.185229 116.947993,102.728096 120.719893,103.207943 L122.353393,99.1547989 C122.473607,98.8566691 122.813036,98.7118633 123.11145,98.8339545 L134.106107,103.303061 C134.404521,103.422313 134.547364,103.764452 134.425736,104.062582 L132.691821,108.362748 C135.622221,110.77192 137.944479,113.892345 139.437964,117.434409 L143.750121,116.831052 C144.066921,116.787042 144.362507,117.00851 144.40635,117.327935 L146.045507,129.115416 C146.068136,129.26874 146.027121,129.423483 145.933779,129.546994 C145.84185,129.670505 145.70325,129.752845 145.550507,129.77414 L140.969636,130.415829 C140.686779,132.126526 140.214407,133.810249 139.561007,135.430087 C138.777493,137.372189 137.756379,139.180843 136.518879,140.817717 L139.196121,144.260405 C139.290879,144.382497 139.333307,144.53724 139.313507,144.690564 C139.296536,144.843888 139.217336,144.984435 139.094293,145.079552 L129.747279,152.399347 C129.494121,152.5981 129.127821,152.55267 128.931236,152.29855 L126.085693,148.640073 C122.513207,149.990175 118.660693,150.450146 114.883136,149.975978 L113.25105,154.022024 C113.130836,154.321573 112.789993,154.46496 112.492993,154.344288 L112.492993,154.344288 Z" id="Fill-36" fill="#FFFFFF" mask="url(#mask-2)"></path>
                    <path d="M172.178254,86.7239254 C171.459797,86.4314744 170.715883,86.2412392 169.964897,86.1560593 C168.897111,86.0297091 167.833569,86.1049513 166.802554,86.3775271 C164.934283,86.8701509 163.271083,87.9973652 162.121269,89.5518987 C161.694154,90.1339615 161.340583,90.7713912 161.070454,91.4414733 C160.933269,91.7807733 160.828611,92.0930996 160.749411,92.3997473 C160.238854,94.2651876 160.378869,96.2711747 161.142583,98.0571136 C161.575354,99.04804 162.172183,99.9367505 162.914683,100.689173 C163.730726,101.513999 164.693854,102.155687 165.775783,102.595784 C166.492826,102.886815 167.238154,103.07989 167.98914,103.165069 C169.059754,103.29 170.120469,103.214758 171.142997,102.939343 C173.00844,102.448138 174.668811,101.322344 175.817211,99.76923 C176.24574,99.1942656 176.603554,98.5554162 176.87934,97.8697178 C177.016526,97.5304178 177.121183,97.2180914 177.200383,96.9114437 C177.71094,95.0431642 177.570926,93.0428557 176.808626,91.2711134 C176.388583,90.2830264 175.793169,89.3943159 175.03794,88.6291163 C174.223311,87.8057104 173.261597,87.1640217 172.178254,86.7239254 L172.178254,86.7239254 Z M165.338769,103.677569 C164.109754,103.179266 163.016511,102.450978 162.08874,101.512579 C161.244411,100.655101 160.566969,99.6485585 160.074797,98.5213442 C159.206426,96.4898031 159.048026,94.2098206 159.625054,92.0987783 C159.714154,91.7509603 159.834369,91.3903653 159.991354,91.0042163 C160.298254,90.2432757 160.699911,89.5206661 161.185011,88.8562627 C162.49464,87.0873597 164.382711,85.8068216 166.506969,85.2474735 C167.677997,84.9379864 168.887211,84.8528065 170.09784,84.9947731 C170.952069,85.09273 171.797811,85.3099388 172.615269,85.6407208 C173.844283,86.140443 174.937526,86.8701509 175.863883,87.80713 C176.722354,88.6788045 177.398383,89.6867669 177.877826,90.8083025 C178.744783,92.8228076 178.903183,95.0971115 178.32474,97.2124128 C178.234226,97.5602308 178.114011,97.9208258 177.95844,98.3069747 C177.644469,99.086371 177.237154,99.8132396 176.749226,100.467705 C175.445254,102.23093 173.560011,103.511468 171.441411,104.069396 C170.278869,104.381723 169.072483,104.466903 167.854783,104.324936 C167.001969,104.228399 166.154811,104.00977 165.338769,103.677569 L165.338769,103.677569 Z M153.652526,117.084888 L163.562426,121.112478 L165.145011,117.187104 C165.24684,116.938662 165.502826,116.789598 165.768711,116.827928 C169.631126,117.391536 173.596783,116.920207 177.232911,115.46505 C177.47334,115.368513 177.747711,115.442335 177.907526,115.648187 L180.66114,119.190252 L189.091697,112.587388 L186.495069,109.246916 C186.329597,109.035386 186.331011,108.737256 186.497897,108.525726 C187.791969,106.883173 188.854097,105.044706 189.653169,103.061434 C190.327783,101.391907 190.79874,99.6499781 191.057554,97.8824948 C191.094326,97.6255354 191.296569,97.4239429 191.55114,97.3884513 L195.984926,96.7680575 L194.505583,86.1376036 L190.32354,86.7239254 C190.060483,86.7608367 189.803083,86.6103522 189.704083,86.3619108 C188.238883,82.6977546 185.851569,79.4864716 182.802369,77.0744602 C182.598711,76.9140381 182.525169,76.6372033 182.622754,76.3958602 L184.300097,72.2348212 L174.385954,68.2043913 L172.799126,72.1368643 C172.698711,72.3853057 172.441311,72.5343706 172.175426,72.4946199 C168.318669,71.9267538 164.35584,72.3952434 160.714054,73.85182 C160.473626,73.9483572 160.19784,73.873115 160.03944,73.6686831 L157.288654,70.1223592 L148.858097,76.7223832 L151.45614,80.0642754 C151.620197,80.2758055 151.618783,80.5739353 151.453311,80.7840457 C150.157826,82.4265985 149.095697,84.2664847 148.295211,86.2497572 C147.620597,87.9221229 147.148226,89.6668916 146.890826,91.4343749 C146.854054,91.6913344 146.650397,91.8929268 146.395826,91.9298381 L141.969111,92.5516515 L143.448454,103.180686 L147.629083,102.597203 C147.894969,102.558872 148.150954,102.709357 148.249954,102.957798 C149.706669,106.616276 152.093983,109.827559 155.151669,112.245249 C155.353911,112.405671 155.427454,112.682506 155.331283,112.923849 L153.652526,117.084888 Z M163.664254,122.414311 L152.676669,117.948044 C152.378254,117.827373 152.233997,117.485234 152.355626,117.187104 L154.090954,112.886938 C151.152069,110.473507 148.831226,107.351662 147.341983,103.816696 L143.032654,104.418634 C142.71444,104.464063 142.420269,104.241176 142.376426,103.921751 L140.735854,92.1356896 C140.690597,91.8148452 140.914054,91.5195549 141.230854,91.4755452 L145.807483,90.8324368 C146.088926,89.1203205 146.562711,87.4337581 147.217526,85.8110806 C147.999626,83.8689785 149.022154,82.0589052 150.259654,80.4234507 L147.582411,76.9807623 C147.487654,76.8586711 147.445226,76.7039276 147.463611,76.5506037 C147.481997,76.3972799 147.562611,76.256733 147.68424,76.1616154 L157.031254,68.8404014 C157.152883,68.7452838 157.30704,68.7026939 157.461197,68.7211495 C157.61394,68.7410248 157.753954,68.8205261 157.848711,68.9426173 L160.691426,72.6081932 C164.265326,71.2552521 168.119254,70.7981199 171.891154,71.2765471 L173.524654,67.2248223 C173.644869,66.9266926 173.984297,66.7818867 174.282711,66.9025582 L185.277369,71.3730843 C185.575783,71.4923362 185.718626,71.8344756 185.596997,72.1326053 L183.864497,76.4313519 C186.793483,78.8405239 189.11574,81.9623679 190.609226,85.5044329 L194.921383,84.9010751 C195.238183,84.8570655 195.533769,85.0785333 195.577611,85.397958 L197.218183,97.1854391 C197.239397,97.338763 197.198383,97.4935065 197.106454,97.6170174 C197.013111,97.7405283 196.874511,97.8228689 196.721769,97.8441638 L192.140897,98.4844329 C191.85804,100.196549 191.385669,101.880272 190.732269,103.50011 C189.948754,105.442213 188.92764,107.250866 187.69014,108.886321 L190.367383,112.330429 C190.46214,112.45252 190.504569,112.607263 190.486183,112.760587 C190.467797,112.913911 190.388597,113.054458 190.265554,113.149576 L180.91854,120.46937 C180.665383,120.668123 180.299083,120.622694 180.102497,120.368574 L177.256954,116.710096 C173.684469,118.060198 169.831954,118.52017 166.054397,118.046001 L164.422311,122.092047 C164.302097,122.391597 163.961254,122.534983 163.664254,122.414311 L163.664254,122.414311 Z" id="Fill-37" fill="#FFFFFF" mask="url(#mask-2)"></path>
                    <path d="M116.858044,60.3471117 C116.139587,60.0546606 115.395673,59.8630058 114.644687,59.7778259 C113.576901,59.6528953 112.513359,59.7281376 111.48093,60.0007133 C109.614073,60.4933372 107.950873,61.6191318 106.801059,63.1736653 C106.373944,63.7557281 106.020373,64.3945775 105.750244,65.0646595 C105.613059,65.4039595 105.508401,65.7162859 105.429201,66.0215139 C104.918644,67.8883738 105.058659,69.8943609 105.820959,71.6788802 C106.255144,72.6712263 106.851973,73.5585171 107.594473,74.3123594 C108.409101,75.137185 109.373644,75.7788737 110.455573,76.2189699 C111.172616,76.5100013 111.917944,76.7016561 112.667516,76.786836 C113.739544,76.9117666 114.800259,76.837944 115.822787,76.5625289 C117.68823,76.0713247 119.347187,74.9455301 120.497001,73.3924163 C120.92553,72.8174518 121.283344,72.1786024 121.55913,71.4914844 C121.696316,71.1536041 121.800973,70.8412777 121.880173,70.53463 C122.39073,68.6663504 122.250716,66.666042 121.488416,64.89288 C121.068373,63.9062126 120.471544,63.0175021 119.71773,62.2523025 C118.903101,61.4288966 117.941387,60.7872079 116.858044,60.3471117 L116.858044,60.3471117 Z M110.017144,77.3007549 C108.789544,76.8010327 107.696301,76.0727444 106.767116,75.1357653 C105.924201,74.2782874 105.246759,73.2717447 104.754587,72.1445305 C103.886216,70.1115697 103.726401,67.8315872 104.304844,65.7205449 C104.393944,65.3741466 104.514159,65.0121319 104.671144,64.6259829 C104.978044,63.8650423 105.379701,63.1424327 105.864801,62.479449 C107.173016,60.710546 109.062501,59.4300079 111.185344,58.8706597 C112.357787,58.5611727 113.567001,58.4759928 114.776216,58.6179593 C115.631859,58.7144966 116.477601,58.9317053 117.295059,59.263907 C118.524073,59.7636292 119.617316,60.4933372 120.543673,61.4303163 C121.402144,62.3005711 122.078173,63.3099532 122.557616,64.4300691 C123.424573,66.4459939 123.582973,68.7202977 123.00453,70.835599 C122.914016,71.183417 122.793801,71.544012 122.63823,71.930161 C122.322844,72.7095573 121.916944,73.4364259 121.429016,74.0908916 C120.125044,75.8541159 118.238387,77.1332344 116.121201,77.6925825 C114.957244,78.0034892 113.752273,78.0900888 112.534573,77.9467026 C111.681759,77.8501654 110.833187,77.6329566 110.017144,77.3007549 L110.017144,77.3007549 Z M98.3323157,90.7066545 L108.240801,94.7356647 L109.824801,90.8102901 C109.925216,90.560429 110.182616,90.4127838 110.448501,90.4511147 C114.310916,91.0147219 118.276573,90.543393 121.912701,89.088236 C122.15313,88.9916988 122.427501,89.0655214 122.587316,89.2713729 L125.34093,92.8120182 L133.771487,86.2105744 L131.173444,82.8701019 C131.009387,82.6571521 131.010801,82.3604421 131.176273,82.148912 C132.471759,80.5063592 133.533887,78.6678926 134.332959,76.6846201 C135.007573,75.0150937 135.47853,73.2717447 135.737344,71.5042614 C135.774116,71.247302 135.976359,71.0471292 136.23093,71.0116375 L140.664716,70.3912438 L139.185373,59.7607899 L135.00333,60.345692 C134.740273,60.3826033 134.482873,60.2335384 134.383873,59.985097 C132.917259,56.3209408 130.531359,53.1082382 127.482159,50.6976465 C127.277087,50.5358047 127.203544,50.2603896 127.302544,50.0190465 L128.979887,45.8580074 L119.065744,41.8275776 L117.477501,45.7586309 C117.378501,46.008492 117.121101,46.1561372 116.855216,46.1178062 C112.998459,45.5499401 109.034216,46.0184296 105.393844,47.4750062 C105.153416,47.5701238 104.87763,47.4963012 104.71923,47.2918694 L101.968444,43.7441258 L93.5378871,50.3455695 L96.1345157,53.686042 C96.2999871,53.8989918 96.2985729,54.1957018 96.1331014,54.407232 C94.8376157,56.0497848 93.7754871,57.8882513 92.9750014,59.8729435 C92.3003871,61.5453092 91.8280157,63.2900779 91.5692014,65.0575612 C91.53243,65.3145206 91.3301871,65.5161131 91.0756157,65.5516047 L86.6489014,66.1734181 L88.1282443,76.803872 L92.3088729,76.2189699 C92.5733443,76.1820586 92.8307443,76.3311235 92.92833,76.5809846 C94.3864586,80.2394621 96.7737729,83.4507451 99.8314586,85.8684351 C100.033701,86.0288573 100.107244,86.305692 100.011073,86.5470351 L98.3323157,90.7066545 Z M108.34263,96.0374978 L97.3564586,91.5712307 C97.0580443,91.4491395 96.9137871,91.1084198 97.0340014,90.8102901 L98.76933,86.5101238 C95.8318586,84.0966928 93.5096014,80.9748487 92.0217729,77.4384624 L87.7124443,78.0418202 C87.39423,78.0872495 87.1000586,77.8629424 87.0562157,77.5435177 L85.4156443,65.7574562 C85.3703871,65.4380315 85.5938443,65.1427411 85.9106443,65.0987315 L90.4858586,64.4556231 C90.7687157,62.7435067 91.2425014,61.0569443 91.8973157,59.4328472 C92.6794157,57.4921647 93.7019443,55.6820914 94.9394443,54.046637 L92.2607871,50.6039486 C92.1674443,50.4818574 92.1250157,50.3271139 92.1419871,50.1723703 C92.1617871,50.0190465 92.2409871,49.8784996 92.36403,49.7848017 L101.711044,42.4635877 C101.832673,42.3684701 101.98683,42.3258801 102.140987,42.3443358 C102.29373,42.3642111 102.43233,42.4437123 102.527087,42.5658036 L105.371216,46.2313794 C108.945116,44.8784384 112.799044,44.4198865 116.56953,44.8997333 L118.204444,40.8480085 C118.324659,40.5498788 118.664087,40.405073 118.962501,40.5257445 L129.957159,44.9948509 C130.254159,45.1155225 130.397001,45.4562422 130.276787,45.7557915 L128.542873,50.0545381 C131.473273,52.4637102 133.79553,55.5855542 135.289016,59.1261995 L139.601173,58.5228417 C139.917973,58.4802518 140.213559,58.7017196 140.257401,59.0211443 L141.896559,70.8072057 C141.919187,70.9619493 141.878173,71.1166928 141.78483,71.2402037 C141.692901,71.3637145 141.554301,71.4446355 141.401559,71.4673501 L136.820687,72.1076192 C136.53783,73.8183159 136.065459,75.5034586 135.412059,77.1218771 C134.628544,79.0639792 133.60743,80.8740525 132.36993,82.5095069 L135.045759,85.9521953 C135.14193,86.0742866 135.184359,86.2290301 135.164559,86.3837736 C135.147587,86.5370975 135.068387,86.6762247 134.945344,86.7727619 L125.59833,94.0925563 C125.345173,94.2913094 124.978873,94.2444605 124.782287,93.99176 L121.936744,90.3318628 C118.364259,91.6833842 114.51033,92.1419361 110.734187,91.6677679 L109.102101,95.7152337 C108.981887,96.0133634 108.641044,96.1581693 108.34263,96.0374978 L108.34263,96.0374978 Z" id="Fill-38" fill="#FFFFFF" mask="url(#mask-2)"></path>
                </g>
                <g id="Group-64" transform="translate(52.000000, 111.000000)">
                    <g id="Group-42">
                        <mask id="mask-4" fill="white">
                            <use xlink:href="#path-3"></use>
                        </mask>
                        <g id="Clip-41"></g>
                        <path d="M97.9434726,275.852408 C97.9434726,275.852408 -40.8004843,280.898733 -46.5017479,303.602243 C-52.201596,326.302921 187.422738,391.122368 255.670882,365.337274 C323.917611,339.553595 342.221668,323.575216 342.221668,323.575216 C342.221668,323.575216 347.352522,297.526835 237.814094,283.656164 C128.277082,269.785493 97.9434726,275.852408 97.9434726,275.852408" id="Fill-40" fill="#999999" mask="url(#mask-4)"></path>
                    </g>
                    <g id="Group-45">
                        <mask id="mask-6" fill="white">
                            <use xlink:href="#path-5"></use>
                        </mask>
                        <g id="Clip-44"></g>
                        <path d="M290.521908,140.913669 C290.77385,138.899385 290.735634,136.84122 290.336489,134.746252 C288.84748,126.939665 282.483806,120.903892 275.545475,117.029616 C268.607145,113.156756 260.877602,110.906081 253.801977,107.288014 C250.048315,105.367155 246.143204,102.561596 245.506271,98.3928927 C244.927369,94.5936396 247.262792,91.046349 248.463058,87.3957254 C252.705036,74.5031782 241.684669,63.8598906 231.301236,58.122792 C223.693418,53.920116 205.342652,57.3555807 201.171445,49.6806366 C198.337798,44.4658645 203.92866,40.2249695 197.9613,34.976225 C195.068206,32.4325373 191.369744,30.7537317 189.054137,27.6735623 C187.212691,25.2232989 186.452617,22.1516226 185.202812,19.3503105 C183.953006,16.5504138 181.876603,13.768919 178.867445,13.1786475 C176.657993,12.7469142 174.384848,13.5905636 172.13718,13.4291944 C169.364396,13.2324373 166.959617,11.5578782 164.5053,10.2556007 C155.769402,5.62119147 144.773097,5.53342929 135.965012,10.0277022 C121.107474,17.6092221 113.386423,38.2007773 114.344655,54.0630835 C114.91648,63.4805315 121.987858,67.2387345 125.740105,74.1521294 C131.60414,84.9525396 121.329693,89.7950302 118.188903,99.1360402 C115.675138,106.615643 120.263891,114.941726 126.69409,119.515268 C133.124288,124.08881 141.049158,125.882272 148.608852,128.137194 C156.171377,130.3907 163.966029,133.479363 168.810971,139.707646 C178.124356,151.680106 173.202982,170.517833 182.449843,182.541252 C189.315987,191.468931 201.64136,193.674309 212.796191,195.227134 C226.409586,197.122514 241.674761,198.615886 252.579065,190.245922 C260.969604,183.803895 268.247632,173.675856 275.42375,165.840959 C281.633145,159.062038 289.327303,150.482577 290.521908,140.913669" id="Fill-43" fill="#545671" mask="url(#mask-6)"></path>
                    </g>
                    <g id="Group-48">
                        <mask id="mask-8" fill="white">
                            <use xlink:href="#path-7"></use>
                        </mask>
                        <g id="Clip-47"></g>
                        <path d="M199.410536,307.032611 C199.410536,307.032611 267.558186,284.750926 272.802273,267.628808 C278.043529,250.505275 267.948839,178.9154 237.33781,136.053484 C210.885249,99.0192599 159.062915,95.3728829 154.76149,94.7401459 L154.76149,94.7075889 C154.76149,94.7075889 154.690719,94.7189131 154.653919,94.7245752 C154.617118,94.7189131 154.547763,94.7075889 154.547763,94.7075889 L154.547763,94.7401459 C150.244922,95.3728829 117.874541,97.3404543 87.3356971,123.809245 C41.4184451,163.606562 31.2643079,250.505275 36.5069793,267.628808 C41.7482352,284.750926 109.897301,307.032611 109.897301,307.032611 L116.45064,290.649394 L68.2899666,252.004309 C68.2899666,252.004309 88.5203936,185.142268 95.2775516,200.8701 C102.033294,216.597932 115.139972,269.67848 115.139972,269.67848 L154.547763,269.67848 L154.76149,269.67848 L194.16928,269.67848 C194.16928,269.67848 207.274543,216.597932 214.030285,200.8701 C220.788859,185.142268 241.233012,252.004309 241.233012,252.004309 L196.173498,291.487381 L199.410536,307.032611 Z" id="Fill-46" fill="#FF4965" mask="url(#mask-8)"></path>
                    </g>
                    <g id="Group-51">
                        <mask id="mask-10" fill="white">
                            <use xlink:href="#path-9"></use>
                        </mask>
                        <g id="Clip-50"></g>
                        <path d="M169.659367,49.824878 C157.257562,48.7448369 139.222432,45.5032984 136.21469,36.8587237 C136.21469,36.8587237 117.610567,62.2333177 136.21469,79.8989951 C138.301002,81.8793062 140.303804,83.4915824 142.227344,84.7938599 L142.227344,94.5269687 C142.227344,94.5269687 151.246324,103.531085 161.016885,94.5269687 L161.016885,88.0637088 C165.858996,86.2079634 169.936787,82.3704913 173.41586,78.2782258 C181.681843,68.5536101 182.059757,50.9063345 169.659367,49.824878" id="Fill-49" fill="#F9C59F" mask="url(#mask-10)"></path>
                    </g>
                    <g id="Group-54">
                        <mask id="mask-12" fill="white">
                            <use xlink:href="#path-11"></use>
                        </mask>
                        <g id="Clip-53"></g>
                        <polygon id="Fill-52" fill="#F6F6F6" mask="url(#mask-12)" points="71.6603362 333.7913 147.69464 333.7913 223.728944 333.7913 253.400143 249.2197 147.69464 249.2197 41.9877223 249.2197"></polygon>
                    </g>
                    <g id="Group-63">
                        <mask id="mask-14" fill="white">
                            <use xlink:href="#path-13"></use>
                        </mask>
                        <g id="Clip-62"></g>
                        <path d="M164.933461,285.796287 C164.933461,291.537632 160.278184,296.193274 154.537289,296.193274 C148.796394,296.193274 144.141117,291.537632 144.141117,285.796287 C144.141117,280.053526 148.796394,275.3993 154.537289,275.3993 C160.278184,275.3993 164.933461,280.053526 164.933461,285.796287" id="Fill-61" fill="#D6E8FF" mask="url(#mask-14)"></path>
                    </g>
                </g>
                <g id="Group-67" transform="translate(171.000000, 151.000000)">
                    <mask id="mask-16" fill="white">
                        <use xlink:href="#path-15"></use>
                    </mask>
                    <g id="Clip-66"></g>
                    <path d="M4.2295,0.172619048 C4.17725,0.218190476 4.126375,0.172619048 4.07275,0.172619048 L4.07275,0.172619048 C1.978625,0.172619048 0.438625,5.78757143 0.438625,13.8288571 L0.438625,13.8288571 C0.438625,21.8687619 2.13675,28.3840952 4.2295,28.3840952 L4.2295,28.3840952 L10.3345,28.3840952 L10.3345,0.172619048 L4.2295,0.172619048 Z" id="Fill-65" fill="url(#linearGradient-17)" mask="url(#mask-16)"></path>
                </g>
                <g id="Group-70" transform="translate(227.000000, 151.000000)">
                    <mask id="mask-19" fill="white">
                        <use xlink:href="#path-18"></use>
                    </mask>
                    <g id="Clip-69"></g>
                    <path d="M6.952,0.319 L0.848375,0.319 L0.848375,28.5304762 L6.952,28.5304762 C9.046125,28.5304762 10.74425,22.0137619 10.74425,13.9738571 L10.74425,13.9738571 C10.74425,5.93533333 9.20425,0.319 7.110125,0.319 L7.110125,0.319 C7.057875,0.319 7.007,0.364571429 6.952,0.319" id="Fill-68" fill="url(#linearGradient-20)" mask="url(#mask-19)"></path>
                </g>
                <g id="Group-73" transform="translate(176.000000, 178.000000)">
                    <mask id="mask-22" fill="white">
                        <use xlink:href="#path-21"></use>
                    </mask>
                    <g id="Clip-72"></g>
                    <path d="M0.111724138,0.809692308 C0.111724138,0.809692308 6.84551724,11.02 9.08965517,14.4239231 L9.08965517,14.4239231 C10.4386207,16.4700769 12.4510345,17.6553846 14.5724138,17.6553846 L14.5724138,17.6553846 L27.1448276,17.6553846 L27.1448276,12.4552308 L15.2427586,12.4552308 C13.1227586,12.4552308 11.1117241,11.2699231 9.76275862,9.22376923 L9.76275862,9.22376923 C8.37655172,7.12061538 4.2137931,0.809692308 4.2137931,0.809692308 L4.2137931,0.809692308 L0.111724138,0.809692308 Z" id="Fill-71" fill="url(#linearGradient-23)" mask="url(#mask-22)"></path>
                </g>
                <g id="Group-76" transform="translate(201.000000, 189.000000)">
                    <mask id="mask-25" fill="white">
                        <use xlink:href="#path-24"></use>
                    </mask>
                    <g id="Clip-75"></g>
                    <path d="M0.4368,4.19174603 C0.4368,6.25904762 3.4342,7.9352381 7.1302,7.9352381 L7.1302,7.9352381 C10.8304,7.9352381 13.8264,6.25904762 13.8264,4.19174603 L13.8264,4.19174603 C13.8264,2.1231746 10.8304,0.448253968 7.1302,0.448253968 L7.1302,0.448253968 C3.4342,0.448253968 0.4368,2.1231746 0.4368,4.19174603" id="Fill-74" fill="url(#linearGradient-26)" mask="url(#mask-25)"></path>
                </g>
            </g>
        </g>
    </g>
</svg>