<?xml version="1.0" encoding="UTF-8"?>
<svg width="93px" height="94px" viewBox="0 0 93 94" version="1.1" xmlns="http://www.w3.org/2000/svg" xmlns:xlink="http://www.w3.org/1999/xlink">
    <!-- Generator: sketchtool 53.2 (72643) - https://sketchapp.com -->
    <title>EE93BF74-FCE8-4326-A840-3396BA11B93E</title>
    <desc>Created with sketchtool.</desc>
    <defs>
        <polygon id="path-1" points="0 0.453 92.547 0.453 92.547 92.9998 0 92.9998"></polygon>
    </defs>
    <g id="Symbols" stroke="none" stroke-width="1" fill="none" fill-rule="evenodd">
        <g id="sms">
            <g id="Group-10">
                <g id="Group-3" transform="translate(0.000000, 0.547400)">
                    <mask id="mask-2" fill="white">
                        <use xlink:href="#path-1"></use>
                    </mask>
                    <g id="Clip-2"></g>
                    <path d="M92.5476,46.7268 C92.5476,21.1698 71.8296,0.4528 46.2736,0.4528 C20.7176,0.4528 -0.0004,21.1698 -0.0004,46.7268 C-0.0004,72.2828 20.7176,92.9998 46.2736,92.9998 C71.8296,92.9998 92.5476,72.2828 92.5476,46.7268" id="Fill-1" fill="#0096FF" mask="url(#mask-2)"></path>
                </g>
                <path d="M32.6746,67.6346 L33.5996,68.1406 C37.4036,70.4736 41.8156,71.8806 46.4246,71.8526 C59.8396,71.7716 70.9356,60.5406 70.8526,46.9196 C70.7696,33.2986 59.5416,22.6136 46.0236,22.6956 C32.5056,22.7776 21.6126,33.6986 21.6956,47.2176 C21.7236,51.9286 23.0826,56.5296 25.5646,60.4056 L26.1846,61.3236 L23.8816,69.9406 L32.6746,67.6346 Z" id="Stroke-4" stroke="#FFFFFF" stroke-width="1.5"></path>
                <path d="M58.2327,55.199 L57.8847,55.199 L57.8507,55.199 L52.1227,49.757 L49.6867,47.503 L58.0047,39.805 L58.2327,39.805 L58.2327,55.199 Z M34.9247,55.199 L40.1777,50.208 L42.6497,47.922 L45.7327,50.774 C45.8507,50.884 46.0327,50.884 46.1497,50.774 L49.2327,47.922 L51.7017,50.205 L56.9577,55.199 L34.9247,55.199 Z M33.6497,39.805 L33.8777,39.805 L42.1957,47.503 L39.7567,49.76 L34.0317,55.199 L33.9987,55.199 L33.6497,55.199 L33.6497,39.805 Z M42.8587,47.277 C42.8587,47.277 42.8587,47.276 42.8587,47.276 L34.7837,39.805 L57.0987,39.805 L49.0247,47.276 C49.0237,47.276 49.0237,47.277 49.0237,47.277 L45.9407,50.129 L42.8587,47.277 Z M58.5407,39.189 L57.8847,39.189 L33.9987,39.189 L33.3427,39.189 C33.1727,39.189 33.0347,39.327 33.0347,39.497 L33.0347,55.507 C33.0347,55.677 33.1727,55.814 33.3427,55.814 L33.9987,55.814 L34.1547,55.814 L57.7287,55.814 L57.8847,55.814 L58.5407,55.814 C58.7107,55.814 58.8477,55.677 58.8477,55.507 L58.8477,39.497 C58.8477,39.327 58.7107,39.189 58.5407,39.189 L58.5407,39.189 Z" id="Fill-6" fill="#FFFFFF"></path>
                <path d="M58.2327,55.199 L57.8847,55.199 L57.8507,55.199 L52.1227,49.757 L49.6867,47.503 L58.0047,39.805 L58.2327,39.805 L58.2327,55.199 Z M34.9247,55.199 L40.1777,50.208 L42.6497,47.922 L45.7327,50.774 C45.8507,50.884 46.0327,50.884 46.1497,50.774 L49.2327,47.922 L51.7017,50.205 L56.9577,55.199 L34.9247,55.199 Z M33.6497,39.805 L33.8777,39.805 L42.1957,47.503 L39.7567,49.76 L34.0317,55.199 L33.9987,55.199 L33.6497,55.199 L33.6497,39.805 Z M42.8587,47.277 C42.8587,47.277 42.8587,47.276 42.8587,47.276 L34.7837,39.805 L57.0987,39.805 L49.0247,47.276 C49.0237,47.276 49.0237,47.277 49.0237,47.277 L45.9407,50.129 L42.8587,47.277 Z M58.5407,39.189 L57.8847,39.189 L33.9987,39.189 L33.3427,39.189 C33.1727,39.189 33.0347,39.327 33.0347,39.497 L33.0347,55.507 C33.0347,55.677 33.1727,55.814 33.3427,55.814 L33.9987,55.814 L34.1547,55.814 L57.7287,55.814 L57.8847,55.814 L58.5407,55.814 C58.7107,55.814 58.8477,55.677 58.8477,55.507 L58.8477,39.497 C58.8477,39.327 58.7107,39.189 58.5407,39.189 Z" id="Stroke-8" stroke="#FFFFFF" stroke-width="0.25"></path>
            </g>
        </g>
    </g>
</svg>