<?xml version="1.0" encoding="UTF-8"?>
<svg width="570px" height="381px" viewBox="0 0 570 381" version="1.1" xmlns="http://www.w3.org/2000/svg" xmlns:xlink="http://www.w3.org/1999/xlink">
    <!-- Generator: Sketch 53.2 (72643) - https://sketchapp.com -->
    <title>Group 428</title>
    <desc>Created with Sketch.</desc>
    <defs>
        <polygon id="path-1" points="0.991978378 0.723085714 245.808519 0.723085714 245.808519 7.8858 0.991978378 7.8858"></polygon>
        <polygon id="path-3" points="0 0.51 139.916667 0.51 139.916667 51.0958991 0 51.0958991"></polygon>
        <polygon id="path-5" points="0.926502345 0.169333333 67.8079133 0.169333333 67.8079133 35.6406164 0.926502345 35.6406164"></polygon>
    </defs>
    <g id="Desktop" stroke="none" stroke-width="1" fill="none" fill-rule="evenodd">
        <g id="Speech-Analytics" transform="translate(-855.000000, -351.000000)">
            <g id="Group-428" transform="translate(855.000000, 351.000000)">
                <path d="M78.4095456,349.227787 C76.1165434,353.764637 73.638515,357.664348 71.6098358,358.538624 C69.5837998,359.411596 45.5132235,359.892382 45.0004368,362.472211 C44.8669537,363.138015 75.3685092,371.604545 78.4095456,369.729608 C80.1976909,368.628621 80.382717,361.315197 80.9853735,360.661119 C82.4140395,359.111919 85.846274,355.252599 86.9114958,354.223273 C87.9753959,353.193948 79.1100017,347.841454 78.4095456,349.227787" id="Fill-1" fill="#F2B892"></path>
                <path d="M96.409387,356.227432 C94.1163956,360.765455 91.638379,364.663751 89.6110311,365.538001 C87.5836831,366.412251 63.5145427,366.891721 63.0004368,369.471475 C62.8669543,370.137261 93.368365,378.603546 96.409387,376.729967 C98.1975238,375.629011 98.382549,368.314494 98.9852026,367.660435 C100.413862,366.11128 103.84608,362.252071 104.911297,361.222775 C105.976513,360.193479 97.1098397,354.842442 96.409387,356.227432" id="Fill-3" fill="#F2B892"></path>
                <path d="M196.500628,363 C194.566864,363 193,361.33624 193,359.284224 L193,295.715776 C193,293.66376 194.566864,292 196.500628,292 C198.433136,292 200,293.66376 200,295.715776 L200,359.284224 C200,361.33624 198.433136,363 196.500628,363" id="Fill-5" fill="#CCCCCC"></path>
                <path d="M239.22718,378 C237.695426,378 236.453032,376.739974 236.453032,375.186482 L236.453032,368.242879 C236.453032,366.247839 234.508475,364.622998 232.120584,364.622998 L160.880743,364.622998 C158.491525,364.622998 156.546968,366.247839 156.546968,368.242879 L156.546968,374.335695 C156.546968,375.890534 155.304574,377.147867 153.774147,377.147867 C152.242393,377.147867 151,375.890534 151,374.335695 L151,368.242879 C151,363.146238 155.433327,359 160.880743,359 L232.120584,359 C237.568001,359 242,363.146238 242,368.242879 L242,375.186482 C242,376.739974 240.757607,378 239.22718,378" id="Fill-7" fill="#CCCCCC"></path>
                <path d="M247,374.998706 C247,375.090556 246.997412,375.184994 246.99353,375.27555 C246.848609,378.460543 244.220617,381 240.997412,381 C237.684926,381 235,378.313066 235,374.998706 C235,374.452781 235.071167,373.924968 235.208324,373.421734 C235.900582,370.874515 238.230968,369 240.997412,369 C244.312487,369 247,371.68564 247,374.998706" id="Fill-9" fill="#CCCCCC"></path>
                <path d="M157,374.998706 C157,378.313066 154.313066,381 150.998706,381 C147.686934,381 145,378.313066 145,374.998706 C145,374.918499 145.002587,374.836999 145.005175,374.756792 C145.133247,371.553687 147.767141,369 150.998706,369 C153.85511,369 156.244502,370.993532 156.849935,373.666235 C156.94696,374.094437 157,374.54075 157,374.998706" id="Fill-11" fill="#CCCCCC"></path>
                <path d="M211.442582,265 L239.031661,265 C243.745151,265 247.734722,261.540158 248.383845,256.894237 L257.908328,188.694661 C258.697694,183.043498 254.288731,178 248.557479,178 L214.61741,178 C209.574015,178 205.418824,181.949166 205.185086,186.96474 L202.010259,255.165645 C201.761829,260.521619 206.057262,265 211.442582,265" id="Fill-13" fill="#333333"></path>
                <path d="M237.447166,301 L155.554163,301 C152.486681,301 150,298.536979 150,295.498684 C150,292.461704 152.486681,290 155.554163,290 L237.447166,290 C240.514648,290 243,292.461704 243,295.498684 C243,298.536979 240.514648,301 237.447166,301" id="Fill-15" fill="#333333"></path>
                <path d="M219,374.998706 C219,378.313066 216.313066,381 213,381 C209.751617,381 207.10608,378.417853 207.003881,375.192755 C207.002587,375.129366 207,375.064683 207,374.998706 C207,371.68564 209.686934,369 213,369 C215.628719,369 217.864166,370.690815 218.673997,373.045278 C218.884864,373.658473 219,374.31436 219,374.998706" id="Fill-17" fill="#CCCCCC"></path>
                <path d="M213.000718,375 C211.343862,375 210,373.742886 210,372.194326 L210,361.805674 C210,360.255771 211.343862,359 213.000718,359 C214.656138,359 216,360.255771 216,361.805674 L216,372.194326 C216,373.742886 214.656138,375 213.000718,375" id="Fill-19" fill="#CCCCCC"></path>
                <path d="M189,374.998706 C189,378.313066 186.31407,381 182.999353,381 C179.812722,381 177.207008,378.514877 177.011644,375.377749 C177.002588,375.252264 177,375.128072 177,374.998706 C177,371.68564 179.68593,369 182.999353,369 C185.73186,369 188.038706,370.825356 188.761941,373.323415 C188.918491,373.85511 189,374.417853 189,374.998706" id="Fill-21" fill="#CCCCCC"></path>
                <path d="M183.000718,376 C181.343862,376 180,374.751902 180,373.213115 L180,361.785552 C180,360.248098 181.343862,359 183.000718,359 C184.656138,359 186,360.248098 186,361.785552 L186,373.213115 C186,374.751902 184.656138,376 183.000718,376" id="Fill-23" fill="#CCCCCC"></path>
                <path d="M189,374.745871 C189,378.199865 186.311461,381 182.993525,381 C179.803799,381 177.195554,378.410179 177,375.140883 L188.761709,373 C188.918411,373.554095 189,374.140546 189,374.745871" id="Fill-25" fill="#999999"></path>
                <path d="M219,374.964547 C219,378.297772 216.312197,381 212.998059,381 C209.748625,381 207.102232,378.403155 207,375.159701 L218.673892,373 C218.884827,373.616686 219,374.276305 219,374.964547" id="Fill-27" fill="#999999"></path>
                <path d="M247,374.956982 C246.855016,378.319222 244.224595,381 241.001294,381 C237.687379,381 235,378.163537 235,374.664732 C235,374.088426 235.072492,373.531239 235.209709,373 L247,374.956982 Z" id="Fill-29" fill="#999999"></path>
                <path d="M157,374.453519 C157,378.068972 154.313066,381 150.998706,381 C147.686934,381 145,378.068972 145,374.453519 C145,374.366026 145.002587,374.277121 145.005175,374.189628 L156.849935,373 C156.94696,373.467102 157,373.95396 157,374.453519" id="Fill-31" fill="#999999"></path>
                <path d="M216.63688,307 L176.36312,307 C175.058964,307 174,305.957146 174,304.67283 L174,301 L219,301 L219,304.67283 C219,305.957146 217.942361,307 216.63688,307" id="Fill-33" fill="#999999"></path>
                <path d="M201.749818,354.515459 L201.749818,333.364542 C201.749818,332.056949 200.690024,331 199.381881,331 L193.527779,331 C192.219636,331 191.159842,332.056949 191.159842,333.364542 L191.159842,354.515459 C191.159842,355.821726 190.100047,356.880002 188.791905,356.880002 L178.367937,356.880002 C177.059794,356.880002 176,357.939603 176,359.244544 L176,363.635458 C176,364.941725 177.059794,366 178.367937,366 L215.632063,366 C216.940206,366 218,364.941725 218,363.635458 L218,359.244544 C218,357.939603 216.940206,356.880002 215.632063,356.880002 L204.117755,356.880002 C202.810941,356.880002 201.749818,355.821726 201.749818,354.515459" id="Fill-35" fill="#999999"></path>
                <path d="M204.344481,305.101979 C204.344481,305.101979 204.35797,305.624355 204.380903,306.537836 C204.393043,306.9939 204.406533,307.548755 204.424069,308.184808 C204.426767,308.325552 204.429465,308.469002 204.433512,308.617866 L204.442954,308.745076 C204.500959,308.870934 204.565709,308.939952 204.645297,308.975138 C204.683068,308.992731 204.723537,309.003558 204.765354,309.004911 C204.80987,309.006264 204.84764,309.008971 204.84764,309.008971 L204.92588,309.011677 C205.0284,309.015737 205.13227,309.019797 205.237488,309.022504 C205.658361,309.038743 206.092724,309.054983 206.539228,309.072576 C207.433584,309.106409 208.375153,309.141595 209.350446,309.179487 C211.301033,309.252566 213.381119,309.331057 215.461205,309.410902 C223.781549,309.726222 232.100543,310.041542 232.100543,310.041542 C233.190498,310.083495 234.040338,311.002389 233.998521,312.094506 C233.956703,313.187976 233.040764,314.039205 231.952158,313.998606 C231.921133,313.997253 231.883362,313.994546 231.852336,313.99184 C231.852336,313.99184 223.558971,313.252935 215.265606,312.515384 C213.192265,312.329981 211.117575,312.144578 209.175082,311.971355 C208.202487,311.886097 207.263616,311.800839 206.371958,311.722347 C205.926803,311.681748 205.493789,311.643855 205.074265,311.607316 C204.970395,311.597843 204.866526,311.58837 204.764005,311.578897 L204.581897,311.561304 C204.490168,311.550477 204.399788,311.542358 204.312106,311.520705 C203.954633,311.451686 203.617395,311.313649 203.323323,311.126893 C202.733831,310.753381 202.323749,310.183639 202.134895,309.581419 C202.109265,309.506987 202.09038,309.429849 202.072843,309.355417 L202.048562,309.241739 C202.040469,309.202493 202.033724,309.149715 202.026979,309.106409 L202.012141,308.967018 L202.005396,308.899353 C202.005396,308.862814 202.001349,308.736956 202.001349,308.736956 L202,308.669291 C202.001349,308.613806 202.004047,308.551554 202.004047,308.551554 L202.006745,308.42705 C202.009443,308.344498 202.010792,308.264653 202.012141,308.184808 C202.028328,307.548755 202.043167,306.9939 202.053958,306.537836 C202.07689,305.624355 202.09038,305.101979 202.09038,305.101979 C202.106567,304.478106 202.624565,303.98415 203.246433,304.000389 C203.849415,304.015276 204.328293,304.505172 204.344481,305.101979" id="Fill-37" fill="#999999"></path>
                <path d="M149.572788,214.587351 C148.89481,217.168142 146.540498,225.713871 144.97849,228.047172 C143.416482,230.379149 102.620821,234.84855 101.252901,236.402319 C100.769011,236.952888 96.3608247,247.998677 107.613929,247.998677 C130.835338,247.998677 156.719473,248 160.276863,248 C163.298518,248 172.294354,230.875455 171.992588,226.498697 C170.983597,211.880828 150.997871,209.158424 149.572788,214.587351" id="Fill-39" fill="#F2B892"></path>
                <path d="M256.963105,218.080616 C256.269106,221.207313 235.250283,223.141932 233.702132,223.058982 C233.117571,223.026872 232.74388,253.089722 232.511657,254.628319 C232.412896,255.270516 221.303576,256.077276 208.264405,256.564276 C207.220738,256.603075 206.163724,256.639199 205.098703,256.675322 C194.303017,257.027193 182.711902,257.144929 175.200699,256.764962 C174.044924,256.707432 172.985241,256.635185 172.040335,256.55491 C169.12554,256.298032 167.294451,255.922079 167.075574,255.398956 C165.707596,252.127764 168.41953,231.161368 168.41953,225.39096 C165.580807,224.621661 149.517403,218.292006 149.015589,214.365239 C148.513774,210.434457 160.27572,178.734005 162.859531,174.808575 C164.565167,172.219718 173.250829,168.326398 180.983578,165.894077 C183.21772,165.193012 185.187609,164.602993 186.591622,164.193593 C187.982289,163.78553 188.821761,163.552733 188.821761,163.552733 L194.373752,162.347276 L211.016378,161 C211.016378,161 214.541091,162.032867 219.372391,163.607588 C220.461435,163.96481 221.618545,164.34879 222.814358,164.752839 C231.98315,167.852778 243.559585,172.239787 246.134054,175.375849 C249.770874,179.805671 257.602384,215.196081 256.963105,218.080616" id="Fill-41" fill="#F7F6F1"></path>
                <path d="M206.303778,138 C208.376,149.311177 209.589041,153.746667 210.919598,158.089921 C212.050376,161.773954 200.988076,162.753289 194.444971,162.506421 C191.585382,162.40062 189.689435,163.868265 189.883992,162.190375 C190.377565,157.908161 189,144.646453 189,144.646453 L206.303778,138 Z" id="Fill-43" fill="#F49E87"></path>
                <path d="M205.607776,256 C211.973692,265.46901 218.175902,283.625223 216.80902,289.938792 C215.440808,296.251017 115.639793,286.051245 115.639793,286.051245 C115.639793,286.051245 108.310271,270.533299 110.362591,268.232204 C112.41491,265.932453 161.886187,257.002111 171.744507,256.779121 C177.434303,256.64882 205.607776,256 205.607776,256" id="Fill-45" fill="#0E83FF"></path>
                <path d="M226.685154,257.030136 C233.058455,266.292624 228.525323,283.670302 227.156856,289.847046 C225.785723,296.021162 142.646335,293.48344 142.646335,293.48344 C142.646335,293.48344 135.308311,278.301791 137.363011,276.051879 C139.417711,273.800653 188.814452,259.423296 194.344286,258.072297 C199.875453,256.722613 226.685154,257.030136 226.685154,257.030136" id="Fill-47" fill="#0096FF"></path>
                <path d="M109.744176,268 C105.069393,270.08082 74,349.012206 74,349.012206 L87.3718066,357 C87.3718066,357 114.344078,322.782953 118.65916,312.713008 C122.972904,302.643062 131,286.443816 131,286.443816 L109.744176,268 Z" id="Fill-49" fill="#0E83FF"></path>
                <path d="M138.083022,276 C133.345003,277.923187 92,355.73482 92,355.73482 L105.372902,365 L165,293.5734 L138.083022,276 Z" id="Fill-51" fill="#0096FF"></path>
                <path d="M189.889694,158.9481 C190.542191,158.9481 193.072442,161.717307 194.458498,161.657502 C198.806702,161.470288 209.220067,154.236548 209.96293,154.006431 C210.754962,153.763313 215.052668,160.490015 214.999511,161.205068 C214.886553,162.744383 199.501724,171 199.242586,170.983099 C198.726968,170.947996 195.413987,162.502565 194.410657,162.502565 C193.758161,162.502565 189.387365,170.511163 188.886365,171 C188.886365,171 183.690314,165.210668 184.014568,165.11316 C184.337494,165.015653 188.56211,158.9481 189.889694,158.9481" id="Fill-53" fill="#9FB6BE"></path>
                <path d="M207.827572,114.369855 C205.745221,111.958656 201.670184,109.893239 196.667725,112.273967 C192.757295,108.178904 182.428514,107.035571 175.983398,114.115487 C168.644316,122.177104 173.160983,136.211075 175.983398,137.354407 C177.744563,138.067168 180.655304,131.762281 182.140786,128.654219 C183.935408,130.300988 184.128119,138.624923 180.996563,139.059469 C180.216351,138.275167 179.541862,155.513912 191.087132,155.989527 C199.183675,156.323386 207.857014,148.640671 206.673982,137.847245 C210.58575,141.148732 213.503182,120.941033 207.827572,114.369855" id="Fill-55" fill="#333333"></path>
                <path d="M187.608463,140.895529 C190.016057,140.553615 200.29897,139.450535 202.694328,132.273053 C203.616038,129.506534 202.285133,124.130885 200.935194,122.120104 C198.285618,118.175881 180.494438,125.786183 180.247018,127.442838 C179.877246,129.919002 179.754895,134.737005 181.107552,139.895566 C181.900114,140.697436 185.200869,141.237443 187.608463,140.895529" id="Fill-57" fill="#F2B892"></path>
                <path d="M188.364038,240.063921 C186.798089,239.595884 186.572182,241.846758 187.729101,241.991465 C188.886021,242.135042 189.574011,240.424559 188.364038,240.063921" id="Fill-59" fill="#9FB6BE"></path>
                <path d="M189.364038,252.063954 C187.798089,251.595683 187.572182,253.847681 188.729101,253.99133 C189.886021,254.136109 190.574011,252.424772 189.364038,252.063954" id="Fill-61" fill="#9FB6BE"></path>
                <path d="M86.963238,367.016163 C82.824642,366.811137 59.3658548,368.569631 60.0131426,371.550396 C60.508048,373.837227 93.2095649,381 96.2909243,381 C99.3722837,381 99.3709352,371.461026 98.4997938,371.316456 C97.6273038,371.173201 90.6460357,372.496671 87.9328212,371.550396 C85.2182581,370.605436 89.2921255,367.131819 86.963238,367.016163" id="Fill-63" fill="#333333"></path>
                <path d="M69.9637177,359.016163 C65.8236996,358.811137 42.3658443,360.569631 43.0131436,363.550396 C43.5080578,365.837227 76.2101555,373 79.2915697,373 C82.3716353,373 82.3716353,363.461026 81.4991298,363.316456 C80.6266244,363.173201 73.6465808,364.495356 70.933318,363.550396 C68.2173583,362.605436 72.2912979,359.131819 69.9637177,359.016163" id="Fill-65" fill="#333333"></path>
                <path d="M151.245828,205.647428 C149.028211,204.074301 148.216346,205.695933 148.094958,207.035712 C147.97357,208.374181 146.276747,208.978524 146.035276,210.441531 C145.7925,211.903228 146.882382,213.243008 146.882382,213.974511 C146.882382,214.703394 145.368294,215.999912 146.338093,218.024002 C148.44607,222.430067 162.784226,226.517574 168,227 C167.728508,220.546248 167.874696,216.256856 167.874696,215.375905 C164.118191,214.008596 155.125027,208.399089 151.245828,205.647428" id="Fill-67" fill="#9FB6BE"></path>
                <path d="M197,237.070152 C193.653151,237.070152 191.182447,230.775672 188.675955,230.094263 C186.703633,229.558871 179.174879,231.451819 177.775166,232.062193 C176.379431,232.672567 176.990479,244 178.636732,244 L195.253011,244 L197,237.070152 Z" id="Fill-69" fill="#F2B892"></path>
                <path d="M205.876573,135.999932 C208.216729,135.96294 210.062808,132.573369 209.998363,128.431626 C209.933918,124.288513 207.984459,120.961966 205.644302,121.000328 C203.302803,121.037321 203.535073,136.036924 205.876573,135.999932" id="Fill-71" fill="#54879C"></path>
                <path d="M207,120.827663 L205.885477,121 C205.207307,116.767146 202.933681,113.357532 200.008904,111.110527 C196.397851,108.337232 191.788456,107.333703 187.947743,108.737584 C186.979122,108.749515 185.990236,108.844963 185,109.03851 C189.856617,105.606359 196.795026,106.6828 201.623273,110.958075 C204.306233,113.336321 206.340743,116.699537 207,120.827663" id="Fill-73" fill="#54879C"></path>
                <path d="M190.416342,147 C189.956777,147 189.485529,146.981791 189,146.945373 L189.055823,146.222211 C198.739137,146.96098 204.375945,139.518659 205.285987,134 L206,134.118359 C205.485911,137.228214 203.659336,140.50065 201.110958,142.870435 C199.032532,144.805803 195.541657,147 190.416342,147" id="Fill-75" fill="#54879C"></path>
                <path d="M185,146.5 C185,147.327724 186.119632,148 187.5,148 C188.880368,148 190,147.327724 190,146.5 C190,145.672276 188.880368,145 187.5,145 C186.119632,145 185,145.672276 185,146.5" id="Fill-77" fill="#9FB6BE"></path>
                <path d="M256.326776,217.921799 C257.440294,223.785288 260.52971,248 253.739639,248 C243.323325,248 192.066929,247.997302 192.066929,247.997302 C192.066929,247.997302 187.457388,241.057424 197.400656,237.677184 C206.864234,234.460156 225.653196,225.925927 233.082411,229.397889 C233.4651,228.105682 233.284385,223.48719 233.401318,223.19179 C233.98731,221.706696 255.191997,211.936913 256.326776,217.921799" id="Fill-79" fill="#F2B892"></path>
                <path d="M229.844964,215.233191 C228.353348,215.452659 228,216.442945 228,217.189675 C228,217.935066 229.314941,217.810611 229.314941,218.30843 C229.314941,218.804911 228.780873,219.488744 228.922482,220.481707 C229.064091,221.476007 230.316994,221.041084 230.566496,221.600462 C230.818695,222.15984 230.089071,223.579696 231.381085,224.614144 C232.508563,225.514769 241.524341,224.873759 250.603505,222.321765 C255.638045,220.904586 259.68267,218.556002 259.93352,217.810611 C260.183022,217.06522 259.118931,215.824686 258.930119,215.233191 C258.744004,214.643034 259.696157,214.455682 259.971283,212.903342 C260.246409,211.349663 258.45674,210.847829 258.348847,210.477141 C258.242303,210.106453 258.618579,208.056293 257.741951,207.186447 C256.863975,206.316601 253.233388,208.673215 247.660734,210.477141 C242.08808,212.281068 231.313652,215.017736 229.844964,215.233191" id="Fill-81" fill="#9FB6BE"></path>
                <polygon id="Fill-83" fill="#333333" points="258 381 250.592368 381 250.592368 257.412458 40.4063021 257.412458 40.4063021 381 33 381 33 250 258 250"></polygon>
                <path d="M266.292597,252 L28.7060725,252 C26.6594156,252 25,250.431879 25,248.499372 C25,246.566864 26.6594156,245 28.7060725,245 L266.292597,245 C268.340584,245 270,246.566864 270,248.499372 C270,250.431879 268.340584,252 266.292597,252" id="Fill-85" fill="#999999"></path>
                <path d="M104.01382,186.293569 L121.280011,241.138228 C121.436698,241.638408 121.90145,241.978053 122.424628,241.978053 L173.988169,241.978053 C174.547199,241.978053 175,242.43047 175,242.9877 C175,243.546256 174.547199,244 173.988169,244 L45.4617401,244 C44.6543999,244 43.9400101,243.477266 43.6983392,242.706431 L26.0603468,186.682303 C25.798758,185.849112 26.4201974,185 27.2952586,185 L102.249091,185 C103.056431,185 103.770821,185.524061 104.01382,186.293569" id="Fill-87" fill="#E5E5E5"></path>
                <path d="M485.500628,336 C483.566864,336 482,334.336271 482,332.284294 L482,268.71704 C482,266.665063 483.566864,265 485.500628,265 C487.433136,265 489,266.665063 489,268.71704 L489,332.284294 C489,334.336271 487.433136,336 485.500628,336" id="Fill-89" fill="#CCCCCC"></path>
                <path d="M528.22718,352 C526.695426,352 525.453032,350.739974 525.453032,349.187828 L525.453032,342.244226 C525.453032,340.249185 523.508475,338.624345 521.120584,338.624345 L449.880743,338.624345 C447.491525,338.624345 445.546968,340.249185 445.546968,342.244226 L445.546968,348.337041 C445.546968,349.890534 444.304574,351.149214 442.774147,351.149214 C441.242393,351.149214 440,349.890534 440,348.337041 L440,342.244226 C440,337.147584 444.433327,333 449.880743,333 L521.120584,333 C526.568001,333 531,337.147584 531,342.244226 L531,349.187828 C531,350.739974 529.757607,352 528.22718,352" id="Fill-91" fill="#CCCCCC"></path>
                <path d="M535,347.999353 C535,348.091213 534.997412,348.18566 534.993531,348.274933 C534.848625,351.461563 532.220916,354 528.998059,354 C525.68593,354 523,351.31407 523,347.999353 C523,347.453369 523.072453,346.925499 523.209596,346.42221 C523.901779,343.874717 526.231914,342 528.998059,342 C532.312776,342 535,344.684636 535,347.999353" id="Fill-93" fill="#CCCCCC"></path>
                <path d="M446,347.999353 C446,351.31407 443.313066,354 439.998706,354 C436.686934,354 434,351.31407 434,347.999353 C434,347.919137 434.002587,347.837628 434.005175,347.756119 C434.133247,344.553962 436.767141,342 439.998706,342 C442.85511,342 445.244502,343.993747 445.849935,346.666739 C445.94696,347.094987 446,347.541348 446,347.999353" id="Fill-95" fill="#CCCCCC"></path>
                <path d="M499.442582,239 L527.031661,239 C531.745151,239 535.734722,235.540158 536.383845,230.894237 L545.908328,162.694661 C546.697694,157.042168 542.288731,152 536.557479,152 L502.61741,152 C497.574015,152 493.418824,155.947837 493.185086,160.96474 L490.010259,229.165645 C489.761829,234.521619 494.057262,239 499.442582,239" id="Fill-97" fill="#333333"></path>
                <path d="M526.432242,275 L446.566426,275 C443.491435,275 441,272.537274 441,269.499342 C441,266.462726 443.491435,264 446.566426,264 L526.432242,264 C529.507233,264 532,266.462726 532,269.499342 C532,272.537274 529.507233,275 526.432242,275" id="Fill-99" fill="#333333"></path>
                <path d="M507,347.999353 C507,351.31407 504.313066,354 501,354 C497.751617,354 495.10608,351.418868 495.003881,348.193423 C495.002587,348.130027 495,348.064043 495,347.999353 C495,344.684636 497.686934,342 501,342 C503.628719,342 505.864166,343.690997 506.673997,346.045714 C506.884864,346.658976 507,347.314933 507,347.999353" id="Fill-101" fill="#CCCCCC"></path>
                <path d="M501.000718,349 C499.343862,349 498,347.742991 498,346.193218 L498,335.806782 C498,334.255666 499.343862,333 501.000718,333 C502.656138,333 504,334.255666 504,335.806782 L504,346.193218 C504,347.742991 502.656138,349 501.000718,349" id="Fill-103" fill="#CCCCCC"></path>
                <path d="M477,347.999353 C477,351.31407 474.31407,354 470.999353,354 C467.812722,354 465.207008,351.515903 465.011644,348.378437 C465.002588,348.252938 465,348.127439 465,347.999353 C465,344.684636 467.68593,342 470.999353,342 C473.73186,342 476.038706,343.825553 476.761941,346.323881 C476.918491,346.85434 477,347.417143 477,347.999353" id="Fill-105" fill="#CCCCCC"></path>
                <path d="M470.999282,350 C469.343862,350 468,348.751902 468,347.214448 L468,335.786885 C468,334.248098 469.343862,333 470.999282,333 C472.656138,333 474,334.248098 474,335.786885 L474,347.214448 C474,348.751902 472.656138,350 470.999282,350" id="Fill-107" fill="#CCCCCC"></path>
                <path d="M477,347.746166 C477,351.200742 474.311461,354 470.993525,354 C467.803799,354 465.195554,351.411091 465,348.141244 L476.761709,346 C476.918411,346.55284 477,347.13939 477,347.746166" id="Fill-109" fill="#999999"></path>
                <path d="M507,347.964867 C507,351.298634 504.312197,354 500.998059,354 C497.748625,354 495.102232,351.404034 495,348.160052 L506.673892,346 C506.884827,346.616786 507,347.276513 507,347.964867" id="Fill-111" fill="#999999"></path>
                <path d="M535,347.95595 C534.855032,351.32013 532.224895,354 529.001942,354 C525.688383,354 523,351.164419 523,347.665016 C523,347.088612 523.073778,346.53133 523.21098,346 L535,347.95595 Z" id="Fill-113" fill="#999999"></path>
                <path d="M446,347.453776 C446,351.069866 443.313066,354 439.998706,354 C436.686934,354 434,351.069866 434,347.453776 C434,347.366267 434.002587,347.277347 434.005175,347.188426 L445.849935,346 C445.94696,346.467184 446,346.954128 446,347.453776" id="Fill-115" fill="#999999"></path>
                <path d="M504.63688,280 L464.36312,280 C463.058964,280 462,278.958225 462,277.673629 L462,274 L507,274 L507,277.673629 C507,278.958225 505.942361,280 504.63688,280" id="Fill-117" fill="#999999"></path>
                <path d="M490.749818,328.515894 L490.749818,307.364453 C490.749818,306.058235 489.690024,305 488.381881,305 L482.527779,305 C481.219636,305 480.159842,306.058235 480.159842,307.364453 L480.159842,328.515894 C480.159842,329.820786 479.100047,330.880347 477.791905,330.880347 L467.367937,330.880347 C466.059794,330.880347 465,331.938582 465,333.2448 L465,337.635547 C465,338.940439 466.059794,340 467.367937,340 L504.632063,340 C505.940206,340 507,338.940439 507,337.635547 L507,333.2448 C507,331.938582 505.940206,330.880347 504.632063,330.880347 L493.117755,330.880347 C491.810941,330.880347 490.749818,329.820786 490.749818,328.515894" id="Fill-119" fill="#999999"></path>
                <path d="M492.344481,278.102119 C492.344481,278.102119 492.35797,278.624561 492.380903,279.538157 C492.393043,279.994278 492.406533,280.549203 492.424069,281.183983 C492.426767,281.324744 492.429465,281.469566 492.433512,281.618449 L492.442954,281.744322 C492.500959,281.871548 492.565709,281.940576 492.645297,281.974413 C492.683068,281.993361 492.723537,282.002836 492.765354,282.005542 C492.80987,282.006896 492.84764,282.008249 492.84764,282.008249 L492.92588,282.010956 C493.0284,282.015017 493.13227,282.019077 493.237488,282.021784 C493.658361,282.038026 494.092724,282.055621 494.539228,282.073216 C495.433584,282.1057 496.375153,282.14089 497.350446,282.178787 C499.301033,282.251875 501.381119,282.33173 503.461205,282.411585 C511.781549,282.726945 520.100543,283.040951 520.100543,283.040951 C521.190498,283.084262 522.040338,284.001919 521.998521,285.095527 C521.958052,286.189135 521.040764,287.040471 519.952158,286.998513 C519.919784,286.99716 519.883362,286.995806 519.852336,286.993099 C519.852336,286.993099 511.558971,286.252748 503.265606,285.515104 C501.192265,285.331032 499.117575,285.145606 497.175082,284.972361 C496.202487,284.885738 495.263616,284.801823 494.371958,284.723321 C493.926803,284.682717 493.493789,284.64482 493.074265,284.606922 C492.970395,284.597448 492.866526,284.587974 492.764005,284.578499 L492.581897,284.560904 C492.490168,284.550076 492.399788,284.541955 492.312106,284.521653 C491.954633,284.451273 491.617395,284.314572 491.323323,284.126439 C490.733831,283.752879 490.323749,283.18442 490.134895,282.582123 C490.109265,282.506328 490.09038,282.430534 490.072843,282.354739 L490.048562,282.241047 C490.040469,282.201796 490.033724,282.150364 490.026979,282.1057 L490.012141,281.967645 L490.005396,281.899971 C490.005396,281.863428 490.001349,281.737554 490.001349,281.737554 L490,281.669881 C490.001349,281.614388 490.004047,281.552128 490.004047,281.552128 L490.006745,281.427608 C490.009443,281.345046 490.010792,281.265191 490.012141,281.183983 C490.028328,280.549203 490.041818,279.994278 490.053958,279.538157 C490.07689,278.624561 490.09038,278.102119 490.09038,278.102119 C490.106567,277.476814 490.624565,276.984149 491.246433,277.00039 C491.849415,277.015279 492.328293,277.505237 492.344481,278.102119" id="Fill-121" fill="#999999"></path>
                <path d="M427.222916,339.040095 C427.918941,339.451067 429,342.134549 429,344.273223 C429,346.503825 427.628145,348.551923 427.307732,349.949767 C426.634594,352.903625 427.531213,354 426.104161,354 L395.668912,354 C394.753444,354 394.641704,350.960974 396.199344,349.95923 C397.962965,348.826355 404.721268,346.498417 408.508341,345.700808 C413.365703,344.677435 426.214556,338.443916 427.222916,339.040095" id="Fill-123" fill="#333333"></path>
                <path d="M416.978526,311 C418.501653,324.808152 419.778216,333.978401 418.704471,337.515287 C417.84415,340.343994 405.67637,346.594674 407.118634,347.671641 C409.240937,349.261703 425.434597,344.856296 427.187054,339.216252 C427.320941,334.12939 428.677041,323.529422 430,312.63282 L416.978526,311 Z" id="Fill-125" fill="#FFCEBD"></path>
                <path d="M446.175445,340.503877 L440.224858,351.301818 C439.549459,352.528383 440.476771,354 441.924247,354 L454.077334,354 C455.214346,354 456.102168,353.061502 455.990509,351.978319 C455.990509,351.978319 455.989148,342.54511 454.71052,339.667049 C453.870357,337.777018 446.175445,340.503877 446.175445,340.503877" id="Fill-127" fill="#333333"></path>
                <path d="M444.440084,312 C446.422028,323.313976 447.912074,333.173185 447.638073,337.84188 C442.8026,348.046333 442.982658,352.091745 447.022222,352.823081 C455.260532,354.316062 454.497243,346.006497 454.751673,341.183628 C455.197904,332.758102 457.258134,321.902694 459,312 L444.440084,312 Z" id="Fill-129" fill="#FFCEBD"></path>
                <path d="M441.405754,354 C440.238451,354 439.586478,352.555069 440.291806,351.548124 C442.19697,348.830076 445.153619,346.720421 447.847397,347.03025 C451.881557,347.493586 453.87261,349.887721 454.822589,351.742471 C455.340523,352.756458 454.662524,354 453.590219,354 L441.405754,354 Z" id="Fill-131" fill="#333333"></path>
                <path d="M468.968919,135.750074 C469.359966,132.740385 467.806347,129.218719 468.735084,126.45642 C470.394391,121.528468 474.615319,117.904935 478.236465,116.146748 C484.75083,112.983598 493.445017,113.025932 498.095304,118.23567 C500.05186,120.429105 507.634998,122.298419 508.599404,126.115101 C509.672141,130.356447 509.558526,132.847543 511.091006,134.903392 C512.372478,136.623214 519.441706,137.431531 520.240974,140.939968 C520.850003,143.610984 518.857778,147.115452 519.423211,148.812784 C520.275323,151.367382 522.587255,150.900384 523.68113,154.337382 C524.772362,157.76512 522.883183,160.784069 520.733746,162.712916 C520.003176,163.369094 500.738834,173.863978 497.848258,173.987011 C492.722373,174.205296 471.325769,171.715523 469.141984,163.235477 C467.974128,158.709699 472.073514,156.230509 471.934798,153.611088 C471.792119,150.900384 467.539484,149.111769 467.033501,143.953625 C466.7204,140.748142 468.698093,137.833705 468.968919,135.750074" id="Fill-133" fill="#FFC73C"></path>
                <path d="M526.745954,216.420548 C526.272452,217.604278 519.730363,219.109019 511.940315,219.516971 C495.7971,220.362301 471.695301,219.954349 471.695301,219.954349 C471.695301,219.954349 504.037911,211.935751 511.66745,209.282057 C512.635855,208.944995 513.1963,208.424689 513.260504,208.557106 C513.375535,208.79519 511.783819,201.46543 509.509938,195.758114 C501.440337,191.305419 498.729068,181.110631 498.729068,181.110631 L496.936715,158.947469 L480.832289,160.989904 L472.912496,176.247309 C472.912496,176.247309 468.716517,214.057102 464.603468,217.993504 C454.436546,227.718812 415.890254,216.845888 417.02452,215.55248 C418.15611,214.259071 451.960691,210.539352 453.255466,208.597233 C454.548903,206.655114 462.229269,170.244395 464.092514,167.513123 C465.276269,165.779662 475.701344,160.524438 480.503245,158.166341 C481.965217,157.448078 482.904196,157 482.904196,157 L496.120793,157 C497.018307,157.426678 498.038878,157.869406 499.135692,158.321497 C506.452237,161.347029 515.516996,164.649434 517.484572,168.505584 C520.321572,174.067106 528.54232,211.934414 526.745954,216.420548" id="Fill-135" fill="#FFCEBD"></path>
                <path d="M470.617122,219.986147 C470.752685,215.470512 473.003563,203.80712 471.494924,201.053781 C469.588992,199.90689 467.322007,198.742682 467.009274,193.949982 C466.795863,190.701122 470.336601,179.694429 470.336601,179.694429 L474.324293,159.687102 C475.08935,158.987778 481.926545,155.690965 482.437925,156.207799 C485.719617,155.740251 495.700257,156.207799 495.700257,156.207799 C496.148554,156.207799 503.391094,159.168937 503.409885,159.423357 C503.409885,159.423357 502.121368,180.047421 509.135734,194.806487 C508.008281,200.3105 507.197589,211.509008 507.529114,218.266476 C507.733129,222.427786 512,234.332279 512,234.332279 L470.05608,236 C470.05608,236 470.333916,229.278497 470.617122,219.986147" id="Fill-137" fill="#FF3453"></path>
                <path d="M492.06117,234.523675 C492.06117,234.523675 468.736763,233.345406 464.009344,234.523675 C459.281925,235.701943 412.864977,242.029138 408.768233,251.365983 C405.310116,259.243321 414.588736,323.732193 415.606297,335.131007 C415.704343,336.2373 428.19199,336.322605 428.429156,335.18299 C430.511976,325.155712 441.992662,270.88472 438.297378,265.662485 C462.547925,266.054352 501.97444,266.36758 502.862156,262.288958 C504.033411,256.904111 497.509361,242.602278 492.06117,234.523675" id="Fill-139" fill="#5D18E3"></path>
                <path d="M494.635802,134 C494.480571,145.144774 495.844768,153.174974 496,156.29089 C493.891216,160.983568 483.439385,166.36121 483,156.29089 C484.237907,152.195878 484.278689,137.780735 484.278689,137.780735 L494.635802,134 Z" id="Fill-141" fill="#FFCEBD"></path>
                <path d="M473.76598,126.48064 C470.436085,135.995933 478.817261,150.018898 482.542228,149.999981 C488.268088,149.970254 494.304362,143.316845 494.242548,135.783792 C495.705928,135.783792 498.177145,129.985705 496.356319,129.247939 C494.894283,128.656105 494.010073,130.277569 493.774911,130.87616 C490.008287,132.262512 489.43046,128.015626 487.401348,127.138684 C484.994632,126.099596 483.195306,128.187231 481.150068,127.623772 C479.798222,127.249484 475.0802,122.72695 473.76598,126.48064" id="Fill-143" fill="#FFCEBD"></path>
                <path d="M511.968077,234.523767 C511.968077,234.523767 488.565622,233.345291 483.822114,234.523767 C479.078607,235.702242 440.881939,244.104878 438.37591,250.203887 C436.409642,254.984445 442.711274,320.25518 444.479454,335.148761 C444.63633,336.465881 459.604701,336.11927 459.820073,335.028781 C462.229052,322.789435 474.994511,271.468435 470.67776,265.725367 C490.987895,266.099973 513.18719,266.253281 514.557862,262.512556 C517.602321,254.208571 515.390103,242.029215 511.968077,234.523767" id="Fill-145" fill="#6727E5"></path>
                <path d="M512.657913,208 C498.189416,212.891567 477,212.891567 477,212.891567 L477,217.626296 C477,217.626296 504.094034,220.78621 511.771493,219.814324 C514.940115,219.413229 525.745182,216.919236 525.996555,215.557825 C526.247928,214.196414 512.657913,208 512.657913,208" id="Fill-147" fill="#FFCEBD"></path>
                <path d="M483,213.416717 C480.327233,212.42142 476.767648,209 475.499008,209 C474.22763,209 469.27213,212.381826 469.016212,213.416717 C468.763032,214.450243 471.558968,217.366505 471.558968,217.366505 L483,218 L483,213.416717 Z" id="Fill-149" fill="#FFCEBD"></path>
                <path d="M496,123.83193 L494.906023,124 C494.049119,118.681223 490.205632,114.895765 485.988656,113.584817 C481.803467,112.280333 477.251411,113.415454 474.88466,117.906807 C474.237015,118.412311 473.602614,118.969529 473,119.575874 C475.481976,111.807151 482.882875,110.45871 488.665323,113.515003 C492.257169,115.414197 495.22521,119.013485 496,123.83193" id="Fill-151" fill="#999999"></path>
                <path d="M482.248692,146 C481.843358,146 481.42887,145.983579 481,145.949367 L481.056224,145.188505 C489.542103,145.863154 494.483264,139.053712 495.280858,134 L496,134.12453 C495.546287,136.992816 493.935408,140.008895 491.686454,142.194321 C489.85068,143.976052 486.771444,146 482.248692,146" id="Fill-153" fill="#999999"></path>
                <path d="M495.563447,135.999939 C497.513596,135.967307 499.052445,133.030446 498.99863,129.44231 C498.944816,125.851454 497.320118,122.96898 495.369969,123.000252 C493.418539,123.034244 493.613298,136.03257 495.563447,135.999939" id="Fill-155" fill="#999999"></path>
                <path d="M477,145.5 C477,146.328426 478.119731,147 479.5,147 C480.880269,147 482,146.328426 482,145.5 C482,144.671574 480.880269,144 479.5,144 C478.119731,144 477,144.671574 477,145.5" id="Fill-157" fill="#999999"></path>
                <polygon id="Fill-159" fill="#333333" points="557 354 549.592368 354 549.592368 230.412458 339.407632 230.412458 339.407632 354 332 354 332 223 557 223"></polygon>
                <g id="Group-163" transform="translate(324.000000, 217.000000)">
                    <mask id="mask-2" fill="white">
                        <use xlink:href="#path-1"></use>
                    </mask>
                    <g id="Clip-162"></g>
                    <path d="M242.105222,7.8858 L4.69660541,7.8858 C2.65015135,7.8858 0.991978378,6.28122857 0.991978378,4.3038 C0.991978378,2.32637143 2.65015135,0.723085714 4.69660541,0.723085714 L242.105222,0.723085714 C244.150346,0.723085714 245.808519,2.32637143 245.808519,4.3038 C245.808519,6.28122857 244.150346,7.8858 242.105222,7.8858" id="Fill-161" fill="#999999" mask="url(#mask-2)"></path>
                </g>
                <path d="M422.014031,160.293569 L439.321335,215.270902 C439.45412,215.691477 439.844511,215.978053 440.286687,215.978053 L491.988172,215.978053 C492.5472,215.978053 493,216.43047 493,216.9877 C493,217.546256 492.5472,218 491.988172,218 L363.462127,218 C362.654789,218 361.940401,217.477266 361.697403,216.706431 L344.060791,160.682303 C343.797875,159.849112 344.420641,159 345.295699,159 L420.249308,159 C421.056646,159 421.771033,159.524061 422.014031,160.293569" id="Fill-164" fill="#E5E5E5"></path>
                <g id="Group-168" transform="translate(0.000000, 124.000000)">
                    <mask id="mask-4" fill="white">
                        <use xlink:href="#path-3"></use>
                    </mask>
                    <g id="Clip-167"></g>
                    <path d="M135.231333,0.51 L4.68333333,0.51 C2.09666667,0.51 -0.000666666667,2.606 -0.000666666667,5.194 L-0.000666666667,40.0726667 C-0.000666666667,42.6593333 2.09666667,44.758 4.68333333,44.758 L74.7766667,44.758 C75.3646667,44.758 75.858,45.198 75.9246667,45.782 L76.482,50.7446667 C76.5166667,51.046 76.8673333,51.1993333 77.1113333,51.018 L81.1286667,48.0526667 L84.01,45.9273333 C85.038,45.166 86.2846667,44.758 87.5633333,44.758 L135.231333,44.758 C137.818,44.758 139.916667,42.6593333 139.916667,40.0726667 L139.916667,5.194 C139.916667,2.606 137.818,0.51 135.231333,0.51" id="Fill-166" fill="#FFFFFF" mask="url(#mask-4)"></path>
                </g>
                <path d="M39,147.000666 C39,155.284516 32.284218,162 24,162 C15.715782,162 9,155.284516 9,147.000666 C9,138.715484 15.715782,132 24,132 C32.284218,132 39,138.715484 39,147.000666" id="Fill-169" fill="#0096FF"></path>
                <path d="M29.7580054,146.944967 L20.9079163,152.898877 C20.5265915,153.154461 20,152.896228 20,152.452599 L20,140.546104 C20,140.103798 20.5265915,139.845566 20.9079163,140.10115 L29.7580054,146.055059 C30.0806649,146.272239 30.0806649,146.727788 29.7580054,146.944967" id="Fill-171" fill="#F1F5F9"></path>
                <polygon id="Fill-173" fill="#C1CBD6" points="70.878 142 70.122 142 70.122 149.510612 70.122 152 70.878 152 70.878 149.510612"></polygon>
                <polygon id="Fill-175" fill="#C1CBD6" points="67.878 140 67.122 140 67.122 149.558093 67.122 152 67.878 152 67.878 149.558093"></polygon>
                <polygon id="Fill-177" fill="#C1CBD6" points="65.878 138 65.122 138 65.122 149.541345 65.122 152 65.878 152 65.878 149.541345"></polygon>
                <polygon id="Fill-179" fill="#C1CBD6" points="62.878 137 62.122 137 62.122 149.513903 62.122 152 62.878 152 62.878 149.513903"></polygon>
                <polygon id="Fill-181" fill="#C1CBD6" points="60.8785 139 60.1215 139 60.1215 149.55948 60.1215 152 60.8785 152 60.8785 149.55948"></polygon>
                <polygon id="Fill-183" fill="#C1CBD6" points="57.878 140 57.122 140 57.122 149.601847 57.122 152 57.878 152 57.878 149.601847"></polygon>
                <polygon id="Fill-185" fill="#C1CBD6" points="55.8785 139 55.1215 139 55.1215 149.615967 55.1215 152 55.8785 152 55.8785 149.615967"></polygon>
                <polygon id="Fill-187" fill="#C1CBD6" points="52.878 142 52.122 142 52.122 149.574099 52.122 152 52.878 152 52.878 149.574099"></polygon>
                <polygon id="Fill-189" fill="#C1CBD6" points="50.878 144 50.122 144 50.122 149.690866 50.122 152 50.878 152 50.878 149.690866"></polygon>
                <polygon id="Fill-191" fill="#C1CBD6" points="47.878 145 47.122 145 47.122 149.591098 47.122 152 47.878 152 47.878 149.591098"></polygon>
                <polygon id="Fill-193" fill="#C1CBD6" points="44.878 147 44.122 147 44.122 149.706387 44.122 152 44.878 152 44.878 149.706387"></polygon>
                <polygon id="Fill-195" fill="#C1CBD6" points="110.8785 144 110.1215 144 110.1215 149.515545 110.1215 152 110.8785 152 110.8785 149.515545"></polygon>
                <polygon id="Fill-197" fill="#C1CBD6" points="107.878 141 107.122 141 107.122 149.621445 107.122 152 107.878 152 107.878 149.621445"></polygon>
                <polygon id="Fill-199" fill="#C1CBD6" points="105.8785 143 105.1215 143 105.1215 149.581017 105.1215 152 105.8785 152 105.8785 149.581017"></polygon>
                <polygon id="Fill-201" fill="#C1CBD6" points="102.878 142 102.122 142 102.122 149.510612 102.122 152 102.878 152 102.878 149.510612"></polygon>
                <polygon id="Fill-203" fill="#C1CBD6" points="100.878 145 100.122 145 100.122 149.591098 100.122 152 100.878 152 100.878 149.591098"></polygon>
                <polygon id="Fill-205" fill="#C1CBD6" points="97.878 144 97.122 144 97.122 149.690866 97.122 152 97.878 152 97.878 149.690866"></polygon>
                <polygon id="Fill-207" fill="#C1CBD6" points="95.878 145 95.122 145 95.122 149.487853 95.122 152 95.878 152 95.878 149.487853"></polygon>
                <polygon id="Fill-209" fill="#C1CBD6" points="92.878 147 92.122 147 92.122 149.706387 92.122 152 92.878 152 92.878 149.706387"></polygon>
                <polygon id="Fill-211" fill="#C1CBD6" points="87.878 148 87.122 148 87.122 149.642556 87.122 152 87.878 152 87.878 149.642556"></polygon>
                <polygon id="Fill-213" fill="#C1CBD6" points="85.878 145 85.122 145 85.122 149.591098 85.122 152 85.878 152 85.878 149.591098"></polygon>
                <polygon id="Fill-215" fill="#C1CBD6" points="82.8785 143 82.1215 143 82.1215 149.688949 82.1215 152 82.8785 152 82.8785 149.688949"></polygon>
                <polygon id="Fill-217" fill="#C1CBD6" points="80.878 141 80.122 141 80.122 149.621445 80.122 152 80.878 152 80.878 149.621445"></polygon>
                <polygon id="Fill-219" fill="#C1CBD6" points="77.8785 140 77.1215 140 77.1215 149.634096 77.1215 152 77.8785 152 77.8785 149.634096"></polygon>
                <polygon id="Fill-221" fill="#C1CBD6" points="75.878 141 75.122 141 75.122 149.621445 75.122 152 75.878 152 75.878 149.621445"></polygon>
                <polygon id="Fill-223" fill="#C1CBD6" points="72.878 144 72.122 144 72.122 149.515545 72.122 152 72.878 152 72.878 149.515545"></polygon>
                <polygon id="Fill-225" fill="#C1CBD6" points="112.878 147 112.122 147 112.122 149.706387 112.122 152 112.878 152 112.878 149.706387"></polygon>
                <polygon id="Fill-227" fill="#C1CBD6" points="115.878 145 115.122 145 115.122 149.591098 115.122 152 115.878 152 115.878 149.591098"></polygon>
                <polygon id="Fill-229" fill="#C1CBD6" points="117.878 143 117.122 143 117.122 149.581017 117.122 152 117.878 152 117.878 149.581017"></polygon>
                <polygon id="Fill-231" fill="#C1CBD6" points="120.878 142 120.122 142 120.122 149.510612 120.122 152 120.878 152 120.878 149.510612"></polygon>
                <polygon id="Fill-233" fill="#C1CBD6" points="123.878 145 123.122 145 123.122 149.591098 123.122 152 123.878 152 123.878 149.591098"></polygon>
                <polygon id="Fill-235" fill="#C1CBD6" points="125.878 144 125.122 144 125.122 149.690866 125.122 152 125.878 152 125.878 149.690866"></polygon>
                <polygon id="Fill-237" fill="#C1CBD6" points="128.8785 145 128.1215 145 128.1215 149.487853 128.1215 152 128.8785 152 128.8785 149.487853"></polygon>
                <polygon id="Fill-239" fill="#C1CBD6" points="130.878 147 130.122 147 130.122 149.706387 130.122 152 130.878 152 130.878 149.706387"></polygon>
                <polygon id="Fill-241" fill="#C1CBD6" points="90.878 150 90.122 150 90.122 150.253165 90.122 152 90.878 152 90.878 150.253165"></polygon>
                <path d="M44.5994371,158.018473 C44.5994371,159.023399 44.9526266,159.594828 45.4971857,159.594828 C46.1092871,159.594828 46.4005629,158.970443 46.4005629,157.982759 C46.4005629,157.029557 46.1233583,156.403941 45.5042214,156.403941 C44.9807692,156.403941 44.5994371,156.964286 44.5994371,158.018473 M47,157.958128 C47,159.274631 46.4427767,160 45.4620075,160 C44.5994371,160 44.0140713,159.291872 44,158.012315 C44,156.714286 44.6388368,156 45.5379925,156 C46.4695122,156 47,156.726601 47,157.958128" id="Fill-243" fill="#C1CBD6"></path>
                <path d="M48,159.610558 C48,159.378191 48.121,159.214626 48.29,159.214626 C48.459,159.214626 48.57,159.378191 48.575,159.610558 C48.575,159.829944 48.464,160 48.285,160 C48.116,160 48,159.829944 48,159.610558 M48,157.395932 C48,157.163566 48.121,157 48.29,157 C48.459,157 48.57,157.163566 48.575,157.395932 C48.575,157.615318 48.464,157.785374 48.285,157.785374 C48.116,157.785374 48,157.615318 48,157.395932" id="Fill-245" fill="#C1CBD6"></path>
                <polygon id="Fill-247" fill="#C1CBD6" points="50.6091516 156.504298 50.5996187 156.504298 50.0781697 156.879975 50 156.467367 50.6549094 156 51 156 51 160 50.6091516 160"></polygon>
                <polygon id="Fill-249" fill="#C1CBD6" points="55 156 55 156.356461 52.9293643 160 52.2618567 160 54.3264379 156.460853 54.3264379 156.449395 52 156.449395 52 156"></polygon>
                <path d="M98.8253972,24 L261.174603,24 C264.392467,24 267,26.6113308 267,29.8338807 L267,73.2717236 C267,76.4942736 264.392467,79.1056044 261.174603,79.1056044 L174.007726,79.1056044 C173.276393,79.1056044 172.662074,79.6555685 172.580962,80.3826396 L171.885532,86.5614131 C171.842981,86.9395967 171.408171,87.1286885 171.10367,86.902311 L166.108003,83.2110265 L162.524473,80.56241 C161.243976,79.6169511 159.694881,79.1056044 158.104565,79.1056044 L98.8253972,79.1056044 C95.6088631,79.1056044 93,76.4942736 93,73.2717236 L93,29.8338807 C93,26.6113308 95.6088631,24 98.8253972,24" id="Fill-251" fill="#FFFFFF"></path>
                <path d="M142,51.5 C142,61.7172041 133.718521,70 123.5,70 C113.282796,70 105,61.7172041 105,51.5 C105,41.2814791 113.282796,33 123.5,33 C133.718521,33 142,41.2814791 142,51.5" id="Fill-253" fill="#0096FF"></path>
                <path d="M130.70971,52.5481631 L120.089932,59.87385 C119.632994,60.1914489 119,59.872543 119,59.3275276 L119,44.6735398 C119,44.1285243 119.632994,43.8083115 120.089932,44.1259104 L130.70971,51.4515973 C131.096763,51.7195305 131.096763,52.2802298 130.70971,52.5481631" id="Fill-255" fill="#F1F5F9"></path>
                <polygon id="Fill-257" fill="#C1CBD6" points="180.9715 47 180.0285 47 180.0285 56.0164727 180.0285 59 180.9715 59 180.9715 56.0164727"></polygon>
                <polygon id="Fill-259" fill="#C1CBD6" points="177.9715 44 177.0285 44 177.0285 55.9501795 177.0285 59 177.9715 59 177.9715 55.9501795"></polygon>
                <polygon id="Fill-261" fill="#C1CBD6" points="174.971 42 174.029 42 174.029 56.0180522 174.029 59 174.971 59 174.971 56.0180522"></polygon>
                <polygon id="Fill-263" fill="#C1CBD6" points="171.9715 41 171.0285 41 171.0285 56.0190831 171.0285 59 171.9715 59 171.9715 56.0190831"></polygon>
                <polygon id="Fill-265" fill="#C1CBD6" points="168.971 43 168.029 43 168.029 56.0000828 168.029 59 168.971 59 168.971 56.0000828"></polygon>
                <polygon id="Fill-267" fill="#C1CBD6" points="165.971 44 165.029 44 165.029 56.0047606 165.029 59 165.971 59 165.971 56.0047606"></polygon>
                <polygon id="Fill-269" fill="#C1CBD6" points="161.9715 42 161.0285 42 161.0285 55.0680696 161.0285 58 161.9715 58 161.9715 55.0680696"></polygon>
                <polygon id="Fill-271" fill="#C1CBD6" points="158.971 46 158.029 46 158.029 55.0899358 158.029 58 158.971 58 158.971 55.0899358"></polygon>
                <polygon id="Fill-273" fill="#C1CBD6" points="155.971 48 155.029 48 155.029 55.1146497 155.029 58 155.971 58 155.971 55.1146497"></polygon>
                <polygon id="Fill-275" fill="#C1CBD6" points="152.9715 50 152.0285 50 152.0285 55.9033875 152.0285 59 152.9715 59 152.9715 55.9033875"></polygon>
                <polygon id="Fill-277" fill="#C1CBD6" points="149.971 52 149.029 52 149.029 55.7906035 149.029 59 149.971 59 149.971 55.7906035"></polygon>
                <polygon id="Fill-279" fill="#C1CBD6" points="230.9715 49 230.0285 49 230.0285 55.89641 230.0285 59 230.9715 59 230.9715 55.89641"></polygon>
                <polygon id="Fill-281" fill="#C1CBD6" points="227.971 45 227.029 45 227.029 55.9739479 227.029 59 227.971 59 227.971 55.9739479"></polygon>
                <polygon id="Fill-283" fill="#C1CBD6" points="224.971 47 224.029 47 224.029 55.0458857 224.029 58 224.971 58 224.971 55.0458857"></polygon>
                <polygon id="Fill-285" fill="#C1CBD6" points="221.9715 47 221.0285 47 221.0285 56.0164727 221.0285 59 221.9715 59 221.9715 56.0164727"></polygon>
                <polygon id="Fill-287" fill="#C1CBD6" points="218.971 50 218.029 50 218.029 55.9033875 218.029 59 218.971 59 218.971 55.9033875"></polygon>
                <polygon id="Fill-289" fill="#C1CBD6" points="215.971 48 215.029 48 215.029 55.1146497 215.029 58 215.971 58 215.971 55.1146497"></polygon>
                <polygon id="Fill-291" fill="#C1CBD6" points="212.9715 50 212.0285 50 212.0285 55.1309995 212.0285 58 212.9715 58 212.9715 55.1309995"></polygon>
                <polygon id="Fill-293" fill="#C1CBD6" points="208.971 52 208.029 52 208.029 55.7906035 208.029 59 208.971 59 208.971 55.7906035"></polygon>
                <polygon id="Fill-295" fill="#C1CBD6" points="202.971 54 202.029 54 202.029 56.0530835 202.029 59 202.971 59 202.971 56.0530835"></polygon>
                <polygon id="Fill-297" fill="#C1CBD6" points="199.971 50 199.029 50 199.029 55.9033875 199.029 59 199.971 59 199.971 55.9033875"></polygon>
                <polygon id="Fill-299" fill="#C1CBD6" points="196.9715 47 196.0285 47 196.0285 55.9211242 196.0285 59 196.9715 59 196.9715 55.9211242"></polygon>
                <polygon id="Fill-301" fill="#C1CBD6" points="193.971 45 193.029 45 193.029 55.9739479 193.029 59 193.971 59 193.971 55.9739479"></polygon>
                <polygon id="Fill-303" fill="#C1CBD6" points="190.971 43 190.029 43 190.029 55.0451383 190.029 58 190.971 58 190.971 55.0451383"></polygon>
                <polygon id="Fill-305" fill="#C1CBD6" points="186.9715 45 186.0285 45 186.0285 55.9739479 186.0285 59 186.9715 59 186.9715 55.9739479"></polygon>
                <polygon id="Fill-307" fill="#C1CBD6" points="183.971 49 183.029 49 183.029 55.89641 183.029 59 183.971 59 183.971 55.89641"></polygon>
                <polygon id="Fill-309" fill="#C1CBD6" points="234.971 52 234.029 52 234.029 55.7906035 234.029 59 234.971 59 234.971 55.7906035"></polygon>
                <polygon id="Fill-311" fill="#C1CBD6" points="237.9715 50 237.0285 50 237.0285 55.9033875 237.0285 59 237.9715 59 237.9715 55.9033875"></polygon>
                <polygon id="Fill-313" fill="#C1CBD6" points="240.9715 47 240.0285 47 240.0285 55.0458857 240.0285 58 240.9715 58 240.9715 55.0458857"></polygon>
                <polygon id="Fill-315" fill="#C1CBD6" points="243.971 47 243.029 47 243.029 56.0164727 243.029 59 243.971 59 243.971 56.0164727"></polygon>
                <polygon id="Fill-317" fill="#C1CBD6" points="246.9715 50 246.0285 50 246.0285 55.9033875 246.0285 59 246.9715 59 246.9715 55.9033875"></polygon>
                <polygon id="Fill-319" fill="#C1CBD6" points="249.971 48 249.029 48 249.029 55.1146497 249.029 58 249.971 58 249.971 55.1146497"></polygon>
                <polygon id="Fill-321" fill="#C1CBD6" points="252.971 50 252.029 50 252.029 55.1309995 252.029 58 252.971 58 252.971 55.1309995"></polygon>
                <polygon id="Fill-323" fill="#C1CBD6" points="256.9715 52 256.0285 52 256.0285 55.7906035 256.0285 59 256.9715 59 256.9715 55.7906035"></polygon>
                <polygon id="Fill-325" fill="#C1CBD6" points="205.9715 56 205.0285 56 205.0285 56.3788079 205.0285 59 205.9715 59 205.9715 56.3788079"></polygon>
                <path d="M148.797592,65.5228339 C148.797592,66.780548 149.268623,67.4939521 149.995485,67.4939521 C150.811136,67.4939521 151.202408,66.7126635 151.202408,65.4771661 C151.202408,64.2873365 150.8307,63.5060479 150.004515,63.5060479 C149.306245,63.5060479 148.797592,64.2058751 148.797592,65.5228339 M152,65.4475438 C152,67.0915823 151.256584,68 149.950339,68 C148.797592,68 148.016554,67.1137991 148,65.514194 C148,63.8936065 148.851768,63 150.049661,63 C151.291196,63 152,63.9071834 152,65.4475438" id="Fill-327" fill="#C1CBD6"></path>
                <path d="M153,68.480916 C153,68.1714087 153.151,67.9535045 153.362,67.9535045 C153.573,67.9535045 153.712,68.1714087 153.718,68.480916 C153.718,68.7737682 153.579,69 153.356,69 C153.146,69 153,68.7737682 153,68.480916 M153,65.5274115 C153,65.2179042 153.151,65 153.362,65 C153.573,65 153.712,65.2179042 153.718,65.5274115 C153.718,65.8202637 153.579,66.0464955 153.356,66.0464955 C153.146,66.0464955 153,65.8202637 153,65.5274115" id="Fill-329" fill="#C1CBD6"></path>
                <polygon id="Fill-331" fill="#C1CBD6" points="156.217125 63.6304237 156.197248 63.6304237 155.157492 64.100051 155 63.5844819 156.308869 63 157 63 157 68 156.217125 68"></polygon>
                <polygon id="Fill-333" fill="#C1CBD6" points="162 63 162 63.4466565 159.928774 68 159.263456 68 161.326184 63.5768249 161.326184 63.561511 159 63.561511 159 63"></polygon>
                <path d="M536.672732,26 L360.327268,26 C356.832548,26 354,28.8187758 354,32.2965035 L354,79.1815226 C354,82.6592502 356.832548,85.478026 360.327268,85.478026 L507.998174,85.478026 C508.790915,85.478026 509.458416,86.0720108 509.547682,86.8555933 L510.303117,93.5273148 C510.348417,93.9330276 510.821396,94.1385358 511.151816,93.8959036 L516.578425,89.9090462 L520.470181,87.0504946 C521.861141,86.0295833 523.543883,85.478026 525.270591,85.478026 L536.672732,85.478026 C540.167452,85.478026 543,82.6592502 543,79.1815226 L543,32.2965035 C543,28.8187758 540.167452,26 536.672732,26" id="Fill-335" fill="#FFFFFF"></path>
                <path d="M407,56.5 C407,67.822784 397.822784,77 386.501346,77 C375.178562,77 366,67.822784 366,56.5 C366,45.178562 375.178562,36 386.501346,36 C397.822784,36 407,45.178562 407,56.5" id="Fill-337" fill="#0096FF"></path>
                <polygon id="Fill-339" fill="#0096FF" points="450 55 449 55 449 61.0091066 449 63 450 63 450 61.0091066"></polygon>
                <polygon id="Fill-341" fill="#0096FF" points="446 53 445 53 445 60.9658624 445 63 446 63 446 60.9658624"></polygon>
                <polygon id="Fill-343" fill="#0096FF" points="443 52 442 52 442 61.8932211 442 64 443 64 443 61.8932211"></polygon>
                <polygon id="Fill-345" fill="#0096FF" points="439 51 438 51 438 61.8460171 438 64 439 64 439 61.8460171"></polygon>
                <polygon id="Fill-347" fill="#0096FF" points="436 52 435 52 435 60.9354648 435 63 436 63 436 60.9354648"></polygon>
                <polygon id="Fill-349" fill="#0096FF" points="433 53 432 53 432 61.8024956 432 64 433 64 433 61.8024956"></polygon>
                <polygon id="Fill-351" fill="#0096FF" points="429 52 428 52 428 61.7991206 428 64 429 64 429 61.7991206"></polygon>
                <polygon id="Fill-353" fill="#0096FF" points="426 55 425 55 425 61.8161359 425 64 426 64 426 61.8161359"></polygon>
                <polygon id="Fill-355" fill="#0096FF" points="422 56 421 56 421 60.9790528 421 63 422 63 422 60.9790528"></polygon>
                <polygon id="Fill-357" fill="#0096FF" points="419 57 418 57 418 60.9357081 418 63 419 63 419 60.9357081"></polygon>
                <polygon id="Fill-359" fill="#0096FF" points="416 59 415 59 415 61.7062229 415 64 416 64 416 61.7062229"></polygon>
                <polygon id="Fill-361" fill="#C1CBD6" points="504 57 503 57 503 61.8275862 503 64 504 64 504 61.8275862"></polygon>
                <polygon id="Fill-363" fill="#C1CBD6" points="501 54 500 54 500 61.8373584 500 64 501 64 501 61.8373584"></polygon>
                <polygon id="Fill-365" fill="#C1CBD6" points="497 56 496 56 496 61.8504831 496 64 497 64 497 61.8504831"></polygon>
                <polygon id="Fill-367" fill="#C1CBD6" points="494 55 493 55 493 61.0091066 493 63 494 63 494 61.0091066"></polygon>
                <polygon id="Fill-369" fill="#C1CBD6" points="490 57 489 57 489 60.9357081 489 63 490 63 490 60.9357081"></polygon>
                <polygon id="Fill-371" fill="#C1CBD6" points="487 56 486 56 486 60.9790528 486 63 487 63 487 60.9790528"></polygon>
                <polygon id="Fill-373" fill="#C1CBD6" points="484 58 483 58 483 61.8464674 483 64 484 64 484 61.8464674"></polygon>
                <polygon id="Fill-375" fill="#C1CBD6" points="480 59 479 59 479 61.7062229 479 64 480 64 480 61.7062229"></polygon>
                <polygon id="Fill-377" fill="#C1CBD6" points="473 60 472 60 472 61.6428571 472 64 473 64 473 61.6428571"></polygon>
                <polygon id="Fill-379" fill="#C1CBD6" points="470 57 469 57 469 60.9357081 469 63 470 63 470 60.9357081"></polygon>
                <polygon id="Fill-381" fill="#C1CBD6" points="467 55 466 55 466 60.9455606 466 63 467 63 467 60.9455606"></polygon>
                <polygon id="Fill-383" fill="#0096FF" points="463 54 462 54 462 61.8373584 462 64 463 64 463 61.8373584"></polygon>
                <polygon id="Fill-385" fill="#0096FF" points="460 53 459 53 459 61.832007 459 64 460 64 460 61.832007"></polygon>
                <polygon id="Fill-387" fill="#0096FF" points="456 54 455 54 455 61.8373584 455 64 456 64 456 61.8373584"></polygon>
                <polygon id="Fill-389" fill="#0096FF" points="453 57 452 57 452 61.8275862 452 64 453 64 453 61.8275862"></polygon>
                <polygon id="Fill-391" fill="#C1CBD6" points="507 59 506 59 506 61.7062229 506 64 507 64 507 61.7062229"></polygon>
                <polygon id="Fill-393" fill="#C1CBD6" points="511 57 510 57 510 60.9357081 510 63 511 63 511 60.9357081"></polygon>
                <polygon id="Fill-395" fill="#C1CBD6" points="514 56 513 56 513 61.8504831 513 64 514 64 514 61.8504831"></polygon>
                <polygon id="Fill-397" fill="#C1CBD6" points="518 55 517 55 517 61.0091066 517 63 518 63 518 61.0091066"></polygon>
                <polygon id="Fill-399" fill="#C1CBD6" points="521 57 520 57 520 60.9357081 520 63 521 63 521 60.9357081"></polygon>
                <polygon id="Fill-401" fill="#C1CBD6" points="524 56 523 56 523 60.9790528 523 63 524 63 524 60.9790528"></polygon>
                <polygon id="Fill-403" fill="#C1CBD6" points="528 58 527 58 527 61.8464674 527 64 528 64 528 61.8464674"></polygon>
                <polygon id="Fill-405" fill="#C1CBD6" points="531 59 530 59 530 61.7062229 530 64 531 64 531 61.7062229"></polygon>
                <polygon id="Fill-407" fill="#C1CBD6" points="477 61 476 61 476 61.2536278 476 63 477 63 477 61.2536278"></polygon>
                <path d="M385.073573,65 L382.925107,65 C382.413065,65 382,64.5791217 382,64.0590554 L382,48.9422849 C382,48.4222187 382.413065,48 382.925107,48 L385.073573,48 C385.585615,48 386,48.4222187 386,48.9422849 L386,64.0590554 C386,64.5791217 385.585615,65 385.073573,65" id="Fill-409" fill="#FFFFFF"></path>
                <path d="M391.073879,65 L388.926121,65 C388.414248,65 388,64.5791217 388,64.0590554 L388,48.9422849 C388,48.4222187 388.414248,48 388.926121,48 L391.073879,48 C391.585752,48 392,48.4222187 392,48.9422849 L392,64.0590554 C392,64.5791217 391.585752,65 391.073879,65" id="Fill-411" fill="#FFFFFF"></path>
                <path d="M414.798057,72.0266454 C414.798057,73.5351856 415.269951,74.3919381 415.994448,74.3919381 C416.810548,74.3919381 417.200555,73.4545662 417.200555,71.9733546 C417.200555,70.5440674 416.829979,69.6066955 416.004164,69.6066955 C415.306037,69.6066955 414.798057,70.4470508 414.798057,72.0266454 M418,71.9378274 C418,73.9109542 417.256072,75 415.950035,75 C414.798057,75 414.018043,73.9369164 414,72.0170804 C414,70.0712822 414.852186,69 416.048577,69 C417.292158,69 418,70.0890458 418,71.9378274" id="Fill-413" fill="#C1CBD6"></path>
                <path d="M419,73.481268 C419,73.1725905 419.164,72.9548511 419.393,72.9548511 C419.621,72.9548511 419.771,73.1725905 419.778,73.481268 C419.778,73.7745757 419.628,74 419.386,74 C419.157,74 419,73.7745757 419,73.481268 M419,70.5264169 C419,70.2177394 419.164,70 419.393,70 C419.621,70 419.771,70.2177394 419.778,70.5264169 C419.778,70.8197246 419.628,71.0464297 419.386,71.0464297 C419.157,71.0464297 419,70.8197246 419,70.5264169" id="Fill-415" fill="#C1CBD6"></path>
                <polygon id="Fill-417" fill="#C1CBD6" points="422.215797 69.7570621 422.197461 69.7570621 421.156559 70.319209 421 69.7019774 422.307475 69 423 69 423 75 422.215797 75"></polygon>
                <path d="M425,74 L425,73.5082195 L425.663717,72.9011345 C427.264012,71.4674693 427.986726,70.7047928 427.995575,69.8143089 C427.995575,69.2155592 427.687316,68.6612642 426.753687,68.6612642 C426.184366,68.6612642 425.712389,68.9349386 425.423304,69.1613799 L425.153392,68.5987497 C425.587021,68.2528363 426.20354,68 426.927729,68 C428.277286,68 428.843658,68.871035 428.843658,69.7142857 C428.843658,70.8034267 428.0059,71.6841862 426.687316,72.8816856 L426.184366,73.3192869 L426.184366,73.3359574 L429,73.3359574 L429,74 L425,74 Z" id="Fill-419" fill="#C1CBD6"></path>
                <polygon id="Fill-421" fill="#CCCCCC" points="273.165992 24 276 31.5422535 258.83662 38 256 30.4590788"></polygon>
                <g id="Group-425" transform="translate(266.000000, 0.000000)">
                    <mask id="mask-6" fill="white">
                        <use xlink:href="#path-5"></use>
                    </mask>
                    <g id="Clip-424"></g>
                    <path d="M62.4605333,0.233866667 C62.9672,0.0405333333 63.5405333,0.296533333 63.7325333,0.801866667 L67.7432,11.2578667 C67.9365333,11.7618667 67.6818667,12.3352 67.1765333,12.5298667 L6.2752,35.5752 C5.76853333,35.7698667 5.19653333,35.5152 5.00186667,35.0085333 L0.9912,24.5538667 C0.797866667,24.0485333 1.05253333,23.4752 1.5592,23.2805333 L62.4605333,0.233866667 Z" id="Fill-423" fill="#545671" mask="url(#mask-6)"></path>
                </g>
                <path d="M251.031028,47.19379 C250.648018,62.4002023 238.011339,74.4166343 222.806239,74.0336246 C207.599814,73.650615 195.584698,61.0139458 195.967708,45.8088587 C196.350718,30.6024464 208.986072,18.5873396 224.191172,18.9703493 C239.397597,19.3520337 251.414038,31.9887029 251.031028,47.19379 M186.012098,45.5583783 C185.491258,66.2621062 201.852014,83.4670605 222.555759,83.9879007 C243.259504,84.5087409 260.465797,68.1493235 260.987963,47.4442703 C261.507479,26.7392171 245.145397,9.53426288 224.442978,9.01209742 C203.737907,8.49125725 186.532939,24.8533252 186.012098,45.5583783" id="Fill-426" fill="#545671"></path>
            </g>
        </g>
    </g>
</svg>