<svg xmlns="http://www.w3.org/2000/svg" xmlns:xlink="http://www.w3.org/1999/xlink" width="120" height="88" viewBox="0 0 120 88">
    <defs>
        <path id="prefix__a" d="M0 0.842L119.823 0.842 119.823 58.666 0 58.666z"/>
    </defs>
    <g fill="none" fill-rule="evenodd">
        <g transform="translate(0 29.107)">
            <mask id="prefix__b" fill="#fff">
                <use xlink:href="#prefix__a"/>
            </mask>
            <path fill="#F6F6F6" d="M114.46.842H5.363C2.401.842 0 3.24 0 6.197v39.87C0 49.023 2.4 51.42 5.363 51.42h32.516c.674 0 1.238.505 1.313 1.172l.642 5.671c.039.347.438.521.72.314l4.6-3.389 3.3-2.43c1.178-.869 2.605-1.338 4.069-1.338h61.937c2.962 0 5.363-2.397 5.363-5.353V6.197c0-2.957-2.4-5.355-5.363-5.355" mask="url(#prefix__b)"/>
        </g>
        <path fill="#FF3453" d="M40.381 52.237L39.125 52.237 39.125 61.339 39.125 64.354 40.381 64.354 40.381 61.339zM37.238 49.53L35.982 49.53 35.982 61.339 35.982 64.354 37.238 64.354 37.238 61.339zM34.097 47.178L32.839 47.178 32.839 61.339 32.839 64.354 34.097 64.354 34.097 61.339zM30.954 46.154L29.698 46.154 29.698 61.339 29.698 64.354 30.954 64.354 30.954 61.339zM27.812 48.286L26.556 48.286 26.556 61.339 26.556 64.353 27.812 64.353 27.812 61.339zM24.669 49.26L23.413 49.26 23.413 61.339 23.413 64.354 24.669 64.354 24.669 61.339zM21.527 47.912L20.271 47.912 20.271 61.338 20.271 64.354 21.527 64.354 21.527 61.338zM18.386 51.925L17.129 51.925 17.129 61.339 17.129 64.354 18.386 64.354 18.386 61.339zM15.243 53.908L13.987 53.908 13.987 61.339 13.987 64.354 15.243 64.354 15.243 61.339zM12.101 55.593L10.844 55.593 10.844 61.339 10.844 64.354 12.101 64.354 12.101 61.339zM8.958 57.781L7.702 57.781 7.702 61.339 7.702 64.354 8.958 64.354 8.958 61.339zM90.658 54.642L89.402 54.642 89.402 61.338 89.402 64.354 90.658 64.354 90.658 61.338zM87.515 50.411L86.259 50.411 86.259 61.338 86.259 64.354 87.515 64.354 87.515 61.338zM84.373 53.131L83.117 53.131 83.117 61.339 83.117 64.354 84.373 64.354 84.373 61.339zM81.23 52.237L79.974 52.237 79.974 61.339 79.974 64.354 81.23 64.354 81.23 61.339zM78.089 55.593L76.831 55.593 76.831 61.339 76.831 64.354 78.089 64.354 78.089 61.339zM74.946 53.908L73.69 53.908 73.69 61.339 73.69 64.354 74.946 64.354 74.946 61.339zM71.804 55.951L70.548 55.951 70.548 61.339 70.548 64.354 71.804 64.354 71.804 61.339zM68.661 57.781L67.405 57.781 67.405 61.339 67.405 64.354 68.661 64.354 68.661 61.339zM62.378 59.239L61.121 59.239 61.121 61.339 61.121 64.354 62.378 64.354 62.378 61.339zM59.235 55.593L57.979 55.593 57.979 61.339 57.979 64.354 59.235 64.354 59.235 61.339zM56.092 52.611L54.836 52.611 54.836 61.339 54.836 64.353 56.092 64.353 56.092 61.339zM52.95 50.411L51.694 50.411 51.694 61.338 51.694 64.354 52.95 64.354 52.95 61.338zM49.807 49.053L48.551 49.053 48.551 61.339 48.551 64.354 49.807 64.354 49.807 61.339zM46.666 50.411L45.41 50.411 45.41 61.338 45.41 64.354 46.666 64.354 46.666 61.338zM43.524 54.642L42.267 54.642 42.267 61.338 42.267 64.354 43.524 64.354 43.524 61.338zM93.799 57.781L92.543 57.781 92.543 61.339 92.543 64.354 93.799 64.354 93.799 61.339zM96.942 55.593L95.686 55.593 95.686 61.339 95.686 64.354 96.942 64.354 96.942 61.339zM100.084 53.131L98.828 53.131 98.828 61.339 98.828 64.354 100.084 64.354 100.084 61.339zM103.227 52.237L101.971 52.237 101.971 61.339 101.971 64.354 103.227 64.354 103.227 61.339zM106.369 55.593L105.112 55.593 105.112 61.339 105.112 64.354 106.369 64.354 106.369 61.339zM109.511 53.908L108.254 53.908 108.254 61.339 108.254 64.354 109.511 64.354 109.511 61.339zM112.653 55.951L111.397 55.951 111.397 61.339 111.397 64.354 112.653 64.354 112.653 61.339zM115.796 57.781L114.54 57.781 114.54 61.339 114.54 64.354 115.796 64.354 115.796 61.339zM65.519 61.339L64.263 61.339 64.263 61.72 64.263 64.354 65.519 64.354 65.519 61.72z"/>
        <path fill="#CCC" d="M74.197 17.296L76.307 22.787 63.533 27.489 61.422 21.999z"/>
        <path fill="#545671" d="M114.647.048c.37-.141.787.044.928.411l2.923 7.609c.142.368-.046.784-.413.925l-44.397 16.77c-.369.142-.787-.044-.929-.413l-2.922-7.606c-.142-.368.044-.786.413-.926L114.647.048zM57.824 34.396c-.28 11.131-9.549 19.929-20.7 19.647-11.154-.278-19.965-9.53-19.684-20.661.28-11.132 9.548-19.929 20.7-19.647 11.152.28 19.964 9.53 19.684 20.661m-47.685-1.198c-.384 15.157 11.616 27.752 26.8 28.132 15.185.383 27.805-11.594 28.187-26.75.382-15.157-11.618-27.753-26.803-28.135C23.139 6.063 10.52 18.04 10.139 33.198"/>
        <path fill="#C1CBD6" d="M103.599 71.21c0 1.245.382 1.953.973 1.953.665 0 .982-.774.982-1.997 0-1.18-.302-1.953-.973-1.953-.57 0-.982.694-.982 1.997m2.604-.075c0 1.63-.605 2.528-1.667 2.528-.937 0-1.573-.877-1.587-2.46 0-1.607.694-2.49 1.667-2.49 1.012 0 1.587.898 1.587 2.422M106.855 73.207c0-.273.184-.465.442-.465.26 0 .43.192.437.465 0 .257-.17.455-.444.455-.257 0-.435-.198-.435-.455m0-2.601c0-.273.184-.465.442-.465.26 0 .43.192.437.465 0 .258-.17.457-.444.457-.257 0-.435-.2-.435-.457M109.742 69.398L109.727 69.398 108.893 69.846 108.767 69.354 109.816 68.794 110.37 68.794 110.37 73.583 109.742 73.583zM115.235 68.794L115.235 69.222 113.146 73.583 112.474 73.583 114.555 69.346 114.555 69.331 112.208 69.331 112.208 68.794z"/>
    </g>
</svg>
