<?xml version="1.0" encoding="UTF-8"?>
<svg width="110px" height="110px" viewBox="0 0 110 110" version="1.1" xmlns="http://www.w3.org/2000/svg" xmlns:xlink="http://www.w3.org/1999/xlink">
    <!-- Generator: sketchtool 53.2 (72643) - https://sketchapp.com -->
    <title>C16D194E-E024-4EF3-870B-EE1C75675D07</title>
    <desc>Created with sketchtool.</desc>
    <g id="Desktop" stroke="none" stroke-width="1" fill="none" fill-rule="evenodd">
        <g id="Servicio-al-cliente" transform="translate(-1025.000000, -1892.000000)">
            <g id="SpeechAnalytics" transform="translate(1025.000000, 1892.000000)">
                <circle id="Oval-Copy-4" fill="#F9F9F9" cx="55" cy="55" r="55"></circle>
                <g id="levels-copy" transform="translate(28.000000, 35.000000)" fill="#DC3B41" stroke-width="1">
                    <g id="levels">
                        <path d="M3.68181818,19 L1.22727273,19 C0.549818182,19 0,19.6705 0,20.5 C0,21.3295 0.549818182,22 1.22727273,22 L3.68181818,22 C4.35927273,22 4.90909091,21.3295 4.90909091,20.5 C4.90909091,19.6705 4.35927273,19 3.68181818,19 Z M52.7727273,19 L50.3181818,19 C49.6407273,19 49.0909091,19.6705 49.0909091,20.5 C49.0909091,21.3295 49.6407273,22 50.3181818,22 L52.7727273,22 C53.4501818,22 54,21.3295 54,20.5 C54,19.6705 53.4501818,19 52.7727273,19 Z" id="Shape" fill-rule="nonzero"></path>
                        <path d="M44.7666667,10 C44.0858667,10 43.5333333,10.55875 43.5333333,11.25 L43.5333333,28.75 C43.5333333,29.44125 44.0858667,30 44.7666667,30 C45.4474667,30 46,29.44125 46,28.75 L46,11.25 C46,10.55875 45.4474667,10 44.7666667,10 Z M20.1,10 C19.4192,10 18.8666667,10.55875 18.8666667,11.25 L18.8666667,28.75 C18.8666667,29.44125 19.4192,30 20.1,30 C20.7808,30 21.3333333,29.44125 21.3333333,28.75 L21.3333333,11.25 C21.3333333,10.55875 20.7808,10 20.1,10 Z M10.2333333,15 C9.55253333,15 9,15.55875 9,16.25 L9,23.75 C9,24.44125 9.55253333,25 10.2333333,25 C10.9141333,25 11.4666667,24.44125 11.4666667,23.75 L11.4666667,16.25 C11.4666667,15.55875 10.9141333,15 10.2333333,15 Z M39.8333333,5 C39.1525333,5 38.6,5.55875 38.6,6.25 L38.6,33.75 C38.6,34.44125 39.1525333,35 39.8333333,35 C40.5141333,35 41.0666667,34.44125 41.0666667,33.75 L41.0666667,6.25 C41.0666667,5.55875 40.5141333,5 39.8333333,5 Z M29.9666667,5 C29.2858667,5 28.7333333,5.55875 28.7333333,6.25 L28.7333333,33.75 C28.7333333,34.44125 29.2858667,35 29.9666667,35 C30.6474667,35 31.2,34.44125 31.2,33.75 L31.2,6.25 C31.2,5.55875 30.6474667,5 29.9666667,5 Z M15.1666667,5 C14.4858667,5 13.9333333,5.55875 13.9333333,6.25 L13.9333333,33.75 C13.9333333,34.44125 14.4858667,35 15.1666667,35 C15.8474667,35 16.4,34.44125 16.4,33.75 L16.4,6.25 C16.4,5.55875 15.8474667,5 15.1666667,5 Z M34.9,0 C34.2192,0 33.6666667,0.55875 33.6666667,1.25 L33.6666667,38.75 C33.6666667,39.44125 34.2192,40 34.9,40 C35.5808,40 36.1333333,39.44125 36.1333333,38.75 L36.1333333,1.25 C36.1333333,0.55875 35.5808,0 34.9,0 Z M25.0333333,0 C24.3525333,0 23.8,0.55875 23.8,1.25 L23.8,38.75 C23.8,39.44125 24.3525333,40 25.0333333,40 C25.7141333,40 26.2666667,39.44125 26.2666667,38.75 L26.2666667,1.25 C26.2666667,0.55875 25.7141333,0 25.0333333,0 Z" id="Shape" fill-rule="nonzero"></path>
                    </g>
                </g>
            </g>
        </g>
    </g>
</svg>