<svg xmlns="http://www.w3.org/2000/svg" width="80" height="80" viewBox="0 0 80 80">
    <g fill="none" fill-rule="evenodd">
        <circle cx="40" cy="40" r="40" fill="#00DC87"/>
        <g fill="#FFF" fill-rule="nonzero">
            <path d="M55.941 23.444A20.828 20.828 0 0 0 39.971 16c-11.503.032-20.803 9.374-20.77 20.866.031 11.491 9.383 20.781 20.887 20.75 1.18-.004 2.359-.108 3.522-.31l8.012 7.228a1.035 1.035 0 0 0 1.726-.764V52.74c8.815-7.375 9.976-20.492 2.593-29.297zM51.673 51.44a1.032 1.032 0 0 0-.392.806v9.19l-6.658-6.02a1.034 1.034 0 0 0-.692-.269h-.207c-10.153 2.07-20.063-4.473-22.136-14.615C19.516 30.39 26.066 20.49 36.22 18.42c10.153-2.07 20.063 4.473 22.136 14.615.253 1.242.38 2.506.379 3.773a18.652 18.652 0 0 1-7.06 14.632z"/>
            <path d="M48.62 30.497a5.833 5.833 0 0 0-3.965-1.697 6.906 6.906 0 0 0-4.65 2.167 6.906 6.906 0 0 0-4.65-2.167 5.844 5.844 0 0 0-3.975 1.697 5.363 5.363 0 0 0-1.696 4.928c.697 4.805 6.16 9.836 9.853 11.666.294.145.642.145.936 0 3.693-1.83 9.156-6.86 9.842-11.666a5.353 5.353 0 0 0-1.696-4.928zm-.365 4.621c-.489 3.425-4.65 7.904-8.25 9.887-3.6-1.983-7.762-6.462-8.25-9.887a3.328 3.328 0 0 1 1.04-3.149 3.826 3.826 0 0 1 2.56-1.155c2.08 0 3.786 2.25 3.797 2.27a1.052 1.052 0 0 0 1.696 0s1.706-2.27 3.797-2.27a3.826 3.826 0 0 1 2.56 1.155 3.329 3.329 0 0 1 1.05 3.15z"/>
        </g>
    </g>
</svg>
