<?xml version="1.0" encoding="UTF-8"?>
<svg width="30px" height="30px" viewBox="0 0 30 30" version="1.1" xmlns="http://www.w3.org/2000/svg" xmlns:xlink="http://www.w3.org/1999/xlink">
    <!-- Generator: sketchtool 53.2 (72643) - https://sketchapp.com -->
    <title>F1DD0FE9-B0B2-4053-983E-726C9A2484EB</title>
    <desc>Created with sketchtool.</desc>
    <g id="Desktop" stroke="none" stroke-width="1" fill="none" fill-rule="evenodd">
        <g id="mkt-y-ventas" transform="translate(-1135.000000, -2719.000000)" fill="#FFFFFF" fill-rule="nonzero">
            <g id="tw" transform="translate(1135.000000, 2719.000000)">
                <path d="M15,0 C6.72903408,0 0,6.72903408 0,15 C0,23.2703617 6.72903408,30 15,30 C23.2703617,30 30,23.2703617 30,15 C30,6.72903408 23.2715701,0 15,0 Z M21.8183007,11.2357575 C21.8250719,11.3832796 21.8287653,11.532001 21.8287653,11.6807224 C21.8287653,16.2089296 18.2917314,21.4285714 11.8203013,21.4285714 C9.83387452,21.4285714 7.98471861,20.8630703 6.42857143,19.8903842 C6.70372878,19.9221674 6.98381065,19.9383589 7.26758591,19.9383589 C8.91606777,19.9383589 10.4322033,19.3902485 11.6362475,18.471534 C10.0973361,18.4439486 8.79787938,17.4532721 8.35036395,16.0913917 C8.56458042,16.1309708 8.78556809,16.1531591 9.01148028,16.1531591 C9.33218941,16.1531591 9.64366507,16.1123806 9.93852049,16.0338221 C8.32943476,15.7195882 7.11738816,14.3349199 7.11738816,12.6737976 C7.11738816,12.6594052 7.11738816,12.6444132 7.11800372,12.6306205 C7.59198843,12.8866851 8.1343008,13.0414034 8.71046921,13.0587942 C7.76742432,12.4453184 7.14631969,11.3958729 7.14631969,10.207301 C7.14631969,9.57883308 7.31929333,8.98994426 7.62215109,8.48381171 C9.35619643,10.5575159 11.9489543,11.9211953 14.8716548,12.0651193 C14.8113295,11.813852 14.7811668,11.5529899 14.7811668,11.2837322 C14.7811668,9.39173195 16.3557809,7.85714286 18.2978871,7.85714286 C19.3098752,7.85714286 20.2227574,8.27332294 20.8654068,8.9389712 C21.6674874,8.78545232 22.4184762,8.50120252 23.0999061,8.10721072 C22.8352134,8.90778767 22.2793586,9.57883308 21.5511457,10.0034087 C22.2633539,9.92065246 22.9429372,9.73714942 23.5714286,9.4642936 C23.1023684,10.1503311 22.5058863,10.754212 21.8183007,11.2357575 Z" id="Shape"></path>
            </g>
        </g>
    </g>
</svg>