<svg xmlns="http://www.w3.org/2000/svg" width="200" height="186" viewBox="0 0 200 186">
    <g fill="none" fill-rule="evenodd">
        <path fill="#797979" d="M138.358 111.505c-2.642-.653-5.233 2.283-6.555 5.642-.107.254-1.254 2.918.543 3.058.814.065 1.748-.884 2.072-2.026.214-.735.126-1.389-.186-1.77 1.233-2.263 2.816-3.263 3.67-3.052 1.236.308 1.695-1.547.456-1.852M63.568 111.505c-1.232.305-.774 2.16.462 1.853.857-.21 2.437.791 3.668 3.052-.307.382-.403 1.037-.187 1.772.325 1.14 1.259 2.088 2.076 2.027 1.793-.14.648-2.805.54-3.06-1.326-3.36-3.91-6.297-6.559-5.644"/>
        <path fill="#797979" d="M93.532 152.663c-2.448-.445-5.07-1.223-7.596-2.59-3.047-1.645-5.982-4.16-8.33-8.053-1.229-2.038-2.297-4.462-3.133-7.35-.635-2.193-1.133-4.639-1.462-7.368-.155-1.302-.747-1.369-1.792-.85-1.947.605-3.59-.057-5.871-3.425-1.41-2.093-2.79-4.463-3.549-6.882-.912-2.894-.843-5.486 0-6.927.964-1.643 2.907-1.546 4.434-.753.952.494 1.92 1.31 2.808 2.41.32.4.752.442 1.1.288a.888.888 0 0 0 .126-.051c.096.242.168.502.208.787l.361 1.419c.337 1.42.734 3.273 1.191 5.564 1.203 6.03 5.753 7.505 11.436 7.505 2.14 0 3.81-.113 5.014-.336a11.853 11.853 0 0 0 3.967-1.42c1.13-.646 2.093-1.755 2.887-3.322.41-.796.708-1.531.902-2.204.216-.547.468-1.257.757-2.128a97.327 97.327 0 0 0 1.443-4.555c.048-.248.313-.436.794-.56a6.087 6.087 0 0 1 1.588-.187c.648 0 1.189.063 1.623.187.48.124.746.312.794.56.384 1.344.865 2.875 1.441 4.592.289.847.542 1.544.759 2.091l.217.636c.192.547.42 1.07.685 1.568.817 1.567 1.78 2.676 2.885 3.322a12.255 12.255 0 0 0 4.005 1.42c1.178.223 2.837.336 4.978.336 5.685 0 10.296-1.248 11.436-7.468.457-2.39.865-4.28 1.226-5.676l.614-2.128c.003-.01.008-.017.013-.026.021.014.041.028.065.04a.912.912 0 0 0 .85.015.845.845 0 0 0 .429-.412c.794-.95 1.645-1.675 2.483-2.157 1.645-.929 3.76-1.08 4.738.804.884 1.705.77 4.79-.528 8.01-.963 2.378-3.098 6.069-4.839 7.808-1.425 1.426-2.654 1.717-4.14 1.252l-.263-.128c-.53-.33-1.39-.142-1.485.697a53.18 53.18 0 0 1-.514 3.457c-.525 2.845-1.25 5.344-2.133 7.536-1.356 3.357-3.076 5.955-4.98 7.973a21.021 21.021 0 0 1-5.696 4.28c-2.403 1.24-4.874 1.962-7.2 2.39-7.325 3.374-14.746.009-14.746.009m22.7 9.599c-2.562 3.856-11.828 4.43-15.265 4.433-3.435-.003-12.694-.577-15.253-4.433-1.577-4.793-2.758-8.9-3.568-12.355.94.704 1.907 1.311 2.884 1.846l.006.001c3.205 1.733 6.532 2.573 9.462 2.997l1.25.156c1.468.732 3.322.932 5.181.997 1.862-.065 3.704-.265 5.163-1.006l1.194-.147c2.808-.406 5.984-1.197 9.071-2.793a22.616 22.616 0 0 0 3.473-2.2c-.808 3.486-2.003 7.643-3.598 12.504m2.655-58.279c-6.133.124-11.423.86-15.872 2.203h-4.15c-4.449-1.344-9.728-2.079-15.836-2.203-4.442-.086-8.506.137-12.188.669.215-1.619.654-3.19 1.423-5.16.813-2.084 1.433-4.207.895-9.074a48.3 48.3 0 0 0-.4-2.858c.125-9.13 7.535-10.021 7.535-10.021.201-.808 8.885 1.234 8.885 1.234 2.43-1.298 5.749-2.273 8.777-1.85.845.117 1.722.321 2.511.579.191.127.439.183.718.111.037-.007.076-.02.113-.032l.084-.028c12.825-4.51 30.13-4.557 27.715 10.008a45.616 45.616 0 0 0-.465 3.452c-.436 4.458.178 6.476.944 8.479.75 1.963 1.18 3.534 1.39 5.147-3.67-.52-7.696-.74-12.079-.656m-49.29-34.062c1.663-.716 3.489-1.183 5.266-1.174 1.274.007 1.283-1.903.014-1.91-2.873-.013-5.817 1.022-8.185 2.43 1.399-1.837 3.316-3.621 5.651-5.142.385-.25 1.796-2.063 2.7-2.872 2.879.01 5.875.767 7.823 2.72.9.9 2.25-.452 1.352-1.351-2.972-2.97-7.627-3.621-11.529-3.127 2.043-1.092 4.538-1.92 7.349-2.387 3.73.706 8.251 3.045 9.698 6.811.457 1.189 2.241.505 1.786-.683-1.427-3.714-5.089-6.137-8.669-7.347 4.4-.224 9.963.354 12.436 2.078.045.03.093.059.136.084a15.325 15.325 0 0 1 3.85 5.843c1.008 2.717 1.329 5.793 1.074 9.091-.103 1.271 1.8 1.418 1.901.15.276-3.507-.059-6.87-1.186-9.906a17.279 17.279 0 0 0-3.608-5.846 19.557 19.557 0 0 0-6.981-4.76c-1.073-.434-1.763.989-.997 1.61a37.35 37.35 0 0 0-4.938-.293c.43-.187.865-.363 1.307-.525 2.15-.783 4.408-1.253 6.702-1.223 3.952.052 7.779 1.472 10.889 3.765.1.073.195.13.29.178a16.062 16.062 0 0 1 1.23 3.37c.635 2.587.686 5.422.233 8.407-.187 1.258 1.701 1.539 1.895.28.474-3.176.426-6.27-.276-9.159-.599-2.428-1.668-4.7-3.273-6.722-.581-.728-1.538-.288-1.696.39a21.423 21.423 0 0 0-2.81-1.238c1.33-.248 2.72-.376 4.154-.376 5.46.014 10.715 1.974 13.885 5.567l.134.155c1.668 1.936 3.062 4.458 3.457 6.997.19 1.257 2.08.969 1.884-.29-.307-2-1.127-3.932-2.183-5.628 1.093.386 2.122.832 3.076 1.345 1.797 3.44 2.473 8.028.835 11.115-.598 1.126 1.084 2.022 1.681.898 1.995-3.748 1.186-8.43-.398-11.95 1.65 1.64 3.184 3.803 4.455 6.38 3.534 6.188 7.84 24.58 7.166 40.35-.936.081-1.89.39-2.772.889-.333.189-.663.406-.986.646.005-.118.006-.239.006-.366 0-1.27-.16-2.007-.479-2.215-.2-1.975-.674-3.828-1.569-6.17-.646-1.696-1.234-3.427-.823-7.6.088-.972.236-2.076.442-3.339 2.964-17.853-18.28-16.24-29.99-12.21-.869-.275-1.84-.498-2.779-.633-3.428-.476-6.555-.028-9.335 1.457-.715.383-5.127-.871-6.222-.885-2.091-.026-4.23.313-6.1 1.286-3.762 1.956-6.405 6.68-5.692 10.987.166 1.006.292 1.912.388 2.73.52 4.614-.082 6.421-.777 8.196-.953 2.44-1.437 4.349-1.626 6.418-.214.375-.338 1.07-.372 2.09-.002.12-.002.234-.002.345a9.307 9.307 0 0 0-1.381-.888 6.614 6.614 0 0 0-2.493-.736c-.698-15.454 2.637-29.07 4.983-36.107m72.158 38.573c-.638-1.225-1.596-1.962-2.692-2.29.704-16.01-3.618-34.797-7.38-41.422-2.358-4.761-5.648-8.397-9.28-10.017-1.092-.487-1.865.519-1.202 1.393a29.109 29.109 0 0 0-2.786-.85c-3.626-4.04-9.423-6.11-15.246-6.128-2.825 0-5.501.467-7.95 1.322a19.192 19.192 0 0 0-2.664-.217c-2.521-.03-4.999.475-7.37 1.336a23.484 23.484 0 0 0-4.744 2.353 1.165 1.165 0 0 0-.282.258c-1.352.187-2.496.463-3.294.809a.86.86 0 0 0-.498.362.866.866 0 0 0-.161.625c-3.642 1.073-6.695 2.804-8.703 5.053a.908.908 0 0 0-.305.535c-.067.283.031.56.203.769.17.21.431.356.702.38a.892.892 0 0 0 .582-.176c.905-.466 2.079-.841 3.372-1.074-.313.355-.612.724-.905 1.107-4.214 2.784-7.284 6.47-8.495 10.072a.876.876 0 0 0-.074.609.899.899 0 0 0 .49.63c.241.126.533.157.795.066a.873.873 0 0 0 .47-.383c.668-.808 1.663-1.657 2.84-2.412-2.326 7.589-5.14 20.497-4.47 35.002-1.018.306-1.92.969-2.55 2.046-1.245 2.127-1.15 5.365-.177 8.468.82 2.596 2.271 5.129 3.795 7.382 1.884 2.784 4.793 4.697 6.524 5.562 1.847.924 2.227 4.258 2.707 6.197 1.393 5.619 6.095 9.614 7.411 15.06.975 4.033 2.163 8.007 3.46 11.949l.041.106c.195.422 2.98 5.625 17.056 5.632 4.384-.008 13.81-.729 16.842-5.289.14-.217.2-.343.2-.343l.035-.106c1.293-3.93 2.507-7.896 3.45-11.925.372-1.593.668-2.96 1.619-4.33 3.324-4.785 5.534-10.077 7.294-15.604.054-.17.473-1.58.575-1.73.886-1.302 1.895-.699 3.101-1.118 1.302-.452 1.856-1.27 2.668-2.4 1.703-2.372 3.44-4.954 4.534-7.675 1.383-3.419 1.719-7.153.462-9.594"/>
        <path fill="#E75251" d="M100.867 35.969c-39.922 0-72.401 32.47-72.401 72.383 0 39.914 32.479 72.385 72.401 72.385 39.924 0 72.404-32.47 72.404-72.385 0-39.912-32.48-72.383-72.404-72.383m0 149.418c-42.486 0-77.052-34.557-77.052-77.035 0-42.476 34.566-77.033 77.052-77.033 42.487 0 77.055 34.557 77.055 77.033 0 42.478-34.568 77.035-77.055 77.035"/>
        <path fill="#E60029" d="M0 67.615l2.178-4.363 10.796 1.775c1.195.193 2.952.699 2.952.699l.023-.047s-1.46-1.102-2.332-1.939l-7.88-7.607 2.145-4.295 13.534 13.988-2.089 4.18L0 67.616zM17.236 46.06s1.361 1.524 2.09 2.483l2.236 2.975 2.16-2.906-3.477-1.306c-1.125-.421-2.978-1.286-2.978-1.286l-.031.04zm10 3.854l-3.419 4.594 2.431 3.185-2.758 3.706-11.008-15.962 2.82-3.791 18.458 5.952-2.758 3.709-3.766-1.393zM23.121 32.216l3.671-3.213 7.12 4.077c1.087.618 2.691 1.672 2.691 1.672l.039-.036s-.831-1.728-1.3-2.887l-3.098-7.594 3.672-3.214L49.13 33.856l-3.381 2.96-5.871-5.85c-.993-.977-2.031-2.32-2.031-2.32l-.038.035s.804 1.855 1.256 2.994l2.051 5.269-2.899 2.537-4.95-2.731c-1.07-.6-2.803-1.643-2.803-1.643l-.039.034s1.192 1.208 2.031 2.319l5.02 6.594-3.403 2.976-10.952-14.814zM57.148 25.18c2.432-1.28 3.287-4.4 1.826-7.173-1.401-2.66-4.409-3.63-6.84-2.351-2.434 1.282-3.336 4.312-1.935 6.972 1.46 2.771 4.518 3.833 6.949 2.553m-6.93-13.16c4.91-2.585 10.417-.838 12.871 3.82 2.513 4.773.885 10.392-4.026 12.978-4.91 2.583-10.465.747-12.98-4.026-2.453-4.66-.777-10.186 4.135-12.772M69.009 17.808s2.54 1.22 4.755.553c.887-.265 1.741-.899 1.423-1.956-.63-2.091-8.53.366-10.158-5.045-.977-3.248 1.109-6.208 4.603-7.26 3.79-1.14 6.257.29 6.257.29l-.76 4.065s-2.238-1.017-4.354-.38c-.887.267-1.75.957-1.456 1.94.667 2.213 8.471-.565 10.144 4.995.882 2.928-.595 6.135-4.555 7.327-4.133 1.244-7.177-.577-7.177-.577l1.278-3.952zM94.998 8.892c1.565-.1 2.268-1.198 2.173-2.661-.091-1.46-.925-2.41-2.412-2.318l-2.282.146.316 4.974 2.205-.141zM87.743.499L95.36.014c3.566-.227 6.142 2.235 6.378 5.927.234 3.692-2.006 6.511-5.57 6.738l-3.13.2.362 5.666-4.488.284L87.743.5zM113.127 15.3c2.724.364 5.226-1.684 5.643-4.79.397-2.978-1.491-5.51-4.215-5.873-2.724-.364-5.213 1.583-5.611 4.559-.416 3.104 1.459 5.74 4.183 6.103M115.099.565c5.5.736 8.977 5.345 8.277 10.563-.716 5.343-5.296 8.98-10.795 8.243-5.496-.736-8.961-5.448-8.245-10.79.698-5.218 5.267-8.75 10.763-8.016M133.633 13.818c1.357.477 2.47.026 2.957-1.355.46-1.308.25-2.254-1.882-3.006l-1.43-.503-1.485 4.214 1.84.65zm-3.313-9.99l6.033 2.125c1.769.623 2.573 1.045 3.221 1.598 1.698 1.443 2.31 3.647 1.422 6.166-.65 1.84-2.23 3.543-4.257 3.808l-.017.048s.13.402.286 1.273l1.233 7.241-4.724-1.664-1.019-6.923-1.987-.699-2.058 5.836-4.238-1.493 6.105-17.316zM156.426 15.012l3.973 2.835-2.333 7.866c-.352 1.201-1.01 3.006-1.01 3.006l.044.029s1.491-1.207 2.513-1.93l6.682-4.761 3.976 2.835-9.462 15.814-3.66-2.611 4.348-7.06c.72-1.19 1.79-2.51 1.79-2.51l-.043-.03s-1.618 1.21-2.626 1.913l-4.66 3.207-3.136-2.237 1.521-5.448c.338-1.18.955-3.106.955-3.106l-.041-.03s-.901 1.439-1.791 2.51l-5.268 6.403-3.68-2.627 11.908-14.068zM184.439 32.012l2.956 3.247-4.89.352-2.318-2.543 4.252-1.056zm-6.994 6.017s-1.758 1.045-2.837 1.575l-3.35 1.624 2.438 2.679 1.949-3.164c.63-1.024 1.835-2.677 1.835-2.677l-.035-.037zm-5.7 9.075l-3.857-4.234-3.592 1.776-3.113-3.418 17.786-7.747 3.18 3.496-9.379 16.975-3.113-3.418 2.089-3.43zM178.716 52.926s-.478 2.776.77 4.722c.498.78 1.341 1.427 2.273.832 1.836-1.18-2.692-8.099 2.065-11.146 2.854-1.83 6.274-.637 8.242 2.433 2.135 3.328 1.437 6.095 1.437 6.095l-4.116.383s.363-2.43-.828-4.29c-.5-.779-1.402-1.42-2.265-.867-1.946 1.248 2.863 7.987-2.023 11.118-2.573 1.65-6.062 1.11-8.295-2.37-2.329-3.631-1.412-7.055-1.412-7.055l4.152.145zM197.435 59.838l1.97 4.18-11.65 5.04-1.62-3.439 11.3-5.781zM184.43 66.28l1.732 3.669-3.487 1.643-1.73-3.669 3.485-1.643z"/>
    </g>
</svg>
