<svg xmlns="http://www.w3.org/2000/svg" xmlns:xlink="http://www.w3.org/1999/xlink" width="109" height="110" viewBox="0 0 109 110">
    <defs>
        <path id="a" d="M0 .53h108.47V109H0z"/>
    </defs>
    <g fill="none" fill-rule="evenodd">
        <mask id="b" fill="#fff">
            <use xlink:href="#a"/>
        </mask>
        <path fill="#FF3453" d="M108.455 56.048c.708-29.944-22.99-54.794-52.937-55.502C25.574-.164.724 23.537.016 53.481c-.709 29.944 22.991 54.795 52.936 55.504 29.943.709 54.794-22.991 55.503-52.937" mask="url(#b)"/>
        <path fill="#FFF" d="M82.097 78.097h-1.902V74.29H78.29v3.807h-5.709V74.29h-1.903v3.807h-1.904v-1.643c0-3.198 2.135-6.14 5.27-6.78a6.673 6.673 0 0 1 8.053 6.52v1.903zM71.7 64.568a3.815 3.815 0 0 1 4.481-4.48 3.821 3.821 0 0 1 2.99 2.988 3.814 3.814 0 0 1-4.48 4.482 3.82 3.82 0 0 1-2.991-2.99zm-13.464-1.492a3.815 3.815 0 0 1-4.482 4.482c-1.488-.284-2.706-1.5-2.989-2.99a3.814 3.814 0 0 1 4.48-4.48 3.821 3.821 0 0 1 2.99 2.988zm2.925 13.378v1.643H59.26V74.29h-1.903v3.807h-5.71V74.29h-1.904v3.807H47.84v-1.902a6.674 6.674 0 0 1 8.055-6.521c3.134.64 5.267 3.582 5.267 6.78zm-23.86-13.378a3.815 3.815 0 0 1-4.482 4.482 3.818 3.818 0 0 1-2.99-2.99 3.814 3.814 0 0 1 4.481-4.48 3.82 3.82 0 0 1 2.99 2.988zm2.926 13.378v1.643h-1.904V74.29H36.42v3.807h-5.71V74.29h-1.903v3.807h-1.904v-1.902a6.674 6.674 0 0 1 8.055-6.521c3.134.64 5.269 3.582 5.269 6.78zm12.485-28.808a1.069 1.069 0 0 1-.755-1.822l.722-.721c.202-.2.469-.313.754-.313a1.069 1.069 0 0 1 .755 1.822l-.722.722c-.201.2-.468.312-.754.312zm-3.922-3.923c0-.284.112-.552.313-.754l.72-.72a1.069 1.069 0 0 1 1.51 1.508l-.721.722a1.068 1.068 0 0 1-1.822-.755zm-2.854-2.854c0-.286.112-.554.312-.754l.721-.722a1.068 1.068 0 0 1 1.51 1.51l-.722.721a1.069 1.069 0 0 1-1.822-.755zm-2.855-2.855c0-.285.111-.553.312-.754l.722-.722a1.067 1.067 0 0 1 1.51 1.51l-.723.72a1.068 1.068 0 0 1-1.82-.754zm5.22-15.11c1.815 0 3.523.681 4.844 1.912l-4.634 4.633a2.312 2.312 0 0 0-.59 2.248c.246.94 1.356 1.674 2.327 1.674h3.464c.756 0 1.483-.3 2.019-.835l1.066-1.068h.72c.951 0 1.873-.182 2.73-.52l6.313 6.312a1.069 1.069 0 0 1-1.51 1.508l-2.264-2.263-1.345 1.347 2.263 2.263c.2.2.313.468.313.754a1.069 1.069 0 0 1-1.822.755l-2.263-2.264-1.347 1.346 2.265 2.263a1.067 1.067 0 0 1-1.51 1.51l-2.264-2.264-1.345 1.344 2.264 2.265a1.068 1.068 0 0 1-1.51 1.51l-.318-.318a2.966 2.966 0 0 0-2.629-4.117 2.962 2.962 0 0 0-2.855-2.856 2.961 2.961 0 0 0-2.855-2.855 2.968 2.968 0 0 0-2.96-2.866c-.64 0-1.243.21-1.748.582a7.065 7.065 0 0 1-1.942-4.877c0-3.927 3.195-7.122 7.122-7.122zm12.399 0c3.927 0 7.122 3.196 7.122 7.123a7.057 7.057 0 0 1-1.475 4.33l-4.375-4.376c.284-.214.56-.439.815-.695l-1.345-1.345a5.514 5.514 0 0 1-3.925 1.624H56.01l-1.623 1.624a.954.954 0 0 1-.674.279h-3.576a.395.395 0 0 1-.278-.673l5.805-5.805a7.073 7.073 0 0 1 5.037-2.085zm18.186 45.458a5.703 5.703 0 0 0 2.26-4.54c0-2.822-2.063-5.168-4.758-5.622v-1.038a4.757 4.757 0 0 0-4.758-4.757H55.452v-3.47c.514.392 1.13.614 1.788.614a2.967 2.967 0 0 0 2.96-2.865 2.963 2.963 0 0 0 2.854-2.856 2.962 2.962 0 0 0 2.855-2.854 2.968 2.968 0 0 0 2.865-2.96c0-.794-.309-1.54-.87-2.1l-.196-.198c1.66-2.038 2.36-4.693 1.86-7.408-.67-3.65-3.657-6.567-7.317-7.178-2.894-.484-5.698.402-7.751 2.348-2.032-1.926-4.8-2.813-7.664-2.362-3.782.597-6.852 3.668-7.447 7.451-.45 2.871.445 5.648 2.384 7.681a2.944 2.944 0 0 0-.595 1.766 2.967 2.967 0 0 0 2.865 2.96 2.962 2.962 0 0 0 2.854 2.854 2.964 2.964 0 0 0 2.856 2.856 2.968 2.968 0 0 0 2.96 2.865c.288 0 .567-.054.836-.133v2.989H37.37a4.757 4.757 0 0 0-4.758 4.757V58.2c-2.696.454-4.757 2.8-4.757 5.622 0 1.852.89 3.495 2.258 4.54C27.107 69.692 25 72.699 25 76.195V80h17.129v-3.805c0-3.496-2.106-6.503-5.114-7.833a5.7 5.7 0 0 0 2.26-4.54c0-2.822-2.063-5.168-4.758-5.622v-1.038a2.855 2.855 0 0 1 2.854-2.855H53.55V58.2c-2.696.453-4.759 2.798-4.759 5.622 0 1.852.89 3.495 2.26 4.54-3.007 1.33-5.114 4.337-5.114 7.833V80h17.128v-3.805c0-3.496-2.106-6.503-5.112-7.833a5.702 5.702 0 0 0 2.258-4.54c0-2.822-2.061-5.168-4.758-5.622v-3.893H71.63a2.855 2.855 0 0 1 2.854 2.855V58.2c-2.696.453-4.757 2.798-4.757 5.622 0 1.852.89 3.495 2.258 4.54-3.006 1.33-5.114 4.337-5.114 7.833V80H84v-3.805c0-3.496-2.106-6.503-5.114-7.833z"/>
    </g>
</svg>
