<svg xmlns="http://www.w3.org/2000/svg" width="80" height="80" viewBox="0 0 80 80">
    <g fill="none" fill-rule="evenodd">
        <path fill="#DC3B41" d="M39.849 1C18.393 1 1 18.393 1 39.849c0 21.456 17.393 38.849 38.849 38.849 21.456 0 38.849-17.393 38.849-38.849C78.698 18.393 61.305 1 39.849 1z"/>
        <path fill="#FFF" d="M39.635 32.458c7.33 0 14.39 3.34 19.941 9.377-5.551 6.037-12.611 9.378-19.941 9.378-7.545 0-14.659-3.341-20.103-9.378 5.444-6.036 12.558-9.377 20.103-9.377m0 20.91c8.246 0 16.115-3.826 22.205-10.832a1.065 1.065 0 0 0 0-1.401c-6.09-7.006-13.959-10.833-22.151-10.833-8.461 0-16.384 3.827-22.366 10.779a1.066 1.066 0 0 0-.323.754c0 .27.108.54.323.755 5.928 6.952 13.851 10.779 22.312 10.779"/>
        <path fill="#FFF" d="M40.162 34.458a6.992 6.992 0 0 1 7.006 7.006 6.992 6.992 0 0 1-7.006 7.006 6.992 6.992 0 0 1-7.006-7.006 6.992 6.992 0 0 1 7.006-7.006m0 16.168a9.154 9.154 0 0 0 9.162-9.162 9.154 9.154 0 0 0-9.162-9.162A9.154 9.154 0 0 0 31 41.464a9.154 9.154 0 0 0 9.162 9.162"/>
        <path fill="#FFF" d="M39.503 38.302a3.503 3.503 0 1 1 0 7.005 3.503 3.503 0 0 1 0-7.005"/>
    </g>
</svg>
