<?xml version="1.0" encoding="UTF-8"?>
<svg width="93px" height="94px" viewBox="0 0 93 94" version="1.1" xmlns="http://www.w3.org/2000/svg" xmlns:xlink="http://www.w3.org/1999/xlink">
    <!-- Generator: sketchtool 53.2 (72643) - https://sketchapp.com -->
    <title>019AC4BA-B783-48F5-9EF2-C96EBAD5D997</title>
    <desc>Created with sketchtool.</desc>
    <defs>
        <polygon id="path-1" points="0 0.453 92.547 0.453 92.547 92.9998 0 92.9998"></polygon>
    </defs>
    <g id="Symbols" stroke="none" stroke-width="1" fill="none" fill-rule="evenodd">
        <g id="voz">
            <g id="Group-6">
                <g id="Group-3" transform="translate(0.000000, 0.547400)">
                    <mask id="mask-2" fill="white">
                        <use xlink:href="#path-1"></use>
                    </mask>
                    <g id="Clip-2"></g>
                    <path d="M92.5476,46.7268 C92.5476,21.1698 71.8296,0.4528 46.2736,0.4528 C20.7176,0.4528 -0.0004,21.1698 -0.0004,46.7268 C-0.0004,72.2828 20.7176,92.9998 46.2736,92.9998 C71.8296,92.9998 92.5476,72.2828 92.5476,46.7268" id="Fill-1" fill="#0096FF" mask="url(#mask-2)"></path>
                </g>
                <path d="M32.5334,26.1277 C30.9284,26.1277 29.3894,27.7547 27.7074,29.7257 C25.0174,32.8797 24.8294,33.2117 25.2724,37.3067 C25.9804,43.8587 30.4854,51.6507 37.3254,58.1487 C44.0994,64.5787 51.7144,68.4197 57.6914,68.4197 C58.8864,68.4197 60.0154,68.2647 61.0454,67.9547 C62.8154,67.4237 66.6894,63.9377 67.3764,61.4357 C67.5644,60.7277 67.4864,60.2067 67.1324,59.8187 C66.5684,59.2107 65.9814,58.5137 65.3614,57.7827 C63.2694,55.2927 60.9014,52.4587 58.5874,52.4587 C57.8354,52.4587 57.1044,52.7577 56.3854,53.3777 C55.7544,53.9197 55.1894,54.5287 54.6474,55.1267 C54.0944,55.7347 53.5744,56.3117 52.9764,56.8097 C52.6664,57.0747 52.2794,57.1957 51.8034,57.1957 C49.3894,57.1957 45.2834,53.5217 43.6234,51.9497 C40.3914,48.8727 37.7014,45.4527 36.7614,43.2507 C36.1974,41.9227 36.2074,40.9267 36.8054,40.3067 C37.1814,39.9187 37.6244,39.5097 38.1114,39.0777 C40.3254,37.0737 41.9524,35.4137 41.0554,33.7427 C38.9084,31.4847 36.7614,29.2377 34.6144,26.9807 C33.8944,26.4047 33.2084,26.1277 32.5334,26.1277 M57.6804,69.7477 C51.3714,69.7477 43.4134,65.7737 36.3964,59.1107 C29.3454,52.4037 24.6854,44.3017 23.9444,37.4507 C23.4574,32.9567 23.8004,32.2597 26.6894,28.8617 C28.2394,27.0467 30.1754,24.7997 32.5224,24.7997 C33.5184,24.7997 34.5034,25.1977 35.4774,25.9947 C35.4994,26.0177 35.5214,26.0277 35.5334,26.0507 C37.7134,28.3307 39.8934,30.6217 42.0624,32.9007 C42.0964,32.9347 42.1294,32.9797 42.1624,33.0237 C43.7564,35.7787 41.0004,38.2697 38.9864,40.0737 C38.5214,40.4827 38.0894,40.8817 37.7464,41.2357 C37.6134,41.3797 37.5914,41.8567 37.9674,42.7307 C38.8424,44.7887 41.4094,48.0317 44.5314,50.9977 C47.6414,53.9647 50.4964,55.8797 51.7914,55.8797 C51.9354,55.8797 52.0464,55.8577 52.1014,55.8017 C52.6334,55.3587 53.1314,54.8167 53.6514,54.2407 C54.2164,53.6207 54.8024,52.9797 55.4994,52.3817 C56.4624,51.5627 57.5034,51.1427 58.5654,51.1427 C61.4984,51.1427 64.0774,54.2187 66.3574,56.9307 C66.9664,57.6497 67.5314,58.3367 68.0844,58.9227 C68.5604,59.4327 69.0364,60.3397 68.6374,61.7897 C67.7964,64.8557 63.5354,68.5967 61.4104,69.2277 C60.2594,69.5817 59.0084,69.7477 57.6804,69.7477" id="Fill-4" fill="#FFFFFF"></path>
            </g>
        </g>
    </g>
</svg>