<?xml version="1.0" encoding="UTF-8"?>
<svg width="38px" height="38px" viewBox="0 0 38 38" version="1.1" xmlns="http://www.w3.org/2000/svg" xmlns:xlink="http://www.w3.org/1999/xlink">
    <!-- Generator: sketchtool 53.2 (72643) - https://sketchapp.com -->
    <title>2B921EBC-DE35-4BD9-8522-D0EAE161BEB8</title>
    <desc>Created with sketchtool.</desc>
    <g id="Desktop" stroke="none" stroke-width="1" fill="none" fill-rule="evenodd">
        <g id="Digital-Touchpoints" transform="translate(-281.000000, -1547.000000)">
            <g id="whatsapp-green" transform="translate(281.000000, 1547.000000)">
                <g id="whatsapp">
                    <path d="M0,38 L2.62066406,28.5 C0.917269531,25.5517344 0,22.2758672 0,18.8689297 C0,8.51726953 8.51726953,0 18.9344648,0 C29.3516602,0 38,8.51726953 38,18.8689297 C38,29.2205898 29.3517344,38 18.9344648,38 C15.6585977,38 12.5138008,36.9517344 9.69653125,35.3793359 L0,38 Z" id="Path" fill="#FFFFFF" fill-rule="nonzero"></path>
                    <path d="M10.2251773,31.9657296 L10.8145422,32.2931628 C13.2374288,33.7992514 16.05325,34.7160494 19,34.7160494 C27.5783183,34.7160494 34.7160494,27.5783183 34.7160494,18.8689971 C34.7160494,10.1596759 27.5783183,3.28395062 18.9344985,3.28395062 C10.2906788,3.28395062 3.28395062,10.2251773 3.28395062,18.8689971 C3.28395062,21.8812485 4.13524713,24.8279985 5.70683724,27.3163866 L6.09977185,27.9057514 L4.59368322,33.406391 L10.2251773,31.9657296 Z" id="Path" fill="#00DC87" fill-rule="nonzero"></path>
                    <path d="M13.8838402,10.1515175 L12.637936,10.0864198 C12.2444496,10.0864198 11.8510374,10.2166153 11.5887379,10.4769328 C10.9985454,10.9975676 10.0149407,11.9737396 9.75264122,13.2754005 C9.29363562,15.2278182 10.0149407,17.5706751 11.7199248,19.9135321 C13.4249089,22.256389 16.7036901,26.0310287 22.4742797,27.6580311 C24.3103764,28.178666 25.7530609,27.8532508 26.9334459,27.1373963 C27.8515314,26.5516636 28.4416496,25.6405894 28.63843,24.6643437 L28.835136,23.7531958 C28.9007295,23.4928784 28.7695426,23.1674632 28.5072431,23.0373413 L24.3759698,21.1500215 C24.1136703,21.0198259 23.7857773,21.0849237 23.5890712,21.3452411 L21.9496806,23.4277806 C21.8184937,23.5579762 21.6217876,23.6230003 21.4250816,23.5579762 C20.31029,23.1674632 16.5725032,21.6055585 14.5396261,17.700797 C14.4740327,17.5055773 14.4740327,17.310284 14.6052196,17.1801621 L16.1790168,15.4230378 C16.3102037,15.2278182 16.3757228,14.9675007 16.3102037,14.7722074 L14.4085135,10.5420306 C14.3428458,10.3467372 14.1461397,10.1515175 13.8838402,10.1515175" id="Path" fill="#FEFEFE" fill-rule="nonzero"></path>
                </g>
            </g>
        </g>
    </g>
</svg>