<?xml version="1.0" encoding="UTF-8"?>
<svg width="426px" height="559px" viewBox="0 0 426 559" version="1.1" xmlns="http://www.w3.org/2000/svg" xmlns:xlink="http://www.w3.org/1999/xlink">
    <!-- Generator: Sketch 53.2 (72643) - https://sketchapp.com -->
    <title>Group 168</title>
    <desc>Created with Sketch.</desc>
    <defs>
        <path d="M31.8911988,0.86040146 C14.5469659,0.86040146 0.486175602,14.9320803 0.486175602,32.2897445 L0.486175602,378.506314 C0.486175602,395.863978 14.5469659,409.935657 31.8911988,409.935657 L156.128239,409.935657 C173.403693,409.935657 187.534757,395.792153 187.534757,378.506314 L187.534757,32.2897445 C187.534757,14.9320803 173.475462,0.86040146 156.128239,0.86040146 L31.8911988,0.86040146 Z" id="path-1"></path>
        <polygon id="path-3" points="0.751852632 0.867990734 72.4992211 0.867990734 72.4992211 72.5410601 0.751852632 72.5410601"></polygon>
    </defs>
    <g id="Desktop" stroke="none" stroke-width="1" fill="none" fill-rule="evenodd">
        <g id="WhatsApp-Business" transform="translate(-872.000000, -175.000000)">
            <g id="Group-168" transform="translate(872.000000, 175.000000)">
                <g id="Group-25" transform="translate(130.000000, 100.000000)">
                    <path d="M162.607718,420.84826 L37.4129205,420.84826 C16.8569437,420.84826 0.195311216,404.176901 0.195311216,383.612267 L0.195311216,37.3576385 C0.195311216,16.7930046 16.8569437,0.121646153 37.4129205,0.121646153 L162.607718,0.121646153 C183.162199,0.121646153 199.826823,16.7930046 199.826823,37.3576385 L199.826823,383.612267 C199.826823,404.091614 183.07845,420.84826 162.607718,420.84826" id="Fill-1" fill="#333333"></path>
                    <path d="M162.143208,414.399966 L37.8771311,414.399966 C20.5290532,414.399966 6.46514587,400.329112 6.46514587,382.972465 L6.46514587,36.7761908 C6.46514587,19.4195441 20.5290532,5.3486901 37.8771311,5.3486901 L162.143208,5.3486901 C179.492781,5.3486901 193.555193,19.4195441 193.555193,36.7761908 L193.555193,382.972465 C193.555193,400.257291 179.420996,414.399966 162.143208,414.399966" id="Fill-3" fill="#FFFFFF"></path>
                    <path d="M182.722814,317.318256 C182.722814,329.794094 172.614568,339.908829 160.143393,339.908829 C147.672219,339.908829 137.565468,329.794094 137.565468,317.318256 C137.565468,304.842418 147.672219,294.727682 160.143393,294.727682 C172.614568,294.727682 182.722814,304.842418 182.722814,317.318256" id="Fill-5" fill="#FFC73C"></path>
                    <path d="M156.732103,328.051546 C153.148828,327.089449 150.083004,324.578721 148.481298,321.120858 C148.262951,320.649535 148.469333,320.089933 148.940423,319.871478 C149.410018,319.653024 149.970839,319.858012 150.189186,320.329335 C151.952409,324.137323 155.801887,326.598675 159.995336,326.598675 C164.18729,326.598675 168.038264,324.137323 169.799992,320.329335 C170.019834,319.858012 170.57916,319.653024 171.048754,319.871478 C171.52134,320.089933 171.726226,320.649535 171.50788,321.120858 C170.504383,323.287446 168.914641,325.12336 166.912135,326.431094 C164.852798,327.771745 162.461456,328.480974 159.995336,328.480974 C158.879676,328.480974 157.783457,328.332844 156.732103,328.051546" id="Fill-7" fill="#6D6E71"></path>
                    <path d="M144.326882,313.979495 C143.924586,313.871764 143.629967,313.50518 143.629967,313.069768 C143.629967,309.870758 146.230684,307.268757 149.428114,307.268757 C150.975981,307.268757 152.434117,307.871751 153.527345,308.968512 C154.623564,310.063776 155.22626,311.519639 155.22626,313.069768 C155.22626,313.590467 154.806018,314.010917 154.285576,314.010917 C153.766629,314.010917 153.344891,313.590467 153.344891,313.069768 C153.344891,312.02388 152.938108,311.039339 152.197824,310.300185 C151.459035,309.559535 150.473485,309.151056 149.428114,309.151056 C148.382742,309.151056 147.398688,309.559535 146.659899,310.300185 C145.918119,311.039339 145.511336,312.02388 145.511336,313.069768 C145.511336,313.590467 145.091094,314.010917 144.570652,314.010917 C144.485407,314.010917 144.404649,314.000443 144.326882,313.979495" id="Fill-9" fill="#6D6E71"></path>
                    <path d="M165.459981,313.979495 C165.057685,313.871764 164.763067,313.50518 164.763067,313.069768 C164.763067,309.870758 167.363783,307.268757 170.561213,307.268757 C172.109081,307.268757 173.565721,307.871751 174.660444,308.968512 C175.756664,310.063776 176.35936,311.519639 176.35936,313.069768 C176.35936,313.590467 175.937622,314.010917 175.418675,314.010917 C174.899728,314.010917 174.476495,313.590467 174.476495,313.069768 C174.476495,312.02388 174.069712,311.039339 173.330924,310.300185 C172.590639,309.559535 171.606585,309.151056 170.561213,309.151056 C168.401677,309.151056 166.644436,310.909164 166.644436,313.069768 C166.644436,313.590467 166.224194,314.010917 165.703751,314.010917 C165.618507,314.010917 165.537748,314.000443 165.459981,313.979495" id="Fill-11" fill="#6D6E71"></path>
                    <path d="M42.9080737,287.380584 L175.009201,287.380584 C179.214614,287.380584 182.624409,283.969105 182.624409,279.760118 L182.624409,269.432913 C182.624409,265.223926 179.214614,261.812448 175.009201,261.812448 L42.9080737,261.812448 C38.7011648,261.812448 35.2913702,265.223926 35.2913702,269.432913 L35.2913702,279.760118 C35.2913702,283.969105 38.7011648,287.380584 42.9080737,287.380584" id="Fill-13" fill="#E6E4E4"></path>
                    <path d="M151.109382,241.672752 C151.109382,245.708173 147.838671,248.979003 143.805243,248.979003 L23.2555429,248.979003 C21.6074755,248.979003 20.0865276,248.432867 18.8646846,247.511169 C17.4469279,249.041846 14.0117093,248.979003 14.0117093,248.979003 C14.0117093,248.979003 15.9514039,248.750075 15.9514039,241.412403 L15.9514039,241.152053 C15.9514039,237.116632 19.2221148,233.844306 23.2555429,233.844306 L143.805243,233.844306 C147.838671,233.844306 151.109382,237.116632 151.109382,241.152053 L151.109382,241.672752 Z" id="Fill-15" fill="#D6E8FF"></path>
                    <path d="M23.5160632,229.388735 C19.3375692,229.388735 15.951703,225.9997 15.951703,221.820639 C15.951703,217.641577 19.3375692,214.254038 23.5160632,214.254038 L73.2048468,214.254038 C77.3818452,214.254038 80.769207,217.641577 80.769207,221.820639 C80.769207,225.9997 77.3818452,229.388735 73.2048468,229.388735 L23.5160632,229.388735 Z" id="Fill-17" fill="#D6E8FF"></path>
                    <path d="M179.610479,206.732476 C178.337788,207.700558 176.752533,208.278115 175.031185,208.278115 L152.107794,208.278115 C147.930795,208.278115 144.546424,204.88908 144.546424,200.710019 C144.546424,196.530957 147.930795,193.143418 152.107794,193.143418 L175.031185,193.143418 C179.206688,193.143418 182.592554,196.530957 182.592554,200.710019 C182.592554,208.047691 184.533744,208.278115 184.533744,208.278115 C184.533744,208.278115 180.981875,208.343951 179.610479,206.732476 Z" id="Fill-19" fill="#E6E4E4"></path>
                    <path d="M175.030437,188.687249 L109.522001,188.687249 C105.345003,188.687249 101.959136,185.298214 101.959136,181.119152 C101.959136,176.940091 105.345003,173.552552 109.522001,173.552552 L175.030437,173.552552 C179.207435,173.552552 182.593302,176.940091 182.593302,181.119152 C182.593302,185.298214 179.207435,188.687249 175.030437,188.687249" id="Fill-21" fill="#E6E4E4"></path>
                    <path d="M174.898981,169.095485 L44.2784223,169.095485 C40.0281432,169.095485 36.5839516,165.648096 36.5839516,161.395717 L36.5839516,88.6189984 C36.5839516,84.3666199 40.0281432,80.9192308 44.2784223,80.9192308 L174.898981,80.9192308 C179.147764,80.9192308 182.593451,84.3666199 182.593451,88.6189984 L182.593451,161.395717 C182.593451,165.648096 179.147764,169.095485 174.898981,169.095485" id="Fill-23" fill="#E6E4E4"></path>
                </g>
                <g id="Group-57" transform="translate(136.000000, 105.000000)">
                    <mask id="mask-2" fill="white">
                        <use xlink:href="#path-1"></use>
                    </mask>
                    <g id="Clip-27"></g>
                    <polygon id="Fill-26" fill="#F6F6F6" mask="url(#mask-2)" points="-11.0088643 58.4788686 201.223244 58.4788686 201.223244 -5.03970803 -11.0088643 -5.03970803"></polygon>
                    <path d="M17.5167172,44.5701423 C17.3492556,44.5701423 17.1802989,44.5057993 17.0517123,44.3771131 L11.7004184,39.0216752 L17.0517123,33.6662372 C17.3088854,33.408865 17.7245489,33.408865 17.9817221,33.6662372 C18.2388952,33.9236095 18.2388952,34.3395949 17.9817221,34.5969672 L13.5604378,39.0216752 L17.9817221,43.4478796 C18.2388952,43.7037555 18.2388952,44.1212372 17.9817221,44.3771131 C17.8531355,44.5057993 17.6856739,44.5701423 17.5167172,44.5701423" id="Fill-28" fill="#80ADFF" mask="url(#mask-2)"></path>
                    <path d="M59.3083941,37.9752774 C59.3083941,44.0055693 54.4221051,48.894146 48.3979745,48.894146 C42.3708535,48.894146 37.4860596,44.0055693 37.4860596,37.9752774 C37.4860596,31.9449854 42.3708535,27.0564088 48.3979745,27.0564088 C54.4221051,27.0564088 59.3083941,31.9449854 59.3083941,37.9752774" id="Fill-29" fill="#CCCCCC" mask="url(#mask-2)"></path>
                    <path d="M59.3083941,45.1066171 C59.3083941,47.1984002 57.6161122,48.894146 55.5297586,48.894146 C53.4423693,48.894146 51.7506052,47.1984002 51.7506052,45.1066171 C51.7506052,43.014834 53.4423693,41.3190882 55.5297586,41.3190882 C57.6161122,41.3190882 59.3083941,43.014834 59.3083941,45.1066171" id="Fill-29" fill="#00DC87" mask="url(#mask-2)"></path>
                    <polygon id="Fill-30" fill="#D1D3D4" mask="url(#mask-2)" points="68.4232371 46.4272628 69.0766363 46.4272628 69.0766363 40.6947445 68.4232371 40.6947445"></polygon>
                    <path d="M72.7812747,44.896646 L72.7812747,44.521062 L71.6778226,44.5928869 C71.0543274,44.6347847 70.7807071,44.8517555 70.7807071,45.2617555 C70.7807071,45.6807336 71.1335726,45.9246387 71.610539,45.9246387 C72.2833756,45.9246387 72.7812747,45.4832153 72.7812747,44.896646 M70.1033849,45.276719 C70.1033849,44.5435073 70.6431494,44.1200401 71.5985774,44.0631788 L72.7812747,43.991354 L72.7812747,43.6187628 C72.7812747,43.1115 72.4657891,42.8346752 71.8527602,42.8346752 C71.362337,42.8346752 71.0199379,43.0202226 70.9287312,43.3434343 L70.2663609,43.3434343 C70.3545773,42.6850401 71.0019956,42.2510985 71.8766832,42.2510985 C72.8754718,42.2510985 73.4346738,42.7658431 73.4346738,43.6187628 L73.4346738,46.4259161 L72.8126737,46.4259161 L72.8126737,45.8213905 L72.7498757,45.8213905 C72.4852266,46.2598212 72.0351736,46.4992372 71.4879332,46.4992372 C70.693986,46.4992372 70.1033849,46.0278869 70.1033849,45.276719" id="Fill-31" fill="#D1D3D4" mask="url(#mask-2)"></path>
                    <path d="M76.0796694,42.2516971 C76.9379098,42.2516971 77.5359868,42.6781569 77.622708,43.3515146 L76.9767849,43.3515146 C76.8900637,43.0238139 76.5700925,42.8068431 76.0751838,42.8068431 C75.5892462,42.8068431 75.2079721,43.0552372 75.2079721,43.4203467 C75.2079721,43.7016606 75.4352414,43.8767336 75.9196838,43.9949453 L76.550655,44.147573 C77.3221743,44.3331204 77.6959724,44.6683029 77.6959724,45.257865 C77.6959724,45.992573 76.9842608,46.4983394 76.0512607,46.4983394 C75.1391933,46.4983394 74.5127076,46.0614051 74.4394432,45.3805657 L75.113775,45.3805657 C75.2244192,45.7262226 75.5503712,45.9476825 76.0751838,45.9476825 C76.6269098,45.9476825 77.0231358,45.6843248 77.0231358,45.3072445 C77.0231358,45.0259307 76.8093233,44.8358942 76.3712319,44.7296533 L75.6684914,44.5590693 C74.8999625,44.3720255 74.5515826,44.0398358 74.5515826,43.447281 C74.5515826,42.7649453 75.2079721,42.2516971 76.0796694,42.2516971" id="Fill-32" fill="#D1D3D4" mask="url(#mask-2)"></path>
                    <path d="M79.6132578,41.2617117 L79.6132578,42.3241204 L80.5253252,42.3241204 L80.5253252,42.8717847 L79.6132578,42.8717847 L79.6132578,45.1941204 C79.6132578,45.6774416 79.7956713,45.8824416 80.2218011,45.8824416 C80.3399213,45.8824416 80.4042146,45.8779526 80.5253252,45.8674781 L80.5253252,46.4196314 C80.3967387,46.4420766 80.2711425,46.4570401 80.1425559,46.4570401 C79.2977722,46.4570401 78.9598587,46.1457993 78.9598587,45.3617117 L78.9598587,42.8717847 L78.2974884,42.8717847 L78.2974884,42.3241204 L78.9598587,42.3241204 L78.9598587,41.2617117 L79.6132578,41.2617117 Z" id="Fill-33" fill="#D1D3D4" mask="url(#mask-2)"></path>
                    <path d="M85.1472643,42.2516971 C86.0069999,42.2516971 86.6050769,42.6781569 86.6917981,43.3515146 L86.0458749,43.3515146 C85.9576586,43.0238139 85.6376874,42.8068431 85.1442739,42.8068431 C84.6568411,42.8068431 84.2770622,43.0552372 84.2770622,43.4203467 C84.2770622,43.7016606 84.5043315,43.8767336 84.9887739,43.9949453 L85.6182499,44.147573 C86.3912644,44.3331204 86.7635673,44.6683029 86.7635673,45.257865 C86.7635673,45.992573 86.0518557,46.4983394 85.1203508,46.4983394 C84.2082834,46.4983394 83.5803025,46.0614051 83.5085333,45.3805657 L84.1813699,45.3805657 C84.2920141,45.7262226 84.6179661,45.9476825 85.1442739,45.9476825 C85.6945047,45.9476825 86.0907307,45.6843248 86.0907307,45.3072445 C86.0907307,45.0259307 85.8784134,44.8358942 85.440322,44.7296533 L84.7375815,44.5590693 C83.9690526,44.3720255 83.6191775,44.0398358 83.6191775,43.447281 C83.6191775,42.7649453 84.2770622,42.2516971 85.1472643,42.2516971" id="Fill-34" fill="#D1D3D4" mask="url(#mask-2)"></path>
                    <path d="M88.2675815,44.0366934 L90.5268173,44.0366934 C90.5118654,43.3094672 90.0782596,42.830635 89.4263557,42.830635 C88.7729565,42.830635 88.3169228,43.3094672 88.2675815,44.0366934 L88.2675815,44.0366934 Z M91.1622742,45.3654526 C90.9649087,46.0687372 90.3324423,46.4996861 89.4353268,46.4996861 C88.2989805,46.4996861 87.5872689,45.6766934 87.5872689,44.3793577 C87.5872689,43.0895036 88.3079517,42.2515474 89.4353268,42.2515474 C90.5417693,42.2515474 91.2146059,43.0386277 91.2146059,44.3150146 L91.2146059,44.5664015 L88.2675815,44.5664015 L88.2675815,44.5963285 C88.3004757,45.4073504 88.753519,45.9205985 89.4502787,45.9205985 C89.9795769,45.9205985 90.3369279,45.726073 90.5073798,45.3654526 L91.1622742,45.3654526 Z" id="Fill-35" fill="#D1D3D4" mask="url(#mask-2)"></path>
                    <path d="M92.7181715,44.0366934 L94.9774073,44.0366934 C94.9624554,43.3094672 94.5288496,42.830635 93.8769457,42.830635 C93.2235465,42.830635 92.7675128,43.3094672 92.7181715,44.0366934 L92.7181715,44.0366934 Z M95.6128641,45.3654526 C95.4154987,46.0687372 94.7830323,46.4996861 93.8844216,46.4996861 C92.7495705,46.4996861 92.0378589,45.6766934 92.0378589,44.3793577 C92.0378589,43.0895036 92.7600369,42.2515474 93.8844216,42.2515474 C94.9923593,42.2515474 95.6651959,43.0386277 95.6651959,44.3150146 L95.6651959,44.5664015 L92.7181715,44.5664015 L92.7181715,44.5963285 C92.7510657,45.4073504 93.204109,45.9205985 93.9008687,45.9205985 C94.4301669,45.9205985 94.7875179,45.726073 94.9579698,45.3654526 L95.6128641,45.3654526 Z" id="Fill-36" fill="#D1D3D4" mask="url(#mask-2)"></path>
                    <path d="M96.6926922,42.3241204 L97.3161874,42.3241204 L97.3161874,42.9705438 L97.3774903,42.9705438 C97.5838269,42.5171496 97.9815481,42.2522956 98.609529,42.2522956 C99.5290723,42.2522956 100.043419,42.7954708 100.043419,43.7695949 L100.043419,46.4271131 L99.3900194,46.4271131 L99.3900194,43.9297044 C99.3900194,43.1920036 99.0790194,42.8418577 98.4241251,42.8418577 C97.770726,42.8418577 97.3460913,43.278792 97.3460913,43.9985365 L97.3460913,46.4271131 L96.6926922,46.4271131 L96.6926922,42.3241204 Z" id="Fill-37" fill="#D1D3D4" mask="url(#mask-2)"></path>
                    <path d="M103.437057,42.3241204 L104.062047,42.3241204 L104.062047,42.933135 L104.121855,42.933135 C104.244461,42.5336095 104.715447,42.2522956 105.259697,42.2522956 C105.365855,42.2522956 105.503413,42.2597774 105.585649,42.2702518 L105.585649,42.9256533 C105.533317,42.9106898 105.297076,42.8867482 105.16849,42.8867482 C104.543499,42.8867482 104.090456,43.3057263 104.090456,43.8848139 L104.090456,46.4271131 L103.437057,46.4271131 L103.437057,42.3241204 Z" id="Fill-38" fill="#D1D3D4" mask="url(#mask-2)"></path>
                    <path d="M106.766253,44.0366934 L109.025488,44.0366934 C109.010537,43.3094672 108.576931,42.830635 107.925027,42.830635 C107.271628,42.830635 106.815594,43.3094672 106.766253,44.0366934 L106.766253,44.0366934 Z M109.660945,45.3654526 C109.46358,46.0687372 108.831113,46.4996861 107.933998,46.4996861 C106.797652,46.4996861 106.08594,45.6766934 106.08594,44.3793577 C106.08594,43.0895036 106.806623,42.2515474 107.933998,42.2515474 C109.04044,42.2515474 109.713277,43.0386277 109.713277,44.3150146 L109.713277,44.5664015 L106.766253,44.5664015 L106.766253,44.5963285 C106.799147,45.4073504 107.25219,45.9205985 107.94895,45.9205985 C108.478248,45.9205985 108.835599,45.726073 109.006051,45.3654526 L109.660945,45.3654526 Z" id="Fill-39" fill="#D1D3D4" mask="url(#mask-2)"></path>
                    <path d="M113.472639,43.5800073 C113.366481,43.173 113.004644,42.8408102 112.414043,42.8408102 C111.676913,42.8408102 111.211908,43.4318686 111.211908,44.3596058 C111.211908,45.308292 111.684389,45.9098248 112.414043,45.9098248 C112.965769,45.9098248 113.350034,45.6539489 113.472639,45.1900803 L114.133515,45.1900803 C114.015394,45.9442409 113.403861,46.4993869 112.418529,46.4993869 C111.268726,46.4993869 110.536081,45.6659197 110.536081,44.3596058 C110.536081,43.0817226 111.265735,42.2512482 112.414043,42.2512482 C113.411337,42.2512482 114.01988,42.8497883 114.133515,43.5800073 L113.472639,43.5800073 Z" id="Fill-40" fill="#D1D3D4" mask="url(#mask-2)"></path>
                    <path d="M115.575329,44.0366934 L117.83606,44.0366934 C117.819613,43.3094672 117.386007,42.830635 116.735598,42.830635 C116.082199,42.830635 115.62467,43.3094672 115.575329,44.0366934 L115.575329,44.0366934 Z M118.471517,45.3654526 C118.272656,46.0687372 117.641685,46.4996861 116.743074,46.4996861 C115.606728,46.4996861 114.895016,45.6766934 114.895016,44.3793577 C114.895016,43.0895036 115.617194,42.2515474 116.743074,42.2515474 C117.849516,42.2515474 118.523848,43.0386277 118.523848,44.3150146 L118.523848,44.5664015 L115.575329,44.5664015 L115.575329,44.5963285 C115.609718,45.4073504 116.062761,45.9205985 116.759521,45.9205985 C117.288819,45.9205985 117.64617,45.726073 117.816622,45.3654526 L118.471517,45.3654526 Z" id="Fill-41" fill="#D1D3D4" mask="url(#mask-2)"></path>
                    <path d="M119.551195,42.3241204 L120.17469,42.3241204 L120.17469,42.9705438 L120.235993,42.9705438 C120.440835,42.5171496 120.840051,42.2522956 121.468032,42.2522956 C122.387575,42.2522956 122.901921,42.7954708 122.901921,43.7695949 L122.901921,46.4271131 L122.248522,46.4271131 L122.248522,43.9297044 C122.248522,43.1920036 121.936027,42.8418577 121.281133,42.8418577 C120.627734,42.8418577 120.204594,43.278792 120.204594,43.9985365 L120.204594,46.4271131 L119.551195,46.4271131 L119.551195,42.3241204 Z" id="Fill-42" fill="#D1D3D4" mask="url(#mask-2)"></path>
                    <path d="M125.025394,41.2617117 L125.025394,42.3241204 L125.937461,42.3241204 L125.937461,42.8717847 L125.025394,42.8717847 L125.025394,45.1941204 C125.025394,45.6774416 125.207807,45.8824416 125.633937,45.8824416 C125.750562,45.8824416 125.816351,45.8779526 125.937461,45.8674781 L125.937461,46.4196314 C125.80738,46.4420766 125.681783,46.4570401 125.554692,46.4570401 C124.709908,46.4570401 124.371995,46.1457993 124.371995,45.3617117 L124.371995,42.8717847 L123.708129,42.8717847 L123.708129,42.3241204 L124.371995,42.3241204 L124.371995,41.2617117 L125.025394,41.2617117 Z" id="Fill-43" fill="#D1D3D4" mask="url(#mask-2)"></path>
                    <polygon id="Fill-44" fill="#D1D3D4" mask="url(#mask-2)" points="126.966004 46.4272628 127.619403 46.4272628 127.619403 40.6947445 126.966004 40.6947445"></polygon>
                    <path d="M128.947284,47.8885985 L128.947284,47.3289635 C129.028024,47.343927 129.129697,47.3484161 129.220904,47.3484161 C129.597693,47.3484161 129.802534,47.168854 129.974481,46.673562 L130.049241,46.4311533 L128.533115,42.3236715 L129.238846,42.3236715 L130.364726,45.699438 L130.426029,45.699438 L131.547424,42.3236715 L132.244183,42.3236715 L130.644327,46.6780511 C130.292957,47.6297299 129.967005,47.9110438 129.238846,47.9110438 C129.152125,47.9110438 129.038491,47.903562 128.947284,47.8885985" id="Fill-45" fill="#D1D3D4" mask="url(#mask-2)"></path>
                    <polygon id="Fill-46" fill="#6D6E71" mask="url(#mask-2)" points="72.7081598 35.8711095 68.4229381 35.8711095 68.4229381 29.091146 69.6325488 29.091146 69.6325488 34.8461095 72.7081598 34.8461095"></polygon>
                    <path d="M76.5863901,34.5603066 C76.810669,34.2625328 76.9243036,33.8435547 76.9243036,33.306365 C76.9243036,32.7706715 76.8091738,32.3516934 76.5819045,32.050927 C76.3561304,31.7501606 76.04214,31.6005255 75.6369429,31.6005255 C75.2377265,31.6005255 74.9252312,31.7501606 74.697962,32.050927 C74.4706927,32.3516934 74.3570581,32.7706715 74.3570581,33.306365 C74.3570581,33.8420584 74.4706927,34.2595401 74.697962,34.5603066 C74.9252312,34.861073 75.2377265,35.010708 75.6369429,35.010708 C76.04214,35.010708 76.3576256,34.861073 76.5863901,34.5603066 M73.8352359,35.2366569 C73.3896685,34.7638102 73.16838,34.1188832 73.16838,33.3003796 C73.16838,32.4923504 73.3911637,31.8504161 73.8397215,31.3745766 C74.2837936,30.9017299 74.8833658,30.6653066 75.6369429,30.6653066 C76.3950055,30.6653066 76.9960728,30.9017299 77.440145,31.3745766 C77.8872076,31.8474234 78.1129816,32.4893577 78.1129816,33.3003796 C78.1129816,34.1188832 77.8887028,34.7638102 77.4446306,35.2366569 C77.0005584,35.7095036 76.3979958,35.945927 75.6369429,35.945927 C74.8803755,35.945927 74.2793081,35.7095036 73.8352359,35.2366569" id="Fill-47" fill="#6D6E71" mask="url(#mask-2)"></path>
                    <path d="M78.8919769,30.7354854 L80.0133713,30.7354854 L80.0133713,31.6288066 L80.0372944,31.6288066 C80.1180348,31.3280401 80.2690492,31.0946095 80.4873473,30.9285146 C80.7041502,30.7624197 80.9628185,30.6786241 81.2663426,30.6786241 C81.4113763,30.6786241 81.5294965,30.6950839 81.6236936,30.7265073 L81.6236936,31.7934051 C81.5205253,31.7455219 81.3650253,31.7230766 81.1586888,31.7230766 C80.8177849,31.7230766 80.547155,31.8278212 80.3512848,32.0373102 C80.1569098,32.2438066 80.0597223,32.5296095 80.0597223,32.8917263 L80.0597223,35.8709599 L78.8919769,35.8709599 L78.8919769,30.7354854 Z" id="Fill-48" fill="#6D6E71" mask="url(#mask-2)"></path>
                    <path d="M83.4213636,31.9146095 C83.1940943,32.1435511 83.0670029,32.4413248 83.0415847,32.8079307 L85.4727677,32.8079307 C85.4608061,32.4383321 85.3441811,32.1405584 85.125883,31.9146095 C84.9060897,31.6901569 84.6234983,31.5764343 84.2751185,31.5764343 C83.9357098,31.5764343 83.650128,31.6901569 83.4213636,31.9146095 L83.4213636,31.9146095 Z M86.5762197,34.3446825 C86.5014601,34.8205219 86.2562485,35.2050839 85.8390898,35.499865 C85.4234263,35.7976387 84.9165561,35.9457774 84.3184791,35.9457774 C83.5619117,35.9457774 82.9608443,35.7108504 82.5197625,35.2409964 C82.0816711,34.7711423 81.863373,34.1322007 81.863373,33.3241715 C81.863373,32.5161423 82.0816711,31.8712153 82.5197625,31.3878942 C82.9548635,30.9060693 83.540979,30.6651569 84.2751185,30.6651569 C84.9958013,30.6651569 85.5669648,30.8940985 85.9901043,31.3519818 C86.4117486,31.8083686 86.6240659,32.424865 86.6240659,33.2014708 L86.6240659,33.5875292 L83.0311183,33.5875292 L83.0311183,33.6578577 C83.0311183,34.0708504 83.1522289,34.4030401 83.3929549,34.654427 C83.6351761,34.9073102 83.9506617,35.0345 84.3409069,35.0345 C84.6234983,35.0345 84.8657195,34.9716533 85.0705609,34.8459599 C85.2724119,34.7247555 85.4084744,34.5571642 85.4772532,34.3446825 L86.5762197,34.3446825 Z" id="Fill-49" fill="#6D6E71" mask="url(#mask-2)"></path>
                    <path d="M87.4075468,30.7354854 L88.5289411,30.7354854 L88.5289411,31.6377847 L88.5528642,31.6377847 C88.6664988,31.3400109 88.8533979,31.1050839 89.1165518,30.9330036 C89.3752201,30.7609234 89.6757538,30.674135 90.0121721,30.674135 C90.3755039,30.674135 90.6805231,30.7624197 90.9272299,30.9374927 C91.1784222,31.1155584 91.3533598,31.3684416 91.4490521,31.694646 L91.4729752,31.694646 C91.5985713,31.3819088 91.8034127,31.1320182 92.09348,30.9479672 C92.3775666,30.7654124 92.7050138,30.674135 93.0743263,30.674135 C93.5782062,30.674135 93.9819082,30.8297555 94.2899178,31.1395 C94.5964323,31.4507409 94.7489419,31.8622372 94.7489419,32.3754854 L94.7489419,35.8709599 L93.5811966,35.8709599 L93.5811966,32.6627847 C93.5811966,32.3425657 93.498961,32.0956679 93.3374802,31.9205949 C93.173009,31.7470182 92.9412542,31.6617263 92.6422157,31.6617263 C92.3476628,31.6617263 92.108432,31.7604854 91.9245233,31.9565073 C91.7376242,32.1540255 91.6464175,32.4099015 91.6464175,32.7226387 L91.6464175,35.8709599 L90.5100712,35.8709599 L90.5100712,32.5969453 C90.5100712,32.3081496 90.4278356,32.079208 90.2618692,31.9101204 C90.0959029,31.7440255 89.8701288,31.6617263 89.5860422,31.6617263 C89.2914893,31.6617263 89.0492681,31.7634781 88.8578835,31.9669818 C88.6709844,32.1734781 88.5752921,32.4353394 88.5752921,32.7510693 L88.5752921,35.8709599 L87.4075468,35.8709599 L87.4075468,30.7354854 Z" id="Fill-50" fill="#6D6E71" mask="url(#mask-2)"></path>
                    <polygon id="Fill-51" fill="#6D6E71" mask="url(#mask-2)" points="97.9697361 35.8720073 99.1823372 35.8720073 99.1823372 29.0920438 97.9697361 29.0920438"></polygon>
                    <path d="M103.645786,34.5083832 C103.880531,34.2076168 103.997156,33.8065949 103.997156,33.3053175 C103.997156,32.8040401 103.880531,32.4030182 103.645786,32.1037482 C103.415526,31.8014854 103.104526,31.6518504 102.717271,31.6518504 C102.334502,31.6518504 102.026492,31.8029818 101.791747,32.1082372 C101.558497,32.4119964 101.438882,32.8100255 101.438882,33.3053175 C101.438882,33.8006095 101.558497,34.200135 101.791747,34.5038942 C102.026492,34.8046606 102.334502,34.9542956 102.717271,34.9542956 C103.104526,34.9542956 103.415526,34.8061569 103.645786,34.5083832 M104.617661,31.3884927 C105.001925,31.8613394 105.194805,32.500281 105.194805,33.3053175 C105.194805,34.1073613 105.003421,34.7448066 104.622147,35.2176533 C104.239377,35.6905 103.726526,35.9269234 103.077613,35.9269234 C102.31656,35.9269234 101.781281,35.6246606 101.46729,35.020135 L101.443367,35.020135 L101.443367,37.5205365 L100.275622,37.5205365 L100.275622,30.7360839 L101.416454,30.7360839 L101.416454,31.6009745 L101.438882,31.6009745 C101.580925,31.3181642 101.796233,31.0937117 102.087795,30.9276168 C102.377863,30.7630182 102.702319,30.6792226 103.058175,30.6792226 C103.71307,30.6792226 104.233396,30.915646 104.617661,31.3884927" id="Fill-52" fill="#6D6E71" mask="url(#mask-2)"></path>
                    <path d="M106.458093,31.0926642 C106.836377,30.8083577 107.334276,30.664708 107.951791,30.664708 C108.543887,30.664708 109.026834,30.8113504 109.402127,31.1016423 C109.777421,31.390438 109.971796,31.7675182 109.983757,32.2343796 L108.895257,32.2343796 C108.87582,32.0189051 108.780127,31.8453285 108.60818,31.7166423 C108.433243,31.5924453 108.205973,31.5295985 107.926372,31.5295985 C107.655743,31.5295985 107.437444,31.5864599 107.274469,31.6986861 C107.109997,31.8139051 107.026267,31.9665328 107.026267,32.1535766 C107.026267,32.4393796 107.274469,32.6398905 107.772368,32.7551095 L108.673969,32.9631022 C109.18981,33.0813139 109.557627,33.2474088 109.777421,33.4613869 C109.992728,33.6738686 110.101878,33.970146 110.101878,34.3487226 C110.101878,34.824562 109.900027,35.2091241 109.494829,35.5039051 C109.092623,35.7986861 108.56781,35.9468248 107.921887,35.9468248 C107.298392,35.9468248 106.788531,35.8001825 106.396791,35.5098905 C106.009536,35.2210949 105.797218,34.8365328 105.758343,34.3577007 L106.909642,34.3577007 C106.981411,34.8395255 107.334276,35.0819343 107.969733,35.0819343 C108.267276,35.0819343 108.503517,35.025073 108.678454,34.9128467 C108.851897,34.8021168 108.937123,34.6524818 108.937123,34.4609489 C108.937123,34.3113139 108.883296,34.1916058 108.777137,34.1048175 C108.673969,34.0135401 108.49305,33.9387226 108.237372,33.8788686 L107.307363,33.6529197 C106.363896,33.4299635 105.88992,32.9541241 105.88992,32.2194161 C105.88992,31.7540511 106.07981,31.3769708 106.458093,31.0926642" id="Fill-53" fill="#6D6E71" mask="url(#mask-2)"></path>
                    <path d="M115.490551,35.8711095 L114.369157,35.8711095 L114.369157,34.9732993 L114.339253,34.9732993 C114.052176,35.6152336 113.507926,35.9369489 112.707998,35.9369489 C112.14431,35.9369489 111.695753,35.766365 111.36382,35.4251971 C111.027402,35.0840292 110.85695,34.6186642 110.85695,34.0291022 L110.85695,30.735635 L112.02619,30.735635 L112.02619,33.7941752 C112.02619,34.1637737 112.123378,34.4495766 112.317753,34.6500876 C112.509137,34.8461095 112.778272,34.9448686 113.125157,34.9448686 C113.481013,34.9448686 113.77108,34.8296496 113.993864,34.5977153 C114.213657,34.365781 114.322806,34.0605255 114.322806,33.6819489 L114.322806,30.735635 L115.490551,30.735635 L115.490551,35.8711095 Z" id="Fill-54" fill="#6D6E71" mask="url(#mask-2)"></path>
                    <path d="M116.486349,30.7354854 L117.607744,30.7354854 L117.607744,31.6377847 L117.631667,31.6377847 C117.743806,31.3400109 117.932201,31.1050839 118.195355,30.9330036 C118.454023,30.7609234 118.754557,30.674135 119.090975,30.674135 C119.454307,30.674135 119.759326,30.7624197 120.006033,30.9374927 C120.257225,31.1155584 120.432162,31.3684416 120.527855,31.694646 L120.551778,31.694646 C120.677374,31.3819088 120.882215,31.1320182 121.172283,30.9479672 C121.456369,30.7654124 121.783817,30.674135 122.153129,30.674135 C122.657009,30.674135 123.060711,30.8297555 123.368721,31.1395 C123.675235,31.4507409 123.827745,31.8622372 123.827745,32.3754854 L123.827745,35.8709599 L122.659999,35.8709599 L122.659999,32.6627847 C122.659999,32.3425657 122.577764,32.0956679 122.416283,31.9205949 C122.251812,31.7470182 122.021552,31.6617263 121.721018,31.6617263 C121.426466,31.6617263 121.187235,31.7604854 121.003326,31.9565073 C120.816427,32.1540255 120.72522,32.4099015 120.72522,32.7226387 L120.72522,35.8709599 L119.588874,35.8709599 L119.588874,32.5969453 C119.588874,32.3081496 119.506638,32.079208 119.340672,31.9101204 C119.174706,31.7440255 118.948932,31.6617263 118.664845,31.6617263 C118.370292,31.6617263 118.128071,31.7634781 117.936686,31.9669818 C117.749787,32.1734781 117.654095,32.4353394 117.654095,32.7510693 L117.654095,35.8709599 L116.486349,35.8709599 L116.486349,30.7354854 Z" id="Fill-55" fill="#6D6E71" mask="url(#mask-2)"></path>
                    <polygon id="Fill-56" fill="#F6F6F6" mask="url(#mask-2)" points="-12.3515472 425.132591 242.865851 425.132591 242.865851 367.328577 -12.3515472 367.328577"></polygon>
                </g>
                <g id="Group-167">
                    <path d="M180.683789,101.920529 L181.522337,110.001668 C182.070905,115.286063 187.126105,119.332606 193.181284,119.332606 L265.723853,119.332606 C271.777537,119.332606 276.834232,115.286063 277.3828,110.001668 L278.221347,101.920529 L180.683789,101.920529 Z" id="Fill-58" fill="#333333"></path>
                    <path d="M414.681554,357.93957 C418.046206,360.070351 419.954985,384.367521 416.69048,387.437518 C413.591891,390.353716 404.343954,391.340714 398.064564,389.338347 C386.677659,385.709898 376.204038,376.028061 371.501596,375.173957 C371.643596,379.814788 365.552543,377.080759 364.486796,378.039386 C364.177385,378.31712 364.175891,378.751638 364.323869,379.242897 C364.458396,379.695333 366.737869,378.335038 368.46728,379.672935 C369.301343,380.3165 365.957617,382.330812 365.552543,382.548817 C363.836585,383.477581 362.033933,382.639902 360.930817,381.773852 C360.817217,381.684261 360.630375,381.797743 360.693154,381.929144 C360.860564,382.289002 360.978648,382.668272 360.717069,383.081886 C360.371785,383.632872 355.114796,381.531955 355.382354,379.569905 C355.54528,378.37834 356.736585,374.385553 357.73208,373.619547 C358.607996,372.946119 365.887364,369.452057 368.253533,368.948852 C371.828943,368.187326 376.999238,369.446084 389.133512,369.446084 C393.142396,369.446084 397.408375,370.615251 397.408375,370.049332 C397.408375,368.187326 395.580312,362.911889 396.432312,361.585937 C399.042122,357.530436 410.832606,355.502686 414.681554,357.93957" id="Fill-60" fill="#F5B58F"></path>
                    <path d="M334.008065,540.666477 C332.514823,546.845293 331.791371,547.995048 331.293623,548.705806 C330.795876,549.415071 329.836255,557.001964 333.664276,555.73574 C335.471413,555.136971 338.819623,550.515551 339.00796,549.580815 C339.197792,548.646079 345.566865,535.676239 345.756697,534.728064 C345.945034,533.781383 334.008065,540.666477 334.008065,540.666477" id="Fill-62" fill="#F5B58F"></path>
                    <path d="M390.513303,537.222138 C391.299535,544.798579 391.26964,548.373273 390.771893,549.082538 C390.274145,549.794789 390.103745,557.747513 393.930272,556.481289 C395.740398,555.88252 398.723893,550.88183 398.486229,549.95904 C398.054251,548.277709 399.215661,532.230407 399.405493,531.283725 C399.595324,530.337044 390.513303,537.222138 390.513303,537.222138" id="Fill-64" fill="#F5B58F"></path>
                    <path d="M331.736813,547.980714 C328.521634,551.023833 307.553465,553.247191 308.69096,557.84024 C308.985423,559.027325 323.097234,558.135892 330.204707,558.150823 C335.198623,558.161276 339.854728,558.542039 341.579655,557.819336 C343.337465,557.083193 338.818876,550.514655 339.007213,549.579919 C339.197044,548.645183 331.484202,555.688555 331.736813,547.980714" id="Fill-66" fill="#CC346F"></path>
                    <path d="M390.771594,549.083135 C387.562394,554.691553 382.129025,554.670648 382.129025,558.009418 C382.129025,559.193517 386.946562,558.839632 391.885173,558.814247 C395.622015,558.793343 399.439573,559.37718 401.216815,558.575337 C402.953699,557.794399 399.542709,550.609174 398.551699,549.238427 C397.420183,548.358938 396.469531,547.61533 394.959846,547.424202 C393.708752,547.264431 392.254373,547.731799 390.771594,549.083135" id="Fill-68" fill="#CC346F"></path>
                    <path d="M405.247522,494.354326 C404.573396,489.27599 400.994996,479.425423 396.987606,473.867773 C392.977227,468.308631 401.199775,426.269389 399.240175,408.203296 L361.448743,401.75272 L362.092975,406.41147 L345.549227,401.815434 C345.549227,401.815434 343.226406,412.418569 342.60908,415.982811 C338.964912,436.991979 334.488175,456.261583 333.214659,480.625947 C333.117501,482.456596 337.452238,516.41022 333.223627,541.909407 C332.884322,543.959556 342.628512,545.385551 343.561227,543.528024 C349.791291,531.100213 357.526554,503.392598 358.245522,498.320236 C358.962996,493.247873 358.457775,482.837359 356.507143,476.459949 C355.421964,472.912133 361.953964,458.740276 368.469522,443.775537 C370.75348,452.330016 374.281059,465.991202 377.494743,480.324322 C378.378133,484.272314 378.059754,494.191568 378.938659,498.212726 C383.194175,517.631648 388.947417,533.632661 390.176091,543.450378 C390.437669,545.542336 399.518196,544.928635 399.728954,542.817266 C401.093648,529.082914 405.923143,499.432661 405.247522,494.354326" id="Fill-70" fill="#4D5068"></path>
                    <path d="M367.997335,318.10547 C377.941819,320.434845 398.374872,325.178706 404.111672,332.89252 C411.633187,343.005889 417.773566,356.616306 416.529945,360.497104 C415.870766,362.553225 406.998008,366.714743 400.546724,366.09059 C399.048998,365.945751 401.516808,404.038494 401.800808,425.638965 C401.823229,427.309843 357.511756,433.261695 338.458345,425.082006 C337.449398,424.647488 341.238556,360.81366 339.839482,361.124243 C338.441903,361.434827 323.119356,363.26697 322.497545,361.869345 C321.875735,360.473213 324.102893,342.289158 336.473335,331.233587 C342.648093,325.717747 367.997335,318.10547 367.997335,318.10547" id="Fill-72" fill="#6727E5"></path>
                    <path d="M357.464074,291.915533 L350.497105,291.915533 C349.686958,291.915533 349.027779,292.574029 349.027779,293.383338 L349.027779,296.792288 C349.027779,298.751352 350.622663,300.344585 352.582263,300.344585 L357.464074,300.344585 L357.464074,291.915533 Z M347.604789,296.792288 L347.604789,293.383338 C347.604789,291.791598 348.902221,290.49551 350.497105,290.49551 L358.887063,290.49551 L358.887063,301.764607 L352.582263,301.764607 C349.837926,301.764607 347.604789,299.533783 347.604789,296.792288 L347.604789,296.792288 Z" id="Fill-74" fill="#232850"></path>
                    <path d="M361.489998,313.680554 C355.614187,314.573481 350.922208,285.504078 352.863872,284.417037 C354.807029,283.329995 366.763429,282.801406 368.326924,284.234868 C369.582503,285.384623 365.063914,313.137033 361.489998,313.680554" id="Fill-76" fill="#F5B58F"></path>
                    <path d="M377.456179,305.770684 C375.837379,315.106101 381.578663,320.925059 379.811884,322.834847 C378.045105,324.743143 372.907695,325.770457 369.546032,325.770457 C366.185863,325.770457 356.848242,323.29475 357.044053,322.079294 C357.239863,320.865331 360.096305,308.077661 359.759989,303.575696 C356.821337,264.142069 377.239442,303.012764 377.456179,305.770684" id="Fill-78" fill="#F6A087"></path>
                    <path d="M377.456179,305.770684 C382.980726,299.349972 385.375295,280.410363 381.545779,277.379189 C369.175337,267.586856 349.634642,273.449116 347.497168,276.242873 C346.760263,277.207473 351.005316,286.43986 356.070979,294.852486 C359.123232,281.16741 358.893042,294.559821 359.495421,298.531704 C360.118726,302.637974 363.466937,305.660188 365.447463,307.384821 C367.637253,309.29013 375.477147,308.071688 377.456179,305.770684" id="Fill-80" fill="#545671"></path>
                    <path d="M341.264265,363.221278 C341.679802,374.206669 338.868202,390.025513 335.168728,391.679966 C334.034223,392.186157 322.497844,390.2256 317.738602,385.517575 C310.601234,378.456285 308.338202,362.804678 307.012371,363.834979 C304.299423,365.944855 300.857044,361.481713 298.922855,360.487249 C295.254771,358.599858 297.211381,352.180639 297.851128,350.09764 C298.263676,348.75377 289.960413,349.088245 291.248876,347.281486 C292.652434,345.314956 302.459402,348.010162 304.111086,349.282359 C306.758265,351.319069 310.544434,357.179836 312.01376,358.311673 C318.065949,362.982368 321.898455,362.924133 323.982118,367.699352 C323.545655,365.650696 323.342371,362.743458 323.575549,359.721243 C323.810223,356.702015 341.195507,361.413026 341.264265,363.221278" id="Fill-82" fill="#F5B58F"></path>
                    <path d="M9.49187789,406.301272 C15.3138779,403.201412 11.7369726,397.548199 18.2629937,391.005045 C24.78752,384.461891 33.2522147,386.452312 37.6930779,386.637467 C42.1324463,386.822623 43.0532042,384.632114 45.8274358,380.817017 C48.6016674,377.000426 51.1696253,374.682996 58.3353937,374.390331 C65.5011621,374.100653 65.7627411,378.58022 66.2380674,371.129207 C66.7133937,363.679687 73.1347832,362.936079 76.1720884,361.589223 C79.2108884,360.240873 84.6442568,362.677757 87.8728884,361.632525 C91.1045095,360.588786 95.2568884,363.285485 99.8980463,366.182272 C104.540699,369.079058 107.60192,376.746583 105.147562,381.067872 C102.691709,385.387668 101.826257,387.594601 101.826257,387.594601 C102.053457,393.87794 96.9578989,391.984577 94.9878358,396.161026 C93.0192674,400.338969 83.2601305,404.458677 77.3439621,405.129119 C71.4277937,405.801054 71.1781726,406.77312 62.2172253,416.301159 C53.2562779,425.827704 45.3416463,425.618658 38.2894779,427.225329 C31.23432,428.832 31.9801937,435.022762 22.9071411,438.90356 C13.8325937,442.785851 0.00478315789,432.200635 0.000298947368,420.912126 C-0.00269052632,413.269985 3.66987789,409.401133 9.49187789,406.301272" id="Fill-84" fill="#4D5068"></path>
                    <path d="M80.3129579,380.047278 C85.5490211,379.591855 93.1647053,378.224094 94.4337368,374.577727 C94.4337368,374.577727 102.290074,385.279412 94.4337368,392.731918 C93.5533368,393.56661 92.7073158,394.246011 91.8956737,394.795505 L91.8956737,398.900281 C91.8956737,398.900281 88.0870842,402.697461 83.9616105,398.900281 L83.9616105,396.175211 C81.9168105,395.391287 80.1948737,393.774164 78.7270421,392.048037 C75.2368316,387.946247 75.0768947,380.5027 80.3129579,380.047278" id="Fill-86" fill="#F9C59F"></path>
                    <path d="M110.593785,475.378134 C110.593785,475.378134 169.177006,477.505928 171.583533,487.081749 C173.991554,496.656077 72.8128168,523.996366 43.9957853,513.119978 C15.1802484,502.245083 7.45096421,495.506321 7.45096421,495.506321 C7.45096421,495.506321 5.28359579,484.519437 51.5352379,478.669122 C97.78688,472.820301 110.593785,475.378134 110.593785,475.378134" id="Fill-88" fill="#FF3453"></path>
                    <path d="M166.175724,484.983221 C168.15924,485.307243 170.148735,485.908998 171.583682,487.081152 C176.676251,491.242669 174.269724,498.417442 170.355008,503.943734 C168.688377,506.297 166.745219,508.351628 164.993387,509.74776 C157.820145,515.462194 147.781493,518.318664 138.268987,520.171712 C127.448587,522.278602 116.263472,523.040128 105.178503,523.397 C101.872145,523.503016 80.9488189,525.518822 79.2164189,523.588128 C79.2164189,523.588128 73.7770716,517.533247 73.7755768,517.531754 C73.6425453,517.383928 103.281682,502.983614 105.151598,502.154894 C121.267851,495.006999 147.062524,481.869922 166.175724,484.983221" id="Fill-90" fill="#FF4965"></path>
                    <path d="M66.8172779,521.067625 L69.8635516,519.483352 L72.2566253,527.122506 C68.0698674,529.931195 46.6682253,535.509749 48.2690884,527.955706 C49.8699516,520.401663 66.8172779,521.067625 66.8172779,521.067625" id="Fill-92" fill="#9FB6BE"></path>
                    <path d="M15.6546779,488.518495 C34.7678779,485.405196 60.5625516,498.542273 76.6788042,505.690168 C78.54872,506.518888 108.187857,520.919202 108.054825,521.067028 C108.053331,521.068521 102.613983,527.123402 102.613983,527.123402 C100.881583,529.054096 79.9582568,527.038291 76.6518989,526.932274 C65.5669305,526.575402 54.3818147,525.813876 43.5614147,523.706986 C34.0489095,521.853939 24.0102568,518.997468 16.8370147,513.283034 C15.0836884,511.886902 13.1420253,509.832274 11.4753937,507.479009 C7.56067789,501.952716 5.15564632,494.777943 10.24672,490.616426 C11.6816674,489.444273 13.6711621,488.842517 15.6546779,488.518495" id="Fill-94" fill="#FF4965"></path>
                    <path d="M126.603164,527.956154 C128.204027,535.510197 106.802385,529.931643 102.614133,527.122954 L105.007206,519.4838 L108.054975,521.068073 C108.054975,521.068073 125.002301,520.402111 126.603164,527.956154" id="Fill-96" fill="#9FB6BE"></path>
                    <path d="M68.2449011,499.81447 C68.2449011,499.81447 35.6715958,489.175499 33.1649221,481.000289 C30.6597432,472.82508 35.4847537,438.642998 50.1167326,418.178844 C62.7607116,400.4965 87.5314905,398.755442 89.5867537,398.452325 L89.5867537,398.437393 C89.5867537,398.437393 89.6211326,398.441872 89.6390695,398.444859 C89.6570063,398.441872 89.6898905,398.437393 89.6898905,398.437393 L89.6898905,398.452325 C91.7466484,398.755442 107.220164,399.694658 121.816269,412.331516 C143.764985,431.335332 148.618396,472.82508 146.113217,481.000289 C143.606543,489.175499 111.031743,499.81447 111.031743,499.81447 L107.900269,491.991653 L130.920712,473.54181 C130.920712,473.54181 121.249764,441.615937 118.021133,449.126678 C114.791006,456.635925 108.526564,481.979821 108.526564,481.979821 L89.6898905,481.979821 L89.5867537,481.979821 L70.75008,481.979821 C70.75008,481.979821 64.4871326,456.635925 61.2570063,449.126678 C58.02688,441.615937 48.2542905,473.54181 48.2542905,473.54181 L69.7934484,492.391828 L68.2449011,499.81447 Z" id="Fill-98" fill="#FFC73C"></path>
                    <polygon id="Fill-100" fill="#FFFFFF" points="121.692057 499.81447 89.5866042 499.81447 57.4826463 499.81447 44.9552568 464.145172 89.5866042 464.145172 134.220941 464.145172"></polygon>
                    <path d="M82.3084316,479.571905 C82.3084316,481.993857 84.2740105,483.9574 86.6984737,483.9574 C89.1229368,483.9574 91.0885158,481.993857 91.0885158,479.571905 C91.0885158,477.149952 89.1229368,475.186409 86.6984737,475.186409 C84.2740105,475.186409 82.3084316,477.149952 82.3084316,479.571905" id="Fill-102" fill="#D6E8FF"></path>
                    <g id="Group-106" transform="translate(352.757895, 157.332174)">
                        <mask id="mask-4" fill="white">
                            <use xlink:href="#path-3"></use>
                        </mask>
                        <g id="Clip-105"></g>
                        <path d="M0.751852632,72.5410601 L5.70092632,54.6227928 C2.48275789,49.0621571 0.751852632,42.8833413 0.751852632,36.4566561 C0.751852632,16.9332106 16.8337263,0.867990734 36.5014737,0.867990734 C56.1707158,0.867990734 72.4992211,16.9332106 72.4992211,36.4566561 C72.4992211,55.9815947 56.1707158,72.5410601 36.5014737,72.5410601 C30.3162526,72.5410601 24.3791579,70.5640779 19.0593895,67.5971115 L0.751852632,72.5410601 Z" id="Fill-104" fill="#EDEDED" mask="url(#mask-4)"></path>
                    </g>
                    <path d="M372.807099,218.504392 L373.920678,219.122572 C378.497562,221.964111 383.815836,223.694717 389.383731,223.694717 C405.589667,223.694717 419.072194,210.224659 419.072194,193.789128 C419.072194,177.353598 405.589667,164.377786 389.259667,164.377786 C372.931162,164.377786 359.695267,177.477532 359.695267,193.789128 C359.695267,199.473699 361.303604,205.034334 364.272152,209.730414 L365.013541,210.842839 L362.169057,221.223489 L372.807099,218.504392 Z" id="Fill-107" fill="#55CD6C"></path>
                    <path d="M379.734756,177.23026 L377.385029,177.106326 C376.642145,177.106326 375.900756,177.354195 375.405998,177.848441 C374.290924,178.836932 372.435956,180.689979 371.941198,183.1627 C371.075745,186.870288 372.435956,191.318498 375.652629,195.766708 C378.869303,200.214918 385.054524,207.382225 395.940693,210.471633 C399.402503,211.460124 402.124419,210.843437 404.351577,209.483142 C406.083977,208.370716 407.196061,206.641603 407.568251,204.788555 L407.938945,203.057949 C408.063008,202.563704 407.814882,201.945524 407.320124,201.697654 L399.526566,198.114001 C399.031808,197.867625 398.412987,197.991559 398.042293,198.485805 L394.951177,202.439769 C394.703051,202.686145 394.332356,202.81008 393.961661,202.686145 C391.857072,201.945524 384.807893,198.98005 380.970903,191.564874 C380.848335,191.194563 380.848335,190.824252 381.094966,190.576383 L384.063514,187.240599 C384.31164,186.870288 384.435703,186.376043 384.31164,186.004239 L380.724272,177.972375 C380.600208,177.602064 380.229514,177.23026 379.734756,177.23026" id="Fill-109" fill="#FEFEFE"></path>
                    <path d="M245.062554,149.857867 C245.062554,149.857867 242.086533,156.857937 238.938617,158.828946 C236.30788,160.475934 232.584491,164.498585 234.387143,167.50736 C236.189796,170.514643 255.347838,158.358592 254.570575,155.733566 C253.796301,153.107046 247.328575,144.566006 247.328575,144.566006 L245.062554,149.857867 Z" id="Fill-111" fill="#FF4965"></path>
                    <path d="M247.946947,36.4111945 L246.967895,31.104401 L247.6764,22.7500088 L245.583768,23.1337584 L242.118968,13.6400631 L233.986105,10.8896091 L230.818758,15.4348762 L231.265684,16.6055363 C231.265684,16.6055363 234.347832,26.9831995 237.000989,28.9571953 C237.863453,29.5992665 239.083158,29.2319421 240.338737,28.456977 L240.672063,32.3795844 C240.657116,33.5188875 240.778189,37.7296803 240.778189,37.7296803 L247.946947,36.4111945 Z" id="Fill-113" fill="#FFC7C7"></path>
                    <path d="M237.145082,36.3813307 L226.196135,61.7177608 L229.149735,60.1827625 L203.486598,57.5383249 C202.284829,57.4143902 201.208619,58.2879057 201.084556,59.4899228 C200.964977,60.6486375 201.781103,61.6908833 202.917103,61.8745456 L228.394893,65.9404991 C229.529398,66.1226681 230.616072,65.5866133 231.188556,64.6668089 L231.348493,64.406994 L245.905735,40.9519821 C247.348156,38.6285801 246.633672,35.5765019 244.306366,34.1370677 C241.980556,32.6961404 238.925314,33.4113779 237.484387,35.7347799 C237.358829,35.9363604 237.237756,36.1692979 237.145082,36.3813307" id="Fill-115" fill="#FFC7C7"></path>
                    <path d="M225.344882,59.2136829 C224.639366,58.5163637 223.761956,57.9728429 222.814293,57.5413113 C222.156608,57.2441667 221.350945,56.7185642 221.049008,55.8599805 C220.504924,54.3175163 218.640987,53.042333 218.330082,53.9143553 C218.019177,54.7863777 220.660377,59.0135956 218.406314,58.0071862 C216.153745,57.0007769 214.600714,53.7799683 214.600714,53.7799683 C214.600714,53.7799683 213.20164,64.3159095 222.448082,63.9112553 C228.778293,63.6365085 227.057851,60.9069592 225.344882,59.2136829" id="Fill-117" fill="#FDC8A9"></path>
                    <path d="M242.599975,153.453018 L203.397512,95.9682301 C202.823533,95.1723604 202.428922,94.2002944 202.324291,93.153569 C202.004417,89.9820357 204.319764,87.1539358 207.493091,86.8343934 L208.186648,86.7657067 L254.125891,81.8949243 C254.81048,81.8307172 255.569806,81.8232513 256.279806,81.8949243 C262.203448,82.4892135 263.660817,86.3326819 264.629406,93.0371002 C265.479912,98.9232511 258.750606,103.271417 252.825469,102.675635 L219.377743,99.6429681 L221.334354,97.8496482 L250.048248,148.22835 L242.599975,153.453018 Z" id="Fill-119" fill="#40435D"></path>
                    <path d="M208.181566,140.163039 C210.075398,136.439026 211.940829,132.707547 213.764408,128.979054 C214.679187,127.114061 215.567061,125.252054 216.442977,123.394527 L217.714998,120.624662 L218.933208,117.845837 C220.102093,115.334293 221.33824,113.352832 222.599798,111.4087 C223.861356,109.485472 225.152808,107.663782 226.469672,105.898833 C229.101903,102.362961 231.813356,98.9988064 234.566661,95.6943793 C237.322956,92.3914453 240.125587,89.1616777 242.964093,85.9677465 C244.382598,84.3715275 246.297356,83.1067965 247.736787,81.5284958 C248.126914,81.1029369 248.512556,80.6803644 248.899693,80.2592852 C249.143335,79.9800588 249.389966,79.712778 249.641082,79.4544563 C250.454219,78.574968 252.499019,77.1743568 252.499019,77.1743568 C253.566261,76.5651357 254.652935,76.2127431 255.724661,76.2127431 C262.051882,76.2127431 263.714029,82.4363546 265.177377,89.5797706 C266.660156,96.8277097 261.926324,102.243506 255.724661,103.000553 C255.319587,103.049828 254.90704,103.000553 254.497482,102.99906 C251.461672,102.9901 248.534977,104.171213 246.403482,106.330364 C246.390029,106.34231 246.379566,106.352762 246.367608,106.366201 C243.494724,109.276426 240.683124,112.22846 238.044914,115.214838 C236.723566,116.708027 235.459019,118.211669 234.28864,119.701871 C233.128724,121.177142 232.042051,122.701688 231.324577,123.938048 L229.723714,126.779587 L228.078008,129.579316 C226.971903,131.415938 225.862808,133.237629 224.741756,135.038415 C222.501145,138.64148 220.239608,142.210201 217.960135,145.758018 C213.398198,152.855145 208.794408,159.885079 204.130829,166.906053 L196.636219,162.448884 C200.535987,155.054613 204.398387,147.609573 208.181566,140.163039" id="Fill-121" fill="#4D5068"></path>
                    <path d="M262.475341,79.3884574 C262.473846,79.3645663 262.470857,79.3227571 262.469362,79.3123047 C262.469362,79.3123047 262.443952,79.2645227 262.400604,79.1779177 L258.823699,69.0988923 C257.757952,64.9373748 256.843173,59.6888156 256.734057,53.6309481 C256.454541,38.2376632 251.88812,34.1119822 251.886625,34.110489 C250.983804,33.3534422 250.049594,32.9099651 249.046625,32.6337251 C247.090015,32.3216486 244.980941,32.3963081 243.125973,32.735262 C242.312836,32.8845809 241.502688,33.1025864 240.705994,33.3564286 C239.868941,33.3176056 238.188857,33.534118 237.008015,35.6634055 C235.383236,38.5930422 226.217509,59.4110825 226.217509,59.4110825 L218.423952,55.4332271 L222.081573,64.4610475 L232.133678,63.5472158 L235.516267,58.4599211 C235.762899,59.2139815 235.973657,60.1755952 236.118646,62.1212204 L236.118646,62.1227136 C236.091741,63.4606109 236.070815,64.2654397 236.070815,64.2654397 L236.181425,66.7187492 L236.227762,69.1645927 C236.233741,69.5707401 236.251678,69.9783806 236.245699,70.3830348 L236.235236,71.5999838 C236.224773,72.4092922 236.229257,73.2200938 236.208331,74.0264159 L236.111173,76.4349296 C236.094731,76.8365975 236.087257,77.2397585 236.060352,77.6369467 L235.972162,78.8300047 L235.798773,81.2101479 L235.773362,81.5550745 C235.743467,82.0000448 235.738983,82.4509879 235.761404,82.9079037 C235.774857,83.2005687 235.818204,83.4857678 235.858562,83.7709669 L235.746457,83.84264 L235.866036,83.8336809 C235.940773,84.3144877 236.037931,84.7878286 236.184415,85.2477308 C239.247131,85.9241454 264.702499,85.6628373 264.702499,85.6628373 L262.475341,79.3884574 Z" id="Fill-123" fill="#FFD143"></path>
                    <path d="M244.121019,40.1682072 L241.394619,70.4008038 L245.515608,68.2326934 L224.728303,59.1391728 C223.620703,58.6553795 222.330745,59.1585842 221.844956,60.2650372 C221.378598,61.3281878 221.831503,62.5615618 222.847924,63.0871643 L243.016408,73.476773 C244.405019,74.1920105 246.112008,73.6469966 246.829482,72.259824 C246.938598,72.0477912 247.017819,71.8282924 247.070135,71.6058073 L247.137398,71.3086627 L253.883145,41.7106714 C254.490008,39.0468223 252.820387,36.3949187 250.153777,35.7871908 C247.485672,35.1809561 244.832514,36.8488482 244.224156,39.5141905 C244.176324,39.7232369 244.141945,39.9606539 244.121019,40.1682072" id="Fill-125" fill="#FFC7C7"></path>
                    <path d="M208.295465,69.0024323 L224.736076,68.9860073 C225.697192,68.9845141 226.401213,68.0871075 226.175507,67.1568508 L219.900602,41.3963551 C219.670413,40.4526597 218.824392,39.7881906 217.851318,39.7896838 L201.410707,39.8046157 C200.451086,39.8061089 199.745571,40.7035154 199.972771,41.6352654 L206.246181,67.395761 C206.476371,68.3394564 207.323886,69.0039255 208.295465,69.0024323" id="Fill-127" fill="#B7B8C3"></path>
                    <path d="M253.883444,41.71097 C253.883444,41.71097 249.252749,73.7936277 245.770013,74.8089962 C242.288771,75.8228715 228.377255,66.7592146 228.377255,66.7592146 C228.377255,66.7592146 230.915318,62.8366072 230.203823,60.4027092 L241.794013,65.9752904 L243.508476,39.7892359 C243.508476,39.7892359 244.429234,33.5357606 249.300581,34.7452436 C254.168939,35.9547266 254.39016,38.3826519 253.883444,41.71097" id="Fill-129" fill="#F1AD00"></path>
                    <path d="M207.959747,69.3342189 L224.400358,69.3177938 C225.359979,69.3163007 226.064,68.4188941 225.838295,67.4886374 L219.564884,41.7281417 C219.3332,40.7829531 218.487179,40.1199772 217.514105,40.1214704 L201.073495,40.1364023 C200.113874,40.1378955 199.408358,41.035302 199.635558,41.9670519 L205.908968,67.7275476 C206.139158,68.671243 206.986674,69.3357121 207.959747,69.3342189" id="Fill-131" fill="#FFFFFF"></path>
                    <path d="M200.493387,58.5728062 C200.493387,58.5728062 200.626419,56.7287178 201.956735,54.8846295 C203.285556,53.0405412 205.680124,53.1331189 205.146503,55.8059271 C204.615872,58.4802285 204.216777,58.8505393 204.216777,60.1406546 C204.216777,61.4307698 202.621893,61.7995875 201.823703,60.8782899 C201.024019,59.9554992 200.493387,58.5728062 200.493387,58.5728062" id="Fill-133" fill="#FFC7C7"></path>
                    <path d="M199.334368,161.559093 C199.334368,161.559093 192.646916,165.196501 188.956411,164.785874 C185.868284,164.442441 180.449863,165.283106 179.992474,168.75925 C179.532095,172.235394 202.104116,174.603592 203.129505,172.06517 C204.154895,169.525256 204.403021,158.819091 204.403021,158.819091 L199.334368,161.559093 Z" id="Fill-135" fill="#FF4965"></path>
                    <path d="M209.766884,49.9161926 C209.766884,50.7359533 210.430547,51.4004224 211.251158,51.4004224 C212.071768,51.4004224 212.736926,50.7359533 212.736926,49.9161926 C212.736926,49.0964319 212.071768,48.4319628 211.251158,48.4319628 C210.430547,48.4319628 209.766884,49.0964319 209.766884,49.9161926" id="Fill-137" fill="#CC346F"></path>
                    <path d="M266.933244,63.0071294 C263.573076,58.0049464 258.337013,40.9572082 261.828718,28.1322084 C265.320423,15.3057154 261.501371,4.77276054 254.929013,1.25928695 C248.356655,-2.25418664 245.437434,4.92207943 245.437434,4.92207943 C245.437434,4.92207943 245.156423,5.03257542 244.761813,5.19533301 C243.672149,4.91162711 242.531665,4.87728376 241.48236,4.96836829 C239.799286,5.11320762 238.193939,5.68659217 236.754507,6.55712133 C236.736571,6.57056003 236.428655,6.79901794 235.856171,7.14991734 C235.836739,7.16335604 235.815813,7.17679474 235.796381,7.19023344 C233.140234,9.15974966 232.059539,9.15825647 230.815918,9.46734658 C225.839939,9.7346274 225.279413,17.6395697 231.265834,16.6062829 C231.268823,16.6047897 231.271813,16.6077761 231.274802,16.6077761 C231.759097,16.6958743 232.262823,16.5002665 232.557286,16.1060646 C232.782992,15.8044405 232.999728,15.4565274 233.200023,15.057846 C234.090886,13.2734852 235.298634,12.979327 236.394276,13.2899103 C236.539265,13.3108149 236.658844,13.358597 236.763476,13.4168313 C237.791855,13.8379106 238.669265,14.7308376 239.014549,15.3042222 C239.755939,16.5405826 239.880002,20.2481708 241.241707,18.8893688 C242.603413,17.5290737 244.087686,19.5075491 243.963623,23.2151372 C243.83956,26.9227254 246.145939,27.1616356 246.145939,27.1616356 C251.668992,22.2087279 251.512044,17.7769431 249.283392,9.86602803 C248.740802,7.94130748 247.75876,6.72137211 246.583897,5.97477764 C246.909749,5.90310457 247.255034,5.82695193 247.628718,5.74184016 C258.021623,3.37214931 251.302781,31.6486684 248.536023,37.4273096 C245.769265,43.2059508 254.468634,62.9145517 256.402823,71.3465897 C258.337013,79.7786276 249.544971,90.4937515 262.477434,90.3175552 C275.408402,90.1413589 270.293413,68.0093124 266.933244,63.0071294" id="Fill-139" fill="#4D5068"></path>
                    <polygon id="Fill-165" fill="#598EFF" points="247.803901 7.54546309 248.536322 6.25534784 244.824891 4.154431 244.092469 5.44454625"></polygon>
                </g>
            </g>
        </g>
    </g>
</svg>