<?xml version="1.0" encoding="UTF-8"?>
<svg width="93px" height="94px" viewBox="0 0 93 94" version="1.1" xmlns="http://www.w3.org/2000/svg" xmlns:xlink="http://www.w3.org/1999/xlink">
    <!-- Generator: sketchtool 53.2 (72643) - https://sketchapp.com -->
    <title>DAEB970B-8B9A-4A02-AE84-16717D626AFD</title>
    <desc>Created with sketchtool.</desc>
    <defs>
        <polygon id="path-1" points="0 0.453 92.547 0.453 92.547 92.9998 0 92.9998"></polygon>
    </defs>
    <g id="Symbols" stroke="none" stroke-width="1" fill="none" fill-rule="evenodd">
        <g id="wsp">
            <g id="Group-8">
                <g id="Group-3" transform="translate(0.000000, 0.547400)">
                    <mask id="mask-2" fill="white">
                        <use xlink:href="#path-1"></use>
                    </mask>
                    <g id="Clip-2"></g>
                    <path d="M92.5476,46.7268 C92.5476,21.1698 71.8296,0.4528 46.2736,0.4528 C20.7176,0.4528 -0.0004,21.1698 -0.0004,46.7268 C-0.0004,72.2828 20.7176,92.9998 46.2736,92.9998 C71.8296,92.9998 92.5476,72.2828 92.5476,46.7268" id="Fill-1" fill="#0096FF" mask="url(#mask-2)"></path>
                </g>
                <path d="M32.6746,67.6346 L33.5996,68.1406 C37.4036,70.4736 41.8156,71.8806 46.4246,71.8526 C59.8396,71.7716 70.9356,60.5406 70.8526,46.9196 C70.7696,33.2986 59.5416,22.6136 46.0236,22.6956 C32.5056,22.7776 21.6126,33.6986 21.6956,47.2176 C21.7236,51.9286 23.0826,56.5296 25.5646,60.4056 L26.1846,61.3236 L23.8816,69.9406 L32.6746,67.6346 Z" id="Stroke-4" stroke="#FFFFFF" stroke-width="1.1"></path>
                <path d="M38.9363,34.656 L37.1663,34.573 C36.6083,34.577 36.0503,34.766 35.6803,35.141 C34.8473,35.89 33.4593,37.296 33.0983,39.16 C32.4633,41.957 33.5073,45.302 35.9483,48.639 C38.3893,51.976 43.0773,57.348 51.2843,59.626 C53.8953,60.355 55.9413,59.877 57.6103,58.843 C58.9093,57.997 59.7393,56.688 60.0103,55.291 L60.2813,53.985 C60.3723,53.612 60.1833,53.148 59.8103,52.964 L53.9283,50.3 C53.5543,50.116 53.0893,50.212 52.8123,50.586 L50.5023,53.579 C50.3173,53.766 50.0393,53.861 49.7593,53.769 C48.1733,53.22 42.8533,51.018 39.9333,45.45 C39.8373,45.171 39.8363,44.891 40.0213,44.705 L42.2403,42.177 C42.4253,41.897 42.5163,41.524 42.4213,41.245 L39.6843,35.21 C39.5893,34.931 39.3083,34.653 38.9363,34.656" id="Stroke-6" stroke="#FEFEFE"></path>
            </g>
        </g>
    </g>
</svg>